<svg xmlns="http://www.w3.org/2000/svg" xmlns:xlink="http://www.w3.org/1999/xlink" viewBox="0 0 22.27 19.69"><defs><linearGradient id="a" x1="18.11" y1="-601.93" x2="22.73" y2="-601.93" gradientTransform="matrix(0.02, -0.71, -0.89, -0.03, -522.72, 14.64)" gradientUnits="userSpaceOnUse"><stop offset="0" stop-color="#f3c8a2"/><stop offset="0.55" stop-color="#e9a967"/><stop offset="0.93" stop-color="#dd9b5e"/></linearGradient><linearGradient id="b" x1="26.33" y1="-601.85" x2="30.89" y2="-601.85" xlink:href="#a"/><linearGradient id="c" x1="30.39" y1="-604.51" x2="33.81" y2="-604.51" xlink:href="#a"/><linearGradient id="d" x1="23.73" y1="-603.47" x2="28.36" y2="-603.47" xlink:href="#a"/><linearGradient id="e" x1="29.31" y1="-592.63" x2="34.17" y2="-592.63" xlink:href="#a"/><linearGradient id="f" x1="34.77" y1="-592.73" x2="39.93" y2="-592.73" xlink:href="#a"/><linearGradient id="g" x1="35.07" y1="-602.01" x2="41.86" y2="-602.01" xlink:href="#a"/><linearGradient id="h" x1="15.85" y1="-595.29" x2="18.97" y2="-595.29" xlink:href="#a"/></defs><path d="M21.92,17.78c-.13-.15.21-.61.33-.66l0-11.76c-.37-.28-.8-.72-.64-.8a5.55,5.55,0,0,0,.62-.27l0-3.61-.3-.44L.51.45.07,14.23c.68.75,1,.72.89.92S.28,18,0,19.1l.29.46,22,.13v-1.6A3.38,3.38,0,0,1,21.92,17.78Z" style="fill:#833f18"/><path d="M21.58,17.62c-.12-.14.25-.9.37-.95l0-11.4c-.25,0-.93-.9-.77-1s.51-.31.76-.44l0-3.62L.21,0,.08,14c.18,0,.7.55.58.75a3.32,3.32,0,0,1-.6.77L0,19.11l22,.14V18.06C21.83,17.92,21.71,17.77,21.58,17.62Z" style="fill:#ffd594"/><path d="M20.77,17.43l.71,0V17l-.85,0c-1.18,0-12.25.56-13.39-.85-.6-.48-1.13-1.87-1.7-1.89a2.68,2.68,0,0,0-1.8.41,2.77,2.77,0,0,1-1.86.4L.66,15v.46l1.23,0a2.75,2.75,0,0,0,1.85-.4,2.66,2.66,0,0,1,1.81-.41c.61,0,1.19,1.42,1.82,2.35C8.52,18,19.59,17.39,20.77,17.43Z" style="fill:url(#a)"/><path d="M18.33,10.47c.55.47,1.15.95,1.7,1.43l1.52,0v-.46h0a1.28,1.28,0,0,1-1.19.43c-1.12-.5-12.1-1.74-13.19-3.15-.56-.47-1.12-.49-1.76.41-.58.44-1.21.88-1.79,1.32a13.79,13.79,0,0,0-2.91.84h0A22.18,22.18,0,0,0,3.43,11a3.11,3.11,0,0,0,1.68-.87c.59-.9,1.22-1.34,1.77-.87C7.51,8.77,17.82,10,18.33,10.47Z" style="fill:url(#b)"/><path d="M21.7,8.27h-.47c-.68.44-1.37,0-2.08-.06S8.07,7.41,7.43,6.47A1,1,0,0,0,6.5,6c-.33,0-.67.44-1,.43a2.2,2.2,0,0,1,2.06,1c.68.94,11.16,1.24,11.82,1.26a1.76,1.76,0,0,0,2.08.07S21.61,8.27,21.7,8.27Z" style="fill:url(#c)"/><path d="M21.55,13.32h-.33l-1.32,0c-.42,0-.87-.94-1.28-1.42-.82-.94-11.56-2.17-12.44-1.28-.45.9-.84,1.35-1.27,1.34s-1,.43-1.38.42c.47,0,1-.43,1.38-.42.49-.44.93-.89,1.41-1.34.93-.89,11.6.8,12.44,1.29.36.47.76,1.4,1.14,1.41l1.32,0c.08.46.23.46.33,0Z" style="fill:url(#d)"/><path d="M4,7.75c-.53.44-1,.89-1.55,1.33-.52,0-1-.49-1.49-.5H.85V9H.93c.47,0,1,.94,1.45.5a2.63,2.63,0,0,0,1.49-.87c.3-.45.6-.91.85-1.36s.48-.44.6-1.36c-.12.92-.39.45-.5.91C4.59,6.85,4.29,7.3,4,7.75Z" style="fill:url(#e)"/><path d="M1,2.15A7.75,7.75,0,0,1,2.31,4C2.89,5,3.45,5.44,4.06,5.46l.85,0,.61,0c-.25.45-.47,0-.7,0l-.9,0c-.57,0-1.15-1-1.69-1.88S1.42,2.17,1,2.15Z" style="fill:url(#f)"/><path d="M4.73.43c.22.46.44.93.62,1.39A6.52,6.52,0,0,0,7.06,4.63c.27.46,10.38.76,10.66.77s.41.47.6.48L7.8,5.11c-.28,0-.6-.48-.88-.49a7.12,7.12,0,0,1-1.67-2.8C5.12,1.36,5,1.35,4.9.89S4.77.43,4.73.43Z" style="fill:url(#g)"/><path d="M5.06,16.51c-.33,0-.63.44-1,.88,0,0-.4.91-.65,1.36h.09a3.54,3.54,0,0,1,.5-.91c.34-.45.74-.89,1.07-.88a1,1,0,0,1,1,.48c.18.47.32.47.5.94H6.8c-.22-.46-.44-.93-.71-1.4A1.13,1.13,0,0,0,5.06,16.51Z" style="fill:url(#h)"/></svg>