<svg xmlns="http://www.w3.org/2000/svg" viewBox="0 0 25.08 22.12"><path d="M8.63,4.2C8.24,3.67,7.79,1,5.33,1.89c-1.1.43-2,1.28-.45,5.23S8.63,4.2,8.63,4.2Z" style="fill:#ff5400"/><path d="M6.49,5.34S5.14,1.93,4.75,2.48s-1,1,.49,4.67Z" style="fill:#db4a09;opacity:0.7000000000000001"/><path d="M16.39,4.2c.4-.53.84-3.25,3.31-2.31,1.09.43,2,1.28.44,5.23S16.39,4.2,16.39,4.2Z" style="fill:#ff5400"/><path d="M18.54,5.34s1.34-3.41,1.73-2.86,1,1-.49,4.67Z" style="fill:#db4a09;opacity:0.7000000000000001"/><path d="M1.16,16a1.67,1.67,0,0,0,0,.24c0,.17-.81,3.64,4.21,3.49V15.56A16.57,16.57,0,0,1,1.16,16Z" style="fill:#e0a90e"/><path d="M1.54,16H1.16a1.67,1.67,0,0,0,0,.24c0,.17-.81,3.64,4.21,3.49v-.61C1.67,19,1.48,16.87,1.54,16Z" style="fill:#bc8a0c;opacity:0.24"/><path d="M13.67,1.08h0c.53.12.62,1.54.62,1.54h0V5.83a.59.59,0,0,1-.62.54h-2A.59.59,0,0,1,11,5.83V2.62h0s.09-1.42.62-1.54h0a1.73,1.73,0,0,0-1.83,1.6V5.83a1.73,1.73,0,0,0,1.83,1.6h2a1.73,1.73,0,0,0,1.83-1.6V2.68A1.73,1.73,0,0,0,13.67,1.08Z" style="fill:#ffbc00"/><path d="M11,2.62h0a.6.6,0,0,1,.62-.48h2a.6.6,0,0,1,.62.48h0s-.09-1.42-.62-1.54h-2C11.11,1.2,11,2.62,11,2.62Z" style="fill:#e0a90e"/><path d="M5.33,14.08,3.76,12.5l-.08,0a1.84,1.84,0,0,0-.57-.08,1.75,1.75,0,0,0-1.62,1v.05c0,.07-.47,1.75-.62,2.46h0a.29.29,0,0,0,.3.32h.39a16,16,0,0,0,3.79-.4Z" style="fill:#ffbc00"/><path d="M24.29,15.84a1.67,1.67,0,0,1,0,.24c0,.17.81,3.65-4.21,3.5V15.43A16.57,16.57,0,0,0,24.29,15.84Z" style="fill:#e0a90e"/><path d="M23.91,15.84h.38a1.67,1.67,0,0,1,0,.24c0,.17.81,3.65-4.21,3.5V19C23.78,18.9,24,16.74,23.91,15.84Z" style="fill:#bc8a0c;opacity:0.24"/><path d="M20.12,14l1.57-1.57.07,0a2,2,0,0,1,.58-.08,1.75,1.75,0,0,1,1.62,1v0c0,.07.47,1.75.62,2.46h0a.29.29,0,0,1-.3.32h-.39a16,16,0,0,1-3.79-.4Z" style="fill:#ffbc00"/><path d="M12.55,3.53s-8.88-.71-8.88,8.38V18.5a3.06,3.06,0,0,0,3.25,2.85H18.49a3.07,3.07,0,0,0,3.26-2.85V11.91C21.75,2.82,12.55,3.53,12.55,3.53Z" style="fill:#ff5400"/><path d="M18.49,19.63H6.92a3.07,3.07,0,0,1-3.25-2.85V18.5a3.06,3.06,0,0,0,3.25,2.85H18.49a3.07,3.07,0,0,0,3.26-2.85V16.78A3.08,3.08,0,0,1,18.49,19.63Z" style="fill:#db4a09;opacity:0.7000000000000001"/><path d="M6.4,19.85a.86.86,0,0,1-.91-.8V11.86C5.49,9,6.4,7,8.19,6a8,8,0,0,1,3.86-1h.26l.27,0,.19,0H13a8.61,8.61,0,0,1,4.08,1A5,5,0,0,1,19,7.86a7.87,7.87,0,0,1,.92,4v7.19a.86.86,0,0,1-.91.8Z" style="fill:#db4a09;opacity:0.7000000000000001"/><path d="M20.34,10a6,6,0,0,0-2.93-4.28A9.33,9.33,0,0,0,13,4.59h-.9A8.67,8.67,0,0,0,7.9,5.66,6,6,0,0,0,5.07,10l-.76-.11A6.65,6.65,0,0,1,7.47,5.1a9.58,9.58,0,0,1,4.64-1.18H13A10.27,10.27,0,0,1,17.83,5.1,6.69,6.69,0,0,1,21.1,9.84Z" style="fill:#353a3e"/><path d="M21.06,12.9a2.36,2.36,0,0,0-2.5-2.19H6.86a2.36,2.36,0,0,0-2.5,2.19v1.42h16.7Z" style="fill:#4fbded"/><rect x="4.36" y="14.02" width="16.7" height="0.3" style="fill:#39a4c9"/><path d="M5,14.32V18.5a1.83,1.83,0,0,0,1.93,1.69H18.49a1.82,1.82,0,0,0,1.93-1.69V14.32Z" style="fill:#71d3f4"/><path d="M18.49,19H6.92A1.83,1.83,0,0,1,5,17.3v1.2a1.83,1.83,0,0,0,1.93,1.69H18.49a1.82,1.82,0,0,0,1.93-1.69V17.3A1.82,1.82,0,0,1,18.49,19Z" style="fill:#5dc6e2"/><rect x="6.94" y="14.32" width="11.1" height="0.55" style="fill:#353a3e"/><rect x="7.07" y="14.46" width="0.27" height="0.26" style="fill:#fff"/><rect x="7.46" y="14.46" width="0.27" height="0.26" style="fill:#fff"/><rect x="7.85" y="14.46" width="0.27" height="0.26" style="fill:#fff"/><rect x="8.24" y="14.46" width="0.27" height="0.26" style="fill:#fff"/><rect x="8.63" y="14.46" width="0.27" height="0.26" style="fill:#fff"/><rect x="9.02" y="14.46" width="0.27" height="0.26" style="fill:#fff"/><rect x="9.41" y="14.46" width="0.27" height="0.26" style="fill:#fff"/><rect x="9.79" y="14.46" width="0.27" height="0.26" style="fill:#fff"/><rect x="10.18" y="14.46" width="0.27" height="0.26" style="fill:#fff"/><rect x="10.57" y="14.46" width="0.27" height="0.26" style="fill:#fff"/><rect x="10.96" y="14.46" width="0.27" height="0.26" style="fill:#fff"/><rect x="11.35" y="14.46" width="0.27" height="0.26" style="fill:#fff"/><rect x="11.74" y="14.46" width="0.27" height="0.26" style="fill:#fff"/><rect x="12.13" y="14.46" width="0.27" height="0.26" style="fill:#fff"/><rect x="12.52" y="14.46" width="0.27" height="0.26" style="fill:#fff"/><rect x="12.91" y="14.46" width="0.27" height="0.26" style="fill:#fff"/><rect x="13.29" y="14.46" width="0.27" height="0.26" style="fill:#fff"/><rect x="13.68" y="14.46" width="0.27" height="0.26" style="fill:#fff"/><rect x="14.07" y="14.46" width="0.27" height="0.26" style="fill:#fff"/><rect x="14.46" y="14.46" width="0.27" height="0.26" style="fill:#fff"/><rect x="14.85" y="14.46" width="0.27" height="0.26" style="fill:#fff"/><rect x="15.24" y="14.46" width="0.27" height="0.26" style="fill:#fff"/><rect x="15.63" y="14.46" width="0.27" height="0.26" style="fill:#fff"/><rect x="16.02" y="14.46" width="0.27" height="0.26" style="fill:#fff"/><rect x="16.41" y="14.46" width="0.27" height="0.26" style="fill:#fff"/><rect x="16.8" y="14.46" width="0.27" height="0.26" style="fill:#fff"/><rect x="17.18" y="14.46" width="0.27" height="0.26" style="fill:#fff"/><rect x="17.57" y="14.46" width="0.27" height="0.26" style="fill:#fff"/><rect x="7.07" y="14.46" width="0.27" height="0.12" style="fill:#efeeed"/><rect x="7.46" y="14.46" width="0.27" height="0.12" style="fill:#efeeed"/><rect x="7.85" y="14.46" width="0.27" height="0.12" style="fill:#efeeed"/><rect x="8.24" y="14.46" width="0.27" height="0.12" style="fill:#efeeed"/><rect x="8.63" y="14.46" width="0.27" height="0.12" style="fill:#efeeed"/><rect x="9.02" y="14.46" width="0.27" height="0.12" style="fill:#efeeed"/><rect x="9.41" y="14.46" width="0.27" height="0.12" style="fill:#efeeed"/><rect x="9.79" y="14.46" width="0.27" height="0.12" style="fill:#efeeed"/><rect x="10.18" y="14.46" width="0.27" height="0.12" style="fill:#efeeed"/><rect x="10.57" y="14.46" width="0.27" height="0.12" style="fill:#efeeed"/><rect x="10.96" y="14.46" width="0.27" height="0.12" style="fill:#efeeed"/><rect x="11.35" y="14.46" width="0.27" height="0.12" style="fill:#efeeed"/><rect x="11.74" y="14.46" width="0.27" height="0.12" style="fill:#efeeed"/><rect x="12.13" y="14.46" width="0.27" height="0.12" style="fill:#efeeed"/><rect x="12.52" y="14.46" width="0.27" height="0.12" style="fill:#efeeed"/><rect x="12.91" y="14.46" width="0.27" height="0.12" style="fill:#efeeed"/><rect x="13.29" y="14.46" width="0.27" height="0.12" style="fill:#efeeed"/><rect x="13.68" y="14.46" width="0.27" height="0.12" style="fill:#efeeed"/><rect x="14.07" y="14.46" width="0.27" height="0.12" style="fill:#efeeed"/><rect x="14.46" y="14.46" width="0.27" height="0.12" style="fill:#efeeed"/><rect x="14.85" y="14.46" width="0.27" height="0.12" style="fill:#efeeed"/><rect x="15.24" y="14.46" width="0.27" height="0.12" style="fill:#efeeed"/><rect x="15.63" y="14.46" width="0.27" height="0.12" style="fill:#efeeed"/><rect x="16.02" y="14.46" width="0.27" height="0.12" style="fill:#efeeed"/><rect x="16.41" y="14.46" width="0.27" height="0.12" style="fill:#efeeed"/><rect x="16.8" y="14.46" width="0.27" height="0.12" style="fill:#efeeed"/><rect x="17.18" y="14.46" width="0.27" height="0.12" style="fill:#efeeed"/><rect x="17.57" y="14.46" width="0.27" height="0.12" style="fill:#efeeed"/><path d="M18,15.23h-.15v-.72a.1.1,0,0,0-.1-.09h-.17a.09.09,0,0,0-.1.09v.72H17.4a.18.18,0,0,0-.2.17v.83a.49.49,0,0,0,.47.47.5.5,0,0,0,.56-.45V15.4A.18.18,0,0,0,18,15.23Zm-.32,1.27a.22.22,0,0,1-.23-.2.21.21,0,0,1,.23-.19.2.2,0,0,1,.22.19A.21.21,0,0,1,17.72,16.5Z" style="fill:#ffbc00"/><path d="M9,5l-.2-.31-.46.19.24.29Z" style="fill:#efeeed"/><path d="M20.49,9.76l.4,0-.06-.25-.4.06Z" style="fill:#efeeed"/><path d="M11.45,4.46l-.07-.35-.47,0L11,4.5Z" style="fill:#efeeed"/><path d="M13,4.43h.3l0-.35h-.46v.35Z" style="fill:#efeeed"/><path d="M10.83,4.52l-.11-.34-.47.08.14.33Z" style="fill:#efeeed"/><path d="M10.2,4.63l-.14-.33a4.52,4.52,0,0,0-.47.11l.17.32Z" style="fill:#efeeed"/><path d="M8.36,5.23l-.23-.29-.44.22L8,5.44Z" style="fill:#efeeed"/><path d="M9.58,4.78,9.4,4.46l-.46.14.2.32Z" style="fill:#efeeed"/><path d="M7.79,5.53l-.26-.27a3.62,3.62,0,0,0-.41.27l.28.25Z" style="fill:#efeeed"/><path d="M5.36,8.34,5,8.22c-.06.14-.12.29-.17.44l.39.09C5.25,8.61,5.3,8.47,5.36,8.34Z" style="fill:#efeeed"/><path d="M5.14,8.91l-.39-.09c0,.15-.09.3-.13.45l.4.06Z" style="fill:#efeeed"/><path d="M13.93,4.48,14,4.13l-.46,0,0,.36Z" style="fill:#efeeed"/><path d="M5.62,7.78l-.37-.15L5,8.06l.39.12C5.49,8,5.55,7.91,5.62,7.78Z" style="fill:#efeeed"/><path d="M12.08,4.44l0-.36-.46,0,.07.35Z" style="fill:#efeeed"/><path d="M7.25,5.89,7,5.64A3.93,3.93,0,0,0,6.59,6l.31.23Z" style="fill:#efeeed"/><path d="M6.33,6.76,6,6.55l-.3.38.36.18C6.14,7,6.23,6.87,6.33,6.76Z" style="fill:#efeeed"/><polygon points="12.69 4.43 12.69 4.08 12.23 4.08 12.27 4.43 12.69 4.43" style="fill:#efeeed"/><path d="M5.94,7.25l-.35-.17c-.09.13-.17.26-.25.4l.37.15C5.78,7.5,5.86,7.38,5.94,7.25Z" style="fill:#efeeed"/><path d="M6.76,6.3l-.31-.23c-.12.11-.23.23-.34.35l.33.2Z" style="fill:#efeeed"/><path d="M18.06,5.89l.28-.25A3.39,3.39,0,0,0,18,5.37l-.26.27Z" style="fill:#efeeed"/><path d="M17.5,5.53l0,0,.27-.28-.06,0L17.37,5l-.24.3Z" style="fill:#efeeed"/><path d="M20.39,9.36l.4-.06c0-.15-.08-.3-.13-.44L20.27,9Z" style="fill:#efeeed"/><path d="M18.55,6.28l.31-.23a3.47,3.47,0,0,0-.37-.3L18.21,6Z" style="fill:#efeeed"/><path d="M4.52,9.71l.4,0L5,9.5l-.4-.06Q4.55,9.56,4.52,9.71Z" style="fill:#efeeed"/><path d="M19.37,7.19,19.73,7c-.09-.12-.19-.25-.29-.36l-.33.2C19.2,7,19.29,7.07,19.37,7.19Z" style="fill:#efeeed"/><path d="M20,8.23l.38-.12-.21-.41-.37.15C19.86,8,19.93,8.1,20,8.23Z" style="fill:#efeeed"/><path d="M20.21,8.79l.39-.09c-.05-.15-.1-.29-.16-.43l-.38.12Z" style="fill:#efeeed"/><path d="M19,6.72l.33-.21A3.51,3.51,0,0,0,19,6.17l-.31.23C18.79,6.5,18.89,6.61,19,6.72Z" style="fill:#efeeed"/><path d="M19.71,7.7l.37-.15a3.73,3.73,0,0,0-.25-.39l-.35.18C19.56,7.45,19.63,7.57,19.71,7.7Z" style="fill:#efeeed"/><path d="M17,5.25,17.2,5l-.44-.19-.21.31Z" style="fill:#efeeed"/><path d="M15.77,4.82,16,4.49l-.46-.12-.14.34Z" style="fill:#efeeed"/><path d="M16.38,5l.2-.31-.45-.15L16,4.87Z" style="fill:#efeeed"/><path d="M15.16,4.67l.14-.34-.46-.09-.1.34Z" style="fill:#efeeed"/><path d="M14.55,4.55l.1-.34-.46-.06-.07.35Z" style="fill:#efeeed"/></svg>