<svg xmlns="http://www.w3.org/2000/svg" viewBox="0 0 22.55 21.43"><g style="isolation:isolate"><path d="M22.32,15.4a2.35,2.35,0,0,0-1.07-1.34,1.67,1.67,0,0,0-1.67.17.51.51,0,0,0-.16-.23c-.22-.2-.46-.36-.7-.55-.49-.39-.94-.83-1.44-1.21a7.59,7.59,0,0,0-1.47-1A6.15,6.15,0,0,0,15,11a9.72,9.72,0,0,0-3.38-.45,12.08,12.08,0,0,0-1.9.27l-.22,0a6.54,6.54,0,0,0-1.43.43,7.59,7.59,0,0,0-1.47,1c-.5.38-1,.82-1.44,1.21-.24.19-.48.35-.69.55a.44.44,0,0,0-.16.23,1.69,1.69,0,0,0-1.68-.17A2.35,2.35,0,0,0,1.55,15.4a3.63,3.63,0,0,0-.05,1.85,6.07,6.07,0,0,0,.68,1.91,4.07,4.07,0,0,0,.66.84l.14.13a3.6,3.6,0,0,0,.67.46,1.65,1.65,0,0,0,.41.18l.25.09a1.48,1.48,0,0,0,1.43-.29h0a.68.68,0,0,1,.35-.2c.35-.07.68-.17,1-.26a7.9,7.9,0,0,1,1.19-.27h.11l0,0h0c.48,0,1,.05,1.45.06.83,0,1.79.07,2.67,0l1.32,0c.49,0,1,0,1.45-.06h0l0,0h.11a7.9,7.9,0,0,1,1.19.27c.34.09.67.19,1,.26a.68.68,0,0,1,.35.2h0a1.48,1.48,0,0,0,1.43.29l.25-.09a1.9,1.9,0,0,0,.42-.18,3.88,3.88,0,0,0,.66-.46L21,20a4.07,4.07,0,0,0,.66-.84,5.83,5.83,0,0,0,.68-1.91A3.63,3.63,0,0,0,22.32,15.4ZM6.16,16.69a3.87,3.87,0,0,0-.56.15h0l0-.23a.8.8,0,0,0,.62-.21,3.8,3.8,0,0,0,.33-.28v.1a2.17,2.17,0,0,0,0,.36Zm12.12.15h0a3.87,3.87,0,0,0-.56-.15l-.36-.11a2.17,2.17,0,0,0,0-.36v-.1a3.8,3.8,0,0,0,.33.28.8.8,0,0,0,.62.21Z"/><path d="M22,17.78A5.45,5.45,0,0,1,21.56,19a2.58,2.58,0,0,1-.79,1,3,3,0,0,1-1.37.75,1.44,1.44,0,0,1-1.23-.34l-.07-.06L18,20.2a2.78,2.78,0,0,1-.37-.59,1.69,1.69,0,0,0,.28.7,5.41,5.41,0,0,0-.71-.25,6,6,0,0,0-1.43-.28,1.83,1.83,0,0,0,.73-.22s0,0,0,0a8.31,8.31,0,0,1-1.32.13c-.46,0-.92,0-1.38,0H10.14c-.46,0-.92,0-1.38,0a8.31,8.31,0,0,1-1.32-.13s0,0,0,0a1.83,1.83,0,0,0,.73.22,6.14,6.14,0,0,0-1.43.28,6,6,0,0,0-.71.25,1.69,1.69,0,0,0,.28-.7,2.78,2.78,0,0,1-.37.59l-.14.15-.07.06a1.43,1.43,0,0,1-1.23.34A3,3,0,0,1,3.1,20a2.58,2.58,0,0,1-.79-1,5.45,5.45,0,0,1-.45-1.24,4.38,4.38,0,0,1-.19-1.69,2.71,2.71,0,0,1,.55-1.51,1.41,1.41,0,0,1,1.21-.48,1.89,1.89,0,0,1,1.2.85,4.15,4.15,0,0,1,.66,1.6v0q.11.39.18.78c0,.09,0,.17,0,.26l.18.77h0c0-.35,0-.7-.07-1.05,0-.13,0-.26,0-.38a1.16,1.16,0,0,0,.55-.09,2.17,2.17,0,0,0,.38-.16h0a3.72,3.72,0,0,0,.23.87,3.6,3.6,0,0,1,0-1.31A6.78,6.78,0,0,1,7,14.83a5.38,5.38,0,0,1,.5-1.39,7.24,7.24,0,0,1,1-1.26s0,0,0,0A6.14,6.14,0,0,0,6.8,14.68a7.39,7.39,0,0,0-.27,1.22,4,4,0,0,1-.29.29c-.16.14-.45.39-.7.33A4.64,4.64,0,0,0,5.43,16a2.86,2.86,0,0,0-1-1.72c.08-.23.33-.36.55-.49a3.74,3.74,0,0,0,.55-.41l1.22-1a8.94,8.94,0,0,1,1.38-1l.33-.16a7.07,7.07,0,0,1,1.46-.35,12,12,0,0,1,1.89-.21,13.08,13.08,0,0,1,3.68.56h0l.32.16a8.94,8.94,0,0,1,1.38,1c.42.34.81.69,1.22,1a3.74,3.74,0,0,0,.55.41c.22.13.47.26.55.49a2.86,2.86,0,0,0-1,1.72,4.64,4.64,0,0,0-.11.51c-.25.06-.54-.19-.7-.33l-.29-.29a8.55,8.55,0,0,0-.26-1.22,6.16,6.16,0,0,0-1.6-2.52s0,0,0,0a7.24,7.24,0,0,1,1,1.26,5,5,0,0,1,.5,1.39,5.42,5.42,0,0,1,.21,1.49c0,.11,0,.23,0,.34a2.29,2.29,0,0,1,0,.37c0,.27-.09.54-.14.81,0,0,0,0,0,0a4.33,4.33,0,0,0,.34-1.15h0a2.54,2.54,0,0,0,.38.16,1.16,1.16,0,0,0,.55.09c0,.12,0,.25,0,.38q0,.53-.06,1.05s0,0,0,0c.07-.25.12-.51.18-.77,0-.09,0-.17,0-.26q.08-.39.18-.78v0a4.15,4.15,0,0,1,.66-1.6,1.89,1.89,0,0,1,1.2-.85,1.44,1.44,0,0,1,1.22.48,2.77,2.77,0,0,1,.54,1.51A4.38,4.38,0,0,1,22,17.78Z" style="fill:#d6813e"/><path d="M9.1,17.91A6.62,6.62,0,0,0,14,18a3.06,3.06,0,0,0,1.69-1.44,3.17,3.17,0,0,0-1.56-4.26,5.93,5.93,0,0,0-5.76.84A2.75,2.75,0,0,0,9.1,17.91Z" style="fill:#f9d8b4"/><path d="M8.64,12c0,.53-.17,1.14.2,1.61a1.2,1.2,0,0,0,1.56.13c.24-.15.4-.38.64-.54a1.16,1.16,0,0,1,.52-.15,2.22,2.22,0,0,1,.63,0,.9.9,0,0,1,.45.29,1.63,1.63,0,0,0,.81.48,1.88,1.88,0,0,0,1,0,1.28,1.28,0,0,0,.75-1.36,1.17,1.17,0,0,0-.06-.41.65.65,0,0,1-.09-.3.46.46,0,0,1,.22-.31,1.55,1.55,0,0,1,.22-.12h0a13.08,13.08,0,0,0-3.68-.56,12,12,0,0,0-1.89.21,7.07,7.07,0,0,0-1.46.35l-.33.16-.15.08C8.26,11.55,8.65,11.61,8.64,12Z" style="fill:#a27342;opacity:0.5;mix-blend-mode:multiply"/><path d="M22.21,16.17a2.07,2.07,0,0,0-.27-.45,1.56,1.56,0,0,0-2.22-.29c-.88.79-.78,2-1.28,3a0,0,0,0,1-.09,0,6.94,6.94,0,0,1,0-.79l-.18.76s0,0,0,0q0-.53.06-1.05a.57.57,0,0,0,0-.13,1.94,1.94,0,0,1-.15.36c-.07.12-.21.38-.41.37-.48-.05-.34-.86-.31-1.22h0A4.33,4.33,0,0,1,17,17.83s0,0,0,0c.05-.27.11-.54.14-.81a2.29,2.29,0,0,0,0-.37c0-.11,0-.23,0-.34a5.42,5.42,0,0,0-.21-1.49,5,5,0,0,0-.5-1.39,7.24,7.24,0,0,0-1-1.26s0,0,0,0a6.16,6.16,0,0,1,1.6,2.52,8.55,8.55,0,0,1,.26,1.22l.29.29c.16.14.45.39.7.33a4.64,4.64,0,0,1,.11-.51,2.86,2.86,0,0,1,1-1.72l0,0a1.14,1.14,0,0,1-.49.22c-.61.13-1-.38-1.36-.74s-.7-.68-1.07-1-.79-.69-1.25-.66l0,0a.05.05,0,0,1,0,0,5.86,5.86,0,0,1,.77,1.38,3,3,0,0,1-.22,2.85,2.62,2.62,0,0,1-1.07.73,8.29,8.29,0,0,1-2,.47,9.1,9.1,0,0,1-2.94-.18,3.32,3.32,0,0,1-1.4-.57A1.6,1.6,0,0,1,7.77,16a3.14,3.14,0,0,1-.13-1.43A4.64,4.64,0,0,1,8,13.2a3.44,3.44,0,0,0,.38-.91s0-.06,0-.08a7.79,7.79,0,0,0-.93,1.23A5.38,5.38,0,0,0,7,14.83a6.78,6.78,0,0,0-.22,1.41,3.6,3.6,0,0,0,0,1.31,3.35,3.35,0,0,1-.21-.75,3.29,3.29,0,0,1-.15.83c-.05.14-.19.34-.37.34s-.28-.16-.37-.35c0,.25,0,.5,0,.75h0c0-.14-.07-.28-.1-.43a1.51,1.51,0,0,1-.2.76.07.07,0,0,1-.07,0,1.92,1.92,0,0,1-.54-1,5.67,5.67,0,0,0-.74-1.5c-.41-.59-1.22-1.28-2-.64a1.36,1.36,0,0,0-.44.83,5.08,5.08,0,0,0,.21,1.38A5.45,5.45,0,0,0,2.31,19a2.58,2.58,0,0,0,.79,1,3,3,0,0,0,1.37.75,1.43,1.43,0,0,0,1.23-.34l.07-.06.14-.15a2.78,2.78,0,0,0,.37-.59,1.69,1.69,0,0,1-.28.7,6,6,0,0,1,.71-.25,6.14,6.14,0,0,1,1.43-.28,1.83,1.83,0,0,1-.73-.22s0,0,0,0a8.31,8.31,0,0,0,1.32.13c.46,0,.92,0,1.38,0h3.59c.46,0,.92,0,1.38,0a8.31,8.31,0,0,0,1.32-.13s0,0,0,0a1.83,1.83,0,0,1-.73.22,6,6,0,0,1,1.43.28,5.41,5.41,0,0,1,.71.25,1.69,1.69,0,0,1-.28-.7,2.78,2.78,0,0,0,.37.59l.14.15.07.06a1.44,1.44,0,0,0,1.23.34A3,3,0,0,0,20.77,20a2.58,2.58,0,0,0,.79-1A5.45,5.45,0,0,0,22,17.78,4.63,4.63,0,0,0,22.21,16.17Z" style="fill:#a27342;opacity:0.5;mix-blend-mode:multiply"/><path d="M20,20.41a1.62,1.62,0,0,1-1.67-.31,3.29,3.29,0,0,1-.49-1.27c-.26.2-.55.59-.92.49s-.28-.63-.31-.92a13.06,13.06,0,0,0-1.51.44,7.85,7.85,0,0,1-1.53.32,22.74,22.74,0,0,1-3.09.05c-1.17,0-2.86-.05-3.58-1.05,0,.19.06.37.08.56s0,.41-.11.54-.46-.21-.59-.42a3.34,3.34,0,0,1-1,1.71,1.55,1.55,0,0,1-.51.22,1.39,1.39,0,0,0,1-.36l.07-.06.14-.15a2.78,2.78,0,0,0,.37-.59,1.69,1.69,0,0,1-.28.7,6,6,0,0,1,.71-.25,6.14,6.14,0,0,1,1.43-.28,1.83,1.83,0,0,1-.73-.22s0,0,0,0a8.31,8.31,0,0,0,1.32.13c.46,0,.92,0,1.38,0h3.59c.46,0,.92,0,1.38,0a8.31,8.31,0,0,0,1.32-.13s0,0,0,0a1.83,1.83,0,0,1-.73.22,6,6,0,0,1,1.43.28,5.41,5.41,0,0,1,.71.25,1.69,1.69,0,0,1-.28-.7,2.78,2.78,0,0,0,.37.59l.14.15.07.06a1.44,1.44,0,0,0,1.23.34,2.65,2.65,0,0,0,1.23-.64A2.22,2.22,0,0,1,20,20.41Z" style="fill:#a27342;opacity:0.5;mix-blend-mode:multiply"/><path d="M5.54,16.52c.25.06.54-.19.7-.33a4,4,0,0,0,.29-.29,7.39,7.39,0,0,1,.27-1.22,6.08,6.08,0,0,1,1.58-2.51s0,0-.1,0l-.21.09a1.7,1.7,0,0,0-.34.26c-.19.2-.37.41-.56.6s-.47.44-.69.67-.56.82-1,1a.77.77,0,0,1-.61-.05A3.27,3.27,0,0,1,5.43,16,4.64,4.64,0,0,1,5.54,16.52Z" style="fill:#a27342;opacity:0.5;mix-blend-mode:multiply"/><path d="M19.88,20.35a3.37,3.37,0,0,0,1.35-1.57,4.12,4.12,0,0,0,.54-2.15.68.68,0,0,0-.58-.71,1.1,1.1,0,0,0-1,.23,2.94,2.94,0,0,0-1,1.51,4.91,4.91,0,0,0-.28,2C19,20.07,19.34,20.62,19.88,20.35Z"/><path d="M19.08,18.88a3.75,3.75,0,0,1,1.2-2.58,1.77,1.77,0,0,1,.56-.3,1.07,1.07,0,0,1,.42,0c.5.29.42,1,.31,1.41a3.88,3.88,0,0,1-.28.81A4.79,4.79,0,0,1,20.1,20a1.45,1.45,0,0,1-.34.2.76.76,0,0,1-.28.05C18.93,20.2,19,19.21,19.08,18.88Z" style="fill:#ffdbb0"/><path d="M3.64,16.15a1.09,1.09,0,0,0-1-.23.68.68,0,0,0-.58.71,4.12,4.12,0,0,0,.54,2.15A3.33,3.33,0,0,0,4,20.35c.53.27.89-.28,1-.69a4.91,4.91,0,0,0-.28-2A2.94,2.94,0,0,0,3.64,16.15Z"/><path d="M4.79,18.88c0,.33.16,1.32-.4,1.37a.76.76,0,0,1-.28-.05,1.69,1.69,0,0,1-.34-.2,4.64,4.64,0,0,1-1.18-1.74,3.41,3.41,0,0,1-.29-.81c-.11-.44-.19-1.12.31-1.41A1.07,1.07,0,0,1,3,16a1.67,1.67,0,0,1,.56.3A3.75,3.75,0,0,1,4.79,18.88Z" style="fill:#ffdbb0"/><path d="M20.43,19.12a.58.58,0,0,1-.92-.22,2.43,2.43,0,0,1,.18-1.63,4.19,4.19,0,0,1,.41-.82,4,4,0,0,0-1,2.43c0,.33-.15,1.32.4,1.37a.76.76,0,0,0,.28-.05,1.45,1.45,0,0,0,.34-.2,4.79,4.79,0,0,0,1.19-1.74,3.88,3.88,0,0,0,.28-.81,2.23,2.23,0,0,0,.08-.65A4.08,4.08,0,0,1,20.43,19.12Z" style="fill:#a27342;opacity:0.5;mix-blend-mode:multiply"/><path d="M4.79,18.88a4,4,0,0,0-1-2.42c.23.17.3.53.39.75a3.32,3.32,0,0,1,.24,1.92c-.07.41-.63.42-.92.22a3.88,3.88,0,0,1-1.22-2.86,1.83,1.83,0,0,0,0,1,3.41,3.41,0,0,0,.29.81A4.64,4.64,0,0,0,3.77,20a1.69,1.69,0,0,0,.34.2.76.76,0,0,0,.28.05C5,20.2,4.84,19.21,4.79,18.88Z" style="fill:#a27342;opacity:0.5;mix-blend-mode:multiply"/><path d="M18.4,3.93a2.14,2.14,0,0,0-.52-2.05,2.52,2.52,0,0,0-2.23-.68,1.37,1.37,0,0,0-1.16,1.5,5.8,5.8,0,0,0-3.38-.34A7.42,7.42,0,0,0,9,3.05,1,1,0,0,0,8,1.64a2.64,2.64,0,0,0-2,.82A2.18,2.18,0,0,0,5.23,4.4a1.15,1.15,0,0,0,.59.78A1.25,1.25,0,0,0,7,5.22c-.07.17-.14.34-.2.52s-.15.52-.22.78l0,.2a2.18,2.18,0,0,0-.75.73,1.79,1.79,0,0,0,.1,2,3.88,3.88,0,0,0,.6.75v0a5.75,5.75,0,0,0,4,1.64c.44,0,.87,0,1.3,0s.83,0,1.24-.08a7.52,7.52,0,0,0,2.29-.7c1.2-.55,2.62-1.31,3-2.56a2,2,0,0,0-.18-1.81,1.12,1.12,0,0,0-.6-.43A7.65,7.65,0,0,0,16.86,5,1.43,1.43,0,0,0,18.4,3.93Z"/><path d="M5.29,4.21a2.15,2.15,0,0,1,.79-1.73,2.44,2.44,0,0,1,1.73-.73A1.08,1.08,0,0,1,8.92,3.09a4.86,4.86,0,0,0-1,.68.82.82,0,0,0-.94-1,1.18,1.18,0,0,0-.94,1.1s0,0,0,0A1.13,1.13,0,0,1,7,2.93a.77.77,0,0,1,.92.89L7.73,4a4.81,4.81,0,0,0-.42.56c-.32.1-.77-.05-.81-.38,0,0,0,0,0,0a.59.59,0,0,0,.77.48A4.23,4.23,0,0,0,7,5.15H7A1.24,1.24,0,0,1,5.29,4.21Z" style="fill:#d6804a"/><path d="M8.73,3.05A.56.56,0,0,1,8.2,3c-.36-.3-.69-.7-1.27-.55a1.78,1.78,0,0,0-1.13,1c-.06.13-.12.42-.32.44a.29.29,0,0,1-.19,0,1.15,1.15,0,0,0,0,.37A1.24,1.24,0,0,0,7,5.15H7a4.23,4.23,0,0,1,.25-.47.59.59,0,0,1-.77-.48s0,0,0,0c0,.33.49.48.81.38A4.81,4.81,0,0,1,7.73,4l.18-.19A.77.77,0,0,0,7,2.93a1.13,1.13,0,0,0-.87.94s0,0,0,0A1.18,1.18,0,0,1,7,2.78a.82.82,0,0,1,.94,1,4.86,4.86,0,0,1,1-.68L9,2.9A.71.71,0,0,1,8.73,3.05Z" style="fill:#a27342;opacity:0.5;mix-blend-mode:multiply"/><path d="M17.35,6.2a2.65,2.65,0,0,0-.69-.06l.19,0,.12,0,.34.08a1.26,1.26,0,0,1,.58.34,1.35,1.35,0,0,1,.32.78A2.42,2.42,0,0,1,18,8.8a3.64,3.64,0,0,1-1.4,1.38,12,12,0,0,1-1.9.94,7.1,7.1,0,0,1-2.2.48,21.69,21.69,0,0,1-2.28.05l-.22,0A5.46,5.46,0,0,1,6.33,9.78a2.11,2.11,0,0,1-.57-2,2,2,0,0,1,.7-.89,1.64,1.64,0,0,1,.29-.2h0l.42-.22a2.85,2.85,0,0,0-.65.26,2.92,2.92,0,0,1,.1-.35,7.39,7.39,0,0,1,.29-.87A5,5,0,0,1,8,3.87a6.18,6.18,0,0,1,3.47-1.44,6.84,6.84,0,0,1,2,.09,4.29,4.29,0,0,1,1.84.9A7.2,7.2,0,0,1,17.35,6.2Z" style="fill:#d6813e"/><path d="M7.18,6.43a3.75,3.75,0,0,1,.75-.19,3.16,3.16,0,0,1,1,0,.11.11,0,0,1,.11,0l0,0a1.39,1.39,0,0,1,.55.24,4.92,4.92,0,0,1,.61.3,4.31,4.31,0,0,0,1,.52,2.47,2.47,0,0,0,2-.23,8.36,8.36,0,0,1,1.54-.81,2.67,2.67,0,0,1,.78-.14,4.23,4.23,0,0,1,.87,0l.29,0-.09,0a2.65,2.65,0,0,1,.69.06,7.46,7.46,0,0,0-1.63-2.44,4,4,0,0,1,.33.53c.15.31.87,1.08-.32,1.18-.52,0-.73.06-.9-.27s-.31-.49-.57-.35-.3.88-.07,1.21c-.24.18-.65.71-1,1s-.49,0-.81,0A4.51,4.51,0,0,1,11.2,7a5.36,5.36,0,0,1-1.58-.9,1,1,0,0,0,.18-.49c0-.18.08-.68-.21-.74s-.74.49-.8.71-.18.21-.5.22-.65-.11-.73-.38a2,2,0,0,1,.9-1.9s.06-.07.09-.1A3.78,3.78,0,0,0,8,3.87a5,5,0,0,0-1.08,1.6,7.39,7.39,0,0,0-.29.87,2.92,2.92,0,0,0-.1.35,2.85,2.85,0,0,1,.65-.26Z" style="fill:#a27342;opacity:0.30000000000000004;mix-blend-mode:multiply"/><path d="M16.18,8.23c-.35-.09-1.23-.8-1.11-.42s-.09.65-.16.91a2.63,2.63,0,0,1-1.57,1.15.67.67,0,0,1-.75-.21c-.16-.18-.34-.71-.6-.77-.7-.19-.6.87-1.27.93a2.32,2.32,0,0,1-2.05-.66c-.56-.51-.5-1.09-.18-1.25-.84.43-2,1.08-2.8.58a2.8,2.8,0,0,0,.64,1.29A5.46,5.46,0,0,0,10,11.63l.22,0a21.69,21.69,0,0,0,2.28-.05,7.1,7.1,0,0,0,2.2-.48,12,12,0,0,0,1.9-.94A3.64,3.64,0,0,0,18,8.8a2.57,2.57,0,0,0,.25-.87h0A2.47,2.47,0,0,1,16.18,8.23Z" style="fill:#a27342;opacity:0.30000000000000004;mix-blend-mode:multiply"/><path d="M15.54,10.21c-.09,0-.23,0-.19-.14a3.42,3.42,0,0,0,.39-1.31,1.17,1.17,0,0,0-.6-1,1.57,1.57,0,0,1,.23.71,1.59,1.59,0,0,1-1,1.36c-.41.22-1.15.65-1.66.52S12.09,9.5,12.09,9a.12.12,0,0,1,.15-.11h0c.55-.05,1.28-.36,1.43-.91a.87.87,0,0,0-.47-.93h0c-.24.22-.49,0-.81,0A4.51,4.51,0,0,1,11.2,7L11,7a1,1,0,0,0,.37,2,.12.12,0,0,1,.13.12,1.31,1.31,0,0,1-.69,1.23A1.94,1.94,0,0,1,9.18,10c-.5-.33-1.1-.89-1-1.51a1.66,1.66,0,0,1,.39-.74A1.66,1.66,0,0,0,8,8.5c-.27.79.14,1.33.58,2,.06.09,0,.18-.15.17a4,4,0,0,1-2.71-2,3.13,3.13,0,0,0,.61,1.13A5.46,5.46,0,0,0,10,11.63l.22,0a21.69,21.69,0,0,0,2.28-.05,7.1,7.1,0,0,0,2.2-.48,12,12,0,0,0,1.9-.94A3.64,3.64,0,0,0,18,8.8a2.5,2.5,0,0,0,.25-.87A4.54,4.54,0,0,1,15.54,10.21Z" style="fill:#a27342;opacity:0.5;mix-blend-mode:multiply"/><path d="M16.82,4.88c-.1-.16-.21-.32-.32-.47h.07a.67.67,0,0,0,.33-.18c.14-.12.32-.37.24-.56,0,0,0,0,0,0,0,.18-.1.35-.24.47a.68.68,0,0,1-.23.14.45.45,0,0,1-.23,0,6,6,0,0,0-.93-1c-.22-1,1.14-1.47,1.9-.86,0,0,.06,0,0,0A1.34,1.34,0,0,0,16,2.17a.91.91,0,0,0-.61,1.08l-.22-.16a3.44,3.44,0,0,0-.58-.35,1.43,1.43,0,0,1,.34-1A1.39,1.39,0,0,1,16,1.29a2.29,2.29,0,0,1,1.8.65,2.1,2.1,0,0,1,.55,1.72A1.39,1.39,0,0,1,16.82,4.88Z" style="fill:#d6804a"/><path d="M18.08,3.93c-.06.08-.18,0-.21-.05-.23-.57.13-1.31-.47-1.75a1.84,1.84,0,0,0-1-.31.89.89,0,0,0-.84.39c-.16.18-.52.43-.78.23a.44.44,0,0,1-.12-.15,1.33,1.33,0,0,0-.06.45,3.44,3.44,0,0,1,.58.35l.22.16A.91.91,0,0,1,16,2.17a1.34,1.34,0,0,1,1.43.27s0,.05,0,0c-.76-.61-2.12-.15-1.9.86a6,6,0,0,1,.93,1,.45.45,0,0,0,.23,0,.68.68,0,0,0,.23-.14c.14-.12.29-.29.24-.47,0,0,0,0,0,0,.08.19-.1.44-.24.56a.67.67,0,0,1-.33.18H16.5c.11.15.22.31.32.47a1.39,1.39,0,0,0,1.54-1.22,2.26,2.26,0,0,0,0-.37A1.25,1.25,0,0,1,18.08,3.93Z" style="fill:#a27342;opacity:0.5;mix-blend-mode:multiply"/><path d="M6.5,4.47a.7.7,0,0,0,.28.17.52.52,0,0,1-.31-.44s0,0,0,0c0,.33.49.48.81.38A4.81,4.81,0,0,1,7.73,4l.18-.19A.77.77,0,0,0,7,2.93c-.72.14-1.31,1.29-.7,1.81.09.08.35.19.17-.1S6.43,4.37,6.5,4.47Z" style="fill:#fadbae"/><path d="M16.63,4.29a.68.68,0,0,0,.23-.14c.14-.12.29-.29.24-.47,0,0,0,0,0,0,.08.19-.1.44-.24.56l-.15.12a1,1,0,0,0,.68-1c0-.28.18.48.26,0,0-.15-.17-.82-.49-.92-.77-.44-1.94,0-1.73,1a6,6,0,0,1,.93,1A.45.45,0,0,0,16.63,4.29Z" style="fill:#fadbae"/><path d="M6.5,4.47a.7.7,0,0,0,.28.17.55.55,0,0,1-.31-.39A.58.58,0,0,1,6.19,4a.45.45,0,0,1-.07-.29.84.84,0,0,0,.17,1c.09.08.35.19.17-.1S6.43,4.37,6.5,4.47Z" style="fill:#fadbae;mix-blend-mode:multiply"/><path d="M7.13,2.92a.57.57,0,0,1,.3.2.48.48,0,0,1,.16.36.74.74,0,0,1-.27.58,1,1,0,0,1-.66.22l-.14,0a.65.65,0,0,0,.79.31A4.81,4.81,0,0,1,7.73,4l.18-.19A.76.76,0,0,0,7.13,2.92Z" style="fill:#fadbae;mix-blend-mode:multiply"/><path d="M17.55,2.76a.28.28,0,0,1,0,.09.83.83,0,0,1-.61.78c-.46.13-1-.17-1-.64a.92.92,0,0,1,.62-.79c-.64,0-1.25.43-1.09,1.13a6,6,0,0,1,.93,1,.45.45,0,0,0,.23,0,.68.68,0,0,0,.23-.14c.14-.12.29-.29.24-.47,0,0,0,0,0,0,.08.19-.1.44-.24.56l-.15.12a1,1,0,0,0,.68-1c0-.28.18.48.26,0A1.17,1.17,0,0,0,17.55,2.76Z" style="fill:#fadbae;mix-blend-mode:multiply"/><path d="M9.38,5.18a.66.66,0,0,0-.3.53c0,.11,0,.46.2.42l.06,0c.22-.07.28-.4.3-.57S9.62,5.08,9.38,5.18Z"/><path d="M9.28,5.32c-.06,0-.08.1-.09.15s0,.14.06.13h0c.06,0,.08-.12.09-.17S9.35,5.29,9.28,5.32Z" style="fill:#fff"/><path d="M14.44,5.06c.2.1.24.36.25.55s0,.47-.24.4l-.06,0c-.21-.09-.24-.42-.24-.6S14.22,4.94,14.44,5.06Z"/><path d="M14.27,5.18s0,.12,0,.18,0,.13.1.1h0c.06,0,0-.13,0-.19S14.33,5.14,14.27,5.18Z" style="fill:#fff"/><path d="M15.47,5.65a1.74,1.74,0,0,0-1.42.82s0,0,0,0a2.31,2.31,0,0,1,1.38-.76S15.53,5.65,15.47,5.65Z"/><path d="M9.44,6.18A2.23,2.23,0,0,0,8,6.14s0,0,0,0a3,3,0,0,1,.67-.08,3.38,3.38,0,0,1,.7.16S9.48,6.2,9.44,6.18Z"/><path d="M12,6.74a2.22,2.22,0,0,0-1.52.38.63.63,0,0,0-.16.7,1.53,1.53,0,0,0,.53.7,1.69,1.69,0,0,0,1.78.15,2,2,0,0,0,.46-.34,2.2,2.2,0,0,0,.39-.53C13.84,6.91,12.71,6.77,12,6.74Z"/><path d="M12.5,8.6a1.4,1.4,0,0,1-1.4-.11,1.56,1.56,0,0,1-.61-.64.62.62,0,0,1,.29-.77,2.54,2.54,0,0,1,1.31-.17c.46,0,1.33,0,1.33.62S12.9,8.39,12.5,8.6Z" style="fill:#6c2f00"/><path d="M12,7.91a2.22,2.22,0,0,1-1.43-.56.21.21,0,0,0,0-.06.68.68,0,0,0,0,.56,1.56,1.56,0,0,0,.61.64,1.4,1.4,0,0,0,1.4.11c.4-.21.92-.6.92-1.07a.41.41,0,0,0,0-.16A1.88,1.88,0,0,1,12,7.91Z" style="fill:#6c2f00;opacity:0.4;mix-blend-mode:multiply"/><path d="M15.56,8.43a1.32,1.32,0,0,0-.47-.63s0,0,0,0a1,1,0,0,1,.4,1,2.07,2.07,0,0,1-.32.71,2.56,2.56,0,0,1-1.18.94,3,3,0,0,1-1.14.25,1,1,0,0,1-.68-.22,1.47,1.47,0,0,1-.29-.73V9.52q0-.36,0-.72s0,0,0,0,0,0,0,0a5.77,5.77,0,0,0,0,.72v.21a1.47,1.47,0,0,1-.29.73,1,1,0,0,1-.68.22,3,3,0,0,1-1.14-.25,2.56,2.56,0,0,1-1.18-.94,1.9,1.9,0,0,1-.32-.71,1,1,0,0,1,.39-1s0,0,0,0a1.32,1.32,0,0,0-.47.63,1.32,1.32,0,0,0,.16.93,2.51,2.51,0,0,0,1.39,1.22,2.52,2.52,0,0,0,1.51.18.86.86,0,0,0,.68-.77.87.87,0,0,0,.68.77A2.56,2.56,0,0,0,14,10.58,2.51,2.51,0,0,0,15.4,9.36,1.32,1.32,0,0,0,15.56,8.43Z"/><path d="M14.44,11.17a1.74,1.74,0,0,0-.93.09,3.6,3.6,0,0,0-.87.4l-.05-.06-.18-.09a1.85,1.85,0,0,0-1.14,0,.4.4,0,0,0-.16.08l-.06.06a3.37,3.37,0,0,0-.86-.4,1.74,1.74,0,0,0-.93-.09c-.52.19-.49.84-.42,1.26a1.17,1.17,0,0,0,.8,1,1.61,1.61,0,0,0,1.48-.67s0-.06.07,0a1.45,1.45,0,0,0,.72.1,1.22,1.22,0,0,0,.6-.08,0,0,0,0,1,.05,0h0a1.61,1.61,0,0,0,1.49.68,1.17,1.17,0,0,0,.8-1C14.93,12,15,11.36,14.44,11.17Z"/><path d="M9.75,13.28c-.4-.1-.57-.56-.64-.89s-.16-1,.36-1.05a3,3,0,0,1,1.54.38,1.48,1.48,0,0,0,0,.66.69.69,0,0,0,.09.31A1.53,1.53,0,0,1,9.75,13.28Z" style="fill:#00d3ff"/><path d="M12.49,12.43s0,0,0,0a.71.71,0,0,1-.6.25c-.22,0-.54,0-.65-.18a1.18,1.18,0,0,1,0-.59c0-.24.12-.31.3-.35a2.46,2.46,0,0,1,1,.1.34.34,0,0,1,.08.25A1.29,1.29,0,0,1,12.49,12.43Z" style="fill:#00d3ff"/><path d="M14.59,12.39c-.07.33-.24.79-.64.89a1.53,1.53,0,0,1-1.32-.59.69.69,0,0,0,.09-.31,1.41,1.41,0,0,1,0-.18,1.4,1.4,0,0,0,0-.29.6.6,0,0,0-.06-.19,3.1,3.1,0,0,1,1.55-.38C14.75,11.36,14.67,12.06,14.59,12.39Z" style="fill:#00d3ff"/><path d="M11,12.38a1.48,1.48,0,0,1,0-.66,3,3,0,0,0-1.54-.38c-.52,0-.44.72-.36,1.05s.24.79.64.89a1.53,1.53,0,0,0,1.32-.59A.69.69,0,0,1,11,12.38Zm-.13.21A1.47,1.47,0,0,1,10,13a.68.68,0,0,1-.56-.44,1.15,1.15,0,0,1-.08-.89c.07-.23.34-.26.56-.25a0,0,0,0,1,0,0c.29,0,.82.16.74.43s-.29.17-.4.18l-.46,0,.7.22s.05,0,0,.07a1.81,1.81,0,0,1-.37.24,2.75,2.75,0,0,0,.56-.1S10.89,12.57,10.85,12.59Z" style="fill:#0085d8;opacity:0.6000000000000001;mix-blend-mode:multiply"/><path d="M12.52,12a.34.34,0,0,0-.08-.25,1.69,1.69,0,0,0-.45-.1.49.49,0,0,1,.3.16c.09.13.12.61-.15.6a2.85,2.85,0,0,0-.29,0,2.3,2.3,0,0,1-.26,0,.21.21,0,0,1-.23-.1.47.47,0,0,1,.13-.6h0a.76.76,0,0,1,.32-.06,1.36,1.36,0,0,0-.35,0c-.18,0-.3.11-.3.35a1.18,1.18,0,0,0,0,.59c.11.21.43.19.65.18a.71.71,0,0,0,.6-.25s0,0,0,0A1.29,1.29,0,0,0,12.52,12Z" style="fill:#0085d8;opacity:0.6000000000000001;mix-blend-mode:multiply"/><path d="M14.23,11.34a3.1,3.1,0,0,0-1.55.38.6.6,0,0,1,.06.19,1.4,1.4,0,0,1,0,.29,1.41,1.41,0,0,0,0,.18.69.69,0,0,1-.09.31,1.53,1.53,0,0,0,1.32.59c.4-.1.57-.56.64-.89S14.75,11.36,14.23,11.34Zm.17,1a.64.64,0,0,1-.5.5,1.16,1.16,0,0,1-.87-.31s0-.07,0-.07c.22,0,.43.05.64.06-.2-.12-.44-.19-.64-.31,0,0,0,0,0-.06.18-.25.62-.29.94-.35a2.9,2.9,0,0,0-1.1,0c-.05,0-.07-.05,0-.07a1.59,1.59,0,0,1,.87-.37s0,0,0,0a.51.51,0,0,1,.61.21A1.23,1.23,0,0,1,14.4,12.38Z" style="fill:#0085d8;opacity:0.6000000000000001;mix-blend-mode:multiply"/><path d="M10.84,12.36c-.19.08-.37.19-.55.28,0,0,0,0,0,0a2.89,2.89,0,0,0,.56-.27S10.88,12.33,10.84,12.36Z"/><path d="M10.68,12.1l-.39,0s-.09.06,0,.07.26,0,.4,0S10.72,12.1,10.68,12.1Z"/><path d="M13.8,11.85a4.68,4.68,0,0,0-1,.19s-.06.07,0,.07a1.56,1.56,0,0,0,.44-.09c.18,0,.37-.08.56-.12C13.82,11.9,13.84,11.85,13.8,11.85Z"/><path d="M13.62,12.52a2,2,0,0,0-.8-.22s-.11.06-.05.08c.26.08.54.1.8.19C13.59,12.57,13.65,12.53,13.62,12.52Z"/><path d="M15.1,3.46a4.49,4.49,0,0,0-3.23-.92,4.91,4.91,0,0,0-3.12,1s0,.08.05.06a8.28,8.28,0,0,1,2.93-.75,8.66,8.66,0,0,1,1.44,0A5,5,0,0,1,15,3.56C15.08,3.59,15.15,3.51,15.1,3.46Z" style="fill:#f7a573"/><path d="M9.9,7.05a2.39,2.39,0,0,0-1-.67,3,3,0,0,0-1.12,0,2.12,2.12,0,0,0-1.67,1.1c0,.06.07.09.11,0A2.33,2.33,0,0,1,8,6.68a3.46,3.46,0,0,1,.85,0,3.82,3.82,0,0,1,1,.41A0,0,0,0,0,9.9,7.05Z" style="fill:#f7a573"/><path d="M17.77,6.81a3.1,3.1,0,0,0-2.16-.56,2.54,2.54,0,0,0-1.82.84,0,0,0,0,0,0,0,3.66,3.66,0,0,1,1.78-.56,5.06,5.06,0,0,1,.87,0c.43,0,.82.23,1.24.31C17.76,6.9,17.81,6.84,17.77,6.81Z" style="fill:#f7a573"/><path d="M17.47,1.79c-.73-.45-2.34-.77-2.59.35,0,0,0,0,0,0a1.35,1.35,0,0,1,1.17-.53,7.78,7.78,0,0,1,1.35.23S17.51,1.81,17.47,1.79Z" style="fill:#f7a573"/><path d="M8.7,2.23c-.18-.52-.93-.55-1.41-.43A2.59,2.59,0,0,0,5.84,2.89s0,0,0,0a3.77,3.77,0,0,1,1.25-.82A1.67,1.67,0,0,1,8,2c.24,0,.41.22.63.3A.07.07,0,0,0,8.7,2.23Z" style="fill:#f7a573"/><path d="M13,7.16A1.66,1.66,0,0,0,12.08,7a3.38,3.38,0,0,0-1.27.2c-.05,0-.05.09,0,.09.34,0,.68-.06,1-.07s.76.11,1.13.1C13,7.29,13.08,7.2,13,7.16Z" style="fill:#b06128"/><path d="M21.45,14.66c-.27-.77-1.28-.57-1.8-.17a3,3,0,0,0-.89,2s.07.05.08,0A3.39,3.39,0,0,1,19.63,15a1.27,1.27,0,0,1,1.73-.28S21.47,14.71,21.45,14.66Z" style="fill:#f7a573"/><path d="M3.7,14.42a1.1,1.1,0,0,0-1.61.51,0,0,0,0,0,.06,0c.25-.21.41-.4.78-.38a1.63,1.63,0,0,1,.75.25,3.69,3.69,0,0,1,1.2,1.35s.06,0,0,0A2.16,2.16,0,0,0,3.7,14.42Z" style="fill:#f7a573"/><path d="M7.29,12.09c-.92.63-1.77,1.35-2.63,2.05-.13.1.07.28.2.17.84-.71,1.67-1.43,2.46-2.18C7.34,12.11,7.32,12.07,7.29,12.09Z" style="fill:#f7a573"/><path d="M18.92,13.94a12.54,12.54,0,0,0-3.25-2.34s0,0,0,0c1.08.78,2,1.68,3.12,2.46C18.88,14.15,19,14,18.92,13.94Z" style="fill:#f7a573"/></g></svg>