<svg xmlns="http://www.w3.org/2000/svg" viewBox="0 0 22.55 19.52"><path d="M5.26,4.52c.66-1.17,4.11-.72,4.66,0,.67.87.38,9.46.23,10.38S9.66,16,8.88,16H2.67c-.74,0-1.34-.12-1.45-1.44s.11-4.5.75-5,2.59-.36,2.77-1.05S4.84,5.25,5.26,4.52Z" style="fill:#fd0"/><path d="M20,14.43H1.16c-.14,0-.26.19-.26.43v1c0,.23.12.42.26.42H20c.15,0,.27-.19.27-.42v-1C20.28,14.62,20.16,14.43,20,14.43Z" style="fill:#fcb813"/><path d="M9.17,10.22c.4,0,.65-.25.65-1,0-3.8-.23-4.06-.27-4.14A4,4,0,0,0,7.3,4.58c-1.08,0-1.54.31-1.64.48a9.24,9.24,0,0,0-.27,2.2c-.15,2.45.06,3,.54,3Z" style="fill:#b2e1eb"/><path d="M12.09,13.81c-.73,0-1.19-4.51-1.37-6.71s-.13-3.53-2-3.74V2.08s1.84-.55,2.46.17.25,2,1.67,2h7.81c.6,0,.83.32.73,1.31s-.43,4.94-.8,7.12c-.12.74-.37,1.17-.92,1.17Z" style="fill:#fd0"/><path d="M11.07,6.5c0,.16,0,.33,0,.51h9.74c0-.27.05-.52.07-.74s.06-.65.08-.86a1.61,1.61,0,0,0,0-.48H10.9A13.54,13.54,0,0,1,11.07,6.5Z" style="fill:#fcb813"/><path d="M11.21,8c.08.82.15,1.51.23,2.09h9.11c.08-.71.15-1.42.21-2.09Z" style="fill:#fcb813"/><path d="M11.58,11.09a5.69,5.69,0,0,0,.54,2.08h7.57c.32,0,.44-.16.53-.69s.14-.89.2-1.39Z" style="fill:#fcb813"/><path d="M20,15.33c0-.33.07-.6.25-.6s.29.27.29.6-.12.61-.29.61S20,15.67,20,15.33Z" style="fill:#d71921"/><path d="M1.09,11.26c.07-.49.33-.81.58-.73s.28.44.21,1-.26.88-.45.82S1,11.76,1.09,11.26Z" style="fill:#fcb813"/><ellipse cx="16.07" cy="15.55" rx="2.12" ry="3.35" style="fill:#231f20"/><path d="M17.57,15.55c0,1.31-.67,2.37-1.5,2.37s-1.5-1.06-1.5-2.37.67-2.37,1.5-2.37S17.57,14.24,17.57,15.55Z" style="fill:#fd0"/><ellipse cx="4.69" cy="15.55" rx="2.12" ry="3.35" style="fill:#231f20"/><path d="M6.19,15.55c0,1.31-.68,2.37-1.5,2.37s-1.51-1.06-1.51-2.37.68-2.37,1.51-2.37S6.19,14.24,6.19,15.55Z" style="fill:#fd0"/></svg>