<svg xmlns="http://www.w3.org/2000/svg" viewBox="0 0 21.82 19.22"><g style="isolation:isolate"><path d="M15.67,11.84a12.89,12.89,0,0,1-1.61-2.42,2.77,2.77,0,0,0-.82-.93,2.47,2.47,0,0,0-1.09-.36s-.05,0,0,0l.19.05a8.53,8.53,0,0,0-.87,0c-.4,0-.82,0-1.23.05a2.41,2.41,0,0,0-.9.19h0A2.2,2.2,0,0,0,9,8.64,8.67,8.67,0,0,0,8,9.7,10.27,10.27,0,0,1,6.69,11a14.78,14.78,0,0,1-1.55.93c-.27.16-.54.45-.46.72s.41.4.76.44a2.1,2.1,0,0,0,1.71-.77,4.44,4.44,0,0,0-.25.86,3.92,3.92,0,0,1-.68.43,1.41,1.41,0,0,0-.43.26c-.15.16.06.34.22.44A4.13,4.13,0,0,0,7,14.7l.94.26a18.15,18.15,0,0,0-.26,2.75,2.46,2.46,0,0,0,.3,1.2,1,1,0,0,0,.86.31A1,1,0,0,0,10,18.14V18c-.09-.43-.24-.86-.3-1.29a14.42,14.42,0,0,1-.14-1.46,10.88,10.88,0,0,0,2.21,0,14.39,14.39,0,0,1-.13,1.46c-.06.43-.22.86-.3,1.29a.71.71,0,0,0,0,.14,1,1,0,0,0,1.2,1.08,1.05,1.05,0,0,0,.87-.31,2.34,2.34,0,0,0,.29-1.2,17.57,17.57,0,0,0-.26-2.8,5.82,5.82,0,0,0,1.33-.63h0c.17-.1.3-.24.27-.42s-.24-.31-.35-.43a5.57,5.57,0,0,0-.58-.51c0-.16-.07-.32-.11-.48a1.57,1.57,0,0,0,1.56.64c.24,0,.56-.17.62-.37S15.91,12.08,15.67,11.84Z"/><path d="M10.27,8.35c.37,0,.73,0,1.1,0h.24a.73.73,0,0,1-.78.77c-.59,0-.64-.42-.73-.74Z" style="fill:#ffc0b3"/><path d="M10.27,8.35c.37,0,.73,0,1.1,0h.24a.73.73,0,0,1-.78.77c-.59,0-.64-.42-.73-.74Z" style="fill:#de998d;mix-blend-mode:multiply"/><path d="M5.39,12.93c-.44-.07-.66-.34-.47-.66s.87-.56,1.25-.78A8.35,8.35,0,0,0,8,9.9c.16-.18.32-.37.49-.55a.57.57,0,0,0,.08.13.3.3,0,0,0,.14.1c-.1.16-.19.32-.29.47-.28.44-.57.88-.82,1.33a7.14,7.14,0,0,0-.37.73A1.92,1.92,0,0,1,5.39,12.93Z" style="fill:#ffc0b3"/><path d="M8.57,9.48l-.06-.09a9.66,9.66,0,0,1-2,2.59,1.51,1.51,0,0,1-1.35.47h0L5,12.51l-.14,0c0,.2.23.35.54.4a1.92,1.92,0,0,0,1.84-.82,7.14,7.14,0,0,1,.37-.73c.25-.45.54-.89.82-1.33.1-.15.19-.31.29-.47A.3.3,0,0,1,8.57,9.48Z" style="fill:#ffc0b3;opacity:0.6000000000000001;mix-blend-mode:multiply"/><path d="M9.73,18.6c-.1.39-.62.5-1.1.46s-.66-.46-.74-.8c0-.09,0-.19,0-.29a1,1,0,0,0,.89.38,1.46,1.46,0,0,0,1-.42A1.68,1.68,0,0,1,9.73,18.6Z" style="fill:#e62346"/><path d="M9.71,17.64l0,.09a1.25,1.25,0,0,1-1.06.49.94.94,0,0,1-.85-.45v0a3.46,3.46,0,0,1,1.07-.23A3.6,3.6,0,0,1,9.71,17.64Z" style="fill:#ffc0b3"/><path d="M9.68,17.46a2.79,2.79,0,0,0-1.86.23,1,1,0,0,1,0-.17.53.53,0,0,1,.24-.2,1.94,1.94,0,0,1,.55-.15,2,2,0,0,1,1,.1Z" style="fill:#e62346"/><path d="M9.62,17.11a2.08,2.08,0,0,0-1.35,0,1.73,1.73,0,0,0-.47.24v-.21c0-.73.17-1.46.17-2.19l.41.09a8.86,8.86,0,0,0,1.07.17.05.05,0,0,0,0,0A9.48,9.48,0,0,0,9.62,17.11Z" style="fill:#ffc0b3"/><path d="M13.42,18.26c-.08.34-.2.74-.74.8s-1-.07-1.1-.46a1.89,1.89,0,0,1,0-.67,1.5,1.5,0,0,0,1,.42,1,1,0,0,0,.89-.38A2.5,2.5,0,0,1,13.42,18.26Z" style="fill:#e62346"/><path d="M13.49,17.77a.92.92,0,0,1-.84.45,1.23,1.23,0,0,1-1.06-.49v-.09a3.6,3.6,0,0,1,.82-.13,3.4,3.4,0,0,1,1.07.23Z" style="fill:#ffc0b3"/><path d="M13.5,17.69a2.81,2.81,0,0,0-1.87-.23,1.29,1.29,0,0,0,0-.19,2,2,0,0,1,1.05-.1,2,2,0,0,1,.54.15.56.56,0,0,1,.25.2A1,1,0,0,0,13.5,17.69Z" style="fill:#e62346"/><path d="M13.51,17.17v.21a1.7,1.7,0,0,0-.46-.24,2.09,2.09,0,0,0-1.35,0,9.46,9.46,0,0,0,.18-1.83.05.05,0,0,0,0,0,7.87,7.87,0,0,0,1.49-.31C13.34,15.68,13.5,16.42,13.51,17.17Z" style="fill:#ffc0b3"/><path d="M9.71,17.64l-.37-.08a.67.67,0,0,1-.2.34.49.49,0,0,1-.68-.13c0-.07-.06-.13-.08-.19a3.58,3.58,0,0,0-.56.16v0a.94.94,0,0,0,.85.45,1.25,1.25,0,0,0,1.06-.49Z" style="fill:#ffc0b3;opacity:0.6000000000000001;mix-blend-mode:multiply"/><path d="M8.34,15.73c0-.34.68-.47.79-.11a6.31,6.31,0,0,1,.21,1.29.49.49,0,0,0,0,.12,1.38,1.38,0,0,1,.27.08,9.48,9.48,0,0,1-.19-1.83.05.05,0,0,1,0,0,8.86,8.86,0,0,1-1.07-.17L8,15c0,.73-.16,1.46-.17,2.19v.21a2.05,2.05,0,0,1,.46-.24A3.35,3.35,0,0,1,8.34,15.73Z" style="fill:#ffc0b3;opacity:0.6000000000000001;mix-blend-mode:multiply"/><path d="M12.82,17.55l-.12.1a.56.56,0,0,1-.75-.09l-.35.08v.09a1.23,1.23,0,0,0,1.06.49.92.92,0,0,0,.84-.45v0A3.69,3.69,0,0,0,12.82,17.55Z" style="fill:#ffc0b3;opacity:0.6000000000000001;mix-blend-mode:multiply"/><path d="M13.35,14.93a7.87,7.87,0,0,1-1.49.31.05.05,0,0,1,0,0,9.46,9.46,0,0,1-.18,1.83l.12-.05c.06-.35.26-.69.3-1s.39-.9.84-.48a1.1,1.1,0,0,1,.17,1.05,3.31,3.31,0,0,1-.1.54h0a1.7,1.7,0,0,1,.46.24v-.21C13.5,16.42,13.34,15.68,13.35,14.93Z" style="fill:#ffc0b3;opacity:0.6000000000000001;mix-blend-mode:multiply"/><path d="M14,13.26c0,.05.13,0,.13,0s0-.05,0-.07c.13.16.26.32.41.48a2.75,2.75,0,0,1,.22.26c.1.13,0,.24-.16.33a9.32,9.32,0,0,1-2.67.81A11.09,11.09,0,0,1,9,15a13.23,13.23,0,0,1-2.27-.57c-.26-.09-.61-.21-.72-.42s.37-.25.47-.33l.46-.37a3.69,3.69,0,0,0,0,.58,1.9,1.9,0,0,0,.09-.29,3,3,0,0,1,.2-.4l.05-.08a8.39,8.39,0,0,1,.74-1.86c.23-.42.48-.83.72-1.25A6.5,6.5,0,0,0,9.17,9a.75.75,0,0,0,0-.21h0a2.42,2.42,0,0,1-.38.6.35.35,0,0,1-.05.08h0a.58.58,0,0,1-.12-.1l-.08-.12.3-.3A1.62,1.62,0,0,1,10,8.37l0,0h0a.66.66,0,0,0,.11.68,1,1,0,0,0,.78.21.93.93,0,0,0,.88-.92,3.15,3.15,0,0,1,1.35.31,2.89,2.89,0,0,1,.53.57,2.57,2.57,0,0,1-.37.21L13,9.52a1.6,1.6,0,0,0-.1-.23A2,2,0,0,0,12.69,9l0,.21,0,.06a3.58,3.58,0,0,1,.19.55c.13.41.28.82.4,1.23A19.84,19.84,0,0,0,14,13.26Z" style="fill:#ff8bb4"/><path d="M14.77,13.88a2.75,2.75,0,0,0-.22-.26c-.15-.16-.28-.32-.41-.48,0,0,0,0,0,.07s-.11.1-.13,0a19.84,19.84,0,0,1-.7-2.23c-.12-.41-.27-.82-.4-1.23a3.58,3.58,0,0,0-.19-.55l0-.06,0-.21a2,2,0,0,1,.19.31,1.6,1.6,0,0,1,.1.23l.33-.11a2.57,2.57,0,0,0,.37-.21,2.89,2.89,0,0,0-.53-.57,3.15,3.15,0,0,0-1.35-.31.93.93,0,0,1-.88.92A1,1,0,0,1,10.14,9,.66.66,0,0,1,10,8.35h0l0,0A1.62,1.62,0,0,0,8.85,9l-.3.3.08.12a.58.58,0,0,0,.12.1h0a.35.35,0,0,0,.05-.08,2.42,2.42,0,0,0,.38-.6h0a.75.75,0,0,1,0,.21l0,.09a1.28,1.28,0,0,1,.28-.29.17.17,0,0,1,.21,0s0,0,0,0a.05.05,0,0,1,.05,0A1.59,1.59,0,0,0,11.93,9a.19.19,0,0,1,.23,0,4.59,4.59,0,0,1,.64,1.93,5,5,0,0,1,.15,2A2.48,2.48,0,0,1,10,14.69a2,2,0,0,1-1.95-2.08,6.07,6.07,0,0,1,.46-2c.11-.3.19-.66.33-1L8.65,10c-.24.42-.49.83-.72,1.25a8.39,8.39,0,0,0-.74,1.86l-.05.08a3,3,0,0,0-.2.4,1.9,1.9,0,0,1-.09.29,3.69,3.69,0,0,1,0-.58l-.46.37c-.1.08-.55.19-.47.33s.46.33.72.42A13.23,13.23,0,0,0,9,15a11.09,11.09,0,0,0,3,.06,9.32,9.32,0,0,0,2.67-.81C14.75,14.12,14.87,14,14.77,13.88Z" style="fill:#df8896;opacity:0.6000000000000001;mix-blend-mode:multiply"/><path d="M15.74,12.89a1.75,1.75,0,0,1-1.82-.7c-.12-.42-.25-.83-.39-1.24s-.27-.76-.42-1.13L13,9.56a1.27,1.27,0,0,0,.49-.13,1.65,1.65,0,0,0,.25-.15c.41.6.71,1.23,1.1,1.84a4.91,4.91,0,0,0,.63.75C15.73,12.12,16.38,12.67,15.74,12.89Z" style="fill:#ffc0b3"/><path d="M15,11.65a1.55,1.55,0,0,0,.24.27C15.15,11.83,15.06,11.74,15,11.65Z" style="fill:#ffc0b3;opacity:0.6000000000000001;mix-blend-mode:multiply"/><path d="M15.75,12.84c-1.85-.32-2-2.17-2.1-3.3a.23.23,0,0,1,.12-.22l0,0a1.65,1.65,0,0,1-.25.15,1.27,1.27,0,0,1-.49.13l.11.26c.15.37.29.75.42,1.13s.27.82.39,1.24a1.75,1.75,0,0,0,1.82.7l.1,0Z" style="fill:#ffc0b3;opacity:0.6000000000000001;mix-blend-mode:multiply"/><path d="M21.8,6.14a5.8,5.8,0,0,0-.48-1.23A5.4,5.4,0,0,0,20,3.17,6.92,6.92,0,0,0,18,2a9.55,9.55,0,0,0-1.25-.36,2.36,2.36,0,0,0-.79,0l-.22-.21A3.12,3.12,0,0,0,14.6.75a5.71,5.71,0,0,0-.71-.19.92.92,0,0,0-.33,0A5.3,5.3,0,0,0,9.93.11,9.46,9.46,0,0,0,7.79.65a6.31,6.31,0,0,0-1.68,1,2.32,2.32,0,0,0-1.05,0A10.54,10.54,0,0,0,3.81,2a6.87,6.87,0,0,0-2,1.15A5.59,5.59,0,0,0,.5,4.91,5.8,5.8,0,0,0,0,6.14c0,.05,0,.11,0,.16l.06.07h0A3.62,3.62,0,0,0,1,7H1l.12,0a.62.62,0,0,1,0-.13,2,2,0,0,1,0-.24,3.6,3.6,0,0,1,.26-.87,5.29,5.29,0,0,0,.05.8,4.37,4.37,0,0,0,.09.5h0l0,.06.38.19.22.06a5.89,5.89,0,0,0,1.11.17h.08a1.15,1.15,0,0,1,0-.19l0-.27a2.29,2.29,0,0,1,0-.64l.06.27a5.14,5.14,0,0,0,.2.55l.13.24a3.49,3.49,0,0,0,1.4-.26l0,0h0a5.88,5.88,0,0,1-.6-1.67,3.24,3.24,0,0,1,0-1.12,1.34,1.34,0,0,1,.07-.27,4.51,4.51,0,0,0-.07.53A2.15,2.15,0,0,0,5,6.23a1.77,1.77,0,0,0,.57.51,2.48,2.48,0,0,0,.37.17A2.27,2.27,0,0,0,6.58,7,3.61,3.61,0,0,0,9.35,8.65a10.77,10.77,0,0,0,2.6,0,4.18,4.18,0,0,0,2.26-.83A4.76,4.76,0,0,0,15,7,2.64,2.64,0,0,0,16.8,5.87,2.67,2.67,0,0,0,17.22,4a1.47,1.47,0,0,1,.14.45,3.51,3.51,0,0,1,0,1.12,5.62,5.62,0,0,1-.61,1.67h0l0,0a3.56,3.56,0,0,0,1.4.26l.14-.24a5.1,5.1,0,0,0,.19-.55,2.68,2.68,0,0,0,.07-.27,3.43,3.43,0,0,1,0,.64,2.51,2.51,0,0,0,0,.27v.19h.07a6.13,6.13,0,0,0,1.12-.17l.22-.06.37-.19,0-.06h0a4.42,4.42,0,0,0,.1-.5,5.29,5.29,0,0,0,0-.8,4.15,4.15,0,0,1,.27.87,1.94,1.94,0,0,1,0,.24s0,.09,0,.13l.12,0h0a3.74,3.74,0,0,0,.9-.61h0a.18.18,0,0,0,.05-.07A.88.88,0,0,0,21.8,6.14Z"/><path d="M4.29,4.39a2.89,2.89,0,0,0,0,1.17A4.16,4.16,0,0,0,4.89,7.3a4.19,4.19,0,0,1-1.07.16,5.72,5.72,0,0,1-.24-.57,4.44,4.44,0,0,1-.35-.77l0,.11a3.86,3.86,0,0,0,0,.83,3,3,0,0,0,0,.39A6.61,6.61,0,0,1,2,7.25l-.32-.1a3.89,3.89,0,0,1-.12-.49,5.83,5.83,0,0,1-.08-.83c0-.16,0-.32-.05-.48,0,0,0,.08,0,.12A3.37,3.37,0,0,0,1,6.69a1.11,1.11,0,0,0,0,.17,3.77,3.77,0,0,1-.89-.57A6.62,6.62,0,0,1,1.76,3.45,5.9,5.9,0,0,1,3.55,2.31a10.55,10.55,0,0,1,1.16-.4l.66-.17a3.86,3.86,0,0,1,.68,0A4.3,4.3,0,0,0,4.66,3.67,3.27,3.27,0,0,0,4.29,4.39Z" style="fill:#ff8bb4"/><path d="M2.92,4.37a1.43,1.43,0,0,1,1,.54c.1.13.2.25.31.37a2.43,2.43,0,0,1,.08-.89,3.27,3.27,0,0,1,.37-.72A4.3,4.3,0,0,1,6.05,1.73a3.86,3.86,0,0,0-.68,0l-.66.17a10.55,10.55,0,0,0-1.16.4A8.17,8.17,0,0,0,2.38,3C2,3.53,1.94,4.18,2.92,4.37Z" style="fill:#df8896;opacity:0.7000000000000001;mix-blend-mode:multiply"/><path d="M3.24,5.8A2.65,2.65,0,0,0,2,5a2.46,2.46,0,0,0-1.48.23,7,7,0,0,0-.4,1A3.77,3.77,0,0,0,1,6.86a1.11,1.11,0,0,1,0-.17,3.37,3.37,0,0,1,.43-1.22s0-.08,0-.12c0,.16,0,.32.05.48a5.83,5.83,0,0,0,.08.83,3.89,3.89,0,0,0,.12.49l.32.1a6.61,6.61,0,0,0,1.22.2,3,3,0,0,1,0-.39,3.86,3.86,0,0,1,0-.83l0-.11a4.44,4.44,0,0,0,.35.77,5.72,5.72,0,0,0,.24.57A4.19,4.19,0,0,0,4.89,7.3a4.31,4.31,0,0,1-.38-.74A3,3,0,0,1,3.24,5.8Z" style="fill:#df8896;opacity:0.7000000000000001;mix-blend-mode:multiply"/><path d="M14.21,7.57a4.14,4.14,0,0,1-2.45.94,9.41,9.41,0,0,1-2.43,0A3.07,3.07,0,0,1,6.51,6.13a4.41,4.41,0,0,1,.18-1.9c.39-.09.78-.16,1.18-.22a.67.67,0,0,1,0-.24,2.21,2.21,0,0,1,.83-1.32,3,3,0,0,0-.4.72,1.94,1.94,0,0,0-.11.43,1.09,1.09,0,0,0,0,.18c0,.06,0,.12,0,.18.46-.06.92-.09,1.38-.12a.41.41,0,0,1,0-.16h0c0-.1,0-.22.08-.32a2.39,2.39,0,0,1,.18-.44,2,2,0,0,0,.05.74h0a.75.75,0,0,0,0,.16l.85,0c.8,0,1.58,0,2.36,0a.28.28,0,0,1,0-.09h0a.81.81,0,0,1,0-.22h0c0-.17-.09-.35-.13-.53a1.62,1.62,0,0,1,.25.31c.06.09.14.18.2.28a1,1,0,0,1,.18.31c.43,0,.85.09,1.27.16a6.28,6.28,0,0,1,.25,1.6A2.7,2.7,0,0,1,14.21,7.57Z" style="fill:#ffc0b3"/><path d="M7.24,6.62s.13,0,.13,0A2.14,2.14,0,0,0,8.9,8.13a7.5,7.5,0,0,0,2.17.32,4.28,4.28,0,0,0,2.28-.59,2.93,2.93,0,0,0,.9-1.08,1.43,1.43,0,0,0,.13-.8,4.68,4.68,0,0,1-.66,1,3.68,3.68,0,0,1-.82.62,4.18,4.18,0,0,1-2.23.47,4.81,4.81,0,0,1-2.34-.61c-.22-.18-.48-.42-.45-.68s.18-.43.22-.65a1.19,1.19,0,0,1-1.17.12s0,.08,0,.12A.38.38,0,0,0,7.24,6.62Z" style="fill:#ffc0b3;opacity:0.6000000000000001;mix-blend-mode:multiply"/><path d="M6.6,4.58a15.46,15.46,0,0,1,4.72-.52,16.85,16.85,0,0,1,2.93.2l.86.17c0-.14-.07-.28-.11-.43-.42-.07-.84-.12-1.27-.16a1,1,0,0,0-.18-.31c-.06-.1-.14-.19-.2-.28a1.62,1.62,0,0,0-.25-.31c0,.18.09.36.13.53h0a.81.81,0,0,0,0,.22h0a.28.28,0,0,0,0,.09c-.78,0-1.56,0-2.36,0l-.85,0a.75.75,0,0,1,0-.16h0a2,2,0,0,1-.05-.74,2.39,2.39,0,0,0-.18.44c0,.1,0,.22-.08.32h0a.41.41,0,0,0,0,.16c-.46,0-.92.06-1.38.12,0-.06,0-.12,0-.18a1.09,1.09,0,0,1,0-.18,1.94,1.94,0,0,1,.11-.43,3,3,0,0,1,.4-.72,2.21,2.21,0,0,0-.83,1.32.67.67,0,0,0,0,.24c-.4.06-.79.13-1.18.22Z" style="fill:#ffc0b3;opacity:0.6000000000000001;mix-blend-mode:multiply"/><path d="M16.91,5.33A2.41,2.41,0,0,1,15,6.9a2.47,2.47,0,0,0,.39-.84c.61.13,1-.56,1-.9a.87.87,0,0,0-1.19-.81c0-.11-.07-.21-.11-.32l.15,0h.09l0-.06a2.32,2.32,0,0,0-.72-1.67l-.16-.13-.21-.13a3.21,3.21,0,0,1,1,1.92l-.13,0-.13,0L15,4c-.41-.08-.82-.14-1.23-.19a1.31,1.31,0,0,0-.31-.56c-.09-.12-.2-.33-.38-.4a.08.08,0,0,0-.09.06c0,.18.1.36.13.54s.1.2.07.31c-.72-.06-1.45-.08-2.19-.08l-.9,0a1.7,1.7,0,0,1,0-.39c0-.18,0-.37,0-.55s-.1,0-.11,0a2.08,2.08,0,0,0-.35,1c-.38,0-.77.06-1.15.11l-.13,0a3.06,3.06,0,0,1,.12-.66,2.64,2.64,0,0,1,.46-.81s0,0-.06,0a2,2,0,0,0-1,1.58L7.25,4l-.53.11h0l-.13,0h0a1.58,1.58,0,0,0-.29.1,2,2,0,0,1,1-1.93l.24-.21a2.59,2.59,0,0,0-1,.86,2.06,2.06,0,0,0-.35.86,1.28,1.28,0,0,0,.13.5l.3-.08c0,.14-.09.28-.12.42a.82.82,0,0,0-1.06.76.7.7,0,0,0,.93.66c0,.1,0,.2,0,.3a2.37,2.37,0,0,0,.18.53,2.94,2.94,0,0,1-.74-.25,1.69,1.69,0,0,1-.61-.54,2,2,0,0,1-.53-1.39A3.87,3.87,0,0,1,5,3.13a4.6,4.6,0,0,1,1.22-1.4,6.29,6.29,0,0,1,1.65-1,9.25,9.25,0,0,1,2-.49,5.86,5.86,0,0,1,3.32.26c.1,0,.2.07.3.12a1.49,1.49,0,0,1,.55,0,2,2,0,0,1,.5.18,2.85,2.85,0,0,1,.73.4,5.59,5.59,0,0,1,1.51,2A2.72,2.72,0,0,1,16.91,5.33Z" style="fill:#ff8bb4"/><path d="M6.43,4.68c0-.14.08-.28.12-.42l-.3.08a1.28,1.28,0,0,1-.13-.5,1.85,1.85,0,0,1,.26-.71.66.66,0,0,1-.31-.26A1.11,1.11,0,0,1,6,2,4.18,4.18,0,0,0,5,3.13a3.87,3.87,0,0,0-.4,1.62,2,2,0,0,0,.53,1.39,1.69,1.69,0,0,0,.61.54,2.94,2.94,0,0,0,.74.25,2.37,2.37,0,0,1-.18-.53c0-.1,0-.2,0-.3a.7.7,0,0,1-.93-.66A.82.82,0,0,1,6.43,4.68Z" style="fill:#df8896;opacity:0.7000000000000001;mix-blend-mode:multiply"/><path d="M5.78,6.68a2.94,2.94,0,0,0,.74.25,2.37,2.37,0,0,1-.18-.53c0-.1,0-.2,0-.3a.7.7,0,0,1-.93-.66.82.82,0,0,1,1.06-.76c0-.14.08-.28.12-.42l-.3.08a1.28,1.28,0,0,1-.13-.5,1.45,1.45,0,0,1,.12-.44,2.39,2.39,0,0,0-.91,2.94A1.77,1.77,0,0,0,5.78,6.68Z" style="fill:#df8896;opacity:0.7000000000000001;mix-blend-mode:multiply"/><path d="M16.27,2.3a1.87,1.87,0,0,1-1.13.63A2.08,2.08,0,0,1,15.43,4l0,.06h-.09l-.15,0c0,.11.08.21.11.32a.87.87,0,0,1,1.19.81c-.06.34-.43,1-1,.9A2.47,2.47,0,0,1,15,6.9a2.41,2.41,0,0,0,1.87-1.57A2.72,2.72,0,0,0,16.8,3.2C16.63,2.89,16.46,2.59,16.27,2.3Z" style="fill:#df8896;opacity:0.7000000000000001;mix-blend-mode:multiply"/><path d="M15.43,6.06A2.47,2.47,0,0,1,15,6.9a2.49,2.49,0,0,0,1.37-.75,2,2,0,0,0,.21-1A2.83,2.83,0,0,0,15.19,3a2.17,2.17,0,0,1,.24,1l0,.06h-.09l-.15,0c0,.11.08.21.11.32a.87.87,0,0,1,1.19.81C16.41,5.5,16,6.19,15.43,6.06Z" style="fill:#df8896;opacity:0.7000000000000001;mix-blend-mode:multiply"/><path d="M12.43,2a7,7,0,0,0,3-.64l-.14-.1a2.85,2.85,0,0,0-.73-.4,2,2,0,0,0-.5-.18,1.49,1.49,0,0,0-.55,0c-.1-.05-.2-.08-.3-.12A5.86,5.86,0,0,0,9.89.25a13.06,13.06,0,0,0-1.41.3A5.41,5.41,0,0,0,12.43,2Z" style="fill:#df8896;opacity:0.7000000000000001;mix-blend-mode:multiply"/><path d="M7.91,3a3.24,3.24,0,0,1-.83.19,1.59,1.59,0,0,1-.58,0,1.85,1.85,0,0,0-.2,1.08,1.58,1.58,0,0,1,.29-.1h0l.13,0h0L7.25,4l.59-.12A1.74,1.74,0,0,1,8.16,3Z" style="fill:#df8896;opacity:0.7000000000000001;mix-blend-mode:multiply"/><path d="M15.19,4l.13,0A3.71,3.71,0,0,0,15,2.94H14.8c-.47,0-.94-.23-1.4-.21a5.94,5.94,0,0,0-1.32.33A2.65,2.65,0,0,1,11,3.15c-.32-.06-.63-.17-.95-.25v.37a1.7,1.7,0,0,0,0,.39l.9,0c.74,0,1.47,0,2.19.08,0-.11-.05-.22-.07-.31S13,3,13,2.86a.08.08,0,0,1,.09-.06c.18.07.29.28.38.4a1.31,1.31,0,0,1,.31.56c.41.05.82.11,1.23.19l.08,0Z" style="fill:#df8896;opacity:0.7000000000000001;mix-blend-mode:multiply"/><path d="M9.67,2.81a3,3,0,0,0-1.09,0,1.57,1.57,0,0,0-.12.3,3.06,3.06,0,0,0-.12.66l.13,0c.38,0,.77-.08,1.15-.11a2.51,2.51,0,0,1,.26-.83Z" style="fill:#df8896;opacity:0.7000000000000001;mix-blend-mode:multiply"/><path d="M15.49,5.41c.07,0,.13-.11.2-.15l.21-.12L16,5.05h0a1.11,1.11,0,0,0-.36.13l-.14.08a4.94,4.94,0,0,0-.18-.85.8.8,0,0,1,1,.78.84.84,0,0,1-.81.79l-.05,0A2.35,2.35,0,0,0,15.49,5.41Z" style="fill:#ffc0b3"/><path d="M16.13,5c-.09-.12-.15-.07-.3-.08a.36.36,0,0,1-.3-.12.39.39,0,0,1,0-.4.86.86,0,0,0-.27,0,4.94,4.94,0,0,1,.18.85l.14-.08A1.11,1.11,0,0,1,16,5.05h0l-.09.09-.21.12c-.07,0-.13.1-.2.15a2.35,2.35,0,0,1-.05.59l.05,0a.84.84,0,0,0,.81-.79.43.43,0,0,0,0-.16A.15.15,0,0,1,16.13,5Z" style="fill:#ffc0b3;mix-blend-mode:multiply"/><path d="M6,5.43l.14.11a.32.32,0,0,0,.16.09h0c0,.12,0,.25,0,.37-1,.12-1-1.35.13-1.27h0a4,4,0,0,0-.12.76l0,0L6.08,5.4l-.22-.05Z" style="fill:#ffc0b3"/><path d="M6.25,5.47l0,0a4,4,0,0,1,.12-.76h-.2a.3.3,0,0,1-.08.3.63.63,0,0,1-.48.23l-.09,0A.62.62,0,0,0,6.28,6c0-.12,0-.25,0-.37h0a.32.32,0,0,1-.16-.09L6,5.43l-.11-.08.22.05Z" style="fill:#ffc0b3;mix-blend-mode:multiply"/><path d="M20.85,6.86a1,1,0,0,0,0-.17,3.59,3.59,0,0,0-.44-1.22.5.5,0,0,0,0-.12,3.91,3.91,0,0,1-.05.48,3.89,3.89,0,0,1-.08.83,3.89,3.89,0,0,1-.12.49l-.32.1a6.5,6.5,0,0,1-1.21.2c0-.14,0-.27,0-.39a3.3,3.3,0,0,0,0-.83s0-.07,0-.11a3.76,3.76,0,0,1-.34.77,5.79,5.79,0,0,1-.25.57,4.19,4.19,0,0,1-1.07-.16,4.18,4.18,0,0,0,.66-1.74,3.08,3.08,0,0,0-.05-1.17,3.48,3.48,0,0,0-.36-.69l0-.13a4.18,4.18,0,0,0-.58-1.13,3.93,3.93,0,0,0-.51-.72,2.55,2.55,0,0,1,.39,0l.67.17a10.38,10.38,0,0,1,1.15.4,5.9,5.9,0,0,1,1.79,1.14,6.62,6.62,0,0,1,1.68,2.84A3.58,3.58,0,0,1,20.85,6.86Z" style="fill:#ff8bb4"/><path d="M17.18,3.7a3.48,3.48,0,0,1,.36.69,2.31,2.31,0,0,1,.08.74A1.06,1.06,0,0,1,18,5a9.91,9.91,0,0,0,1.09,0,1.78,1.78,0,0,0,.72-.26A2.16,2.16,0,0,0,20.53,4c-.15-.18-.3-.36-.47-.53a5.9,5.9,0,0,0-1.79-1.14,10.38,10.38,0,0,0-1.15-.4l-.67-.17a2.55,2.55,0,0,0-.39,0,3.93,3.93,0,0,1,.51.72,4.18,4.18,0,0,1,.58,1.13Z" style="fill:#df8896;opacity:0.7000000000000001;mix-blend-mode:multiply"/><path d="M21,5.83a3.28,3.28,0,0,1-.31.2,3.21,3.21,0,0,1,.17.66,1,1,0,0,1,0,.17,3.58,3.58,0,0,0,.89-.57,5,5,0,0,0-.31-.84A3.34,3.34,0,0,1,21,5.83Z" style="fill:#df8896;opacity:0.7000000000000001;mix-blend-mode:multiply"/><path d="M17.57,6.22l-.15.08a4.41,4.41,0,0,1-.49,1A4.19,4.19,0,0,0,18,7.46a5.79,5.79,0,0,0,.25-.57,3.94,3.94,0,0,0,.26-.55A1.21,1.21,0,0,0,17.57,6.22Z" style="fill:#df8896;opacity:0.7000000000000001;mix-blend-mode:multiply"/><path d="M19.07,6.47a1.38,1.38,0,0,1-.43-.09,3.86,3.86,0,0,1,0,.68c0,.12,0,.25,0,.39a6.5,6.5,0,0,0,1.21-.2l.32-.1a3.89,3.89,0,0,0,.12-.49,3.47,3.47,0,0,0,.06-.45A2.81,2.81,0,0,1,19.07,6.47Z" style="fill:#df8896;opacity:0.7000000000000001;mix-blend-mode:multiply"/><path d="M8.86,5.27a.42.42,0,0,1-.43.35.34.34,0,0,1-.29-.41.41.41,0,0,1,.42-.35A.34.34,0,0,1,8.86,5.27Z"/><path d="M8.57,5.13a.18.18,0,0,1-.19.16.15.15,0,0,1-.14-.19.19.19,0,0,1,.2-.16A.15.15,0,0,1,8.57,5.13Z" style="fill:#fff"/><path d="M13.26,5.21a.34.34,0,0,1-.31.41.39.39,0,0,1-.41-.35.35.35,0,0,1,.31-.41A.39.39,0,0,1,13.26,5.21Z"/><path d="M12.94,5.12a.16.16,0,0,1-.14.19.18.18,0,0,1-.19-.16A.15.15,0,0,1,12.75,5,.18.18,0,0,1,12.94,5.12Z" style="fill:#fff"/><path d="M14.15,6.33a2.63,2.63,0,0,1-1.32,1.38,4.52,4.52,0,0,1-2.14.4,4.76,4.76,0,0,1-2.12-.49,2.24,2.24,0,0,1-1-1.09A.62.62,0,0,0,8,6.23s0,0,0,0a1,1,0,0,1-.9.21.42.42,0,0,0,.38.15h.06A2.34,2.34,0,0,0,8.65,7.77,4.9,4.9,0,0,0,11,8.22a3.3,3.3,0,0,0,3.23-1.9S14.16,6.31,14.15,6.33Z"/><path d="M13.85,9.64a1.62,1.62,0,0,1-.1-.18s0,0,0,0a1.08,1.08,0,0,0,.08.19S13.86,9.66,13.85,9.64Z"/><path d="M13.94,9.83s-.06,0,0,0L14,10S14,10,14,10A.29.29,0,0,0,13.94,9.83Z"/><path d="M14.24,10.34l-.09-.16s-.05,0,0,0a1.29,1.29,0,0,0,.09.16S14.25,10.36,14.24,10.34Z"/><path d="M14.48,10.68l-.13-.18s-.09,0-.07,0a.75.75,0,0,0,.13.18S14.49,10.7,14.48,10.68Z"/><path d="M14.58,10.88s-.07,0-.05,0,.07.1.11.15.07,0,.07,0A.25.25,0,0,0,14.58,10.88Z"/><path d="M15,11.38a.73.73,0,0,0-.18-.17s0,0,0,0a.41.41,0,0,0,.13.19S15,11.4,15,11.38Z"/><path d="M15.19,11.69l-.1-.12s-.07,0-.06,0a.31.31,0,0,0,.11.12S15.2,11.71,15.19,11.69Z"/><path d="M15.6,12.16c0-.08-.13-.14-.18-.22s-.09,0-.07,0a.77.77,0,0,0,.19.22S15.62,12.18,15.6,12.16Z"/><path d="M15.79,12.37s-.09,0-.07,0l.09.17s.06,0,.06,0A.36.36,0,0,0,15.79,12.37Z"/><path d="M8.34,9.63s0,0,0,0a.57.57,0,0,1-.13.14s0,0,0,0a.24.24,0,0,0,.09-.08S8.36,9.65,8.34,9.63Z"/><path d="M8,10c0,.07-.13.11-.16.18s0,0,.05,0a.43.43,0,0,0,.1-.09A.16.16,0,0,0,8,10Z"/><path d="M7.57,10.44c-.07.07-.15.12-.21.19s0,0,0,0a.67.67,0,0,0,.21-.2S7.58,10.43,7.57,10.44Z"/><path d="M7.21,10.8l-.06,0-.05,0L7,10.92s0,.05,0,0l.09-.06.05,0,0,0S7.23,10.79,7.21,10.8Z"/><path d="M6.83,11.08a.53.53,0,0,0-.12.1s0,0,0,0a.27.27,0,0,0,.11-.1S6.85,11.08,6.83,11.08Z"/><path d="M6.48,11.36l-.11.07a.41.41,0,0,0-.11.07s0,.05,0,0a.5.5,0,0,0,.12-.08.34.34,0,0,0,.09-.08S6.5,11.35,6.48,11.36Z"/><path d="M6.06,11.61l-.18.06a.1.1,0,0,0,0,0s0,0,0,0a.32.32,0,0,0,.21-.12S6.08,11.6,6.06,11.61Z"/><path d="M5.62,11.82a.25.25,0,0,0-.12,0,.47.47,0,0,0-.12.07s0,.05,0,0a.33.33,0,0,0,.1-.06l.12-.06S5.64,11.81,5.62,11.82Z"/><path d="M5.17,12.1,5,12.21s-.07.09,0,.12.07,0,.09,0a1,1,0,0,1,0-.1l.06-.1S5.18,12.09,5.17,12.1Z"/><path d="M5.09,12.61l0-.1s0,0,0,0,0,.17.08.21.08,0,.07-.05S5.11,12.64,5.09,12.61Z"/><path d="M5.5,12.85H5.42l-.08,0s-.08,0,0,0a.28.28,0,0,0,.17.05S5.55,12.86,5.5,12.85Z"/><path d="M8.08,15.12a.3.3,0,0,0-.06.22s.06,0,.08,0,0-.14,0-.22S8.1,15.1,8.08,15.12Z"/><path d="M8.08,15.56s-.05,0-.06,0a1.17,1.17,0,0,0,0,.26s.06,0,.07,0A.39.39,0,0,0,8.08,15.56Z"/><path d="M8,16.17s0,0,0,0-.06.17,0,.25.06,0,.06,0A.49.49,0,0,0,8,16.17Z"/><path d="M8,16.69s0,0,0,0a.5.5,0,0,0,0,.27S8,17,8,17A2.3,2.3,0,0,0,8,16.69Z"/><path d="M8,17.21a0,0,0,0,0,0,0,.66.66,0,0,0,0,.14s.07,0,.07,0A.13.13,0,0,0,8,17.21Z"/><path d="M8.34,18l-.12-.09-.12-.11s-.07,0,0,0,.09.19.21.23S8.37,18,8.34,18Z"/><path d="M13.2,15.12s0,0,0,0,0,.15,0,.22.06,0,.07,0A.41.41,0,0,0,13.2,15.12Z"/><path d="M13.24,15.6s0,0,0,0,0,0,0,0a.34.34,0,0,0,0,.14s.08,0,.08,0A.68.68,0,0,1,13.24,15.6Z"/><path d="M13.29,16s-.1,0-.09,0,0,.08,0,.11a.28.28,0,0,0,0,.12s.08,0,.09,0A.37.37,0,0,0,13.29,16Z"/><path d="M13.33,16.43s-.08,0-.08,0a1.09,1.09,0,0,0,0,.25s.07,0,.08,0A.46.46,0,0,0,13.33,16.43Z"/><path d="M13.37,16.91s-.09,0-.09,0a.31.31,0,0,1,0,.08.24.24,0,0,0,0,.09s.06,0,.06,0A.24.24,0,0,0,13.37,16.91Z"/><path d="M13.33,17.82c0-.05-.1,0-.1,0a.43.43,0,0,0,0,.11s.06,0,.07,0,.05,0,.05-.07S13.33,17.84,13.33,17.82Z"/><path d="M13.47,7.05a4.4,4.4,0,0,1-2.73.86,4.09,4.09,0,0,1-2.69-.8S7.72,6.65,7.94,7c.41.72,1.85,1,2.91,1a3.6,3.6,0,0,0,2.64-1S13.48,7,13.47,7.05Z" style="fill:#ffedea;opacity:0.4"/><path d="M7.93,6.13a1.73,1.73,0,0,1-.52.13A.39.39,0,0,1,7,6s0,0,0,0c0,.18.12.33.38.36A.75.75,0,0,0,8,6.15S8,6.13,7.93,6.13Z" style="fill:#ffedea;opacity:0.4"/><path d="M14.05,2.15a11.29,11.29,0,0,1-3.53-.1,6.5,6.5,0,0,1-1.34-.4A2.45,2.45,0,0,1,8.23.81a0,0,0,0,0,0,0C8,1.54,9.3,2.13,10,2.32a7.63,7.63,0,0,0,4.05-.12S14.1,2.14,14.05,2.15Z" style="fill:#fff"/><path d="M4,5.81a2.21,2.21,0,0,0-3.13-1s0,.06,0,0a2,2,0,0,1,1.76.06,7.09,7.09,0,0,1,1.21.91S4.06,5.85,4,5.81Z" style="fill:#fff"/><path d="M20.72,4.28a1.76,1.76,0,0,1-1.49,1c-.58.05-1,0-1.45.3,0,0,0,0,0,0,.73-.28,1.52.1,2.25-.24a1.35,1.35,0,0,0,.75-1.1S20.74,4.24,20.72,4.28Z" style="fill:#fff"/><path d="M13.37,14.24a16.14,16.14,0,0,1-3.41.29,9.62,9.62,0,0,1-1.61-.12A7,7,0,0,1,7,14H7c.41.65,1.82.77,2.66.82a9.53,9.53,0,0,0,3.74-.49S13.41,14.23,13.37,14.24Z" style="fill:#fff"/><path d="M9.76,17.93a.75.75,0,0,1-.27.22,1.28,1.28,0,0,1-.35.55.53.53,0,0,1-.58,0,1.33,1.33,0,0,1-.29-.41A.94.94,0,0,1,7.84,18c0,.1,0,.2,0,.29.08.34.2.74.74.8s1-.07,1.1-.46A1.68,1.68,0,0,0,9.76,17.93Z" style="fill:#b41b47;mix-blend-mode:multiply"/><path d="M9.5,17.41l.18.05,0-.19a1.17,1.17,0,0,0-.2-.06Z" style="fill:#b41b47;mix-blend-mode:multiply"/><path d="M8.2,17.26l-.15.06a.53.53,0,0,0-.24.2,1,1,0,0,0,0,.17l.32-.12A1.07,1.07,0,0,1,8.2,17.26Z" style="fill:#b41b47;mix-blend-mode:multiply"/><path d="M13.31,18.14c0,.38-.2.72-.71.73a.61.61,0,0,1-.67-.67,1,1,0,0,1-.38-.27,1.89,1.89,0,0,0,0,.67c.11.39.62.5,1.1.46s.66-.46.74-.8a2.5,2.5,0,0,0,.05-.29A.65.65,0,0,1,13.31,18.14Z" style="fill:#b41b47;mix-blend-mode:multiply"/><path d="M12.21,17.15a2.48,2.48,0,0,0-.54.12,1.29,1.29,0,0,1,0,.19,1.77,1.77,0,0,1,.46-.08A.71.71,0,0,1,12.21,17.15Z" style="fill:#b41b47;mix-blend-mode:multiply"/><path d="M13.28,17.33a2.46,2.46,0,0,1,0,.28l.2.08a1,1,0,0,1,0-.17A.62.62,0,0,0,13.28,17.33Z" style="fill:#b41b47;mix-blend-mode:multiply"/></g></svg>