<svg xmlns="http://www.w3.org/2000/svg" viewBox="0 0 24.21 18.88"><path d="M5.2,7.06,4.74,13s0,.18,0,.46a3.84,3.84,0,0,1-.65,0c0-.18,0-.37,0-.57L4.55,7a9.18,9.18,0,0,1,.57-2.54,3.11,3.11,0,0,1,.61.21A8.23,8.23,0,0,0,5.2,7.06Z" style="fill:#35a5e2"/><path d="M5.73,4.67l0,0,.14.12Z" style="fill:#948250"/><path d="M9.38,7.55l-.92,4.74a2.63,2.63,0,0,0,2,2.16c-.52,1.46-1.21,3.12-2.07,3.62A2.74,2.74,0,0,1,5,17.55c-.67-.73-.84-2.5-.9-4.08.51,0,2.21,0,2.74-1.44l.5-4.8A2.8,2.8,0,0,0,5.12,4.46l.06-.16c.61-1.51,1.8-3.24,4-2.84s2.83,2.3,3,3.92a1.36,1.36,0,0,1,0,.2A2.75,2.75,0,0,0,9.38,7.55Z" style="fill:#35a5e2"/><path d="M12,8.16l-1.28,5.77-.18.52a3.76,3.76,0,0,1-.61-.25c.1-.23.15-.38.15-.38L11.32,8a8.8,8.8,0,0,0,.18-2.39,3.39,3.39,0,0,1,.65,0A9,9,0,0,1,12,8.16Z" style="fill:#35a5e2"/><path d="M10.82,5.84A2.84,2.84,0,0,0,9.38,7.55l-.92,4.74A2.31,2.31,0,0,0,9.88,14.2c-.26.66-1,2.82-1.79,3.29a2.14,2.14,0,0,1-1.38.26,2.05,2.05,0,0,1-1.23-.66c-.6-.66-.66-2.91-.72-3.64A2.36,2.36,0,0,0,6.85,12l.5-4.8a2.92,2.92,0,0,0-.88-2.08,5.8,5.8,0,0,0,2.12.75A5.9,5.9,0,0,0,10.82,5.84Z" style="fill:#e4e4e4"/><path d="M5.89,4.75a2.82,2.82,0,0,1,.58.4A4.23,4.23,0,0,1,5.89,4.75Z" style="fill:none"/><path d="M7.35,7.23,6.85,12a2.36,2.36,0,0,1-2.09,1.42c0-.28,0-.46,0-.46L5.2,7.06a8.23,8.23,0,0,1,.53-2.39A2.8,2.8,0,0,1,7.35,7.23Z" style="fill:#35a5e2"/><path d="M11.32,8,10,13.82s0,.15-.15.38a2.31,2.31,0,0,1-1.42-1.91l.92-4.74A2.78,2.78,0,0,1,11.5,5.62,8.8,8.8,0,0,1,11.32,8Z" style="fill:#35a5e2"/><path d="M7,2.69A2.27,2.27,0,0,1,9,2.1h.17A2.32,2.32,0,0,1,10.88,3.3a5.17,5.17,0,0,1,.61,2.15s0,.11,0,.17a2.71,2.71,0,0,0-.68.22,5.9,5.9,0,0,1-2.23.06,5.8,5.8,0,0,1-2.12-.75,2.82,2.82,0,0,0-.58-.4l-.14-.12,0-.08A5,5,0,0,1,7,2.69Z" style="fill:#fff"/><path d="M10.83,5.83a5.12,5.12,0,0,0-.6-2A2.33,2.33,0,0,0,8.51,2.63H8.33a2.27,2.27,0,0,0-1.51.24L7,2.69A2.27,2.27,0,0,1,9,2.1h.17A2.32,2.32,0,0,1,10.88,3.3a5.17,5.17,0,0,1,.61,2.15s0,.11,0,.17A3.1,3.1,0,0,0,10.83,5.83Z" style="fill:#cfd0d1;opacity:0.32"/><path d="M6.6,11.28a.59.59,0,0,0-.48-.67.58.58,0,0,0-.66.49.59.59,0,0,0,.48.68A.58.58,0,0,0,6.6,11.28Zm-.28,0a.29.29,0,0,1-.33.25.3.3,0,0,1-.25-.34.29.29,0,0,1,.34-.25A.28.28,0,0,1,6.32,11.24Z" style="fill:#1f85b2"/><path d="M6.76,9.08a.58.58,0,1,0-1.14-.17.59.59,0,0,0,.49.67A.57.57,0,0,0,6.76,9.08ZM6.48,9a.28.28,0,0,1-.33.25.3.3,0,1,1,.09-.59A.29.29,0,0,1,6.48,9Z" style="fill:#1f85b2"/><path d="M7,7a.6.6,0,0,0-.49-.68.59.59,0,0,0-.17,1.17A.58.58,0,0,0,7,7Zm-.28-.05a.31.31,0,0,1-.34.26.31.31,0,0,1-.25-.35.3.3,0,1,1,.59.09Z" style="fill:#1f85b2"/><path d="M9.7,12.36a.58.58,0,0,0,.66-.49.59.59,0,0,0-.49-.67.57.57,0,0,0-.65.49A.58.58,0,0,0,9.7,12.36Zm.13-.88a.31.31,0,0,1,.25.35.3.3,0,1,1-.25-.35Z" style="fill:#1f85b2"/><path d="M10.18,10.22a.58.58,0,0,0,.66-.5.59.59,0,0,0-.48-.67.58.58,0,0,0-.66.49A.59.59,0,0,0,10.18,10.22Zm.14-.88a.3.3,0,0,1-.09.59A.3.3,0,0,1,10,9.59.29.29,0,0,1,10.32,9.34Z" style="fill:#1f85b2"/><path d="M10.62,8.15a.58.58,0,0,0,.66-.49A.59.59,0,0,0,10.8,7a.58.58,0,0,0-.66.5A.59.59,0,0,0,10.62,8.15Zm.14-.88a.29.29,0,0,1,.24.34.28.28,0,0,1-.33.25.3.3,0,0,1-.25-.34A.3.3,0,0,1,10.76,7.27Z" style="fill:#1f85b2"/><path d="M6.85,12l.5-4.8a2.92,2.92,0,0,0-.88-2.08h0a5.8,5.8,0,0,0,2.12.75,5.9,5.9,0,0,0,2.23-.06A2.84,2.84,0,0,0,9.38,7.55l-.92,4.74a2.16,2.16,0,0,0,1,1.63l0,.09a1.1,1.1,0,0,1-1.26.57L6.34,14.3c-.56-.09-1-.49-1-.92v0A2.16,2.16,0,0,0,6.85,12Z" style="fill:#4fbded"/><path d="M7,16.23A4.28,4.28,0,0,0,9.16,16a3.75,3.75,0,0,1-1.06,1.5,2.18,2.18,0,0,1-1.39.26,2,2,0,0,1-1.22-.66,3.8,3.8,0,0,1-.58-1.84A4.3,4.3,0,0,0,7,16.23Z" style="fill:#cfd0d1"/><path d="M10.31,9.41a.14.14,0,0,0-.11,0L6,11a.23.23,0,0,0,.15.43l4.24-1.56a.22.22,0,0,0,.13-.29A.21.21,0,0,0,10.31,9.41Z" style="fill:#fdfeff"/><path d="M6.23,8.77A.25.25,0,0,0,6,8.86a.24.24,0,0,0,0,.32L9.65,12a.23.23,0,0,0,.32,0,.23.23,0,0,0-.05-.32L6.33,8.81A.21.21,0,0,0,6.23,8.77Z" style="fill:#fdfeff"/><path d="M6.41,6.66a.22.22,0,0,0-.22.1.24.24,0,0,0,.06.32l3.89,2.74a.22.22,0,0,0,.32-.06.24.24,0,0,0-.06-.32L6.5,6.7Z" style="fill:#fdfeff"/><path d="M10.75,7.34a.16.16,0,0,0-.1,0L6.13,8.78A.22.22,0,0,0,6,9.06a.22.22,0,0,0,.28.16l4.52-1.43a.24.24,0,0,0,.15-.29A.22.22,0,0,0,10.75,7.34Z" style="fill:#fdfeff"/><path d="M9.82,11.55,6.07,11a.23.23,0,0,0-.26.2.23.23,0,0,0,.19.26L9.75,12a.23.23,0,0,0,.26-.19A.24.24,0,0,0,9.82,11.55Z" style="fill:#fdfeff"/><path d="M10.75,7.34,6.41,6.66a.23.23,0,0,0-.26.19.24.24,0,0,0,.19.27l4.34.67a.21.21,0,0,0,.25-.19A.23.23,0,0,0,10.75,7.34Z" style="fill:#fdfeff"/><path d="M17.66,8l4,5,.25.41a4,4,0,0,0,.59-.23l-.34-.51-4-5a12.14,12.14,0,0,0-2-2,2.34,2.34,0,0,0-.41.43A11,11,0,0,1,17.66,8Z" style="fill:#35a5e2"/><path d="M15.74,6.1l0,0a.88.88,0,0,1,0,.15Z" style="fill:#948250"/><path d="M14.3,10,18,13.82a2.08,2.08,0,0,1-.46,2.68c1.34,1.08,2.95,2.26,4,2.36a2.26,2.26,0,0,0,2.66-1.77c.14-.9-.78-2.51-1.68-3.91A3.06,3.06,0,0,1,19.24,13L15.88,9a2.4,2.4,0,0,1,.27-3.29L16,5.56c-1.45-1.08-3.54-2.14-5.21-.95S9.72,7.72,10.58,9.2l.1.17A3.47,3.47,0,0,1,14.3,10Z" style="fill:#35a5e2"/><path d="M12.43,11.55l4.62,4.56.47.39a3.16,3.16,0,0,0,.38-.45l-.35-.28-4.66-4.59a10.43,10.43,0,0,1-1.61-2,2.86,2.86,0,0,0-.6.21A11.63,11.63,0,0,0,12.43,11.55Z" style="fill:#35a5e2"/><path d="M12,9.09a3.84,3.84,0,0,1,2.3.94L18,13.82a1.92,1.92,0,0,1-.08,2.23c.63.47,2.58,2.08,3.56,2.18a2.09,2.09,0,0,0,1.37-.31,1.5,1.5,0,0,0,.67-1c.13-.82-1.19-2.81-1.58-3.47A2.86,2.86,0,0,1,19.24,13L15.88,9a2.83,2.83,0,0,1-.49-2.16A4.35,4.35,0,0,1,14,8.28,5.44,5.44,0,0,1,12,9.09Z" style="fill:#e4e4e4"/><path d="M15.65,6.22a2.26,2.26,0,0,0-.26.58A2.72,2.72,0,0,0,15.65,6.22Z" style="fill:none"/><path d="M15.88,9l3.36,4a2.86,2.86,0,0,0,2.68.44L21.67,13l-4-5A11,11,0,0,0,15.74,6.1,2.5,2.5,0,0,0,15.88,9Z" style="fill:#35a5e2"/><path d="M12.89,11.18l4.66,4.59.35.28A1.92,1.92,0,0,0,18,13.82L14.3,10a3.63,3.63,0,0,0-3-.87A10.43,10.43,0,0,0,12.89,11.18Z" style="fill:#35a5e2"/><path d="M13.44,4.85a2.41,2.41,0,0,0-2.1.25l-.05,0h0l0,0h0a1.72,1.72,0,0,0-.8,1.69A5.29,5.29,0,0,0,11.18,9a1.4,1.4,0,0,0,.1.16A2.59,2.59,0,0,1,12,9.09a5.44,5.44,0,0,0,2-.81,4.35,4.35,0,0,0,1.4-1.48,2.26,2.26,0,0,1,.26-.58.88.88,0,0,0,0-.15L15.63,6A6.89,6.89,0,0,0,13.44,4.85Z" style="fill:#fff"/><path d="M12,9.09a5.3,5.3,0,0,1-.71-2,1.71,1.71,0,0,1,.8-1.69h0l.06,0h0l.06,0a2.15,2.15,0,0,1,1.47-.37l-.25-.08a2.41,2.41,0,0,0-2.1.25l-.05,0h0l0,0h0a1.72,1.72,0,0,0-.8,1.69A5.29,5.29,0,0,0,11.18,9a1.4,1.4,0,0,0,.1.16A2.48,2.48,0,0,1,12,9.09Z" style="fill:#cfd0d1;opacity:0.32"/><path d="M19.87,12.4a.51.51,0,0,0,0-.78.71.71,0,0,0-.88-.17.5.5,0,0,0,0,.77A.69.69,0,0,0,19.87,12.4Zm-.65-.72a.38.38,0,0,1,.45.09.26.26,0,0,1,0,.4.36.36,0,0,1-.44-.09A.26.26,0,0,1,19.22,11.68Z" style="fill:#1f85b2"/><path d="M18.4,10.54a.51.51,0,0,0,0-.78.73.73,0,0,0-.88-.18.51.51,0,0,0,0,.78A.73.73,0,0,0,18.4,10.54Zm-.65-.72a.35.35,0,0,1,.44.09.27.27,0,0,1,0,.4.37.37,0,0,1-.45-.1A.25.25,0,0,1,17.75,9.82Z" style="fill:#1f85b2"/><path d="M17,8.77A.51.51,0,0,0,17,8a.69.69,0,0,0-.87-.18.5.5,0,0,0,0,.78A.73.73,0,0,0,17,8.77ZM16.31,8a.35.35,0,0,1,.44.1.25.25,0,0,1,0,.39.36.36,0,0,1-.45-.09A.26.26,0,0,1,16.31,8Z" style="fill:#1f85b2"/><path d="M17,13.59a.71.71,0,0,0-.87-.18.5.5,0,0,0,0,.78.73.73,0,0,0,.88.18A.51.51,0,0,0,17,13.59Zm-.22.15a.25.25,0,0,1,0,.39.36.36,0,0,1-.45-.09.26.26,0,0,1,0-.4A.35.35,0,0,1,16.74,13.74Z" style="fill:#1f85b2"/><path d="M15.23,11.9a.69.69,0,0,0-.87-.18.5.5,0,0,0,0,.77.7.7,0,0,0,.88.18A.5.5,0,0,0,15.23,11.9ZM15,12a.26.26,0,0,1,0,.4.38.38,0,0,1-.45-.09.26.26,0,0,1,0-.4A.36.36,0,0,1,15,12Z" style="fill:#1f85b2"/><path d="M13.59,10.26a.69.69,0,0,0-.87-.18.51.51,0,0,0,0,.78.71.71,0,0,0,.88.17A.5.5,0,0,0,13.59,10.26Zm-.22.14a.26.26,0,0,1,0,.4.38.38,0,0,1-.45-.09.26.26,0,0,1,0-.4A.36.36,0,0,1,13.37,10.4Z" style="fill:#1f85b2"/><path d="M19.24,13,15.88,9a2.83,2.83,0,0,1-.49-2.16h0A4.35,4.35,0,0,1,14,8.28a5.44,5.44,0,0,1-2,.81,3.84,3.84,0,0,1,2.3.94L18,13.82a1.86,1.86,0,0,1,.16,1.8l.08.07a1.25,1.25,0,0,0,1.44,0l1.4-.94a.88.88,0,0,0,.34-1.21l0,0A2.72,2.72,0,0,1,19.24,13Z" style="fill:#4fbded"/><path d="M21.65,16.71a4,4,0,0,1-2,.62,5,5,0,0,0,1.84.9,2.15,2.15,0,0,0,1.37-.3,1.54,1.54,0,0,0,.67-1.05A3.7,3.7,0,0,0,22.88,15,3.06,3.06,0,0,1,21.65,16.71Z" style="fill:#cfd0d1"/><path d="M14.62,12a.17.17,0,0,1,.1,0l4.66-.28a.3.3,0,0,1,.29.21.16.16,0,0,1-.16.23l-4.66.28a.33.33,0,0,1-.3-.21A.19.19,0,0,1,14.62,12Z" style="fill:#fdfeff"/><path d="M17.8,9.88a.23.23,0,0,1,.24,0,.25.25,0,0,1,.16.3L16.75,14a.22.22,0,0,1-.31.08.26.26,0,0,1-.15-.3L17.73,10A.16.16,0,0,1,17.8,9.88Z" style="fill:#fdfeff"/><path d="M16.36,8.1a.27.27,0,0,1,.39.3L15,12.31a.22.22,0,0,1-.32.07.24.24,0,0,1-.14-.3L16.3,8.17A.13.13,0,0,1,16.36,8.1Z" style="fill:#fdfeff"/><path d="M13,10.37a.14.14,0,0,1,.09,0l4.82-.5a.33.33,0,0,1,.31.2.17.17,0,0,1-.16.24l-4.82.5a.31.31,0,0,1-.3-.2A.16.16,0,0,1,13,10.37Z" style="fill:#fdfeff"/><path d="M16.35,13.7l2.92-2a.27.27,0,0,1,.35.07.19.19,0,0,1,0,.3l-2.93,2a.26.26,0,0,1-.34-.07A.19.19,0,0,1,16.35,13.7Z" style="fill:#fdfeff"/><path d="M13,10.37,16.36,8.1a.28.28,0,0,1,.34.07.19.19,0,0,1,0,.3l-3.37,2.27a.27.27,0,0,1-.35-.07A.19.19,0,0,1,13,10.37Z" style="fill:#fdfeff"/></svg>