<svg xmlns="http://www.w3.org/2000/svg" viewBox="0 0 19.25 16.69"><g style="isolation:isolate"><rect x="3.88" y="6.87" width="0.19" height="9.11"/><rect x="0.55" y="11.3" width="6.86" height="0.25"/><polygon points="1.62 14.73 1.49 14.56 6.33 8.12 6.47 8.29 1.62 14.73"/><polygon points="6.33 14.73 1.49 8.29 1.62 8.12 6.47 14.56 6.33 14.73"/><polygon points="2.83 15.72 2.66 15.63 5.12 7.13 5.3 7.22 2.83 15.72"/><polygon points="7.14 13.18 0.74 9.9 0.81 9.67 7.21 12.95 7.14 13.18"/><polygon points="0.88 13.39 0.81 13.16 7.07 9.47 7.15 9.69 0.88 13.39"/><polygon points="5.28 15.64 2.5 7.31 2.67 7.21 5.45 15.54 5.28 15.64"/><path d="M4,6.12c-2.2,0-4,2.36-4,5.28s1.78,5.29,4,5.29,4-2.37,4-5.29S6.17,6.12,4,6.12ZM4,16.36c-2.06,0-3.74-2.22-3.74-5s1.68-5,3.74-5,3.73,2.22,3.73,5S6,16.36,4,16.36Z"/><path d="M4,6.44c-2.06,0-3.74,2.22-3.74,5s1.68,5,3.74,5,3.73-2.22,3.73-5S6,6.44,4,6.44Zm0,9.32C2.17,15.76.7,13.81.7,11.4S2.17,7,4,7,7.26,9,7.26,11.4,5.79,15.76,4,15.76Z" style="fill:#3f351b"/><path d="M1,14A6.93,6.93,0,0,1,.86,9.5C1.66,7.11,3,6.86,4.33,6.79c.92,0,2.32.93,3,2.87,0,0-.8-3.07-3.11-3.12a3.69,3.69,0,0,0-3.61,3A5.78,5.78,0,0,0,1,14Z" style="fill:#7b766d"/><path d="M4,7C2.17,7,.7,9,.7,11.4S2.17,15.76,4,15.76s3.28-1.95,3.28-4.36S5.79,7,4,7ZM4,15.6C2.23,15.6.82,13.72.82,11.4S2.23,7.2,4,7.2s3.16,1.88,3.16,4.2S5.72,15.6,4,15.6Z"/><path d="M5.07,11.4c0,.81-.49,1.46-1.09,1.46s-1.1-.65-1.1-1.46S3.37,9.94,4,9.94,5.07,10.6,5.07,11.4Z"/><path d="M5,11.38c0,.76-.46,1.37-1,1.37s-1-.61-1-1.37A1.23,1.23,0,0,1,4,10,1.23,1.23,0,0,1,5,11.38Z" style="fill:#ce2121"/><path d="M4.09,10.2a.87.87,0,0,1,.51.17.92.92,0,0,0-.43-.25,1,1,0,0,0-.65.15A1.33,1.33,0,0,0,3,11.43,1.27,1.27,0,0,1,4.09,10.2Z" style="fill:#ffc3c8"/><path d="M4.81,11.73c0-.6-.27-1.32-.81-1.29s-.87.62-.77,1.3c0,.11-.06.19-.13.17S3,11.73,3,11.66a1.16,1.16,0,0,0,1,1.09,1.08,1.08,0,0,0,1-.89C4.89,11.88,4.82,11.81,4.81,11.73Z" style="fill:#a81c22;mix-blend-mode:multiply"/><path d="M4.58,11.4c0,.45-.27.81-.6.81s-.61-.36-.61-.81A.72.72,0,0,1,4,10.6C4.31,10.6,4.58,11,4.58,11.4Z"/><path d="M4.52,11.38c0,.39-.24.72-.54.72s-.54-.33-.54-.72.24-.72.54-.72S4.52,11,4.52,11.38Z" style="fill:#f8d010"/><path d="M4.52,11.38c0,.39-.24.72-.54.72s-.54-.33-.54-.72.24-.72.54-.72S4.52,11,4.52,11.38Z" style="fill:#d9931a;mix-blend-mode:multiply"/><path d="M4.26,11.35c0,.23-.14.41-.31.41a.37.37,0,0,1-.32-.41A.37.37,0,0,1,4,11,.37.37,0,0,1,4.26,11.35Z" style="fill:#d9931a;mix-blend-mode:multiply"/><rect x="15.18" y="6.8" width="0.19" height="9.11"/><rect x="11.84" y="11.23" width="6.86" height="0.25"/><polygon points="12.91 14.66 12.78 14.48 17.63 8.04 17.76 8.22 12.91 14.66"/><polygon points="17.63 14.66 12.78 8.22 12.91 8.04 17.76 14.48 17.63 14.66"/><polygon points="14.12 15.65 13.95 15.56 16.41 7.06 16.59 7.15 14.12 15.65"/><polygon points="18.43 13.11 12.04 9.83 12.1 9.6 18.5 12.88 18.43 13.11"/><polygon points="12.17 13.31 12.1 13.09 18.36 9.39 18.44 9.62 12.17 13.31"/><polygon points="16.57 15.57 13.79 7.24 13.96 7.14 16.74 15.46 16.57 15.57"/><path d="M15.27,6c-2.2,0-4,2.37-4,5.29s1.78,5.28,4,5.28,4-2.36,4-5.28S17.47,6,15.27,6Zm0,10.25c-2.06,0-3.73-2.22-3.73-5s1.67-5,3.73-5S19,8.59,19,11.33,17.33,16.29,15.27,16.29Z"/><path d="M15.27,6.37c-2.06,0-3.73,2.22-3.73,5s1.67,5,3.73,5,3.73-2.22,3.73-5S17.33,6.37,15.27,6.37Zm0,9.31c-1.81,0-3.28-1.95-3.28-4.35S13.46,7,15.27,7s3.28,2,3.28,4.36S17.08,15.68,15.27,15.68Z" style="fill:#3f351b"/><path d="M12.27,14a7,7,0,0,1-.12-4.54c.8-2.39,2.12-2.64,3.46-2.7.93,0,2.33.92,3,2.86,0,0-.8-3.07-3.11-3.11a3.7,3.7,0,0,0-3.62,3A5.74,5.74,0,0,0,12.27,14Z" style="fill:#7b766d"/><path d="M15.27,7C13.46,7,12,8.92,12,11.33s1.47,4.35,3.28,4.35,3.28-1.95,3.28-4.35S17.08,7,15.27,7Zm0,8.55c-1.74,0-3.16-1.88-3.16-4.19s1.42-4.2,3.16-4.2,3.16,1.88,3.16,4.2S17,15.52,15.27,15.52Z"/><path d="M16.37,11.33a1.31,1.31,0,0,1-1.1,1.45,1.31,1.31,0,0,1-1.1-1.45c0-.81.49-1.46,1.1-1.46S16.37,10.52,16.37,11.33Z"/><path d="M16.3,11.31c0,.75-.46,1.37-1,1.37s-1-.62-1-1.37.46-1.37,1-1.37S16.3,10.55,16.3,11.31Z" style="fill:#f8d010"/><path d="M15.88,11.33a.73.73,0,0,1-.61.8.72.72,0,0,1-.61-.8c0-.45.27-.81.61-.81A.74.74,0,0,1,15.88,11.33Z"/><path d="M15.81,11.3c0,.4-.24.72-.54.72s-.54-.32-.54-.72.24-.72.54-.72S15.81,10.91,15.81,11.3Z" style="fill:#fff"/><path d="M15.59,11.11,11.88,4.76,12.43,2a.24.24,0,0,0-.12-.27c-.09,0-.18,0-.2.16l-.53,2.65L5.73,3.41,6,2A.29.29,0,0,0,6,1.8l-.73-1A.57.57,0,0,1,5.17.48s0,0,.14,0c.68,0,2.15,0,2.17,0s.16-.09.17-.21S7.58.05,7.49.05,6,0,5.31,0a.42.42,0,0,0-.43.27A1.14,1.14,0,0,0,5,1.08s0,0,0,0l.68.9-.3,1.49v0L3.82,11.32a.24.24,0,0,0,.12.27H4a.18.18,0,0,0,.16-.16L5.27,5.71l5,6.23a.16.16,0,0,0,.11.05h0l5-.53a.17.17,0,0,0,.14-.12A.36.36,0,0,0,15.59,11.11ZM5.65,3.83,11.5,5l-1.25,6.29-4.88-6Zm4.84,7.72a.23.23,0,0,0,.06-.12l1.22-6.14,3.37,5.77Z"/><path d="M13.69,1.35c-.29-.41-.86-.27-1.22-.23a7.55,7.55,0,0,0-1.75.41l-.08,0a.94.94,0,0,0-.36.18c-.26.23-.32.79.08.78.21,0,.39-.16.59-.21a1.35,1.35,0,0,1,.86.19,6.9,6.9,0,0,0,.75.3c.41.14,1.09.3,1.3-.36A1.45,1.45,0,0,0,13.69,1.35Z"/><path d="M13.23,2.68a6.56,6.56,0,0,1-1.72-.57,1,1,0,0,0-.63,0c-.15.06-.51.34-.64.11a.37.37,0,0,1,.08-.28.73.73,0,0,1,.32-.18,4.71,4.71,0,0,1,.73-.22A6.62,6.62,0,0,1,13,1.31a.6.6,0,0,1,.55.26,1.29,1.29,0,0,1,.15.68C13.73,2.62,13.46,2.68,13.23,2.68Z" style="fill:#ce2121"/><path d="M13.63,1.69a.88.88,0,0,1-.15.41c-.31.38-.74,0-1.09,0-.6-.16-1.31-.43-1.89-.05a.6.6,0,0,1-.25.1.31.31,0,0,0,0,.1c.13.23.49,0,.64-.11a1,1,0,0,1,.63,0,6.56,6.56,0,0,0,1.72.57c.23,0,.5-.06.49-.43A1.46,1.46,0,0,0,13.63,1.69Z" style="fill:#a81c22;mix-blend-mode:multiply"/><path d="M15.24,10,11,9.29a.93.93,0,0,0-.24,0h0c-.74,0-1.34.8-1.34,1.78a1.63,1.63,0,0,0,1.28,1.78h.06l.23,0,4.26-.36h0c.51,0,.92-.54.92-1.22A1.1,1.1,0,0,0,15.24,10Z" style="fill:#ce2121"/><path d="M15.56,11.49a2.57,2.57,0,0,1-1.23.12c-.51,0-1,0-1.54,0a3.91,3.91,0,0,1-1.62-.22,1.24,1.24,0,0,1-.5-.42c-.12-.2-.14-.41-.32-.54-.42-.33-.68.2-.67.79,0,.12-.15.41-.29-.08a1.59,1.59,0,0,0,1.27,1.64h.06l.23,0,4.26-.36h0c.51,0,.92-.54.92-1.22a1.54,1.54,0,0,0-.06-.43A1,1,0,0,1,15.56,11.49Z" style="fill:#a81c22;mix-blend-mode:multiply"/><path d="M10.72,12.93h-.07A1.74,1.74,0,0,1,9.29,11c0-1,.64-1.9,1.43-1.9h0a.77.77,0,0,1,.25,0l4.23.68a1.23,1.23,0,0,1,1,1.35c0,.74-.45,1.35-1,1.35h0L11,12.91A1,1,0,0,1,10.72,12.93Zm-.06-.24h0a.82.82,0,0,0,.27,0h0l4.26-.36h0c.46,0,.83-.49.83-1.1a1,1,0,0,0-.82-1.1h0L11,9.41h0a.83.83,0,0,0-.22,0h0A1.49,1.49,0,0,0,9.47,11,1.52,1.52,0,0,0,10.66,12.69Z"/><path d="M10.29,14.09c0,.15-.09.28-.2.28h0c-.11,0-.2-.13-.2-.28V10.8c0-.15.09-.28.2-.28h0c.11,0,.2.13.2.28Z"/><path d="M10.24,14c0,.14-.07.26-.16.26h0c-.08,0-.15-.12-.15-.26V10.89c0-.15.07-.26.15-.26h0c.09,0,.16.11.16.26Z" style="fill:#f8d010"/><path d="M10.13,10.64v2.95c0,.17-.19.17-.19,0V10.81a.22.22,0,0,0,0,.08V14c0,.14.07.26.15.26s.16-.12.16-.26V10.89A.3.3,0,0,0,10.13,10.64Z" style="fill:#d9931a;mix-blend-mode:multiply"/><rect x="9.27" y="13.86" width="1.64" height="0.74"/><rect x="9.41" y="14.01" width="1.35" height="0.45" style="fill:#ce2121"/><path d="M9.41,14.24v.22h1.36V14.1A1.3,1.3,0,0,1,9.41,14.24Z" style="fill:#a81c22;mix-blend-mode:multiply"/></g></svg>