<svg xmlns="http://www.w3.org/2000/svg" viewBox="0 0 22.18 18.73"><polygon points="6.64 0.03 8.58 7.19 8.93 0.66 6.64 0.03" style="fill:#fcd735"/><polygon points="4.97 1.49 8.58 7.19 6.64 0.03 4.97 1.49" style="fill:#f8c02d"/><polygon points="2.66 2.03 8.58 7.19 4.97 1.49 2.66 2.03" style="fill:#fcd735"/><polygon points="2.04 4.05 8.58 7.19 2.66 2.03 2.04 4.05" style="fill:#f8c02d"/><polygon points="1.09 7.49 8.58 7.19 0.36 5.51 1.09 7.49" style="fill:#f8c02d"/><polygon points="0.36 5.51 8.58 7.19 2.04 4.05 0.36 5.51" style="fill:#fcd735"/><polygon points="21.68 13.13 13.46 11.44 20.95 11.14 21.68 13.13" style="fill:#fcd735"/><polygon points="20 14.59 13.46 11.44 21.68 13.13 20 14.59" style="fill:#f8c02d"/><polygon points="19.38 16.6 13.46 11.44 20 14.59 19.38 16.6" style="fill:#fcd735"/><polygon points="17.07 17.14 13.46 11.44 19.38 16.6 17.07 17.14" style="fill:#f8c02d"/><polygon points="13.11 17.97 13.46 11.44 15.39 18.6 13.11 17.97" style="fill:#f8c02d"/><polygon points="15.39 18.6 13.46 11.44 17.07 17.14 15.39 18.6" style="fill:#fcd735"/><ellipse cx="11.02" cy="9.32" rx="5.1" ry="4.44" style="fill:#f8c02d"/><ellipse cx="11.7" cy="6.23" rx="1.08" ry="0.94" style="fill:#fff"/><ellipse cx="9.65" cy="6.1" rx="0.55" ry="0.48" style="fill:#fff"/></svg>