<svg xmlns="http://www.w3.org/2000/svg" viewBox="0 0 28.84 19.22"><path d="M12.33,1.76a6.68,6.68,0,0,1,6.13,3.17,9.56,9.56,0,0,0,6.13,3.65c2.28.42,3.36,2.62,3.26,4.9s-.78,3-2.42,3H3.22C1.27,16.51.39,15.27.39,11.2S2.3,8,4.33,5.42C5.92,3.39,7.25,1.76,12.33,1.76Z" style="fill:#00bdd6"/><path d="M1.31,11c0,.6-.19,1.09-.6,1.09S0,11.58,0,11,.29,9.89.71,9.89,1.31,10.38,1.31,11Z" style="fill:#d71921"/><path d="M28.11,11.62a1.29,1.29,0,0,1-.56,1.57c-.36.13-.74-.25-.93-1s-.06-1.42.3-1.54S27.94,10.92,28.11,11.62Z" style="fill:#fcb813"/><path d="M12.55,8.06h4c2.24,0,1.73-1.43,1.1-2.34A5.66,5.66,0,0,0,12.55,3Z" style="fill:#b2e1eb"/><path d="M11.51,3c-4,.16-5,1.47-6.41,3.24-.68.88-.59,1.81.6,1.81h5.81Z" style="fill:#b2e1eb"/><path d="M10.15,15.68a3.3,3.3,0,0,1-3,3.54,3.31,3.31,0,0,1-3-3.54,3.31,3.31,0,0,1,3-3.54A3.3,3.3,0,0,1,10.15,15.68Z" style="fill:#231f20"/><path d="M9.28,15.68a2.34,2.34,0,0,1-2.13,2.51A2.34,2.34,0,0,1,5,15.68a2.34,2.34,0,0,1,2.12-2.51A2.34,2.34,0,0,1,9.28,15.68Z" style="fill:#00bdd6"/><path d="M23.08,15.68a3.3,3.3,0,0,1-3,3.54,3.31,3.31,0,0,1-3-3.54,3.31,3.31,0,0,1,3-3.54A3.3,3.3,0,0,1,23.08,15.68Z" style="fill:#231f20"/><path d="M22.21,15.68a2.34,2.34,0,0,1-2.13,2.51A2.35,2.35,0,0,1,18,15.68a2.35,2.35,0,0,1,2.13-2.51A2.34,2.34,0,0,1,22.21,15.68Z" style="fill:#00bdd6"/></svg>