<svg xmlns="http://www.w3.org/2000/svg" viewBox="0 0 21.02 22.45"><path d="M14.53,9.39a.38.38,0,0,1-.27-.1,8.87,8.87,0,0,0-1.09-.85l-.09-.06.07-.08A.9.9,0,0,1,13.86,8c.39,0,.73.36,1,1a.28.28,0,0,1-.15.36A.45.45,0,0,1,14.53,9.39Zm-1.11-1a8.84,8.84,0,0,1,1,.81.14.14,0,0,0,.16,0,.09.09,0,0,0,.05-.12c-.32-.68-.62-.84-.82-.86A.61.61,0,0,0,13.42,8.35Z" style="fill:#e8a707"/><rect x="6.06" y="6.98" width="6.36" height="1.76" style="fill:#ffbc00"/><rect x="11.38" y="6.98" width="1.04" height="1.76" style="fill:#e5ab05;opacity:0.66"/><rect x="5.73" y="7.72" width="7.02" height="0.28" rx="0.14" style="fill:#e8a707"/><rect x="5.46" y="6.98" width="7.57" height="0.28" rx="0.14" style="fill:#e8a707"/><path d="M5.46,7.12h0c0,.07.08.13.18.13h7.2c.1,0,.19-.06.19-.13H5.46Z" style="fill:#c1880a"/><rect x="5.46" y="8.46" width="8.24" height="0.28" rx="0.14" style="fill:#e8a707"/><path d="M5.46,8.6h0c0,.07.08.13.18.13h7.87c.1,0,.18-.06.18-.13H5.46Z" style="fill:#c1880a"/><path d="M5.73,7.88A.16.16,0,0,0,5.9,8h6.68c.09,0,.17,0,.17-.12Z" style="fill:#c1880a"/><path d="M7.88,4.35h2.73A2.64,2.64,0,0,1,13.25,7V7a0,0,0,0,1,0,0h-8a0,0,0,0,1,0,0V7A2.64,2.64,0,0,1,7.88,4.35Z" style="fill:#ffbc00"/><rect x="10.18" y="4.63" width="1.19" height="2.07" style="fill:#fcc63d"/><rect x="8.65" y="4.63" width="1.19" height="2.07" style="fill:#fcc63d"/><rect x="7.11" y="4.63" width="1.19" height="2.07" style="fill:#fcc63d"/><path d="M6.77,4.63H6.14a.51.51,0,0,0-.55.44V6.7H6.77Z" style="fill:#fcc63d"/><path d="M12.35,4.63h-.63V6.7h1.17V5.07A.5.5,0,0,0,12.35,4.63Z" style="fill:#fcc63d"/><polygon points="11.19 6.56 10.18 6.56 10.18 6.7 11.38 6.7 11.38 4.63 11.19 4.63 11.19 6.56" style="fill:#e8a707"/><polygon points="9.65 6.56 8.64 6.56 8.64 6.7 9.84 6.7 9.84 4.63 9.65 4.63 9.65 6.56" style="fill:#e8a707"/><polygon points="8.12 6.56 7.11 6.56 7.11 6.7 8.3 6.7 8.3 4.63 8.12 4.63 8.12 6.56" style="fill:#e8a707"/><polygon points="6.58 6.56 5.59 6.56 5.59 6.7 6.77 6.7 6.77 4.63 6.58 4.63 6.58 6.56" style="fill:#e8a707"/><path d="M12.61,4.69a.37.37,0,0,1,.1.25V6.56h-1V6.7h1.17V5.07A.43.43,0,0,0,12.61,4.69Z" style="fill:#e8a707"/><path d="M12.2,4.35A2.74,2.74,0,0,0,9.26,1.92,2.74,2.74,0,0,0,6.32,4.35Z" style="fill:#e8a707"/><path d="M12.4,4.34a2.42,2.42,0,0,0-.93-1.83,3.49,3.49,0,0,0-2.2-.76H9.06V3.87a.55.55,0,0,0,.59.48H12.4Z" style="fill:#c1880a"/><ellipse cx="9.66" cy="3.96" rx="0.25" ry="0.2" style="fill:#ffbc00"/><path d="M9.66,3.76H9.6a.23.23,0,0,1,.19.2.21.21,0,0,1-.19.2h.06A.24.24,0,0,0,9.92,4,.24.24,0,0,0,9.66,3.76Z" style="fill:#c1880a;opacity:0.36"/><path d="M13,8.74H5.47s-1,.12-.86.82a36,36,0,0,1,.17,10.5,1.91,1.91,0,0,0,1.84.88h5.25a1.91,1.91,0,0,0,1.84-.88,36.13,36.13,0,0,1,.16-10.5C14,8.86,13,8.74,13,8.74Z" style="fill:#4fbded"/><path d="M13,8.74h-.28a35.94,35.94,0,0,0-.16,10.44,1.91,1.91,0,0,1-1.84.88H5.48A2.84,2.84,0,0,1,4.79,20v.08a1.91,1.91,0,0,0,1.84.88h5.25a1.91,1.91,0,0,0,1.84-.88,36.13,36.13,0,0,1,.16-10.5C14,8.86,13,8.74,13,8.74Z" style="fill:#1f8cb2;opacity:0.43"/><path d="M6.06,9.12s-.94-.16-.82.55a59,59,0,0,1,.13,9.5,2.09,2.09,0,0,0,1,0V9.11Z" style="fill:#fff;opacity:0.26"/><path d="M12.8,8.27h.57a.33.33,0,0,1,.33.33v0a0,0,0,0,1,0,0h-.9a0,0,0,0,1,0,0V8.27A0,0,0,0,1,12.8,8.27Z" style="fill:#e8a707"/><path d="M14.85,16.92h-.07c-1.06-.13-.83-2.77-.46-5.94.08-.69.15-1.29.17-1.66h0a.16.16,0,0,1,.16-.14.18.18,0,0,1,.19.12c.35,1.29,1.3,6.69.35,7.51A.52.52,0,0,1,14.85,16.92ZM14.7,9.73c0,.35-.08.78-.14,1.26-.13,1.14-.3,2.57-.31,3.72,0,.72.07,1.95.57,2a.23.23,0,0,0,.19-.06C15.74,16,15.18,11.76,14.7,9.73Z" style="fill:#e8a707"/></svg>