<svg xmlns="http://www.w3.org/2000/svg" xmlns:xlink="http://www.w3.org/1999/xlink" viewBox="0 0 127.3 77.9"><defs><linearGradient id="a" x1="63.57" y1="-0.15" x2="63.57" y2="45.48" gradientUnits="userSpaceOnUse"><stop offset="0.23" stop-color="#d3e9f3"/><stop offset="0.84" stop-color="#c1dfee"/></linearGradient></defs><rect x="-0.06" y="0.13" width="127.28" height="63.02" style="fill:url(#a)"/><g style="opacity:0.5"><rect x="8.55" y="0.13" width="2.1" height="63.02" style="fill:#fff;opacity:0.49"/><rect x="1.86" y="0.13" width="2.1" height="63.02" style="fill:#fff;opacity:0.49"/><rect x="15.19" y="0.13" width="2.1" height="63.02" style="fill:#fff;opacity:0.49"/><rect x="21.83" y="0.13" width="2.1" height="63.02" style="fill:#fff;opacity:0.49"/><rect x="28.47" y="0.13" width="2.1" height="63.02" style="fill:#fff;opacity:0.49"/><rect x="35.11" y="0.13" width="2.1" height="63.02" style="fill:#fff;opacity:0.49"/><rect x="41.75" y="0.13" width="2.1" height="63.02" style="fill:#fff;opacity:0.49"/><rect x="48.39" y="0.13" width="2.1" height="63.02" style="fill:#fff;opacity:0.49"/><rect x="61.68" y="0.13" width="2.1" height="63.02" style="fill:#fff;opacity:0.49"/><rect x="68.32" y="0.13" width="2.1" height="63.02" style="fill:#fff;opacity:0.49"/><rect x="55.03" y="0.13" width="2.1" height="63.02" style="fill:#fff;opacity:0.49"/><rect x="74.96" y="0.13" width="2.1" height="63.02" style="fill:#fff;opacity:0.49"/><rect x="81.6" y="0.13" width="2.1" height="63.02" style="fill:#fff;opacity:0.49"/><rect x="88.24" y="0.13" width="2.1" height="63.02" style="fill:#fff;opacity:0.49"/><rect x="94.88" y="0.13" width="2.1" height="63.02" style="fill:#fff;opacity:0.49"/><rect x="101.52" y="0.13" width="2.1" height="63.02" style="fill:#fff;opacity:0.49"/><rect x="108.17" y="0.13" width="2.1" height="63.02" style="fill:#fff;opacity:0.49"/><rect x="114.81" y="0.13" width="2.1" height="63.02" style="fill:#fff;opacity:0.49"/><rect x="122.25" y="0.13" width="2.1" height="63.02" style="fill:#fff;opacity:0.49"/></g><rect x="0.1" y="63.21" width="126.86" height="14.58" style="fill:#bfb8b8;stroke:#d6dad4;stroke-width:0.11315299999999999px"/><path d="M124.82,64.51H127v-.13h-2.37l-1.93-1.17h-.32l1.94,1.17H113.17l-1.7-1.17h-.3l1.7,1.17H99.09l-1.31-1.17h-.27l1.31,1.17h-11l-.91-1.17h-.25l.91,1.17H78.67l-.52-1.17h-.24l.53,1.17H70.13l-.28-1.17h-.23l.28,1.17H62l0-1.17H61.7l0,1.17H54.06l.22-1.17h-.23l-.22,1.17H45.57l.49-1.17h-.24l-.49,1.17H35.94l.86-1.17h-.25l-.86,1.17H25.47l1.45-1.17h-.28l-1.45,1.17H13.76l1.94-1.17h-.32l-1.94,1.17H.1v.13H13.22L9.12,67H.1v.14H8.9l-6,3.64H.1v.14H2.64L.1,72.43v.19L3,70.9H17.13l-5.55,4.49H.1v.13H11.41L8.62,77.79H8.9l2.8-2.27H27.53l-1.66,2.27h.25l1.66-2.27H40.67l-.94,2.27H40l.95-2.27H51.7l-.43,2.27h.23l.43-2.27H62l0,2.27h.23l0-2.27H72.54l.54,2.27h.23l-.54-2.27H83.4l1,2.27h.23l-1-2.27H96.13l1.75,2.27h.25l-1.75-2.27h14.88l2.53,2.27h.28l-2.54-2.27H127v-.13H111.38l-5-4.49h16L127,74.07v-.21l-4.31-3H127v-.14h-4.51l-5.3-3.64H127V67H117l-3.6-2.47H124.5L127,66v-.2ZM99,64.51,101.73,67h-12l-1.91-2.47ZM79.89,67.12h9.74l2.82,3.64H81.51Zm1.39,3.64H71.64l-.86-3.64h8.88Zm8.6-3.64h12L106,70.76H92.7Zm-2.26-2.61L89.53,67h-9.7l-1.1-2.47Zm-9.12,0L79.6,67H70.75l-.59-2.47ZM61.85,70.76h-9l.69-3.64h8.25ZM33.93,67.12H44.19l-1.53,3.64H31.27ZM31,70.76H17.58l4.5-3.64H33.69Zm13.4-3.64h8.89l-.7,3.64H42.9ZM54,64.51h7.69L61.78,67H53.56Zm-8.52,0H53.8L53.33,67H44.48Zm-9.67,0h9.44l-1,2.47H34Zm-10.54,0H35.6L33.79,67H22.25Zm-11.76,0H25L22,67H9.44ZM3.18,70.76l6-3.64H21.8l-4.5,3.64Zm24.45,4.63H11.86l5.55-4.49H30.92Zm13.1,0H27.88l3.29-4.49H42.61Zm11,0H41l1.88-4.49h9.75Zm.23,0,.85-4.49h9L62,75.39ZM62,64.51h8L70.52,67H62Zm0,2.61h8.55l.86,3.64H62.08Zm.18,8.27-.1-4.49h9.36l1.07,4.49Zm10.56,0L71.67,70.9h9.67l2,4.49Zm10.83,0-2-4.49h11L96,75.39Zm27.54,0H96.27L92.8,70.9h13.3Zm11-4.63H106.22l-4.07-3.64h14.7ZM116.66,67H102l-2.76-2.47h13.82Z" style="fill:#bfb8b8"/><path d="M124.82,64.51H127v-.13h-2.37l-1.93-1.17h-.32l1.94,1.17H113.17l-1.7-1.17h-.3l1.7,1.17H99.09l-1.31-1.17h-.27l1.31,1.17h-11l-.91-1.17h-.25l.91,1.17H78.67l-.52-1.17h-.24l.53,1.17H70.13l-.28-1.17h-.23l.28,1.17H62l0-1.17H61.7l0,1.17H54.06l.22-1.17h-.23l-.22,1.17H45.57l.49-1.17h-.24l-.49,1.17H35.94l.86-1.17h-.25l-.86,1.17H25.47l1.45-1.17h-.28l-1.45,1.17H13.76l1.94-1.17h-.32l-1.94,1.17H.1v.13H13.22L9.12,67H.1v.14H8.9l-6,3.64H.1v.14H2.64L.1,72.43v.19L3,70.9H17.13l-5.55,4.49H.1v.13H11.41L8.62,77.79H8.9l2.8-2.27H27.53l-1.66,2.27h.25l1.66-2.27H40.67l-.94,2.27H40l.95-2.27H51.7l-.43,2.27h.23l.43-2.27H62l0,2.27h.23l0-2.27H72.54l.54,2.27h.23l-.54-2.27H83.4l1,2.27h.23l-1-2.27H96.13l1.75,2.27h.25l-1.75-2.27h14.88l2.53,2.27h.28l-2.54-2.27H127v-.13H111.38l-5-4.49h16L127,74.07v-.21l-4.31-3H127v-.14h-4.51l-5.3-3.64H127V67H117l-3.6-2.47H124.5L127,66v-.2ZM99,64.51,101.73,67h-12l-1.91-2.47ZM79.89,67.12h9.74l2.82,3.64H81.51Zm1.39,3.64H71.64l-.86-3.64h8.88Zm8.6-3.64h12L106,70.76H92.7Zm-2.26-2.61L89.53,67h-9.7l-1.1-2.47Zm-9.12,0L79.6,67H70.75l-.59-2.47ZM61.85,70.76h-9l.69-3.64h8.25ZM33.93,67.12H44.19l-1.53,3.64H31.27ZM31,70.76H17.58l4.5-3.64H33.69Zm13.4-3.64h8.89l-.7,3.64H42.9ZM54,64.51h7.69L61.78,67H53.56Zm-8.52,0H53.8L53.33,67H44.48Zm-9.67,0h9.44l-1,2.47H34Zm-10.54,0H35.6L33.79,67H22.25Zm-11.76,0H25L22,67H9.44ZM3.18,70.76l6-3.64H21.8l-4.5,3.64Zm24.45,4.63H11.86l5.55-4.49H30.92Zm13.1,0H27.88l3.29-4.49H42.61Zm11,0H41l1.88-4.49h9.75Zm.23,0,.85-4.49h9L62,75.39ZM62,64.51h8L70.52,67H62Zm0,2.61h8.55l.86,3.64H62.08Zm.18,8.27-.1-4.49h9.36l1.07,4.49Zm10.56,0L71.67,70.9h9.67l2,4.49Zm10.83,0-2-4.49h11L96,75.39Zm27.54,0H96.27L92.8,70.9h13.3Zm11-4.63H106.22l-4.07-3.64h14.7ZM116.66,67H102l-2.76-2.47h13.82Z" style="fill:#bfb8b8;stroke:#c8cdc9;stroke-width:0.11315299999999999px"/></svg>