<?xml version="1.0" encoding="utf-8"?>
<!-- Generator: Adobe Illustrator 24.2.1, SVG Export Plug-In . SVG Version: 6.00 Build 0)  -->
<svg version="1.1" id="Layer_1" xmlns="http://www.w3.org/2000/svg" xmlns:xlink="http://www.w3.org/1999/xlink" x="0px" y="0px"
	 viewBox="0 0 127.5 77.7" style="enable-background:new 0 0 127.5 77.7;" xml:space="preserve">
<style type="text/css">
	.st0{fill:#4497C9;}
	.st1{opacity:0.5;fill:#4E8E43;enable-background:new    ;}
	.st2{fill:#A2DF67;}
	.st3{fill:#3B7134;}
	.st4{fill:#51983B;}
	.st5{fill:#4A8444;}
	.st6{opacity:0.6;fill:#40793A;enable-background:new    ;}
	.st7{opacity:0.3;fill:#3B7134;enable-background:new    ;}
	.st8{fill:#F9C39C;}
	.st9{fill:#FFFFFF;}
	.st10{fill:#143318;}
	.st11{fill:#00953B;}
	.st12{fill:#645D21;}
	.st13{fill:#007934;}
	.st14{fill:#FFD100;}
	.st15{fill:#BBA380;}
	.st16{fill:url(#SVGID_1_);stroke:#72361C;stroke-width:0.4197;stroke-linecap:round;stroke-linejoin:round;}
	.st17{fill:url(#SVGID_2_);stroke:#72361C;stroke-width:0.4197;stroke-linecap:round;stroke-linejoin:round;}
	.st18{fill:url(#SVGID_3_);stroke:#72361C;stroke-width:0.4197;stroke-linecap:round;stroke-linejoin:round;}
	.st19{fill:url(#SVGID_4_);stroke:#72361C;stroke-width:0.4197;stroke-linecap:round;stroke-linejoin:round;}
	.st20{opacity:0.4;fill:#FFC9A1;enable-background:new    ;}
	.st21{fill:url(#SVGID_5_);}
	.st22{fill:url(#SVGID_6_);}
	.st23{opacity:0.4;fill:url(#SVGID_7_);enable-background:new    ;}
	.st24{opacity:0.3;fill:url(#SVGID_8_);enable-background:new    ;}
	.st25{fill:url(#SVGID_9_);}
	.st26{opacity:0.4;fill:url(#SVGID_10_);enable-background:new    ;}
	.st27{fill:url(#SVGID_11_);}
	.st28{opacity:0.4;}
	.st29{fill:url(#SVGID_12_);}
	.st30{fill:url(#SVGID_13_);}
	.st31{opacity:0.3;fill:url(#SVGID_14_);enable-background:new    ;}
	.st32{fill:url(#SVGID_15_);}
	.st33{opacity:0.4;fill:url(#SVGID_16_);enable-background:new    ;}
	.st34{opacity:0.3;fill:url(#SVGID_17_);enable-background:new    ;}
	.st35{fill:url(#SVGID_18_);}
	.st36{opacity:0.4;fill:url(#SVGID_19_);enable-background:new    ;}
	.st37{fill:url(#SVGID_20_);}
	.st38{fill:url(#SVGID_21_);}
	.st39{fill:url(#SVGID_22_);}
	.st40{opacity:0.3;fill:url(#SVGID_23_);enable-background:new    ;}
	.st41{fill:url(#SVGID_24_);}
	.st42{fill:#72361C;}
	.st43{opacity:0.6;}
	.st44{fill:url(#SVGID_25_);}
	.st45{fill:#C8C6C4;}
	.st46{fill:url(#SVGID_26_);}
	.st47{opacity:0.4;fill:#7E7F82;enable-background:new    ;}
	.st48{opacity:0.6;fill:#BFC0C1;enable-background:new    ;}
	.st49{fill:url(#SVGID_27_);}
	.st50{opacity:0.2;fill:#7E7F82;enable-background:new    ;}
	.st51{fill:url(#SVGID_28_);}
	.st52{fill:#81AFDE;}
	.st53{fill:#4A78BC;}
	.st54{fill:#F7F2F2;}
	.st55{fill:#CCCCCC;}
	.st56{fill:#C5E1F4;}
	.st57{fill:#44393D;}
	.st58{fill:#5385F4;}
	.st59{fill:#E7476B;}
	.st60{fill:#34CB62;}
	.st61{fill:#FFCA26;}
	.st62{fill:#F1ED8A;}
	.st63{fill:#4879B4;}
	.st64{fill:#B7825A;}
	.st65{fill:#63413B;}
	.st66{fill:#2D2D2D;}
	.st67{fill:#D28EB2;}
	.st68{fill:#7F5449;}
	.st69{fill:#F1B4D1;}
	.st70{fill:#704843;}
	.st71{fill:#F7F2F2;stroke:#000000;stroke-width:1.000000e-02;stroke-miterlimit:10;}
	.st72{fill:#1C0803;}
	.st73{fill:#230700;}
	.st74{fill:#BC66CC;}
	.st75{fill:#FFECD8;}
	.st76{fill:#290600;}
	.st77{fill:#FCFCFC;}
	.st78{fill:#230601;}
	.st79{fill:#000333;}
	.st80{fill:#0B173C;}
	.st81{opacity:0.4;fill:#000333;enable-background:new    ;}
	.st82{opacity:0.25;fill:#000333;enable-background:new    ;}
	.st83{fill:#FBB040;}
	.st84{fill:#137699;}
	.st85{display:none;}
	.st86{display:inline;}
	.st87{font-family:'PoorRichard-Regular';}
	.st88{font-size:4px;}
	.st89{fill:#0E1A46;}
	.st90{opacity:0.4;fill:#000333;}
	.st91{opacity:0.25;fill:#000333;}
	.st92{fill:#0E6177;}
	.st93{fill:#B1D6E0;}
	.st94{enable-background:new    ;}
</style>
<rect x="0.3" y="0.3" class="st0" width="127.5" height="77.3"/>
<path class="st1" d="M100.9,51.4c-1.3,0.1-2.8,0.3-4.2,0.4h-0.9c-0.7,0.1-1.5,0.1-2.1,0.2c-2.8,0.3-5.6,0.5-8.5,0.8
	s-5.7,0.6-8.7,0.8c-1.1,0.1-2.4,0.2-3.5,0.2c-1,0.1-2,0-2.9-0.3c-0.1,0,0-0.1,0-0.1c0.6-0.2,1-0.5,1.6-0.7L70,53
	c-1.2,0.3-2.5,0.5-3.7,0.4c-1.6,0.1-3.2,0.1-4.6,0.1c-0.5,0-0.9,0-1.3-0.1c-4.9,0.4-10,1.3-15,0.7c-2.5-0.4-5-1.1-7.4-1.9
	c-2.5-0.7-5.1-1.1-7.8-1.1c-0.1,0-0.1,0-0.1-0.1c-2.4-0.2-4.6-0.3-7-0.5c-2.9-0.3-5.8-0.4-8.6-0.4c-2.6,0.1-5.2,0.3-7.6,0.6
	c-0.7,0.1-5.6,0.8-6.6,1.5v25.2l128.1,0.3V46.9C119.1,48.4,101.7,51.3,100.9,51.4z"/>
<path class="st2" d="M122.9,40.7c-3.9,0.6-7.8,1.5-11.6,2.8c-3.4,1.1-6.8,2.5-10.1,3.9c-3.8,1.7-7.7,3-11.8,4.1
	c-4.1,1-8.3,1.4-12.5,1.3c-4.4-0.2-8.8-0.9-13.1-2c-3.2-0.8-9.1-2-13.8-3.6c-17.8-6.4-20.8-20.5-31.8-19.5C15.1,28,12,29.2,9.4,31
	c-3.4,2.4-6.1,5.8-7.7,9.7v28.6h125.5V40C125.8,40.3,124.3,40.4,122.9,40.7z"/>
<path class="st3" d="M123.2,41.5c-4,0.6-7.9,1.5-11.8,2.8c-3.5,1.1-7,2.5-10.3,3.9c-3.9,1.7-7.9,3-12,4.1c-4.2,1-8.5,1.4-12.8,1.3
	c-4.5-0.2-9-0.9-13.3-2c-3.2-0.8-9.3-2-14-3.6c-18.1-6.4-21.2-20.5-32.4-19.5c-3.2,0.4-6.3,1.6-8.9,3.4c-3.5,2.4-6.2,5.8-7.8,9.7
	v28.6h127.7V40.8C126.1,41.1,124.6,41.3,123.2,41.5z"/>
<path class="st3" d="M122,49.1c-4,0.6-7.8,1.5-11.6,2.8c-3.4,1.1-6.9,2.5-10.2,3.9c-3.8,1.7-7.8,3-11.8,4c-4.1,1-8.4,1.4-12.6,1.3
	c-4.4-0.2-8.9-0.9-13.2-2c-4.7-1.1-9.2-2.5-13.8-3.6c-9.3-2.4-18.6-4.8-28-7.1c-4.4-1.1-9.3-2.2-13.9-1.4c-2.3,0.4-4.6,1.1-6.8,2.1
	v28.6h126.3V48.4C124.9,48.7,123.5,48.8,122,49.1z"/>
<path class="st4" d="M93.6,72.2c-0.2-0.5-0.5-0.9-0.8-1.2c-0.4-0.3-0.9-0.5-1.4-0.7c0-0.1,0.5,0,0.8,0c0.4,0,0.8,0.2,1.2,0.3
	c0.2,0.1,0.3,0.2,0.4,0.2s0.2-0.1-0.1-1c-0.3-1.3-0.8-1.9-0.7-2s1.3,0.6,1.7,1.8c0.2,0.7,0.2,1.3,0.3,1.3s0.2-0.4,0.5-0.8
	c0.5-0.8,1.3-1.1,1.4-1c-0.3,0.4-0.6,0.9-0.8,1.3c-0.2,0.4-0.3,0.8-0.3,1.2"/>
<path class="st2" d="M94,72.3c-0.2-0.6-0.5-1.1-1-1.4c-0.4-0.2-0.8-0.4-1.2-0.5c0-0.1,0.4,0,0.7,0c0.3,0,0.5,0.1,0.8,0.2
	c0.5,0.3,0.6,0.7,0.7,0.7s0.1-0.4,0-1.2c0-0.3-0.1-0.7-0.2-1s-0.2-0.5-0.4-0.8c0.4,0.5,0.7,1.1,1,1.7c0.3,0.7,0.4,1.1,0.6,1.1
	s0.2-0.5,0.8-1.1c0.2-0.2,0.4-0.4,0.7-0.5c-0.3,0.3-0.5,0.6-0.7,1s-0.2,0.8-0.2,1.2"/>
<path class="st5" d="M59.7,66.6L56.5,66c-0.5,0-0.9-0.1-1.4-0.2l0,0c0.5-0.2,1-0.2,1.5-0.4c0.9-0.2,1.7-0.5,2.6-0.8
	c0,0,0.2-0.2,0.1-0.2h-1.4c-0.4,0-0.9,0-1.3,0.1c0.6-0.2,1.3-0.3,1.9-0.5c0,0,0.2-0.2,0.1-0.2c-1.4-0.1-2.9,0-4.3,0.2l-3,0.3
	l3.3-0.9c0.9-0.3,1.8-0.6,2.7-0.8c0.6,0,1.2-0.2,1.8-0.4c0,0,0.2-0.2,0.1-0.2c-0.4-0.1-0.8,0-1.2-0.1s-0.7-0.1-1.1-0.1
	c0.8,0,1.7-0.1,2.5-0.3c0,0,0.2-0.2,0.1-0.2c-2.2-0.1-4.4-0.5-6.6-1.1c-1.1-0.3-2.3-0.6-3.4-0.8c-1.2-0.2-2.4-0.2-3.6-0.2
	c-2.4-0.2-4.7-0.6-7-1.3c-2.3-0.6-4.7-1.1-7.1-1.5c-2.4-0.3-4.8-0.9-7.1-1.7c-2.1-0.8-4.2-1.7-6.4-2.4c-1.2-0.3-2.4-0.7-3.5-1
	s-2-0.8-3.1-1.2c-2.2-0.7-4.5-1.2-6.8-1.3c-1.3-0.1-2.6,0-3.9,0H0v28.3h39.4l0.6-0.3c0.3-0.2,0.7-0.4,1.1-0.5c0.5-0.1,1-0.2,1.4-0.5
	l1.8-0.6c0.9-0.5,1.8-0.9,2.8-1.3c0.5-0.2,1-0.4,1.6-0.5c0.3-0.1,0.7-0.2,1-0.3c0,0,0.2-0.1,0.1-0.2c-0.7-0.3-1.5-0.4-2.3-0.4
	c0.4-0.2,1.2-0.3,1.6-0.5c0.6-0.2,1.1-0.4,1.7-0.6c0,0,0.2-0.1,0.1-0.2c-0.1-0.1-0.3-0.1-0.4-0.1c-0.3,0-0.6,0-0.9-0.1
	c-0.5,0-1-0.1-1.5-0.1c0.3-0.1,0.7-0.2,1-0.2c1.3-0.5,2.6-0.8,3.9-1c0.1,0,0.3-0.2,0.2-0.2h-3.9c-0.4,0.1-0.8,0.1-1.2,0
	c0.3-0.1,0.6-0.1,0.9-0.1h1c0.1,0,0.2-0.2,0.2-0.2c-1.2,0-2.3,0.1-3.5,0.1c-0.9,0-1.9,0.1-2.9,0.1l3.3-0.6c1.4-0.2,2.9-0.3,4.3-0.5
	c2.7-0.4,5.4-1,8.1-1.8C59.7,66.7,59.9,66.6,59.7,66.6z"/>
<path class="st6" d="M119.8,61.5c1.7-0.2,3.4-0.4,5.1-0.4c0.1,0,0.1,0,0.1,0.1c-1.1,0.3-2.2,0.6-3.3,0.7c0.8,0,1.4-0.1,2.2-0.1
	c0.1,0,0.1,0,0.1,0.1c-3.9,1-7.8,1.7-11.8,2.1l-6.4,0.6c-2,0.2-4.1,0.3-6.1,0.2c-0.1,0-0.1-0.1,0-0.1c0.7-0.1,1.3-0.2,1.9-0.3
	c-2,0-4,0.1-6,0.3c-0.1,0-0.2-0.1-0.1-0.1c0.4-0.1,0.9-0.3,1.3-0.4c-1.2,0.3-2.4,0.4-3.7,0.5c-0.1,0-0.1,0-0.1-0.1l1-0.3
	c-0.3,0.1-0.7,0.1-1,0.1c-0.1,0-0.2-0.1-0.1-0.1c4.8-1.2,9.3-2.7,13.9-4.1c-1.9,0.5-3.8,1.1-5.7,1.6c-3.9,1.2-7.9,2.2-11.9,2.9
	c-4.2,0.7-8.5,1-12.7,0.9c-4.5-0.2-8.9-0.6-13.3-1.4c-1.2-0.2-2.6-0.5-3.8-0.7c-2.2,0-4.3,0-6.6-0.2c-3-0.2-5.9-0.3-8.9-0.4
	c-5.4,0-10.8-0.7-16-1.9c0.3,0.2,0.7,0.4,1.1,0.5c0.1,0,0,0.1-0.1,0.1c-1.1-0.2-2.3-0.5-3.5-0.8c0.4,0.3,0.9,0.5,1.3,0.6
	c0.2,0.1,0.5,0.1,0.7,0.2s0,0.1-0.1,0.1l0,0c-0.2,0-0.4-0.1-0.6-0.2c-3.7-1.1-7.4-2.1-11.1-2.9c0.2,0.1,0.3,0.1,0.5,0.2
	c0.2,0.1,0,0.1-0.1,0.1c-0.8-0.1-1.6-0.3-2.3-0.4c0.7,0.2,1.2,0.3,1.9,0.5c0.1,0,0,0.1-0.1,0.1c-1.6-0.3-3.1-0.4-4.7-0.7
	S7.6,57.7,7,56.9c-0.4-0.4-0.4-1-0.1-1.4c0,0,0,0,0.1-0.1c0,0,0.1-0.1,0.2-0.1H7.1c-2.4,0.3-4.7,0.9-7,1.6v20.3h127.2v-18
	C124.7,60,121.9,60.4,119.8,61.5z"/>
<path class="st7" d="M24,62.5c1.5,0.4,2.8,1,4.2,1.4c1.4,0.4,2.8,0.9,4.2,1.4c1.3,0.5,2.6,0.9,4,1.2c-0.3-0.2-0.7-0.3-1-0.5
	c-0.1-0.1,0-0.2,0.1-0.2c1.1,0.1,2.2,0.2,3.3,0.5c0.9,0.2,1.7,0.6,2.6,0.8c-0.2-0.2-0.3-0.4-0.4-0.6c0-0.1,0-0.1,0.1-0.1
	c0.8,0.3,1.6,0.6,2.4,0.8c0.6,0.1,1.1,0.1,1.7,0.2c-0.1,0-0.2-0.1-0.3-0.1s0-0.2,0.1-0.2c2.3,0.3,4.5,0.8,6.7,1.2
	c-2.4-0.8-5.1-1.2-7.2-2.6c-0.1-0.1,0-0.2,0.1-0.2c1.4,0.3,2.8,0.5,4.3,0.7c-0.7-0.2-1.3-0.4-2-0.7c0,0-0.1-0.1,0-0.1l0.1-0.1
	c1.1,0.1,2.3,0.3,3.4,0.4c-1.8-0.9-3.7-1.6-5.7-2.2C43.2,63.2,41.6,63,40,63c-0.1,0-0.1,0-0.1-0.1c-2.1-0.2-4.1-0.3-6.2-0.5
	C31.1,62.1,28.6,62,26,62c-0.9,0-1.8,0.1-2.8,0.1C23.4,62.3,23.7,62.4,24,62.5z"/>
<ellipse class="st8" cx="82.3" cy="64.4" rx="8.8" ry="2.2"/>
<ellipse class="st8" cx="88.8" cy="70.4" rx="10.4" ry="2.2"/>
<ellipse class="st8" cx="100.4" cy="75.3" rx="13.2" ry="2.2"/>
<path class="st9" d="M24.5,8.9c-0.3,0.7-0.9,1.2-1.6,1.4c0,0.5-0.3,1-0.8,1.2c-0.8,0.3-1.7,0.4-2.6,0.3c-0.5,1.1-1.6,1.8-2.8,1.9
	c-0.8,0.1-1.6-0.1-2.4-0.4c-0.6-0.3-0.4-0.7-1-0.9c-0.8-0.4-1.3,0-2.1-0.4s-0.5-0.9-1.2-1c-0.3-0.1-0.5,0.1-1.1,0
	c-0.7-0.1-1.4-0.3-2-0.7C6.1,9.9,5.8,8.9,6.2,8.1V8C7,7.1,9.3,6.7,11.4,7.5c0.3-0.5,0.8-0.9,1.4-0.9c0.9-0.2,1.9,0.1,2.6,0.7
	C16.1,6.7,17,6.5,18,6.6c0.7,0.1,1.4,0.4,1.9,0.9C20.7,7,21.7,6.8,22.7,7C23.9,7.2,24.7,8,24.5,8.9z"/>
<path class="st9" d="M115,10c0.2-1,1-1.9,2-2.2c0-0.8,0.3-1.5,0.9-2c1-0.6,2.1-0.7,3.2-0.5c0.5-1.6,1.8-2.8,3.5-3.1
	c1-0.1,2.1,0.1,3,0.6c0.8,0.5,0.6,1,1.3,1.4c1.1,0.5,1.7-0.1,2.7,0.4s0.7,1.3,1.6,1.5c0.4,0.2,0.6-0.1,1.4,0c1,0.1,1.9,0.5,2.6,1.1
	c1,0.9,1.4,2.3,0.9,3.5c-0.9,1.4-3.8,2.2-6.4,1c-0.3,0.8-0.9,1.3-1.7,1.5c-1.2,0.3-2.4-0.1-3.3-1c-0.9,0.9-2.2,1.3-3.4,1.2
	c-0.9-0.1-1.8-0.6-2.4-1.3c-0.9,0.9-2.3,1.3-3.5,1C115.9,12.7,114.9,11.4,115,10z"/>
<path class="st9" d="M50.8,10.8C51,10.3,51.5,10,52,10c0-0.2,0.2-0.5,0.5-0.7c0.6-0.2,1.2-0.2,1.8-0.2c0.5-0.6,1.2-1,2-1
	c0.6,0,1.1,0,1.6,0.2c0.4,0.2,0.3,0.4,0.7,0.5c0.6,0.2,1,0,1.5,0.1s0.4,0.4,0.9,0.5c0.3,0,0.5,0,0.8,0c0.5,0,1,0.1,1.5,0.4
	c0.6,0.3,0.7,0.8,0.4,1.2c-1.1,0.6-2.4,0.7-3.7,0.3c-0.2,0.3-0.6,0.5-1,0.5c-0.6,0.1-1.3,0-1.8-0.3c-0.6,0.3-1.3,0.5-2,0.4
	c-0.5,0-0.9-0.2-1.3-0.5c-0.6,0.3-1.3,0.4-2,0.3S50.7,11.2,50.8,10.8z"/>
<path class="st9" d="M59,12.2c0.2-0.4,0.7-0.7,1.2-0.7c0-0.2,0.2-0.5,0.5-0.7c0.6-0.2,1.2-0.2,1.8-0.2c0.5-0.6,1.2-1,2-1
	c0.6,0,1.2,0,1.7,0.2c0.4,0.2,0.3,0.4,0.7,0.5c0.6,0.2,1,0,1.5,0.1s0.4,0.4,0.9,0.5c0.3,0,0.5,0,0.8,0c0.5,0,1,0.1,1.5,0.4
	c0.6,0.3,0.8,0.8,0.4,1.2c-1.1,0.6-2.4,0.7-3.7,0.3c-0.2,0.3-0.6,0.5-1,0.5c-0.6,0.1-1.3,0-1.8-0.3c-0.6,0.3-1.3,0.5-2,0.4
	c-0.5,0-0.9-0.2-1.3-0.5c-0.6,0.3-1.3,0.4-2,0.3C59.5,13,58.9,12.6,59,12.2z"/>
<path class="st9" d="M103.5,12.5c0.1-0.3,0.5-0.6,1.2-0.7c0-0.2,0.2-0.5,0.5-0.7c0.6-0.2,1.2-0.2,1.8-0.1c0.5-0.6,1.2-1,2-1
	c0.6,0,1.2,0,1.7,0.2c0.4,0.2,0.3,0.4,0.7,0.5c0.6,0.2,1,0,1.5,0.1s0.4,0.4,0.9,0.5c0.3,0,0.5,0,0.8,0c0.5,0,1,0.1,1.5,0.4
	c0.6,0.3,0.7,0.8,0.4,1.2c-1.1,0.6-2.4,0.7-3.7,0.3c-0.2,0.3-0.6,0.5-1,0.5c-0.6,0.1-1.3,0-1.8-0.3c-0.6,0.3-1.3,0.5-2,0.4
	c-0.5,0-0.9-0.2-1.3-0.5c-0.6,0.3-1.3,0.4-2,0.3C103.9,13.4,103.3,13,103.5,12.5z"/>
<path class="st10" d="M126.6,59.9c-0.2,0-0.4,0-0.6,0.1c0-0.1,0.2-0.2,0.1-0.2s-0.6,0-0.8,0c0.1,0,0.5,0,0.6,0
	c0.3-0.2-0.5-0.2-0.7-0.2c0.4-0.1-0.2-0.2-0.5-0.1c0.1,0,0.5-0.2,0.4-0.3c-0.4-0.1-0.8,0-1.1,0.1c0.1,0,0.1-0.1,0.2-0.2
	c0.3,0,0.2-0.2-0.1-0.2s-0.3,0.1-0.5,0.1c0.2-0.2,0.1-0.1-0.1-0.2c-0.1,0-0.2,0-0.3,0l0,0c-0.3,0-0.1,0-0.3,0c0.1,0,0.1-0.1,0.2-0.1
	c0.4,0-0.1-0.2-0.3-0.2c0.2,0,0.8,0,0.7-0.2s-0.8,0-1,0c0.6-0.1,0.5-0.3-0.1-0.2c0.2-0.4-0.9,0-1,0c0.5-0.3-0.2-0.2-0.5,0h-0.1
	c-0.1,0-0.2,0-0.1-0.1s0.6,0,0.7-0.1c0.4-0.3-1.1,0-1.1,0s1-0.2,0.9-0.3c-0.3-0.3-1.3,0.1-1.4,0.3c0-0.2,0.4-0.2,0.4-0.4
	s-0.3-0.2-0.5-0.2c0.3-0.4-0.5-0.1-0.6,0.2c-0.3-0.1-0.6-0.2-0.9-0.2c-0.4,0.1,0.3,0.3,0.4,0.3h-0.3c0-0.2-0.6-0.1-0.7-0.1
	c0.2-0.3-0.5-0.2-0.7-0.1c0.2-0.1,0.7-0.1,0.6-0.3s-0.9,0-1.1,0.2c0.1-0.2,0.2-0.3-0.3-0.2c-0.1-0.1-0.5-0.3-0.7-0.2
	s0.2,0.2,0.3,0.3c-0.3-0.1-0.7-0.2-1-0.1c-0.2,0.1,0.4,0.2,0.6,0.2h-1.1c0.5-0.1-0.1-0.2-0.5-0.1c0.1,0,0.3-0.2,0.2-0.2
	c-0.2,0-0.5,0-0.7,0c0.1,0,0.3-0.2-0.1-0.2s-0.3,0.2-0.5,0.3c-0.2-0.3-0.5-0.1-0.3,0.1c-0.1,0-0.2-0.2-0.3-0.2s-0.4,0.2-0.3,0.2
	c-0.1,0-1,0.3-0.5,0.3c-0.1,0.4-0.1,0.9,0.1,1.3c0.1,0.5,0.1,1.1,0.2,1.6l0.3,1.6c0,0.2,0.1,0.4,0.5,0.3c0.1,0,0.4-0.2,0.4-0.3
	c0.2,0.1,0.6-0.1,0.7-0.1s-0.4,0.2-0.2,0.3s0.5-0.1,0.6-0.2c0.1,0.2,0.4,0,0.5,0c0.3,0.3,0.5,0,0.9,0c-0.1,0.2-0.4,0.3,0.2,0.3
	c0.5,0,1-0.1,1.4-0.3c0,0.2,0.2,0.3,0.3,0.1c0.2,0.1,0.5,0.1,0.7,0s0.3,0,0.6,0c0.3,0,0.6,0,0.9-0.1s0.4,0,0.8-0.1
	c-0.3,0.1-0.4,0.4,0.1,0.3s0.8,0,1.1-0.3c0.1,0,0.7,0.2,0.4,0c0.2,0,0.5,0,0.7,0c0.2-0.1,0.3,0,0.6,0.1c0.6,0,0.8-0.1,0.2-0.2
	c0.1,0,0.1,0,0.1-0.1c0.3,0,0.6,0,0.9,0c0.3,0.1,1,0,0.5-0.1c0.2,0,0.9,0,0.9-0.1s-0.4,0-0.5-0.1c0.3,0,0.7,0,1,0
	c0.2,0,0.6-0.2,0.2-0.2c0,0,0.9-0.4,0.3-0.3c-0.2,0-0.4,0-0.6,0s0,0-0.1-0.1c0.2,0,0.5,0.1,0.6,0c0.3,0,0.6-0.2,0.1-0.2
	c-0.2-0.2,0.4-0.4,0-0.4L126.6,59.9z M123,58.9c0,0,0.1,0,0.2-0.1C123.8,58.4,122.9,59.1,123,58.9L123,58.9z M112.8,56.9h0.2
	c-0.2,0.1-0.1,0.1-0.4,0.2c0.1-0.1,0.1-0.1,0.2-0.1L112.8,56.9z M117.7,61.6L117.7,61.6c0.2,0,0.5,0,0.7-0.1
	C118.2,61.6,117.9,61.7,117.7,61.6L117.7,61.6z"/>
<path class="st10" d="M43,55.4c-0.1,0-0.2,0-0.3,0s-0.2,0-0.3,0.1c0-0.1,0.2-0.1,0.1-0.2c-0.3,0-0.5,0-0.8,0h0.6
	c0.3-0.1-0.5-0.1-0.7-0.1c0.4-0.1-0.2-0.2-0.5-0.1c0.1,0,0.5-0.1,0.4-0.2c-0.4,0-0.8,0-1.1,0.1c0.1,0,0.1-0.1,0.2-0.1
	c0.3,0,0.2-0.2-0.1-0.1s-0.3,0.1-0.5,0.1c0.2-0.1,0.1-0.1-0.1-0.2c-0.1,0-0.2,0-0.3,0h-0.3c0.1,0,0.1-0.1,0.2-0.1
	c0.4,0-0.1-0.1-0.3-0.2c0.2,0,0.8,0,0.7-0.1s-0.8,0-1,0c0.6-0.1,0.5-0.2-0.1-0.1c0.2-0.3-0.9,0-1,0c0.5-0.2-0.2-0.2-0.5,0h-0.1
	c-0.1,0-0.2,0-0.1-0.1c0.2,0,0.5-0.1,0.7-0.1c0.4-0.2-1.1,0-1.1,0s1-0.1,0.9-0.2c-0.5-0.1-1,0-1.5,0.2c0-0.1,0.4-0.2,0.4-0.3
	s-0.3-0.2-0.5-0.1c0.3-0.3-0.5-0.1-0.6,0.1c-0.3-0.1-0.6-0.1-0.9-0.1c-0.4,0.1,0.3,0.2,0.4,0.2c-0.1,0-0.2,0-0.3,0
	c0-0.1-0.6-0.1-0.7-0.1c0.2-0.2-0.5-0.1-0.7-0.1c0.2-0.1,0.7-0.1,0.6-0.2s-0.9,0-1.1,0.1c0.1-0.1,0.2-0.2-0.3-0.1
	c-0.2-0.1-0.5-0.2-0.7-0.2c-0.2,0.1,0.2,0.2,0.3,0.2c-0.3-0.1-0.7-0.1-1-0.1c-0.2,0.1,0.4,0.2,0.6,0.2h-1.1c0.5-0.1-0.1-0.2-0.5-0.1
	c0.1,0,0.3-0.1,0.2-0.1s-0.5,0-0.7,0c0.1,0,0.3-0.2-0.1-0.1s-0.3,0.2-0.5,0.2c-0.2-0.2-0.5-0.1-0.3,0.1c-0.1,0-0.2-0.1-0.3-0.1
	s-0.4,0.1-0.3,0.2c-0.1,0-1,0.2-0.5,0.2c0.2,0.1,0.3,0.3,0.2,0.5l0,0c0,0.1-0.1,0.1-0.2,0.2c-0.2,0.1-0.5,0.1-0.7,0L26,54.6
	c-0.7,0.2-1.4,0.4-2,0.6l3.9,1.8c0,0.1,0.1,0.3,0.5,0.2c0.1,0,0.4-0.1,0.4-0.2c0.2,0,0.5,0,0.7-0.1c0.1,0.1-0.4,0.1-0.2,0.2
	c0.2,0,0.4,0,0.6-0.1c0.1,0.1,0.4,0,0.5,0c0.3,0.2,0.5,0,0.9,0c-0.1,0.1-0.4,0.2,0.2,0.2c0.5,0,1-0.1,1.4-0.2c0,0.1,0.1,0.1,0.2,0.1
	c0,0,0.1,0,0.1-0.1c0.2,0,0.5,0,0.7,0s0.4,0,0.6,0c0.3,0,0.6,0,0.9-0.1c0.3-0.1,0.4,0,0.8-0.1c-0.3,0.1-0.4,0.3,0.1,0.2
	s0.8,0,1.1-0.2c0.1,0,0.7,0.1,0.4,0c0.2,0,0.5,0,0.7,0c0.2-0.1,0.3,0,0.6,0.1c0.6,0,0.8-0.1,0.2-0.2c0.1,0,0.1,0,0.1-0.1h0.9
	c0.3,0,1,0,0.5-0.1c0.2,0,0.9,0,0.9-0.1s-0.4,0-0.5-0.1c0.3,0,0.7,0,1,0c0.2,0,0.6-0.1,0.2-0.1c0,0,0.9-0.3,0.3-0.2h-0.6
	c-0.2,0,0,0-0.1-0.1c0.2,0,0.5,0.1,0.6,0c0.1,0,0.3,0,0.4-0.1C43.4,55.7,43.3,55.5,43,55.4z M39.4,54.7c0.1,0,0.1,0,0.2-0.1
	C40.2,54.4,39.3,54.8,39.4,54.7L39.4,54.7z M29.3,53.4h0.2c-0.2,0.1-0.1,0.1-0.4,0.1C29.1,53.4,29.2,53.4,29.3,53.4z M34.1,56.7
	L34.1,56.7c0.2,0,0.5,0,0.7-0.1C34.6,56.7,34.4,56.7,34.1,56.7z"/>
<path class="st11" d="M55.9,54.3l-0.4,0.2l-0.2-0.2h-0.1l0.1,0.2L55,54.8l-0.1-0.4l-0.3,0.2l0.1,0.2l0.2,0.2l-0.1,0.2h-0.1l-0.2,0.1
	l0.1,0.3l-0.4,0.2l0.1,0.4l0.1,0.3l-0.1,0.2h-0.1L54,56.3c0,0-0.2-0.1-0.2,0.1v0.2l-0.1,0.1l-0.2-0.2c0,0-0.3,0.1-0.3,0.2v0.1h-0.3
	v-0.4l-0.4,0.4v0.3h-0.4l-0.2-0.5c0,0-0.4,0-0.4,0.1s0.2,0.3,0.3,0.5h-0.3l-0.3-0.3v-0.3L51,57.1l-0.3-0.2v0.5
	c-0.1,0.1-0.2,0.2-0.3,0.2v-0.5l-0.3,0.5v0.3L49.8,58l-0.1-0.2h-0.4l0.1,0.2l-0.3,0.2L49,57.8l-0.3,0.1l0.1,0.2l-0.1,0.2L48.3,58
	l-0.5,0.1l0.2,0.3l-0.1,0.2l-0.2,0.3v0.3h-0.2l-0.1-0.4c0,0-0.3,0-0.2,0.1s0.1,0.2,0.1,0.3L47,59.6V59l-0.3-0.1v0.2l-0.3,0.3
	l-0.2-0.1v-0.5l-0.4,0.1v0.4l-0.1,0.2h-0.3v-0.6l-0.2-0.1L45,59.1l-0.4-0.3v-0.4l-0.3,0.4L44,58.9v0.3l-0.3,0.3v-0.4h-0.3v0.4
	L43,59.3l-0.1-0.4l-0.2,0.3l-0.3-0.3v-0.3l-0.1-0.4l-0.2-0.1v0.4l-0.3,0.1l-0.2-0.4c-0.1-0.1-0.1-0.1-0.2,0l0,0
	c-0.1,0.1-0.3-0.2-0.3-0.2v-0.4l-0.4,0.1v0.2L40.2,58L40,57.7h-0.3l-0.2-0.2v-0.4l-0.6,0.1l-0.1-0.1L38.7,57h-0.2L38,57.1v-0.7
	l-0.1,0.1l-0.2,0.1v0.2h-0.2l-0.1-0.2h-0.5V56l0.2-0.4h-0.2l-0.3-0.4l-0.2,0.1L36.2,55l-0.3-0.2v-0.2l0.2-0.3l0.1-0.4v-0.2l0.4-0.3
	l0.1-0.2l-0.3-0.3l0.1-0.2h0.3l-0.1-0.2l-0.1-0.2l0.3-0.4l0.1,0.2c0.1,0.1,0.1,0.1,0.2,0.1h0.1l0.1-0.3h0.4l-0.1-0.4l-0.1,0.1
	l-0.1-0.1l0.1-0.4l0.4-0.3l-0.2-0.3h0.5l-0.4-0.4l0.1-0.3l0.2-0.6v-0.4l0.2-0.2l0.2-0.1l0.3-0.4h0.3l0.1,0.2h0.1v-0.2l0.3-0.3
	l0.1,0.2H40v-0.2l-0.1-0.2c0,0-0.1-0.4,0-0.3h0.8l0.1-0.3c0,0,0.2-0.3,0.3-0.2l0.1,0.1l0.1,0.2l0.2-0.2l0.1-0.3h0.5l0.1-0.4h0.4
	l0.3,0.2L43,46h0.4v0.4l0.2-0.1l0.1-0.3h0.2l0.1,0.2v0.5h0.7l0.1,0.4L45,47v-0.3l0.3-0.2l-0.1-0.3l0.2-0.2l0.3,0.2L46,46v-0.3
	l0.4,0.2l0.1,0.4h0.2l0.1-0.4h0.5v0.4h0.2c0.1,0,0.2,0.1,0.2,0.2l0.1,0.1v0.2L48,47c0.1,0,0.1-0.1,0.2,0s0.3-0.4,0.3-0.4l0.3,0.1
	l0.1,0.3l-0.2,0.2l0.1,0.2l0.3-0.2c0,0,0.3,0,0.4,0.1s0.1,0.2,0.2,0.3L49.6,48h0.3l0.5-0.1l0.4-0.2c0,0,0.3,0.1,0.3,0.2l0.1,0.2h0.2
	c0,0,0.3,0.1,0.3,0.3v0.5c0.1-0.1,0.2-0.1,0.2,0l0,0c0.1,0.1,0.2-0.3,0.3,0.1l0.1,0.4l0.3-0.1l0.1-0.2l0.2,0.1l0.2,0.5l-0.3,0.1v0.3
	c0,0.1-0.3,0.4-0.3,0.4l0.2,0.2H53v0.4l0.3,0.3l0.2-0.2v0.5l0.2,0.1l0.1-0.2l0.1,0.3l-0.2,0.3H54v0.3l0.3-0.5l0.2,0.5h0.2v0.3h0.2
	v0.5l0.3,0.2v0.3H55l0.1,0.2l0,0L55.9,54.3z"/>
<polygon class="st12" points="119.2,59.1 118.8,53.3 118.1,53.3 117.9,59.1 "/>
<path class="st11" d="M127.6,49.7l-0.4,0.2l-0.2-0.2h-0.1l0.1,0.2l-0.3,0.3l-0.1-0.4l-0.3,0.2l0.1,0.2l0.2,0.2l-0.1,0.2h-0.1
	l-0.2,0.1l0.1,0.3l-0.4,0.2l0.1,0.4l0.1,0.3l-0.1,0.2h-0.1l-0.2-0.4c0,0-0.2-0.1-0.2,0.1V52l-0.1,0.1l-0.2-0.2c0,0-0.3,0.1-0.3,0.2
	v0.1h-0.3v-0.4l-0.4,0.4v0.3h-0.4l-0.2-0.5c0,0-0.4,0-0.4,0.1s0.2,0.3,0.3,0.5h-0.3l-0.3-0.3V52l-0.2,0.5l-0.3-0.2v0.5
	c-0.1,0.1-0.2,0.2-0.3,0.2v-0.5l-0.3,0.5v0.3l-0.3,0.1l-0.1-0.2H121l0.1,0.2l-0.3,0.2l-0.1-0.4l-0.3,0.1l0.1,0.2l-0.1,0.2l-0.4-0.3
	l-0.5,0.1l0.2,0.3l-0.1,0.2l-0.2,0.3v0.3h-0.2l-0.1-0.4c0,0-0.3,0-0.2,0.1c0.1,0.1,0.1,0.2,0.1,0.3l-0.3,0.4v-0.6l-0.3-0.1v0.2
	l-0.3,0.3l-0.2-0.1v-0.5l-0.4,0.1v0.4l-0.1,0.2h-0.3v-0.6l-0.2-0.1l-0.2,0.3l-0.4-0.3v-0.4l-0.3,0.4l-0.3,0.1v0.3l-0.3,0.3v-0.4
	h-0.3v0.4l-0.4-0.2l-0.1-0.4l-0.2,0.3l-0.3-0.3V54l-0.1-0.4l-0.2-0.1v0.4l-0.3,0.1l-0.2-0.4c-0.1-0.1-0.1-0.1-0.2,0l0,0
	c-0.1,0.1-0.3-0.2-0.3-0.2V53l-0.4,0.1v0.2l-0.5,0.1l-0.2-0.3h-0.3l-0.2-0.2v-0.4l-0.6,0.1l-0.1-0.1l-0.1-0.1h-0.2l-0.5,0.1v-0.7
	l-0.1,0.1l-0.2,0.1v0.2h-0.2l-0.1-0.2h-0.5v-0.6l0.2-0.4h-0.2l-0.3-0.4l-0.2,0.1l-0.2-0.3l-0.3-0.2V50l0.2-0.3l0.1-0.4v-0.2l0.4-0.3
	l0.1-0.2l-0.3-0.3l0.1-0.2h0.3l-0.1-0.2l-0.1-0.2l0.3-0.4l0.1,0.2c0.1,0.1,0.1,0.1,0.2,0.1h0.1l0.1-0.3h0.4l-0.1-0.4l-0.1,0.1
	l-0.1-0.1l0.1-0.4l0.4-0.3l-0.2-0.3h0.5l-0.4-0.4l0.1-0.3l0.2-0.6v-0.4l0.2-0.2l0.2-0.1l0.3-0.4h0.3l0.1,0.2h0.1v-0.2l0.3-0.3
	l0.1,0.2h0.2v-0.2l-0.1-0.2c0,0-0.1-0.4,0-0.3h0.8l0.1-0.3c0,0,0.2-0.3,0.3-0.2l0.1,0.1l0.1,0.2l0.2-0.2l0.1-0.3h0.5l0.1-0.4h0.4
	l0.3,0.2l0.1-0.4h0.4v0.4l0.2-0.1l0.1-0.3h0.2l0.1,0.2v0.5h0.7l0.1,0.4l0.2-0.1v-0.3l0.3-0.2l-0.1-0.3l0.2-0.2l0.3,0.2l0.3-0.2v-0.3
	l0.4,0.2l0.1,0.4h0.2l0.1-0.4h0.5v0.4h0.2c0.1,0,0.2,0.1,0.2,0.2l0.1,0.1v0.2l0.2,0.2c0.1,0,0.1-0.1,0.2,0s0.3-0.4,0.3-0.4l0.3,0.1
	l0.1,0.3l-0.2,0.2l0.1,0.2l0.3-0.2c0,0,0.3,0,0.4,0.1s0.1,0.2,0.2,0.3l-0.1,0.4h0.3l0.5-0.1l0.4-0.2c0,0,0.3,0.1,0.3,0.2l0.1,0.2
	h0.2c0,0,0.3,0.1,0.3,0.3v0.5c0.1-0.1,0.2-0.1,0.2,0l0,0c0.1,0.1,0.2-0.3,0.3,0.1l0.1,0.4l0.3-0.1l0.1-0.2l0.2,0.1l0.2,0.5l-0.3,0.1
	v0.3c0,0.1-0.3,0.4-0.3,0.4l0.2,0.2h0.3v0.4l0.3,0.3l0.2-0.2v0.5l0.2,0.1l0.1-0.2l0.1,0.3l-0.2,0.3h0.3v0.3l0.3-0.5l0.2,0.5h0.2v0.3
	h0.2v0.5l0.3,0.2v0.3h-0.2l0.1,0.2l0,0L127.6,49.7z"/>
<polygon class="st12" points="35.4,54.7 35,48.9 34.3,48.9 34.1,54.7 "/>
<path class="st11" d="M43.8,45.3l-0.4,0.2l-0.2-0.2h-0.1l0.1,0.2l-0.3,0.3l-0.1-0.4l-0.3,0.2l0.1,0.2l0.2,0.2l-0.1,0.2h-0.1
	l-0.2,0.1l0.1,0.3l-0.4,0.2l0.1,0.4l0.1,0.3l-0.1,0.2h-0.1l-0.2-0.4c0,0-0.2-0.1-0.2,0.1v0.2l-0.1,0.1l-0.2-0.2c0,0-0.3,0.1-0.3,0.2
	v0.1h-0.3v-0.4l-0.4,0.4v0.3H40l-0.2-0.5c0,0-0.4,0-0.4,0.1s0.2,0.3,0.3,0.5h-0.3l-0.3-0.3v-0.3l-0.2,0.5l-0.3-0.2v0.5
	c-0.1,0.1-0.2,0.2-0.3,0.2v-0.5L38,48.6v0.3L37.7,49l-0.1-0.2h-0.4l0.1,0.2L37,49.2l-0.1-0.4l-0.3,0.1l0.1,0.2l-0.1,0.2L36.2,49
	l-0.5,0.1l0.2,0.3l-0.1,0.2l-0.2,0.3v0.3h-0.2l-0.1-0.4c0,0-0.3,0-0.2,0.1s0.1,0.2,0.1,0.3l-0.3,0.4V50l-0.3-0.1v0.2l-0.3,0.3
	l-0.2-0.1v-0.5l-0.4,0.1v0.4l-0.1,0.2h-0.3v-0.6l-0.2-0.1l-0.2,0.3l-0.4-0.3v-0.4l-0.3,0.4l-0.3,0.1v0.3l-0.3,0.3v-0.4h-0.3v0.4
	l-0.4-0.2l-0.1-0.4l-0.2,0.3l-0.3-0.3v-0.3l-0.1-0.4L30,49.1v0.4l-0.3,0.1l-0.2-0.4c-0.1-0.1-0.1-0.1-0.2,0l0,0
	C29.2,49.3,29,49,29,49v-0.4l-0.4,0.1v0.2L28.1,49l-0.2-0.3h-0.3l-0.2-0.2v-0.4l-0.6,0.1l-0.1-0.1L26.6,48h-0.2l-0.5,0.1v-0.7
	l-0.1,0.1l-0.2,0.1v0.2h-0.2l-0.1-0.2h-0.5V47l0.2-0.4h-0.2l-0.3-0.4l-0.2,0.1L24.1,46l-0.3-0.2v-0.2l0.2-0.3l0.1-0.4v-0.2l0.4-0.3
	l0.1-0.2l-0.3-0.3l0.1-0.2h0.3l-0.1-0.2l-0.1-0.2l0.3-0.4l0.1,0.2c0.1,0.1,0.1,0.1,0.2,0.1h0.1l0.1-0.3h0.4l-0.1-0.4l-0.1,0.1
	l-0.1-0.1l0.1-0.4l0.4-0.3l-0.2-0.3h0.5l-0.4-0.4l0.1-0.3l0.2-0.6v-0.4l0.2-0.2l0.2-0.1l0.3-0.4h0.3l0.1,0.2h0.1v-0.2l0.3-0.3
	l0.1,0.2h0.2v-0.2l-0.1-0.2c0,0-0.1-0.4,0-0.3h0.8l0.1-0.3c0,0,0.2-0.3,0.3-0.2l0.1,0.1l0.1,0.2l0.2-0.2l0.1-0.3H30l0.1-0.4h0.4
	l0.3,0.2l0.1-0.4h0.4v0.4l0.2-0.1l0.1-0.3h0.2l0.1,0.2v0.5h0.7l0.1,0.4l0.2-0.1v-0.3l0.3-0.2l-0.1-0.3l0.2-0.2l0.3,0.2l0.3-0.2v-0.3
	l0.4,0.2l0.1,0.4h0.2l0.1-0.4h0.5v0.4h0.2c0.1,0,0.2,0.1,0.2,0.2l0.1,0.1v0.2l0.2,0.2c0.1,0,0.1-0.1,0.2,0s0.3-0.4,0.3-0.4l0.3,0.1
	l0.1,0.3l-0.2,0.2l0.1,0.2l0.3-0.2c0,0,0.3,0,0.4,0.1s0.1,0.2,0.2,0.3L37.5,39h0.3l0.5-0.1l0.4-0.2c0,0,0.3,0.1,0.3,0.2l0.1,0.2h0.2
	c0,0,0.3,0.1,0.3,0.3v0.5c0.1-0.1,0.2-0.1,0.2,0l0,0c0.1,0.1,0.2-0.3,0.3,0.1l0.1,0.4l0.3-0.1l0.1-0.2l0.2,0.1l0.2,0.5l-0.3,0.1v0.3
	c0,0.1-0.3,0.4-0.3,0.4l0.2,0.2h0.3v0.4l0.3,0.3l0.2-0.2v0.5l0.2,0.1l0.1-0.2l0.1,0.3l-0.2,0.3h0.3v0.3l0.3-0.5l0.2,0.5h0.2v0.3h0.2
	v0.5l0.3,0.2v0.3h-0.2L43,45l0,0L43.8,45.3z"/>
<path class="st13" d="M43.8,45.3l-0.4,0.2l-0.2-0.2h-0.1l0.1,0.2l-0.3,0.3l-0.1-0.4l-0.3,0.2l0.1,0.2l0.2,0.2l-0.1,0.2h-0.1
	l-0.2,0.1l0.1,0.3l-0.4,0.2l0.1,0.4l0.1,0.3l-0.1,0.2h-0.1l-0.2-0.4c0,0-0.2-0.1-0.2,0.1v0.2l-0.1,0.1l-0.2-0.2c0,0-0.3,0.1-0.3,0.2
	v0.1h-0.3v-0.4l-0.4,0.4v0.3H40l-0.2-0.5c0,0-0.4,0-0.4,0.1s0.2,0.3,0.3,0.5h-0.3l-0.3-0.3v-0.3l-0.2,0.5l-0.3-0.2v0.5
	c-0.1,0.1-0.2,0.2-0.3,0.2v-0.5L38,48.6l0,0v0.3L37.7,49l-0.1-0.2h-0.4l0.1,0.2L37,49.2l-0.1-0.4l-0.3,0.1l0.1,0.2l-0.1,0.2L36.2,49
	l-0.5,0.1l0.2,0.3l-0.1,0.2l-0.2,0.3v0.3h-0.2l-0.1-0.4c0,0-0.3,0-0.2,0.1s0.1,0.2,0.1,0.3l-0.3,0.4V50l-0.3-0.1v0.2l-0.3,0.3
	l-0.2-0.1v-0.5l-0.4,0.1v0.4l-0.1,0.2h-0.3v-0.6l-0.2-0.1l-0.2,0.3l-0.4-0.3v-0.4l-0.3,0.4l-0.3,0.1v0.3l-0.3,0.3v-0.4h-0.3v0.4
	l-0.4-0.2l-0.1-0.4l-0.2,0.3l-0.3-0.3v-0.4l-0.1-0.3L30,49.1v0.4l-0.3,0.1l-0.2-0.4c-0.1-0.1-0.1-0.1-0.2,0l0,0
	C29.2,49.3,29,49,29,49v-0.4l-0.4,0.1v0.2L28.1,49l-0.2-0.3h-0.3l-0.2-0.2v-0.4l-0.6,0.1l-0.1-0.1l0.2-0.4l0.3,0.2l0.5-0.2V48
	l0.1,0.1h0.5l0.1-0.2c0,0,0.5-0.1,0.5,0v0.3H30l-0.1-0.5c0.2,0.1,0.4,0.1,0.6,0.2v0.7h0.4l0.3-0.6c0,0,0.2,0,0.2,0.1v0.5l0.7,0.2
	l0.3-0.3v-0.3H33c0,0,0.4,0.2,0.3,0.3s0.4-0.5,0.4-0.5l-0.1-0.4l0.6-0.4l-0.1-0.4v-0.2l0.2-0.5v-0.5l-0.5-0.5l-0.1-0.5H34l-0.4-0.9
	h-0.3l0.2-0.3l0.3-0.2L32.7,43v-0.5l0.6,0.2l0.6-0.2h0.2l0.3,0.6l0.4,0.6l-0.2,0.2c-0.1,0.1,0.5,0.4,0.5,0.4l0.1,0.3v1.1l-0.3,0.4
	l-0.1,0.1l0.4,0.3l0.4-0.3v0.4l0.5,0.3l0.3-0.2l0.4,0.2l0.5-0.3l0.1-0.3l0.2,0.7c0.2,0,0.4-0.1,0.6-0.2l0.3-0.3c0,0,0.3-0.2,0.5-0.1
	s0.5-0.1,0.5-0.1v-0.6l0.6-0.2l0.2-0.2l0.1-0.4h0.4l0.2,0.2l0.1-0.2l0.1-0.5l0.3,0.1v-0.4l-0.1-0.3l-0.6-0.1v-0.3h0.4l-0.4-0.6
	l0.2-0.3l-0.4-0.2L40.4,42v-0.2h0.1l0.1,0.1l0.9,0.6c0.2,0.1,0.3,0.1,0.5,0v0.1l-0.2,0.3h0.3v0.3l0.3-0.5l0.2,0.5h0.2v0.3H43V44
	l0.3,0.2v0.3h-0.2l0.1,0.2l0,0L43.8,45.3z"/>
<polygon class="st14" points="32,43.2 32.2,43.5 32,43.8 32.4,44.3 32.9,43.7 33,43 32.5,42.7 32,42.8 "/>
<polygon class="st14" points="118,44.2 118.2,44.5 118,44.8 118.4,45.3 118.9,44.7 119,44 118.5,43.7 118,43.8 "/>
<polygon class="st14" points="115,48.2 115.2,48.5 115,48.8 115.4,49.3 115.9,48.7 116,48 115.5,47.7 115,47.8 "/>
<polygon class="st14" points="38,43.2 38.2,43.5 38,43.8 38.4,44.3 38.9,43.7 39,43 38.5,42.7 38,42.8 "/>
<polygon class="st14" points="29,45.2 29.2,45.5 29,45.8 29.4,46.3 29.9,45.7 30,45 29.5,44.7 29,44.8 "/>
<polygon class="st15" points="95.7,67 79.6,67 80.4,36 94.8,36 "/>
<linearGradient id="SVGID_1_" gradientUnits="userSpaceOnUse" x1="79.95" y1="1475.55" x2="81.84" y2="1475.55" gradientTransform="matrix(1 0 0 1 0 -1424)">
	<stop  offset="0" style="stop-color:#FFB87D"/>
	<stop  offset="0.53" style="stop-color:#CA6D4C"/>
	<stop  offset="0.99" style="stop-color:#A05C38"/>
</linearGradient>
<polygon class="st16" points="81.8,37.6 81.8,37.6 81.8,37.5 80.8,36.4 80.8,36.4 79.9,66.7 81,65.5 "/>
<linearGradient id="SVGID_2_" gradientUnits="userSpaceOnUse" x1="93.46" y1="1475.5" x2="95.33" y2="1475.5" gradientTransform="matrix(1 0 0 1 0 -1424)">
	<stop  offset="0" style="stop-color:#FFB87D"/>
	<stop  offset="0.53" style="stop-color:#CA6D4C"/>
	<stop  offset="0.99" style="stop-color:#A05C38"/>
</linearGradient>
<polygon class="st17" points="93.5,37.6 94.3,65.4 95.3,66.6 94.5,36.4 "/>
<linearGradient id="SVGID_3_" gradientUnits="userSpaceOnUse" x1="87.6" y1="1489.51" x2="87.6" y2="1490.8" gradientTransform="matrix(1 0 0 1 0 -1424)">
	<stop  offset="0" style="stop-color:#FFB87D"/>
	<stop  offset="0.53" style="stop-color:#CA6D4C"/>
	<stop  offset="0.99" style="stop-color:#A05C38"/>
</linearGradient>
<polygon class="st18" points="94.3,65.5 81,65.5 79.9,66.7 95.3,66.7 95.3,66.6 94.3,65.4 "/>
<linearGradient id="SVGID_4_" gradientUnits="userSpaceOnUse" x1="87.65" y1="1460.4199" x2="87.65" y2="1461.9199" gradientTransform="matrix(1 0 0 1 0 -1424)">
	<stop  offset="0" style="stop-color:#FFB87D"/>
	<stop  offset="0.53" style="stop-color:#CA6D4C"/>
	<stop  offset="0.99" style="stop-color:#A05C38"/>
</linearGradient>
<polygon class="st19" points="81.8,37.6 93.5,37.6 93.5,37.6 94.5,36.4 94.5,36.4 80.8,36.4 81.8,37.5 "/>
<polygon class="st20" points="80.9,36.4 81.3,36.7 94.1,36.7 94.4,36.5 "/>
<polygon class="st20" points="94.4,36.6 94.4,37 93.8,37.8 94.6,65.7 94.4,65.4 93.5,37.6 "/>
<polygon class="st20" points="80.3,66.5 81,65.6 94.2,65.6 94.5,65.8 81.1,65.9 "/>
<polygon class="st20" points="81.6,37.5 80.9,36.6 80.1,66.3 81.1,37.3 81.6,37.9 "/>
<linearGradient id="SVGID_5_" gradientUnits="userSpaceOnUse" x1="80.7861" y1="1462.577" x2="94.3761" y2="1489.7469" gradientTransform="matrix(1 0 0 1 0 -1424)">
	<stop  offset="0" style="stop-color:#FFB87D"/>
	<stop  offset="0.53" style="stop-color:#CA6D4C"/>
	<stop  offset="0.99" style="stop-color:#A05C38"/>
</linearGradient>
<polygon class="st21" points="81.5,65.1 82.3,38.1 93.1,38.1 94,65.1 "/>
<linearGradient id="SVGID_6_" gradientUnits="userSpaceOnUse" x1="80.6441" y1="1475.3098" x2="85.8841" y2="1462.4799" gradientTransform="matrix(1 0 0 1 0 -1424)">
	<stop  offset="0" style="stop-color:#CA6D4C"/>
	<stop  offset="1" style="stop-color:#FFB87D"/>
</linearGradient>
<polygon class="st22" points="83.7,39.5 82.8,43.6 82.8,45.1 82.8,49.2 83.6,48.4 83.6,45.1 83.6,43.6 84.4,40.3 "/>
<linearGradient id="SVGID_7_" gradientUnits="userSpaceOnUse" x1="82.84" y1="1468.35" x2="84.42" y2="1468.35" gradientTransform="matrix(1 0 0 1 0 -1424)">
	<stop  offset="0" style="stop-color:#D3B994"/>
	<stop  offset="1" style="stop-color:#6C5030"/>
</linearGradient>
<polygon class="st23" points="83.7,39.5 83.4,40.4 83.4,48.2 82.8,49.2 83.6,48.4 83.6,45.1 83.6,43.6 84.4,40.3 "/>
<linearGradient id="SVGID_8_" gradientUnits="userSpaceOnUse" x1="91.5065" y1="1472.6327" x2="92.5965" y2="1458.2128" gradientTransform="matrix(1 0 0 1 0 -1424)">
	<stop  offset="0" style="stop-color:#CA6D4C"/>
	<stop  offset="1" style="stop-color:#FFB87D"/>
</linearGradient>
<polygon class="st24" points="91,40.3 91.8,43.6 91.8,45.1 91.8,48.4 92.6,49.2 92.6,45.1 92.6,43.6 91.7,39.5 "/>
<linearGradient id="SVGID_9_" gradientUnits="userSpaceOnUse" x1="87.7" y1="1463.29" x2="87.7" y2="1464.9" gradientTransform="matrix(1 0 0 1 0 -1424)">
	<stop  offset="0" style="stop-color:#CA6D4C"/>
	<stop  offset="1" style="stop-color:#FFB87D"/>
</linearGradient>
<polygon class="st25" points="91,40.3 91.7,39.5 83.7,39.5 84.4,40.3 "/>
<linearGradient id="SVGID_10_" gradientUnits="userSpaceOnUse" x1="-2383.01" y1="-1539.39" x2="-2375.7" y2="-1539.39" gradientTransform="matrix(-1 0 0 -1 -2291.29 -1499.49)">
	<stop  offset="0" style="stop-color:#D3B994"/>
	<stop  offset="1" style="stop-color:#6C5030"/>
</linearGradient>
<polygon class="st26" points="91,40.3 91.7,39.5 90.8,40.2 84.4,40.3 "/>
<linearGradient id="SVGID_11_" gradientUnits="userSpaceOnUse" x1="87.6659" y1="1473.9802" x2="87.7559" y2="1471.9203" gradientTransform="matrix(1 0 0 1 0 -1424)">
	<stop  offset="0" style="stop-color:#CA6D4C"/>
	<stop  offset="1" style="stop-color:#FFB87D"/>
</linearGradient>
<polygon class="st27" points="83.6,48.4 82.8,49.2 92.6,49.2 91.8,48.4 "/>
<g class="st28">
	
		<linearGradient id="SVGID_12_" gradientUnits="userSpaceOnUse" x1="82.84" y1="1472.8" x2="92.55" y2="1472.8" gradientTransform="matrix(1 0 0 1 0 -1424)">
		<stop  offset="0" style="stop-color:#D3B994"/>
		<stop  offset="1" style="stop-color:#6C5030"/>
	</linearGradient>
	<polygon class="st29" points="83.6,48.4 82.8,49.2 92.6,49.2 91.8,48.4 92.1,49.1 83,49.1 	"/>
</g>
<g class="st28">
	
		<linearGradient id="SVGID_13_" gradientUnits="userSpaceOnUse" x1="90.7" y1="1468.4" x2="92.7" y2="1468.4" gradientTransform="matrix(1 0 0 1 0 -1424)">
		<stop  offset="0" style="stop-color:#D3B994"/>
		<stop  offset="1" style="stop-color:#6C5030"/>
	</linearGradient>
	<polygon class="st30" points="92.6,49.3 91.7,39.5 91,40.3 91.6,39.8 92.4,49.1 	"/>
</g>
<linearGradient id="SVGID_14_" gradientUnits="userSpaceOnUse" x1="85.02" y1="1463.79" x2="90.01" y2="1473.77" gradientTransform="matrix(1 0 0 1 0 -1424)">
	<stop  offset="0" style="stop-color:#FFFFFF"/>
	<stop  offset="0.53" style="stop-color:#CA6D4C"/>
	<stop  offset="0.99" style="stop-color:#A05C38"/>
</linearGradient>
<polygon class="st31" points="91.9,48.5 83.5,48.5 84.3,40.2 91.1,40.2 "/>
<linearGradient id="SVGID_15_" gradientUnits="userSpaceOnUse" x1="80.2694" y1="1488.5176" x2="85.3394" y2="1476.1176" gradientTransform="matrix(1 0 0 1 0 -1424)">
	<stop  offset="0" style="stop-color:#CA6D4C"/>
	<stop  offset="1" style="stop-color:#FFB87D"/>
</linearGradient>
<polygon class="st32" points="82.8,52.9 82.8,57.1 82.8,58.5 82.8,62.7 83.6,61.8 83.6,58.5 83.6,57.1 83.6,53.8 "/>
<linearGradient id="SVGID_16_" gradientUnits="userSpaceOnUse" x1="82.84" y1="1481.8" x2="83.59" y2="1481.8" gradientTransform="matrix(1 0 0 1 0 -1424)">
	<stop  offset="0" style="stop-color:#D3B994"/>
	<stop  offset="1" style="stop-color:#6C5030"/>
</linearGradient>
<polygon class="st33" points="82.8,52.9 83.4,53.9 83.4,61.7 82.8,62.7 83.6,61.8 83.6,58.5 83.6,57.1 83.6,53.8 "/>
<linearGradient id="SVGID_17_" gradientUnits="userSpaceOnUse" x1="91.9072" y1="1486.1121" x2="93.0072" y2="1471.6021" gradientTransform="matrix(1 0 0 1 0 -1424)">
	<stop  offset="0" style="stop-color:#CA6D4C"/>
	<stop  offset="1" style="stop-color:#FFB87D"/>
</linearGradient>
<polygon class="st34" points="91.8,53.8 91.8,57.1 91.8,58.5 91.8,61.8 92.6,62.7 92.6,58.5 92.6,57.1 92.6,52.9 "/>
<linearGradient id="SVGID_18_" gradientUnits="userSpaceOnUse" x1="87.7" y1="1476.75" x2="87.7" y2="1478.36" gradientTransform="matrix(1 0 0 1 0 -1424)">
	<stop  offset="0" style="stop-color:#CA6D4C"/>
	<stop  offset="1" style="stop-color:#FFB87D"/>
</linearGradient>
<polygon class="st35" points="91.8,53.8 92.6,52.9 82.8,52.9 83.6,53.8 "/>
<linearGradient id="SVGID_19_" gradientUnits="userSpaceOnUse" x1="-2383.8301" y1="-1552.84" x2="-2374.8799" y2="-1552.84" gradientTransform="matrix(-1 0 0 -1 -2291.29 -1499.49)">
	<stop  offset="0" style="stop-color:#D3B994"/>
	<stop  offset="1" style="stop-color:#6C5030"/>
</linearGradient>
<polygon class="st36" points="91.8,53.8 92.6,52.9 91.7,53.6 83.6,53.8 "/>
<linearGradient id="SVGID_20_" gradientUnits="userSpaceOnUse" x1="87.6677" y1="1487.4404" x2="87.7577" y2="1485.3804" gradientTransform="matrix(1 0 0 1 0 -1424)">
	<stop  offset="0" style="stop-color:#CA6D4C"/>
	<stop  offset="1" style="stop-color:#FFB87D"/>
</linearGradient>
<polygon class="st37" points="83.6,61.8 82.8,62.7 92.6,62.7 91.8,61.8 "/>
<g class="st28">
	
		<linearGradient id="SVGID_21_" gradientUnits="userSpaceOnUse" x1="82.84" y1="1486.25" x2="92.55" y2="1486.25" gradientTransform="matrix(1 0 0 1 0 -1424)">
		<stop  offset="0" style="stop-color:#D3B994"/>
		<stop  offset="1" style="stop-color:#6C5030"/>
	</linearGradient>
	<polygon class="st38" points="83.6,61.8 82.8,62.7 92.6,62.7 91.8,61.8 92.1,62.5 83,62.5 	"/>
</g>
<g class="st28">
	
		<linearGradient id="SVGID_22_" gradientUnits="userSpaceOnUse" x1="91.67" y1="1481.8" x2="92.62" y2="1481.8" gradientTransform="matrix(1 0 0 1 0 -1424)">
		<stop  offset="0" style="stop-color:#D3B994"/>
		<stop  offset="1" style="stop-color:#6C5030"/>
	</linearGradient>
	<polygon class="st39" points="92.6,62.7 92.6,52.9 91.8,53.8 92.4,53.2 92.4,62.5 	"/>
</g>
<linearGradient id="SVGID_23_" gradientUnits="userSpaceOnUse" x1="85.158" y1="1476.761" x2="90.318" y2="1487.0911" gradientTransform="matrix(1 0 0 1 0 -1424)">
	<stop  offset="0" style="stop-color:#FFFFFF"/>
	<stop  offset="0.53" style="stop-color:#CA6D4C"/>
	<stop  offset="0.99" style="stop-color:#A05C38"/>
</linearGradient>
<rect x="83.5" y="53.7" class="st40" width="8.4" height="8.3"/>
<linearGradient id="SVGID_24_" gradientUnits="userSpaceOnUse" x1="98.0302" y1="1490.9558" x2="71.9902" y2="1453.5159" gradientTransform="matrix(1 0 0 1 0 -1424)">
	<stop  offset="0" style="stop-color:#CA6D4C"/>
	<stop  offset="1" style="stop-color:#FFB87D"/>
</linearGradient>
<path class="st41" d="M92.7,38.6l0.8,26H81.9l0.8-26H92.7z M93.6,37.6H81.9l-0.8,28h13.3L93.6,37.6z"/>
<path class="st42" d="M94.4,65.6H81c0,0-0.1,0-0.1-0.1l0.8-28c0,0,0,0,0-0.1h11.8c0,0,0.1,0,0.1,0.1L94.4,65.6
	C94.5,65.6,94.4,65.6,94.4,65.6L94.4,65.6z M81.1,65.5h13.2l-0.8-27.8H81.9L81.1,65.5z M93.5,64.6H81.9c0,0-0.1,0-0.1-0.1l0.8-26
	c0,0,0-0.1,0.1-0.1h10v0.1L93.5,64.6C93.6,64.6,93.5,64.6,93.5,64.6z M82,64.5h11.5l-0.8-25.9h-9.9L82,64.5z"/>
<g class="st43">
	
		<linearGradient id="SVGID_25_" gradientUnits="userSpaceOnUse" x1="76.5406" y1="1481.8293" x2="103.9106" y2="1471.9794" gradientTransform="matrix(1 0 0 1 0 -1424)">
		<stop  offset="0" style="stop-color:#D3B994"/>
		<stop  offset="1" style="stop-color:#6C5030"/>
	</linearGradient>
	<polygon class="st44" points="93.3,37.6 94.1,65.3 81,65.3 81,65.6 94.4,65.6 93.6,37.6 	"/>
</g>
<path class="st20" d="M93.2,37.9C93.2,38,93.1,38,93.2,37.9L93.2,37.9L82.4,38c-0.1,0-0.1,0-0.1-0.1l0,0l0,0c0-0.1,0.1-0.1,0.1-0.1
	L93.2,37.9C93.2,37.8,93.2,37.8,93.2,37.9z"/>
<path class="st20" d="M93.7,64.8C93.7,64.9,93.6,64.9,93.7,64.8L93.7,64.8L82,64.9c-0.1,0-0.1,0-0.1-0.1l0,0c0-0.1,0.1-0.1,0.1-0.1
	L93.7,64.8C93.7,64.7,93.7,64.7,93.7,64.8L93.7,64.8L93.7,64.8z"/>
<path class="st20" d="M81.3,65.2c-0.1-0.1-0.1-0.2-0.1-0.3L82,38.2c0-0.2,0-0.3,0.1-0.3l0,0c0.1,0,0.1,0.2,0.1,0.3l-0.8,26.7
	C81.4,65.1,81.4,65.2,81.3,65.2z"/>
<path class="st20" d="M93.7,64.5c-0.1-0.1-0.1-0.2-0.1-0.3l-0.8-25.4c0-0.2,0-0.3,0.1-0.3l0,0c0.1,0.1,0.1,0.2,0.1,0.3l0.8,25.4
	C93.8,64.4,93.8,64.5,93.7,64.5z"/>
<path class="st45" d="M92.5,52.6v-2.4l0,0c0.2-0.2,0.2-0.5,0-0.7c-0.1-0.1-0.2-0.1-0.3-0.1l0,0c-0.2,0-0.4,0.2-0.4,0.5
	c0,0.2,0.1,0.3,0.2,0.4v2.3c-0.1,0.1-0.2,0.2-0.2,0.4s0.2,0.4,0.4,0.5l0,0c0.2,0,0.4-0.2,0.4-0.5C92.7,52.8,92.6,52.7,92.5,52.6z"/>
<linearGradient id="SVGID_26_" gradientUnits="userSpaceOnUse" x1="92.04" y1="1475.45" x2="92.52" y2="1475.45" gradientTransform="matrix(1 0 0 1 0 -1424)">
	<stop  offset="0" style="stop-color:#7E7F82"/>
	<stop  offset="1.000000e-02" style="stop-color:#838487"/>
	<stop  offset="9.000000e-02" style="stop-color:#9D9EA0"/>
	<stop  offset="0.16" style="stop-color:#B0B1B2"/>
	<stop  offset="0.24" style="stop-color:#BBBCBD"/>
	<stop  offset="0.33" style="stop-color:#BFC0C1"/>
	<stop  offset="1" style="stop-color:#404040"/>
</linearGradient>
<path class="st46" d="M92.5,52.8c0,0.2-0.1,0.3-0.2,0.3l0,0c-0.1,0-0.3-0.1-0.2-0.3l0,0l0,0v-2.7c0-0.1,0.1-0.3,0.2-0.3l0,0l0,0
	c0.1,0,0.2,0.1,0.2,0.3V52.8z"/>
<path class="st47" d="M92.3,50c-0.1,0-0.2,0.1-0.2,0.3v0.3c0-0.1,0.1-0.2,0.2-0.2s0.2,0.1,0.2,0.2l0,0l0,0v1.8
	c0,0.1-0.1,0.2-0.2,0.2l0,0l0,0c-0.1,0-0.2-0.1-0.2-0.2v0.3c0,0.1,0.1,0.3,0.2,0.3l0,0l0,0c0.1,0,0.2-0.1,0.2-0.2v-2.5
	C92.5,50.1,92.4,50,92.3,50z"/>
<path class="st48" d="M92.3,52.3c0,0.1-0.1,0.2-0.1,0.2l0,0c-0.1,0-0.1-0.1-0.1-0.2v-1.7c0-0.1,0.1-0.2,0.1-0.2l0,0
	c0.1,0,0.1,0.1,0.1,0.2V52.3z"/>
<radialGradient id="SVGID_27_" cx="301.5172" cy="1608.7196" r="0.5" gradientTransform="matrix(0.82 0 0 0.92 -154.62 -1430.14)" gradientUnits="userSpaceOnUse">
	<stop  offset="0" style="stop-color:#E2E3E2"/>
	<stop  offset="0.23" style="stop-color:#B5B5B5"/>
	<stop  offset="0.46" style="stop-color:#909190"/>
	<stop  offset="0.67" style="stop-color:#767776"/>
	<stop  offset="0.85" style="stop-color:#676767"/>
	<stop  offset="1" style="stop-color:#616161"/>
</radialGradient>
<path class="st49" d="M92.7,49.9c0,0.2-0.1,0.4-0.3,0.5l0,0c-0.2,0-0.4-0.1-0.5-0.3V50c0-0.2,0.1-0.4,0.3-0.5l0,0
	C92.4,49.5,92.6,49.6,92.7,49.9C92.7,49.8,92.7,49.8,92.7,49.9z"/>
<path class="st9" d="M92.4,49.6L92.4,49.6c-0.2,0-0.2-0.1-0.2-0.1S92.3,49.5,92.4,49.6C92.4,49.5,92.4,49.6,92.4,49.6z"/>
<path class="st9" d="M92.5,49.7"/>
<path class="st50" d="M92.3,49.4c-0.2,0-0.4,0.2-0.4,0.5c0,0.2,0.1,0.4,0.3,0.5l0,0c0.2,0,0.4-0.1,0.5-0.3V50
	C92.7,49.6,92.5,49.4,92.3,49.4L92.3,49.4z M92.3,50.2c-0.2,0-0.4-0.2-0.3-0.4c0-0.2,0.2-0.3,0.3-0.3c0.2,0,0.3,0.2,0.3,0.3l0,0l0,0
	C92.6,50,92.5,50.2,92.3,50.2L92.3,50.2z"/>
<path class="st50" d="M92.3,52.5c-0.2,0-0.4,0.2-0.4,0.5l0,0c0,0.2,0.1,0.4,0.3,0.5l0,0c0.2,0,0.4-0.1,0.5-0.3v-0.1
	C92.7,52.7,92.5,52.5,92.3,52.5z M92.3,53.3c-0.2,0-0.4-0.1-0.4-0.3s0.1-0.4,0.3-0.4c0.2,0,0.4,0.1,0.4,0.3V53
	C92.6,53.1,92.5,53.3,92.3,53.3L92.3,53.3z"/>
<radialGradient id="SVGID_28_" cx="89.91" cy="1488.27" r="0.5" gradientTransform="matrix(1 0 0 1 0 -1424)" gradientUnits="userSpaceOnUse">
	<stop  offset="0" style="stop-color:#E2E3E2"/>
	<stop  offset="0.23" style="stop-color:#B5B5B5"/>
	<stop  offset="0.46" style="stop-color:#909190"/>
	<stop  offset="0.67" style="stop-color:#767776"/>
	<stop  offset="0.85" style="stop-color:#676767"/>
	<stop  offset="1" style="stop-color:#616161"/>
</radialGradient>
<path class="st51" d="M92.7,53c0,0.2-0.1,0.4-0.3,0.5l0,0c-0.2,0-0.4-0.1-0.5-0.3v-0.1c0-0.2,0.1-0.4,0.3-0.5l0,0
	C92.4,52.6,92.6,52.7,92.7,53L92.7,53z"/>
<path class="st9" d="M92.4,52.7L92.4,52.7c-0.2,0-0.2-0.1-0.2-0.1L92.4,52.7L92.4,52.7z"/>
<polygon class="st52" points="54.8,35.9 87.7,10.4 121.1,35.9 119.6,37.8 88,13.4 55.8,37.8 "/>
<polygon class="st53" points="61.5,39.1 62.1,34.6 87.3,15.1 114.2,35.3 114.2,38.5 119.6,37.8 88,13.4 55.8,37.8 "/>
<polygon class="st52" points="75,36.8 76,38.5 87.5,31.5 99.4,38.5 100.3,36.8 87.1,28.5 "/>
<polygon class="st53" points="76.8,39.7 87.5,32.8 99.1,39.7 99.4,38.5 87.5,31.5 76,38.5 "/>
<path class="st54" d="M58.8,66.7L79.7,67c0.2-5.6,0.4-11.3,0.6-17c0.1-4.2,0.3-8.5,0.4-12.7l-3.8,2.3L75,36.8l12.2-8.3l13.2,8.3
	l-1,1.6l-0.2,1.2l-4.4-2.5c0.3,10,0.7,20,1,29.9h21.8c-0.5-3.3-0.9-6.7-1.3-10.1c-0.8-6.7-1.4-13.1-1.9-19.3L87.7,17.4l-26,20.4
	L58.8,66.7z"/>
<polyline class="st55" points="61.7,37.8 87.7,17.4 114.2,37.8 114.2,35.3 87.3,15.1 62.1,34.6 61.6,38.5 "/>
<path class="st0" d="M64.5,42.3l9.1,0.2l-0.7,12.3l-9.1-0.3L64.5,42.3z"/>
<polygon class="st56" points="68.5,47.8 64.9,47.7 65,42.9 68.7,43 "/>
<polygon class="st56" points="72.6,48 68.9,47.8 69.1,43 72.7,43.2 "/>
<polygon class="st56" points="68.3,53.7 64.7,53.5 64.8,48.7 68.5,48.9 "/>
<polygon class="st56" points="72.4,53.9 68.7,53.7 68.9,48.9 72.5,49.1 "/>
<path class="st0" d="M103.4,43l8.7,0.5c0.1,3.8,0.2,7.6,0.2,11.5l-8.7-0.3L103.4,43z"/>
<polygon class="st56" points="107.7,48.6 104.3,48.6 104.3,43.9 107.8,44 "/>
<polygon class="st56" points="111.6,48.7 108.1,48.6 108.2,44 111.7,44.1 "/>
<polygon class="st56" points="107.7,54.3 104.2,54.3 104.2,49.6 107.7,49.7 "/>
<polygon class="st56" points="111.6,54.4 108.1,54.3 108.1,49.7 111.6,49.7 "/>
<path class="st55" d="M82.2,36.2L93,36.1l-5.5-3.3L82.2,36.2z"/>
<path class="st57" d="M-22.1,13.4h62.8c6.1,0,11,4.9,11,11v39.2c0,6.1-4.9,11-11,11h-62.8c-6.1,0-11-4.9-11-11V24.4
	C-33.2,18.3-28.2,13.4-22.1,13.4z"/>
<ellipse class="st58" cx="46.5" cy="37.7" rx="4.3" ry="4.3"/>
<ellipse class="st59" cx="46.3" cy="26" rx="4.3" ry="4.3"/>
<ellipse class="st60" cx="46.3" cy="49.2" rx="4.3" ry="4.3"/>
<ellipse class="st61" cx="46.3" cy="60.6" rx="4.3" ry="4.3"/>
<rect x="-44.2" y="17" class="st62" width="45.2" height="53.2"/>
<rect x="1.6" y="17" class="st62" width="45.2" height="53.2"/>
<polygon class="st63" points="6.2,77.8 4.2,75.8 2,77.8 2,16.4 6.2,16.4 "/>
<path class="st64" d="M57.4,62.6L57.4,62.6v0.2h-0.1c0,0-0.1,0-0.1-0.1v-0.2l0,0C57.3,62.6,57.4,62.6,57.4,62.6z"/>
<path class="st64" d="M56.8,63.6v0.3l0,0c0,0,0,0,0-0.1C56.7,63.7,56.7,63.6,56.8,63.6L56.8,63.6z"/>
<path class="st65" d="M56.9,63.5c0,0.1,0,0.2,0,0.4l0,0V64l0,0V63.5C56.9,63.6,56.9,63.6,56.9,63.5L56.9,63.5"/>
<path class="st64" d="M65.5,62.5L65.5,62.5v0.2h0.1c0,0,0.1,0,0.1-0.1v-0.2l0,0C65.7,62.5,65.6,62.5,65.5,62.5z"/>
<path class="st64" d="M66.2,63.6v0.3l0,0v-0.1V63.6z"/>
<path class="st65" d="M65.8,62.3L65.8,62.3C65.8,62.2,65.9,62.2,65.8,62.3c0.1-0.1,0.2,0,0.2,0c0,0.1,0,0.2,0.1,0.4
	c0,0.1,0.1,0.2,0.1,0.4v0.1V64C66,63.9,66,63.8,66,63.6v-0.5c0-0.1,0-0.1,0-0.2c0-0.1-0.1-0.3-0.1-0.4c0,0.1,0,0.2-0.1,0.3l-0.1,0.1
	v-0.2C65.8,62.5,65.8,62.4,65.8,62.3z"/>
<path class="st65" d="M66.1,63.5c0,0.1,0,0.2,0,0.4l0,0V64l0,0V63.5C66.1,63.6,66.1,63.6,66.1,63.5L66.1,63.5"/>
<circle class="st66" cx="62.7" cy="55" r="0.1"/>
<path class="st67" d="M59.1,55.8L58,55.1v0.1l0.6,0.4L59.1,55.8L59.1,55.8z"/>
<path class="st67" d="M59.1,55.9L59.1,55.9c0-0.1-0.1-0.1-0.1-0.2c0-0.1,0.1-0.2,0.1-0.2c0-0.1,0.1-0.2,0.1-0.3l-0.1,0.4V55.9z"/>
<path class="st67" d="M63.9,55.8L65,55v0.1l-0.6,0.4L63.9,55.8L63.9,55.8z"/>
<path class="st67" d="M63.9,55.9c0,0,0.1-0.1,0.2-0.1L64,55.5c0-0.1-0.1-0.2-0.1-0.3c0,0.1,0,0.1,0,0.2v0.3
	C63.8,55.7,63.8,55.8,63.9,55.9z"/>
<path class="st68" d="M70.8,50.7c0.9-0.1,1.7-0.1,2.6,0c-0.1,0.2-0.1,0.5-0.2,0.8c0,0.3,0.1,0.5,0.2,0.7c-0.3,0.4-0.8,0.5-1.3,0.5
	c-0.5,0.1-0.9-0.1-1.2-0.5c0-0.2,0-0.4,0-0.7S70.9,50.9,70.8,50.7z"/>
<path class="st65" d="M71.1,51.4c0.5,0.3,1.2,0.4,1.8,0.1c0.2-0.1,0.3-0.2,0.4-0.3c0-0.1,0-0.1,0-0.2v-0.2h-0.1c-0.6,0-1.3,0-1.9,0
	H71c-0.1,0-0.1,0,0,0.1C71,51.1,71.1,51.3,71.1,51.4z"/>
<circle class="st66" cx="70.9" cy="54.3" r="0.1"/>
<path class="st65" d="M71.4,50.3c0.2,0.1,0.5,0.1,0.7,0.1s0.5,0,0.7-0.1c0.1,0,0,0.2-0.7,0.2S71.4,50.3,71.4,50.3z"/>
<path class="st65" d="M72,50.7c0,0,0.1,0,0.2,0c0.1-0.1,0.1,0,0.1,0l0,0C72.3,50.8,72.2,50.8,72,50.7C72,50.8,72,50.8,72,50.7
	L72,50.7z"/>
<circle class="st66" cx="73.5" cy="54.3" r="0.1"/>
<path class="st65" d="M71.9,50.8c0,0,0.1,0,0.2,0c0.1-0.1,0.1,0,0.1,0l0,0C72.2,50.9,72.1,50.9,71.9,50.8
	C71.9,50.9,71.9,50.8,71.9,50.8L71.9,50.8z"/>
<circle class="st66" cx="73.4" cy="54.4" r="0.1"/>
<circle class="st66" cx="70.8" cy="54.4" r="0.1"/>
<path class="st65" d="M71.9,50.8c0,0,0.1,0,0.2,0c0.1-0.1,0.1,0,0.1,0l0,0C72.2,50.9,72.1,50.9,71.9,50.8
	C71.9,50.9,71.9,50.8,71.9,50.8L71.9,50.8z"/>
<circle class="st66" cx="73.4" cy="54.4" r="0.1"/>
<g>
	<path class="st65" d="M58.7,62.8c0,0.1,0.1,0.1,0.1,0.3c0,0.2,0.1,0.1,0.1,0.1s0,0,0.1,0c0,0,0,0,0,0.1v0.1l-0.1,0.1h-0.1
		c-0.1-0.1-0.2-0.2-0.3-0.3c0-0.2,0-0.3,0-0.4v-0.2c-0.1,0.2,0.1,0.4,0.1,0.6v0.1c0,0,0.1,0.1,0.1,0.2l0.1,0.1v0.1
		c0,0.1,0,0.1-0.1,0.1s-0.1,0.1-0.2,0.1c0,0-0.1,0-0.1-0.1s-0.1-0.1-0.1-0.1l-0.1-0.1c-0.1-0.2-0.2-0.4-0.2-0.7c0-0.1,0-0.2,0.1-0.3
		c0,0,0-0.1,0.1-0.1v-0.1c0-0.1,0.1-0.1,0.1-0.2l0.2-0.1h0.1c0,0,0,0.1,0,0.2C58.6,62.5,58.6,62.7,58.7,62.8z"/>
	<path class="st68" d="M58.3,63v0.2l0.1,0.2l0.1,0.3V64h-0.1c0,0-0.1-0.1-0.1-0.2C58.1,63.2,58,62.6,58,62c0-0.1,0-0.2,0.1-0.3
		c0-0.1,0.1-0.3,0.1-0.4 M58.2,61.4L58.2,61.4l0.3-0.1c0.1,0,0.2,0,0.2,0.1c0.1,0,0.1,0.1,0.1,0.2v0.1l0,0c0,0.1,0.1,0.1,0.1,0.2
		v0.3c0.1,0.2,0.1,0.3,0.2,0.5v0.1h-0.3v-0.1l-0.1-0.3c0,0.1-0.1,0.3-0.1,0.4v0.8c0,0.1,0,0.2,0,0.4c-0.1,0-0.1,0-0.2,0l0,0
		c-0.1,0-0.1-0.1-0.1-0.1v-0.6c0-0.1,0-0.2,0-0.4c0.1-0.1,0.1-0.2,0.2-0.3l0,0v-0.1c0.1,0.1,0.1,0.2,0,0.3v0.1c-0.2,0-0.2,0-0.2,0
		L58.2,61.4z"/>
	<path class="st65" d="M58.7,62.3L58.7,62.3C58.6,62.2,58.6,62.2,58.7,62.3L58.7,62.3c-0.1-0.1-0.2,0-0.2,0c0,0.1,0,0.2-0.1,0.4
		c-0.1,0.1-0.1,0.2-0.1,0.4v0.1V64c0.1-0.1,0.1-0.2,0.1-0.4v-0.5c0-0.1,0-0.1,0-0.2s0.1-0.3,0.1-0.4c0,0.1,0,0.2,0.1,0.3
		s0.2,0.1,0.1,0.1s0-0.2,0-0.2C58.7,62.6,58.7,62.4,58.7,62.3z"/>
	<path class="st65" d="M67.3,62.7c0,0.1-0.1,0.2-0.1,0.3s-0.1,0.1-0.1,0.1H67c0,0,0,0,0,0.1v0.1l0.1,0.1h0.1
		c0.1-0.1,0.2-0.2,0.3-0.3c0-0.1,0-0.2,0-0.3v-0.2c0.1,0.2-0.1,0.4-0.1,0.7v0.1l-0.1,0.1l-0.1,0.2v0.1c0,0.1,0,0.1,0.1,0.1
		s0.1,0.1,0.2,0.1s0.1,0,0.1-0.1l0.1-0.2l0.1-0.1c0.1-0.2,0.2-0.4,0.2-0.7c0-0.1,0-0.2-0.1-0.3c0,0,0-0.1-0.1-0.1v-0.1
		c0-0.1-0.1-0.1-0.1-0.2l-0.2-0.1h-0.1v0.1C67.4,62.5,67.4,62.6,67.3,62.7z"/>
	<path class="st68" d="M67.7,62.9v0.2l-0.1,0.2l-0.1,0.4V64h0.1l0.1-0.1c0.1-0.2,0.1-0.4,0.2-0.7c0.1-0.4,0.1-0.7,0.1-1.1
		c0-0.1,0-0.2-0.1-0.3c0-0.1-0.1-0.3-0.1-0.4l0,0l-0.1-0.1h-0.2c-0.1,0-0.2,0-0.2,0.1c-0.1,0-0.1,0.1-0.1,0.2v0.1l0,0
		c0,0.1-0.1,0.1-0.1,0.2v0.3c-0.1,0.2-0.1,0.3-0.2,0.5v0.1H67h0.2v-0.1l0.1-0.3c0,0.1,0.1,0.3,0.1,0.4v0.7c0,0.1,0,0.2,0,0.4
		c0,0.1,0.1,0.1,0.1,0.1c0.1,0,0.1-0.1,0.1-0.2v-0.5C67.7,63.1,67.7,63,67.7,62.9c-0.1-0.2-0.2-0.3-0.2-0.4l0,0v-0.1
		c-0.1,0.1-0.1,0.2,0,0.3v0.1L67.7,62.9z"/>
	<path class="st68" d="M63,53.1h0.4c0.1,0,0.2-0.1,0.3-0.1c0.1-0.1,0.2-0.2,0.3-0.3c0.4,0.1,0.8,0.1,1,0.2c0.2,0,0.4,0.1,0.6,0.2
		c0.3,0.3,0.5,0.7,0.6,1.1c0,0.3,0.1,0.7,0.1,1c0.1,0.7,0.1,0.9,0.2,1.3c0,0.3,0.1,0.6,0.2,0.9s0.3,0.6,0.4,0.9s0.2,0.5,0.3,0.8
		c0.1,0.4,0.2,0.8,0.3,1.2c0,0.2,0.2,0.9,0.2,1s0,0.2-0.3,0.2s-0.3-0.1-0.4,0c-0.1-0.1-0.1-0.2-0.1-0.3c-0.1-0.2-0.2-0.6-0.3-0.7
		L66,59c-0.1-0.2-0.2-0.5-0.2-0.7c0-0.1,0-0.3-0.1-0.4v-0.5c-0.1-0.3-0.1-0.5-0.2-0.7s-0.1-0.6-0.2-1c0-0.3,0-0.6,0-0.9
		c0,0.1-0.3,2.8-0.3,3.7c0,0.5,0.1,1.1,0.3,1.6c0.1,0.2,0.3,1,0.3,1.2c0.1,0.5,0.2,1.1,0.2,1.6v1.5c0,0.5,0,0.9-0.1,1.4
		s-0.2,1-0.2,1.3s-0.1,0.7,0,0.9c0.2,0.5,0.2,1.1,0.2,1.6c-0.1,0.5-0.2,1.1-0.3,1.6c-0.1,0.5-0.2,1-0.1,1.5c0.1,0.2,0.2,0.3,0.4,0.4
		l0.1,0.1c0,0,0,0.2-0.1,0.2h-0.1c-0.2,0.1-0.4,0.1-0.6,0h-0.2c-0.2,0.1-0.5,0-0.6-0.1c-0.1-0.3,0.2-0.5,0-0.8v-0.2
		c0-0.1,0-0.2,0-0.3c0-0.3,0-0.7,0-1s0-0.6-0.1-0.9C64,69.9,64,69.7,64,69.6c0-0.4,0-0.7,0-1.1v-0.8c0-0.5-0.1-0.9-0.3-1.3
		c-0.1-0.6-0.4-2.8-0.4-3c0-0.1-0.1-0.3-0.1-0.4s-0.1-0.1-0.2-0.2h-0.1C62.7,55.4,62.8,53.1,63,53.1z"/>
	<path class="st68" d="M61.8,51.5c0.8-0.1,1.5-0.1,2.3,0C64,51.7,64,52,63.9,52.2c0,0.2,0.1,0.5,0.2,0.7c-0.3,0.3-0.7,0.5-1.1,0.5
		c-0.4,0.1-0.8-0.1-1.1-0.4c0-0.2,0-0.4,0-0.6C61.9,52.1,61.9,51.8,61.8,51.5z"/>
	<path class="st65" d="M62,52.3c0.5,0.3,1,0.3,1.5,0.1c0.1-0.1,0.3-0.2,0.4-0.3c0-0.1,0-0.1,0-0.2v-0.2h-0.1c-0.6,0-1.1,0-1.7,0
		h-0.2c-0.1,0-0.1,0,0,0.1S62.1,52.1,62,52.3z"/>
	<path class="st68" d="M63,53.1h-0.4c-0.1,0-0.2-0.1-0.3-0.1c-0.1-0.1-0.2-0.2-0.3-0.3c-0.3,0-0.7,0.1-1,0.2c-0.2,0-0.4,0.1-0.6,0.2
		c-0.2,0.1-0.3,0.3-0.4,0.6c-0.1,0.2-0.1,0.4-0.1,0.5c0,0.3,0,0.7-0.1,1c-0.1,0.7-0.1,0.9-0.2,1.3c0,0.3-0.1,0.6-0.2,0.9
		c-0.1,0.3-0.3,0.6-0.4,0.9c-0.1,0.3-0.2,0.5-0.3,0.8c-0.1,0.4-0.2,0.8-0.3,1.2c0,0.2-0.2,0.9-0.2,1s0,0.2,0.3,0.2s0.3-0.1,0.4,0
		c0.1-0.1,0.1-0.2,0.1-0.3c0.1-0.2,0.2-0.6,0.3-0.7l0.8-1.5c0.1-0.2,0.2-0.5,0.2-0.8c0-0.1,0-0.3,0-0.4v-0.5
		c0.1-0.3,0.1-0.5,0.2-0.7c0,0,0.1-0.6,0.2-1c0-0.3,0-0.6,0-0.9c0,0.1,0.3,2.8,0.3,3.7c0,0.5-0.1,1.1-0.3,1.6
		c-0.1,0.2-0.3,1-0.3,1.2c-0.1,0.5-0.2,1.1-0.2,1.6v1.5c0,0.5,0,0.9,0.1,1.4s0.2,1,0.2,1.3s0.1,0.7,0,0.9c-0.2,0.5-0.2,1.1-0.2,1.6
		c0.1,0.5,0.2,1.1,0.3,1.6c0.2,0.5,0.2,1,0.1,1.5c-0.1,0.2-0.2,0.3-0.4,0.4c0,0-0.1,0.1-0.1,0.2s0,0.1,0.1,0.2h0.1
		c0.2,0.1,0.4,0.1,0.6,0h0.2c0.2,0.1,0.5,0,0.6-0.2c0.1-0.3-0.2-0.5,0-0.8v-0.2c0-0.1,0-0.2,0-0.3c0-0.3,0-0.7,0-1s0-0.6,0.1-0.9
		c0.1-0.2,0.1-0.4,0.1-0.5c0-0.4,0-0.7,0-1.1c0-0.3,0-0.5,0-0.8c0.1-0.5,0.2-0.9,0.3-1.3c0.1-0.6,0.4-2.8,0.4-3
		c0-0.1,0.1-0.3,0.1-0.4s0.1-0.1,0.2-0.2h0.1C63.3,55.4,63.2,53.1,63,53.1z"/>
	<path class="st69" d="M65.8,59.6c-0.4-0.9-0.7-1.8-0.7-2.8c-0.1-0.6,0-1.1,0.1-1.7c0,0,0,0.1,0.1,0.7c0.2-0.1,0.4-0.3,0.6-0.4
		l0.5-0.3l-0.2-0.9c0-0.9-0.7-1.6-1.6-1.6l0,0h-0.1c-0.4,0.5-1,0.9-1.6,0.9c-0.7,0-1.3-0.3-1.6-0.9c-0.4-0.1-0.8,0-1.2,0.3
		c-0.3,0.3-0.5,0.7-0.6,1.2c0,0.3,0,0.7,0,1.1l1.1,0.7c0-0.1,0-0.3,0.1-0.4c0-0.1,0-0.1,0.1-0.2c0.2,1.4,0,2.8-0.4,4.1
		c-0.7,2.4-2.1,5.8-2.3,6.3c0.1,0.3,0.3,0.5,0.6,0.7c0.3,0,0.6,0,0.8,0c1.1,0.6,2.3,0.9,3.5,0.8c1.2,0.1,2.4-0.2,3.5-0.8
		c0.3,0.1,0.6,0.1,0.9,0c0.2-0.1,0.4-0.2,0.5-0.4C67.4,63.8,66.7,61.7,65.8,59.6z"/>
	<path class="st67" d="M63.1,53.4L61.8,54l-0.7-1.4l0.4-0.2C61.5,52.4,62.6,53.4,63.1,53.4z"/>
	<path class="st67" d="M62.8,53.4l1.3,0.6l0.7-1.4l-0.4-0.2C64.3,52.5,63.2,53.4,62.8,53.4z"/>
	<path class="st67" d="M62.2,60.6c-0.2-0.1-0.2-0.4-0.3-0.8c0-0.2-0.1-0.3-0.1-0.5v0.2c0,0.1,0.1,0.3,0.1,0.4
		C62,60.3,62.1,60.7,62.2,60.6c0.1,0.1,0.3-0.2,0.4-0.5c0.1-0.3,0.2-0.5,0.3-0.5s0.2,0.3,0.3,0.6c0.1,0.3,0.2,0.7,0.3,0.7l0,0
		c0.2,0,0.3-0.4,0.3-0.8s0.2-0.6,0.3-0.7s0.2,0.2,0.3,0.4c0.1,0.2,0.2,0.6,0.4,0.5v-0.2c-0.1,0-0.2-0.2-0.3-0.4
		c-0.1-0.2-0.2-0.5-0.4-0.5c-0.2,0-0.3,0.4-0.3,0.8s-0.2,0.7-0.3,0.7s-0.2-0.3-0.3-0.6c-0.1-0.3-0.2-0.6-0.3-0.7s-0.3,0.3-0.4,0.6
		C62.4,60.3,62.3,60.7,62.2,60.6z"/>
	<path class="st67" d="M60.6,62.6c0.2,0.1,0.3-0.1,0.4-0.3c0.1-0.2,0.2-0.4,0.4-0.3s0.2,0.4,0.3,0.7c0.1,0.3,0.2,0.7,0.4,0.7
		s0.3-0.2,0.4-0.5c0.1-0.3,0.2-0.5,0.3-0.5s0.3,0.3,0.3,0.5s0.2,0.6,0.4,0.6l0,0c0.2,0,0.3-0.3,0.4-0.7s0.2-0.5,0.3-0.6
		s0.3,0.2,0.3,0.4c0,0.2,0.2,0.5,0.4,0.4c0.2-0.1,0.3-0.5,0.3-0.8s0.1-0.6,0.3-0.7c0.1,0,0.1,0,0.2,0l0,0c0-0.1,0-0.2-0.1-0.2
		c0,0-0.1,0-0.2,0c-0.2,0.1-0.3,0.5-0.3,0.8s-0.1,0.6-0.3,0.7c-0.2,0.1-0.3-0.1-0.4-0.4c-0.1-0.3-0.2-0.5-0.4-0.4
		c-0.2,0.1-0.3,0.4-0.3,0.7c0,0.3-0.2,0.6-0.3,0.6S63.1,63,63,62.8c-0.1-0.2-0.2-0.6-0.4-0.6s-0.3,0.2-0.4,0.5
		c-0.1,0.3-0.2,0.5-0.4,0.4s-0.3-0.3-0.3-0.7s-0.2-0.6-0.3-0.7s-0.3,0.1-0.4,0.3c-0.1,0.2-0.2,0.4-0.4,0.3c-0.1-0.1-0.2-0.2-0.2-0.4
		V62C60.4,62.3,60.5,62.5,60.6,62.6z"/>
	<path class="st67" d="M67.3,64.3c-0.1,0-0.1-0.1-0.2-0.2s-0.3-0.4-0.6-0.2c-0.2,0.2-0.4,0.5-0.5,0.8s-0.2,0.7-0.4,0.8
		s-0.4-0.1-0.5-0.3s-0.3-0.5-0.5-0.4c-0.2,0.1-0.4,0.4-0.5,0.7s-0.2,0.6-0.5,0.6s-0.4-0.3-0.5-0.5S62.9,65,62.7,65s-0.4,0.2-0.5,0.5
		s-0.3,0.5-0.5,0.4s-0.4-0.4-0.5-0.7s-0.2-0.6-0.5-0.7s-0.4,0.1-0.5,0.3s-0.3,0.4-0.5,0.3c-0.2-0.2-0.4-0.5-0.4-0.9
		c0-0.2-0.1-0.4-0.2-0.6v0.1c0.1,0.2,0.1,0.4,0.2,0.5c0,0.4,0.2,0.7,0.5,0.9c0.3,0.2,0.4,0,0.6-0.3s0.3-0.4,0.5-0.3s0.3,0.4,0.5,0.7
		s0.2,0.7,0.5,0.8s0.4-0.2,0.6-0.5s0.3-0.5,0.5-0.4s0.3,0.3,0.5,0.5s0.3,0.6,0.5,0.6l0,0c0.3,0,0.4-0.3,0.5-0.7s0.2-0.6,0.5-0.6
		c0.3,0,0.4,0.2,0.5,0.4c0.1,0.2,0.3,0.5,0.6,0.4s0.4-0.5,0.5-0.8c0-0.3,0.2-0.6,0.4-0.8c0.2-0.2,0.4,0,0.5,0.2
		c0,0.1,0.1,0.1,0.2,0.2C67.3,64.4,67.3,64.4,67.3,64.3z"/>
	<ellipse class="st67" cx="62.8" cy="53.7" rx="0.1" ry="0.1"/>
	<path class="st70" d="M65.6,49.6C65.6,49.6,65.7,49.6,65.6,49.6c0.1,0.2,0.2,0.2,0.2,0.3c0.1,0.3,0,0.5-0.2,0.7
		c-0.1,0.1-0.2,0.2-0.4,0.2c-0.1,0-0.1,0-0.2-0.1c0-0.1,0-0.1,0-0.2V50C65.1,49.8,65.3,49.5,65.6,49.6z"/>
	<path class="st70" d="M60.5,49.6L60.5,49.6c-0.2,0.2-0.2,0.2-0.2,0.3c-0.1,0.3,0,0.5,0.2,0.7c0.1,0.1,0.2,0.2,0.4,0.2
		c0.1,0,0.1,0,0.2-0.1c0-0.1,0-0.1,0-0.2V50C61,49.8,60.8,49.5,60.5,49.6z"/>
	<path class="st68" d="M61.1,48.3c-0.2,0.4-0.3,0.8-0.2,1.3c0,0.4,0.1,0.9,0.1,1.3c0.2,0.7,1.3,1.2,1.4,1.2c0.4,0.2,0.9,0.2,1.3,0
		c0.6-0.2,1.1-0.7,1.4-1.3c0.1-0.3,0.2-0.7,0.2-1.1s0-0.8-0.1-1.2c-0.2-0.4-0.5-0.6-0.9-0.7c-0.6-0.1-1.2-0.1-1.8-0.1
		S61.4,47.9,61.1,48.3z"/>
	<path class="st65" d="M62.7,50.7c0.1,0.1,0.2,0.1,0.3,0.1c0.2,0,0.3-0.1,0.3-0.1s0,0.2-0.3,0.2S62.6,50.8,62.7,50.7z"/>
	<path class="st71" d="M62.4,51.3c0.2,0.1,0.5,0.2,0.7,0.2c0.3,0,0.5-0.2,0.6-0.1s-0.2,0.2-0.4,0.3c-0.1,0-0.2,0-0.3,0
		C62.7,51.6,62.5,51.5,62.4,51.3z"/>
	<path class="st65" d="M62.9,51.8L62.9,51.8L62.9,51.8c0.2-0.1,0.1,0,0.2,0l0,0C63.1,51.8,63.1,51.9,62.9,51.8
		C63,51.9,62.9,51.8,62.9,51.8L62.9,51.8z"/>
	<path class="st72" d="M62,49.2c-0.1,0-0.3,0-0.4,0.1h-0.1c0,0,0-0.3,0.5-0.3s0.5,0.2,0.5,0.2S62.2,49.2,62,49.2z"/>
	<path class="st72" d="M64.1,49.2c0.1,0,0.3,0,0.4,0.1l0.2,0.1c0,0,0-0.3-0.5-0.3c-0.5,0-0.5,0.2-0.5,0.2S63.9,49.2,64.1,49.2z"/>
	<path class="st73" d="M60.8,48.9c0-0.3,0-0.6,0.2-0.9v-0.1c0,0-0.1,0-0.2,0V48c-0.1,0.1-0.3,0.1-0.5,0l-0.1-0.1c0-0.1,0-0.1,0-0.2
		c-0.3,0.1-0.5-0.1-0.6-0.3c0-0.2,0.2-0.4,0.4-0.5l0,0l0,0c-0.1-0.1-0.1-0.3-0.1-0.5c0.1-0.1,0.2-0.2,0.4-0.2c0.1,0,0.3,0.1,0.4,0.2
		c0.1-0.2,0.4-0.3,0.5-0.1l0,0l0,0c0.2,0.1,0.2,0.3,0.1,0.4c0.1,0,0.2,0,0.3,0c0.1-0.1,0.1,0,0.2,0c0,0,0,0.1,0,0.2
		s-0.3,0.3-0.2,0.4s0.2-0.1,0.3-0.1c0.4-0.2,0.8-0.3,1.3-0.3c0.4,0,0.9,0,1.3,0.2c0.2,0.1,0.4,0.2,0.5,0.3c0.1,0,0.1,0,0.1-0.1
		S65,47.1,65,47c0-0.2,0.2-0.3,0.4-0.3h0.1c-0.1-0.2,0-0.4,0.2-0.5h0.1c0.2,0,0.5,0.1,0.5,0.3c0,0,0,0,0,0.1s-0.1,0.1,0,0.1
		s0.1,0,0.2-0.1c0.2,0,0.3,0.1,0.4,0.2s0.1,0.3,0.1,0.4c-0.1,0.2-0.2,0.2-0.3,0.2l0.1,0.1c0.1,0.2,0,0.3-0.1,0.5
		c-0.2,0.1-0.5,0.1-0.6,0S66,48,66,48l-0.1,0.1c-0.1,0-0.1-0.1-0.2-0.1c-0.1,0-0.1,0-0.2,0.1l0,0c0.2,0.1,0.1,0.4,0.1,0.6
		s0,0.4-0.1,0.7c0,0.1-0.1,0.5-0.2,0.5c0-0.4,0-0.7-0.1-1.1c0-0.2-0.1-0.4-0.3-0.6c-0.1-0.1-0.3-0.2-0.5-0.3c-0.7-0.2-1.3-0.2-2-0.1
		c-0.3,0-0.5,0.1-0.7,0.2s-0.3,0.2-0.5,0.4c-0.1,0.1-0.2,0.3-0.2,0.5s0,0.3,0,0.5s0,0.4,0,0.5C61.1,49.7,60.9,49.2,60.8,48.9z"/>
	<path class="st74" d="M60.6,47.3c0.1-0.2,0.4-0.3,0.6-0.2l0,0h0.1c0,0.1,0,0.1,0.1,0.2c0.1,0-0.3,0.2-0.4,0.3
		c-0.1,0.1-0.1,0.2-0.2,0.3l-0.2-0.1C60.5,47.7,60.5,47.5,60.6,47.3z"/>
	<path class="st74" d="M65.6,47.3c-0.1-0.3-0.4-0.3-0.7-0.2l0,0l0,0c0,0.1-0.1,0.1-0.2,0.1c-0.1,0,0.3,0.2,0.5,0.4
		c0.1,0.1,0.2,0.2,0.2,0.3l0.2-0.1C65.7,47.8,65.8,47.6,65.6,47.3z"/>
	<path class="st75" d="M61.4,50c0-0.2,0.3-0.4,0.6-0.4s0.6,0.2,0.6,0.4c0,0.2-0.2,0.4-0.5,0.4S61.4,50.2,61.4,50z"/>
	<ellipse class="st76" cx="62" cy="50" rx="0.3" ry="0.3"/>
	<circle class="st77" cx="61.8" cy="50" r="0.1"/>
	<path class="st78" d="M62,49.5c0.2,0,0.5,0.1,0.6,0.4S62.5,49.6,62,49.5c-0.3,0.1-0.6,0.3-0.6,0.5C61.4,49.6,61.8,49.5,62,49.5z"/>
	<path class="st75" d="M63.4,50c0-0.2,0.3-0.4,0.6-0.4c0.3,0,0.6,0.2,0.6,0.4c0,0.2-0.2,0.4-0.5,0.4C63.8,50.4,63.4,50.2,63.4,50z"
		/>
	<ellipse class="st76" cx="64" cy="50" rx="0.3" ry="0.3"/>
	<circle class="st77" cx="63.8" cy="50" r="0.1"/>
	<path class="st78" d="M64,49.5c0.2,0,0.5,0.1,0.6,0.4S64.5,49.6,64,49.5c-0.3,0.1-0.6,0.3-0.6,0.5C63.4,49.6,63.8,49.5,64,49.5z"/>
</g>
<path class="st64" d="M67.6,62.4L67.6,62.4v0.2h-0.2c0,0-0.1,0-0.1-0.1v-0.2l0,0C67.4,62.4,67.5,62.4,67.6,62.4z"/>
<path class="st64" d="M66.8,63.5v0.3l0,0v-0.1V63.5z"/>
<path class="st65" d="M67.3,62.1L67.3,62.1C67.3,61.9,67.2,62,67.3,62.1h-0.2c0,0.1,0,0.3-0.1,0.4c-0.1,0.1-0.1,0.2-0.1,0.4V63v0.8
	c0.1-0.1,0.1-0.2,0.1-0.4v-0.6c0-0.1,0-0.2,0-0.2c0-0.1,0.1-0.3,0.1-0.4c0,0.1,0,0.2,0.1,0.3s0.2,0.2,0.2,0.1s0-0.2,0-0.2
	S67.3,62.2,67.3,62.1z"/>
<path class="st65" d="M67,63.4c0,0.1,0,0.3,0,0.4l0,0V64l0,0v-0.4V63.4L67,63.4"/>
<path class="st64" d="M76.7,62.3L76.7,62.3v0.2h0.2c0,0,0.1,0,0.1-0.1v-0.2l0,0C76.9,62.3,76.8,62.3,76.7,62.3z"/>
<path class="st64" d="M77.5,63.5v0.3l0,0v-0.1C77.5,63.6,77.5,63.5,77.5,63.5L77.5,63.5z"/>
<path class="st65" d="M77.3,63.3c0,0.1,0,0.3,0,0.4l0,0v0.1l0,0V63.3C77.3,63.4,77.3,63.4,77.3,63.3L77.3,63.3"/>
<path class="st79" d="M73.5,51.7h0.2c0,0,1.2,0.3,1.5,0.4s0.6,0.4,0.7,1.2c0,0.1,0,0.2-0.1,0.2c0,0-0.1,0.1-0.1,0
	c-0.1-0.5-0.4-0.9-0.7-1.2c-0.4-0.2-0.9-0.4-1.4-0.4l0,0c-0.1,0-0.2-0.1-0.3-0.1L73.5,51.7z"/>
<path class="st79" d="M69.5,55.1L69.5,55.1c0.1-0.3,0.2-0.5,0.1-0.8v-0.6c0-0.2,0-0.3,0-0.5c0-0.3-0.1-0.6-0.2-0.8l0,0
	c0.1,0.2,0.2,0.5,0.2,0.8c0,0.2,0,0.3,0,0.5c0,0.1,0,0.2,0,0.3v0.3C69.6,54.6,69.6,54.8,69.5,55.1z"/>
<path class="st79" d="M74.8,54.7c-0.1-0.1-0.1-0.2-0.2-0.3c-0.1-0.3-0.2-0.6-0.2-0.9c0-0.4,0-0.8,0-1.2l0,0c0,0.4,0,0.8,0,1.2
	c0,0.3,0.1,0.6,0.2,0.9C74.7,54.5,74.8,54.6,74.8,54.7z"/>
<path class="st80" d="M73.7,51.8L73.7,51.8L73.7,51.8c-0.1,0.4-0.2,0.8-0.5,1c-0.3,0.3-0.7,0.5-1.1,0.5c-0.2,0-0.3,0-0.5-0.1
	S71.2,53,71,52.9c-0.3-0.3-0.5-0.6-0.6-1l0,0c0.1,0,0.1-0.1,0.2-0.1l0,0c0.1,0.4,0.3,0.7,0.6,1c0.1,0.1,0.3,0.2,0.4,0.3
	c0.1,0,0.3,0,0.4,0c0.3,0,0.7-0.2,0.9-0.4c0.2-0.3,0.4-0.6,0.5-0.9l0,0"/>
<path class="st79" d="M73.7,51.8L73.7,51.8c0,0.1,0,0.1,0,0.2l0,0c-0.1,0.3-0.2,0.5-0.4,0.7c-0.3,0.3-0.7,0.5-1.1,0.5
	c-0.2,0-0.3,0-0.5-0.1s-0.4-0.2-0.6-0.3c-0.2-0.2-0.4-0.5-0.5-0.8l-0.1-0.2l0,0c0,0.1,0,0.2,0.1,0.2c0.1,0.3,0.2,0.6,0.5,0.8
	c0.2,0.1,0.4,0.3,0.6,0.3c0.1,0,0.3,0.1,0.4,0.1h0.1c0.4,0,0.9-0.2,1.2-0.5c0.2-0.2,0.3-0.5,0.4-0.8C73.8,51.9,73.8,51.8,73.7,51.8
	L73.7,51.8L73.7,51.8z M73.5,51.8L73.5,51.8c0,0.1-0.1,0.2-0.1,0.3c-0.1,0.2-0.2,0.4-0.4,0.6c-0.3,0.2-0.6,0.4-0.9,0.4H72
	c-0.1,0-0.2,0-0.3,0c-0.2-0.1-0.3-0.2-0.4-0.3c-0.2-0.2-0.4-0.5-0.5-0.8l0,0c0-0.1-0.1-0.2-0.1-0.3l0,0l0.1,0.3
	c0.1,0.3,0.3,0.5,0.5,0.7c0.1,0.1,0.3,0.2,0.5,0.3c0.1,0,0.3,0,0.4,0c0.6,0,1.1-0.4,1.3-1V51.8L73.5,51.8L73.5,51.8z"/>
<path class="st81" d="M75.2,54.9c-0.1,0-0.1,0-0.2,0.1l-0.1-0.1c-0.1-0.1-0.2-0.2-0.2-0.3c0-0.2-0.1-0.3-0.1-0.5s-0.1-0.3-0.1-0.5
	c0.1,0.2,0.2,0.4,0.3,0.6c0,0.2,0.1,0.3,0.2,0.4C75,54.6,75.1,54.7,75.2,54.9C75.1,54.8,75.2,54.9,75.2,54.9z"/>
<path class="st81" d="M69.7,54.5c0,0.2-0.1,0.4-0.2,0.6V55h-0.1c0-0.1,0.1-0.2,0.1-0.3s0-0.2,0-0.3c0-0.2,0.1-0.5,0.1-0.7l0.1,0.1
	V54C69.6,54,69.7,54.4,69.7,54.5z"/>
<path class="st82" d="M71.9,59.8c-0.2,0.1-0.3,0.1-0.5,0.1c-0.5-0.1-1.1-0.3-1.5-0.6l-0.2-0.1L69.5,59h-0.3v-0.3
	c0.2,0,0.3,0,0.5,0.1c0.1,0.1,0.2,0.2,0.3,0.3c0.4,0.2,0.9,0.4,1.5,0.4C71.7,59.6,71.8,59.6,71.9,59.8z"/>
<path class="st82" d="M69.7,57c0,0.2,0,0.3,0,0.5c0.1,0.1,0.1,0.2,0.1,0.4c0,0,0,0.1-0.1,0.1l-0.3,0.4v-0.8c0-0.2,0-0.4,0-0.6
	c0-0.2,0-0.4,0.1-0.7c0-0.3,0-0.6,0-0.9l0,0c0.1,0.2,0.1,0.5,0.1,0.7c0,0.1,0,0.2,0,0.3s0.1,0.1,0.1,0.2
	C69.7,56.8,69.7,56.9,69.7,57L69.7,57z"/>
<path d="M70.4,70.9L70.4,70.9z M70.5,70.9L70.5,70.9z M70.6,70.9L70.6,70.9z M70.7,70.8L70.7,70.8z M70.9,70.8L70.9,70.8z M71,70.8
	L71,70.8z M71.1,70.8L71.1,70.8z M71.2,70.8L71.2,70.8z"/>
<path d="M72.1,59.3h2.6c0,0.2,0.1,0.3,0.1,0.5h-2.7V59.3z M74.6,59.3h-2.5v0.4h2.6C74.7,59.6,74.7,59.4,74.6,59.3L74.6,59.3z"/>
<path d="M69.3,59.7L69.3,59.7v-0.5l0,0c0.8,0,1.7,0.1,2.6,0.1h0.2v0.5h-0.3C71,59.8,70.1,59.8,69.3,59.7z M72,59.3L72,59.3
	c-0.9,0-1.8-0.1-2.6-0.1v0.4c0.7,0,1.6,0.1,2.4,0.1H72V59.3z"/>
<path d="M74.9,60.6c-0.5-0.1-1-0.4-1.3-0.8h1.2C74.8,60.1,74.8,60.3,74.9,60.6L74.9,60.6L74.9,60.6z M73.6,59.8
	c0.3,0.4,0.8,0.7,1.3,0.7c0-0.3-0.1-0.5-0.1-0.8L73.6,59.8L73.6,59.8z"/>
<path d="M69.1,60.5c0-0.3,0.1-0.6,0.2-0.8l0,0c0.3,0,0.8,0.1,1.2,0.1l0,0C70.1,60.2,69.6,60.5,69.1,60.5L69.1,60.5L69.1,60.5z
	 M69.4,59.7c-0.1,0.2-0.2,0.5-0.2,0.7c0.5-0.1,1-0.3,1.3-0.7C70.2,59.8,69.7,59.7,69.4,59.7z"/>
<path class="st83" d="M71.4,59.5c0,0.1,0.1,0.1,0.2,0.1s0.2,0,0.2-0.1s-0.1-0.1-0.2-0.1S71.4,59.5,71.4,59.5z"/>
<path d="M72.1,59.4L72.1,59.4z M72.3,59.4L72.3,59.4z M72.4,59.4L72.4,59.4z M72.5,59.4L72.5,59.4z M72.6,59.4L72.6,59.4z
	 M72.7,59.4L72.7,59.4z M72.9,59.4L72.9,59.4z M73,59.3L73,59.3z M73.2,59.3L73.2,59.3z M73.3,59.3L73.3,59.3z M73.4,59.3L73.4,59.3
	z M73.5,59.3L73.5,59.3z M73.7,59.3L73.7,59.3z M73.8,59.3L73.8,59.3z M73.9,59.3L73.9,59.3z M74.1,59.3L74.1,59.3z M74.2,59.3
	L74.2,59.3z M74.3,59.3L74.3,59.3z M74.4,59.3L74.4,59.3z"/>
<path d="M72.2,59.7L72.2,59.7z M72.3,59.7L72.3,59.7z M72.4,59.7L72.4,59.7z M72.6,59.7L72.6,59.7z M72.7,59.7L72.7,59.7z
	 M72.8,59.7L72.8,59.7z M73,59.7L73,59.7z M73.1,59.7L73.1,59.7z M73.2,59.7L73.2,59.7z M73.3,59.7L73.3,59.7z M73.5,59.7L73.5,59.7
	z M73.6,59.7L73.6,59.7z M73.7,59.7L73.7,59.7z M73.9,59.7L73.9,59.7z M74,59.7L74,59.7z M74.2,59.7L74.2,59.7z M74.3,59.7
	L74.3,59.7z M74.4,59.7L74.4,59.7z M69.6,59.7L69.6,59.7L69.6,59.7L69.6,59.7z M74.5,59.7L74.5,59.7z M74.7,59.7L74.7,59.7z"/>
<path d="M71.6,60.9L71.6,60.9z M71.5,60.9L71.5,60.9z M71.5,60.8L71.5,60.8z M71.5,60.7L71.5,60.7z M71.5,60.6L71.5,60.6z
	 M71.5,60.5L71.5,60.5z M71.5,60.5L71.5,60.5z M71.5,60.4L71.5,60.4z M71.5,60.3L71.5,60.3z M71.5,60.2L71.5,60.2z M71.5,60.1
	L71.5,60.1z M71.5,60.1L71.5,60.1L71.5,60.1L71.5,60.1z"/>
<path d="M71.6,60.9L71.6,60.9z M71.6,60.8L71.6,60.8L71.6,60.8z M71.6,60.7L71.6,60.7z M71.6,60.6L71.6,60.6L71.6,60.6z M71.6,60.5
	L71.6,60.5z M71.6,60.4L71.6,60.4L71.6,60.4z M71.6,60.4L71.6,60.4L71.6,60.4z M71.6,60.3L71.6,60.3z M71.6,60.2L71.6,60.2z
	 M71.6,60L71.6,60L71.6,60L71.6,60z"/>
<path d="M73.6,60.3L73.6,60.3z M73.5,60L73.5,60z M73.5,59.9L73.5,59.9z M73.5,59.8L73.5,59.8z M73.5,59.8L73.5,59.8z"/>
<path d="M69.2,60.6L69.2,60.6z M69.4,60.6L69.4,60.6z M69.5,60.6L69.5,60.6z M69.6,60.6L69.6,60.6z M70,60.6L70,60.6z M70.1,60.5
	L70.1,60.5z"/>
<polygon class="st84" points="74,59.8 74.2,59.8 74.2,59.3 74,59.3 "/>
<path d="M73.9,59.3h0.3v0.6H74L73.9,59.3z M74.1,59.3L74.1,59.3L74,59.8h0.1V59.3z"/>
<polygon class="st84" points="69.8,59.8 69.7,59.7 69.7,59.2 69.9,59.2 "/>
<path d="M69.6,59.8v-0.6h0.3L69.6,59.8L69.6,59.8z M69.7,59.2v0.5h0.1L69.7,59.2L69.7,59.2z"/>
<polygon class="st84" points="72.8,59.8 72.6,59.8 72.6,59.3 72.8,59.3 "/>
<path class="st65" d="M71.9,50.9L71.9,50.9L71.9,50.9C71.9,51,71.9,51,71.9,50.9L71.9,50.9z"/>
<g class="st85">
	<text transform="matrix(1 0 0 1 7.79 32.3)" class="st86 st87 st88">Ibra na Elly are twins!</text>
	<text transform="matrix(1 0 0 1 7.79 37.1)" class="st86 st87 st88">as they were playing</text>
	<text transform="matrix(1 0 0 1 7.79 41.9)" class="st86 st87 st88">outside,</text>
	<text transform="matrix(1 0 0 1 7.79 46.7)" class="st86 st87 st88">their mom called them</text>
	<text transform="matrix(1 0 0 1 7.79 51.5)" class="st86 st87 st88">to teach about</text>
	<text transform="matrix(1 0 0 1 7.79 56.3)" class="st86 st87 st88">private parts.</text>
</g>
<g>
	<path id="neck_2_" class="st68" d="M70.8,51.2c0-0.1,2.7,0,2.7,0s-0.2,0.6-0.2,0.8c0,0.3,0.2,0.7,0.2,0.7c0,0-0.4,0.5-1.3,0.5
		c-0.9,0-1.3-0.5-1.3-0.5c0-0.1,0-0.3,0-0.6C71,51.7,70.9,51.3,70.8,51.2z"/>
	<path class="st65" d="M71.1,51.9c0.6,0.3,1.3,0.3,1.8,0.1c0.2-0.1,0.4-0.2,0.4-0.3c0-0.1,0-0.1,0-0.2c0,0,0-0.1,0-0.2v0
		c0,0-0.1,0-0.1,0c-0.7,0-1.3,0.1-2,0c-0.1,0-0.2,0-0.3,0c-0.1,0-0.1,0,0,0.1C71,51.6,71.1,51.7,71.1,51.9z"/>
	<g>
		<g>
			<path class="st65" d="M67.1,62.9c0,0.1,0.1,0.2,0.2,0.3c0,0,0.1,0.1,0.2,0.2c0,0,0,0,0.1,0c0,0,0,0,0,0.1c0,0,0,0.1,0,0.1
				c0,0-0.1,0.1-0.1,0.1s-0.1,0-0.1,0c-0.2-0.1-0.3-0.2-0.4-0.3c0-0.1-0.1-0.2-0.1-0.3c0-0.1,0-0.2,0-0.2c-0.1,0.2,0.1,0.5,0.2,0.7
				c0,0,0,0.1,0,0.1s0.1,0.1,0.1,0.2c0,0,0.1,0.1,0.1,0.2c0,0,0,0,0,0.1c0,0,0,0.1-0.1,0.1c0,0-0.1,0.1-0.2,0.1c0,0-0.1,0-0.1-0.1
				c0,0-0.1-0.1-0.1-0.2c0,0-0.1-0.1-0.1-0.1c-0.2-0.2-0.2-0.5-0.2-0.7c0-0.1,0-0.2,0.1-0.3c0,0,0-0.1,0.1-0.1c0,0,0-0.1,0-0.1
				c0-0.1,0.1-0.1,0.2-0.2c0.1,0,0.2-0.1,0.2-0.1c0.1,0,0.1,0,0.1,0c0,0,0,0.1,0,0.2C67,62.7,67.1,62.8,67.1,62.9z"/>
			<path class="st68" d="M66.6,63.1c0,0.1,0,0.2,0,0.2c0,0.1,0.1,0.2,0.1,0.2c0,0.1,0.1,0.2,0.1,0.3c0,0,0,0.1,0,0.2
				c0,0.1,0,0.1,0,0.2l0,0c0,0-0.1,0-0.2,0c0,0-0.1-0.1-0.1-0.2c-0.1-0.2-0.2-0.5-0.2-0.7c-0.1-0.4-0.1-0.8-0.1-1.2
				c0-0.1,0-0.2,0.1-0.3c0-0.2,0.1-0.3,0.2-0.5c0,0,0,0,0,0c0,0,0,0,0,0c0,0,0.1-0.1,0.2-0.1c0.1,0,0.1,0,0.2,0s0.2,0,0.3,0.1
				c0.1,0,0.1,0.1,0.1,0.2c0,0,0,0.1,0,0.1c0,0,0,0,0,0c0,0,0.1,0.1,0.1,0.2c0,0.1,0,0.1,0,0.2s0,0.1,0,0.2c0.1,0.2,0.2,0.3,0.2,0.5
				c0,0,0,0.1,0,0.1c0,0-0.1,0-0.1,0c-0.1,0-0.1,0-0.2,0c0,0,0,0-0.1,0c0,0,0,0,0-0.1c0-0.1-0.1-0.2-0.1-0.3c0,0.2-0.1,0.3-0.1,0.4
				c0,0,0,0,0,0.1c0,0,0,0,0,0.1c0,0.2,0,0.4,0,0.6c0,0.2,0,0.3,0,0.4c0,0.1-0.1,0.1-0.2,0.1c-0.1,0-0.1-0.1-0.1-0.2
				c0-0.1,0-0.2,0-0.3c0-0.1,0-0.1,0-0.2s0-0.1,0-0.2C66.6,63.3,66.6,63.2,66.6,63.1c0-0.2,0.1-0.3,0.2-0.4l0,0c0,0,0-0.1,0-0.1
				c0.1,0.1,0.1,0.3,0,0.3c0,0,0,0.1,0,0.1C66.6,63.1,66.6,63.1,66.6,63.1z"/>
			<path class="st64" d="M67.4,62.7L67.4,62.7c0,0,0,0.1,0,0.2c0,0,0,0.1,0,0.1h-0.2c0,0-0.1,0-0.1-0.1c0,0,0-0.1,0-0.1
				c0,0,0,0,0-0.1c0,0,0,0,0,0C67.3,62.7,67.3,62.7,67.4,62.7z"/>
			<path class="st64" d="M66.6,63.8c0,0,0,0.2,0,0.3c0,0,0,0,0,0c0,0,0,0,0,0c0,0,0,0,0-0.1C66.5,64,66.5,63.8,66.6,63.8
				C66.6,63.8,66.6,63.8,66.6,63.8z"/>
			<path class="st65" d="M67.1,62.5C67.1,62.5,67.1,62.5,67.1,62.5c-0.1-0.1-0.1-0.1-0.2-0.1c0,0-0.1,0.1-0.1,0.1
				c0,0.1,0,0.2-0.1,0.4c0,0.1-0.1,0.3-0.1,0.4c0,0,0,0.1,0,0.1c0,0,0,0.1,0,0.2c0,0.2,0,0.3,0,0.5c0,0,0,0.1,0,0.2c0,0,0,0,0,0.1
				c0.1-0.1,0.1-0.2,0.1-0.4c0-0.1,0-0.2,0-0.3c0-0.1,0-0.2,0-0.3s0-0.2,0-0.2c0-0.2,0.1-0.3,0.1-0.4c0,0.1,0,0.2,0.1,0.3
				c0,0.1,0.2,0.2,0.2,0.1c0,0,0-0.2,0-0.2C67.1,62.6,67.1,62.6,67.1,62.5z"/>
			<path class="st65" d="M66.8,63.7c0,0.1,0,0.3,0,0.4c0,0,0,0,0,0c0,0,0,0,0,0v0c0,0,0,0.1,0,0.1l0,0h0c0,0,0,0,0,0l0,0l0-0.1
				c0-0.1,0-0.2,0-0.3C66.8,63.8,66.8,63.8,66.8,63.7C66.8,63.8,66.8,63.7,66.8,63.7L66.8,63.7"/>
		</g>
		<path class="st68" d="M72.2,52.8c-0.2,0-0.5,0-0.8-0.2c-0.2-0.1-0.3-0.2-0.4-0.3c0,0-0.7,0.1-1.2,0.2c-0.3,0-0.5,0.2-0.7,0.2
			c-0.1,0-0.5,0.4-0.6,0.6c0,0.2-0.1,0.4-0.1,0.6c0,0.2,0,0.4-0.1,0.6c0,0.4-0.1,1.4-0.2,1.8c-0.1,0.3-0.1,0.7-0.3,0.9
			c-0.1,0.3-0.3,0.6-0.5,0.9c-0.1,0.2-0.3,0.7-0.3,0.8c-0.1,0.3-0.3,1.1-0.3,1.3c0,0.2-0.2,0.9-0.2,1.1c0,0.2,0,0.2,0.3,0.2
			c0.2,0,0.3-0.1,0.5,0c0.1-0.1,0.1-0.2,0.1-0.3c0.1-0.2,0.3-0.6,0.4-0.8c0.1-0.2,0.8-1.5,0.9-1.6c0.1-0.2,0.3-0.6,0.3-0.8
			c0-0.2,0-0.3,0.1-0.4c0-0.2,0-0.3,0-0.5c0.1-0.3,0.1-0.5,0.2-0.7c0,0,0.1-0.7,0.2-1c0.1-0.4,0-1.3,0-1c0,0.1,0.4,3,0.3,3.8
			s-0.4,1.5-0.4,1.7c-0.1,0.2-0.3,1-0.4,1.2c-0.1,0.3-0.3,1.4-0.3,1.7c0,0.6,0,1,0,1.5c0,0.5,0,0.9,0.1,1.4c0.1,0.6,0.2,1.1,0.2,1.3
			c0,0.3,0.2,0.7,0,0.9c-0.2,0.6-0.2,1.1-0.2,1.7c0,0.6,0.2,1.1,0.4,1.7c0,0.1,0.3,1.1,0.1,1.5c-0.1,0.2-0.3,0.3-0.5,0.5
			c0,0-0.1,0.1-0.1,0.2s0,0.2,0.1,0.2c0,0,0,0,0.1,0c0.4,0,0.4,0,0.7,0c0,0,0.1,0,0.2,0c0,0,0.1,0,0.1,0c0.2,0.1,0.6,0,0.7-0.2
			c0.2-0.3-0.2-0.6,0-0.9c0,0,0-0.1,0-0.2c0-0.1,0-0.2,0-0.3s0-0.9,0-1.1c0-0.3,0-0.6,0.1-0.9c0.1-0.2,0.1-0.4,0.2-0.6
			c0.1-0.4,0-0.8,0-1.1c0-0.4,0-0.7,0-0.8c0-0.5,0.3-1.1,0.4-1.4c0.2-0.6,0.5-3,0.5-3.1c0-0.2,0-0.3,0.2-0.4
			c0.1-0.1,0.2-0.2,0.4-0.2"/>
		<path class="st68" d="M72.2,52.8c0,0-0.2,0-0.4,0c-0.1,0-0.2,0-0.4-0.1c-0.2-0.1-0.3-0.2-0.4-0.3c-0.5,0.1-0.9,0.1-1.2,0.2
			c-0.5,0.1-0.6,0.2-0.7,0.2c-0.3,0.2-0.5,0.5-0.5,0.6c-0.1,0.2-0.1,0.4-0.2,0.6c-0.1,0.4-0.1,0.8-0.1,1c-0.1,0.8-0.1,1-0.2,1.4
			c-0.1,0.4-0.1,0.6-0.3,0.9c-0.1,0.3-0.3,0.6-0.5,0.9c-0.1,0.2-0.3,0.7-0.3,0.8c-0.1,0.3-0.3,1.1-0.3,1.3c0,0.2-0.2,0.9-0.2,1.1
			c0,0.2,0,0.2,0.3,0.2c0.2,0,0.3-0.1,0.5,0c0.1-0.1,0.1-0.2,0.1-0.3c0.1-0.2,0.3-0.6,0.4-0.8c0.1-0.2,0.8-1.5,0.9-1.6
			c0.1-0.2,0.3-0.6,0.3-0.8c0-0.2,0-0.3,0.1-0.4c0-0.2,0-0.3,0-0.5c0.1-0.3,0.1-0.5,0.2-0.7c0,0,0.1-0.7,0.2-1c0.1-0.4,0-1.3,0-1
			c0,0.1,0.4,3,0.3,3.8c0,0.9-0.4,1.5-0.4,1.7c-0.1,0.2-0.3,1-0.4,1.2c-0.1,0.3-0.3,1.4-0.3,1.7c0,0.6,0,1,0,1.5
			c0,0.5,0,0.9,0.1,1.4c0.1,0.6,0.2,1.1,0.2,1.3c0,0.3,0.2,0.7,0,0.9c-0.2,0.6-0.2,1.1-0.2,1.7c0,0.6,0.2,1.1,0.4,1.7
			c0,0.1,0.3,1.1,0.1,1.5c-0.1,0.2-0.3,0.3-0.5,0.5c0,0-0.1,0.1-0.1,0.2s0,0.2,0.1,0.2c0,0,0,0,0.1,0c0.4,0,0.4,0,0.7,0
			c0,0,0.1,0,0.2,0c0,0,0.1,0,0.1,0c0.2,0.1,0.6,0,0.7-0.2c0.2-0.3-0.2-0.6,0-0.9c0,0,0-0.1,0-0.2c0-0.1,0-0.2,0-0.3s0-0.9,0-1.1
			c0-0.3,0-0.6,0.1-0.9c0.1-0.2,0.1-0.4,0.2-0.6c0.1-0.4,0-0.8,0-1.1c0-0.4,0-0.7,0-0.8c0-0.5,0.3-1.1,0.4-1.4
			c0.2-0.6,0.5-3,0.5-3.1c0-0.2,0-0.3,0.2-0.4c0-0.1,0.1-0.1,0.2-0.2c0,0,0.1,0,0.1,0C72.5,55.2,72.5,52.8,72.2,52.8z"/>
		<g>
			<path class="st65" d="M77.3,62.9c0,0.1-0.1,0.2-0.2,0.3c0,0-0.1,0.1-0.2,0.2c0,0,0,0-0.1,0c0,0,0,0,0,0.1c0,0,0,0.1,0,0.1
				c0,0,0.1,0.1,0.1,0.1s0.1,0,0.1,0c0.2-0.1,0.3-0.2,0.4-0.3c0-0.1,0.1-0.2,0.1-0.3c0-0.1,0-0.2,0-0.2c0.1,0.2-0.1,0.5-0.2,0.7
				c0,0,0,0.1,0,0.1s-0.1,0.1-0.1,0.2c0,0-0.1,0.1-0.1,0.2c0,0,0,0,0,0.1c0,0,0,0.1,0.1,0.1c0,0,0.1,0.1,0.2,0.1c0,0,0.1,0,0.1-0.1
				c0,0,0.1-0.1,0.1-0.2c0,0,0.1-0.1,0.1-0.1c0.2-0.2,0.2-0.5,0.2-0.7c0-0.1,0-0.2-0.1-0.3c0,0,0-0.1-0.1-0.1c0,0,0-0.1,0-0.1
				c0-0.1-0.1-0.1-0.2-0.2c-0.1,0-0.2-0.1-0.2-0.1c-0.1,0-0.1,0-0.1,0c0,0,0,0.1,0,0.2C77.4,62.7,77.4,62.8,77.3,62.9z"/>
			<path class="st68" d="M77.8,63.1c0,0.1,0,0.2,0,0.2c0,0.1-0.1,0.2-0.1,0.2c0,0.1-0.1,0.2-0.1,0.3c0,0,0,0.1,0,0.2
				c0,0.1,0,0.1,0,0.2l0,0c0,0,0.1,0,0.2,0c0,0,0.1-0.1,0.1-0.2c0.1-0.2,0.2-0.5,0.2-0.7c0.1-0.4,0.1-0.8,0.1-1.2
				c0-0.1,0-0.2-0.1-0.3c0-0.2-0.1-0.3-0.2-0.5c0,0,0,0,0,0c0,0,0,0,0,0c0,0-0.1-0.1-0.2-0.1c-0.1,0-0.1,0-0.2,0s-0.2,0-0.3,0.1
				c-0.1,0-0.1,0.1-0.1,0.2c0,0,0,0.1,0,0.1c0,0,0,0,0,0c0,0-0.1,0.1-0.1,0.2s0,0.1,0,0.2s0,0.1,0,0.2c-0.1,0.2-0.2,0.3-0.2,0.5
				c0,0,0,0.1,0,0.1c0,0,0.1,0,0.1,0c0.1,0,0.1,0,0.2,0c0,0,0,0,0.1,0c0,0,0,0,0-0.1c0-0.1,0.1-0.2,0.1-0.3c0,0.2,0.1,0.3,0.1,0.4
				c0,0,0,0,0,0.1c0,0,0,0,0,0.1c0,0.2,0,0.4,0,0.6c0,0.2,0,0.3,0,0.4c0,0.1,0.1,0.1,0.2,0.1c0.1,0,0.1-0.1,0.1-0.2
				c0-0.1,0-0.2,0-0.3c0-0.1,0-0.1,0-0.2s0-0.1,0-0.2C77.9,63.3,77.9,63.2,77.8,63.1c0-0.2-0.1-0.3-0.2-0.4l0,0c0,0,0-0.1,0-0.1
				c-0.1,0.1-0.1,0.3,0,0.3c0,0,0,0.1,0,0.1C77.8,63,77.8,63.1,77.8,63.1z"/>
			<path class="st64" d="M77,62.7L77,62.7c0,0,0,0.1,0,0.2c0,0,0,0.1,0,0.1h0.2c0,0,0.1,0,0.1-0.1c0,0,0-0.1,0-0.1c0,0,0,0,0-0.1
				s0,0,0,0C77.2,62.7,77.1,62.7,77,62.7z"/>
			<path class="st64" d="M77.8,63.8c0,0,0,0.2,0,0.3c0,0,0,0,0,0c0,0,0,0,0,0c0,0,0,0,0-0.1S78,63.8,77.8,63.8
				C77.8,63.8,77.8,63.8,77.8,63.8z"/>
			<path class="st65" d="M77.4,62.4C77.4,62.4,77.4,62.4,77.4,62.4c0.1-0.1,0.1-0.1,0.2-0.1c0,0,0.1,0.1,0.1,0.1
				c0,0.1,0,0.2,0.1,0.4c0,0.1,0.1,0.3,0.1,0.4c0,0,0,0.1,0,0.1c0,0,0,0.1,0,0.2c0,0.2,0,0.3,0,0.5c0,0,0,0.1,0,0.2c0,0,0,0,0,0.1
				c-0.1-0.1-0.1-0.2-0.1-0.4c0-0.1,0-0.2,0-0.3s0-0.2,0-0.3s0-0.2,0-0.2c0-0.2-0.1-0.3-0.1-0.4c0,0.1,0,0.2-0.1,0.3
				c0,0.1-0.2,0.2-0.2,0.1c0,0,0-0.2,0-0.2C77.3,62.6,77.3,62.5,77.4,62.4z"/>
			<path class="st65" d="M77.6,63.7c0,0.1,0,0.3,0,0.4c0,0,0,0,0,0c0,0,0,0,0,0v0c0,0,0,0.1,0,0.1l0,0h0c0,0,0,0,0,0l0,0l0-0.1
				c0-0.1,0-0.2,0-0.3C77.6,63.8,77.6,63.8,77.6,63.7C77.6,63.7,77.6,63.7,77.6,63.7L77.6,63.7"/>
		</g>
		<path class="st68" d="M72.2,52.8c0,0,0.2,0,0.4,0c0.1,0,0.2,0,0.4-0.1c0.2-0.1,0.3-0.2,0.4-0.3c0.5,0.1,0.9,0.1,1.2,0.2
			c0.5,0.1,0.6,0.2,0.7,0.2c0.3,0.2,0.5,0.5,0.5,0.6c0.1,0.2,0.1,0.4,0.2,0.6c0.1,0.4,0.1,0.8,0.1,1c0.1,0.8,0.1,1,0.2,1.4
			c0.1,0.4,0.1,0.6,0.3,0.9c0.1,0.3,0.3,0.6,0.5,0.9c0.1,0.2,0.3,0.7,0.3,0.8c0.1,0.3,0.3,1.1,0.3,1.3c0,0.2,0.2,0.9,0.2,1.1
			c0,0.2,0,0.2-0.3,0.2c-0.2,0-0.3-0.1-0.5,0c-0.1-0.1-0.1-0.2-0.1-0.3c-0.1-0.2-0.3-0.6-0.4-0.8c-0.1-0.2-0.8-1.5-0.9-1.6
			c-0.1-0.2-0.3-0.6-0.3-0.8c0-0.2,0-0.3-0.1-0.4c0-0.2,0-0.3,0-0.5c-0.1-0.3-0.1-0.5-0.2-0.7c0,0-0.1-0.7-0.2-1c-0.1-0.4,0-1.3,0-1
			c0,0.1-0.4,3-0.3,3.8s0.4,1.5,0.4,1.7c0.1,0.2,0.3,1,0.4,1.2c0.1,0.3,0.3,1.4,0.3,1.7c0,0.6,0,1,0,1.5c0,0.5,0,0.9-0.1,1.4
			c-0.1,0.6-0.2,1.1-0.2,1.3c0,0.3-0.2,0.7,0,0.9c0.2,0.6,0.2,1.1,0.2,1.7c0,0.6-0.2,1.1-0.4,1.7c0,0.1-0.3,1.1-0.1,1.5
			c0.1,0.2,0.3,0.3,0.5,0.5c0,0,0.1,0.1,0.1,0.2s0,0.2-0.1,0.2c0,0,0,0-0.1,0c-0.4,0-0.4,0-0.7,0c0,0-0.1,0-0.2,0c0,0-0.1,0-0.1,0
			c-0.2,0.1-0.6,0-0.7-0.2c-0.2-0.3,0.2-0.6,0-0.9c0,0,0-0.1,0-0.2c0-0.1,0-0.2,0-0.3c0-0.1,0-0.9,0-1.1c0-0.3,0-0.6-0.1-0.9
			c-0.1-0.2-0.1-0.4-0.2-0.6c-0.1-0.4,0-0.8,0-1.1c0-0.4,0-0.7,0-0.8c0-0.5-0.3-1.1-0.4-1.4c-0.2-0.6-0.5-3-0.5-3.1
			c0-0.2,0-0.3-0.2-0.4c0-0.1-0.1-0.1-0.2-0.2c0,0-0.1,0-0.1,0C71.9,55.2,72,52.8,72.2,52.8z"/>
	</g>
	<ellipse class="st66" cx="70.9" cy="54.8" rx="0.1" ry="0.1"/>
	<path class="st65" d="M71.4,50.8c0.1,0,0.5,0.1,0.8,0.1s0.7-0.1,0.7-0.1c0.1,0,0,0.2-0.7,0.2C71.5,51,71.4,50.8,71.4,50.8z"/>
	<path class="st65" d="M72.1,51.2c0,0,0.1,0.1,0.2,0c0,0,0.1,0,0.1,0c0,0,0.1,0,0,0c0,0,0,0.1-0.2,0.1
		C72.1,51.3,72.1,51.3,72.1,51.2C72,51.2,72.1,51.2,72.1,51.2z"/>
	<ellipse class="st66" cx="73.6" cy="54.8" rx="0.1" ry="0.1"/>
	<g>
		<g>
			<g>
				<g>
					<path class="st89" d="M73.6,52.2C73.6,52.2,73.7,52.2,73.6,52.2C73.7,52.2,73.7,52.2,73.6,52.2c0.1,0,0.1,0,0.1,0c0,0,0,0,0,0
						c0,0,0,0,0,0c0,0,0,0,0,0c0,0,0,0,0,0c0,0,0,0,0,0c0,0,0,0,0,0c0,0,0,0,0.1,0c0,0,0,0,0,0c0,0,0,0,0,0c0,0,0,0,0,0c0,0,0,0,0,0
						c0,0,1.6,0.4,1.7,0.5c0.4,0.1,0.8,0.8,0.8,3c-0.1,0.1-0.3,0.1-0.6,0.2c-0.7,0.2-0.8,0.1-0.8,0.1c-0.1-0.1,0-0.1-0.1-0.3
						c0-0.1-0.1-0.3-0.1-0.3c0,0,0,0.4,0,0.8c0,0.2,0,0.3,0,0.4c0,0.2,0,0.3,0,0.3c0,0.5,0,0.6,0,0.9c0,0.5,0,0.5,0,1
						c0,0.4,0,0.6,0.1,0.8c0.1,0.7,0.3,1,0.2,1.2C75,61,74.8,61,74.6,61c-0.8,0-1.6,0-2.4,0c-0.9,0-1.4,0-1.6,0
						c-0.4,0-1-0.1-1.4-0.2c-0.1,0-0.2-0.1-0.2-0.1c0-0.4,0.2-0.8,0.3-1.3c0-0.1,0-0.2,0-0.3c0-0.1,0-0.2,0-0.3c0-0.1,0-0.2,0-0.2
						c0-0.2,0-0.3,0-0.5c0-0.2,0-0.4,0-0.6c0-0.2,0.1-0.5,0.1-0.6c0.1-0.5,0-0.9,0-0.9c0,0,0,0.1,0,0.1c0,0-0.1-0.2,0-0.5
						c0-0.1,0-0.2,0.1-0.2c0,0.1-0.1,0.2-0.1,0.3c0,0.1,0,0.2-0.1,0.2c-0.1,0.1-0.4,0-1.5-0.6c0,0,0.3-1.6,0.4-1.7
						c0.1-0.2,0.2-0.3,0.4-0.5c0.1-0.1,0.3-0.2,0.4-0.3c0.1-0.1,0.4-0.1,0.5-0.2c0.3-0.1,0.6-0.1,0.8-0.2c0,0,0,0,0,0c0,0,0,0,0,0
						c0,0,0,0,0,0c0,0,0.2-0.1,0.2-0.1c0.1,0.1,0.3,1.3,1.4,1.3C73.6,53.5,73.6,52.2,73.6,52.2z"/>
					<path class="st89" d="M72.1,53.5"/>
				</g>
				<g>
					<g>
						<path class="st79" d="M73.5,52.5"/>
						<path class="st79" d="M73.6,52.2c0.2,0,0.2,0,0.2,0c0,0,0,0,0,0c0,0,0,0,0,0c0,0,0,0,0,0c0,0,0,0,0,0c0,0,1.3,0.3,1.6,0.4
							c0.3,0.1,0.6,0.4,0.8,1.2c0,0,0,0.1-0.1,0.2c0,0-0.1,0-0.1,0c-0.1-0.3-0.2-0.8-0.8-1.1c-0.6-0.4-1.4-0.4-1.4-0.4c0,0,0,0,0,0
							c0,0,0,0,0,0c0,0,0,0,0,0c-0.1-0.1-0.2-0.1-0.3-0.1C73.5,52.4,73.6,52.3,73.6,52.2z"/>
						<path class="st79" d="M73.6,52.2"/>
					</g>
				</g>
				<g>
					<g>
						<path class="st79" d="M70.8,52.5"/>
						<path class="st79" d="M70.6,52.2c-0.2,0-0.2,0-0.2,0c0,0,0,0,0,0c0,0,0,0,0,0c0,0,0,0,0,0c0,0,0,0,0,0c-0.5,0.1-0.8,0.1-1,0.2
							c0,0-0.2,0-0.4,0.2c-0.6,0.3-0.8,1.2-0.9,1.4c0,0,0,0-0.1,0c0,0,0.1,0.1,0.2,0.2c0.1-0.2,0.3-0.9,0.9-1.3
							c0.2-0.1,0.4-0.2,0.4-0.2c0.2-0.1,0.5-0.1,0.8-0.2c0,0,0,0,0,0c0,0,0,0,0,0c0,0,0,0,0,0c0.1,0,0.2-0.1,0.3-0.1
							C70.7,52.4,70.7,52.3,70.6,52.2z"/>
						<path class="st79" d="M70.7,52.2"/>
					</g>
				</g>
				<g>
					<path class="st79" d="M69.4,55.6L69.4,55.6c0.1-0.3,0.1-0.5,0.1-0.8c0-0.1,0-0.2,0-0.3c0-0.1,0-0.2,0-0.3c0-0.2,0-0.3,0-0.5
						c0-0.3-0.1-0.6-0.2-0.8l0,0c0.1,0.2,0.2,0.5,0.2,0.8c0,0.2,0,0.3,0,0.5c0,0.1,0,0.2,0,0.3c0,0.1,0,0.2,0,0.3
						C69.6,55,69.6,55.3,69.4,55.6z"/>
				</g>
				<g>
					<path class="st79" d="M75,55.1c0-0.1-0.1-0.2-0.2-0.3c-0.1-0.2-0.1-0.4-0.2-0.9c0-0.4,0-0.8,0-1.2l0,0c0,0.5-0.1,0.8,0,1.2
						c0.1,0.5,0.2,0.8,0.2,0.9C75,54.9,75,55.1,75,55.1z"/>
				</g>
				<g>
					<g>
						<path class="st80" d="M73.9,52.3C73.9,52.3,73.9,52.3,73.9,52.3L73.9,52.3c-0.1,0.4-0.2,0.6-0.5,1c-0.3,0.4-0.7,0.5-1.2,0.5
							c-0.2,0-0.4,0-0.5-0.1c-0.2-0.1-0.5-0.2-0.6-0.3c-0.4-0.4-0.5-0.5-0.6-1l0,0c0,0,0,0,0,0c0.1,0,0.1-0.1,0.2-0.1c0,0,0,0,0,0
							l0,0c0.1,0.4,0.3,0.7,0.6,1c0.1,0.1,0.4,0.2,0.5,0.3c0.1,0,0.3,0.1,0.4,0.1c0.3,0,0.7-0.2,1-0.4c0.3-0.2,0.4-0.5,0.5-0.9l0,0"
							/>
					</g>
					<g>
						<g>
							<path class="st79" d="M73.9,52.3C73.9,52.3,73.9,52.3,73.9,52.3C73.9,52.3,73.9,52.3,73.9,52.3L73.9,52.3
								c0,0.1-0.1,0.2-0.1,0.3h0c-0.1,0.3-0.2,0.4-0.4,0.7c-0.3,0.4-0.8,0.5-1.2,0.5c-0.2,0-0.4,0-0.5-0.1c-0.2-0.1-0.5-0.2-0.6-0.3
								c-0.3-0.3-0.4-0.4-0.5-0.8c0-0.1,0-0.1-0.1-0.2l0,0c0,0,0,0,0,0c0,0,0,0,0,0l0,0l0,0c0,0.1,0,0.2,0.1,0.2
								c0.1,0.4,0.2,0.5,0.5,0.8c0.1,0.1,0.5,0.3,0.7,0.3c0.1,0,0.3,0.1,0.4,0.1c0,0,0.1,0,0.1,0c0.4,0,0.9-0.1,1.2-0.5
								c0.2-0.3,0.4-0.5,0.5-0.7C73.8,52.5,73.8,52.4,73.9,52.3L73.9,52.3C73.9,52.3,73.9,52.3,73.9,52.3z M73.6,52.2
								C73.6,52.2,73.6,52.2,73.6,52.2L73.6,52.2c-0.1,0.1-0.1,0.2-0.1,0.3c-0.1,0.2-0.2,0.4-0.4,0.6c-0.3,0.2-0.6,0.4-1,0.4
								c0,0,0,0,0,0c0,0,0,0-0.1,0c0,0,0,0,0,0c0,0,0,0,0,0c-0.1,0-0.2,0-0.3-0.1c-0.1,0-0.4-0.2-0.5-0.2c-0.2-0.2-0.4-0.4-0.5-0.7
								c0,0,0,0,0,0c0-0.1-0.1-0.2-0.1-0.3l0,0c0,0,0,0,0,0c0,0,0,0,0,0l0,0c0,0.1,0.1,0.2,0.1,0.3c0.1,0.3,0.3,0.5,0.5,0.7
								c0.1,0.1,0.4,0.2,0.5,0.3c0.1,0,0.3,0.1,0.4,0.1c0.4,0,0.7-0.2,1-0.4c0.2-0.2,0.3-0.4,0.4-0.6C73.5,52.4,73.6,52.4,73.6,52.2
								L73.6,52.2C73.6,52.2,73.6,52.2,73.6,52.2z"/>
						</g>
					</g>
				</g>
				<path class="st90" d="M75.4,55.4c-0.1,0-0.2,0-0.2,0c0,0-0.1-0.1-0.1-0.1C75,55.2,75,55.1,74.9,55c-0.1-0.1-0.1-0.3-0.1-0.5
					c0-0.1-0.1-0.3-0.1-0.4c0.1,0.1,0.2,0.3,0.3,0.6c0,0.1,0.1,0.3,0.2,0.4c0.1,0,0.1,0.1,0.1,0.2C75.3,55.3,75.4,55.4,75.4,55.4z"
					/>
				<path class="st90" d="M69.6,55c0,0.2-0.1,0.4-0.2,0.6c0-0.1,0-0.1,0-0.1c0,0-0.1,0-0.1,0c0-0.1,0.1-0.2,0.1-0.3
					c0-0.1,0-0.2,0.1-0.3c0-0.2,0.1-0.5,0.1-0.7c0,0,0.1,0.1,0.1,0.1c0,0,0,0.1,0,0.1C69.6,54.7,69.6,54.8,69.6,55z"/>
			</g>
			<path class="st91" d="M71.9,60.1c-0.2,0.1-0.4,0.1-0.5,0.1c-0.6,0-1.1-0.4-1.6-0.6c-0.1,0-0.1-0.1-0.2-0.1c0,0-0.1,0-0.1-0.1
				c0,0-0.1,0-0.3,0c0-0.1,0-0.2,0-0.3c0.2,0,0.4,0,0.5,0.1c0.1,0.1,0.2,0.2,0.3,0.3c0.4,0.3,1,0.3,1.5,0.4
				C71.7,60,71.9,60,71.9,60.1z"/>
			<path class="st91" d="M69.6,57.5c0,0.2,0,0.3,0,0.5c0,0.1,0.1,0.2,0.1,0.4c0,0.1,0,0.1-0.1,0.1c-0.1,0.1-0.2,0.3-0.3,0.4
				c0-0.1,0-0.2,0-0.2c0-0.2,0-0.3,0-0.5c0-0.2,0-0.4,0-0.6c0-0.2,0.1-0.5,0.1-0.6c0-0.3,0-0.6,0-0.9c0,0,0,0,0,0
				c0.1,0.2,0.1,0.4,0.1,0.7c0,0.1,0,0.2,0,0.3c0,0.1,0.1,0.1,0.1,0.2c0.1,0.1,0.1,0.3,0.1,0.4C69.7,57.5,69.6,57.5,69.6,57.5z"/>
		</g>
	</g>
	<path id="neck_4_" class="st68" d="M70.7,51.2c0-0.1,2.7,0,2.7,0s-0.2,0.6-0.2,0.8c0,0.3,0.2,0.7,0.2,0.7c0,0-0.4,0.5-1.3,0.5
		c-0.9,0-1.3-0.5-1.3-0.5c0-0.1,0-0.3,0-0.6C70.9,51.8,70.8,51.4,70.7,51.2z"/>
	<path class="st65" d="M71,52c0.6,0.3,1.3,0.3,1.8,0.1c0.2-0.1,0.4-0.2,0.4-0.3c0-0.1,0-0.1,0-0.2c0,0,0-0.1,0-0.2v0
		c0,0-0.1,0-0.1,0c-0.7,0-1.3,0.1-2,0c-0.1,0-0.2,0-0.3,0c-0.1,0-0.1,0,0,0.1C70.9,51.6,71,51.8,71,52z"/>
	<path class="st65" d="M71.9,51.3c0,0,0.1,0.1,0.2,0c0,0,0.1,0,0.1,0c0,0,0.1,0,0,0c0,0,0,0.1-0.2,0.1S71.9,51.4,71.9,51.3
		C71.9,51.3,71.9,51.3,71.9,51.3z"/>
	<ellipse class="st66" cx="73.5" cy="54.9" rx="0.1" ry="0.1"/>
	<path id="neck_5_" class="st68" d="M70.7,51.2c0-0.1,2.7,0,2.7,0s-0.2,0.6-0.2,0.8c0,0.3,0.2,0.7,0.2,0.7c0,0-0.4,0.5-1.3,0.5
		c-0.9,0-1.3-0.5-1.3-0.5c0-0.1,0-0.3,0-0.6C70.9,51.8,70.8,51.4,70.7,51.2z"/>
	<path class="st65" d="M71,52c0.6,0.3,1.3,0.3,1.8,0.1c0.2-0.1,0.4-0.2,0.4-0.3c0-0.1,0-0.1,0-0.2c0,0,0-0.1,0-0.2v0
		c0,0-0.1,0-0.1,0c-0.7,0-1.3,0.1-2,0c-0.1,0-0.2,0-0.3,0c-0.1,0-0.1,0,0,0.1C70.9,51.6,71,51.8,71,52z"/>
	<ellipse class="st66" cx="70.8" cy="54.9" rx="0.1" ry="0.1"/>
	<path class="st65" d="M71.7,51.8c0,0,0.2,0.1,0.4,0.1c0.2,0,0.3,0,0.4-0.1c0,0,0,0.1-0.4,0.1C71.7,51.9,71.7,51.8,71.7,51.8z"/>
	<path class="st65" d="M71.9,51.3c0,0,0.1,0.1,0.2,0c0,0,0.1,0,0.1,0c0,0,0.1,0,0,0c0,0,0,0.1-0.2,0.1S71.9,51.4,71.9,51.3
		C71.9,51.3,71.9,51.3,71.9,51.3z"/>
	<ellipse class="st66" cx="73.5" cy="54.9" rx="0.1" ry="0.1"/>
	<g>
		<path d="M70.2,71.1L70.2,71.1L70.2,71.1L70.2,71.1L70.2,71.1L70.2,71.1z M70.1,71.1L70.1,71.1L70.1,71.1L70.1,71.1L70.1,71.1z
			 M70.4,71.1L70.4,71.1L70.4,71.1L70.4,71.1L70.4,71.1z M70,71.1L70,71.1L70,71.1L70,71.1L70,71.1z M70.5,71.1L70.5,71.1L70.5,71.1
			L70.5,71.1L70.5,71.1z M70.6,71.1L70.6,71.1L70.6,71.1L70.6,71.1L70.6,71.1z M69.8,71.1L69.8,71.1L69.8,71.1L69.8,71.1L69.8,71.1z
			 M70.7,71.1L70.7,71.1L70.7,71.1L70.7,71.1L70.7,71.1z M69.7,71.1L69.7,71.1L69.7,71.1L69.7,71.1L69.7,71.1z M70.9,71.1L70.9,71.1
			L70.9,71.1L70.9,71.1L70.9,71.1z M69.6,71.1L69.6,71.1L69.6,71.1L69.6,71.1L69.6,71.1z M71,71.1L71,71.1L71,71.1L71,71.1L71,71.1z
			 M69.4,71.1L69.4,71.1L69.4,71.1L69.4,71.1L69.4,71.1z M71.1,71.1L71.1,71.1L71.1,71.1L71.1,71.1L71.1,71.1z M69.3,71.1L69.3,71.1
			L69.3,71.1L69.3,71.1L69.3,71.1z M71.3,71L71.3,71L71.3,71L71.3,71L71.3,71z M69.2,71L69.2,71L69.2,71L69.2,71L69.2,71z M69.1,71
			L69.1,71L69.1,71L69.1,71L69.1,71z"/>
		<path d="M74.2,71.1L74.2,71.1L74.2,71.1L74.2,71.1L74.2,71.1z M74.1,71.2L74.1,71.2L74.1,71.2L74.1,71.2L74.1,71.2z M74.3,71.1
			L74.3,71.1L74.3,71.1L74.3,71.1L74.3,71.1z M73.9,71.2L73.9,71.2L73.9,71.2L73.9,71.2L73.9,71.2z M74.5,71.1L74.5,71.1L74.5,71.1
			L74.5,71.1L74.5,71.1z M73.8,71.1L73.8,71.1L73.8,71.1L73.8,71.1L73.8,71.1z M74.6,71.1L74.6,71.1L74.6,71.1L74.6,71.1L74.6,71.1z
			 M73.7,71.1L73.7,71.1L73.7,71.1L73.7,71.1L73.7,71.1z M74.7,71.1L74.7,71.1L74.7,71.1L74.7,71.1L74.7,71.1z M73.5,71.1L73.5,71.1
			L73.5,71.1L73.5,71.1L73.5,71.1z M74.9,71.1L74.9,71.1L74.9,71.1L74.9,71.1L74.9,71.1z M75,71.1L75,71.1L75,71.1L75,71.1L75,71.1z
			 M73.4,71.1L73.4,71.1L73.4,71.1L73.4,71.1L73.4,71.1z M75.1,71.1L75.1,71.1L75.1,71.1L75.1,71.1L75.1,71.1z M73.3,71.1L73.3,71.1
			L73.3,71.1L73.3,71.1L73.3,71.1z M75.2,71.1L75.2,71.1L75.2,71.1L75.2,71.1L75.2,71.1z M73.1,71.1L73.1,71.1L73.1,71.1L73.1,71.1
			L73.1,71.1z M75.4,71.1L75.4,71.1L75.4,71.1L75.4,71.1L75.4,71.1z M73,71.1L73,71.1L73,71.1L73,71.1L73,71.1z M75.5,71L75.5,71
			L75.5,71L75.5,71L75.5,71z"/>
		<g>
			<path d="M68.8,61.1c0-0.1,0-0.1,0-0.2c0-0.1,0-0.2,0-0.4c0-0.2,0.1-0.3,0.2-0.4c0-0.1,0.1-0.2,0.1-0.3c0-0.1,0.1-0.2,0.1-0.3
				c0,0,0.1,0,0.1,0c0,0,0,0,0.1,0h0.3c0,0,0,0,0.1,0c0.3,0,0.7,0.1,1,0.1c0,0,0,0,0.1,0h0.3c0,0,0.1,0,0.1,0h1.4c0,0,0,0,0.1,0h0.3
				c0,0,0.1,0,0.1,0h1.1c0,0,0,0,0.1,0h0.3c0,0,0,0,0.1,0h0.5h0c0,0,0.1,0,0.1,0c0,0,0,0.2,0.1,0.5v0c0.1,0.1,0.1,0.2,0.2,0.4
				c0,0.2,0.1,0.3,0.1,0.4c0,0,0,0.1,0,0.1c0.2,0.6,0.3,1.3,0.3,2c0,0.6,0,1.1,0,1.6c0,2.4,0.1,4.8,0.1,7.1c0,0,0,0-0.1,0h0
				c-0.5,0.1-1.1,0.1-1.6,0.1c-0.4,0-0.9,0-1.3-0.1c0,0,0,0,0,0c-0.1-1.9-0.2-3.9-0.3-5.9c-0.1-1-0.2-1.9-0.3-2.8
				c0,0.2-0.1,0.4-0.1,0.6c-0.1,0.8-0.2,1.6-0.2,2.3l-0.3,5.9c0,0,0,0,0,0c-0.4,0.1-0.9,0.1-1.3,0.1c-0.5,0-1,0-1.5-0.1h0
				c0,0,0,0,0,0l-0.1-7.3c0-0.5,0-1.1,0.1-1.6C68.7,62.4,68.8,61.7,68.8,61.1z"/>
			<path class="st92" d="M72.2,59.7c1.6,0,2.7,0,2.7,0c0,0.2,0.1,0.3,0.1,0.5c0,0-1.2,0-2.8,0L72.2,59.7z"/>
			<path d="M72.1,59.7L72.1,59.7c1.6,0,2.8,0,2.8,0h0l0,0c0,0.1,0.1,0.3,0.1,0.5v0h0c0,0-1.2,0-2.8,0.1h0L72.1,59.7z M74.8,59.7
				c-0.2,0-1.3,0-2.7,0v0.4c1.4,0,2.5,0,2.7,0C74.9,59.9,74.9,59.7,74.8,59.7L74.8,59.7z"/>
			<path class="st92" d="M69.2,60.1c0-0.1,0.1-0.3,0.1-0.4c0.5,0,0.9,0,1.4,0c0.5,0,1,0,1.5,0v0.5c-0.5,0-1,0-1.5,0
				C70.2,60.1,69.7,60.1,69.2,60.1z"/>
			<path d="M69.3,60.1L69.3,60.1L69.3,60.1c0-0.3,0-0.5,0-0.5v0h0c0.8,0,1.8,0.1,2.7,0.1h0.2v0.5h-0.3C71,60.2,70.1,60.1,69.3,60.1z
				 M72.1,59.7L72.1,59.7c-1,0-2-0.1-2.8-0.1c0,0.1,0,0.2,0,0.4c0.8,0,1.7,0.1,2.6,0.1h0.2L72.1,59.7z"/>
			<path class="st84" d="M72.2,60.2c0.6,0,1.1,0,1.6,0c0.1,0.1,0.3,0.4,0.6,0.6c0.4,0.2,0.8,0.3,0.9,0.3c0.3,0.9,0.5,2,0.4,3.2
				c0,0.1,0,0.3,0,0.4c0,2.4,0,4.8,0,7.3c-0.9,0.2-1.9,0.2-2.8,0c0-2-0.1-4.1-0.4-6.3c-0.1-0.9-0.2-1.7-0.3-2.5
				c-0.1-0.6-0.1-1.2-0.1-1.9C72.1,60.8,72.1,60.5,72.2,60.2z"/>
			<path class="st93" d="M73.7,60.2c0.8,0,1.3,0,1.3,0c0.1,0.3,0.1,0.6,0.1,0.8C74.5,60.9,74,60.6,73.7,60.2z"/>
			<path d="M75.1,61c-0.6-0.1-1.1-0.4-1.4-0.8v0h0c0.8,0,1.2,0,1.3,0h0l0,0C75.1,60.4,75.1,60.7,75.1,61L75.1,61L75.1,61z
				 M73.7,60.2c0.3,0.4,0.8,0.6,1.3,0.7c0-0.3-0.1-0.5-0.1-0.8C74.8,60.2,74.4,60.2,73.7,60.2L73.7,60.2z"/>
			<path class="st93" d="M68.9,60.9c0-0.3,0.1-0.5,0.2-0.8c0.4,0,1,0.1,1.4,0.1C70.2,60.6,69.6,60.8,68.9,60.9z"/>
			<path d="M69,60.9c0-0.3,0.1-0.5,0.2-0.8l0,0h0c0.4,0,0.9,0.1,1.3,0.1h0v0C70.2,60.6,69.7,60.9,69,60.9L69,60.9L69,60.9z
				 M69.3,60.1c-0.1,0.2-0.2,0.5-0.2,0.7c0.6-0.1,1.1-0.3,1.4-0.7C70.1,60.2,69.6,60.1,69.3,60.1z"/>
			<path class="st84" d="M68.7,64.6c0-0.5,0-1,0-1.6c0-0.7,0.1-1.4,0.1-2.1c0.2,0,0.6-0.1,0.9-0.3c0.3-0.2,0.5-0.4,0.7-0.5
				c0.6,0,1.2,0,1.7,0c0,0.3,0,0.6,0,1c0,0.3,0,0.6,0,1c0,0.3,0,0.6,0,0.9c0,0.1,0,0.1,0,0.2c-0.2,1-0.3,1.9-0.3,2.8l-0.2,5.9
				c-0.9,0.2-1.9,0.2-2.8,0L68.7,64.6z"/>
			<path class="st83" d="M71.5,59.9c0,0.1,0.1,0.1,0.2,0.1c0.1,0,0.2,0,0.2-0.1s-0.1-0.1-0.2-0.1C71.6,59.8,71.5,59.9,71.5,59.9z"/>
			<path d="M71.4,59.9c0-0.1,0.1-0.1,0.2-0.1c0.1,0,0.2,0.1,0.2,0.1s-0.1,0.1-0.2,0.1C71.5,60.1,71.4,60,71.4,59.9z M71.5,59.9
				c0,0,0.1,0.1,0.1,0.1c0.1,0,0.1,0,0.1-0.1s-0.1-0.1-0.1-0.1C71.6,59.8,71.5,59.9,71.5,59.9z"/>
			<path d="M72.1,59.8L72.1,59.8L72.1,59.8L72.1,59.8L72.1,59.8z M72.2,59.8L72.2,59.8L72.2,59.8L72.2,59.8L72.2,59.8z M72.4,59.8
				L72.4,59.8L72.4,59.8L72.4,59.8L72.4,59.8z M72,59.8L72,59.8L72,59.8L72,59.8L72,59.8z M72.5,59.8L72.5,59.8L72.5,59.8L72.5,59.8
				L72.5,59.8z M71.8,59.8L71.8,59.8L71.8,59.8L71.8,59.8L71.8,59.8z M72.7,59.8L72.7,59.8L72.7,59.8L72.7,59.8L72.7,59.8z
				 M71.6,59.8L71.6,59.8L71.6,59.8L71.6,59.8L71.6,59.8z M72.8,59.8L72.8,59.8L72.8,59.8L72.8,59.8L72.8,59.8z M71.5,59.8
				L71.5,59.8L71.5,59.8L71.5,59.8L71.5,59.8z M72.9,59.8L72.9,59.8L72.9,59.8L72.9,59.8L72.9,59.8z M71.4,59.8L71.4,59.8L71.4,59.8
				L71.4,59.8L71.4,59.8z M73,59.8L73,59.8L73,59.8L73,59.8L73,59.8z M71.2,59.8L71.2,59.8L71.2,59.8L71.2,59.8L71.2,59.8z
				 M73.2,59.7L73.2,59.7L73.2,59.7L73.2,59.7L73.2,59.7z M71.1,59.8L71.1,59.8L71.1,59.8L71.1,59.8L71.1,59.8z M73.4,59.7
				L73.4,59.7L73.4,59.7L73.4,59.7L73.4,59.7z M71,59.8L71,59.8L71,59.8L71,59.8L71,59.8z M73.5,59.7L73.5,59.7L73.5,59.7L73.5,59.7
				L73.5,59.7z M70.8,59.8L70.8,59.8L70.8,59.8L70.8,59.8L70.8,59.8z M70.7,59.8L70.7,59.8L70.7,59.8L70.7,59.8L70.7,59.8z
				 M73.6,59.7L73.6,59.7L73.6,59.7L73.6,59.7L73.6,59.7z M70.5,59.8L70.5,59.8L70.5,59.8L70.5,59.8L70.5,59.8z M73.8,59.7
				L73.8,59.7L73.8,59.7L73.8,59.7L73.8,59.7z M70.4,59.8L70.4,59.8L70.4,59.8L70.4,59.8L70.4,59.8z M73.9,59.7L73.9,59.7L73.9,59.7
				L73.9,59.7L73.9,59.7z M70.3,59.8L70.3,59.8L70.3,59.8L70.3,59.8L70.3,59.8z M74,59.7L74,59.7L74,59.7L74,59.7L74,59.7z
				 M70.1,59.8L70.1,59.8L70.1,59.8L70.1,59.8L70.1,59.8z M74.2,59.7L74.2,59.7L74.2,59.7L74.2,59.7L74.2,59.7z M69.9,59.7
				L69.9,59.7L69.9,59.7L69.9,59.7L69.9,59.7z M74.3,59.7L74.3,59.7L74.3,59.7L74.3,59.7L74.3,59.7z M69.7,59.7L69.7,59.7L69.7,59.7
				L69.7,59.7L69.7,59.7z M74.5,59.7L74.5,59.7L74.5,59.7L74.5,59.7L74.5,59.7z M69.6,59.7L69.6,59.7L69.6,59.7L69.6,59.7L69.6,59.7
				z M74.6,59.7L74.6,59.7L74.6,59.7L74.6,59.7L74.6,59.7z M69.4,59.7L69.4,59.7L69.4,59.7L69.4,59.7L69.4,59.7z M74.8,59.7
				L74.8,59.7L74.8,59.7L74.8,59.7L74.8,59.7z M69.3,59.7L69.3,59.7L69.3,59.7L69.3,59.7L69.3,59.7z"/>
			<path d="M72.2,60.1L72.2,60.1L72.2,60.1L72.2,60.1L72.2,60.1z M72.4,60.1L72.4,60.1L72.4,60.1L72.4,60.1L72.4,60.1z M72.1,60.1
				L72.1,60.1L72.1,60.1L72.1,60.1L72.1,60.1z M72.5,60.1L72.5,60.1L72.5,60.1L72.5,60.1L72.5,60.1z M72,60.1L72,60.1L72,60.1
				L72,60.1L72,60.1z M72.7,60.1L72.7,60.1L72.7,60.1L72.7,60.1L72.7,60.1z M71.8,60.1L71.8,60.1L71.8,60.1L71.8,60.1L71.8,60.1z
				 M72.8,60.1L72.8,60.1L72.8,60.1L72.8,60.1L72.8,60.1z M71.7,60.1L71.7,60.1L71.7,60.1L71.7,60.1L71.7,60.1z M72.9,60.1
				L72.9,60.1L72.9,60.1L72.9,60.1L72.9,60.1z M71.5,60.1L71.5,60.1L71.5,60.1L71.5,60.1L71.5,60.1z M73.1,60.1L73.1,60.1L73.1,60.1
				L73.1,60.1L73.1,60.1z M71.4,60.1L71.4,60.1L71.4,60.1L71.4,60.1L71.4,60.1z M73.2,60.1L73.2,60.1L73.2,60.1L73.2,60.1L73.2,60.1
				z M71.2,60.1L71.2,60.1L71.2,60.1L71.2,60.1L71.2,60.1z M73.4,60.1L73.4,60.1L73.4,60.1L73.4,60.1L73.4,60.1z M71.1,60.1
				L71.1,60.1l0.1,0v0L71.1,60.1z M73.5,60.1L73.5,60.1L73.5,60.1L73.5,60.1L73.5,60.1z M71,60.1L71,60.1L71,60.1L71,60.1L71,60.1z
				 M70.8,60.1L70.8,60.1L70.8,60.1L70.8,60.1L70.8,60.1z M73.6,60.1L73.6,60.1L73.6,60.1L73.6,60.1L73.6,60.1z M70.7,60.1
				L70.7,60.1L70.7,60.1L70.7,60.1L70.7,60.1z M73.8,60.1L73.8,60.1L73.8,60.1L73.8,60.1L73.8,60.1z M70.5,60.1L70.5,60.1L70.5,60.1
				L70.5,60.1L70.5,60.1z M73.9,60.1L73.9,60.1L73.9,60.1L73.9,60.1L73.9,60.1z M70.4,60.1L70.4,60.1L70.4,60.1L70.4,60.1L70.4,60.1
				z M74,60.1L74,60.1L74,60.1L74,60.1L74,60.1z M70.3,60.1L70.3,60.1L70.3,60.1L70.3,60.1L70.3,60.1z M74.2,60.1L74.2,60.1
				L74.2,60.1L74.2,60.1L74.2,60.1z M70.1,60.1L70.1,60.1L70.1,60.1L70.1,60.1L70.1,60.1z M74.3,60.1L74.3,60.1L74.3,60.1L74.3,60.1
				L74.3,60.1z M69.9,60.1L69.9,60.1L69.9,60.1L69.9,60.1L69.9,60.1z M74.5,60.1L74.5,60.1L74.5,60.1L74.5,60.1L74.5,60.1z
				 M69.7,60.1L69.7,60.1L69.7,60.1L69.7,60.1L69.7,60.1z M74.6,60.1L74.6,60.1L74.6,60.1L74.6,60.1L74.6,60.1z M69.6,60.1
				L69.6,60.1L69.6,60.1L69.6,60.1L69.6,60.1z M74.8,60.1L74.8,60.1L74.8,60.1L74.8,60.1L74.8,60.1z M69.5,60.1L69.5,60.1L69.5,60.1
				L69.5,60.1L69.5,60.1z M74.9,60.1L74.9,60.1L74.9,60.1L74.9,60.1L74.9,60.1z M69.3,60.1L69.3,60.1L69.3,60.1L69.3,60.1L69.3,60.1
				z"/>
			<path d="M72.1,61.4L72.1,61.4L72.1,61.4L72.1,61.4L72.1,61.4z M71.9,61.4L71.9,61.4L71.9,61.4L71.9,61.4L71.9,61.4z M71.8,61.4
				L71.8,61.4L71.8,61.4L71.8,61.4C71.8,61.4,71.8,61.4,71.8,61.4z M71.6,61.3L71.6,61.3L71.6,61.3L71.6,61.3L71.6,61.3z M71.6,61.2
				L71.6,61.2c0.1,0,0.1,0,0.1,0L71.6,61.2L71.6,61.2z M71.5,61.2L71.5,61.2L71.5,61.2L71.5,61.2L71.5,61.2z M71.4,61.1L71.4,61.1
				C71.5,61.1,71.5,61.1,71.4,61.1L71.4,61.1C71.5,61.1,71.5,61.1,71.4,61.1L71.4,61.1z M71.4,61L71.4,61C71.5,61,71.5,61,71.4,61
				L71.4,61C71.4,61,71.4,61,71.4,61L71.4,61z M71.4,60.9L71.4,60.9C71.5,60.9,71.5,60.9,71.4,60.9L71.4,60.9L71.4,60.9z M71.4,60.8
				L71.4,60.8C71.5,60.8,71.5,60.9,71.4,60.8L71.4,60.8C71.4,60.9,71.4,60.8,71.4,60.8L71.4,60.8z M71.4,60.8L71.4,60.8
				C71.5,60.8,71.5,60.8,71.4,60.8L71.4,60.8C71.4,60.8,71.4,60.8,71.4,60.8L71.4,60.8z M71.4,60.7L71.4,60.7
				C71.5,60.7,71.5,60.7,71.4,60.7L71.4,60.7C71.4,60.7,71.4,60.7,71.4,60.7L71.4,60.7z M71.4,60.6L71.4,60.6
				C71.4,60.6,71.4,60.6,71.4,60.6L71.4,60.6L71.4,60.6z M71.4,60.5L71.4,60.5L71.4,60.5L71.4,60.5L71.4,60.5z M71.4,60.5L71.4,60.5
				L71.4,60.5L71.4,60.5L71.4,60.5z M71.4,60.4L71.4,60.4L71.4,60.4L71.4,60.4L71.4,60.4z M71.4,60.3C71.4,60.3,71.4,60.3,71.4,60.3
				L71.4,60.3C71.5,60.3,71.5,60.3,71.4,60.3L71.4,60.3z M71.4,60.2C71.4,60.2,71.4,60.2,71.4,60.2L71.4,60.2
				C71.5,60.2,71.5,60.2,71.4,60.2L71.4,60.2z"/>
			<path d="M72,61.3L72,61.3L72,61.3L72,61.3L72,61.3z M72.1,61.3L72.1,61.3L72.1,61.3L72.1,61.3L72.1,61.3
				C72.1,61.3,72.1,61.3,72.1,61.3L72.1,61.3z M71.8,61.3L71.8,61.3C71.9,61.3,71.9,61.3,71.8,61.3L71.8,61.3L71.8,61.3z M71.7,61.3
				L71.7,61.3L71.7,61.3L71.7,61.3L71.7,61.3z M71.6,61.2L71.6,61.2C71.7,61.2,71.7,61.2,71.6,61.2L71.6,61.2L71.6,61.2z M71.6,61.1
				L71.6,61.1C71.6,61.1,71.6,61.1,71.6,61.1L71.6,61.1C71.6,61.1,71.6,61.1,71.6,61.1L71.6,61.1z M71.5,61L71.5,61L71.5,61L71.5,61
				C71.5,61,71.5,61,71.5,61L71.5,61z M71.5,60.9L71.5,60.9L71.5,60.9L71.5,60.9C71.5,61,71.5,60.9,71.5,60.9L71.5,60.9z M71.5,60.9
				L71.5,60.9C71.6,60.9,71.6,60.9,71.5,60.9L71.5,60.9C71.5,60.9,71.5,60.9,71.5,60.9L71.5,60.9z M71.5,60.8L71.5,60.8
				C71.6,60.8,71.6,60.8,71.5,60.8L71.5,60.8C71.5,60.8,71.5,60.8,71.5,60.8L71.5,60.8z M71.5,60.7L71.5,60.7
				C71.6,60.7,71.6,60.7,71.5,60.7L71.5,60.7C71.5,60.7,71.5,60.7,71.5,60.7L71.5,60.7z M71.5,60.6L71.5,60.6L71.5,60.6L71.5,60.6
				L71.5,60.6z M71.5,60.5L71.5,60.5L71.5,60.5L71.5,60.5L71.5,60.5L71.5,60.5z M71.5,60.5L71.5,60.5L71.5,60.5L71.5,60.5L71.5,60.5
				z M71.5,60.4L71.5,60.4L71.5,60.4L71.5,60.4L71.5,60.4z M71.5,60.3L71.5,60.3L71.5,60.3L71.5,60.3L71.5,60.3z M71.5,60.2
				C71.5,60.2,71.5,60.2,71.5,60.2L71.5,60.2C71.6,60.2,71.6,60.2,71.5,60.2L71.5,60.2z"/>
			<path d="M75,61.1L75,61.1L75,61.1L75,61.1L75,61.1z M74.9,61L74.9,61L74.9,61L74.9,61L74.9,61z M74.7,61L74.7,61L74.7,61L74.7,61
				L74.7,61z M74.6,60.9L74.6,60.9L74.6,60.9L74.6,60.9L74.6,60.9z M74.4,60.9L74.4,60.9L74.4,60.9L74.4,60.9L74.4,60.9z M74.3,60.8
				L74.3,60.8L74.3,60.8L74.3,60.8L74.3,60.8z M74.2,60.8L74.2,60.8C74.3,60.8,74.3,60.8,74.2,60.8L74.2,60.8L74.2,60.8z M74.1,60.7
				L74.1,60.7L74.1,60.7L74.1,60.7L74.1,60.7z M74,60.7L74,60.7L74,60.7L74,60.7L74,60.7z M73.9,60.6L73.9,60.6L73.9,60.6L73.9,60.6
				L73.9,60.6z M73.8,60.5L73.8,60.5L73.8,60.5L73.8,60.5L73.8,60.5z M73.7,60.5L73.7,60.5L73.7,60.5L73.7,60.5L73.7,60.5z
				 M73.7,60.4L73.7,60.4C73.8,60.4,73.8,60.4,73.7,60.4L73.7,60.4L73.7,60.4z M73.6,60.3L73.6,60.3L73.6,60.3L73.6,60.3L73.6,60.3z
				 M73.6,60.2L73.6,60.2C73.6,60.3,73.6,60.3,73.6,60.2L73.6,60.2L73.6,60.2z M73.5,60.2L73.5,60.2C73.6,60.2,73.6,60.2,73.5,60.2
				L73.5,60.2C73.5,60.2,73.5,60.2,73.5,60.2z"/>
			<path d="M69,60.9L69,60.9L69,60.9L69,60.9L69,60.9z M69.1,60.9L69.1,60.9L69.1,60.9L69.1,60.9L69.1,60.9z M69.3,60.9L69.3,60.9
				L69.3,60.9L69.3,60.9L69.3,60.9z M69.3,60.9L69.3,60.9L69.3,60.9L69.3,60.9L69.3,60.9z M69.5,60.8L69.5,60.8L69.5,60.8L69.5,60.8
				L69.5,60.8z M69.6,60.8c0,0,0.3,0,0.3,0l0,0l-0.1,0L69.6,60.8z M69.9,60.8L69.9,60.8L69.9,60.8L69.9,60.8L69.9,60.8z M70,60.8
				L70,60.8L70,60.8L70,60.8L70,60.8z M70.1,60.7L70.1,60.7L70.1,60.7L70.1,60.7L70.1,60.7z M70.2,60.6L70.2,60.6L70.2,60.6
				L70.2,60.6L70.2,60.6z M70.3,60.6L70.3,60.6L70.3,60.6L70.3,60.6L70.3,60.6z M70.4,60.5L70.4,60.5L70.4,60.5L70.4,60.5L70.4,60.5
				z M70.5,60.4C70.5,60.4,70.5,60.4,70.5,60.4L70.5,60.4C70.5,60.4,70.5,60.4,70.5,60.4L70.5,60.4z M70.5,60.4L70.5,60.4L70.5,60.4
				L70.5,60.4L70.5,60.4z M70.6,60.3L70.6,60.3L70.6,60.3L70.6,60.3L70.6,60.3z M70.6,60.2L70.6,60.2L70.6,60.2L70.6,60.2L70.6,60.2
				z"/>
			<polygon class="st84" points="74.2,60.2 74.4,60.2 74.3,59.7 74.1,59.7 			"/>
			<path d="M74.1,59.6h0.3l0,0.6h-0.3L74.1,59.6z M74.3,59.7h-0.1l0,0.5h0.1L74.3,59.7z"/>
			<polygon class="st84" points="69.8,60.1 69.6,60.1 69.6,59.6 69.8,59.6 			"/>
			<path d="M69.6,60.2l0-0.6h0.3l-0.2,0.6H69.6z M69.7,59.6l0,0.5h0.1l0-0.5L69.7,59.6z"/>
			<polygon class="st84" points="71.2,60.2 71,60.2 71,59.7 71.2,59.7 			"/>
			<path d="M70.9,60.2v-0.6h0.3v0.6L70.9,60.2z M71,59.7v0.5h0.1v-0.5H71z"/>
			<polygon class="st84" points="72.9,60.2 72.7,60.2 72.7,59.7 72.9,59.7 			"/>
			<path d="M72.7,60.2v-0.6h0.3v0.6L72.7,60.2z M72.8,59.7v0.5h0.1v-0.5H72.8z"/>
		</g>
	</g>
	<g id="Layer_4_2_">
		<path class="st70" d="M74.8,49.3c0,0,0.1,0.1,0.1,0.1c0,0.1,0.1,0.1,0.1,0.2c0,0.3,0,0.5-0.2,0.7c-0.1,0.1-0.2,0.2-0.4,0.2
			c-0.1,0-0.1,0-0.2-0.1c0-0.1-0.1-0.1,0-0.2l0-0.6C74.3,49.4,74.5,49.1,74.8,49.3z"/>
		<path class="st70" d="M69.4,49.3c0,0-0.1,0.1-0.1,0.1c0,0.1-0.1,0.1-0.1,0.2c0,0.3,0,0.5,0.2,0.7c0.1,0.1,0.2,0.2,0.4,0.2
			c0.1,0,0.1,0,0.2-0.1c0-0.1,0.1-0.1,0-0.2l0-0.6C69.9,49.4,69.7,49.1,69.4,49.3z"/>
		<path class="st68" d="M70.1,47.8c-0.2,0.4-0.3,0.9-0.2,1.3c0,0.5,0.1,1.2,0.1,1.4c0.2,0.8,1.4,1.3,1.5,1.3c0.4,0.2,0.9,0.2,1.4,0
			c0.7-0.3,1.2-0.8,1.5-1.4c0.1-0.4,0.2-0.8,0.2-1.1c0-0.4,0-0.9-0.1-1.3c-0.2-0.4-0.5-0.6-0.9-0.8c-0.6-0.1-1.3-0.1-1.9-0.1
			C70.9,47.2,70.4,47.4,70.1,47.8z"/>
		<path class="st73" d="M69.9,49.5c0-0.6,0.1-1.4,0.5-1.6c0.3-0.2,1.3,0,1.8,0c0.5,0,1.3-0.1,1.6,0c0.2,0,0.4,0.1,0.4,0.3
			c0.1,0.5,0.2,1,0.2,1.5c0.1-0.1,0.1-0.3,0.2-0.4c0.1-0.5,0.1-1.1,0-1.6c-0.2-0.6-0.7-1-1.4-1.2c-0.6-0.1-1.2-0.1-1.9,0
			c-0.6,0.1-1.1,0.5-1.4,1c-0.2,0.5-0.2,1.1-0.1,1.6C69.8,49.5,69.9,49.6,69.9,49.5z"/>
		<path class="st65" d="M71.8,50.4c0,0,0.1,0.1,0.3,0.1s0.3-0.1,0.3-0.1c0,0,0,0.2-0.3,0.2C71.9,50.7,71.7,50.4,71.8,50.4z"/>
		<path class="st65" d="M71.5,51c0.1,0,0.4,0.1,0.6,0.1c0.2,0,0.4,0,0.6-0.1c0.1,0,0,0.2-0.6,0.2C71.5,51.1,71.5,51,71.5,51z"/>
		<path class="st75" d="M70.3,49.6c0-0.2,0.4-0.4,0.7-0.4c0.3,0,0.6,0.2,0.6,0.4c0,0.2-0.2,0.4-0.6,0.4C70.7,50,70.3,49.8,70.3,49.6
			z"/>
		<path class="st78" d="M71.1,48.8c-0.1,0-0.3,0-0.4,0.1c-0.1,0-0.2,0.1-0.2,0.1c0,0,0-0.3,0.5-0.3c0.4,0,0.6,0.2,0.5,0.2
			C71.5,48.9,71.3,48.8,71.1,48.8z"/>
		<ellipse transform="matrix(0.9709 -0.2396 0.2396 0.9709 -9.8202 18.4612)" class="st76" cx="71" cy="49.6" rx="0.4" ry="0.3"/>
		<ellipse class="st77" cx="70.8" cy="49.6" rx="0.1" ry="0.1"/>
		<path class="st78" d="M71,49.1c0.3,0,0.5,0.2,0.6,0.4c0,0.3-0.1-0.3-0.6-0.3c-0.3,0-0.6,0.2-0.7,0.5C70.3,49.2,70.7,49.1,71,49.1z
			"/>
		<path class="st78" d="M73.2,48.8c0.1,0,0.3,0,0.4,0.1c0.1,0,0.1,0,0.2,0.1c0,0,0-0.3-0.5-0.3c-0.4,0-0.6,0.2-0.5,0.2
			C72.8,48.9,73,48.8,73.2,48.8z"/>
		<path class="st75" d="M72.6,49.6c0-0.2,0.4-0.4,0.7-0.4c0.3,0,0.6,0.2,0.6,0.4c0,0.2-0.2,0.4-0.6,0.4C73,50,72.6,49.8,72.6,49.6z"
			/>
		<ellipse transform="matrix(0.9709 -0.2396 0.2396 0.9709 -9.7503 19.0082)" class="st76" cx="73.3" cy="49.6" rx="0.4" ry="0.3"/>
		<ellipse class="st77" cx="73.1" cy="49.6" rx="0.1" ry="0.1"/>
		<path class="st78" d="M73.3,49.1c0.3,0,0.5,0.2,0.6,0.4C74,49.8,73.8,49.2,73.3,49.1c-0.3,0.1-0.6,0.3-0.7,0.6
			C72.6,49.2,73,49.1,73.3,49.1z"/>
	</g>
</g>
<g id="Layer_2">
	<g>
		<text transform="matrix(1 0 0 1 9.2863 30.2847)" class="st87 st88">Ibra na Elly ni mapacha!</text>
		<text transform="matrix(1 0 0 1 9.2863 35.0847)" class="st94"><tspan x="0" y="0" class="st87 st88">walipokuwa wanacheza </tspan><tspan x="0" y="4.8" class="st87 st88">nje,</tspan></text>
		<text transform="matrix(1 0 0 1 9.2863 44.6847)" class="st94"><tspan x="0" y="0" class="st87 st88">mama yao aliwaita ili </tspan><tspan x="0" y="4.8" class="st87 st88">kuwafundisha kuhsu </tspan></text>
		<text transform="matrix(1 0 0 1 9.2863 54.2847)" class="st87 st88">sehemu za siri.</text>
	</g>
</g>
</svg>
