<svg xmlns="http://www.w3.org/2000/svg" xmlns:xlink="http://www.w3.org/1999/xlink" viewBox="0 0 127.53 77.74"><defs><linearGradient id="a" x1="79.95" y1="28.47" x2="81.84" y2="28.47" gradientTransform="matrix(1, 0, 0, -1, 0, 80)" gradientUnits="userSpaceOnUse"><stop offset="0" stop-color="#ffb87d"/><stop offset="0.53" stop-color="#ca6d4c"/><stop offset="0.99" stop-color="#a05c38"/></linearGradient><linearGradient id="b" x1="93.46" y1="28.48" x2="95.33" y2="28.48" xlink:href="#a"/><linearGradient id="c" x1="87.64" y1="14.49" x2="87.64" y2="13.2" xlink:href="#a"/><linearGradient id="d" x1="87.65" y1="43.58" x2="87.65" y2="42.08" xlink:href="#a"/><linearGradient id="e" x1="80.8" y1="41.43" x2="94.39" y2="14.26" xlink:href="#a"/><linearGradient id="f" x1="80.62" y1="28.7" x2="85.86" y2="41.53" gradientTransform="matrix(1, 0, 0, -1, 0, 80)" gradientUnits="userSpaceOnUse"><stop offset="0" stop-color="#ca6d4c"/><stop offset="1" stop-color="#ffb87d"/></linearGradient><linearGradient id="g" x1="82.84" y1="35.64" x2="84.42" y2="35.64" gradientTransform="matrix(1, 0, 0, -1, 0, 80)" gradientUnits="userSpaceOnUse"><stop offset="0" stop-color="#d3b994"/><stop offset="1" stop-color="#6c5030"/></linearGradient><linearGradient id="h" x1="91.47" y1="31.37" x2="92.56" y2="45.79" xlink:href="#f"/><linearGradient id="i" x1="87.69" y1="40.71" x2="87.69" y2="39.1" xlink:href="#f"/><linearGradient id="j" x1="-937.01" y1="907.39" x2="-929.7" y2="907.39" gradientTransform="matrix(-1, 0, 0, 1, -845.29, -867.49)" xlink:href="#g"/><linearGradient id="k" x1="87.66" y1="30.02" x2="87.75" y2="32.08" xlink:href="#f"/><linearGradient id="l" x1="82.84" y1="31.18" x2="92.55" y2="31.18" xlink:href="#g"/><linearGradient id="m" x1="90.7" y1="35.64" x2="92.7" y2="35.64" xlink:href="#g"/><linearGradient id="n" x1="85.02" y1="40.21" x2="90.01" y2="30.23" gradientTransform="matrix(1, 0, 0, -1, 0, 80)" gradientUnits="userSpaceOnUse"><stop offset="0" stop-color="#fff"/><stop offset="0.53" stop-color="#ca6d4c"/><stop offset="0.99" stop-color="#a05c38"/></linearGradient><linearGradient id="o" x1="80.3" y1="15.47" x2="85.37" y2="27.87" xlink:href="#f"/><linearGradient id="p" x1="82.84" y1="22.18" x2="83.59" y2="22.18" xlink:href="#g"/><linearGradient id="q" x1="91.88" y1="17.89" x2="92.98" y2="32.4" xlink:href="#f"/><linearGradient id="r" x1="87.69" y1="27.25" x2="87.69" y2="25.64" xlink:href="#f"/><linearGradient id="s" x1="-937.83" y1="920.84" x2="-928.88" y2="920.84" gradientTransform="matrix(-1, 0, 0, 1, -845.29, -867.49)" xlink:href="#g"/><linearGradient id="t" x1="87.66" y1="16.56" x2="87.75" y2="18.62" xlink:href="#f"/><linearGradient id="u" x1="82.84" y1="17.73" x2="92.55" y2="17.73" xlink:href="#g"/><linearGradient id="v" x1="91.67" y1="22.18" x2="92.62" y2="22.18" xlink:href="#g"/><linearGradient id="w" x1="85.18" y1="27.25" x2="90.34" y2="16.92" xlink:href="#n"/><linearGradient id="x" x1="98.01" y1="13.03" x2="71.97" y2="50.47" xlink:href="#f"/><linearGradient id="y" x1="76.53" y1="22.2" x2="103.9" y2="32.05" xlink:href="#g"/><linearGradient id="z" x1="92.04" y1="28.52" x2="92.52" y2="28.52" gradientTransform="matrix(1, 0, 0, -1, 0, 80)" gradientUnits="userSpaceOnUse"><stop offset="0" stop-color="#7e7f82"/><stop offset="0.01" stop-color="#838487"/><stop offset="0.09" stop-color="#9d9ea0"/><stop offset="0.16" stop-color="#b0b1b2"/><stop offset="0.24" stop-color="#bbbcbd"/><stop offset="0.33" stop-color="#bfc0c1"/><stop offset="1" stop-color="#404040"/></linearGradient><radialGradient id="aa" cx="142.81" cy="-11.85" r="0.5" gradientTransform="matrix(0.82, 0, 0, -0.92, -24.48, 38.98)" gradientUnits="userSpaceOnUse"><stop offset="0" stop-color="#e2e3e2"/><stop offset="0.23" stop-color="#b5b5b5"/><stop offset="0.46" stop-color="#909190"/><stop offset="0.67" stop-color="#767776"/><stop offset="0.85" stop-color="#676767"/><stop offset="1" stop-color="#616161"/></radialGradient><radialGradient id="ab" cx="89.91" cy="15.73" r="0.5" gradientTransform="matrix(1, 0, 0, -1, 0, 80)" xlink:href="#aa"/></defs><rect x="-0.11" y="0.24" width="127.47" height="77.34" style="fill:#4497c9"/><path d="M100.91,51.44c-1.34.1-2.8.3-4.15.4h-.9c-.67.1-1.46.1-2.13.2-2.81.3-5.62.5-8.54.8s-5.73.6-8.65.8c-1.13.1-2.36.2-3.48.2a7.1,7.1,0,0,1-2.93-.3c-.11,0,0-.1,0-.1.57-.2,1-.5,1.58-.7L70,53a11.53,11.53,0,0,1-3.7.4c-1.58.1-3.15.1-4.61.1a6.1,6.1,0,0,1-1.35-.1c-4.94.4-10,1.3-15,.7a44.14,44.14,0,0,1-7.42-1.9,28.62,28.62,0,0,0-7.75-1.1c-.11,0-.11,0-.11-.1-2.36-.2-4.61-.3-7-.5a83.2,83.2,0,0,0-8.65-.4c-2.59.1-5.17.3-7.64.6-.68.1-5.62.8-6.63,1.5V77.4l128.06.3V46.94C119.11,48.44,101.7,51.34,100.91,51.44Z" style="fill:#4e8e43;opacity:0.5;isolation:isolate"/><path d="M122.9,40.69a67.41,67.41,0,0,0-11.56,2.8c-3.41,1.12-6.82,2.52-10.12,3.92a74.52,74.52,0,0,1-11.78,4.06A47.68,47.68,0,0,1,76.9,52.73a69.83,69.83,0,0,1-13.1-2c-3.16-.82-9.13-2-13.75-3.64-17.79-6.44-20.79-20.46-31.83-19.5A19.63,19.63,0,0,0,9.43,31a21.72,21.72,0,0,0-7.7,9.66V69.25H127.19V40C125.76,40.27,124.33,40.41,122.9,40.69Z" style="fill:#a2df67"/><path d="M123.16,41.53a68.91,68.91,0,0,0-11.76,2.8c-3.48,1.12-7,2.52-10.31,3.92a77,77,0,0,1-12,4.06,49.49,49.49,0,0,1-12.78,1.26,72.25,72.25,0,0,1-13.33-2c-3.22-.82-9.31-2-14-3.64-18.11-6.44-21.16-20.46-32.41-19.5a20.28,20.28,0,0,0-8.95,3.4,21.69,21.69,0,0,0-7.83,9.7V70.09H127.53V40.83C126.08,41.11,124.62,41.25,123.16,41.53Z" style="fill:#3b7134"/><path d="M122,49.11a67.48,67.48,0,0,0-11.63,2.8c-3.44,1.12-6.87,2.52-10.2,3.92a74.93,74.93,0,0,1-11.85,4.05,48.35,48.35,0,0,1-12.63,1.26,70.67,70.67,0,0,1-13.18-2c-4.66-1.11-9.2-2.51-13.85-3.63-9.31-2.38-18.61-4.76-28-7.14C16.22,47.29,11.34,46.17,6.8,47A30,30,0,0,0,0,49.11V77.66H126.3V48.41C124.9,48.69,123.46,48.83,122,49.11Z" style="fill:#3b7134"/><path d="M93.57,72.19A2.83,2.83,0,0,0,92.74,71a6.79,6.79,0,0,0-1.4-.7c0-.07.54,0,.83,0a3.44,3.44,0,0,1,1.21.35c.24.13.34.23.42.19s.16-.13-.07-1c-.34-1.29-.83-1.89-.73-2s1.26.58,1.66,1.76c.23.68.15,1.31.32,1.34s.21-.37.54-.83c.54-.76,1.33-1.14,1.41-1a9.66,9.66,0,0,0-.83,1.34,3.65,3.65,0,0,0-.29,1.18" style="fill:#51983b"/><path d="M94,72.32a2.63,2.63,0,0,0-1-1.4,9.75,9.75,0,0,0-1.15-.5c0-.06.41,0,.68,0a2.23,2.23,0,0,1,.75.22c.48.27.58.71.7.67s.08-.42,0-1.18a4.26,4.26,0,0,0-.16-1,2.38,2.38,0,0,0-.41-.75,9.2,9.2,0,0,1,1,1.68c.31.69.39,1.12.58,1.11s.23-.53.77-1.14a1.63,1.63,0,0,1,.65-.51,5.14,5.14,0,0,0-.67,1,2.66,2.66,0,0,0-.21,1.18" style="fill:#a2df67"/><path d="M59.66,66.55l-3.2-.6a6.66,6.66,0,0,1-1.4-.2h0c.5-.2,1-.2,1.5-.4a26,26,0,0,0,2.6-.8s.2-.2.1-.2h-1.4a5.66,5.66,0,0,0-1.3.1c.6-.2,1.3-.3,1.9-.5,0,0,.2-.2.1-.2a20.6,20.6,0,0,0-4.3.2l-3,.3,3.3-.9c.89-.31,1.79-.58,2.7-.8a5.87,5.87,0,0,0,1.8-.4s.2-.2.1-.2c-.4-.1-.8,0-1.2-.1a4.07,4.07,0,0,0-1.1-.1,10.55,10.55,0,0,0,2.5-.3s.2-.2.1-.2a30.15,30.15,0,0,1-6.6-1.1c-1.1-.3-2.3-.6-3.4-.8a21.14,21.14,0,0,0-3.6-.2,33.35,33.35,0,0,1-7-1.3c-2.3-.6-4.7-1.1-7.1-1.5a35.31,35.31,0,0,1-7.1-1.7c-2.1-.8-4.2-1.7-6.4-2.4-1.2-.3-2.4-.7-3.5-1s-2-.8-3.1-1.2a26.31,26.31,0,0,0-6.8-1.3c-1.3-.1-2.6,0-3.9,0H0v28.3H39.4l.6-.3a3.77,3.77,0,0,1,1.1-.5,3.32,3.32,0,0,0,1.4-.5l1.8-.6a23.71,23.71,0,0,1,2.8-1.3,7.43,7.43,0,0,1,1.6-.5c.3-.1.7-.2,1-.3,0,0,.2-.1.1-.2a5.81,5.81,0,0,0-2.3-.4c.4-.2,1.2-.3,1.6-.5a17.14,17.14,0,0,0,1.7-.6s.2-.1.1-.2a.63.63,0,0,0-.4-.1,2.74,2.74,0,0,1-.9-.1c-.5,0-1-.1-1.5-.1a3.78,3.78,0,0,1,1-.2,18.78,18.78,0,0,1,3.9-1c.1,0,.3-.2.2-.2H49.3a2.44,2.44,0,0,1-1.2,0,2.74,2.74,0,0,1,.9-.1h1c.1,0,.2-.2.2-.2-1.2,0-2.3.1-3.5.1-.9,0-1.9.1-2.9.1l3.3-.6c1.4-.2,2.9-.3,4.3-.5a58.85,58.85,0,0,0,8.1-1.8C59.66,66.65,59.86,66.55,59.66,66.55Z" style="fill:#4a8444"/><path d="M119.78,61.51a44,44,0,0,1,5.13-.4c.11,0,.11,0,.11.1a20,20,0,0,1-3.34.7c.78,0,1.45-.1,2.23-.1.11,0,.11,0,.11.1A79,79,0,0,1,112.19,64l-6.36.6a42,42,0,0,1-6.14.2c-.11,0-.11-.1,0-.1.67-.1,1.34-.2,1.9-.3q-3,0-6,.3c-.11,0-.22-.1-.11-.1.45-.1.89-.3,1.34-.4a23.94,23.94,0,0,1-3.68.5c-.11,0-.11,0-.11-.1l1-.3a3.37,3.37,0,0,1-1,.1c-.11,0-.23-.1-.11-.1,4.79-1.2,9.26-2.7,13.94-4.1-1.89.5-3.79,1.1-5.69,1.6a98,98,0,0,1-11.94,2.9,67.71,67.71,0,0,1-12.72.9,97.09,97.09,0,0,1-13.28-1.4c-1.22-.2-2.56-.5-3.79-.7-2.23,0-4.35,0-6.59-.2-3-.2-5.91-.3-8.92-.4a71.79,71.79,0,0,1-16-1.9,3.53,3.53,0,0,0,1.12.5c.11,0,0,.1-.12.1-1.11-.2-2.34-.5-3.45-.8a4,4,0,0,0,1.33.6c.23.1.45.1.67.2s0,.1-.11.1h0a1.26,1.26,0,0,1-.56-.2c-3.68-1.1-7.36-2.1-11.15-2.9.22.1.33.1.55.2s0,.1-.11.1c-.78-.1-1.56-.3-2.34-.4.67.2,1.23.3,1.9.5.11,0,0,.1-.12.1-1.56-.3-3.12-.4-4.68-.7S7.62,57.7,7,56.9A1,1,0,0,1,7,55.42a.57.57,0,0,1,.15-.12h-.1a42,42,0,0,0-7,1.6V77.2H127.26v-18C124.69,60,121.9,60.41,119.78,61.51Z" style="fill:#40793a;opacity:0.6000000238418579;isolation:isolate"/><path d="M24,62.51c1.5.4,2.8,1,4.2,1.4s2.8.9,4.2,1.4a26.66,26.66,0,0,0,4,1.2c-.3-.2-.7-.3-1-.5-.1-.1,0-.2.1-.2a19.34,19.34,0,0,1,3.3.5c.9.2,1.7.6,2.6.8a2.17,2.17,0,0,1-.4-.6c0-.1,0-.1.1-.1a22.51,22.51,0,0,0,2.4.8c.6.1,1.1.1,1.7.2-.1,0-.2-.1-.3-.1s0-.2.1-.2c2.3.3,4.5.8,6.7,1.2-2.4-.8-5.1-1.2-7.2-2.6-.1-.1,0-.2.1-.2,1.4.3,2.8.5,4.3.7a15.8,15.8,0,0,1-2-.7s-.1-.1,0-.1l.1-.1c1.1.1,2.3.3,3.4.4a35.15,35.15,0,0,0-5.7-2.2A24.77,24.77,0,0,0,40,63c-.1,0-.1,0-.1-.1-2.1-.2-4.1-.3-6.2-.5A66.09,66.09,0,0,0,26,62c-.9,0-1.8.1-2.8.1A1.91,1.91,0,0,0,24,62.51Z" style="fill:#3b7134;opacity:0.30000001192092896;isolation:isolate"/><ellipse cx="82.26" cy="64.36" rx="8.81" ry="2.23" style="fill:#f9c39c"/><ellipse cx="88.78" cy="70.43" rx="10.44" ry="2.23" style="fill:#f9c39c"/><ellipse cx="100.38" cy="75.32" rx="13.2" ry="2.23" style="fill:#f9c39c"/><path d="M24.53,8.87a2.14,2.14,0,0,1-1.63,1.35,1.49,1.49,0,0,1-.77,1.24,4.49,4.49,0,0,1-2.56.28,3.39,3.39,0,0,1-2.83,1.91,4.69,4.69,0,0,1-2.39-.45c-.6-.34-.43-.68-1-.9C12.5,12,12,12.36,11.21,12s-.51-.85-1.2-1c-.34-.12-.51.05-1.11,0a4,4,0,0,1-2-.73,1.64,1.64,0,0,1-.73-2.2l0-.09C7,7.1,9.3,6.65,11.35,7.49a1.67,1.67,0,0,1,1.37-.9,2.9,2.9,0,0,1,2.57.68A3.73,3.73,0,0,1,18,6.62a3.26,3.26,0,0,1,1.88.9A3.64,3.64,0,0,1,22.73,7C23.93,7.24,24.7,8,24.53,8.87Z" style="fill:#fff"/><path d="M115,10a3,3,0,0,1,2-2.19,2.52,2.52,0,0,1,.91-2,4.64,4.64,0,0,1,3.22-.53,4.39,4.39,0,0,1,3.46-3.11,5,5,0,0,1,3,.62c.77.51.57,1,1.33,1.39,1.09.5,1.72-.14,2.7.37s.69,1.31,1.55,1.55c.44.17.65-.1,1.4,0a4.46,4.46,0,0,1,2.62,1.09,3,3,0,0,1,.85,3.53c-.93,1.44-3.82,2.23-6.43,1a2.19,2.19,0,0,1-1.69,1.47,3.19,3.19,0,0,1-3.25-1,4,4,0,0,1-3.41,1.16A3.86,3.86,0,0,1,120.85,12a3.89,3.89,0,0,1-3.53,1A2.84,2.84,0,0,1,115,10Z" style="fill:#fff"/><path d="M50.79,10.76A1.49,1.49,0,0,1,52,10c0-.23.17-.47.54-.66a4.2,4.2,0,0,1,1.83-.17,2.49,2.49,0,0,1,2-1A4.52,4.52,0,0,1,58,8.38c.43.17.31.35.74.46.61.17,1,0,1.53.13s.37.44.86.52a5.34,5.34,0,0,0,.8,0,3.44,3.44,0,0,1,1.47.37c.61.31.74.76.44,1.17a4.67,4.67,0,0,1-3.66.32,1.26,1.26,0,0,1-1,.49,2.63,2.63,0,0,1-1.84-.33,3.39,3.39,0,0,1-2,.38A2.73,2.73,0,0,1,54,11.43a3.31,3.31,0,0,1-2,.33C51.23,11.61,50.68,11.2,50.79,10.76Z" style="fill:#fff"/><path d="M59,12.18a1.46,1.46,0,0,1,1.15-.73c0-.24.18-.48.54-.66a4.2,4.2,0,0,1,1.83-.17,2.49,2.49,0,0,1,2-1,4.55,4.55,0,0,1,1.72.21c.43.17.31.35.74.46.61.17,1,0,1.52.13s.38.44.87.52a5.21,5.21,0,0,0,.79,0,3.58,3.58,0,0,1,1.47.36c.62.32.75.76.45,1.18a4.67,4.67,0,0,1-3.66.32,1.26,1.26,0,0,1-1,.49A2.72,2.72,0,0,1,65.59,13a3.39,3.39,0,0,1-2,.38,2.73,2.73,0,0,1-1.35-.46,3.46,3.46,0,0,1-2,.33C59.47,13,58.91,12.62,59,12.18Z" style="fill:#fff"/><path d="M103.46,12.52c.11-.33.54-.6,1.15-.73,0-.24.17-.48.54-.66A4.29,4.29,0,0,1,107,11a2.49,2.49,0,0,1,2-1,4.5,4.5,0,0,1,1.71.21c.43.17.31.35.74.46.61.17,1,0,1.53.13s.37.44.86.52a5.34,5.34,0,0,0,.8,0,3.58,3.58,0,0,1,1.47.36c.61.32.74.76.44,1.18a4.67,4.67,0,0,1-3.66.32,1.26,1.26,0,0,1-1,.49,2.75,2.75,0,0,1-1.84-.33,3.39,3.39,0,0,1-2,.38,2.73,2.73,0,0,1-1.35-.46,3.38,3.38,0,0,1-2,.33C103.89,13.37,103.34,13,103.46,12.52Z" style="fill:#fff"/><path d="M126.57,59.89a1.33,1.33,0,0,0-.62.1c0-.1.21-.15.11-.24s-.62,0-.83,0c.11,0,.52,0,.62,0,.31-.15-.51-.2-.72-.2.41-.14-.21-.24-.52-.09.11,0,.52-.15.42-.25a2.32,2.32,0,0,0-1.14.1c.1,0,.1-.1.21-.15.31,0,.2-.24-.11-.19s-.31.14-.51.09c.2-.19.1-.14-.11-.24a.34.34,0,0,0-.31,0h0c-.31,0-.1,0-.31,0,.11-.05.11-.1.21-.1.41,0-.1-.19-.31-.24.21,0,.83,0,.72-.19s-.82,0-1,0c.62-.1.52-.3-.1-.2.2-.39-.93,0-1,0,.52-.29-.2-.24-.51,0h-.11c-.11,0-.2,0-.1-.09s.62,0,.72-.1c.42-.25-1.13,0-1.13,0s1-.2.93-.34c-.31-.25-1.35.14-1.45.34,0-.15.41-.24.41-.39s-.31-.24-.51-.2c.31-.39-.52-.09-.62.15a2.12,2.12,0,0,0-.93-.19c-.42.09.31.29.41.34h-.31c0-.15-.62-.1-.72-.1.2-.29-.52-.2-.73-.1.21-.1.73-.1.62-.29s-.93,0-1.13.15c.1-.15.2-.35-.31-.15-.11-.1-.52-.34-.73-.24s.21.24.31.34a1.8,1.8,0,0,0-1-.1c-.21.1.41.24.62.24h-1.14c.52-.09-.1-.24-.51-.09.1,0,.31-.15.21-.2a3,3,0,0,0-.73,0c.11-.05.31-.24-.1-.19s-.31.24-.52.29c-.2-.25-.51-.1-.31.1-.1,0-.2-.15-.31-.2s-.41.15-.31.24c-.1,0-1,.3-.51.3a1.85,1.85,0,0,0,.1,1.31c.1.54.1,1.08.21,1.56l.31,1.61c0,.15.1.44.51.3.11-.05.42-.15.42-.25.2.1.62-.1.72-.14s-.41.19-.21.29.52-.1.62-.15c.11.15.41,0,.52-.05.31.25.51,0,.93.05-.11.15-.42.25.2.25a4.51,4.51,0,0,0,1.45-.25c0,.15.21.29.31.1a1.18,1.18,0,0,0,.72.05c.21-.1.31,0,.62,0a5.88,5.88,0,0,0,.93-.1c.31-.1.42,0,.83-.1-.31.1-.41.44.1.29s.83,0,1.14-.34c.1,0,.72.15.41,0a1.8,1.8,0,0,0,.73,0c.2-.09.31,0,.62.1.62,0,.82-.14.2-.24.11,0,.11-.05.11-.1a7.21,7.21,0,0,1,.93,0c.31.1,1,0,.51-.1.21,0,.93,0,.93-.14s-.41,0-.51-.1a6.7,6.7,0,0,1,1,0c.2,0,.62-.2.2-.2,0,0,.93-.39.31-.34a2.56,2.56,0,0,1-.62,0c-.2,0,0,0-.1-.1.21,0,.52.1.62,0,.31,0,.62-.15.1-.2-.2-.19.42-.44,0-.44Zm-3.61-1s.1,0,.21-.1c.62-.36-.31.27-.17.13Zm-10.12-2h.2c-.2.09-.1.14-.41.19a.27.27,0,0,1,.21-.08Zm4.85,4.73h0a3.57,3.57,0,0,0,.72-.1,2.92,2.92,0,0,1-.72.18Z" style="fill:#143318"/><path d="M43,55.42a1.61,1.61,0,0,0-.31,0,1.7,1.7,0,0,0-.31.06c0-.07.21-.1.1-.17a3.19,3.19,0,0,0-.82,0h.62c.31-.1-.52-.14-.72-.14.41-.1-.21-.17-.52-.06.1,0,.52-.11.41-.17a3.72,3.72,0,0,0-1.13.06c.1,0,.1-.06.2-.1.31,0,.21-.17-.1-.14s-.31.11-.52.07c.21-.13.11-.1-.1-.17a.55.55,0,0,0-.31,0h-.31c.1,0,.1-.07.21-.07.41,0-.11-.14-.31-.17.2,0,.82,0,.72-.14s-.83,0-1,0c.62-.07.51-.21-.11-.14.21-.27-.93,0-1,0,.52-.2-.21-.17-.52,0h-.1c-.1,0-.21,0-.1-.07a4.39,4.39,0,0,1,.72-.07c.41-.17-1.14,0-1.14,0s1-.13.93-.23A2.19,2.19,0,0,0,36,54c0-.1.41-.17.41-.27s-.31-.17-.52-.14c.31-.27-.51-.06-.62.11a2.91,2.91,0,0,0-.93-.14c-.41.07.31.21.42.24a.81.81,0,0,1-.31,0c0-.1-.62-.07-.73-.07.21-.2-.51-.14-.72-.07.21-.07.72-.07.62-.2s-.93,0-1.14.1c.11-.1.21-.24-.31-.1a1.2,1.2,0,0,0-.72-.17c-.21.06.21.17.31.24a2.61,2.61,0,0,0-1-.07c-.21.07.41.17.62.17H30.28c.52-.07-.1-.17-.51-.07.1,0,.31-.1.2-.14s-.48,0-.72,0c.1,0,.31-.17-.1-.13s-.31.17-.52.2c-.21-.17-.52-.07-.31.07-.1,0-.21-.1-.31-.14s-.41.11-.31.17c-.1,0-1,.21-.52.21a.39.39,0,0,1,.16.53.35.35,0,0,1-.16.16.89.89,0,0,1-.68,0l-.52.12c-.73.18-1.41.39-2,.6L27.85,57c0,.1.11.3.52.2.1,0,.41-.1.41-.17a1.64,1.64,0,0,0,.73-.1c.1.07-.42.14-.21.2a1,1,0,0,0,.62-.1c.1.1.41,0,.51,0,.31.17.52,0,.93,0-.1.1-.41.17.21.17A6.46,6.46,0,0,0,33,57a.19.19,0,0,0,.22.13.15.15,0,0,0,.09-.06,1.75,1.75,0,0,0,.72,0,2.12,2.12,0,0,1,.62,0A4.17,4.17,0,0,0,35.6,57c.31-.07.41,0,.83-.07-.31.07-.42.31.1.21s.83,0,1.14-.24c.1,0,.72.1.41,0a2.17,2.17,0,0,0,.72,0c.21-.07.31,0,.62.07.62,0,.83-.1.21-.17.1,0,.1,0,.1-.07h.93c.31,0,1,0,.52-.07.21,0,.93,0,.93-.11s-.41,0-.52-.06a8.34,8.34,0,0,1,1,0c.21,0,.62-.13.21-.13,0,0,.93-.28.31-.24h-.62c-.21,0,0,0-.1-.07.2,0,.51.07.62,0a.56.56,0,0,0,.38-.08A.5.5,0,0,0,43,55.42Zm-3.61-.68a.38.38,0,0,0,.2-.07c.65-.27-.28.17-.17.07Zm-10.1-1.37h.21c-.21.07-.1.1-.41.14C29.09,53.44,29.19,53.4,29.29,53.37Zm4.86,3.32h0a5.85,5.85,0,0,0,.72-.07A5.85,5.85,0,0,1,34.15,56.69Z" style="fill:#143318"/><path d="M55.91,54.29l-.4.2-.2-.2h-.1l.1.2-.3.3-.1-.4-.3.2.1.2.2.2-.1.2h-.1l-.2.1.1.3-.4.2.1.4.1.3-.1.2h-.1l-.2-.4s-.2-.1-.2.1v.2l-.1.1-.2-.2s-.3.1-.3.2v.1h-.3v-.4l-.4.4v.3h-.4l-.2-.5s-.4,0-.4.1.2.3.3.5h-.3l-.3-.3v-.3l-.2.5-.3-.2v.5c-.1.1-.2.2-.3.2v-.5l-.3.5v.3l-.3.1-.1-.2h-.4l.1.2-.3.2-.1-.4-.3.1.1.2-.1.2-.4-.3-.5.1.2.3-.1.2-.2.3v.3h-.2l-.1-.4s-.3,0-.2.1a.37.37,0,0,1,.1.3l-.3.4V59l-.3-.1v.2l-.3.3-.2-.1v-.5l-.4.1v.4l-.1.2h-.3v-.6l-.2-.1-.2.3-.4-.3v-.4l-.3.4-.3.1v.3l-.3.3v-.4h-.3v.4l-.4-.2-.1-.4-.2.3-.3-.3v-.3l-.1-.4-.2-.1v.4l-.3.1-.2-.4c-.1-.1-.1-.1-.2,0h0c-.1.1-.3-.2-.3-.2v-.4l-.4.1v.2l-.5.1-.2-.3h-.3l-.2-.2v-.4l-.6.1-.1-.1-.1-.1h-.2l-.5.1v-.7l-.1.1-.2.1v.2h-.2l-.1-.2h-.5V56l.2-.4h-.2l-.3-.4-.2.1-.2-.3-.3-.2v-.2l.2-.3.1-.4v-.2l.4-.3.1-.2-.3-.3.1-.2h.3l-.1-.2-.1-.2.3-.4.1.2c.1.1.1.1.2.1h.1l.1-.3h.4l-.1-.4-.1.1-.1-.1.1-.4.4-.3-.2-.3h.5l-.4-.4.1-.3.2-.6v-.4l.2-.2.2-.1.3-.4h.3l.1.2h.1v-.2l.3-.3.1.2H40v-.2l-.1-.2s-.1-.4,0-.3h.8l.1-.3s.2-.3.3-.2l.1.1.1.2.2-.2.1-.3h.5l.1-.4h.4l.3.2L43,46h.4v.4l.2-.1.1-.3h.2l.1.2v.5h.7l.1.4L45,47v-.3l.3-.2-.1-.3.2-.2.3.2L46,46v-.3l.4.2.1.4h.2l.1-.4h.5v.4h.2a.22.22,0,0,1,.2.2l.1.1v.2l.2.2c.1,0,.1-.1.2,0s.3-.4.3-.4l.3.1.1.3-.2.2.1.2.3-.2s.3,0,.4.1.1.2.2.3l-.1.4h.3l.5-.1.4-.2s.3.1.3.2l.1.2h.2s.3.1.3.3v.5c.1-.1.2-.1.2,0h0c.1.1.2-.3.3.1l.1.4.3-.1.1-.2.2.1.2.5-.3.1v.3c0,.1-.3.4-.3.4l.2.2H53v.4l.3.3.2-.2v.5l.2.1.1-.2.1.3-.2.3H54v.3l.3-.5.2.5h.2v.3h.2v.5l.3.2v.3H55l.1.2h0Z" style="fill:#00953b"/><polygon points="119.17 59.09 118.77 53.28 118.07 53.28 117.87 59.09 119.17 59.09" style="fill:#645d21"/><path d="M127.57,49.69l-.4.2-.2-.2h-.1l.1.2-.3.3-.1-.4-.3.2.1.2.2.2-.1.2h-.1l-.2.1.1.3-.4.2.1.4.1.3-.1.2h-.1l-.2-.4s-.2-.1-.2.1V52l-.1.1-.2-.2s-.3.1-.3.2v.1h-.3v-.4l-.4.4v.3h-.4l-.2-.5s-.4,0-.4.1.2.3.3.5h-.3l-.3-.3V52l-.2.5-.3-.2v.5c-.1.1-.2.2-.3.2v-.5l-.3.5v.3l-.3.1-.1-.2H121l.1.2-.3.2-.1-.4-.3.1.1.2-.1.2-.4-.3-.5.1.2.3-.1.2-.2.3v.3h-.2l-.1-.4s-.3,0-.2.1a.37.37,0,0,1,.1.3l-.3.4v-.6l-.3-.1v.2l-.3.3-.2-.1v-.5l-.4.1v.4l-.1.2h-.3v-.6l-.2-.1-.2.3-.4-.3v-.4l-.3.4-.3.1v.3l-.3.3v-.4h-.3v.4l-.4-.2-.1-.4-.2.3-.3-.3V54l-.1-.4-.2-.1v.4l-.3.1-.2-.4c-.1-.1-.1-.1-.2,0h0c-.1.1-.3-.2-.3-.2V53l-.4.1v.2l-.5.1-.2-.3h-.3l-.2-.2v-.4l-.6.1-.1-.1-.1-.1h-.2l-.5.1v-.7l-.1.1-.2.1v.2h-.2l-.1-.2h-.5v-.6l.2-.4h-.2l-.3-.4-.2.1-.2-.3-.3-.2V50l.2-.3.1-.4v-.2l.4-.3.1-.2-.3-.3.1-.2h.3l-.1-.2-.1-.2.3-.4.1.2c.1.1.1.1.2.1h.1l.1-.3h.4l-.1-.4-.1.1-.1-.1.1-.4.4-.3-.2-.3h.5l-.4-.4.1-.3.2-.6v-.4l.2-.2.2-.1.3-.4h.3l.1.2h.1v-.2l.3-.3.1.2h.2v-.2l-.1-.2s-.1-.4,0-.3h.8l.1-.3s.2-.3.3-.2l.1.1.1.2.2-.2.1-.3h.5l.1-.4h.4l.3.2.1-.4h.4v.4l.2-.1.1-.3h.2l.1.2v.5h.7l.1.4.2-.1v-.3l.3-.2-.1-.3.2-.2.3.2.3-.2v-.3l.4.2.1.4h.2l.1-.4h.5v.4h.2a.22.22,0,0,1,.2.2l.1.1v.2l.2.2c.1,0,.1-.1.2,0s.3-.4.3-.4l.3.1.1.3-.2.2.1.2.3-.2s.3,0,.4.1.1.2.2.3l-.1.4h.3l.5-.1.4-.2s.3.1.3.2l.1.2h.2s.3.1.3.3v.5c.1-.1.2-.1.2,0h0c.1.1.2-.3.3.1l.1.4.3-.1.1-.2.2.1.2.5-.3.1v.3c0,.1-.3.4-.3.4l.2.2h.3v.4l.3.3.2-.2v.5l.2.1.1-.2.1.3-.2.3h.3v.3l.3-.5.2.5h.2v.3h.2v.5l.3.2v.3h-.2l.1.2h0Z" style="fill:#00953b"/><polygon points="35.43 54.71 35.03 48.91 34.33 48.91 34.13 54.71 35.43 54.71" style="fill:#645d21"/><path d="M43.83,45.31l-.4.2-.2-.2h-.1l.1.2-.3.3-.1-.4-.3.2.1.2.2.2-.1.2h-.1l-.2.1.1.3-.4.2.1.4.1.3-.1.2h-.1l-.2-.4s-.2-.1-.2.1v.2l-.1.1-.2-.2s-.3.1-.3.2v.1h-.3v-.4l-.4.4v.3H40l-.2-.5s-.4,0-.4.1.2.3.3.5h-.3l-.3-.3v-.3l-.2.5-.3-.2v.5c-.1.1-.2.2-.3.2v-.5l-.3.5v.3l-.3.1-.1-.2h-.4l.1.2-.3.2-.1-.4-.3.1.1.2-.1.2-.4-.3-.5.1.2.3-.1.2-.2.3v.3h-.2l-.1-.4s-.3,0-.2.1a.37.37,0,0,1,.1.3l-.3.4V50l-.3-.1v.2l-.3.3-.2-.1v-.5l-.4.1v.4l-.1.2h-.3v-.6l-.2-.1-.2.3-.4-.3v-.4l-.3.4-.3.1v.3l-.3.3v-.4h-.3v.4l-.4-.2-.1-.4-.2.3-.3-.3v-.3l-.1-.4-.2-.1v.4l-.3.1-.2-.4c-.1-.1-.1-.1-.2,0h0c-.1.1-.3-.2-.3-.2v-.4l-.4.1v.2l-.5.1-.2-.3h-.3l-.2-.2v-.4l-.6.1-.1-.1-.1-.1h-.2l-.5.1v-.7l-.1.1-.2.1v.2h-.2l-.1-.2h-.5V47l.2-.4h-.2l-.3-.4-.2.1-.2-.3-.3-.2v-.2l.2-.3.1-.4v-.2l.4-.3.1-.2-.3-.3.1-.2h.3l-.1-.2-.1-.2.3-.4.1.2c.1.1.1.1.2.1h.1l.1-.3h.4l-.1-.4-.1.1-.1-.1.1-.4.4-.3-.2-.3h.5l-.4-.4.1-.3.2-.6v-.4l.2-.2.2-.1.3-.4h.3l.1.2h.1v-.2l.3-.3.1.2h.2v-.2l-.1-.2s-.1-.4,0-.3h.8l.1-.3s.2-.3.3-.2l.1.1.1.2.2-.2.1-.3H30l.1-.4h.4l.3.2.1-.4h.4v.4l.2-.1.1-.3h.2l.1.2v.5h.7l.1.4.2-.1v-.3l.3-.2-.1-.3.2-.2.3.2.3-.2v-.3l.4.2.1.4h.2l.1-.4h.5v.4h.2a.22.22,0,0,1,.2.2l.1.1v.2l.2.2c.1,0,.1-.1.2,0s.3-.4.3-.4l.3.1.1.3-.2.2.1.2.3-.2s.3,0,.4.1.1.2.2.3l-.1.4h.3l.5-.1.4-.2s.3.1.3.2l.1.2h.2s.3.1.3.3v.5c.1-.1.2-.1.2,0h0c.1.1.2-.3.3.1l.1.4.3-.1.1-.2.2.1.2.5-.3.1v.3c0,.1-.3.4-.3.4l.2.2h.3v.4l.3.3.2-.2v.5l.2.1.1-.2.1.3-.2.3h.3v.3l.3-.5.2.5h.2v.3h.2v.5l.3.2v.3h-.2l.1.2h0Z" style="fill:#00953b"/><path d="M43.83,45.31l-.4.2-.2-.2h-.1l.1.2-.3.3-.1-.4-.3.2.1.2.2.2-.1.2h-.1l-.2.1.1.3-.4.2.1.4.1.3-.1.2h-.1l-.2-.4s-.2-.1-.2.1v.2l-.1.1-.2-.2s-.3.1-.3.2v.1h-.3v-.4l-.4.4v.3H40l-.2-.5s-.4,0-.4.1.2.3.3.5h-.3l-.3-.3v-.3l-.2.5-.3-.2v.5c-.1.1-.2.2-.3.2v-.5l-.3.5h0v.3l-.3.1-.1-.2h-.4l.1.2-.3.2-.1-.4-.3.1.1.2-.1.2-.4-.3-.5.1.2.3-.1.2-.2.3v.3h-.2l-.1-.4s-.3,0-.2.1a.37.37,0,0,1,.1.3l-.3.4V50l-.3-.1v.2l-.3.3-.2-.1v-.5l-.4.1v.4l-.1.2h-.3v-.6l-.2-.1-.2.3-.4-.3v-.4l-.3.4-.3.1v.3l-.3.3v-.4h-.3v.4l-.4-.2-.1-.4-.2.3-.3-.3v-.4l-.1-.3-.2-.1v.4l-.3.1-.2-.4c-.1-.1-.1-.1-.2,0h0c-.1.1-.3-.2-.3-.2v-.4l-.4.1v.2l-.5.1-.2-.3h-.3l-.2-.2v-.4l-.6.1-.1-.1.2-.4.3.2.5-.2V48l.1.1h.5l.1-.2s.5-.1.5,0v.3H30l-.1-.5c.2.1.4.1.6.2v.7h.4l.3-.6s.2,0,.2.1v.5l.7.2.3-.3v-.3H33s.4.2.3.3.4-.5.4-.5l-.1-.4.6-.4-.1-.4v-.2l.2-.5v-.5l-.5-.5-.1-.5H34l-.4-.9h-.3l.2-.3.3-.2L32.7,43v-.5l.6.2.6-.2h.2l.3.6.4.6-.2.2c-.1.1.5.4.5.4l.1.3v1.1l-.3.4-.1.1.4.3.4-.3v.4l.5.3.3-.2.4.2.5-.3.1-.3.2.7a1.42,1.42,0,0,0,.6-.2l.3-.3s.3-.2.5-.1.5-.1.5-.1v-.6l.6-.2.2-.2.1-.4h.4l.2.2.1-.2.1-.5.3.1v-.4l-.1-.3-.6-.1v-.3h.4l-.4-.6.2-.3-.4-.2-.2-.3v-.2h.1l.1.1.9.6a.45.45,0,0,0,.5,0v.1l-.2.3h.3v.3l.3-.5.2.5h.2v.3H43V44l.3.2v.3h-.2l.1.2h0Z" style="fill:#007934"/><polygon points="31.97 43.15 32.17 43.45 31.97 43.85 32.37 44.25 32.87 43.65 32.97 42.95 32.47 42.65 31.97 42.75 31.97 43.15" style="fill:#ffd100"/><polygon points="117.97 44.15 118.17 44.45 117.97 44.85 118.37 45.25 118.87 44.65 118.97 43.95 118.47 43.65 117.97 43.75 117.97 44.15" style="fill:#ffd100"/><polygon points="114.97 48.15 115.17 48.45 114.97 48.85 115.37 49.25 115.87 48.65 115.97 47.95 115.47 47.65 114.97 47.75 114.97 48.15" style="fill:#ffd100"/><polygon points="37.97 43.15 38.17 43.45 37.97 43.85 38.37 44.25 38.87 43.65 38.97 42.95 38.47 42.65 37.97 42.75 37.97 43.15" style="fill:#ffd100"/><polygon points="28.97 45.15 29.17 45.45 28.97 45.85 29.37 46.25 29.87 45.65 29.97 44.95 29.47 44.65 28.97 44.75 28.97 45.15" style="fill:#ffd100"/><polygon points="95.68 67.01 79.57 67.01 80.4 36.03 94.85 36.03 95.68 67.01" style="fill:#bba380"/><polygon points="81.82 37.56 81.84 37.56 81.82 37.53 80.81 36.39 80.77 36.39 79.95 66.68 80.99 65.51 81.82 37.56" style="stroke:#72361c;stroke-linecap:round;stroke-linejoin:round;stroke-width:0.41965198516845703px;fill:url(#a)"/><polygon points="93.46 37.59 94.29 65.45 95.33 66.62 94.5 36.41 93.46 37.59" style="stroke:#72361c;stroke-linecap:round;stroke-linejoin:round;stroke-width:0.41965198516845703px;fill:url(#b)"/><polygon points="94.29 65.51 80.99 65.51 79.95 66.68 95.33 66.68 95.33 66.62 94.29 65.45 94.29 65.51" style="stroke:#72361c;stroke-linecap:round;stroke-linejoin:round;stroke-width:0.41965198516845703px;fill:url(#c)"/><polygon points="81.84 37.56 93.46 37.56 93.46 37.59 94.5 36.41 94.5 36.39 80.81 36.39 81.82 37.53 81.84 37.56" style="stroke:#72361c;stroke-linecap:round;stroke-linejoin:round;stroke-width:0.41965198516845703px;fill:url(#d)"/><polygon points="80.88 36.41 81.31 36.72 94.09 36.74 94.36 36.47 80.88 36.41" style="fill:#ffc9a1;opacity:0.4000000059604645;isolation:isolate"/><polygon points="94.43 36.62 94.42 37.04 93.75 37.76 94.62 65.69 94.36 65.42 93.53 37.64 94.43 36.62" style="fill:#ffc9a1;opacity:0.4000000059604645;isolation:isolate"/><polygon points="80.29 66.47 81 65.64 94.24 65.62 94.53 65.84 81.07 65.86 80.29 66.47" style="fill:#ffc9a1;opacity:0.4000000059604645;isolation:isolate"/><polygon points="81.59 37.5 80.87 36.62 80.05 66.35 81.14 37.28 81.64 37.89 81.59 37.5" style="fill:#ffc9a1;opacity:0.4000000059604645;isolation:isolate"/><polygon points="81.47 65.06 82.3 38.08 93.13 38.08 93.96 65.06 81.47 65.06" style="fill:url(#e)"/><polygon points="83.66 39.48 82.84 43.64 82.84 45.08 82.84 49.24 83.59 48.4 83.59 45.08 83.59 43.64 84.42 40.32 83.66 39.48" style="fill:url(#f)"/><polygon points="83.66 39.48 83.45 40.43 83.43 48.24 82.84 49.24 83.59 48.4 83.59 45.08 83.59 43.64 84.42 40.32 83.66 39.48" style="opacity:0.4000000059604645;isolation:isolate;fill:url(#g)"/><polygon points="90.97 40.32 91.79 43.64 91.79 45.08 91.79 48.4 92.55 49.24 92.55 45.08 92.55 43.64 91.72 39.48 90.97 40.32" style="opacity:0.30000001192092896;isolation:isolate;fill:url(#h)"/><polygon points="90.97 40.32 91.72 39.48 83.66 39.48 84.42 40.32 90.97 40.32" style="fill:url(#i)"/><polygon points="90.97 40.32 91.72 39.48 90.85 40.16 84.42 40.32 90.97 40.32" style="opacity:0.4000000059604645;isolation:isolate;fill:url(#j)"/><polygon points="83.59 48.4 82.84 49.24 92.55 49.24 91.79 48.4 83.59 48.4" style="fill:url(#k)"/><g style="opacity:0.4000000059604645"><polygon points="83.59 48.4 82.84 49.24 92.55 49.24 91.79 48.4 92.13 49.06 83.04 49.06 83.59 48.4" style="fill:url(#l)"/></g><g style="opacity:0.4000000059604645"><polygon points="92.55 49.25 91.73 39.48 90.98 40.33 91.57 39.76 92.4 49.08 92.55 49.25" style="fill:url(#m)"/></g><polygon points="91.9 48.49 83.52 48.49 84.34 40.22 91.08 40.22 91.9 48.49" style="opacity:0.30000001192092896;isolation:isolate;fill:url(#n)"/><polygon points="82.84 52.93 82.84 57.1 82.84 58.53 82.84 62.7 83.59 61.85 83.59 58.53 83.59 57.1 83.59 53.78 82.84 52.93" style="fill:url(#o)"/><polygon points="82.84 52.93 83.45 53.89 83.43 61.7 82.84 62.7 83.59 61.85 83.59 58.53 83.59 57.1 83.59 53.78 82.84 52.93" style="opacity:0.4000000059604645;isolation:isolate;fill:url(#p)"/><polygon points="91.79 53.78 91.79 57.1 91.79 58.53 91.79 61.85 92.55 62.7 92.55 58.53 92.55 57.1 92.55 52.93 91.79 53.78" style="opacity:0.30000001192092896;isolation:isolate;fill:url(#q)"/><polygon points="91.79 53.78 92.55 52.93 82.84 52.93 83.59 53.78 91.79 53.78" style="fill:url(#r)"/><polygon points="91.79 53.78 92.55 52.93 91.67 53.62 83.59 53.78 91.79 53.78" style="opacity:0.4000000059604645;isolation:isolate;fill:url(#s)"/><polygon points="83.59 61.85 82.84 62.7 92.55 62.7 91.79 61.85 83.59 61.85" style="fill:url(#t)"/><g style="opacity:0.4000000059604645"><polygon points="83.59 61.85 82.84 62.7 92.55 62.7 91.79 61.85 92.13 62.52 83.04 62.52 83.59 61.85" style="fill:url(#u)"/></g><g style="opacity:0.4000000059604645"><polygon points="92.55 62.71 92.55 52.94 91.8 53.78 92.4 53.22 92.4 62.54 92.55 62.71" style="fill:url(#v)"/></g><rect x="83.52" y="53.68" width="8.39" height="8.27" style="opacity:0.30000001192092896;isolation:isolate;fill:url(#w)"/><path d="M92.7,38.57l.82,26H81.91l.82-26Zm.87-1H81.86l-.82,28H94.39Z" style="fill:url(#x)"/><path d="M94.39,65.61H81a.06.06,0,0,1-.06-.06l.83-28a.06.06,0,0,1,0-.06h11.8a.06.06,0,0,1,.05.06l.83,28a.06.06,0,0,1-.06.06ZM81.1,65.48H94.33l-.82-27.82H81.92Zm12.42-.84H81.91a.07.07,0,0,1-.06-.07l.82-26a.07.07,0,0,1,.06-.07h10v.07l.83,26A.07.07,0,0,1,93.52,64.64ZM82,64.51H93.5l-.82-25.88H82.79Z" style="fill:#72361c"/><g style="opacity:0.6000000238418579"><polygon points="93.31 37.59 94.13 65.25 81.04 65.25 81.04 65.55 94.39 65.55 93.57 37.59 93.31 37.59" style="fill:url(#y)"/></g><path d="M93.23,37.86a.12.12,0,0,1-.13.11H82.43a.12.12,0,0,1-.13-.11h0c0-.06.06-.1.13-.1H93.1C93.17,37.76,93.23,37.76,93.23,37.86Z" style="fill:#ffc9a1;opacity:0.4000000059604645;isolation:isolate"/><path d="M93.72,64.81a.11.11,0,0,1-.12.1H82a.12.12,0,0,1-.12-.1h0A.13.13,0,0,1,82,64.7H93.6a.11.11,0,0,1,.12.1Z" style="fill:#ffc9a1;opacity:0.4000000059604645;isolation:isolate"/><path d="M81.3,65.23a.73.73,0,0,1-.09-.34L82,38.2c0-.18,0-.34.1-.34h0c.05,0,.09.16.09.34L81.4,64.89C81.4,65.08,81.4,65.23,81.3,65.23Z" style="fill:#ffc9a1;opacity:0.4000000059604645;isolation:isolate"/><path d="M93.72,64.53a.72.72,0,0,1-.09-.33l-.82-25.41c0-.18,0-.32.09-.32h0a.65.65,0,0,1,.09.32l.83,25.41C93.82,64.38,93.82,64.53,93.72,64.53Z" style="fill:#ffc9a1;opacity:0.4000000059604645;isolation:isolate"/><path d="M92.52,52.63V50.22h0a.46.46,0,0,0-.26-.79h0a.44.44,0,0,0-.4.45.49.49,0,0,0,.19.39v2.32a.49.49,0,0,0-.19.39.44.44,0,0,0,.4.45h0a.44.44,0,0,0,.4-.45A.43.43,0,0,0,92.52,52.63Z" style="fill:#c8c6c4"/><path d="M92.52,52.85c0,.17-.1.3-.24.3h0a.27.27,0,0,1-.24-.3h0V50.12a.27.27,0,0,1,.24-.3h0c.14,0,.24.13.24.3Z" style="fill:url(#z)"/><path d="M92.28,50a.26.26,0,0,0-.24.27v.28a.2.2,0,0,1,.19-.2.19.19,0,0,1,.18.2h0v1.83a.19.19,0,0,1-.18.2h0a.2.2,0,0,1-.19-.2v.28a.25.25,0,0,0,.24.26h0a.24.24,0,0,0,.24-.24V50.22A.25.25,0,0,0,92.28,50Z" style="fill:#7e7f82;opacity:0.4000000059604645;isolation:isolate"/><path d="M92.33,52.27c0,.1-.06.19-.12.19h0c-.07,0-.13-.09-.13-.19V50.55c0-.1.06-.18.13-.18h0c.06,0,.12.08.12.18Z" style="fill:#bfc0c1;opacity:0.6000000238418579;isolation:isolate"/><path d="M92.66,49.87a.41.41,0,0,1-.34.47.42.42,0,0,1-.47-.34.29.29,0,0,1,0-.13.41.41,0,0,1,.34-.47.42.42,0,0,1,.47.34A.29.29,0,0,1,92.66,49.87Z" style="fill:url(#aa)"/><path d="M92.44,49.64h-.13c-.06,0-.11-.06-.1-.1s.07,0,.13,0S92.45,49.6,92.44,49.64Z" style="fill:#fff"/><path d="M92.54,49.7Z" style="fill:#fff"/><path d="M92.25,49.42a.44.44,0,0,0-.4.45.41.41,0,0,0,.34.47.42.42,0,0,0,.47-.34.29.29,0,0,0,0-.13.43.43,0,0,0-.41-.45Zm0,.78a.37.37,0,0,1-.34-.39.34.34,0,0,1,.68,0h0a.38.38,0,0,1-.32.39Z" style="fill:#7e7f82;opacity:0.20000000298023224;isolation:isolate"/><path d="M92.25,52.51a.43.43,0,0,0-.4.46.41.41,0,0,0,.34.47.42.42,0,0,0,.47-.34.29.29,0,0,0,0-.13A.44.44,0,0,0,92.25,52.51Zm0,.78a.39.39,0,1,1,.34-.44v.06a.36.36,0,0,1-.32.38Z" style="fill:#7e7f82;opacity:0.20000000298023224;isolation:isolate"/><path d="M92.66,53a.41.41,0,0,1-.34.47.42.42,0,0,1-.47-.34.29.29,0,0,1,0-.13.41.41,0,0,1,.34-.47.42.42,0,0,1,.47.34A.29.29,0,0,1,92.66,53Z" style="fill:url(#ab)"/><path d="M92.44,52.73a.11.11,0,0,1-.13,0c-.06,0-.11-.07-.1-.11s.07,0,.13,0S92.45,52.7,92.44,52.73Z" style="fill:#fff"/><polygon points="54.85 35.94 87.69 10.43 121.06 35.94 119.59 37.76 87.96 13.42 55.85 37.76 54.85 35.94" style="fill:#81afde"/><polygon points="61.48 39.06 62.11 34.63 87.27 15.11 114.22 35.28 114.22 38.54 119.59 37.76 87.96 13.42 55.85 37.76 61.48 39.06" style="fill:#4a78bc"/><polygon points="74.96 36.85 76.01 38.54 87.54 31.51 99.38 38.54 100.33 36.85 87.13 28.54 74.96 36.85" style="fill:#81afde"/><polygon points="76.82 39.67 87.54 32.81 99.13 39.67 99.38 38.54 87.54 31.51 76.01 38.54 76.82 39.67" style="fill:#4a78bc"/><path d="M58.85,66.65,79.69,67q.32-8.45.58-17,.21-6.37.37-12.69l-3.82,2.3L75,36.85l12.17-8.31,13.2,8.31-1,1.62-.2,1.2-4.44-2.5q.51,15,1,29.94h21.79c-.47-3.29-.91-6.66-1.34-10.09Q115,47,114.26,37.76L87.72,17.37l-26,20.39Z" style="fill:#f7f2f2"/><polyline points="61.67 37.76 87.72 17.37 114.22 37.76 114.22 35.28 87.27 15.11 62.11 34.63 61.59 38.54" style="fill:#ccc"/><path d="M64.49,42.25l9.05.21-.67,12.28-9.12-.35Z" style="fill:#4497c9"/><polygon points="68.51 47.81 64.87 47.65 65.02 42.86 68.66 43.03 68.51 47.81" style="fill:#c5e1f4"/><polygon points="72.55 48 68.91 47.83 69.06 43.05 72.7 43.22 72.55 48" style="fill:#c5e1f4"/><polygon points="68.33 53.68 64.69 53.51 64.84 48.73 68.48 48.89 68.33 53.68" style="fill:#c5e1f4"/><polygon points="72.37 53.87 68.73 53.7 68.88 48.91 72.52 49.08 72.37 53.87" style="fill:#c5e1f4"/><path d="M103.43,43l8.73.51q.12,5.73.22,11.46l-8.68-.27Z" style="fill:#4497c9"/><polygon points="107.74 48.63 104.25 48.56 104.31 43.92 107.8 43.99 107.74 48.63" style="fill:#c5e1f4"/><polygon points="111.62 48.7 108.13 48.63 108.18 43.99 111.67 44.06 111.62 48.7" style="fill:#c5e1f4"/><polygon points="107.67 54.31 104.18 54.25 104.24 49.61 107.73 49.67 107.67 54.31" style="fill:#c5e1f4"/><polygon points="111.55 54.38 108.06 54.32 108.11 49.68 111.61 49.74 111.55 54.38" style="fill:#c5e1f4"/><path d="M82.24,36.2l10.82-.07-5.52-3.32Z" style="fill:#ccc"/><rect x="-33.16" y="13.38" width="84.87" height="61.3" rx="11.04" style="fill:#44393d"/><ellipse cx="46.55" cy="37.69" rx="4.26" ry="4.31" style="fill:#5385f4"/><ellipse cx="46.25" cy="25.97" rx="4.26" ry="4.31" style="fill:#e7476b"/><ellipse cx="46.25" cy="49.19" rx="4.26" ry="4.31" style="fill:#34cb62"/><ellipse cx="46.25" cy="60.6" rx="4.26" ry="4.31" style="fill:#ffca26"/><rect x="-44.17" y="16.95" width="45.19" height="53.16" style="fill:#f1ed8a"/><rect x="1.6" y="16.95" width="45.19" height="53.16" style="fill:#f1ed8a"/><polygon points="6.19 77.83 4.16 75.85 2.04 77.83 2.04 16.35 6.19 16.35 6.19 77.83" style="fill:#4879b4"/><path d="M57.18,62.78c0,.07.07.14.13.25s.07.11.13.14,0,0,.07,0a.09.09,0,0,1,0,.07v.11s-.06.07-.1.07h-.06a.92.92,0,0,1-.3-.32.77.77,0,0,1-.1-.29V62.6c-.06.21.1.43.13.64a.11.11,0,0,0,0,.11.31.31,0,0,1,.1.15.71.71,0,0,1,.1.14v.07c0,.07,0,.07-.06.11s-.1.11-.17.07a.07.07,0,0,1-.06-.07.71.71,0,0,0-.1-.14.24.24,0,0,1-.06-.11,1.16,1.16,0,0,1-.2-.65.36.36,0,0,1,.06-.25.14.14,0,0,1,.07-.11v-.07c0-.07.07-.11.13-.15l.2-.1h.1a.2.2,0,0,1,0,.15A.37.37,0,0,0,57.18,62.78Z" style="fill:#63413b"/><path d="M56.75,63v.21l.1.22.09.32v.33h-.13a.26.26,0,0,1-.07-.15,3.95,3.95,0,0,1-.26-1.8,1.36,1.36,0,0,1,.06-.29,2.16,2.16,0,0,1,.14-.43m.06,0a1.06,1.06,0,0,1,.13-.11H57a.63.63,0,0,1,.23.08.19.19,0,0,1,.09.18v.1h0a.3.3,0,0,1,.06.18v.32a3.39,3.39,0,0,1,.17.51v.11h-.33v-.07l-.1-.32a1.86,1.86,0,0,1-.1.39v.79a1.09,1.09,0,0,1,0,.36.12.12,0,0,1-.13.11c-.06,0-.1-.07-.1-.14v-.62a2.16,2.16,0,0,0,0-.36c.06-.07.13-.18.2-.28h0v-.08a.33.33,0,0,1,0,.33A.09.09,0,0,1,57,63c-.24,0-.2,0-.24,0Z" style="fill:#7f5449"/><path d="M57.44,62.56h0v.22h-.13a.12.12,0,0,1-.1-.08v-.18h0A.31.31,0,0,0,57.44,62.56Z" style="fill:#b7825a"/><path d="M56.75,63.64v.25h0a.09.09,0,0,1,0-.07,1.13,1.13,0,0,1,0-.26Z" style="fill:#b7825a"/><path d="M57.15,62.34v-.07a.06.06,0,0,0-.08,0h0s-.07.07-.07.11a1,1,0,0,1-.06.36.65.65,0,0,0-.07.36.21.21,0,0,0,0,.11V64c.1-.11.07-.22.07-.36V63.1a.81.81,0,0,1,0-.22,1.86,1.86,0,0,1,.1-.39.39.39,0,0,0,.06.25c.06.07.17.14.14.11s0-.15,0-.18A2,2,0,0,0,57.15,62.34Z" style="fill:#63413b"/><path d="M56.92,63.53a.73.73,0,0,1,0,.36h0V64h0v-.4a.09.09,0,0,1,0-.07h0" style="fill:#63413b"/><path d="M61.48,53.06a1.37,1.37,0,0,1-.69-.15,1,1,0,0,1-.32-.32,5.6,5.6,0,0,0-1,.14,5.22,5.22,0,0,0-.56.18,1.43,1.43,0,0,0-.49.57,4.15,4.15,0,0,1-.1.58,2.88,2.88,0,0,1,0,.59,13.88,13.88,0,0,1-.18,1.73,5.38,5.38,0,0,1-.22.9c-.12.31-.29.61-.43.89a7.59,7.59,0,0,0-.29.81,8.58,8.58,0,0,0-.27,1.22c0,.17-.18.88-.19,1s0,.18.27.17.25-.1.39,0a1.75,1.75,0,0,0,.12-.32c.09-.15.23-.59.32-.73l.78-1.54a4.69,4.69,0,0,0,.24-.75c0-.13,0-.27,0-.4v-.48c.07-.29.11-.46.15-.71,0,0,.11-.62.16-.95a4.71,4.71,0,0,0,0-.92c0,.1.29,2.84.26,3.67a5.37,5.37,0,0,1-.33,1.58c-.06.22-.26,1-.29,1.15a12.63,12.63,0,0,0-.23,1.62v1.48a6.27,6.27,0,0,0,.07,1.37c.06.54.16,1,.16,1.26s.13.65,0,.86a4.42,4.42,0,0,0-.17,1.62,11,11,0,0,0,.3,1.62A2.86,2.86,0,0,1,59,72.28a1.45,1.45,0,0,1-.39.43s-.1.11-.1.15,0,.14.07.18h.06a1.3,1.3,0,0,0,.62,0h.23a.51.51,0,0,0,.63-.15c.13-.25-.17-.54,0-.82v-.18a.48.48,0,0,0,0-.29,5.57,5.57,0,0,1,0-1,3.55,3.55,0,0,1,.1-.86,5.29,5.29,0,0,0,.13-.54,6.49,6.49,0,0,0,0-1.08,5.21,5.21,0,0,1,0-.79A6.76,6.76,0,0,1,60.66,66c.13-.62.4-2.85.4-3a.9.9,0,0,1,.13-.39.32.32,0,0,1,.29-.18" style="fill:#7f5449"/><path d="M65.79,62.73a1.26,1.26,0,0,1-.13.26.86.86,0,0,1-.13.14h-.07a.09.09,0,0,0,0,.07v.11s.07.07.1.07h.06a.84.84,0,0,0,.3-.32.77.77,0,0,0,.1-.29v-.22c.07.22-.1.44-.13.65a.21.21,0,0,1,0,.11.45.45,0,0,0-.1.14l-.1.15v.07c0,.07,0,.07.06.11s.1.11.17.07.06,0,.06-.07l.1-.15s.07-.07.07-.1a1.26,1.26,0,0,0,.19-.65.36.36,0,0,0-.06-.25.12.12,0,0,0-.07-.11v-.07c0-.08-.06-.11-.13-.15l-.2-.11h-.09a.17.17,0,0,0,0,.14A.36.36,0,0,1,65.79,62.73Z" style="fill:#63413b"/><path d="M66.22,62.91v.22l-.09.22-.1.32V64h.13a.21.21,0,0,0,.07-.14,5.31,5.31,0,0,0,.2-.68,4.22,4.22,0,0,0,.06-1.12,1.36,1.36,0,0,0-.06-.29,3.06,3.06,0,0,0-.13-.43h0a1.06,1.06,0,0,0-.13-.11H66a.57.57,0,0,0-.22.07.22.22,0,0,0-.1.18v.11h0a.3.3,0,0,0-.06.18v.32a3.39,3.39,0,0,0-.17.51v.1a.17.17,0,0,0,.1,0h.23v-.07l.09-.33a1.8,1.8,0,0,0,.1.4v.72a1.09,1.09,0,0,0,0,.36.13.13,0,0,0,.14.11c.07,0,.09-.07.09-.15V63.2a2.16,2.16,0,0,1,0-.36,1.81,1.81,0,0,1-.19-.29h0v-.07a.33.33,0,0,0,0,.33v.07Z" style="fill:#7f5449"/><path d="M65.53,62.52h0v.21h.13a.14.14,0,0,0,.1-.07v-.18h0A.37.37,0,0,1,65.53,62.52Z" style="fill:#b7825a"/><path d="M66.22,63.6v.25h0a.11.11,0,0,0,0-.08V63.6Z" style="fill:#b7825a"/><path d="M65.82,62.3v-.07c0-.07.06,0,.09,0s.07.07.07.11a.89.89,0,0,0,.07.36.74.74,0,0,1,.06.36.21.21,0,0,1,0,.11V64c-.1-.11-.07-.22-.07-.36V63.1a.81.81,0,0,0,0-.22,1.86,1.86,0,0,0-.1-.39.39.39,0,0,1-.06.25.51.51,0,0,1-.13.11s0-.15,0-.18A1.51,1.51,0,0,1,65.82,62.3Z" style="fill:#63413b"/><path d="M66.05,63.49a.73.73,0,0,0,0,.36h0V64h0v-.4a.09.09,0,0,0,0-.07h0" style="fill:#63413b"/><path d="M61.47,53.06h.37a1.21,1.21,0,0,0,.32-.11,1.29,1.29,0,0,0,.33-.33c.41.06.75.13,1,.19a1.69,1.69,0,0,1,.61.24,1.56,1.56,0,0,1,.56,1.1,8.91,8.91,0,0,0,.11,1c.07.73.08.92.15,1.3a4,4,0,0,0,.22.89c.12.32.29.61.42.9a7.64,7.64,0,0,1,.29.8,8.58,8.58,0,0,1,.27,1.22c0,.17.19.89.2,1s0,.18-.27.17-.25-.1-.39,0a1.69,1.69,0,0,1-.13-.31c-.08-.15-.23-.59-.31-.74l-.78-1.54a4.91,4.91,0,0,1-.24-.74.87.87,0,0,0-.06-.41v-.47c-.06-.3-.1-.47-.15-.72s-.09-.64-.16-1a3.54,3.54,0,0,1,0-.92c0,.11-.3,2.84-.26,3.67a5.37,5.37,0,0,0,.33,1.58c.06.22.26,1,.29,1.16a12.63,12.63,0,0,1,.23,1.62v1.47a6.27,6.27,0,0,1-.06,1.37c-.07.54-.17,1-.17,1.26s-.13.65,0,.87a4.42,4.42,0,0,1,.17,1.62,14.46,14.46,0,0,1-.3,1.62A3.05,3.05,0,0,0,64,72.31a1.64,1.64,0,0,0,.4.43s.1.11.1.14,0,.15-.07.18H64.3a1.13,1.13,0,0,1-.63,0h-.23a.5.5,0,0,1-.62-.14c-.13-.25.16-.54,0-.83v-.18a.48.48,0,0,1,0-.29,5.57,5.57,0,0,0,0-1,3.63,3.63,0,0,0-.1-.87,2.5,2.5,0,0,1-.13-.54,4.88,4.88,0,0,1,0-1.08v-.79a6.05,6.05,0,0,0-.3-1.34c-.13-.61-.39-2.85-.39-3a.82.82,0,0,0-.13-.4.42.42,0,0,0-.19-.16h-.11C61.2,55.41,61.27,53.08,61.47,53.06Z" style="fill:#7f5449"/><path d="M58.83,60.58a6.42,6.42,0,0,1,.23-.86,43.06,43.06,0,0,1,4.82,0,2.92,2.92,0,0,1,.23.83c.06.28-2.07,1.9-2.3,2.08a.59.59,0,0,1-.43.08.27.27,0,0,1-.22-.11C60.73,62.24,58.79,60.62,58.83,60.58Z" style="fill:#000068"/><circle cx="60.37" cy="55" r="0.07" style="fill:#2d2d2d"/><circle cx="62.66" cy="55.02" r="0.07" style="fill:#2d2d2d"/><path d="M59.12,55.82,58,55.07v.07l.58.4.52.35Z" style="fill:#d28eb2"/><path d="M59.09,55.92a.09.09,0,0,0,0-.07c0-.05-.07-.07-.07-.08a2.56,2.56,0,0,1,.11-.24c0-.08.07-.16.11-.25l-.09.38Z" style="fill:#d28eb2"/><path d="M63.86,55.75,65,55v.07l-.58.4-.52.34Z" style="fill:#d28eb2"/><path d="M63.88,55.86s.1-.14.17-.14l-.12-.3c0-.11-.09-.21-.13-.31a.49.49,0,0,0,0,.17v.32A1.65,1.65,0,0,0,63.88,55.86Z" style="fill:#d28eb2"/><path d="M70.84,50.66a18.66,18.66,0,0,1,2.59,0,4.94,4.94,0,0,0-.18.76,2.3,2.3,0,0,0,.18.73,1.46,1.46,0,0,1-1.25.5,1.25,1.25,0,0,1-1.23-.5c0-.22,0-.43,0-.65A4,4,0,0,0,70.84,50.66Z" style="fill:#7f5449"/><path d="M71.06,51.42a2,2,0,0,0,1.75.12,1.2,1.2,0,0,0,.4-.31.31.31,0,0,0,0-.19v-.19H73.1a15.54,15.54,0,0,1-1.93,0h-.26c-.11,0-.07,0,0,.11A.59.59,0,0,1,71.06,51.42Z" style="fill:#63413b"/><circle cx="70.88" cy="54.33" r="0.07" style="fill:#2d2d2d"/><path d="M71.4,50.28a5.24,5.24,0,0,0,.74.11,2.38,2.38,0,0,0,.7-.11c.08,0,0,.23-.7.23S71.4,50.28,71.4,50.28Z" style="fill:#63413b"/><path d="M72,50.7a.11.11,0,0,0,.15,0c.08-.07.07,0,.11,0h0a.18.18,0,0,1-.15.08.24.24,0,0,1-.19-.08Z" style="fill:#63413b"/><circle cx="73.47" cy="54.35" r="0.07" style="fill:#2d2d2d"/><path d="M70.74,50.73a18.66,18.66,0,0,1,2.59,0,4.94,4.94,0,0,0-.18.76,2.3,2.3,0,0,0,.18.73,1.46,1.46,0,0,1-1.26.5,1.24,1.24,0,0,1-1.22-.5c0-.22,0-.43,0-.65A4,4,0,0,0,70.74,50.73Z" style="fill:#7f5449"/><path d="M71,51.49a2,2,0,0,0,1.74.12,1.14,1.14,0,0,0,.41-.31.31.31,0,0,0,0-.19v-.19H73a15.54,15.54,0,0,1-1.93,0h-.26c-.11,0-.07,0,0,.11A.58.58,0,0,1,71,51.49Z" style="fill:#63413b"/><path d="M71.89,50.77a.11.11,0,0,0,.15,0c.08-.07.07,0,.11,0h0a.18.18,0,0,1-.15.08.24.24,0,0,1-.19-.08Z" style="fill:#63413b"/><circle cx="73.37" cy="54.42" r="0.07" style="fill:#2d2d2d"/><circle cx="70.78" cy="54.4" r="0.07" style="fill:#2d2d2d"/><path d="M71.65,51.31a1.69,1.69,0,0,0,.38.07,1.16,1.16,0,0,0,.37-.07s0,.13-.37.13S71.65,51.31,71.65,51.31Z" style="fill:#63413b"/><path d="M71.89,50.77a.11.11,0,0,0,.15,0c.08-.07.07,0,.11,0h0a.18.18,0,0,1-.15.08.24.24,0,0,1-.19-.08Z" style="fill:#63413b"/><circle cx="73.37" cy="54.42" r="0.07" style="fill:#2d2d2d"/><path d="M60.33,51.55a17.65,17.65,0,0,1,2.3,0,4.65,4.65,0,0,0-.16.72,2.32,2.32,0,0,0,.16.68,1.28,1.28,0,0,1-1.11.47A1.09,1.09,0,0,1,60.43,53c0-.2,0-.41,0-.61A3.49,3.49,0,0,0,60.33,51.55Z" style="fill:#7f5449"/><path d="M60.53,52.27a1.68,1.68,0,0,0,1.54.1,1,1,0,0,0,.36-.28.28.28,0,0,0,0-.18v-.18h-.1a12.2,12.2,0,0,1-1.71,0h-.23c-.1,0-.06,0,0,.1A.55.55,0,0,1,60.53,52.27Z" style="fill:#63413b"/><path d="M61.48,53.06h-.36a.93.93,0,0,1-.33-.12,1,1,0,0,1-.32-.32,8.4,8.4,0,0,0-1,.19,1.69,1.69,0,0,0-.61.24,1.39,1.39,0,0,0-.43.56,1.44,1.44,0,0,0-.14.54,9.28,9.28,0,0,1-.1,1c-.07.73-.08.91-.15,1.29a4,4,0,0,1-.22.9c-.12.31-.29.61-.43.89a7.59,7.59,0,0,0-.29.81,8.58,8.58,0,0,0-.27,1.22c0,.17-.18.88-.19,1s0,.18.27.17.25-.1.39,0a1.75,1.75,0,0,0,.12-.32c.09-.15.23-.59.32-.73l.78-1.54a4.69,4.69,0,0,0,.24-.75c0-.13,0-.27.05-.4v-.48c.07-.29.11-.46.15-.71,0,0,.11-.62.16-1a4.71,4.71,0,0,0,0-.92c0,.1.29,2.84.26,3.67a5.37,5.37,0,0,1-.33,1.58c-.06.22-.26,1-.29,1.15a12.63,12.63,0,0,0-.23,1.62v1.48a6.27,6.27,0,0,0,.07,1.37c.06.54.16,1,.16,1.26s.13.65,0,.86a4.42,4.42,0,0,0-.17,1.62,11,11,0,0,0,.3,1.62A3,3,0,0,1,59,72.28a1.45,1.45,0,0,1-.39.43s-.1.11-.1.15,0,.14.07.18h.06a1.3,1.3,0,0,0,.62,0h.23a.51.51,0,0,0,.63-.15c.13-.25-.17-.54,0-.82v-.18a.48.48,0,0,0,0-.29,5.57,5.57,0,0,1,0-1,3.55,3.55,0,0,1,.1-.86,5.29,5.29,0,0,0,.13-.54,6.49,6.49,0,0,0,0-1.08,5.21,5.21,0,0,1,0-.79A6.76,6.76,0,0,1,60.66,66c.13-.62.4-2.85.4-3a.9.9,0,0,1,.13-.39.35.35,0,0,1,.18-.16h.11C61.75,55.41,61.69,53.07,61.48,53.06Z" style="fill:#7f5449"/><path d="M64.34,59.62a6.85,6.85,0,0,1-.69-2.81,5.51,5.51,0,0,1,.1-1.67s0,.12.07.67q.27-.21.6-.42l.54-.31-.16-.87a1.56,1.56,0,0,0-1.58-1.56h-.07a2.09,2.09,0,0,1-1.61.89,1.92,1.92,0,0,1-1.61-.89,1.64,1.64,0,0,0-1.18.29,2,2,0,0,0-.61,1.16A4.3,4.3,0,0,0,58,55.17l1.07.67a2.34,2.34,0,0,1,.09-.38,1.43,1.43,0,0,1,.08-.22,9.78,9.78,0,0,1-.37,4.13c-.72,2.42-2.06,5.82-2.26,6.32a1.07,1.07,0,0,0,.61.67,3,3,0,0,0,.84,0,6.46,6.46,0,0,0,3.47.8,6.46,6.46,0,0,0,3.47-.8,1.25,1.25,0,0,0,.93,0,1.13,1.13,0,0,0,.51-.43A54.26,54.26,0,0,0,64.34,59.62Z" style="fill:#f1b4d1"/><path d="M61.59,53.4l-1.28.6-.68-1.43.37-.15S61.12,53.4,61.59,53.4Z" style="fill:#d28eb2"/><path d="M61.26,53.44l1.29.61.67-1.43-.37-.15S61.74,53.44,61.26,53.44Z" style="fill:#d28eb2"/><path d="M60.67,60.63c-.16-.07-.23-.41-.3-.77,0-.15-.07-.3-.11-.45v.17c0,.13.07.27.1.41.07.38.15.77.34.85s.28-.26.38-.56.17-.55.32-.53.23.3.31.61.17.66.35.66h0c.18,0,.27-.4.35-.76s.15-.63.3-.68.24.18.33.44.2.58.39.46l0-.19c-.14.05-.22-.19-.31-.44s-.19-.55-.36-.48-.26.41-.34.75-.15.66-.32.69-.24-.29-.33-.61-.17-.64-.34-.66-.27.28-.36.57S60.84,60.69,60.67,60.63Z" style="fill:#d28eb2"/><path d="M59.11,62.63c.19.14.31-.09.42-.31s.2-.4.36-.31.23.36.31.66.16.67.36.74.31-.22.41-.49.18-.48.34-.46.25.26.33.53.19.57.38.57h0c.2,0,.29-.34.38-.65s.16-.55.32-.6.25.16.35.38.22.51.42.41.27-.47.35-.82.13-.61.29-.72a.14.14,0,0,1,.19,0s0,0,0,0a2.25,2.25,0,0,0-.08-.24.15.15,0,0,0-.16,0c-.18.13-.25.47-.33.8s-.14.64-.31.74-.27-.14-.38-.38-.2-.48-.39-.41-.27.36-.35.65-.17.57-.34.6-.27-.25-.36-.53-.18-.56-.37-.57-.28.24-.38.5-.18.49-.36.44-.25-.35-.33-.66-.16-.64-.34-.73-.29.12-.4.33-.21.42-.38.29a.73.73,0,0,1-.2-.39v.12A.86.86,0,0,0,59.11,62.63Z" style="fill:#d28eb2"/><path d="M65.83,64.32c-.06,0-.11-.11-.17-.17s-.3-.36-.55-.2a1.5,1.5,0,0,0-.46.83c-.1.34-.2.66-.45.78s-.38-.11-.53-.34-.28-.46-.53-.39-.37.36-.49.66-.24.58-.49.61-.37-.25-.5-.52-.25-.56-.51-.58-.38.23-.52.48-.26.5-.51.44-.36-.38-.47-.7-.23-.64-.48-.74-.4.09-.54.29-.29.4-.53.25a1.43,1.43,0,0,1-.44-.86,2.81,2.81,0,0,0-.18-.56v.1a2.72,2.72,0,0,1,.18.55,1.55,1.55,0,0,0,.47.92c.27.16.43,0,.58-.26s.27-.39.5-.28.34.39.45.7.23.67.5.75.42-.21.56-.47.25-.48.48-.45.35.27.47.54.26.56.52.56h0c.27,0,.4-.35.52-.66s.23-.56.46-.62.36.15.49.37.3.48.57.37.38-.49.49-.84a1.32,1.32,0,0,1,.43-.78c.22-.15.36,0,.51.19a1.14,1.14,0,0,0,.15.16A.59.59,0,0,0,65.83,64.32Z" style="fill:#d28eb2"/><ellipse cx="61.33" cy="53.74" rx="0.14" ry="0.13" style="fill:#d28eb2"/><path d="M64.09,49.64a.27.27,0,0,1,.12.09.46.46,0,0,1,.08.19.82.82,0,0,1-.17.72.45.45,0,0,1-.38.22.2.2,0,0,1-.18-.06.21.21,0,0,1,0-.19V50C63.56,49.8,63.8,49.49,64.09,49.64Z" style="fill:#704843"/><path d="M59,49.64a.48.48,0,0,0-.11.09c-.06.06-.06.13-.09.19a.82.82,0,0,0,.18.72.43.43,0,0,0,.38.22.21.21,0,0,0,.17-.06.17.17,0,0,0,0-.19V50C59.53,49.8,59.27,49.49,59,49.64Z" style="fill:#704843"/><path d="M59.56,48.28a2.23,2.23,0,0,0-.23,1.27,8.58,8.58,0,0,0,.14,1.34c.21.73,1.32,1.21,1.4,1.24a1.61,1.61,0,0,0,1.29,0,2.5,2.5,0,0,0,1.4-1.33,2.3,2.3,0,0,0,.15-1.1,5.17,5.17,0,0,0-.12-1.24,1.3,1.3,0,0,0-.87-.73,6.17,6.17,0,0,0-1.82-.06A1.78,1.78,0,0,0,59.56,48.28Z" style="fill:#7f5449"/><path d="M61.2,50.74a.43.43,0,0,0,.32.09c.24,0,.26-.12.32-.09s0,.21-.26.24S61.14,50.8,61.2,50.74Z" style="fill:#63413b"/><path d="M60.86,51.33a1.31,1.31,0,0,0,.7.16c.33,0,.55-.16.57-.12s-.16.22-.4.29a.69.69,0,0,1-.35,0A.86.86,0,0,1,60.86,51.33Z" style="fill:#f7f2f2;stroke:#000;stroke-miterlimit:10;stroke-width:0.009999999776482582px"/><path d="M61.43,51.8a.08.08,0,0,0,.12,0c.06-.06.05,0,.08,0h0a.11.11,0,0,1-.11.06.15.15,0,0,1-.15-.06Z" style="fill:#63413b"/><path d="M60.52,49.16a1.4,1.4,0,0,0-.41.06l-.14.06s0-.27.5-.27.52.15.49.21S60.73,49.16,60.52,49.16Z" style="fill:#1c0803"/><path d="M62.57,49.16a1.4,1.4,0,0,1,.41.06l.15.06s0-.27-.5-.27-.53.15-.5.21S62.37,49.16,62.57,49.16Z" style="fill:#1c0803"/><path d="M59.05,49.08a1.89,1.89,0,0,1,.15-.94v-.06a.11.11,0,0,0-.15,0l-.07.07a.33.33,0,0,1-.55-.13.74.74,0,0,0,0-.21.48.48,0,0,1-.59-.33.43.43,0,0,1,.4-.46h0a.59.59,0,0,1-.09-.48.5.5,0,0,1,.38-.22c.12,0,.33.1.36.22a.4.4,0,0,1,.55-.14l0,0c.15.09.23.3.09.42a.39.39,0,0,1,.26,0A.14.14,0,0,1,60,47c0,.09-.27.28-.24.4s.21-.06.32-.09A2.79,2.79,0,0,1,61.35,47a3,3,0,0,1,1.32.15,3.17,3.17,0,0,1,.55.28c.06,0,.09,0,.12-.09s-.06-.22-.06-.31a.37.37,0,0,1,.53-.24.35.35,0,0,1,.15-.46.35.35,0,0,1,.14,0,.44.44,0,0,1,.52.34s0,0,0,.06-.06.09,0,.12.11,0,.17-.06a.49.49,0,0,1,.41.18.51.51,0,0,1,.09.43c-.09.18-.23.15-.32.18l.11.09a.4.4,0,0,1-.08.46c-.15.12-.5.12-.56,0s-.09,0-.12,0l-.08.09c-.06,0-.09-.09-.15-.13a.12.12,0,0,0-.17.07c.17.12.11.39.14.6a3.85,3.85,0,0,1-.09.67c0,.12-.11.52-.23.49a6.71,6.71,0,0,0-.09-1.1,1.29,1.29,0,0,0-.26-.57,1.46,1.46,0,0,0-.5-.28,4.51,4.51,0,0,0-2-.09,1.87,1.87,0,0,0-.73.18,1.83,1.83,0,0,0-.46.37,1,1,0,0,0-.24.48,1.35,1.35,0,0,0,0,.49,1.69,1.69,0,0,1,0,.55C59.26,49.9,59.08,49.44,59.05,49.08Z" style="fill:#230700"/><path d="M59.09,47.3a.47.47,0,0,1,.65-.2l.08,0a.16.16,0,0,0,.09.15c.06,0-.26.16-.41.34a1.38,1.38,0,0,0-.2.33l-.21-.09A.43.43,0,0,1,59.09,47.3Z" style="fill:#bc66cc"/><path d="M64.12,47.3a.52.52,0,0,0-.72-.2l0,0c0,.06-.09.09-.15.12s.32.22.47.4a1.15,1.15,0,0,1,.21.33l.2-.09C64.15,47.85,64.35,47.64,64.12,47.3Z" style="fill:#bc66cc"/><path d="M59.91,50c0-.22.32-.37.61-.37s.56.15.56.37-.21.36-.53.36S59.91,50.19,59.91,50Z" style="fill:#ffecd8"/><ellipse cx="60.5" cy="49.96" rx="0.32" ry="0.3" transform="translate(-13.04 22.62) rotate(-19.16)" style="fill:#290600"/><circle cx="60.35" cy="49.95" r="0.12" style="fill:#fcfcfc"/><path d="M60.55,49.52c.15,0,.53.12.56.4s-.06-.31-.59-.31a.59.59,0,0,0-.61.46C59.88,49.58,60.29,49.52,60.55,49.52Z" style="fill:#230601"/><path d="M61.91,50c0-.21.32-.36.61-.36s.56.15.56.36-.2.37-.53.37S61.91,50.21,61.91,50Z" style="fill:#ffecd8"/><ellipse cx="62.51" cy="49.97" rx="0.32" ry="0.3" transform="translate(-12.94 23.28) rotate(-19.16)" style="fill:#290600"/><circle cx="62.35" cy="49.96" r="0.12" style="fill:#fcfcfc"/><path d="M62.55,49.54c.15,0,.53.12.56.39s-.06-.3-.59-.3a.58.58,0,0,0-.61.45C61.88,49.6,62.29,49.54,62.55,49.54Z" style="fill:#230601"/><path d="M67.28,62.59c0,.07.08.15.15.26s.07.12.15.16,0,0,.07,0a.09.09,0,0,1,0,.07v.12s-.07.07-.11.07h-.08a1.1,1.1,0,0,1-.33-.35.64.64,0,0,1-.11-.3v-.23c-.07.23.11.45.15.68a.13.13,0,0,0,0,.12.58.58,0,0,1,.11.15,1.17,1.17,0,0,0,.11.16s0,0,0,.07,0,.08-.08.12-.11.11-.18.07a.08.08,0,0,1-.08-.07.91.91,0,0,0-.11-.16s-.07-.07-.07-.11a1.2,1.2,0,0,1-.22-.69.37.37,0,0,1,.07-.27.14.14,0,0,1,.07-.11v-.08c0-.08.08-.11.15-.15l.23-.12h.11v.15A.39.39,0,0,0,67.28,62.59Z" style="fill:#63413b"/><path d="M66.8,62.78V63l.11.23.11.34v.35h-.15a.3.3,0,0,1-.08-.16,5.48,5.48,0,0,1-.22-.72,4.31,4.31,0,0,1-.07-1.19,1.08,1.08,0,0,1,.07-.31,4,4,0,0,1,.15-.45h0a.89.89,0,0,1,.15-.12h.19a.79.79,0,0,1,.26.08.21.21,0,0,1,.11.19v.11h0a.27.27,0,0,1,.08.19v.35a2.55,2.55,0,0,1,.18.53v.12a.11.11,0,0,1-.11,0h-.26v-.08l-.11-.35a1.73,1.73,0,0,1-.12.43v.76a1.21,1.21,0,0,1,0,.38c0,.08-.08.12-.15.12s-.11-.08-.11-.16V63a2.41,2.41,0,0,0,0-.38l.22-.3h0v-.08a.3.3,0,0,1,0,.34.11.11,0,0,1,0,.08C66.8,62.74,66.84,62.78,66.8,62.78Z" style="fill:#7f5449"/><path d="M67.58,62.36h0v.23h-.15a.13.13,0,0,1-.11-.08v-.19h0A.39.39,0,0,0,67.58,62.36Z" style="fill:#b7825a"/><path d="M66.8,63.51v.26h0a.11.11,0,0,1,0-.08v-.18Z" style="fill:#b7825a"/><path d="M67.25,62.13v-.08c0-.08-.08,0-.11,0s-.08.08-.08.12a1,1,0,0,1-.07.38.73.73,0,0,0-.08.38.13.13,0,0,0,0,.12v.84c.11-.12.08-.23.08-.38v-.58a.89.89,0,0,1,0-.23,2.17,2.17,0,0,1,.11-.42.36.36,0,0,0,.08.27c.08.08.18.15.15.11s0-.15,0-.19S67.28,62.24,67.25,62.13Z" style="fill:#63413b"/><path d="M67,63.39a.62.62,0,0,1,0,.38h0V64h0v-.42a.11.11,0,0,1,0-.08h0" style="fill:#63413b"/><path d="M72.14,52.26a1.73,1.73,0,0,1-.78-.15,1.09,1.09,0,0,1-.37-.34,7.77,7.77,0,0,0-1.18.15,4.57,4.57,0,0,0-.63.19,1.54,1.54,0,0,0-.56.6,3.36,3.36,0,0,1-.11.62,3.35,3.35,0,0,1-.05.63,14,14,0,0,1-.21,1.84,5.82,5.82,0,0,1-.24,1c-.14.33-.33.65-.49,1s-.24.66-.32.85a8.2,8.2,0,0,0-.31,1.3c0,.18-.21.94-.22,1.11s0,.19.31.17.27-.1.44,0a2,2,0,0,0,.14-.34c.09-.16.26-.63.35-.78s.79-1.48.88-1.63a3.77,3.77,0,0,0,.27-.8.83.83,0,0,1,.07-.43v-.5c.07-.32.12-.5.17-.76a8.37,8.37,0,0,1,.18-1,4.18,4.18,0,0,0,0-1c0,.11.33,3,.29,3.9a5.38,5.38,0,0,1-.37,1.68c-.07.23-.29,1-.33,1.23a12.53,12.53,0,0,0-.26,1.72v1.56a6.48,6.48,0,0,0,.08,1.46c.07.57.18,1.11.18,1.34s.15.68,0,.91A4.52,4.52,0,0,0,69,69.43a14.69,14.69,0,0,0,.34,1.73c0,.11.29,1.14.07,1.53a1.71,1.71,0,0,1-.44.45s-.11.12-.11.16,0,.15.07.19H69a1.42,1.42,0,0,0,.71,0H70a.6.6,0,0,0,.7-.15c.15-.27-.19-.58,0-.88v-.2a.39.39,0,0,0,0-.3,5.15,5.15,0,0,1,0-1.11,4.06,4.06,0,0,1,.11-.92,2.82,2.82,0,0,0,.15-.57,5.53,5.53,0,0,0,0-1.15,5.89,5.89,0,0,1,0-.84A7.09,7.09,0,0,1,71.21,66c.15-.65.45-3,.45-3.13a.79.79,0,0,1,.15-.42.36.36,0,0,1,.33-.19" style="fill:#7f5449"/><path d="M72.14,52.26a1.48,1.48,0,0,1-.42,0,1.18,1.18,0,0,1-.36-.12A1.09,1.09,0,0,1,71,51.8a8.47,8.47,0,0,0-1.12.2,1.91,1.91,0,0,0-.69.25,1.51,1.51,0,0,0-.49.6,1.6,1.6,0,0,0-.15.57c-.06.44-.09.8-.12,1a13,13,0,0,1-.17,1.38,4.29,4.29,0,0,1-.24,1c-.14.33-.33.65-.49,1s-.24.66-.32.85a8.2,8.2,0,0,0-.31,1.3c0,.18-.21.94-.22,1.11s0,.19.31.17.27-.1.44,0a2,2,0,0,0,.14-.34c.09-.16.26-.63.35-.78s.79-1.48.88-1.63a3.77,3.77,0,0,0,.27-.8.83.83,0,0,1,.07-.43v-.5c.07-.32.12-.5.17-.76a8.37,8.37,0,0,1,.18-1,4.18,4.18,0,0,0,0-1c0,.11.33,3,.29,3.9a5.38,5.38,0,0,1-.37,1.68c-.07.23-.29,1-.33,1.23a12.53,12.53,0,0,0-.26,1.72v1.56a6.48,6.48,0,0,0,.08,1.46c.07.57.18,1.11.18,1.34s.15.68,0,.91A4.52,4.52,0,0,0,69,69.43a14.69,14.69,0,0,0,.34,1.73c0,.11.29,1.14.07,1.53a1.71,1.71,0,0,1-.44.45s-.11.12-.11.16,0,.15.07.19H69a1.42,1.42,0,0,0,.71,0H70a.6.6,0,0,0,.7-.15c.15-.27-.19-.58,0-.88v-.2a.39.39,0,0,0,0-.3,5.15,5.15,0,0,1,0-1.11,4.06,4.06,0,0,1,.11-.92,2.82,2.82,0,0,0,.15-.57,5.53,5.53,0,0,0,0-1.15,5.89,5.89,0,0,1,0-.84A7.09,7.09,0,0,1,71.21,66c.15-.65.45-3,.45-3.13a.79.79,0,0,1,.15-.42.41.41,0,0,1,.2-.17h.13C72.44,54.76,72.37,52.28,72.14,52.26Z" style="fill:#7f5449"/><path d="M77,62.54a1.43,1.43,0,0,1-.15.27.4.4,0,0,1-.15.15c-.08,0,0,0-.07,0a.11.11,0,0,0,0,.08v.11s.08.08.11.08h.08a1,1,0,0,0,.33-.34.68.68,0,0,0,.11-.31v-.23c.07.23-.11.46-.15.69a.11.11,0,0,1,0,.11.91.91,0,0,0-.11.16l-.11.15v.08c0,.08,0,.07.07.11s.11.12.18.08a.09.09,0,0,0,.08-.08,1.27,1.27,0,0,1,.11-.15.19.19,0,0,0,.07-.12,1.29,1.29,0,0,0,.23-.68.36.36,0,0,0-.08-.27.15.15,0,0,0-.07-.12v-.07c0-.08-.08-.12-.15-.16L77,62h-.11a.38.38,0,0,0,0,.15A.36.36,0,0,1,77,62.54Z" style="fill:#63413b"/><path d="M77.48,62.73V63l-.11.23-.11.35v.34h.14a.28.28,0,0,0,.08-.15A4.71,4.71,0,0,0,77.7,63a4.24,4.24,0,0,0,.08-1.18.84.84,0,0,0-.08-.31,1.9,1.9,0,0,0-.15-.46h0a.61.61,0,0,0-.15-.11h-.18A.59.59,0,0,0,77,61a.21.21,0,0,0-.11.19v.12h0a.27.27,0,0,0-.08.19v.34q-.1.27-.18.54v.11a.11.11,0,0,0,.11,0H77v-.08l.11-.34a1.63,1.63,0,0,0,.11.42v.77a1.21,1.21,0,0,0,0,.38.13.13,0,0,0,.14.11c.07,0,.11-.07.11-.15V63a1.21,1.21,0,0,1,0-.38,2.26,2.26,0,0,1-.23-.31h0v-.07a.27.27,0,0,0,0,.34.11.11,0,0,0,0,.08A.87.87,0,0,1,77.48,62.73Z" style="fill:#7f5449"/><path d="M76.7,62.31h0v.23h.15a.12.12,0,0,0,.11-.07v-.19h0A.57.57,0,0,1,76.7,62.31Z" style="fill:#b7825a"/><path d="M77.48,63.46v.27h0a.11.11,0,0,0,0-.08,1.22,1.22,0,0,0,0-.27Z" style="fill:#b7825a"/><path d="M77,62.08V62a.08.08,0,0,1,.11,0h0s.07.07.07.11,0,.25.07.38a.76.76,0,0,1,.08.39.11.11,0,0,1,0,.11v.84c-.11-.11-.07-.23-.07-.38v-.57a.45.45,0,0,0,0-.23l-.11-.42a.34.34,0,0,1-.08.26l-.14.12s0-.15,0-.19A2,2,0,0,1,77,62.08Z" style="fill:#63413b"/><path d="M77.3,63.35a.81.81,0,0,0,0,.38h0v.12h0v-.42a.09.09,0,0,0,0-.07h0" style="fill:#63413b"/><path d="M72.13,52.27a1.41,1.41,0,0,0,.41,0,1.09,1.09,0,0,0,.36-.12,1.12,1.12,0,0,0,.38-.34c.46.06.84.14,1.12.2a1.86,1.86,0,0,1,.69.26,1.61,1.61,0,0,1,.64,1.17,5.89,5.89,0,0,0,.12,1c.08.77.09,1,.16,1.37a4.88,4.88,0,0,0,.25,1c.14.34.33.65.48,1a6.92,6.92,0,0,1,.33.86,7.11,7.11,0,0,1,.3,1.29c0,.19.22.94.23,1.11s0,.19-.31.17-.28-.1-.44,0a2,2,0,0,1-.14-.34c-.09-.15-.26-.62-.36-.78s-.78-1.47-.88-1.63a3.69,3.69,0,0,1-.27-.79,1,1,0,0,0-.06-.44v-.5c-.07-.31-.12-.49-.17-.76,0,0-.13-.66-.18-1a4.18,4.18,0,0,1,0-1c0,.12-.33,3-.3,3.9a6.46,6.46,0,0,0,.37,1.69c.08.22.3,1,.34,1.22a14.28,14.28,0,0,1,.26,1.72V64.1a6.41,6.41,0,0,1-.07,1.45c-.07.57-.19,1.11-.19,1.34s-.14.69,0,.92a4.55,4.55,0,0,1,.18,1.72A12.86,12.86,0,0,1,75,71.16a2.94,2.94,0,0,0-.08,1.53,2,2,0,0,0,.45.46s.11.11.11.15,0,.15-.07.19h-.08a1.38,1.38,0,0,1-.7,0h-.26a.57.57,0,0,1-.7-.15c-.15-.27.18-.57,0-.88v-.19a.42.42,0,0,1,0-.31,6.86,6.86,0,0,0,0-1.11,3.5,3.5,0,0,0-.12-.91,3.77,3.77,0,0,1-.14-.58,5.53,5.53,0,0,1,0-1.15v-.84A6.43,6.43,0,0,0,73.05,66c-.15-.65-.44-3-.44-3.14a1.06,1.06,0,0,0-.15-.42.39.39,0,0,0-.21-.17h-.12C71.82,54.76,71.89,52.29,72.13,52.27Z" style="fill:#7f5449"/><path d="M70.74,50.73a18.66,18.66,0,0,1,2.59,0,4.94,4.94,0,0,0-.18.76,2.3,2.3,0,0,0,.18.73,1.46,1.46,0,0,1-1.26.5,1.24,1.24,0,0,1-1.22-.5c0-.22,0-.43,0-.65A4,4,0,0,0,70.74,50.73Z" style="fill:#7f5449"/><path d="M71,51.49a2,2,0,0,0,1.74.12,1.14,1.14,0,0,0,.41-.31.31.31,0,0,0,0-.19v-.19H73a15.54,15.54,0,0,1-1.93,0h-.26c-.11,0-.07,0,0,.11A.58.58,0,0,1,71,51.49Z" style="fill:#63413b"/><path d="M73.48,51.71h.17l1.65.48c.39.13.77.77.74,3.09l-.57.2c-.67.2-.77.12-.79.09s0-.1,0-.32a1.19,1.19,0,0,0-.1-.32,3,3,0,0,0,0,.84v2.64a6.17,6.17,0,0,0,0,.86c.1.75.33,1.06.15,1.25a.65.65,0,0,1-.47.09H70.4c-.24,0-.92-.14-1.34-.16a.16.16,0,0,1-.18-.14h0A9.94,9.94,0,0,1,69.29,59v-.3a1.71,1.71,0,0,0,0-.32v-.77a2.81,2.81,0,0,1,0-.58,1.91,1.91,0,0,1,.07-.65,6.91,6.91,0,0,0,0-.91v.12a1.19,1.19,0,0,1,0-.46.79.79,0,0,1,0-.22,2,2,0,0,1-.11.3c0,.13,0,.17-.06.19s-.36,0-1.38-.65c0,0,.27-1.65.34-1.76s.21-.31.39-.54a1.48,1.48,0,0,1,.37-.29,2.91,2.91,0,0,1,.5-.16c.27-.07.54-.15.8-.24h0a.6.6,0,0,1,.19-.06c.08.11.28,1.31,1.33,1.32a1.44,1.44,0,0,0,1.68-1.15A.88.88,0,0,0,73.48,51.71Z" style="fill:#0e1a46"/><path d="M73.48,51.71h.22s1.23.29,1.54.42.58.41.73,1.22a.19.19,0,0,1-.06.2.12.12,0,0,1-.1.05,1.88,1.88,0,0,0-.73-1.15A3.7,3.7,0,0,0,73.71,52h0a1.19,1.19,0,0,0-.32-.1Z" style="fill:#000333"/><path d="M70.65,51.72h-.22a5.93,5.93,0,0,0-.93.2,2.09,2.09,0,0,0-.41.17,2,2,0,0,0-.82,1.46h0s0,.08.19.17a2.48,2.48,0,0,1,.86-1.31l.36-.2a5.41,5.41,0,0,1,.79-.21h.06l.3-.08Z" style="fill:#000333"/><path d="M69.5,55.1h0a1.82,1.82,0,0,0,.14-.83v-.61a4.34,4.34,0,0,0,0-.51,1.87,1.87,0,0,0-.21-.8h0a1.78,1.78,0,0,1,.21.81,4.34,4.34,0,0,1,0,.51,1.71,1.71,0,0,0,0,.32v.29A2.08,2.08,0,0,1,69.5,55.1Z" style="fill:#000333"/><path d="M74.83,54.68a2.07,2.07,0,0,1-.15-.34,3.34,3.34,0,0,1-.19-.94,6.32,6.32,0,0,1,0-1.23h0a6.32,6.32,0,0,0,0,1.23,3.65,3.65,0,0,0,.18.93A2.21,2.21,0,0,0,74.83,54.68Z" style="fill:#000333"/><path d="M73.7,51.76h0v.05a2.08,2.08,0,0,1-.48,1,1.46,1.46,0,0,1-1.14.5,1.26,1.26,0,0,1-.51-.07,2.06,2.06,0,0,1-.61-.35,1.75,1.75,0,0,1-.55-1h0a.6.6,0,0,1,.19-.06h0a1.93,1.93,0,0,0,.59,1,2,2,0,0,0,.45.26,1.21,1.21,0,0,0,.38,0,1.58,1.58,0,0,0,.91-.38,2,2,0,0,0,.47-.9h0" style="fill:#0b173c"/><path d="M73.7,51.76h0a1.74,1.74,0,0,1,0,.22h0a2.12,2.12,0,0,1-.43.74,1.47,1.47,0,0,1-1.13.5,1.07,1.07,0,0,1-.5-.07,2.27,2.27,0,0,1-.61-.34,1.59,1.59,0,0,1-.49-.8l-.06-.24h0a.48.48,0,0,0,.06.24,1.59,1.59,0,0,0,.49.8,2.25,2.25,0,0,0,.62.35,1.2,1.2,0,0,0,.42.07h.09a1.48,1.48,0,0,0,1.15-.5,2.44,2.44,0,0,0,.43-.75.81.81,0,0,0,0-.22h0Zm-.24,0h0a2.47,2.47,0,0,1-.1.29,1.48,1.48,0,0,1-.37.61,1.58,1.58,0,0,1-.9.38H72a1.28,1.28,0,0,1-.27,0,2.51,2.51,0,0,1-.45-.26A2,2,0,0,1,70.8,52h0a2.81,2.81,0,0,1-.1-.31h0l.09.29a1.91,1.91,0,0,0,.5.72,2.59,2.59,0,0,0,.46.26.81.81,0,0,0,.38,0,1.41,1.41,0,0,0,1.3-1l.09-.27h0Z" style="fill:#000333"/><path d="M75.21,54.94A.39.39,0,0,0,75,55l-.08-.09a.9.9,0,0,1-.2-.34,3.55,3.55,0,0,1-.08-.47,3.63,3.63,0,0,0-.1-.45,2.78,2.78,0,0,1,.25.62.55.55,0,0,0,.2.39.45.45,0,0,1,.11.17S75.21,54.9,75.21,54.94Z" style="fill:#000333;opacity:0.4000000059604645;isolation:isolate"/><path d="M69.65,54.55a2.27,2.27,0,0,1-.16.62.33.33,0,0,0,0-.14h-.13a1.24,1.24,0,0,1,.1-.31.82.82,0,0,0,0-.27,5.83,5.83,0,0,1,.1-.73.15.15,0,0,1,.07.12V54S69.66,54.37,69.65,54.55Z" style="fill:#000333;opacity:0.4000000059604645;isolation:isolate"/><path d="M71.89,59.75a1,1,0,0,1-.51.09,4.76,4.76,0,0,1-1.53-.63l-.19-.09-.12-.07h-.25v-.3a.75.75,0,0,1,.48.14c.11.08.19.18.29.26a3.27,3.27,0,0,0,1.46.41A.52.52,0,0,1,71.89,59.75Z" style="fill:#000333;opacity:0.25;isolation:isolate"/><path d="M69.65,57a1,1,0,0,0,0,.48.67.67,0,0,1,.07.37.64.64,0,0,1-.08.14l-.29.41v-.77a2.81,2.81,0,0,1,0-.58,1.91,1.91,0,0,1,.07-.65,6.91,6.91,0,0,0,0-.91h0a1.25,1.25,0,0,1,.12.69.53.53,0,0,0,0,.25.56.56,0,0,0,.11.2.55.55,0,0,1,0,.4Z" style="fill:#000333;opacity:0.25;isolation:isolate"/><path d="M70.25,70.9Zm-.12,0Zm.25,0h0Zm-.38,0Zm.51,0h0Zm.12,0h0Zm-.75,0Zm.86-.05h0Zm-1,0Zm1.13,0h0Zm-1.25,0Zm1.37,0h0Zm-1.5,0Zm1.63,0h0Zm-1.75,0Zm1.87,0h0Zm-2,0Zm-.08,0Z"/><path d="M68.93,60.71v-.15a1.41,1.41,0,0,1,0-.41,1.17,1.17,0,0,1,.18-.41l.11-.3a.34.34,0,0,1,.08-.27h.41a.06.06,0,0,1,.06,0c.26,0,.64.06.92.07h2.06a.09.09,0,0,1,.07,0h1.87a4,4,0,0,1,.09.48h0a2.74,2.74,0,0,1,.15.4,2.5,2.5,0,0,0,.09.43v.1a11.65,11.65,0,0,1,.33,3.67l.14,7.23h0a8,8,0,0,1-1.54.15,5.42,5.42,0,0,1-1.27-.12v0c0-1.92-.16-3.93-.32-6-.08-1-.18-1.94-.28-2.89l-.09.58a18,18,0,0,0-.21,2.32l-.28,6h0a5.18,5.18,0,0,1-1.24.14,7.94,7.94,0,0,1-1.46-.14h0V64.15a11.54,11.54,0,0,1,.08-1.65C68.91,61.94,68.86,61.35,68.93,60.71Z"/><path d="M72.08,59.31h2.59a3.73,3.73,0,0,1,.09.46s-1.13,0-2.69,0Z" style="fill:#0e6177"/><path d="M72.05,59.29h2.59a2.63,2.63,0,0,0,.1.47H72.06Zm2.59,0H72.11v.43h2.61a1.85,1.85,0,0,0-.07-.41Z"/><path d="M69.24,59.69l.08-.44h2.76v.47H70.67Z" style="fill:#0e6177"/><path d="M69.35,59.72h0v-.5h0c.75,0,1.72.08,2.58.08h.16v.52h-.3C71,59.8,70.09,59.75,69.35,59.72Zm2.7-.38h0c-.86,0-1.82-.06-2.58-.07v.43c.72,0,1.61.08,2.42.08H72Z"/><path d="M72.08,59.78h1.49a1.94,1.94,0,0,0,.57.57,1.91,1.91,0,0,0,.9.29,10.12,10.12,0,0,1,.41,3.24v7.79a6.57,6.57,0,0,1-2.65,0,58.7,58.7,0,0,0-.37-6.41c-.1-.88-.2-1.75-.32-2.58a16.64,16.64,0,0,1-.07-2C72.05,60.41,72.06,60.09,72.08,59.78Z" style="fill:#137699"/><path d="M73.57,59.77h1.19a6,6,0,0,1,.15.85A2,2,0,0,1,73.57,59.77Z" style="fill:#b1d6e0"/><path d="M74.89,60.6a2.1,2.1,0,0,1-1.35-.83h1.19a7.93,7.93,0,0,1,.14.85h0Zm-1.29-.81a2,2,0,0,0,1.25.74,4.22,4.22,0,0,0-.14-.79H73.62Z"/><path d="M69,60.5a1.44,1.44,0,0,1,.24-.8c.39,0,.93.07,1.29.07A2.31,2.31,0,0,1,69,60.5Z" style="fill:#b1d6e0"/><path d="M69.1,60.5a1.67,1.67,0,0,1,.22-.81h0c.34,0,.82.07,1.19.08h0a2.13,2.13,0,0,1-1.44.75h0Zm.28-.78a1.62,1.62,0,0,0-.21.74,2.07,2.07,0,0,0,1.33-.68C70.16,59.79,69.7,59.72,69.38,59.72Z"/><path d="M68.81,64.28V62.7c0-.74.07-1.46.12-2.14a2,2,0,0,0,.9-.27,2,2,0,0,0,.64-.53h1.58v3.12a15.7,15.7,0,0,0-.31,2.81l-.23,6a6.9,6.9,0,0,1-2.64,0Z" style="fill:#137699"/><path d="M71.44,59.53c0,.06.08.1.17.1s.17,0,.17-.1-.08-.1-.17-.1S71.44,59.47,71.44,59.53Z" style="fill:#fbb040"/><path d="M71.41,59.53c0-.07.09-.13.2-.13s.2.06.2.13-.09.13-.2.13S71.41,59.6,71.41,59.53Zm.06,0a.24.24,0,0,0,.14.08c.07,0,.13,0,.13-.08s-.06-.09-.13-.09S71.47,59.48,71.47,59.53Z"/><path d="M72,59.41Zm.13,0h0Zm.14,0h0Zm-.4,0Zm.53,0h0Zm-.67,0Zm.81,0h0Zm-1,0Zm1.07,0h0Zm-1.2,0Zm1.33,0h0Zm-1.47,0Zm1.61,0h0Zm-1.73,0ZM73,59.35h0Zm-2,0Zm2.16,0h0Zm-2.27,0Zm2.38,0h0Zm-2.53,0Zm-.14,0Zm2.81,0h0Zm-2.94,0Zm3.07,0h0Zm-3.21,0Zm3.35,0h0Zm-3.45,0Zm3.57,0h0Zm-3.73,0Zm3.88,0h0Zm-4.12,0Zm4.25,0h0Zm-4.39,0Zm4.52,0h0Zm-4.66,0Zm4.79,0h0Zm-4.92,0Zm5,0h0Zm-5.17,0Z"/><path d="M72.16,59.69h0Zm.13,0h0Zm-.26,0Zm.4,0h0Zm-.54,0Zm.67,0h0Zm-.8,0Zm.93,0h0Zm-1.06,0Zm1.2,0h0Zm-1.34,0Zm1.47,0h0Zm-1.6,0Zm1.72,0h0Zm-1.86,0Zm2,0h0Zm-2.16,0Zm2.27,0h0Zm-2.38,0Zm-.14,0Zm2.67,0h0Zm-2.8,0Zm2.94,0h0Zm-3.07,0Zm3.2,0h0Zm-3.34,0Zm3.45,0h0Zm-3.56,0Zm3.73,0h0Zm-3.88,0Zm4,0h0Zm-4.26,0Zm4.39,0h0Zm-4.52,0Zm4.66,0h0Zm-4.79,0V59.6h.07Zm4.92,0h0Zm-5,0Zm5.17,0h0Zm-5.32,0Z"/><path d="M72,61Zm-.14,0Zm-.13,0Zm-.12-.06h0Zm-.08-.07h0Zm-.06-.08h0Zm0-.08h0Zm0-.08h0Zm0-.08h0Zm0-.09h0Zm0-.08h0Zm0-.09h0Zm0-.08h0Zm0-.08h0Zm0,0h.07v.06Zm0-.09Zm0-.08Zm0-.09Z"/><path d="M71.9,61ZM72,61Zm-.27,0Zm-.1-.06Zm-.07-.08h0Zm0-.08h0v0Zm0-.08h0Zm0-.08h0v0Zm0-.09h0Zm0-.08h0v0Zm0-.09h0v0Zm0-.08h0Zm0-.07h0Zm0-.06Zm0-.08Zm0-.09v-.06h.07Zm0-.08Z"/><path d="M74.79,60.67Zm-.12,0Zm-.12,0Zm-.18,0Zm-.12-.05Zm-.11,0Zm-.1,0Zm-.1-.06Zm-.09-.06Zm-.09-.07Zm-.08-.06Zm-.08-.07h0ZM73.54,60h0Zm-.06-.08h0Zm0-.07h0Zm0-.09h0Z"/><path d="M69.13,60.56Zm.09,0h0Zm.13,0Zm.07,0h0Zm.12,0h0Zm.11,0h0Zm.32,0h0Zm.1-.06h0Zm.1-.06Zm.08-.06Zm.09-.06Zm.07-.07Zm.06-.07Zm.07-.07Zm0-.08Zm0-.08Z"/><polygon points="74 59.8 74.19 59.79 74.16 59.26 73.97 59.27 74 59.8" style="fill:#137699"/><path d="M73.94,59.25h.25v.57H74Zm.19,0H74v.49h.12Z"/><polygon points="69.84 59.75 69.66 59.74 69.69 59.21 69.88 59.22 69.84 59.75" style="fill:#137699"/><path d="M69.63,59.76v-.57h.25l-.16.57Zm.09-.52v.48h.12v-.49Z"/><polygon points="71.13 59.81 70.95 59.8 70.96 59.28 71.14 59.28 71.13 59.81" style="fill:#137699"/><path d="M70.91,59.83v-.58h.26v.57ZM71,59.3v.49h.11V59.3Z"/><polygon points="72.81 59.81 72.63 59.8 72.63 59.28 72.82 59.28 72.81 59.81" style="fill:#137699"/><path d="M72.59,59.83v-.58h.25v.57Zm.07-.53v.49h.12V59.3Z"/><path d="M74.61,48.7l.12.1a.5.5,0,0,1,.08.2,1,1,0,0,1-.17.74.5.5,0,0,1-.36.24.23.23,0,0,1-.16-.06.34.34,0,0,1,0-.2v-.64C74.13,48.84,74.31,48.53,74.61,48.7Z" style="fill:#704843"/><path d="M69.5,48.7a.41.41,0,0,0-.13.1.37.37,0,0,0-.07.2,1,1,0,0,0,.16.74.52.52,0,0,0,.37.24.2.2,0,0,0,.15-.06.23.23,0,0,0,0-.2v-.64C70,48.84,69.8,48.53,69.5,48.7Z" style="fill:#704843"/><path d="M70.09,47.26a2.52,2.52,0,0,0-.23,1.35A9.58,9.58,0,0,0,70,50c.22.77,1.31,1.28,1.39,1.32a1.4,1.4,0,0,0,1.29,0A2.43,2.43,0,0,0,74.08,50a2.87,2.87,0,0,0,.16-1.16,6.38,6.38,0,0,0-.11-1.31,1.39,1.39,0,0,0-.88-.78,6,6,0,0,0-1.8-.07A1.66,1.66,0,0,0,70.09,47.26Z" style="fill:#7f5449"/><path d="M69.93,48.91c0-.57.09-1.44.43-1.65a6,6,0,0,1,1.69,0,12.68,12.68,0,0,1,1.51,0,.48.48,0,0,1,.43.3A5.37,5.37,0,0,1,74.18,49c.1-.06.13-.27.16-.43a4,4,0,0,0,0-1.62A1.91,1.91,0,0,0,73,45.73a5.77,5.77,0,0,0-1.76,0,1.7,1.7,0,0,0-1.29,1,3.78,3.78,0,0,0-.13,1.67C69.86,49,69.93,49.08,69.93,48.91Z" style="fill:#230700"/><path d="M71.72,49.85A.4.4,0,0,0,72,50c.22,0,.28-.12.31-.11s0,.24-.27.25S71.66,49.91,71.72,49.85Z" style="fill:#63413b"/><path d="M70.35,49.07c0-.23.34-.41.65-.4s.57.16.57.37-.22.39-.55.4S70.35,49.31,70.35,49.07Z" style="fill:#ffecd8"/><path d="M71,48.19a1.32,1.32,0,0,0-.39.06l-.16.07s0-.28.49-.29.53.16.51.22S71.27,48.19,71,48.19Z" style="fill:#230601"/><ellipse cx="70.99" cy="49.07" rx="0.34" ry="0.33" transform="translate(-15.27 51.45) rotate(-36.23)" style="fill:#290600"/><circle cx="70.79" cy="49.03" r="0.13" style="fill:#fcfcfc"/><path d="M71,48.56a.64.64,0,0,1,.58.42c0,.3-.07-.33-.6-.31a.65.65,0,0,0-.64.48C70.32,48.64,70.75,48.56,71,48.56Z" style="fill:#230601"/><path d="M73.08,48.19a1.32,1.32,0,0,1,.39.06l.16.07s0-.28-.48-.29-.53.16-.51.22S72.88,48.19,73.08,48.19Z" style="fill:#230601"/><path d="M72.52,49c0-.21.35-.4.65-.39s.57.17.57.39-.22.4-.55.41S72.52,49.28,72.52,49Z" style="fill:#ffecd8"/><ellipse cx="73.17" cy="49.06" rx="0.34" ry="0.33" transform="translate(-14.85 52.73) rotate(-36.23)" style="fill:#290600"/><circle cx="72.96" cy="49.01" r="0.13" style="fill:#fcfcfc"/><path d="M73.16,48.56a.61.61,0,0,1,.58.42c.05.3-.07-.33-.6-.32a.65.65,0,0,0-.64.48C72.48,48.62,72.92,48.56,73.16,48.56Z" style="fill:#230601"/><path d="M71.43,50.49a1.31,1.31,0,0,0,.7.16c.32,0,.54-.16.56-.12s-.16.22-.4.29a.69.69,0,0,1-.35,0A.81.81,0,0,1,71.43,50.49Z" style="fill:#f7f2f2;stroke:#000;stroke-miterlimit:10;stroke-width:0.009999999776482582px"/><path d="M71.92,50.93,72,51h0a.17.17,0,0,1-.15-.05Z" style="fill:#63413b"/><g style="isolation:isolate"><text transform="translate(7.79 32.3)" style="isolation:isolate;font-size:4px;font-family:PoorRichard-Regular, Poor Richard">Ibra and Elly are twins!</text><text transform="translate(7.79 37.1)" style="isolation:isolate;font-size:4px;font-family:PoorRichard-Regular, Poor Richard">as they were playing </text><text transform="translate(7.79 41.9)" style="isolation:isolate;font-size:4px;font-family:PoorRichard-Regular, Poor Richard">outside,</text><text transform="translate(7.79 46.7)" style="isolation:isolate;font-size:4px;font-family:PoorRichard-Regular, Poor Richard">their mom called them </text><text transform="translate(7.79 51.5)" style="isolation:isolate;font-size:4px;font-family:PoorRichard-Regular, Poor Richard">to teach about </text><text transform="translate(7.79 56.3)" style="isolation:isolate;font-size:4px;font-family:PoorRichard-Regular, Poor Richard">private parts.</text></g></svg>