<svg xmlns="http://www.w3.org/2000/svg" xmlns:xlink="http://www.w3.org/1999/xlink" viewBox="0 0 127.3 79.26"><defs><clipPath id="a"><rect x="86.9" y="4.05" width="21.7" height="24.88" style="fill:none"/></clipPath><clipPath id="b"><rect x="86.7" y="3.95" width="21.6" height="24.88" style="fill:none"/></clipPath><clipPath id="c"><rect x="86.58" y="4" width="21.65" height="24.88" style="fill:none"/></clipPath><clipPath id="d"><rect x="12" y="31.99" width="31.5" height="35.28" style="fill:none"/></clipPath><clipPath id="e"><rect x="11.97" y="31.99" width="31.5" height="35.26" style="fill:none"/></clipPath><symbol id="f" viewBox="0 0 135.26 121.9"><path d="M19.41,48.6c5.3,1.3,9.1.9,10.8-.9,3.2-1,9.7.9,11.9,3.1,1.4,1.4,3.3,2.6,3.9,4.6s4.5,6.2,5.9,7.6,6.5,6.8,5.1,9.9a9.32,9.32,0,0,0-5.6-4.5c-2-.6-7-4.2-8.5-3.7a7.59,7.59,0,0,1-4.2.6c-2-.3-2.8.6-5.1,0a9.81,9.81,0,0,0-4.8.3s-2.3-5.5-2.6-6.8l.4,6.8c-7.3-2-11.6-12.8-12.1-14.7-.3,11.5,10.6,16.3,10.6,16.3s-8.5-3-11.3-3.6c1.7,2,5.8,3,6.8,4-1.8-.7-9.3,3.7-10.2,4.2l11-2.8c4.7-.5,13.4-.2,20.7,3.4,2.3,1.1,5.1,1.8,6,2.6,1.3,1,1.2,2.6,2.2,3.9a20.75,20.75,0,0,1,3,5.7c3.2,13.7-2,25.9-2,25.9-.8.8-3.4,6.7-3.4,6.7l6.6-1.5,1.8,2.2,7.2,1.5,1.9,2.1,5.7-.8,2.6-5.1,8.8,2.7s4.1,3,4.9,3,6.9-2.7,8.5-2.9c0,0-4.6-1.2-8.6-7.3-5.9-8.6-4.1-17.2-4.6-22.2a12.1,12.1,0,0,1-.1-1.9c-.2-4.4.6-8.5,1.8-10.1.6-.8,1.2-1.8,1.8-2.8.8-1.2,1.6-2.2,2.5-2.4,1.5-.2,4.4-2.9,5.6-4.1s6.4-2.7,8.8-2,3.2,3.5,3.2,3.5,3.9,1.4,6.6,2,7.4,4.4,9.3,5.8,2.7,7.3,4.4,8.8c-.3-.5-1.2-4.4-2.5-9.3s-5.6-3.9-8.3-5.9-4.4-1.2-6.9-3.6-1.3-4.3-1.3-4.3l2.7.3s1.9.7,2.4.8,1.9.7,5.3,1.5,8.5-1.2,11-1.3c-2-.7-5.6-.3-9.7-.5s-5.3-1.2-9.5-3.7-13.4,2.4-16.3,2.5c-5.6.4-16.3,6-16.4,6a10,10,0,0,1,.9-5.9c1-2,2.2-4.2,4.9-5.4s4.2-6.4,4.2-7.1,6.4-3.2,6.4-3.2A37.18,37.18,0,0,0,105,45a67.72,67.72,0,0,1-7.8-.2c2.2-2.4,11.3-1.3,14.9-1.3-22.2-7.8-36.9,13.3-38.4,14.8-1-5.6,5.5-12.1,6.9-13.5,0,0,1-3.3,11.8-9.7,12.5-7.5,20.3-13.7,17.3-11.8s-10.8,7-16.1,8c2.5-3,4.5-8,3.5-11.9-1.2,13.5-12.6,15.3-15.9,16.3-2.8-.3-3.3-13.4-3.3-13.4s8.5-5.8,8.1-9c-1.7,4.8-9.5,6.5-10.4,7.8-.7-7-3.5-11-7.3-12.1,1.2.2,5.5,4.5,5.1,7.5s2,10.1,2.2,20.2-5.5,9-8.8,12.6c1.3-2.1-3.9-7.2-3.9-7.2a52.51,52.51,0,0,0-6.2-5.3c-2-1.2-2.5-2.8-3.4-5.6,6.4-3,7.5-7.7,6.6-10.5.7,7-7.3,7.5-9.6,9.6,0,0,2.3-14.3,0-17.1,2.3,3.5-1.5,14.4-2,16.4-1.5-1.2-7.1-1.8-10.1-5.2.4,2.6,19,11.6,22.4,26.6,2.5,4.5,2.3,11.6,2.1,17.7-4-16.6-24.3-24.3-29.2-25.5-1.3-4.8-2.5-9.3-11.9-10.3,6,.8,7.8,7.6,7,9.3a5.32,5.32,0,0,1-4.1.2l-1.1-.8s-4-2.5-6.5-2.3c1.7,2,10,3.6,10.2,7.6Z" style="fill:#deb13d"/><path d="M64.41,120.5s-2-4.8,0-9,2.5-4.5,2.5-6.5-.6-5.9-.6-7.3a33.79,33.79,0,0,1,0-4.5c.3-1.7.8-4,.8-4s1.7-7.3,2-8.2a9.45,9.45,0,0,0-.3-6.2c-.8,2.2-.6,7.9-.6,7.9s-2.8,4.5-3.1,5.9a17.06,17.06,0,0,0,.3,4.5c-.8,1.4-.8,4.5-.8,4.5l-.7,2.6.4,2.6a27,27,0,0,0-.8,3.9c0,.9-.3,3.1-.3,3.1l-.2,3.1-2,2.3-3.3,3.2Z" style="fill:#a36c31"/><path d="M58.61,94.6a5.8,5.8,0,0,1-1.7,4.5v2.3s-2.3,5.4-2,7.1-.6,5.4,2,6.8l2.3-3.1.3-4.8-2.5-2,2-3.3a38.29,38.29,0,0,0,.8-6.8l1.7-2v-5c0-1.1-1.4-6.8-1.1-8.5s-2.3-4.9-2.3-4.9l-1.1-2,2,5.9s-.6,11,.6,11.6S58.61,94.6,58.61,94.6Z" style="fill:#a36c31"/><path d="M73.81,55.9a10.79,10.79,0,0,1,1.1-3.6,39.56,39.56,0,0,1,2.2-3.4A24.51,24.51,0,0,1,80,45.4a6.55,6.55,0,0,0,1.5-1.8c.9-1.4,2.2-2.2,3.7-3.6a61.92,61.92,0,0,0-5.7,3.3c-1.1.9-4.5,3.6-4.8,5.3s-5.1,2.8-4.8,4.8a32.56,32.56,0,0,1,.6,6.2c0,2.5,2.8,1.7,1.7,7s-1.7,9.6-1.1,11.3a12.21,12.21,0,0,1,.8,6.8c-.6,2.6-2,8.5-2,9.6s.6,5.6.6,8.8.6,17.4-3.9,18.5c4.5-1.1,8.9-6.2,9.2-7.9l.3-4.5-2.3-5.6-.6-6.5,2.4-6.2-1.2-13.5,1.4-7.1s.3-6.5-.6-9-1.6-3-1.6-3C73.71,57.5,73.71,56.7,73.81,55.9Z" style="fill:#703d20"/><path d="M86.31,64.4s-7.9,2-8.7,5.4c-.6,2.1-2,4.1-2.3,7.8a32.28,32.28,0,0,0,1.1,10.2c.5,1.4,2.5,3.1-.6,6.2s-.5,7.9.1,9.9,2,5.9,2,7.3,2,6.4,4.7,7.2c-1.6.7-5.6-1.2-5.6-1.2s-1.7-1.1-2.8-.9-2.2,5.4-2.2,5.4l-2.6.2-2.8-.3c1.4-1.4,4.4-4.2,4.4-4.2l2-4,2-5.1s-2.5-5.6-2.8-6.5-.3-8.5.6-9.3.8-6.2.6-7,2-13.3,1.4-15.5S78.91,63.5,86.31,64.4Z" style="fill:#a36c31"/><path d="M33.51,43.2s6.2,1.1,7.3,2.5,4.5,2,4.5,2,2.8.3,3.7,1.4a17.7,17.7,0,0,0,4,4.2c1.7,1.1,7,5.1,7,5.9a35.11,35.11,0,0,0,1.2,4.9l2.2,4.8-3.1-2.5s-2.8-4.8-3.7-6.5A18.54,18.54,0,0,0,51,53.7a56.32,56.32,0,0,1-6.2-3.7,35.83,35.83,0,0,0-4.5-3.1C37.51,45.2,33.51,43.2,33.51,43.2Z" style="fill:#a36c31"/><path d="M53.21,31.1a15.8,15.8,0,0,0,2,3.6c.8.8,2.5-.3,3.4,2s2.5,2.5,3.4,4,5.4,4.5,5.4,5.4v2l-.6,4.2s-1.7-4.3-2.2-5.4-2-4.2-4.5-5.6-3.1-.3-4-3.4a10.49,10.49,0,0,0-3.4-5.1Z" style="fill:#a36c31"/><path d="M28.71,65.5s3.1-1.4,4.8-.3,4.8-1.6,7.6.1c1.7-.8,1.7-1.6,5.1.4a61,61,0,0,0,8.2,3.8l2.5,3.3,1.1,2a5.34,5.34,0,0,1-2.5-1.7c-1.4-1.4-4-4-5.9-4s-5.1-2-7.3-2.3-4.5.3-5.9,0S31,65.5,28.71,65.5Z" style="fill:#a36c31"/><path d="M93.11,68.9s2.8-2.3,5.1-2.5,5.1-.3,5.6.6a13.08,13.08,0,0,0,2.4,2.3s3.5,1.7,4.3,1.7a27.4,27.4,0,0,1,4.8,1.7l4.5,2.8-4.5-4-6.2-2.6-1.4-1.4-3.4-2.3-3.4-.6-4.8.6-5,3.7-2.3,2.3S89.91,72.6,93.11,68.9Z" style="fill:#a36c31"/><path d="M36.31,70s4.2,1.6,5,2.1,5,1.6,5.9,2.1a3.94,3.94,0,0,1,1.9,2.3,5.1,5.1,0,0,0,1.2,2.3,9.63,9.63,0,0,1,2.1,3.5,6.13,6.13,0,0,0-1.7-3.4s1.7-1.6,2.6-1.6c-.7-.2-2.2,1.3-2.7,1.1a1.33,1.33,0,0,1-.6-1,3.13,3.13,0,0,0-.6-1.6c-.5-.9-.8-1.3-1.5-1.6.3-.4,2-2,3.6-1.9-1.1-.5-3.1.5-3.9,1.5a2.18,2.18,0,0,1-.8-.5s-.1-.5-.3-.5.8-1.1,1.7-1.2a2.47,2.47,0,0,0-2.3,1.2l-1-.2-1.5-.6-.8-.8-.6.1-1.1-.1a2.84,2.84,0,0,1,.6-1c-.4,0-1,.8-1,.8l-.9-.3-1-.3A6.2,6.2,0,0,0,36.31,70Z" style="fill:#a36c31"/><path d="M83.61,73.7s1.1,2,.2,3.5-1.3,7.2-1.3,8.5.9,2.2.6,4.4a27.44,27.44,0,0,0-.2,6.4c.2,1.3.7,5.2.7,5.2-1.3-.9-.7-1.3-.9-2.2a31.09,31.09,0,0,1-.6-4.4v-3s-.7,3.1-.9,4.1.2,8.7.2,8.7c-.6-.4-1.1-8.3-.7-9.6.2-.5-.2-1.8.4-2.9.9-1.6,2.1-2.3,1.6-3.5-.7-1.9-2-2.1-3.3-4.8s-.4-3.5,0-4.6a22.06,22.06,0,0,1,.4,3.7l1.7,1.7.7-3.3.6-3.3.6-2.6Z" style="fill:#a36c31"/><polygon points="62.31 67.2 64.31 69.5 64.01 73.1 64.41 75.7 63.11 79.1 62.01 80.7 61.91 85.3 61.71 89.7 60.91 86 61.21 79.9 61.71 74.5 62.61 72.3 62.61 71.1 62.31 67.2" style="fill:#703d20"/><path d="M56.11,106.4a2.5,2.5,0,0,1,1.7,2.3,16.28,16.28,0,0,1-.3,3.1l-1.1.8-.6-2.8Z" style="fill:#703d20"/><path d="M83.81,119.4s-2.8-.6-4.8-4.5a16.43,16.43,0,0,1-2-6.5l-2.3-5.6-.3-5.4.8,3.4,2,3.4,1.4,4.2,2.8,3.9-.5.8,3.4,5.1,4,2,3.1-.3-4.1,1.5C87.31,121.5,85.71,120.5,83.81,119.4Z" style="fill:#703d20"/><path d="M77.91,22.3l.6,5.3.3,3.1,1.6,3.5.8,1.5,2-.7,2.8-.8,4.2-2.3-2.8,2.8a24.13,24.13,0,0,0-2.5.8,5.61,5.61,0,0,1-3.1.9,10.27,10.27,0,0,1-2.4-.5c-.8-.3-.4-1.4-.4-1.4l-.5-3.4-1.3-3.6Z" style="fill:#703d20"/><path d="M63.91,107.2l.2,3,.9-1.7.9-2.4-.2-2.4.4-4.2-.4-4a24.61,24.61,0,0,0-.7,3.9v4.8Z" style="fill:#703d20"/><path d="M61.51,93.1s-1.6,1.5-1.7,2-.3,2-.3,2l.7,3.1-.4,3.3-.5,2.4,1.7,3.8-1.7,2.2L57,115l-2.8.4,3.1.7,3.9-3.9.9-2-.7-3-.2-4.2.9-5s-1.3-1.1-1.1-2C61.11,95.3,61.51,93.1,61.51,93.1Z" style="fill:#703d20"/><path d="M50.61,53.8l.5,1.3.8,2.4s0-.2.7-.2h1.5l1.3-.4-2-1.7-.9.6S53.61,53.8,50.61,53.8Z" style="fill:#703d20"/><path d="M92.51,69.1l-.7,1.3-1.5.7-1.7.7-1.5,1-1,1.3-.7,1.1s-.9-3.7-3.7-4.8a3.59,3.59,0,0,1,3.7,1.5,1.14,1.14,0,0,1,1.4-.8h.1l1.3-.4a4.73,4.73,0,0,0-2.5-1.6c1.1-.4,3.1.5,3.3,1.3l1.5-.4,1.3-2s-.9-1.5-1.7-1.5C91.21,66,92.51,67.6,92.51,69.1Z" style="fill:#703d20"/><path d="M77.21,66.5s2.6-8.3,3.9-8.3a2.25,2.25,0,0,0,1.8-1.3l1.7-1.6,1.3-2,.7-2.4L85,52.5l-.9,2-1.8.9-2.4.9-2,3,.2,3-1.7,3-.5,2.2Z" style="fill:#703d20"/><path d="M45.11,34.3l-1.8,1.1-1.5-1.8-1.7.2-2.2-1.3-2-2.4v-.7l-1.5-1.5-2.2.6-3.1.2-3-1.8-2.2-2.2-1.3-1.3.3-1.5,3-1.7.7-2.2,1.3-.6L32,13.5l3.5-1.8,1.8,2.2,2.6,2.2L41,16l3.7-.7,2.8-.4,2.4-2.9,3.3.6,2.6,2-1.1,1.7.6,3.1.7,1.8,1.5.9,3-1.1,2.2,2.4s-.7-.9.2.7.9,5.3.4,5.5a6.35,6.35,0,0,1-2.7.4c-2,0-.9,2.8-.2,3.9s1.8,2.2-.4,2-3.1-1.2-4.3-1.8a2.83,2.83,0,0,1-.9-3.7c.7-.9,4-3.5,2.6-4.4s-3-1.7-3.5-1.5-.9-3.3-2.2-3.7-4.4,3.1-4.4,4.8,1.7,4.1,1.3,5.9a35.7,35.7,0,0,0-.4,4.6Z" style="fill:#455f2c"/><path d="M42.31,9.6l-2.4,1.8s-.4,2.4.7,2.4,1.8-.9,2.8-.2,1.1.9,2.4-.4-.9-3.4-.9-3.4S43.81,7.4,42.31,9.6Z" style="fill:#455f2c"/><path d="M50.61,37.9c-.8.7-2,1.1-1.8,1.7l.5,1.7s-1.3.4.5,1.1.7,0,1.8.7,3.3.9,3.5,0,.4-2.4-1.7-2.9S53.91,34.8,50.61,37.9Z" style="fill:#455f2c"/><path d="M17.51,29.5c-1.3,0-2.8,1.3-3.5,1.7a7.36,7.36,0,0,1-4.4.4C7.61,31.2,7,34,7,34s-2.4-.2-3.1.6-1.5,1.1-1.5,1.7-1.9,1.7-2.2,3,2,2.9,3.1,3.5-1.1,3-1.1,3L0,48.8A10.48,10.48,0,0,0,2,51c.5.2,3.5-1.5,3.5-1.5h1.7A2.65,2.65,0,0,0,9,50.6c1.3.2,5.3-2.2,5.9-1.5s0,2,1.5,2.4,6.5-1.1,6.6-1.7-1.9-2.9-2.4-3.1S16,44.9,16,44s-3.1-5-2.6-5.3,1.7-2,2.4-2.6S20.91,29.5,17.51,29.5Z" style="fill:#455f2c"/><path d="M15.91,37.6s-.4,2,.4,3a15.09,15.09,0,0,1,1.5,2.8s1.1,1.3,2,1.3a16.35,16.35,0,0,0,2.2-.2s1.9-3.4,2.6-3.6.9-2.9.9-2.9l-3.9.9-1.3.6a10.09,10.09,0,0,1-.7-1.5C19.51,37.4,18.41,35.6,15.91,37.6Z" style="fill:#455f2c"/><path d="M23.91,32.1c-.7,0-3.7-.4-3,1.3s4,1.8,4.6,3,4.4,1.8,5.7,1.8,2.6-.4,3.5.2,3.7,5.3,4.6,4.8,2.2-2,1.5-3.1-4-2.2-4-2.2l-1.5-1.3-.4-2-3-.7L30,35.2,28.11,33l-.7-1.5-2.8-1.8Z" style="fill:#455f2c"/><path d="M24.11,50.7l2,2.2,2-.7A10.87,10.87,0,0,0,28,54c0,.7-1.7,1.3-2.2.9A7.28,7.28,0,0,1,24,53.2C23.51,52.7,21.91,50.1,24.11,50.7Z" style="fill:#455f2c"/><path d="M13.41,53.6c-.9-1.8-4.2,0-4.2,0s-1.8-2.2-3.9-.6-2.9,4.4-2.2,5.5,1.5,3.5.4,3.9-1.5.9-3,4.4.4,4.6,1.5,4.8,3.9.9,3.7,1.7,1.8,3.3,3,3.5a5.48,5.48,0,0,0,3.1-.2c.5-.4,3.1-1.7,3.5-2.6a27,27,0,0,1,2.2-3.3s-2-3.7-3.9-1.5a2.05,2.05,0,0,1-2.8.6,2,2,0,0,1-.9-1.9c.2-1.3,1.7-2,2-2.8.6-.8,1.2-1.5,1.8-2.2.4-.5,3.1-.5,3.3-1.3s-1.8-2.8-1.8-2.8l-2.6-.2-1,1.5s-2.8.4-2-.9.7-1.8,1.7-2.2S14.71,56.2,13.41,53.6Z" style="fill:#455f2c"/><path d="M14.91,50.3c-.7,0-2.2,2.4-1.1,3.3s3,1.3,4.4,2.2,2.2,4,3.5,1.7.5-2.8-.6-3.5h-2.4l-1.3-1.5V49.9Z" style="fill:#455f2c"/><path d="M25.41,58.6l-1.3,3.1a4.26,4.26,0,0,0,1.5,2,8.1,8.1,0,0,0,2.2,0c.5-.2.9-1.8,2.2-2.2a13.86,13.86,0,0,1,4-.6c2,0,3.3-.5,3.3-1.3s-.5-2.4-1.8-2.4-3.3,1.7-3.9,1.7c-.9-.3-1.9-.6-2.8-1C28.11,57.7,25.41,58.6,25.41,58.6Z" style="fill:#455f2c"/><path d="M14.71,73.3c1,.5.6,2.6,1.3,3.1a5.07,5.07,0,0,1,1.7,2.4c0,.6-3.1,4.2-3.1,4.2s3,.7,3,2-1.3,1.5-2.2,1.7-2.4.7-2.2-.9,1.7-5.7,1.7-6.3V76.8l-1.1-.7C13.61,76.2,12.81,72.4,14.71,73.3Z" style="fill:#455f2c"/><path d="M12.81,77l-2.4-.5-2.6,1.3-.7,2.4s-.7,1.3,0,1.8,1.7,1.9,2.2.2-.2-2.8.9-3S12.81,80.2,12.81,77Z" style="fill:#455f2c"/><path d="M17.61,72.2c-1.1,0-.4,3.5.2,3.5s3,.2,3.5.7,3-.7,3.3-2.6a1.75,1.75,0,0,0-1.1-2.2,1.53,1.53,0,0,0-1.6.3c-1.5.9.2,1.8-.4,2.2s-1.8,0-1.8,0S20.41,72.2,17.61,72.2Z" style="fill:#455f2c"/><path d="M92.11,28c-.6,0-4.6-6-5.5-6s-.2,3.3-1.6,3.9-3.3-.3-3.9-.5-1.8-3.6-4.4-4-4.5,4-6.7,3.5-1.7-.9-1.7-.9l2.2-5.5s-1.8-3.6-1.6-4.3-1.5-1.3-2.6-1.3-.7-1.7-1.8-2.9.3-2.9,2.2-3c4.8-.2,3.3,2.6,3.9,3.3s1.8-1,6.2.5,3.1-.9,4-1.1a4.26,4.26,0,0,0,2-1.5A30.9,30.9,0,0,1,86,6.8c.7-.2,2.6,1.1,5,2.8s.2,6.1,1.5,5.9,5.8-4,6.4-4.5,1.3-2.6,3-3,3.2,4.5,4.2,5.4,3.5.4,3.5.4,4.1-.2,5.3,1.5c2.6,3.7-.7,5.2-.4,5.9s-.9,5.3-.4,6.5-.4,3.3-.6,4.2-3.7,1.4-6.4,1.9-2.3,2.8-4.1,3.3-5.6.5-6.2-.3-.6-5.2-.6-5.2,0-2.4-.6-2.8l-1.3-.2,3-2.2a14.16,14.16,0,0,1,2,.4,3.1,3.1,0,0,0,2.2-.9c.6-.6,3.3-2.7,3.3-2.7l-4-1.9a7.06,7.06,0,0,0-2.4.6,5,5,0,0,1-2.4.9c-.7,0-1.5-2-2-2.2a8.1,8.1,0,0,0-2.2,0,1.91,1.91,0,0,0,1.3,2.2c1.7.6,1.3,1.8,2.8,2.3s-.9,1.8-.9,1.8A24.88,24.88,0,0,1,92.11,28Z" style="fill:#455f2c"/><path d="M75.61,6.2c0,.6,1.1,2.6,2.2,2.6s2-.7,3.1-.9,1.5-.6,2.6-.2a1.74,1.74,0,0,0,2.2-.7c.2-.6,1.1-1.5,2.8-.4s3.5-2,3-2.6a6.77,6.77,0,0,0-2.6-1.8c-1-.2-3.6.2-3.9.8s-1.1-1-2.2-1.3c-.5-.2-1.2-1.8-2.4-1.7a7.59,7.59,0,0,0-3.9,2.4c-.1.5,1.2,2.5,1.2,2.5Z" style="fill:#455f2c"/><path d="M115.91,24.4l2,.2a1.52,1.52,0,0,0,2,0c.1-.1.2-.2.2-.3,1.1-1.5.7-2.4,2.2-2.4s3,.7,3.1,1.3.9.7.9,1.3.9.4.7,1.5,1.8.7.9,1.1-1.7-.2-2.4-.7-2-2-2.2-.7a5.29,5.29,0,0,0,.9,3s.2,1.7-.7,1.3a6.25,6.25,0,0,1-2-1.3,6.5,6.5,0,0,0-2.2-1.1c-.4.2-.9.5-1.3.7-.6.4-1.3,2-1.8,1.7s-.9-3.1-.9-3.1Z" style="fill:#455f2c"/><path d="M74.61,36.9l-.6-2s1.5-2.8-.9-1.5-3.5,2.4-3.9,3.5a4.57,4.57,0,0,0,1.1,3.7c.8.6,1.7,1.3,2.3.2a1.64,1.64,0,0,1,2.2-.7c.1,0,.1.1.2.1a3.19,3.19,0,0,0,3-.2c.6-.6.6-2-.6-3.1S75.51,36.3,74.61,36.9Z" style="fill:#455f2c"/><path d="M89.71,41.3a7.72,7.72,0,0,0,3.7,0,1.8,1.8,0,0,0,2.2,0,6.12,6.12,0,0,1,3.9-1.3c.9.2,2.4-1.5,3.7,0s6.1-.7,7.2,1.5,3.3,1.8,3.5,3.1.2,3.5,1.1,4.1,3.9,1.3,4,2.4a5.83,5.83,0,0,1-1.1,2.8,5.78,5.78,0,0,1-3.6-1.2c-1.3-1.3-3.9-3.7-4.4-3.7s1.1-3.9-.9-2.8-3.3,2.2-2.8,3.1,3.3,1.1,3.3,2.2-2.8,2-3.5,2-1.8-1.8-3.3-1.6.7-4.4.7-4.4l-2.2-.9-.6,1.3-.6,2.2-2.4-.5s-.6-1.5-1.7.2-1.8,3.3-3.1,3.1-.9-1.5-2-1.7-2.2-2-4.6-3-1.8-2.6,0-3.5S88.81,40.9,89.71,41.3Z" style="fill:#455f2c"/><path d="M117.91,49.2c-1.4.7,2-2.6,3.3-2.4s3.3,2.2,3.3,2.2,2,3-.4,3.7l-2.4.7-2-.4s3.5-.7,2.6-1.8S119.91,48.3,117.91,49.2Z" style="fill:#455f2c"/><path d="M113.51,59a3.5,3.5,0,0,0,3.1,1.5,24.17,24.17,0,0,0,4.6-1.3,8.56,8.56,0,0,1,3.9,0c1.1.4,2.4-1.1,3.7-1.1a3.57,3.57,0,0,1,3,2c.4.9.9,3,1.5,3.5s.6,3.1.6,3.1-1.2,1.6-1.5,1.1c-.6-1.3-.7-3.1-2.4-2.4s-2.1,1.5-1.4,2.2a8.64,8.64,0,0,0,1.4,1.3c.9.7,3.1,2.2,1.7,2.6s-1.7,2.2-3.1,0-1.5-3.3-2.2-3.9-.7-3.5-.2-4-1.1-1.8-2.2-1.1-.4,1.1-1.7,1.4-.4,2-2.6,2a21.27,21.27,0,0,1-4.4-.7c-1.1-.2.2-.4-1.1-2S111.81,61,113.51,59Z" style="fill:#455f2c"/><path d="M124.41,74.1c.7.8,1.3.1,1.5,3.3s1.8,2.9,2.8,4,2.8,2,2.6,3.3-2,3.3-2,3.3l-.3-2.8s-6,1.2-6.1-1.6,2.3-3.2-.4-3.3-2.8-.1-3.6-.5-2.7-1.6-2.8-2.1-2.1-1.1-2.1-1.1a12.56,12.56,0,0,0-3.8-.6c-.9.2-1.6-.5-.8-1.2s.9-1.3,1.9-.7c1,.4,1.9.9,2.9,1.4,1.7,1,5.1.4,5.1.4a9.22,9.22,0,0,0,2.6,2.2c1.2.5,1.2,1.3,1.8-.3A9.71,9.71,0,0,0,124.41,74.1Z" style="fill:#455f2c"/><path d="M130.81,73.5c-1.3-.4-.2,3.3-1.3,3.3s-2.8-.7-2,.5a8.55,8.55,0,0,0,2.2,2.8c.7.4.9-1.3,2-.9a2.14,2.14,0,0,0,2.6-.4,2.49,2.49,0,0,0,.9-2.4c-.2-.6.4-3-.4-3.3s-.9,2-1.5,2.4S131.91,73.9,130.81,73.5Z" style="fill:#455f2c"/><path d="M84.21,59a2,2,0,0,0-1.6,2.3,1.91,1.91,0,0,0,.5,1,7,7,0,0,0,2.4,1.3s-.7,1.1,1.1,2,1.5,1.5,3.1.4,1.8-.4,3.3-2,.6-3.3,2.8-3.3a14.09,14.09,0,0,0,4.6-1.1s1.7-1.5.7-2.4a3.69,3.69,0,0,1-.5-2.7s-3.1-.7-3.9-.2.6.6-.6,1.5-1.8,2-3,2.4a3,3,0,0,0-1.8,3.1c.2,1.3-2.2.2-2.8-.9S85.81,58.6,84.21,59Z" style="fill:#455f2c"/><path d="M116.61,45.1a4.42,4.42,0,0,0,1.1-2.4,7.09,7.09,0,0,0,2.8.9c1.1,0,1.7-.9,2.2-1.3s2,0,3,.2,1.7-1.1,1.8-2-1.3-2.8-1.3-2.8-1.5-2-2.6-2-2,0-2.6.7.4,2.8.4,2.8-2.4,1.5-2.6.9-1.1-4-2.4-4.2a18.48,18.48,0,0,0-5.2.6c-.6.2-3,.4-1.3,1.7s2.2-.2,2.6,1.7a15.67,15.67,0,0,0,1.8,4.2Z" style="fill:#455f2c"/></symbol><symbol id="g" viewBox="0 0 112.5 123.6"><path d="M86.5,112.4c1.5.7-10.2-1.7-10.2-1.7a20.32,20.32,0,0,1-3.9-1.4c-.7-.5-10-5.4-10-5.4l2.4,3.9s4.2,4.2,7,5.3a9.72,9.72,0,0,1,4.3,3.5l-3-1.6-3-1.6-6.4-2.2-4.2-5.4.3,7.5,2.6,3.6,7.5,6.7-6.7-3.1L61,117.3s-3.6-2.5-4.3-2.8-.7-4-.7-4l-2.6-4.3s-6.5,4.5-7.3,5a38.79,38.79,0,0,1-3.6,1.5s-.3,2.1-1.1,2.3a6.71,6.71,0,0,0-3.5,1.9L31,119.3l6.1-3.9,3-3.8,2.9-1.7,3.9-3.1-2.1.1-3.3-.4-3.6,1.7-3.4-1.4c-.9.2-7.3,1.5-7.3,1.5l4.6-3.5,4.6.7,5-.9,8.4-4.5,2.1-5.7,1-14.2-.5-7.5-1.3-5.5-.7-5.3s-1.1-1.5-.8-2.4-1-2.8-1-2.8l-2.2-2.2L42,53.3l-6.3.9-5,2.8S22,59.1,21,59.5l-6.7,2.9,1.3-1.6L17.8,59l4.8-1.6,5.2-.9,7.2-4-3.1.8-5,.6-6.1-.4-2.7-2c-.7-.5-5.2-2.6-5.2-2.6l-2.3-1.1,1.4-.4,3,1.3,3,.9-.3-2.1-1.5-3.4,1.4.8,1,2.4,1.5,2.6,2,2.4,3.7.2,4.3-.4,3.6-2.4,5.9-.4-4.5-2.8-2.7-2.7-2.2-2.9-2.7-2.7L18.7,37l-4.2-.7s-4.2-.5-4.1-1.4,5.1.7,5.1.7l4.4.7,3.1-.5-1.3-1.9-2.9-2.5-2.3-1.3L15,27.9l2.1.8,2.5,1.8L23,33.3l3,1.6,2.7,1.3.4-1.3v-5l-2.8-4.6-2.1-3.8-3-3.4L19,15.2l3.2,2.7,2.9,3,2.8,4.8,2.6,3.6.5,3.8L32.1,35l.6-2.5,1.9-4.6,1.5-2.5,1.6-4.3-.5-4.2c1.4.5,1.7,3.6,1.7,3.6l-1.3,3.4-1.1,3.2-2.6,9.4-1.3,3,1.3,2.4,2.4,3.2,6.2,2.2,7.2.2-2-2.9-1.9-3.8s-1-1.5-1.7-1.5a23.49,23.49,0,0,1-3.7-1.4l-2.7-2.5c1-.7,2.5,1.1,2.5,1.1l3.7,1.3,2.3,1.8,2,2.2.5-3.9-.5-4.2L46.5,31l-1.8-2.2-2.2-2.2a1.11,1.11,0,0,1,1.5-.2.55.55,0,0,1,.3.5L47,29.6l3.3,4.8-.5,4.2L52,41.3l.2-3.5,1.5-6-1.4-4.5-1.1-4.9-2.8-3.7-3.5-4.4-3.2-1.1L37.9,9.8c1-.4,3.2.9,3.2.9L44,13l3.9.9,1.7,3.6L51.4,19l3.3-5.2.4-3L58,4.9c.9.5-.4,3-.4,3l-.9,3.7-1.4,3.7-2,2.2-.2,3.7.2,5.6L54.6,29l1.8-2.5,2.4-1.8,2.9-2.4,1.8-2.7s.1-1.9,1.5-1.8l-1.1,3.9-2,2.9-2,1.5-2.7,2.7-1.8,2.5-1.3,6,.3,8,1.1,5.4,4.7-8.6,4.7-5.4,2-2,.4-3.3L66.5,28l.6-2.8.8-1.4.9-1.5.3,3.3-1,1.6.8,2.3.1,3,.6,1.4,4.1-2.1,4.5-4.9,3.4-3.3,4-5.8.3-4.8c.9.3,1.5,2.7,1.5,2.7l-.9,3-4.3,5.6-3.4,6.3-3.2,2.9,2.6-.3,2.7-1.7h7.9l3.1-1,2.4-2A2.28,2.28,0,0,1,93.2,31s-4.3,1.4-5,1.6a12.57,12.57,0,0,1-3.3.5l2.8,1.1,4.2.4c-.3,1.2-2.4,1-2.4,1l-3.9-1.2-2.1-.1-2.3-.8-2.4,1.8-2.9.6L79.1,37s1.6.6,1.6,1.3,3.4,2,3.4,2l3.3.4,3-.1a4.3,4.3,0,0,1-3.1,1.2l-3-.4-3.6-2L77.2,39l-3.7-1.6-2.1-.8-4.5,1.1L63,44.3l5.4-.6,2,1h3.5l2.2-1.4.2-.1,2.4-.6c.9,1.4-3.5,3.6-3.5,3.6l-4.7.2L66,47.6l-3,6.1,7-2.4s3,1.3,3.7,1.1S82,49.5,82,49.5l3.7-3.1,3.6-1.9,4.7-.2,2.2-1.8,2.2-1.8-.3,1.4-1.5,1.8-1.5,1.6-2.1.6-3.4.8,4.2.7,5.6-.4,3.9,1.1,1.8,1.3,3.4,2,1.4.3c-3.8.3-4.6-1-4.6-1l-4.1-2.3-3,.1-5,.4-3.3.3-1.8-.5-2.6,1.3-3.4,1.5a4.42,4.42,0,0,0,1.6.6l3.5.1L92,53.6a2,2,0,0,1,1.6,1,22.74,22.74,0,0,0,2.2,3.2,27.32,27.32,0,0,0-2.6-1.1L91.7,55,88,54.1l-3.9-.7-3.3.3-3.2-.9-4.3,1.4-4.7,1.2-4.4,2.5-1.7,2.3-1.3,6.5-.3,5.4L60,75.3l.4,5.2,1,7.5,2.1,8.9,3.5,5.6,4.4,4.2,7,3.6A37.11,37.11,0,0,1,86.5,112.4Z" style="fill:#574109"/><path d="M62,49.7l1.4-3s3.4-2.3,4.1-1.3l-2.3.7L63,48.9,61.5,53l-2,3L59,59.1l-2,4.1s-1.1,3.7-.7,5.1a9.26,9.26,0,0,1-.2,3.7l-1.7,5.5a36,36,0,0,1,.8-5.6l-.1-4.6,1.2-4.1,1.6-4,.7-3.5,1.6-3.3-.7-1.7V47.9a33.35,33.35,0,0,0,2-3.5A18.34,18.34,0,0,1,62.8,42l.2-.4,1.6-3,.1,1.6-1,2-1.9,3.3-.9,2.1-.6,2,1,2.1Z" style="fill:#9a7f55"/><path d="M54.4,52.2l-2.3-2.4.9-2.1V44.4s.1-5,.1-5.6c-.6,0-.5,1.4-.5,1.4l-.7,6.2-1.4-3-.3-1.9-1-1.8c-.3.4.2,2.2.2,2.2l-.1,1.2L48,42.6l-.6-.7v.6l.6,1.2,1.7,1,1,.6.8,2.1-.3,3.1,1.5,1.2.7,1.9,2,1.4-2,4.1v3l.7,4.1.5-2.8-.3-2.2.4-2.9,2.1-3.8.6-2.4.5-2.1.7-1.6-.9.8-.9,1.7-.6.6-.4,2.6Z" style="fill:#9a7f55"/><path d="M51.3,59.2l.1-2L50.2,55l-1.3-1.5-2.7-.4-1.9-1.4-2.8-.3-1.3.7-2.9.5-3.6,1.6c.4-.7,2.9-2,2.9-2l-1.5-.8H33.2l-1.9.6a7.5,7.5,0,0,1,2-1l2.3-.5,1.7.2,1.6.4,2.1-.4,1.9-.5,2.7,1.2,2,.2,1.7.7-.7-1.7-2.4-1.1H43.4l-1.5-.2-1.4-.5-1.6-1.3-2.2-1.3,2.1.7,2.4,1.3,1.4.1,4,.1,1.8,1.1L50.3,51l.3,2.3L52.2,56Z" style="fill:#9a7f55"/><path d="M31.6,39.1l.4-2.5,1.6-2L34,33l-2.1,2.5-1-.4V33.6l-.7-2.7v1.9l-.3,2.1.3,2L29,36.5l-1.4-.3L24,35l.8.9L27.2,37l1.1.7,2.2,2,1.2,2.2s2.9,2.8,2.5,2.1a15.91,15.91,0,0,0-2-2.4Z" style="fill:#9a7f55"/><path d="M85,48.8,86.8,47l2.6-1.4,2.4-.6a2.34,2.34,0,0,1-1.2,1l-1.6.5-.9.7,1.5.3,1.7.4,1.8.3,1.2-.2c-.1.3-1.9.5-1.9.5l-2.7-.1-2.1-.7L86,48.9,83.1,50Z" style="fill:#9a7f55"/><path d="M68,33v1.4l-.8,1.3-.9.7a1.91,1.91,0,0,0,1.3.2l2.6-.8,1.9.2,2.8.7,2.7,1.5a6.33,6.33,0,0,0-2.4-1.6l-.8-.9,1.7-.5,1.8-.4,1.8-.8-1.5-.2-1.4.5-1.8.3-1.3.2,1-1.2L76.2,32l1.6-1.2L79,28.2l-.5-.1-.6,1.1-1,1-2,2.1-.9.9-1.6,1.3-2,.4H69Z" style="fill:#9a7f55"/><polygon points="54.4 80.8 55.1 86.2 56 92.2 55.4 95.3 55.8 98.1 56.6 99.8 61.9 104.9 56.7 101.8 57.5 105.9 57.8 110.3 55.9 105.5 54.7 100.9 50.6 105.9 47.4 107.6 52.3 102.4 47.2 104.5 44.1 104.9 49.2 102.1 53.3 100.6 54.2 97.7 54.8 92.1 54.4 88.3 54.4 80.8" style="fill:#9a7f55"/><polygon points="7.2 49.3 9 46.6 10.2 45.7 12.4 43.5 15.2 43.4 22.6 45.9 26.9 44 33.1 45.8 36.5 43.1 42.1 42.7 46 44.1 41.8 44.6 38 46 36.8 50.4 31.8 52.2 27.7 55.5 25.3 60.5 18.2 61.3 13.5 62.9 9.5 62.7 6.6 60.2 2.5 58.9 0 58 0.5 56.2 2.7 55.4 6.9 55.6 10.5 54.1 15 56 17.3 53.3 15 52.3 12.3 50.3 9.2 51.7 7.2 49.3" style="fill:#007b4c"/><path d="M7.9,37,5.5,34.5l.9-2.8,2.7-1.3,3-.1.6-2.5.4-2.6,3-2.9L18,17.5,19,15l1.7-1.8,3.5.9,5.2-1.8,1.4-4.4,3.9-3.8,7.1-2,6.8,3.2s2.1-3.6,3-3.8S57.8,0,57.8,0L64,.5l6.3,4.1,2.3,8.5,3.6-1.4,3,1.1.5,3.1-2.4,3-4.2-.2-2.7,3.1-2.2,4.6-4.6,3.5-4,1.2-3.1,5.7-2,2-6.3.3-2.4,1.5-2.3.3L39.8,40l-2.7-1.4L35.8,36l1.6-3.2,4.3-1.9,4.7-.2L51,27.4l-1.6-1.5-3.1,1.7-4,.5-2.6.6-3.1,1.7-1.3,1.8-1.6,3.4-3.5,1.3L29,36.4l-4.2-.7-3.9,3.1-3.8.3-1.3-2.6,1.6-3.2,3.1-1,1.9-1.1,5-1.4,1.7-2,1.8-2.5,1-2.6-2,2.2L26,27.7l-4,1-2.7,1.7-3.8,1.2-2.8,4.1C12.8,35.9,10,37.5,7.9,37Z" style="fill:#007b4c"/><path d="M71,30.7,72.1,28l5-1.6.6-2.5,3.4-3.3.4-2.6-1-3.6L82,12.1l3.5-.5,3.2,1.3L92,17.1l-.2,4,2.1,4.8,3.8,3,3.9,1.6,2.3,5.5-.6,3.9,4,3,1,4s3.7,2.1,3.6,2.7a12.66,12.66,0,0,0,.6,2.8l-1.9,1.3-3.8,1-3.4-2.5-2.8.4H92.8l3.3,4.2-.2,3-3.1.3-2.4-2.5-3-1.1-6.3-1-2.6,1s-3.1,1.5-4.3,1.2a14.48,14.48,0,0,1-3.4-2l-2-2.4-3.4-2.5L66,49l2.4-1,2.8.8,4.2.2,1.7-1.8-.8-2.6-1.5-2-3.3-.2H67.3a11.33,11.33,0,0,1-2.6-.1c-.9-.3-2.1-.6-2.1-.6l-1.3-2.2,1-2.3,3.6-1.9,2.6-.4,7.3,3.3L79.4,41,82,39.7l2.5-2.6-2.9,1-1.6.8a2.56,2.56,0,0,1-1.6-1.3c-.4-1-4.1-1.4-4.1-1.4l-1.4-.8-.6-1.2-2-1.5Z" style="fill:#007b4c"/></symbol></defs><rect x="-0.2" y="-0.03" width="127.3" height="79.44" style="fill:#e5cd65"/><path d="M-.4,30.67c6.2-1,15.2-1.53,24.2,2.55,6.9,3.06,9.6,6.83,16.1,11.52h0A65.83,65.83,0,0,0,55.8,54c4.8,1.94,8.5,2.55,13.8,3.57,10.4,1.83,11.2.3,16.7,2.45,2.6,1,10.1,4.28,12.4,11.21.8,2.45.5,3.67.3,4-1.1,3.16-6.2,4.89-12.9,4.28H-.4Z" style="fill:#04af1c"/><path d="M30.3.08a121.47,121.47,0,0,1,24.6,16c3.8,3.16,3.1,3.16,6.4,5.91a74.85,74.85,0,0,0,13,8.77c10.9,5.61,15.2.61,26,4.69,12.7,4.69,19.2,16.11,20.9,19a47.79,47.79,0,0,1,6.1,25.08V.08Z" style="fill:#04af1c"/><g style="clip-path:url(#a)"><g style="clip-path:url(#b)"><g style="clip-path:url(#c)"><use width="135.26" height="121.9" transform="translate(86.45 4.02) scale(0.16 0.2)" xlink:href="#f"/></g></g></g><g style="clip-path:url(#d)"><g style="clip-path:url(#e)"><use width="112.5" height="123.6" transform="translate(11.97 31.94) scale(0.28 0.29)" xlink:href="#g"/></g></g><path d="M31.3,24.45a2.63,2.63,0,0,1-2.7,2.65,2.65,2.65,0,1,1,0-5.3A2.63,2.63,0,0,1,31.3,24.45Z" style="fill:#1d1d1b"/><path d="M29.8,24.45a1.2,1.2,0,1,1-1.2-1.23A1.31,1.31,0,0,1,29.8,24.45Z" style="fill:#4d4d4d"/><path d="M28.8,24a.4.4,0,1,1-.4-.41A.44.44,0,0,1,28.8,24Z" style="fill:#767476"/><path d="M41.6,24.45a2.63,2.63,0,0,1-2.7,2.65,2.65,2.65,0,1,1,2.7-2.65Z" style="fill:#1d1d1b"/><path d="M40.1,24.45a1.2,1.2,0,1,1-1.2-1.23A1.31,1.31,0,0,1,40.1,24.45Z" style="fill:#4d4d4d"/><path d="M39,24a.4.4,0,1,1-.4-.41A.44.44,0,0,1,39,24Z" style="fill:#767476"/><path d="M43.6,19.45a35.71,35.71,0,0,0-3.7-.71s.7-6.63-6.7-6.73-6.6,6.52-6.6,6.52-4,1-4,2.45v2.86S22.3,25,23.7,25h2.5c0-.21-.1-.41-.1-.61a2.6,2.6,0,0,1,5.2,0,1.33,1.33,0,0,1-.1.61h5.3c0-.21-.1-.41-.1-.61a2.6,2.6,0,0,1,5.2,0,1.33,1.33,0,0,1-.1.61h2.3s1.3.1,1.3-.61V21.18S45.3,20,43.6,19.45Z" style="fill:#e30613"/><path d="M22.6,21.59v2.35s-.3,1.12,1.1,1.12h2.5c0-.2-.1-.41-.1-.61a2.6,2.6,0,0,1,5.2,0,1.31,1.31,0,0,1-.1.61h5.3c0-.2-.1-.41-.1-.61a2.6,2.6,0,0,1,5.2,0,1.31,1.31,0,0,1-.1.61h2.3s1.3.1,1.3-.61V21.59Z" style="fill:#cecece"/><path d="M32.8,12.62c-5,.41-5.6,3.77-5.6,6.12h5.6Z" style="fill:#9fd7f7"/><path d="M32.5,13.44c-4.1.3-4.7,3-4.6,5.09h4.6Z" style="fill:#dbedfb"/><path d="M33.5,18.74h6s-.2-6.22-6-6.12Z" style="fill:#9fd7f7"/><path d="M33.7,18.33h4.6s-.2-4.79-4.6-4.69Z" style="fill:#dbedfb"/><path d="M32.6,19.86a.27.27,0,0,1-.3.31h-.7a.27.27,0,0,1-.3-.31h0a.27.27,0,0,1,.3-.31h.7a.47.47,0,0,1,.3.31Z" style="fill:#1d1d1b"/><path d="M26.1,24.65a.91.91,0,0,1-.9.92H23.3a.91.91,0,0,1-.9-.92h0a.91.91,0,0,1,.9-.92h1.9a.91.91,0,0,1,.9.92Z" style="fill:#e30613"/><path d="M45.4,24.65a.91.91,0,0,1-.9.92H42.6a.91.91,0,0,1-.9-.92h0a.91.91,0,0,1,.9-.92h1.9a.91.91,0,0,1,.9.92Z" style="fill:#e30613"/><path d="M23.9,21.49c0,.61-.3,1-.6,1s-.6-.51-.6-1,.3-1,.6-1S23.9,20.88,23.9,21.49Z" style="fill:#f8b056"/><path d="M23.3,21.08a1.1,1.1,0,0,1-.1.31c-.1,0-.1-.1-.1-.31a1,1,0,0,1,.1-.3A.44.44,0,0,1,23.3,21.08Z" style="fill:#fff"/><path d="M44.8,22.51c0,.31-.1.51-.3.51s-.3-.2-.3-.51.1-.51.3-.51S44.8,22.31,44.8,22.51Z" style="fill:#f8b056"/><path d="M44.5,22.31c0,.1,0,.1-.1.1l-.1-.1c0-.11,0-.11.1-.11S44.5,22.31,44.5,22.31Z" style="fill:#fff"/><path d="M39.2,19.86a.27.27,0,0,1-.3.31h-.7a.27.27,0,0,1-.3-.31h0a.27.27,0,0,1,.3-.31h.7a.33.33,0,0,1,.3.31Z" style="fill:#1d1d1b"/><text transform="translate(29.34 22.14) scale(1.2 1)" style="isolation:isolate;font-size:10.021145820617676px;font-family:ArialMT, Arial">1</text><path d="M55.1,41A3.1,3.1,0,1,1,52,38,3,3,0,0,1,55.1,41Z" style="fill:#1d1d1b"/><path d="M53.4,41A1.36,1.36,0,0,1,52,42.29,1.42,1.42,0,0,1,50.6,41a1.4,1.4,0,0,1,2.8,0Z" style="fill:#4d4d4d"/><path d="M52.2,40.46a.5.5,0,1,1-1,0,.48.48,0,0,1,.5-.51C51.9,40.05,52.2,40.25,52.2,40.46Z" style="fill:#767476"/><path d="M67.1,41A3.1,3.1,0,1,1,64,38,3,3,0,0,1,67.1,41Z" style="fill:#1d1d1b"/><path d="M65.3,41a1.4,1.4,0,1,1-1.4-1.33A1.36,1.36,0,0,1,65.3,41Z" style="fill:#4d4d4d"/><path d="M64.1,40.46a.5.5,0,1,1-1,0,.48.48,0,0,1,.5-.51C63.9,40.05,64.1,40.25,64.1,40.46Z" style="fill:#767476"/><path d="M69.4,35.46c-1.8-.41-4.3-.71-4.3-.71s.9-7.14-7.7-7.24-7.7,7.14-7.7,7.14S45,35.77,45,37.19v3.17s-.3,1.22,1.3,1.22h2.9a1.31,1.31,0,0,1-.1-.61,3,3,0,0,1,6,0,1.31,1.31,0,0,1-.1.61h6.2a1.31,1.31,0,0,1-.1-.61,3,3,0,0,1,6,0,1.31,1.31,0,0,1-.1.61h2.6s1.5.1,1.5-.71V37.3S71.3,36,69.4,35.46Z" style="fill:#ffdd45"/><path d="M45,37.81v2.55s-.3,1.22,1.3,1.22h2.9a1.31,1.31,0,0,1-.1-.61,3,3,0,0,1,6,0,1.31,1.31,0,0,1-.1.61h6.2a1.31,1.31,0,0,1-.1-.61,3,3,0,0,1,6,0,1.31,1.31,0,0,1-.1.61h2.6s1.5.1,1.5-.71V37.81Z" style="fill:#f9bb09"/><path d="M56.8,28.12c-5.8.41-6.5,4.08-6.5,6.63h6.5Z" style="fill:#9fd7f7"/><path d="M56.5,28.93c-4.8.41-5.4,3.37-5.4,5.51h5.4Z" style="fill:#dbedfb"/><path d="M57.7,34.75h6.9s-.3-6.83-6.9-6.73Z" style="fill:#9fd7f7"/><path d="M57.9,34.24h5.3s-.2-5.2-5.3-5.1Z" style="fill:#dbedfb"/><path d="M56.6,36a.33.33,0,0,1-.3.31h-.8a.27.27,0,0,1-.3-.31h0a.33.33,0,0,1,.3-.31h.8c.1-.1.3.11.3.31Z" style="fill:#d86704"/><path d="M49,41.07a1.1,1.1,0,0,1-1.1,1H45.7a1,1,0,0,1-1.1-1h0a1.1,1.1,0,0,1,1.1-1H48a1.09,1.09,0,0,1,1,1Z" style="fill:#d86704"/><path d="M71.4,41.07a1.1,1.1,0,0,1-1.1,1H68.1a1,1,0,0,1-1.1-1h0a1.1,1.1,0,0,1,1.1-1h2.2a1,1,0,0,1,1.1,1Z" style="fill:#d86704"/><path d="M46.5,37.6c0,.61-.3,1.12-.7,1.12s-.7-.51-.7-1.12.3-1.12.7-1.12S46.5,37,46.5,37.6Z" style="fill:#e30613"/><path d="M45.8,37.19c0,.21-.1.31-.2.31s-.2-.1-.2-.31.1-.3.2-.3S45.8,37,45.8,37.19Z" style="fill:#fff"/><path d="M70.8,38.83c0,.3-.1.61-.3.61s-.3-.31-.3-.61.1-.62.3-.62S70.8,38.52,70.8,38.83Z" style="fill:#e30613"/><path d="M70.4,38.62c0,.1,0,.1-.1.1l-.1-.1c0-.1,0-.1.1-.1S70.4,38.52,70.4,38.62Z" style="fill:#fff"/><path d="M64.2,36a.33.33,0,0,1-.3.31h-.8a.27.27,0,0,1-.3-.31h0a.33.33,0,0,1,.3-.31h.8c.2-.1.3.11.3.31Z" style="fill:#d86704"/><text transform="translate(54.4 38.55) scale(0.98 1)" style="isolation:isolate;font-size:12.236577987670898px;font-family:ArialMT, Arial">2</text><path d="M86.3,54.43a3.1,3.1,0,1,1-3.1-3.16A3.15,3.15,0,0,1,86.3,54.43Z" style="fill:#1d1d1b"/><path d="M84.6,54.43a1.3,1.3,0,1,1-1.3-1.33A1.22,1.22,0,0,1,84.6,54.43Z" style="fill:#4d4d4d"/><path d="M83.3,53.92a.5.5,0,1,1-1,0,.5.5,0,1,1,1,0Z" style="fill:#767476"/><path d="M98,54.43a3.1,3.1,0,1,1-3.1-3.16A3.08,3.08,0,0,1,98,54.43Z" style="fill:#1d1d1b"/><path d="M96.3,54.43A1.3,1.3,0,1,1,95,53.1,1.27,1.27,0,0,1,96.3,54.43Z" style="fill:#4d4d4d"/><path d="M95.1,53.92a.5.5,0,1,1-1,0,.5.5,0,1,1,1,0Z" style="fill:#767476"/><path d="M100.3,48.51A31.13,31.13,0,0,0,96,47.7s.8-7.65-7.6-7.85-7.6,7.64-7.6,7.64-4.6,1.23-4.6,2.76v3.36s-.3,1.33,1.3,1.33h2.8a1.57,1.57,0,0,1-.1-.72,3,3,0,0,1,2.9-3.06A3,3,0,0,1,86,54.22a1.8,1.8,0,0,1-.1.72H92a1.57,1.57,0,0,1-.1-.72,3,3,0,0,1,2.9-3.06,3,3,0,0,1,2.9,3.06,1.8,1.8,0,0,1-.1.72h2.6s1.5.2,1.5-.72V50.45C102,50.55,102.2,49,100.3,48.51Z" style="fill:#0085c7"/><path d="M76.3,51.06v2.65S76,55,77.6,55h2.8a1.53,1.53,0,0,1-.1-.71,3,3,0,0,1,2.9-3.06,3,3,0,0,1,2.9,3.06A1.75,1.75,0,0,1,86,55h6.1a1.53,1.53,0,0,1-.1-.71,3,3,0,0,1,2.9-3.06,3,3,0,0,1,2.9,3.06,1.75,1.75,0,0,1-.1.71h2.6s1.5.2,1.5-.71V51.06Z" style="fill:#095d99"/><path d="M87.9,40.66c-5.7.51-6.5,4.28-6.4,7.14h6.4Z" style="fill:#9fd7f7"/><path d="M87.6,41.48c-4.7.41-5.3,3.57-5.3,5.91h5.3Z" style="fill:#dbedfb"/><path d="M88.8,47.7h6.8s-.3-7.24-6.8-7.14Z" style="fill:#9fd7f7"/><path d="M89,47.19h5.2S94,41.58,89,41.68Z" style="fill:#dbedfb"/><path d="M87.7,49a.32.32,0,0,1-.3.31h-.8a.32.32,0,0,1-.3-.31h0a.32.32,0,0,1,.3-.3h.8a.32.32,0,0,1,.3.3Z" style="fill:#04355a"/><path d="M80.2,54.53a1,1,0,0,1-1,1H77.1a1,1,0,0,1-1-1h0a1,1,0,0,1,1-1h2.1a1,1,0,0,1,1,1Z" style="fill:#0a4674"/><path d="M102.3,54.53a1,1,0,0,1-1,1H99.2a1,1,0,0,1-1-1h0a1,1,0,0,1,1-1h2.1a1,1,0,0,1,1,1Z" style="fill:#0a4674"/><path d="M77.8,50.86c0,.71-.3,1.22-.6,1.22s-.6-.51-.6-1.22.3-1.23.6-1.23S77.8,50.14,77.8,50.86Z" style="fill:#f8b056"/><path d="M77,50.35c0,.2-.1.3-.2.3s-.2-.1-.2-.3.1-.31.2-.31S77,50.25,77,50.35Z" style="fill:#fff"/><path d="M101.7,52.18c0,.31-.1.62-.3.62s-.3-.31-.3-.62.1-.61.3-.61S101.7,51.78,101.7,52.18Z" style="fill:#f8b056"/><path d="M101.3,51.88c0,.1,0,.1-.1.1l-.1-.1c0-.1,0-.1.1-.1S101.3,51.78,101.3,51.88Z" style="fill:#fff"/><path d="M95.2,49a.32.32,0,0,1-.3.31h-.8a.32.32,0,0,1-.3-.31h0a.32.32,0,0,1,.3-.3h.8a.27.27,0,0,1,.3.3Z" style="fill:#04355a"/><text transform="translate(86.11 53.21) scale(1.02 1)" style="isolation:isolate;font-size:11.392457962036133px;font-family:ArialMT, Arial">3</text></svg>