<svg xmlns="http://www.w3.org/2000/svg" xmlns:xlink="http://www.w3.org/1999/xlink" viewBox="0 0 127.31 77.87"><defs><clipPath id="a"><rect x="86.87" y="4.17" width="21.65" height="24.4" style="fill:none"/></clipPath><clipPath id="b"><rect x="11.96" y="31.58" width="31.48" height="34.59" style="fill:none"/></clipPath><linearGradient id="c" x1="14.15" y1="1422.7" x2="13.54" y2="1425.35" gradientTransform="translate(20.53 -1396.06)" gradientUnits="userSpaceOnUse"><stop offset="0" stop-color="#f3c8a2"/><stop offset="0.7" stop-color="#e9a967"/><stop offset="0.93" stop-color="#dd9b5e"/></linearGradient><linearGradient id="d" x1="7.94" y1="1424.65" x2="19.36" y2="1424.65" gradientTransform="translate(20.53 -1396.06)" gradientUnits="userSpaceOnUse"><stop offset="0" stop-color="#f3c8a2"/><stop offset="0.55" stop-color="#e9a967"/><stop offset="0.93" stop-color="#dd9b5e"/></linearGradient><linearGradient id="e" x1="7.97" y1="1424.28" x2="19.36" y2="1424.28" xlink:href="#d"/><linearGradient id="f" x1="11.56" y1="1424.11" x2="19.34" y2="1424.11" xlink:href="#d"/><linearGradient id="g" x1="10.18" y1="1424.4" x2="19.43" y2="1424.4" xlink:href="#d"/><linearGradient id="h" x1="8.01" y1="1424.12" x2="11.42" y2="1424.12" xlink:href="#d"/><linearGradient id="i" x1="8.03" y1="1423.85" x2="11.53" y2="1423.85" xlink:href="#d"/><linearGradient id="j" x1="10.47" y1="1424.7" x2="12.73" y2="1424.7" xlink:href="#d"/><linearGradient id="k" x1="7.93" y1="1424.29" x2="19.43" y2="1424.29" gradientTransform="translate(20.53 -1396.06)" gradientUnits="userSpaceOnUse"><stop offset="0" stop-color="#cc5000"/><stop offset="1" stop-color="#981e00"/></linearGradient><linearGradient id="l" x1="8" y1="1413.28" x2="19.6" y2="1413.28" xlink:href="#d"/><linearGradient id="m" x1="8.05" y1="1413.59" x2="17.73" y2="1413.59" xlink:href="#d"/><linearGradient id="n" x1="8.01" y1="1413.46" x2="19.53" y2="1413.46" xlink:href="#d"/><linearGradient id="o" x1="7.99" y1="1413.32" x2="19.57" y2="1413.32" xlink:href="#d"/><linearGradient id="p" x1="8.02" y1="1412.92" x2="11.05" y2="1412.92" xlink:href="#d"/><linearGradient id="q" x1="10.49" y1="1413.08" x2="13.95" y2="1413.08" xlink:href="#d"/><linearGradient id="r" x1="13.16" y1="1413.18" x2="19.55" y2="1413.18" xlink:href="#d"/><linearGradient id="s" x1="13.53" y1="1412.97" x2="19.53" y2="1412.97" xlink:href="#d"/><linearGradient id="t" x1="14.4" y1="1412.93" x2="19.54" y2="1412.93" xlink:href="#d"/><linearGradient id="u" x1="8.29" y1="1412.85" x2="10.1" y2="1412.85" xlink:href="#d"/><linearGradient id="v" x1="8" y1="1413.3" x2="19.6" y2="1413.3" xlink:href="#k"/><linearGradient id="w" x1="8.95" y1="1412.33" x2="8.95" y2="1425.26" xlink:href="#d"/><linearGradient id="x" x1="9.2" y1="1425.33" x2="9.2" y2="1411.55" gradientTransform="translate(20.53 -1396.06)" gradientUnits="userSpaceOnUse"><stop offset="0" stop-color="#853c17"/><stop offset="0.28" stop-color="#9e5a27"/><stop offset="0.68" stop-color="#d4a265"/><stop offset="1" stop-color="#ffc143"/></linearGradient><linearGradient id="y" x1="9.23" y1="1424.68" x2="9.4" y2="1424.68" xlink:href="#d"/><linearGradient id="z" x1="9.07" y1="1418.8" x2="9.39" y2="1418.8" xlink:href="#d"/><linearGradient id="aa" x1="9.04" y1="1418.81" x2="9.26" y2="1418.81" xlink:href="#d"/><linearGradient id="ab" x1="8.57" y1="1423.92" x2="9.1" y2="1423.92" xlink:href="#d"/><linearGradient id="ac" x1="8.6" y1="1424.24" x2="9" y2="1424.24" xlink:href="#d"/><linearGradient id="ad" x1="8.55" y1="1418" x2="9.14" y2="1418" xlink:href="#d"/><linearGradient id="ae" x1="8.55" y1="1417.84" x2="8.88" y2="1417.84" xlink:href="#d"/><linearGradient id="af" x1="8.49" y1="1417.5" x2="8.77" y2="1417.5" xlink:href="#d"/><linearGradient id="ag" x1="8.95" y1="1412.33" x2="8.95" y2="1425.26" xlink:href="#k"/><linearGradient id="ah" x1="18.52" y1="1412.39" x2="18.52" y2="1425.41" xlink:href="#d"/><linearGradient id="ai" x1="18.13" y1="1425.55" x2="18.13" y2="1411.67" xlink:href="#x"/><linearGradient id="aj" x1="18.83" y1="1425.54" x2="18.83" y2="1411.67" xlink:href="#x"/><linearGradient id="ak" x1="18.07" y1="1418.9" x2="18.24" y2="1418.9" xlink:href="#d"/><linearGradient id="al" x1="18.37" y1="1418.87" x2="18.53" y2="1418.87" xlink:href="#d"/><linearGradient id="am" x1="18.51" y1="1420.31" x2="18.63" y2="1420.31" xlink:href="#d"/><linearGradient id="an" x1="18.27" y1="1419.74" x2="18.44" y2="1419.74" xlink:href="#d"/><linearGradient id="ao" x1="18.47" y1="1413.75" x2="18.65" y2="1413.75" xlink:href="#d"/><linearGradient id="ap" x1="18.67" y1="1413.85" x2="18.85" y2="1413.85" xlink:href="#d"/><linearGradient id="aq" x1="18.68" y1="1418.95" x2="18.92" y2="1418.95" xlink:href="#d"/><linearGradient id="ar" x1="17.99" y1="1415.25" x2="18.1" y2="1415.25" xlink:href="#d"/><linearGradient id="as" x1="18.49" y1="1412.39" x2="18.49" y2="1425.4" xlink:href="#k"/><linearGradient id="at" x1="34.13" y1="1436.56" x2="33.51" y2="1439.21" xlink:href="#c"/><linearGradient id="au" x1="27.92" y1="1438.52" x2="39.34" y2="1438.52" xlink:href="#d"/><linearGradient id="av" x1="27.95" y1="1438.15" x2="39.33" y2="1438.15" xlink:href="#d"/><linearGradient id="aw" x1="31.54" y1="1437.97" x2="39.32" y2="1437.97" xlink:href="#d"/><linearGradient id="ax" x1="30.16" y1="1438.26" x2="39.41" y2="1438.26" xlink:href="#d"/><linearGradient id="ay" x1="27.99" y1="1437.98" x2="31.4" y2="1437.98" xlink:href="#d"/><linearGradient id="az" x1="28.01" y1="1437.71" x2="31.51" y2="1437.71" xlink:href="#d"/><linearGradient id="ba" x1="30.45" y1="1438.57" x2="32.7" y2="1438.57" xlink:href="#d"/><linearGradient id="bb" x1="27.91" y1="1438.16" x2="39.4" y2="1438.16" xlink:href="#k"/><linearGradient id="bc" x1="27.98" y1="1427.15" x2="39.58" y2="1427.15" xlink:href="#d"/><linearGradient id="bd" x1="28.03" y1="1427.45" x2="37.71" y2="1427.45" xlink:href="#d"/><linearGradient id="be" x1="27.98" y1="1427.32" x2="39.51" y2="1427.32" xlink:href="#d"/><linearGradient id="bf" x1="27.97" y1="1427.18" x2="39.54" y2="1427.18" xlink:href="#d"/><linearGradient id="bg" x1="28" y1="1426.79" x2="31.03" y2="1426.79" xlink:href="#d"/><linearGradient id="bh" x1="30.47" y1="1426.94" x2="33.93" y2="1426.94" xlink:href="#d"/><linearGradient id="bi" x1="33.13" y1="1427.05" x2="39.53" y2="1427.05" xlink:href="#d"/><linearGradient id="bj" x1="33.5" y1="1426.83" x2="39.51" y2="1426.83" xlink:href="#d"/><linearGradient id="bk" x1="34.38" y1="1426.79" x2="39.52" y2="1426.79" xlink:href="#d"/><linearGradient id="bl" x1="28.27" y1="1426.72" x2="30.08" y2="1426.72" xlink:href="#d"/><linearGradient id="bm" x1="27.98" y1="1427.17" x2="39.58" y2="1427.17" xlink:href="#k"/><linearGradient id="bn" x1="28.93" y1="1426.19" x2="28.93" y2="1439.13" xlink:href="#d"/><linearGradient id="bo" x1="29.18" y1="1439.19" x2="29.18" y2="1425.41" xlink:href="#x"/><linearGradient id="bp" x1="29.21" y1="1438.55" x2="29.38" y2="1438.55" xlink:href="#d"/><linearGradient id="bq" x1="29.05" y1="1432.67" x2="29.37" y2="1432.67" xlink:href="#d"/><linearGradient id="br" x1="29.01" y1="1432.67" x2="29.24" y2="1432.67" xlink:href="#d"/><linearGradient id="bs" x1="28.55" y1="1437.79" x2="29.07" y2="1437.79" xlink:href="#d"/><linearGradient id="bt" x1="28.58" y1="1438.1" x2="28.98" y2="1438.1" xlink:href="#d"/><linearGradient id="bu" x1="28.52" y1="1431.86" x2="29.12" y2="1431.86" xlink:href="#d"/><linearGradient id="bv" x1="28.53" y1="1431.7" x2="28.85" y2="1431.7" xlink:href="#d"/><linearGradient id="bw" x1="28.47" y1="1431.37" x2="28.75" y2="1431.37" xlink:href="#d"/><linearGradient id="bx" x1="28.93" y1="1426.19" x2="28.93" y2="1439.13" xlink:href="#k"/><linearGradient id="by" x1="38.5" y1="1426.25" x2="38.5" y2="1439.27" xlink:href="#d"/><linearGradient id="bz" x1="38.11" y1="1439.42" x2="38.11" y2="1425.53" xlink:href="#x"/><linearGradient id="ca" x1="38.8" y1="1439.4" x2="38.8" y2="1425.54" xlink:href="#x"/><linearGradient id="cb" x1="38.05" y1="1432.76" x2="38.22" y2="1432.76" xlink:href="#d"/><linearGradient id="cc" x1="38.35" y1="1432.74" x2="38.51" y2="1432.74" xlink:href="#d"/><linearGradient id="cd" x1="38.49" y1="1434.18" x2="38.61" y2="1434.18" xlink:href="#d"/><linearGradient id="ce" x1="38.25" y1="1433.6" x2="38.42" y2="1433.6" xlink:href="#d"/><linearGradient id="cf" x1="38.45" y1="1427.62" x2="38.62" y2="1427.62" xlink:href="#d"/><linearGradient id="cg" x1="38.65" y1="1427.71" x2="38.83" y2="1427.71" xlink:href="#d"/><linearGradient id="ch" x1="38.66" y1="1432.82" x2="38.9" y2="1432.82" xlink:href="#d"/><linearGradient id="ci" x1="37.97" y1="1429.11" x2="38.08" y2="1429.11" xlink:href="#d"/><linearGradient id="cj" x1="38.47" y1="1426.25" x2="38.47" y2="1439.26" xlink:href="#k"/><linearGradient id="ck" x1="55.66" y1="1451.71" x2="55.05" y2="1454.36" xlink:href="#c"/><linearGradient id="cl" x1="49.45" y1="1453.67" x2="60.87" y2="1453.67" xlink:href="#d"/><linearGradient id="cm" x1="49.48" y1="1453.29" x2="60.87" y2="1453.29" xlink:href="#d"/><linearGradient id="cn" x1="53.07" y1="1453.12" x2="60.85" y2="1453.12" xlink:href="#d"/><linearGradient id="co" x1="51.69" y1="1453.41" x2="60.94" y2="1453.41" xlink:href="#d"/><linearGradient id="cp" x1="49.52" y1="1453.13" x2="52.93" y2="1453.13" xlink:href="#d"/><linearGradient id="cq" x1="49.54" y1="1452.86" x2="53.04" y2="1452.86" xlink:href="#d"/><linearGradient id="cr" x1="51.98" y1="1453.72" x2="54.24" y2="1453.72" xlink:href="#d"/><linearGradient id="cs" x1="49.44" y1="1453.31" x2="60.94" y2="1453.31" xlink:href="#k"/><linearGradient id="ct" x1="49.51" y1="1442.3" x2="61.11" y2="1442.3" xlink:href="#d"/><linearGradient id="cu" x1="49.56" y1="1442.6" x2="59.24" y2="1442.6" xlink:href="#d"/><linearGradient id="cv" x1="49.52" y1="1442.47" x2="61.04" y2="1442.47" xlink:href="#d"/><linearGradient id="cw" x1="49.5" y1="1442.33" x2="61.08" y2="1442.33" xlink:href="#d"/><linearGradient id="cx" x1="49.53" y1="1441.94" x2="52.56" y2="1441.94" xlink:href="#d"/><linearGradient id="cy" x1="52" y1="1442.09" x2="55.46" y2="1442.09" xlink:href="#d"/><linearGradient id="cz" x1="54.67" y1="1442.19" x2="61.06" y2="1442.19" xlink:href="#d"/><linearGradient id="da" x1="55.04" y1="1441.98" x2="61.04" y2="1441.98" xlink:href="#d"/><linearGradient id="db" x1="55.91" y1="1441.94" x2="61.05" y2="1441.94" xlink:href="#d"/><linearGradient id="dc" x1="49.8" y1="1441.86" x2="51.61" y2="1441.86" xlink:href="#d"/><linearGradient id="dd" x1="49.51" y1="1442.32" x2="61.11" y2="1442.32" xlink:href="#k"/><linearGradient id="de" x1="50.46" y1="1441.34" x2="50.46" y2="1454.28" xlink:href="#d"/><linearGradient id="df" x1="50.71" y1="1454.34" x2="50.71" y2="1440.56" xlink:href="#x"/><linearGradient id="dg" x1="50.74" y1="1453.7" x2="50.91" y2="1453.7" xlink:href="#d"/><linearGradient id="dh" x1="50.58" y1="1447.82" x2="50.9" y2="1447.82" xlink:href="#d"/><linearGradient id="di" x1="50.55" y1="1447.82" x2="50.77" y2="1447.82" xlink:href="#d"/><linearGradient id="dj" x1="50.08" y1="1452.94" x2="50.61" y2="1452.94" xlink:href="#d"/><linearGradient id="dk" x1="50.11" y1="1453.25" x2="50.51" y2="1453.25" xlink:href="#d"/><linearGradient id="dl" x1="50.06" y1="1447.01" x2="50.65" y2="1447.01" xlink:href="#d"/><linearGradient id="dm" x1="50.07" y1="1446.85" x2="50.39" y2="1446.85" xlink:href="#d"/><linearGradient id="dn" x1="50" y1="1446.52" x2="50.29" y2="1446.52" xlink:href="#d"/><linearGradient id="do" x1="50.46" y1="1441.34" x2="50.46" y2="1454.28" xlink:href="#k"/><linearGradient id="dp" x1="60.03" y1="1441.4" x2="60.03" y2="1454.42" xlink:href="#d"/><linearGradient id="dq" x1="59.64" y1="1454.57" x2="59.64" y2="1440.68" xlink:href="#x"/><linearGradient id="dr" x1="60.34" y1="1454.55" x2="60.34" y2="1440.69" xlink:href="#x"/><linearGradient id="ds" x1="59.59" y1="1447.91" x2="59.75" y2="1447.91" xlink:href="#d"/><linearGradient id="dt" x1="59.88" y1="1447.88" x2="60.04" y2="1447.88" xlink:href="#d"/><linearGradient id="du" x1="60.02" y1="1449.32" x2="60.14" y2="1449.32" xlink:href="#d"/><linearGradient id="dv" x1="59.79" y1="1448.75" x2="59.95" y2="1448.75" xlink:href="#d"/><linearGradient id="dw" x1="59.98" y1="1442.76" x2="60.16" y2="1442.76" xlink:href="#d"/><linearGradient id="dx" x1="60.18" y1="1442.86" x2="60.36" y2="1442.86" xlink:href="#d"/><linearGradient id="dy" x1="60.19" y1="1447.97" x2="60.43" y2="1447.97" xlink:href="#d"/><linearGradient id="dz" x1="59.5" y1="1444.26" x2="59.62" y2="1444.26" xlink:href="#d"/><linearGradient id="ea" x1="60" y1="1441.4" x2="60" y2="1454.41" xlink:href="#k"/><symbol id="eb" viewBox="0 0 135.31 122.01"><path d="M19.43,73.29c5.31-1.33,9.12-.94,10.78.88,3.15,1,9.74-.9,11.89-3.06,1.37-1.45,3.34-2.58,3.91-4.55s4.51-6.21,5.92-7.62,6.49-6.77,5.08-9.87a9.31,9.31,0,0,1-5.64,4.51c-2,.56-7,4.23-8.46,3.67a6.81,6.81,0,0,0-4.24-.57c-2,.28-2.82-.56-5.07,0a9.76,9.76,0,0,1-4.8-.28s-2.31,5.47-2.64,6.8l.39-6.8c-7.34,2-11.64,12.84-12.13,14.67-.17-11.61,10.74-16.33,10.74-16.33s-8.49,3-11.31,3.64c1.66-2,5.78-3,6.77-4-1.82.66-9.32-3.74-10.15-4.23l11,2.82c4.71.5,13.37.16,20.68-3.36,2.31-1.12,5.12-1.83,6-2.57,1.28-1,1.17-2.61,2.2-3.94a19.74,19.74,0,0,0,3-5.73c3.22-13.71-2-25.92-2-25.92C50.51,10.65,48,4.71,48,4.71l6.63,1.47L56.39,4l7.22-1.45L65.55.45l5.66.78,2.55,5.06,8.8-2.71s4.07-3,4.91-3,6.94,2.71,8.46,2.88c0,0-4.57,1.19-8.63,7.28C81.48,19.38,83.24,28,82.73,33c-.06.63-.1,1.27-.12,1.89-.16,4.4.63,8.5,1.82,10.13.58.81,1.17,1.83,1.76,2.75C87,49,87.79,50,88.66,50.14c1.52.17,4.4,2.88,5.58,4.06s6.43,2.71,8.8,2,3.22-3.55,3.22-3.55,3.89-1.36,6.6-2,7.45-4.4,9.32-5.76,2.7-7.28,4.39-8.8c-.34.51-1.19,4.4-2.54,9.31s-5.59,3.89-8.29,5.92-4.4,1.19-6.94,3.56-1.19,4.4-1.19,4.4l2.71-.34s1.86-.68,2.37-.85,1.86-.67,5.25-1.52,8.46,1.18,11,1.35c-2,.68-5.59.34-9.65.51s-5.25,1.19-9.48,3.73-13.45-2.37-16.25-2.54c-5.58-.34-16.32-5.87-16.41-5.93A11,11,0,0,0,78,59.62c1,2,2.2,4.23,4.9,5.41s4.24,6.43,4.24,7.11,6.42,3.22,6.42,3.22A36.49,36.49,0,0,1,105.07,77a65.19,65.19,0,0,0-7.78.17c2.2,2.37,11.34,1.35,14.89,1.35C90,86.19,75.27,65.14,73.78,63.65c-1,5.64,5.48,12.11,6.91,13.49,0,0,1,3.26,11.83,9.73,12.53,7.52,20.26,13.74,17.25,11.78s-10.78-7-16.09-8c2.49,3,4.48,8,3.49,11.94C96,89,84.56,87.2,81.25,86.21c-2.82.33-3.32,13.43-3.32,13.43s8.46,5.81,8.13,9c-1.66-4.81-9.46-6.47-10.45-7.8-.67,7-3.49,11-7.3,12.11,1.16-.17,5.47-4.48,5.14-7.46s2-10.12,2.16-20.24-5.48-9-8.8-12.6c1.35,2.1-3.88,7.2-3.88,7.2a53,53,0,0,1-6.2,5.32c-2,1.16-2.54,2.84-3.44,5.59,6.43,3,7.55,7.72,6.56,10.54.66-7-7.3-7.46-9.62-9.62,0,0,2.32,14.27,0,17.08,2.32-3.48-1.49-14.42-2-16.41-1.49,1.16-7.14,1.75-10.13,5.23.51-2.71,19.14-11.65,22.52-26.71,2.49-4.48,2.3-11.55,2.13-17.68-4,16.58-24.34,24.33-29.15,25.49C32.27,83.49,31.06,88,21.7,89c6-.83,7.8-7.63,7-9.29a5.35,5.35,0,0,0-4.1-.21l-1.13.85s-4,2.54-6.49,2.25c1.7-2,10-3.57,10.16-7.61Z" style="fill:#deb13d"/><path d="M64.5,1.39s-2,4.8,0,9S67,14.91,67,16.88s-.56,5.92-.56,7.33a22.76,22.76,0,0,0,0,4.52c.28,1.69.84,4,.84,4s1.7,7.33,2,8.18a9.55,9.55,0,0,1-.28,6.2c-.85-2.25-.57-7.89-.57-7.89s-2.82-4.52-3.1-5.93a17.5,17.5,0,0,1,.28-4.51c-.85-1.41-.85-4.52-.85-4.52l-.66-2.58.37-2.58a30.15,30.15,0,0,1-.83-3.86c0-.85-.28-3.1-.28-3.1L63.1,9l-2-2.25L57.84,3.6Z" style="fill:#a36c31"/><path d="M58.7,27.35A6.15,6.15,0,0,0,57,22.83V20.58s-2.26-5.36-2-7.06-.57-5.35,2-6.76l2.26,3.1.28,4.8-2.54,2L59,20a45.4,45.4,0,0,1,.85,6.77l1.69,2v5c0,1.13-1.41,6.78-1.13,8.47s-2.25,4.79-2.25,4.79l-1.13,2,2-5.93s-.56-11,.57-11.56S58.7,27.35,58.7,27.35Z" style="fill:#a36c31"/><path d="M73.86,66A10.72,10.72,0,0,0,75,69.62,24,24,0,0,0,77.15,73a23.32,23.32,0,0,0,2.94,3.49,6.69,6.69,0,0,1,1.48,1.83c.86,1.44,2.16,2.23,3.69,3.61,0,0-4.56-2.44-5.69-3.29S75.06,75,74.78,73.32,69.7,70.5,70,68.53a38,38,0,0,0,.57-6.21c0-2.53,2.82-1.69,1.69-7S70.55,45.68,71.11,44s1.41-4.23.85-6.77-2-8.46-2-9.59.57-5.64.57-8.75S71.19,1.43,66.68.3c4.51,1.13,8.93,6.19,9.21,7.89l.28,4.51-2.26,5.64-.56,6.49L75.63,31,74.5,44.55l1.41,7.06s.28,6.48-.57,9-1.56,3-1.56,3A10.14,10.14,0,0,0,73.86,66Z" style="fill:#703d20"/><path d="M86.35,57.53s-7.9-2-8.75-5.36c-.53-2.13-1.91-4.21-2.26-7.9a33.13,33.13,0,0,1,1.13-10.15C77,32.71,79,31,75.91,27.91s-.57-7.9,0-9.87,2-5.92,2-7.33,2-6.44,4.68-7.17C81,2.81,77,4.78,77,4.78s-1.7,1.13-2.82.85S72,.28,72,.28L69.48,0,66.66.28c1.41,1.41,4.41,4.22,4.41,4.22l2,4,2,5.07s-2.54,5.65-2.82,6.49-.28,8.47.57,9.31.84,6.21.56,7,2,13.26,1.41,15.52S79,58.38,86.35,57.53Z" style="fill:#a36c31"/><path d="M33.6,78.68s6.2-1.12,7.33-2.54,4.51-2,4.51-2,2.83-.28,3.67-1.41a18.27,18.27,0,0,1,4-4.23c1.69-1.13,7-5.08,7-5.92a41.79,41.79,0,0,1,1.13-4.8L63.5,53l-3.11,2.53s-2.82,4.8-3.66,6.49a19.6,19.6,0,0,1-5.64,6.21,69.2,69.2,0,0,0-6.21,3.66A39.69,39.69,0,0,1,40.37,75C37.55,76.71,33.6,78.68,33.6,78.68Z" style="fill:#a36c31"/><path d="M53.29,90.76a16.76,16.76,0,0,1,2-3.61c.84-.85,2.53.28,3.38-2s2.54-2.54,3.39-4,5.36-4.51,5.36-5.36v-2l-.57-4.23s-1.66,4.28-2.22,5.4-2,4.23-4.52,5.64-3.1.28-4,3.38a10.65,10.65,0,0,1-3.38,5.08Z" style="fill:#a36c31"/><path d="M28.8,56.4s3.1,1.41,4.8.28,4.79,1.57,7.61-.12c1.69.85,1.73,1.56,5.12-.42a65.69,65.69,0,0,1,8.22-3.79L57,49.07l1.13-2a6.14,6.14,0,0,0-2.54,1.69c-1.41,1.42-4,4-5.92,4s-5.08,2-7.34,2.26-4.51-.28-5.92,0S31.06,56.4,28.8,56.4Z" style="fill:#a36c31"/><path d="M93.11,53s2.82,2.25,5.08,2.53,5.08.29,5.64-.56a16.09,16.09,0,0,1,2.43-2.31S109.76,51,110.6,51a30.39,30.39,0,0,0,4.8-1.69l4.51-2.82-4.51,4L109.19,53l-1.41,1.41-3.38,2.25-3.4.58-4.79-.57L91.14,53l-2.26-2.26S90,49.35,93.11,53Z" style="fill:#a36c31"/><path d="M36.37,51.86s4.15-1.59,5.05-2.07,5-1.59,5.87-2.14a4.14,4.14,0,0,0,1.94-2.35A5.45,5.45,0,0,1,50.47,43a8.89,8.89,0,0,0,2.08-3.46,6.08,6.08,0,0,1-1.66,3.39s1.72,1.59,2.62,1.59c-.69.2-2.15-1.29-2.69-1.11a1.42,1.42,0,0,0-.62,1c0,.41-.07.69-.63,1.59s-.76,1.31-1.52,1.59c.28.41,2,2,3.6,1.86-1.11.49-3.11-.55-3.94-1.45a2.06,2.06,0,0,0-.83.49s-.07.48-.28.48.83,1.1,1.66,1.24A2.36,2.36,0,0,1,46,49l-1,.21-1.52.62-.76.76-.62-.07-1.1.07s.28.83.63,1c-.42,0-1-.83-1-.83l-.9.34-1.1.42A5.63,5.63,0,0,1,36.37,51.86Z" style="fill:#a36c31"/><path d="M83.67,48.2s1.1-2,.18-3.5-1.33-7.19-1.29-8.48.92-2.21.55-4.42a26.77,26.77,0,0,1-.18-6.45c.18-1.29.74-5.16.74-5.16-1.29.92-.74,1.29-.92,2.21a21.23,21.23,0,0,0-.56,4.42v3s-.73-3.13-.92-4.06.19-8.66.19-8.66c-.56.37-1.11,8.3-.74,9.59.15.52-.24,1.83.37,2.94.9,1.65,2.08,2.34,1.64,3.46-.72,1.89-2,2.07-3.3,4.84s-.37,3.5,0,4.6a18.9,18.9,0,0,0,.37-3.68l1.66-1.66.73,3.32.56,3.32.55,2.58Z" style="fill:#a36c31"/><polygon points="62.37 54.71 64.34 52.45 64.06 48.79 64.5 46.17 63.11 42.84 62.1 41.2 61.92 36.59 61.74 32.17 60.91 35.87 61.24 42.01 61.8 47.37 62.65 49.63 62.65 50.76 62.37 54.71" style="fill:#703d20"/><path d="M56.16,15.5a2.52,2.52,0,0,0,1.69-2.26,17.87,17.87,0,0,0-.28-3.1L56.44,9.3l-.56,2.82Z" style="fill:#703d20"/><path d="M83.81,2.52S81,3.09,79,7a16.07,16.07,0,0,0-2,6.48l-2.26,5.65-.28,5.36.84-3.39,2-3.38,1.41-4.24,2.82-3.94L81,8.7l3.39-5.08,4-2,3.1.28L87.4.43S85.78,1.4,83.81,2.52Z" style="fill:#703d20"/><path d="M77.93,99.64l.59-5.32.29-3.08,1.61-3.53.83-1.5,2,.7,2.82.83L90.29,90l-2.82-2.82a22.13,22.13,0,0,1-2.5-.82,5.8,5.8,0,0,0-3.14-.88,9.28,9.28,0,0,0-2.39.52c-.79.3-.42,1.45-.42,1.45l-.47,3.37-1.33,3.56Z" style="fill:#703d20"/><path d="M64,14.66l.18-3,.92,1.66L66,15.71l-.19,2.4.37,4.24-.37,4c-.55-2.39-.74-3.87-.74-3.87V17.69Z" style="fill:#703d20"/><path d="M61.52,28.76s-1.57-1.46-1.69-2-.3-2-.3-2l.73-3.13-.37-3.32-.55-2.39L61,12.08,59.27,9.86,57,6.76l-2.83-.4,3.13-.73L61.17,9.5l.92,2-.73,2.95-.19,4.24.92,5s-1.28,1.1-1.1,2S61.52,28.76,61.52,28.76Z" style="fill:#703d20"/><path d="M50.68,68.1l.55-1.29L52,64.42s0,.18.74.18h1.47l1.26.41-2,1.66-.92-.56S53.63,68.1,50.68,68.1Z" style="fill:#703d20"/><path d="M92.51,52.8l-.74-1.28-1.47-.74-1.64-.64-1.49-1-1-1.31-.68-1.09s-.92,3.69-3.69,4.8A3.54,3.54,0,0,0,85.51,50a1.14,1.14,0,0,0,1.4.8l.09,0,1.29.37a5.38,5.38,0,0,1-2.58,1.65c1.11.37,3.14-.55,3.32-1.28l1.47.36,1.29,2s-.92,1.48-1.65,1.48C91.22,55.94,92.51,54.28,92.51,52.8Z" style="fill:#703d20"/><path d="M77.22,55.39s2.58,8.29,3.87,8.29A2.12,2.12,0,0,1,82.9,65l1.69,1.6,1.29,2,.74,2.4L85,69.39l-.92-2-1.85-.92-2.39-.92-2-2.95.23-3-1.7-3L76,54.39Z" style="fill:#703d20"/><path d="M45.15,87.64l-1.84-1.11-1.48,1.84-1.65-.18L38,89.48l-2,2.39v.74l-1.48,1.48-2.21-.56-3.13-.18-2.95,1.84L24,97.4l-1.29,1.29.29,1.48,3,1.65.72,2.19,1.28.58,4.06,3.87,3.5,1.84,1.84-2.21,2.6-2.21,1.1.13,3.68.74,2.77.37,2.39,2.95,3.32-.55,2.58-2-1.11-1.66.56-3.13.71-1.82,1.5-.9,3,1.11,2.21-2.4s-.74.93.18-.73.92-5.35.37-5.53a4,4,0,0,0-2.58-.56c-2,0-.92-2.76-.18-3.87s1.84-2.21-.37-2S57,87.27,55.84,87.82a2.91,2.91,0,0,0-.92,3.69c.73.92,4,3.5,2.58,4.42s-3,1.66-3.5,1.47-.92,3.32-2.21,3.69S47.36,98,47.36,96.3s1.66-4.06,1.29-5.9a29.65,29.65,0,0,1-.37-4.61Z" style="fill:#455f2c"/><path d="M42.39,112.33,40,110.49s-.37-2.4.74-2.4,1.84.92,2.76.19,1.11-.92,2.4.36S45,112,45,112,43.86,114.54,42.39,112.33Z" style="fill:#455f2c"/><path d="M50.68,84c-.78-.74-2-1.11-1.84-1.66l.55-1.66s-1.29-.36.55-1.1.74,0,1.85-.74,3.31-.92,3.5,0,.36,2.4-1.66,2.95S54,87.08,50.68,84Z" style="fill:#455f2c"/><path d="M17.51,92.43c-1.29,0-2.77-1.29-3.5-1.66a7.63,7.63,0,0,0-4.43-.37C7.56,90.77,7,88,7,88s-2.39.19-3.13-.55S2.4,86.35,2.4,85.79s-1.85-1.66-2.22-3,2-2.94,3.14-3.5-1.11-3-1.11-3L0,73.26a11.6,11.6,0,0,1,2-2.21c.53-.21,3.5,1.47,3.5,1.47H7.19A2.62,2.62,0,0,1,9,71.42c1.29-.19,5.35,2.21,5.9,1.47s0-2,1.47-2.39,6.45,1.1,6.64,1.66-1.85,2.94-2.4,3.13S16,77.13,16,78s-3.13,5-2.58,5.35,1.66,2,2.4,2.58S21,92.43,17.51,92.43Z" style="fill:#455f2c"/><path d="M16,84.32s-.36-2,.37-3a13.84,13.84,0,0,0,1.48-2.76s1.1-1.29,2-1.29a20.36,20.36,0,0,1,2.21.18S24,80.82,24.69,81s.93,2.95.93,2.95L21.75,83l-1.29-.55a9.2,9.2,0,0,0-.74,1.47C19.54,84.5,18.43,86.35,16,84.32Z" style="fill:#455f2c"/><path d="M24,89.85c-.74,0-3.69.37-2.95-1.29s4-1.85,4.61-3,4.42-1.84,5.71-1.84,2.58.36,3.5-.19,3.69-5.34,4.61-4.79,2.21,2,1.47,3.13-4,2.21-4,2.21l-1.48,1.29-.36,2-3,.74-1.85-1.29-1.88,2.24-.74,1.48-2.76,1.84Z" style="fill:#455f2c"/><path d="M24.14,71.23l2-2.21,2,.74A14.11,14.11,0,0,1,28,67.92c0-.74-1.66-1.29-2.21-.92A7.43,7.43,0,0,0,24,68.66C23.59,69.21,21.93,71.78,24.14,71.23Z" style="fill:#455f2c"/><path d="M13.45,68.28c-.89,1.79-4.23,0-4.23,0s-1.85,2.22-3.87.56S2.4,64.42,3.13,63.31s1.48-3.5.37-3.87S2,58.52.55,55,.92,50.41,2,50.23s3.87-.93,3.68-1.66,1.85-3.32,3-3.51a5.69,5.69,0,0,1,3.14.19c.55.37,3.13,1.66,3.5,2.58a26.23,26.23,0,0,0,2.21,3.32s-2,3.68-3.87,1.47A2,2,0,0,0,10,53.91c.19,1.29,1.66,2,2,2.76a23.05,23.05,0,0,0,1.84,2.22c.37.55,3.13.55,3.32,1.28s-1.84,2.77-1.84,2.77l-2.58.19-1.11-1.29s-2.76-.37-2,.92.74,1.84,1.66,2.21S14.74,65.71,13.45,68.28Z" style="fill:#455f2c"/><path d="M14.93,71.6c-.74,0-2.21-2.39-1.11-3.32s2.95-1.28,4.42-2.21,2.22-4,3.51-1.65.55,2.76-.56,3.5H18.8l-1.29,1.47V72Z" style="fill:#455f2c"/><path d="M25.43,63.31l-1.29-3.14a4,4,0,0,1,1.48-2,8.18,8.18,0,0,1,2.21,0c.55.18.92,1.84,2.21,2.21a11.85,11.85,0,0,0,4.05.56c2,0,3.32.55,3.32,1.28s-.55,2.4-1.84,2.4S32.25,63,31.7,63A27.18,27.18,0,0,0,28.93,64C28.2,64.23,25.43,63.31,25.43,63.31Z" style="fill:#455f2c"/><path d="M14.74,48.57c1-.5.56-2.58,1.29-3.14A4.7,4.7,0,0,0,17.69,43c0-.56-3.13-4.24-3.13-4.24s3-.74,3-2-1.29-1.47-2.21-1.66-2.4-.73-2.21.93,1.65,5.71,1.65,6.26V45l-1.1.74S12.9,49.49,14.74,48.57Z" style="fill:#455f2c"/><path d="M12.9,44.88l-2.4.55L7.92,44.14l-.73-2.39s-.74-1.29,0-1.84S8.85,38,9.4,39.72s-.18,2.76.92,3S12.9,41.75,12.9,44.88Z" style="fill:#455f2c"/><path d="M17.69,49.67c-1.07,0-.37-3.5.19-3.5s2.95-.18,3.5-.74,2.95.74,3.31,2.58a1.73,1.73,0,0,1-2.76,1.85c-1.48-.92.18-1.85-.37-2.21s-1.84,0-1.84,0S20.46,49.67,17.69,49.67Z" style="fill:#455f2c"/><path d="M92.14,93.9c-.58,0-4.6,6-5.52,6S86.43,96.57,85,96s-3.32.28-3.87.46-1.85,3.6-4.43,4-4.46-4-6.7-3.46-1.66.93-1.66.93l2.21,5.52s-1.81,3.55-1.63,4.26S67.45,109,66.34,109s-.73,1.66-1.84,2.95.32,2.88,2.21,3c4.79.19,3.32-2.58,3.87-3.32s1.75,1,6.18-.46,3.13.92,4,1.11a5,5,0,0,1,2,1.47A27.48,27.48,0,0,0,86,115.19c.74.18,2.58-1.11,5-2.77s.18-6.08,1.47-5.9,5.81,4,6.36,4.52,1.29,2.58,3,3,3.17-4.47,4.17-5.4,3.5-.36,3.5-.36,4.14.24,5.34-1.48c2.58-3.68-.74-5.16-.37-5.89s-.92-5.35-.37-6.46-.36-3.31-.55-4.23-3.68-1.39-6.45-1.94S104.8,85.52,103,85s-5.62-.46-6.17.28-.55,5.16-.55,5.16,0,2.39-.55,2.76l-1.3.19,3,2.21a15.28,15.28,0,0,0,2-.37,2.93,2.93,0,0,1,2.21.92c.56.56,3.32,2.67,3.32,2.67L101,100.72a8.15,8.15,0,0,1-2.39-.55,5.51,5.51,0,0,0-2.4-.92c-.74,0-1.48,2-2,2.21a9.08,9.08,0,0,1-2.21,0,1.89,1.89,0,0,1,1.29-2.21C95,98.69,94.58,97.4,96.06,97s-.93-1.84-.93-1.84A11.32,11.32,0,0,0,92.14,93.9Z" style="fill:#455f2c"/><path d="M75.65,115.74c0-.55,1.11-2.58,2.21-2.58s2,.74,3.13.92,1.48.55,2.58.19a1.74,1.74,0,0,1,2.22.74c.18.56,1.1,1.48,2.76.37s3.5,2,3,2.58A6.58,6.58,0,0,1,89,119.8c-1,.21-3.55-.19-3.92-.79s-1.11,1-2.21,1.34c-.46.15-1.23,1.75-2.4,1.66a7.09,7.09,0,0,1-3.87-2.4c-.18-.6,1.11-2.6,1.11-2.6Z" style="fill:#455f2c"/><path d="M116,97.49l2-.18a1.39,1.39,0,0,1,2.21.37c1.1,1.47.74,2.4,2.21,2.4s3-.74,3.13-1.3.92-.73.92-1.29.92-.36.74-1.47,1.84-.74.92-1.11-1.66.19-2.39.74-2,2-2.22.74a5.37,5.37,0,0,1,.93-3s.18-1.66-.74-1.29a6.42,6.42,0,0,0-2,1.29,7.41,7.41,0,0,1-2.21,1.11,13.84,13.84,0,0,1-1.29-.74c-.55-.37-1.29-2-1.84-1.66s-.92,3.13-.92,3.13Z" style="fill:#455f2c"/><path d="M74.64,85l-.56,2s1.48,2.77-.92,1.48-3.5-2.4-3.87-3.5A4.24,4.24,0,0,1,70.4,81.3c.74-.55,1.66-1.29,2.21-.18a1.64,1.64,0,0,0,2.2.73,1.18,1.18,0,0,0,.19-.11,3.28,3.28,0,0,1,3,.18c.56.56.56,2-.55,3.14S75.56,85.61,74.64,85Z" style="fill:#455f2c"/><path d="M89.75,80.63a7.64,7.64,0,0,1,3.68,0,1.7,1.7,0,0,1,2.22,0,6,6,0,0,0,3.87,1.29c.92-.18,2.39,1.48,3.68,0s6.08.74,7.19-1.47,3.32-1.84,3.5-3.13.18-3.51,1.11-4.06,3.87-1.29,4-2.39-1.11-2.77-1.11-2.77a5,5,0,0,0-3.5,1.11c-1.29,1.29-3.87,3.68-4.42,3.68s1.11,3.87-.92,2.77-3.32-2.21-2.77-3.14,3.32-1.1,3.32-2.21-2.76-2-3.5-2-1.84,1.85-3.32,1.66.74,4.43.74,4.43l-2.21.92L100.62,74l-.55-2.22-2.4.56s-.55,1.47-1.65-.18S94.17,68.84,92.88,69s-.92,1.48-2,1.66-2.21,2-4.6,3-1.85,2.58,0,3.5S88.83,81,89.75,80.63Z" style="fill:#455f2c"/><path d="M117.94,72.71c-1.42-.65,2,2.58,3.32,2.39s3.32-2.21,3.32-2.21,2-3-.37-3.68l-2.4-.74-2,.37s3.5.73,2.58,1.84S120,73.63,117.94,72.71Z" style="fill:#455f2c"/><path d="M113.52,62.94a3.56,3.56,0,0,1,3.13-1.47,24.45,24.45,0,0,1,4.61,1.29,9.35,9.35,0,0,0,3.87,0c1.11-.37,2.4,1.1,3.69,1.1a3.55,3.55,0,0,0,3-2c.36-.92.92-3,1.47-3.51s.55-3.13.55-3.13-1.24-1.64-1.47-1.1c-.55,1.29-.74,3.13-2.4,2.39s-2-1.47-1.29-2.21A11.65,11.65,0,0,1,130.11,53c.92-.74,3.13-2.21,1.66-2.58s-1.66-2.21-3.14,0-1.47,3.32-2.21,3.87-.73,3.5-.18,4.05-1.11,1.84-2.21,1.11-.37-1.11-1.66-1.48-.37-2-2.58-2a18.48,18.48,0,0,0-4.43.73c-1.1.19.19.37-1.1,2S111.86,60.92,113.52,62.94Z" style="fill:#455f2c"/><path d="M124.47,47.81c.7-.81,1.33-.14,1.51-3.29s1.81-2.87,2.75-4,2.77-2,2.63-3.29-2-3.34-2-3.34l-.3,2.75s-6-1.22-6.07,1.56,2.25,3.2-.38,3.3-2.82.07-3.64.49-2.71,1.59-2.81,2.13-2.07,1.14-2.07,1.14a16.22,16.22,0,0,1-3.85.63c-.9-.15-1.58.48-.76,1.18s.9,1.28,1.93.71a26.81,26.81,0,0,0,2.86-1.37c1.67-1,5.12-.42,5.12-.42A9.91,9.91,0,0,1,122,43.82c1.22-.54,1.16-1.29,1.82.32A11.76,11.76,0,0,1,124.47,47.81Z" style="fill:#455f2c"/><path d="M130.84,48.38c-1.33.44-.18-3.32-1.28-3.32s-2.77.74-2-.55a7.08,7.08,0,0,1,2.21-2.76c.74-.37.92,1.29,2,.92a2.21,2.21,0,0,1,2.58.37,2.4,2.4,0,0,1,.92,2.39c-.19.56.37,3-.37,3.32s-.92-2-1.47-2.39S132,48,130.84,48.38Z" style="fill:#455f2c"/><path d="M84.22,62.94a2,2,0,0,1-1.11-3.32,6,6,0,0,1,2.4-1.29s-.74-1.1,1.11-2,1.47-1.48,3.13-.37,1.84.37,3.32,2,.55,3.32,2.76,3.32a12.93,12.93,0,0,1,4.61,1.11s1.66,1.47.73,2.39a3.1,3.1,0,0,0-.55,2.58s-3.13.74-3.87.19.55-.56-.55-1.48-1.85-2-3-2.39a3.07,3.07,0,0,1-1.84-3.14c.18-1.28-2.21-.18-2.77.93S85.88,63.31,84.22,62.94Z" style="fill:#455f2c"/><path d="M116.65,76.76a4,4,0,0,1,1.11,2.4,7.69,7.69,0,0,1,2.76-.92c1.11,0,1.66.92,2.21,1.29s2,0,3-.19,1.65,1.11,1.84,2-1.29,2.76-1.29,2.76-1.48,2-2.58,2-2,0-2.58-.74.37-2.76.37-2.76-2.4-1.47-2.58-.92-1.11,4-2.4,4.24a19.92,19.92,0,0,1-5.16-.56c-.55-.18-3-.36-1.29-1.65s2.21.18,2.58-1.66a16.47,16.47,0,0,1,1.84-4.24Z" style="fill:#455f2c"/></symbol><symbol id="ec" viewBox="0 0 112.47 123.54"><path d="M86.58,11.27C88.11,10.59,76.39,13,76.39,13a22.6,22.6,0,0,0-3.9,1.38c-.67.5-10,5.44-10,5.44l2.37-3.87s4.21-4.19,7-5.27a9.74,9.74,0,0,0,4.25-3.5l-3,1.56-3,1.56-6.42,2.21-4.15,5.36.3-7.49,2.61-3.65L70,0,63.19,3.17,61,6.32s-3.6,2.53-4.29,2.8-.72,4-.72,4l-2.57,4.34s-6.55-4.55-7.27-5A33,33,0,0,0,42.59,11s-.35-2.08-1.06-2.28A7,7,0,0,1,38,6.85L31.1,4.42l6.09,3.9,3,3.79,2.91,1.7L47,16.89l-2.11-.12-3.25.4L38,15.49l-3.44,1.36c-.94-.18-7.32-1.48-7.32-1.48l4.63,3.49,4.64-.71,5,.9,8.39,4.49L52,29.23l1,14.2-.54,7.5-1.35,5.45-.64,5.41s-1.09,1.46-.81,2.38-1,2.85-1,2.85l-2.21,2.22-4.38,1.17-6.35-.87-5-2.77S22,64.67,21,64.25l-6.69-2.91,1.25,1.57,2.2,1.75,4.75,1.62,5.19.89,7.23,4-3.08-.77-4.94-.67-6.11.41-2.7,2c-.67.5-5.23,2.61-5.23,2.61l-2.28,1.06,1.41.41,3-1.33L18,74l-.35,2.12-1.49,3.39,1.36-.77,1-2.39L20,73.73l2-2.44,3.72-.2,4.27.45,3.63,2.38,5.86.39L35,77.1l-2.66,2.71-2.18,2.92-2.71,2.71-8.81,1.17-4.17.69s-4.18.46-4.13,1.39,5.1-.74,5.1-.74l4.4-.7,3.07.54-1.3,1.93L18.7,92.21l-2.26,1.33-1.52,2.19L17,94.92l2.47-1.77,3.36-2.75,3-1.56,2.74-1.31L29,88.86v4.9l-2.8,4.59-2.13,3.85-3,3.44-2.18,2.9,3.36-2.75,2.88-3L27.89,98l2.61-3.64.5-3.77,1.07-1.92.6,2.54,1.88,4.57,1.53,2.49,1.64,4.35-.48,4.23c1.37-.54,1.68-3.59,1.68-3.59l-1.35-3.44-1.11-3.15-2.6-9.44-1.33-3,1.27-2.41,2.4-3.16,6.19-2.2,7.24-.15-2,2.9L45.73,83s-1,1.52-1.73,1.52a25.13,25.13,0,0,0-3.66,1.36l-2.67,2.48c1,.65,2.51-1.07,2.51-1.07L43.84,86l2.25-1.76,2-2.2.45,3.94L48,90.18l-1.7,2.67L44.55,95l-2.22,2.22a1.09,1.09,0,0,0,1.52.16,1.12,1.12,0,0,0,.34-.49l2.65-2.71,3.25-4.85-.46-4.18,2.2-2.65L52,86l1.49,6-1.38,4.54-.92,4.72-2.84,3.66-3.51,4.39-3.21,1.1-3.78,3.44c.95.42,3.22-.87,3.22-.87L44,110.72l3.92-.9,1.68-3.6,1.79-1.5,3.31,5.2.39,3L58,118.86c.91-.52-.4-3-.4-3l-.89-3.69-1.37-3.66-2-2.24-.21-3.73.17-5.62,1.28-2.17,1.77,2.47L58.78,99l2.93,2.42,1.78,2.71s.1,1.86,1.5,1.79L63.84,102l-2-2.93-2-1.53-2.68-2.67-1.77-2.48-1.26-6,.28-8,1.11-5.43,4.67,8.61,4.72,5.36,2,2,.4,3.25-.77,3.39.61,2.77L68,99.72l.91,1.5.29-3.29-1-1.58L69,94l.08-3,.64-1.43,4.08,2.11,4.47,4.89,3.45,3.32,4,5.85.28,4.83c.92-.29,1.49-2.65,1.49-2.65l-.86-3-4.27-5.62L79,93,75.81,90.1l2.58.33,2.66,1.73h4.44l3.51,0,3.09,1,2.44,2a2.36,2.36,0,0,0-1.06-2.51s-4.29-1.41-5-1.61a16.8,16.8,0,0,0-3.3-.52l2.75-1.08L92.1,89c-.3-1.15-2.39-1-2.39-1L85.8,89.18l-2.1.11-2.29.82L79,88.3l-3.06-.54,3.21-1.1s1.6-.56,1.57-1.25,3.39-2,3.39-2L87.36,83l3,.07a4.7,4.7,0,0,0-3.1-1.24l-3,.4-3.61,2-3.48.42-3.65,1.6-2.06.81L67,85.91l-3.89-6.57,5.4.64,2-1L74,79l2.24,1.4.17.1,2.37.58c.86-1.45-3.46-3.56-3.46-3.56l-4.68-.21-4.5-1.16L63,70l7,2.4s3-1.33,3.68-1.13S82,74.13,82,74.13l3.67,3.07,3.61,1.91,4.68.22,2.2,1.75,2.19,1.75L98,81.45l-1.5-1.79L95,78.1l-2.09-.56-3.31-.75,4.17-.69,5.62.4,3.91-1.14,1.81-1.27,3.39-2,1.39-.31c-3.76-.26-4.62,1-4.62,1l-4.09,2.32-3-.07-4.93-.44L90,74.25l-1.84.56-2.64-1.26L82.1,72a4.82,4.82,0,0,1,1.61-.56l3.5-.18,4.84-1.2a2,2,0,0,0,1.58-1,23.48,23.48,0,0,1,2.17-3.15c-1.14.53-2.52,1.07-2.52,1.07l-1.54,1.72-3.69.9-3.93.67L80.83,70l-3.23.87-4.28-1.4-4.73-1.15-4.34-2.57L62.49,63.5,61.21,57l-.28-5.36-.87-3.22.42-5.16,1-7.53,2.06-8.92L67,21.19,71.44,17l7-3.64A38.91,38.91,0,0,0,86.58,11.27Z" style="fill:#574109"/><path d="M62,74l1.41,3s3.39,2.31,4.12,1.34l-2.34-.82L63,74.75l-1.47-4.13-2-3L59,64.54l-2-4.11s-1.13-3.68-.74-5.1a8.81,8.81,0,0,0-.2-3.65l-1.69-5.52a36,36,0,0,0,.76,5.57L55,56.33l1.15,4.14,1.61,4L58.42,68,60,71.33l-.69,1.74v2.81s1.87,3,2,3.47a19.32,19.32,0,0,0,1.32,2.45l.24.43,1.56,3,.07-1.56-1-2-1.89-3.33-.89-2.13-.57-2,1-2.07Z" style="fill:#9a7f55"/><path d="M54.43,71.47l-2.25,2.37.93,2.06v3.27s.11,5,.14,5.6c-.62,0-.54-1.38-.54-1.38L52,77.24l-1.36,3-.32,1.89-1,1.77c-.34-.45.2-2.19.2-2.19l-.14-1.17L48.12,81l-.66.74v-.59l.64-1.2L49.8,79l1-.63.82-2.07-.32-3.1L52.8,72l.68-1.9,2-1.36-2-4.1v-3l.68-4.09.5,2.78-.35,2.24.43,2.89,2.07,3.78.63,2.39.46,2.07.67,1.6-.86-.77-.91-1.7-.61-.67-.38-2.55Z" style="fill:#9a7f55"/><path d="M51.33,64.43l.11,2-1.17,2.28L49,70.16l-2.72.38-1.91,1.38-2.79.27-1.32-.65L37.31,71l-3.58-1.56c.38.69,2.91,2,2.91,2l-1.48.78H33.29l-1.9-.6a6.46,6.46,0,0,0,2,1l2.25.46,1.74-.21L39,72.44l2.12.36,1.88.48,2.74-1.2,2-.22,1.71-.68-.73,1.68L46.35,74h-2.8L42,74.15l-1.38.54L39,76l-2.15,1.28,2.06-.69,2.39-1.3,1.4-.07,4-.1,1.81-1.14,1.91-1.51.34-2.35,1.61-2.66Z" style="fill:#9a7f55"/><path d="M31.61,84.54,32,87.07l1.63,2L34,90.7l-2.07-2.46-1,.41v1.51l-.67,2.73V91L30,88.93l.24-2.12L29,87.23l-1.43.31L24,88.78l.77-.86,2.4-1.06,1.13-.65,2.23-2L31.7,82s2.88-2.83,2.46-2.12a15.55,15.55,0,0,1-2,2.44Z" style="fill:#9a7f55"/><path d="M85,74.9l1.84,1.77,2.64,1.38,2.37.58a2.49,2.49,0,0,0-1.22-1L89,77.14l-.86-.66,1.5-.31,1.73-.44,1.85-.34,1.22.15c-.13-.34-1.89-.48-1.89-.48l-2.68.14-2.07.7L86,74.73,83.13,73.6Z" style="fill:#9a7f55"/><path d="M68,90.64v-1.4L67.23,88l-.86-.66a1.69,1.69,0,0,1,1.28-.18l2.61.79,1.86-.21L74.88,87l2.69-1.46a7.16,7.16,0,0,1-2.36,1.64l-.78.86,1.66.5,1.78.38,1.79.83-1.39.08-1.43-.51L75,89l-1.3-.17,1,1.23,1.48,1.56,1.58,1.2L79,95.43l-.5.11-.64-1.13-1-1-2-2.11L74,90.44l-1.58-1.32-2-.36H69Z" style="fill:#9a7f55"/><polygon points="54.39 42.89 55.11 37.48 56.04 31.51 55.48 28.35 55.8 25.53 56.65 23.85 61.9 18.74 56.77 21.82 57.49 17.73 57.88 13.35 55.95 18.12 54.72 22.78 50.64 17.78 47.43 16.08 52.3 21.28 47.28 19.21 44.15 18.75 49.28 21.59 53.33 23.09 54.19 26 54.8 31.58 54.46 35.41 54.39 42.89" style="fill:#9a7f55"/><polygon points="7.24 74.37 9.02 77.08 10.23 77.95 12.46 80.17 15.27 80.25 22.61 77.76 26.91 79.63 33.13 77.89 36.53 80.52 42.16 80.92 46.06 79.54 41.83 79.07 38.02 77.64 36.85 73.26 31.85 71.42 27.7 68.14 25.33 63.13 18.28 62.33 13.52 60.72 9.56 60.93 6.66 63.42 2.52 64.81 0 65.64 0.57 67.48 2.71 68.3 6.9 68.08 10.49 69.52 15.06 67.65 17.3 70.33 15.02 71.38 12.33 73.4 9.21 71.93 7.24 74.37" style="fill:#007b4c"/><path d="M7.9,86.71,5.46,89.18l.85,2.76L9,93.2l3,.07.6,2.54.4,2.55,3,2.88,1.88,4.81,1,2.49,1.73,1.77,3.46-.88,5.24,1.82,1.4,4.39,3.94,3.76,7.11,2,6.84-3.17s2.06,3.63,3,3.81,6.16,1.5,6.16,1.5L64,123l6.32-4.07,2.35-8.54,3.58,1.45,3-1.1.54-3.06-2.48-2.91-4.2.23-2.73-3.13-2.11-4.56-4.63-3.49-4-1.19L56.5,86.93l-2-2-6.3-.39L45.78,83l-2.35-.34-3.69.9L37,84.93l-1.26,2.61,1.57,3.18,4.31,1.88,4.68.22,4.62,3.26-1.56,1.46-3.13-1.7-4-.49-2.59-.56-3.13-1.71-1.27-1.8-1.58-3.42-3.45-1.1L29,87.23l-4.17.69-3.9-3.06-3.8-.32-1.26,2.64,1.57,3.18,3.09,1,1.93,1.06,5,1.37,1.74,2L31,98.27l1,2.58-2-2.23-3.89-2.83-4-1-2.66-1.73-3.8-1.2-2.78-4.06S10,86.14,7.9,86.71Z" style="fill:#007b4c"/><path d="M71.07,92.93l1.08,2.74,5,1.61.6,2.53,3.45,3.33.37,2.55-1,3.55,1.54,2.3,3.53.51,3.2-1.34,3.28-4.17-.21-4L94,97.78l3.81-3,3.89-1.62,2.3-5.49-.67-3.93,4-3,1-4S112,74.67,111.92,74a15.91,15.91,0,0,1,.55-2.83l-1.94-1.3-3.79-1-3.37,2.51L100.55,71H92.8l3.29-4.15-.16-3-3.07-.35L90.43,66l-3,1.09-6.26,1-2.62-1s-3.11-1.46-4.27-1.17a15,15,0,0,0-3.39,2l-2,2.44-3.37,2.52.56,1.84,2.39,1,2.76-.85,4.19-.23,1.73,1.78L76.36,79l-1.53,2-3.26.17H67.41a8.78,8.78,0,0,0-2.56.13c-.92.29-2.07.58-2.07.58l-1.29,2.17,1,2.28,3.61,1.91,2.6.45L76,85.42l3.6-2.76,2.63,1.26,2.52,2.62-2.86-1L80,84.74A2.57,2.57,0,0,0,78.43,86c-.42,1-4.13,1.39-4.13,1.39l-1.36.77-.64,1.2-2,1.51Z" style="fill:#007b4c"/></symbol></defs><rect x="-0.15" y="0.06" width="127.31" height="77.87" style="fill:#e5cd65"/><path d="M-.38,30.26c6.21-1,15.21-1.45,24.21,2.48,6.89,3,9.61,6.66,16.08,11.31h0A68.49,68.49,0,0,0,55.83,53.2c4.8,1.89,8.51,2.53,13.75,3.45C80,58.47,80.81,57,86.27,59.07c2.57,1,10.08,4.23,12.45,11,.84,2.37.47,3.57.34,3.91-1.11,3.1-6.2,4.78-12.93,4.22H-.38Z" style="fill:#04af1c"/><path d="M30.28.26A123.93,123.93,0,0,1,54.83,15.92c3.75,3.08,3.07,3.08,6.4,5.8a77.71,77.71,0,0,0,13,8.61c10.94,5.5,15.2.65,26,4.56,12.67,4.61,19.22,15.83,20.86,18.65a46,46,0,0,1,6.14,24.59V.26Z" style="fill:#04af1c"/><g style="clip-path:url(#a)"><use width="135.31" height="122.01" transform="matrix(0.16, 0, 0, -0.2, 86.73, 28.55)" xlink:href="#eb"/></g><g style="clip-path:url(#b)"><use width="112.47" height="123.54" transform="matrix(0.28, 0, 0, -0.28, 11.96, 66.17)" xlink:href="#ec"/></g><polygon points="29.23 17.29 38.95 17.29 39 28.13 29.28 28.13 29.23 17.29" style="fill:#fff"/><path d="M39.93,28.7c0-.08,0-.13-.11-.21.09,0,.13.05.11,0s0-.22-.08-.24c.08,0,.08,0,.06-.09s0-.16,0-.21a6,6,0,0,0-.73-.06c-.48,0-1,0-1.42,0s-3.58,0-4.06,0a5.61,5.61,0,0,1-.71,0H32.3a2.42,2.42,0,0,1-.38,0c-.24,0-.48,0-.71,0-.48,0-1-.11-1.45-.11a5,5,0,0,1-.67,0,1.46,1.46,0,0,0-.51,0s0,.14,0,.16a.76.76,0,0,0,0,.3v.14s0,.08,0,.11-.06.05.07.05c0,0-.09,0-.07.06s0,.13,0,.16.15,0,.26,0h.3l1.25,0c.84,0,1.66,0,2.48.05s4.29.09,5.15.09h1.16l.63,0a1.71,1.71,0,0,1,.32,0c-.06,0-.11-.11-.11-.11Z" style="fill:url(#c)"/><path d="M39.89,28.68c-.35,0-.69,0-1,0-.91,0-4.38.05-5.28,0-.43,0-.86-.11-1.32-.13s-.9,0-1.33,0H29.57c-.09,0-.78,0-1.12,0h1.1c.45,0,.9,0,1.35,0s.91,0,1.34,0a12.87,12.87,0,0,1,1.38.13c.9.08,4.39,0,5.3,0a6.55,6.55,0,0,0,1,0Z" style="fill:url(#d)"/><path d="M39.89,28.24h0a9.58,9.58,0,0,1-1.31.06c-.87,0-4.31-.08-5.18-.17a7.94,7.94,0,0,0-1.29,0l-1.29.08c-.2,0-1.71.06-2.35.06v0c.6,0,2.05,0,2.22-.05.41,0,.8,0,1.23-.05a6.2,6.2,0,0,1,1.29-.06l1.21.08c.43,0,3.47.06,3.9.08a14.07,14.07,0,0,0,1.57-.08Z" style="fill:url(#e)"/><path d="M39.8,28h0c-.23.05-.47.08-.71.11-.51,0-3.62,0-4.14,0A13.9,13.9,0,0,1,33.51,28a5.78,5.78,0,0,0-.73,0c-.24,0-.48,0-.71,0,.51,0,1,0,1.53.05s3.62.06,4.13.06,1,0,1.56,0c.19,0,.38-.06.58-.11A.07.07,0,0,0,39.8,28Z" style="fill:url(#f)"/><path d="M40,28.38c-.34,0-.69,0-.75,0h-1c-.32,0-3.26-.06-3.58-.09a11.86,11.86,0,0,0-2-.05,5.84,5.84,0,0,1-.93.08c-.34,0-.69,0-1,0l1,0c.35,0,.67-.05,1-.08a16.42,16.42,0,0,1,2,.05c.3,0,3.19.09,3.49.09h1a2.64,2.64,0,0,0,.73,0Z" style="fill:url(#g)"/><path d="M31.59,28l-.6.08c-.37.05-.73.05-1.12.08l-1.12,0h0c.37,0,.73.06,1.08,0s.73,0,1.07-.05l.61-.09a1,1,0,0,0,.41-.08A1.43,1.43,0,0,1,31.59,28Z" style="fill:url(#h)"/><path d="M31.53,27.89h-.67a11.57,11.57,0,0,1-1.31-.11l-1-.11v0l1.08.11a11.76,11.76,0,0,0,1.34.08h1.08A3,3,0,0,1,31.53,27.89Z" style="fill:url(#i)"/><path d="M33.25,28.7h0c-.23,0-.43-.08-.67-.1a6.52,6.52,0,0,0-.77,0c-.24,0-.45,0-.69.05a.18.18,0,0,0-.11,0h.07a6.78,6.78,0,0,1,.77,0c.26,0,.48,0,.73,0s.26,0,.39.06a.68.68,0,0,0,.2,0S33.32,28.7,33.25,28.7Z" style="fill:url(#j)"/><path d="M39.93,28.7c0-.08,0-.13-.11-.21.09,0,.13.05.11,0s0-.22-.08-.24c.08,0,.08,0,.06-.09s0-.16,0-.21a6,6,0,0,0-.73-.06c-.48,0-1,0-1.42,0s-3.58,0-4.06,0a5.61,5.61,0,0,1-.71,0H32.3a2.42,2.42,0,0,1-.38,0c-.24,0-.48,0-.71,0-.48,0-1-.11-1.45-.11a5,5,0,0,1-.67,0,1.46,1.46,0,0,0-.51,0s0,.14,0,.16a.76.76,0,0,0,0,.3v.14s0,.08,0,.11-.06.05.07.05c0,0-.09,0-.07.06s0,.13,0,.16.15,0,.26,0h.3l1.25,0c.84,0,1.66,0,2.48.05s4.29.09,5.15.09h1.16l.63,0a1.71,1.71,0,0,1,.32,0c-.06,0-.11-.11-.11-.11Zm-.17.11-4.72,0c-.73,0-1.46,0-2.22-.06s-1.42-.05-2.15-.05c-.37,0-.74,0-1.12,0a6,6,0,0,0-1,0l0-.14.3-.05a1.09,1.09,0,0,1-.3,0l.11,0s-.13.05-.09,0,0-.14,0-.25v-.27s0-.05,0-.08,0-.08.06-.08c.41,0,.84,0,1.25,0l1.32.11.64,0a4.57,4.57,0,0,0,.65,0h.21a.88.88,0,0,0,.28,0h.52c.43,0,.88,0,1.32,0,.84,0,4.26,0,5.1.08,0,.05,0,.11,0,.16s-.13,0-.13.06.11,0,.13,0,0,.11,0,.22-.15,0-.15,0,.13,0,.11.08a.9.9,0,0,0,0,.22.25.25,0,0,1-.15,0Z" style="fill:url(#k)"/><path d="M40.06,17.49h0c.09,0,0-.14,0-.22s-.07-.08-.11-.08.11,0,.11,0v-.24s0-.09,0-.11a1.14,1.14,0,0,0-.32,0H38.51l-3.84,0-1.31,0H32.11a9.88,9.88,0,0,1-1.21,0,10.28,10.28,0,0,0-1.25,0h-1c-.09,0,0,0-.05,0s0,.21,0,.21,0,.14.11.14c-.06,0-.11,0-.11.08s-.06.22.07.22a.11.11,0,0,0-.07.13q0,.09.09.09H29a7.7,7.7,0,0,0,1.27,0l1.31,0c.43,0,.91,0,1.34,0,.24,0,.43,0,.67,0h.6L38,17.7c.41,0,.84,0,1.25,0h.62s.2,0,.22,0-.07-.13-.07-.21Z" style="fill:url(#l)"/><path d="M35.13,17.68l3.14,0c-.47-.05-3.55-.13-4.05-.1l-.92,0c-.35,0-.72-.05-1.06-.08s-.65-.08-1-.14-.69,0-1,0-.69,0-1,0a4.52,4.52,0,0,0-.51,0l-.13,0v0c.06,0,.1,0,.1,0a2.91,2.91,0,0,1,.52,0l1,0c.34,0,.68,0,1,.05s.71.11,1,.14.67.08,1,.08l.9,0a7.91,7.91,0,0,1,.84.06Z" style="fill:url(#m)"/><path d="M40.06,17.6H40a6,6,0,0,0-1.27-.06,3.76,3.76,0,0,1-.58,0c-.21,0-3,0-3.23,0a4.76,4.76,0,0,1-.65-.06h-.69c-.88,0-1.72-.13-2.61-.22-.43,0-.88,0-1.31,0a4.31,4.31,0,0,0-1.08.11h0a6.32,6.32,0,0,1,1.06-.09,11.46,11.46,0,0,1,1.31,0c.89.06,1.73.22,2.61.25.39,0,.78,0,1.21,0H38a4.43,4.43,0,0,0,.63,0,9.26,9.26,0,0,1,1.29,0,.26.26,0,0,0,.19,0Z" style="fill:url(#n)"/><path d="M40.08,17.4h0a3.2,3.2,0,0,0-.62,0,4.51,4.51,0,0,1-1.27,0c-.18,0-2.93-.05-3.15-.08a2.36,2.36,0,0,0-.65,0l-1.31,0a10.49,10.49,0,0,1-1.25-.08c-.41-.06-.84-.06-1.25-.14-.19,0-.34-.08-.54-.11a1.75,1.75,0,0,0-.56,0,4.29,4.29,0,0,1-.62,0h-.37v0h.34a4.43,4.43,0,0,0,.63,0,2.15,2.15,0,0,1,.62,0l.56.11a2.51,2.51,0,0,0,.61,0l.64.08a9.84,9.84,0,0,0,1.32.08l1.31,0a6,6,0,0,1,.61,0c.21,0,3,.06,3.19.09a8,8,0,0,0,1.18-.06,3.63,3.63,0,0,1,.58,0Z" style="fill:url(#o)"/><path d="M31.59,16.81h-.21c-.54.05-1.06.11-1.6.11a3.21,3.21,0,0,1-.77-.06l-.41-.08v0c.19,0,.36.08.41.08a7.79,7.79,0,0,0,.79.05c.56,0,1.1-.08,1.64-.13Z" style="fill:url(#p)"/><path d="M34.33,17A5.65,5.65,0,0,0,33,16.78h-.15a.56.56,0,0,1,.21,0,4.64,4.64,0,0,1,.76.11c.1,0,.6.08.6.21s-1.29.08-1.44.08l-1.62-.13c-.11,0-.52-.06-.26-.14a2.54,2.54,0,0,1,.73-.11,6.66,6.66,0,0,1,1.6.14,1.32,1.32,0,0,0,.23.05c.09.06-.1.09-.12.09-.24,0-.46,0-.69,0a9.89,9.89,0,0,1-1.36-.21,3.87,3.87,0,0,1,1.59,0,.22.22,0,0,1,.13.05c0,.08-.15.08-.21.08A7.89,7.89,0,0,1,32.2,17a.39.39,0,0,1,.34-.08,1.15,1.15,0,0,1,.41.05c-.06,0-.13,0-.21.06a.72.72,0,0,1-.33,0h.35s-.59,0-.31.05c.07,0,.57.06.54-.05s-.47,0-.58,0a.35.35,0,0,0-.24.08,1.63,1.63,0,0,0,.33.05,4.57,4.57,0,0,0,.64,0c.07,0,.2-.06.13-.11s-.21-.08-.3-.08a6.83,6.83,0,0,0-.8-.06,3,3,0,0,0-.73.11,5,5,0,0,1,.56.11,2.27,2.27,0,0,0,.63.08,4.57,4.57,0,0,0,.64,0,1,1,0,0,0,.48-.08c.11-.08-.24-.14-.28-.16a3.47,3.47,0,0,0-.63-.11,2.37,2.37,0,0,0-.45,0h-.58a.66.66,0,0,0-.24,0l-.43.08c-.13.05-.13.13,0,.16a3.68,3.68,0,0,0,.58.06c.26,0,.48,0,.74.05a12.22,12.22,0,0,0,1.35.08,3.44,3.44,0,0,0,.56,0C34.57,17.21,34.48,17.08,34.33,17Z" style="fill:url(#q)"/><path d="M40.06,17.27c-.24,0-.45,0-.69,0a6.11,6.11,0,0,1-1.2-.06c-.39-.08-3.34,0-3.73-.22,0,0-.39-.13-.69-.19h-.07c.09,0,.2,0,.2.06a2.3,2.3,0,0,1,.58.22c.37.13,3.32.13,3.73.21a3.29,3.29,0,0,0,.62.08c.22,0,.41,0,.63,0a1.62,1.62,0,0,1,.62-.11Z" style="fill:url(#r)"/><path d="M40.06,17c-.56,0-1.1.05-1.64,0-.34,0-3.27-.08-3.62-.13l-.64-.11h-.09l.69.11c.37.05,3.32.13,3.71.13.13,0,1,0,1.59,0Z" style="fill:url(#s)"/><path d="M40.06,16.92c-.45,0-.9,0-1.36,0-.3,0-3.16,0-3.42-.09l-.26,0h-.09a1.07,1.07,0,0,1,.3.08c.33.06,3.24.08,3.56.08l.88,0a.53.53,0,0,0,.39,0Z" style="fill:url(#t)"/><path d="M30.49,16.73l-.43.08a2.26,2.26,0,0,1-.73,0,1.27,1.27,0,0,1-.34,0,.39.39,0,0,0-.11,0h-.05a.08.08,0,0,1,.07,0,1.6,1.6,0,0,0,.39,0,3.93,3.93,0,0,0,.84,0l.54-.08A.5.5,0,0,1,30.49,16.73Z" style="fill:url(#u)"/><path d="M40.06,17.49h0c.09,0,0-.14,0-.22s-.07-.08-.11-.08.11,0,.11,0v-.24s0-.09,0-.11a1.14,1.14,0,0,0-.32,0H38.51l-3.84,0-1.31,0H32.11a9.88,9.88,0,0,1-1.21,0,10.28,10.28,0,0,0-1.25,0h-1c-.09,0,0,0-.05,0s0,.21,0,.21,0,.14.11.14c-.06,0-.11,0-.11.08s-.06.22.07.22a.11.11,0,0,0-.07.13q0,.09.09.09H29a7.7,7.7,0,0,0,1.27,0l1.31,0c.43,0,.91,0,1.34,0,.24,0,.43,0,.67,0h.6L38,17.7c.41,0,.84,0,1.25,0h.62s.2,0,.22,0-.07-.13-.07-.21Zm-.84.19h-1l-3.71-.06-2.18,0a19.61,19.61,0,0,0-2.3,0,6.25,6.25,0,0,1-1.06,0c-.06,0-.23,0-.28,0s0-.08,0-.11.09-.08.09-.08-.11,0-.13,0,0-.22,0-.25.19,0,.19,0,0,0-.06,0-.11,0-.11-.06a1,1,0,0,1,0-.24c.33,0,.69,0,1,0a7.85,7.85,0,0,1,1.18,0c.35,0,.69.05,1.06.05s.79,0,1.2,0c.74,0,1.47,0,2.22,0,.39,0,3.36,0,3.8,0H40c.09,0,.2,0,.26,0a.9.9,0,0,1,0,.22v.11a.22.22,0,0,0-.13,0,.56.56,0,0,1,.15.08v.16a.56.56,0,0,0-.21,0s.13,0,.15.05a.76.76,0,0,1,0,.25c-.39,0-.69,0-1-.08s.28.05,0,0Z" style="fill:url(#v)"/><path d="M39.87,16.86c-.37,0-.71,0-1.08,0l-3.68,0c-.35,0-.69,0-1.06,0H31.83c-.19,0-.34,0-.54,0a3.76,3.76,0,0,1-.58,0c-.32,0-.67,0-1,0s-.76,0-1.12,0h0c.71.08,1.44,0,2.2.06a3.39,3.39,0,0,0,.45,0,3.32,3.32,0,0,1,.54,0H34c.36,0,.73-.05,1.1,0l3.64.06c.32,0,.73,0,1.1,0Z" style="fill:#ffeee1;opacity:0.600000023841858;isolation:isolate"/><path d="M30,16.51s0-.3,0-.27h-.22c-.09,0-.15,0-.19.08s0,0-.07,0-.15-.05-.19,0c0-.08-.13-.06-.2,0s-.08,0-.1.06,0,.48,0,.73c0,.46,0,1,0,1.41s0,6.9,0,7.39,0,1,0,1.47,0,.89,0,1.35a1.46,1.46,0,0,1,0,.3c0,.06,0,.11,0,.17l.21,0h.65c.08,0,.06-.05.06-.13s0-.44,0-.65,0-.36,0-.52v-.73c0-.49-.05-1-.05-1.53V18.9a2.42,2.42,0,0,0,0-.38v-.25c0-.29,0-.59,0-.87a8.66,8.66,0,0,0,.07-.89Z" style="fill:url(#w)"/><path d="M30,16.29h-.22c-.09,0-.15,0-.19.08,0-.05,0-.05-.05-.05a1,1,0,0,0,.05.16c0,.11,0,.25,0,.33,0,.32,0,.65,0,1s0,.68,0,1c0,.68.13,7.37.11,8,0,.32,0,.68-.06,1s-.07.68-.11,1c0,.11-.07.27-.09.38h.37c.08,0,.06-.06.06-.14s0-.43,0-.65,0-.35,0-.52v-.73c0-.49-.05-1-.05-1.52V19a2.42,2.42,0,0,0,0-.38v-.24c0-.3,0-.6,0-.87a8.46,8.46,0,0,1,.05-.87C30,16.48,30,16.24,30,16.29Z" style="opacity:0.5;isolation:isolate;fill:url(#x)"/><path d="M29.78,29.19a6.6,6.6,0,0,0,.11-.81c0-.06,0-.11,0-.16v-.17a3.32,3.32,0,0,0,0,.41c0,.22-.07.43-.09.73Z" style="fill:url(#y)"/><path d="M29.76,27.35c0,.62-.08,1.22-.15,1.84h0c.07-.62.15-1.19.2-1.84,0-.36,0-.68,0-1a5.82,5.82,0,0,0,0-.59c0-.17,0-6.36,0-6.52,0-.76,0-1.52,0-2.28a5.09,5.09,0,0,0,0-.55v-.08h0v0a4.9,4.9,0,0,1,0,.54c0,.76,0,1.52,0,2.26,0,.16,0,6.32,0,6.49a4.87,4.87,0,0,0,0,.54,4.93,4.93,0,0,0-.05.54C29.76,26.94,29.78,27.16,29.76,27.35Z" style="fill:url(#z)"/><path d="M29.61,28.81c0,.11,0,.27,0,.38h0c0-.13,0-.3.06-.43a8.72,8.72,0,0,0,.07-1.14c0-.38,0-.76,0-1.14a4.43,4.43,0,0,1,0-.52c0-.16.06-6.33.08-6.49,0-.73,0-1.47-.1-2.2a2.44,2.44,0,0,1,0-.54,1.31,1.31,0,0,0,0-.28.13.13,0,0,0,0-.08c0-.08-.05-.08-.05-.05h0a.9.9,0,0,1,0,.43,1.51,1.51,0,0,0,0,.52c0,.35.15,7.9.1,8.26,0,.16-.06.32-.08.49a2.17,2.17,0,0,0-.05.54c0,.38.05.76,0,1.14A6.48,6.48,0,0,1,29.61,28.81Z" style="fill:url(#aa)"/><path d="M29.16,29.17a6.93,6.93,0,0,1,0-1.44,5.07,5.07,0,0,1,.11-.68c0-.11.06-.52.21-.52s.09,1.11.07,1.25c-.05.46-.09.95-.13,1.41h0a1.37,1.37,0,0,1,0-.27c0-.22,0-.41.06-.65a9.22,9.22,0,0,0,.09-1.17,3.62,3.62,0,0,0,0-.46c0-.16-.15-.11-.24,0a4.36,4.36,0,0,0-.26,1.19,6.4,6.4,0,0,0,.07,1.31Z" style="fill:url(#ab)"/><path d="M29.16,28.79a4.27,4.27,0,0,1,.15-1.39,2.18,2.18,0,0,0,.06-.22c.05-.08.09.08.09.11a3.32,3.32,0,0,1,0,.63,8.5,8.5,0,0,1-.21,1.19,3.06,3.06,0,0,1,0-1.38.11.11,0,0,1,.07-.11c.06,0,.08.13.08.16a4.08,4.08,0,0,1-.06.71.6.6,0,0,1-.09-.33c0-.08,0-.3.05-.35l0,.16c0,.08,0,.25,0,.3V28c-.07,0,0,.49,0,.27,0,0,0-.46,0-.46s-.07.44-.07.52.05.13.09.21a1,1,0,0,0,.06-.27,2,2,0,0,0,0-.54c0-.06,0-.14-.1-.11s-.09.16-.09.27a5.64,5.64,0,0,0,0,.65c0,.06,0,.66.11.66s.08-.44.1-.47a3,3,0,0,0,.09-.51,5.06,5.06,0,0,0,0-.55,1.09,1.09,0,0,0-.06-.43c-.09-.11-.15.22-.15.24a3.95,3.95,0,0,0-.11,1.63.26.26,0,0,0,0,.11h0A1.55,1.55,0,0,1,29.16,28.79Z" style="fill:url(#ac)"/><path d="M29.57,16.35a3.57,3.57,0,0,0,0,1c0,.35.08,7.85,0,8.2a3.51,3.51,0,0,1-.22,1,3.63,3.63,0,0,0-.28.95,2.36,2.36,0,0,1,.11-.44c.06-.16.11-.32.19-.49a3.72,3.72,0,0,0,.22-1c0-.17.06-6.33.06-6.52s-.06-1.52-.08-1.71,0-.38,0-.55a.93.93,0,0,1,0-.27.23.23,0,0,1,0-.11s0-.16,0-.1C29.5,16.64,29.57,16.32,29.57,16.35Z" style="fill:url(#ad)"/><path d="M29.29,16.35c-.05.7.13,2.39.08,3,0,.32-.06,6.6-.13,6.87s-.1.62-.15.95c0,0,.13-.79.15-.87.07-.32.13-6.65.15-7s-.08-2.55-.1-3Z" style="fill:url(#ae)"/><path d="M29.18,16.4c0,.52.09,2.2.09,2.72,0,.27,0,6.49-.09,6.73,0,.06-.19.63-.19.65s.19-.54.19-.59c.06-.28.09-6.52.09-6.82s-.09-1.66-.09-1.93v-.65c0-.06,0-.08,0-.11Z" style="fill:url(#af)"/><path d="M30,16.51s0-.3,0-.27h-.22c-.09,0-.15,0-.19.08s0,0-.07,0-.15-.05-.19,0c0-.08-.13-.06-.2,0s-.08,0-.1.06,0,.48,0,.73c0,.46,0,1,0,1.41s0,6.9,0,7.39,0,1,0,1.47,0,.89,0,1.35a1.46,1.46,0,0,1,0,.3c0,.06,0,.11,0,.17l.21,0h.65c.08,0,.06-.05.06-.13s0-.44,0-.65,0-.36,0-.52v-.73c0-.49-.05-1-.05-1.53V18.9a2.42,2.42,0,0,0,0-.38v-.25c0-.29,0-.59,0-.87a8.66,8.66,0,0,0,.07-.89Zm-.05.19a6.84,6.84,0,0,0,0,.9c0,.29,0,.62,0,.89s0,.65,0,1,0,6.68,0,7c0,.62,0,1.25,0,1.87,0,.28,0,.52,0,.79,0,.08-.71,0-.84,0a1.51,1.51,0,0,0,0-.3v-.43a6.43,6.43,0,0,1,0-.87c.06-.6,0-1.17,0-1.77,0-.3,0-6.57,0-6.82s0-.59,0-.87v-.87c0-.27,0-.59,0-.89h.23s0,.11,0,.11,0-.11.08-.08h.15s0,.08.05.08,0-.08,0-.08.06,0,.09,0,.25,0,.25,0a.69.69,0,0,1,0,.35Z" style="fill:url(#ag)"/><path d="M39.44,20.28v-.51c0-.22,0-.38,0-.6,0-.41,0-.81,0-1.22s0-.79,0-1.17v-.41c-.07,0-.13,0-.13.08s0-.05,0-.08a3.1,3.1,0,0,0-.43,0h-.24c-.06,0-.08,0-.08.08,0,.46,0,.95,0,1.38s0,.87,0,1.33,0,.87,0,1.36-.05,7,0,7.44c0,.25,0,.47,0,.68V29a2,2,0,0,0,0,.35H39a3,3,0,0,0,.52,0,12.43,12.43,0,0,0,0-1.25v-.85c-.08-.32-.1-6.7-.08-7S39.42,20.45,39.44,20.28Z" style="fill:url(#ah)"/><path d="M38.68,29.19c0-.3,0-.59,0-.87,0-.68,0-7.44,0-8.09s0-1.39,0-2c0-.35,0-.68.07-1s0-.54,0-.81h-.15c-.06,0-.09,0-.09.08,0,.46,0,.95,0,1.38s0,.87,0,1.33,0,.87,0,1.36,0,7,0,7.44c0,.25,0,.47,0,.68V29a2,2,0,0,0,0,.35h.15A.34.34,0,0,1,38.68,29.19Z" style="opacity:0.5;isolation:isolate;fill:url(#ai)"/><path d="M39.44,27.21c0-.3,0-6.65,0-6.95h0v-.52c0-.22,0-.38,0-.6,0-.4,0-.81,0-1.22s0-.79,0-1.17v-.4c-.07,0-.13,0-.13.08s0-.06,0-.08a.08.08,0,0,0-.07,0v1.22c0,.33,0,.68,0,1,0,.67,0,1.35,0,2s0,7.39,0,8c0,.24,0,.48,0,.73h.2a12.43,12.43,0,0,0,0-1.25C39.44,27.78,39.44,27.51,39.44,27.21Z" style="opacity:0.5;isolation:isolate;fill:url(#aj)"/><path d="M38.62,28.87v.43h0v-.51c0-.74,0-7.58,0-8.32,0-.38.09-.73.09-1.08s0-.74,0-1.12,0-.76,0-1.14v-.76h0v.76c0,.38,0,.76,0,1.14s0,.74,0,1.12-.07.76-.11,1.17C38.58,21.29,38.62,28.13,38.62,28.87Z" style="fill:url(#ak)"/><path d="M39,27.24c0,.35,0,.73-.06,1.08v.95h0c0-.24,0-.46,0-.73,0-.71.06-7.52.13-8.23a6.69,6.69,0,0,0,0-1.09c0-.35,0-.73-.07-1.08,0-.14,0-1.2,0-1.79h0c0,.54,0,1.54,0,1.65,0,.36,0,.68,0,1a5.73,5.73,0,0,1,0,1.09C39,20.5,39,26.91,39,27.24Z" style="fill:url(#al)"/><path d="M39.07,29.27h0V29c0-.41,0-.85,0-1.28s0-6.87.07-7.28c0-.22,0-.38,0-.6s0-.41,0-.6a10.87,10.87,0,0,1,0,1.28c0,.44,0,7,0,7.36s0,.84,0,1.28C39.05,29.19,39.07,29.22,39.07,29.27Z" style="fill:url(#am)"/><path d="M38.83,29.27v-1c0-.27.05-.54.07-.81,0-.52.08-7.2,0-7.74a5,5,0,0,1-.06-.76c0-.3,0-.6,0-.85,0,.3,0,.6,0,.85s0,.54.06.84c0,.54,0,7.2,0,7.74,0,.24-.07.49-.07.73v.82a.37.37,0,0,0,0,.21Z" style="fill:url(#an)"/><path d="M39.07,18.3c0-.32,0-.62-.06-.95s0-.65,0-1v0h0v0c0,.3,0,.62,0,.9s0,.62.05.89,0,.36.06.49,0,.3.07.35,0-.24,0-.29A1.56,1.56,0,0,0,39.07,18.3Z" style="fill:url(#ao)"/><path d="M39.35,16.37c0,.27,0,.52-.09.82a10.32,10.32,0,0,0-.06,1.11v.9a3.23,3.23,0,0,1,0-.44v-.54a8.14,8.14,0,0,1,.09-1.09,5.06,5.06,0,0,0,.06-.76Z" style="fill:url(#ap)"/><path d="M39.44,18.63c0,.13,0,.3-.07.4a10.09,10.09,0,0,0-.13,1.12c0,.16,0,6.44,0,6.63s0,.27,0,.38c0-.14,0-6.39,0-6.52s0-.38,0-.55A9.94,9.94,0,0,1,39.37,19c0-.08,0-.14.05-.25A.48.48,0,0,0,39.44,18.63Z" style="fill:url(#aq)"/><path d="M38.64,19.12c0-.22,0-.38,0-.6,0,0-.05-.25-.07-.38v.05c0,.11,0,.27,0,.3,0,.22,0,.44,0,.65s0,.41,0,.63a3.06,3.06,0,0,1-.05.32v.14c0-.14.05-.3.07-.46S38.64,19.33,38.64,19.12Z" style="fill:url(#ar)"/><path d="M39.44,20.28v-.51c0-.22,0-.38,0-.6,0-.41,0-.81,0-1.22s0-.79,0-1.17v-.41c-.07,0-.13,0-.13.08s0-.05,0-.08a3.1,3.1,0,0,0-.43,0h-.24c-.06,0-.08,0-.08.08,0,.46,0,.95,0,1.38s0,.87,0,1.33,0,.87,0,1.36-.05,7,0,7.44c0,.25,0,.47,0,.68V29a2,2,0,0,0,0,.35H39a3,3,0,0,0,.52,0,12.43,12.43,0,0,0,0-1.25v-.85c-.08-.32-.1-6.7-.08-7S39.42,20.45,39.44,20.28Zm-.22,9h-.39a.42.42,0,0,0-.19,0c-.09,0-.09,0-.09-.11,0-.38,0-.76,0-1.11a4.87,4.87,0,0,1,0-.55c0-.21,0-.4,0-.62v-7.8c0-.21,0-.38,0-.59s0-.33,0-.49,0-.38,0-.55V17c0-.16,0-.35,0-.49s.07,0,.09,0h.62s0,.09,0,.11a.29.29,0,0,0,0-.08s.06,0,.11,0v.44a2.42,2.42,0,0,1,0,.46v.95c0,.33,0,.63,0,.9s0,.62,0,.95v9.23c0-.08-.1-.08-.17-.08s.07,0,0,0Z" style="fill:url(#as)"/><polygon points="49.21 31.15 58.93 31.15 58.98 41.99 49.26 41.99 49.21 31.15" style="fill:#fff"/><path d="M59.91,42.57c0-.08,0-.14-.11-.22.09,0,.13,0,.11,0s0-.21-.08-.24c.08,0,.08,0,.06-.08s0-.17,0-.22a6,6,0,0,0-.73-.05c-.48,0-1,0-1.43,0s-3.57,0-4,0a5.61,5.61,0,0,1-.71,0h-.69a1.71,1.71,0,0,1-.39,0c-.23,0-.47,0-.71,0-.47,0-1-.11-1.44-.11a5,5,0,0,1-.67,0,2.26,2.26,0,0,0-.52,0s0,.14,0,.17a.76.76,0,0,0,0,.3v.13s0,.08,0,.11-.06.06.06.06c0,0-.08,0-.06.05s0,.14,0,.16l.26,0H49l1.25,0c.84,0,1.66,0,2.48.06s4.29.08,5.15.08h1.16c.22,0,.41,0,.63,0a1.14,1.14,0,0,1,.32,0c-.07,0-.11-.11-.11-.11Z" style="fill:url(#at)"/><path d="M59.87,42.54c-.35,0-.69,0-1,0-.91,0-4.38.06-5.28,0-.44,0-.87-.11-1.32-.14s-.9,0-1.33,0H49.55c-.09,0-.78,0-1.12,0h1.09c.46,0,.91,0,1.36,0s.91,0,1.34,0a10.94,10.94,0,0,1,1.38.14c.9.08,4.39,0,5.3,0a5.4,5.4,0,0,0,1,0Z" style="fill:url(#au)"/><path d="M59.87,42.11h0a11.65,11.65,0,0,1-1.32,0c-.86,0-4.31-.08-5.17-.16a7,7,0,0,0-1.29,0l-1.29.09c-.2,0-1.71,0-2.35,0v0c.6,0,2,0,2.22-.06.41,0,.79,0,1.22-.05a7.12,7.12,0,0,1,1.3-.06l1.2.09c.44,0,3.47,0,3.91.08a14.07,14.07,0,0,0,1.57-.08Z" style="fill:url(#av)"/><path d="M59.78,41.83h0a4.2,4.2,0,0,1-.71.11c-.52,0-3.62,0-4.14,0a11.58,11.58,0,0,1-1.44-.08,5.78,5.78,0,0,0-.73,0c-.24,0-.48,0-.71,0a13.13,13.13,0,0,1,1.53.06c.51,0,3.62,0,4.13,0s1,0,1.55,0a4.08,4.08,0,0,0,.59-.11A.07.07,0,0,0,59.78,41.83Z" style="fill:url(#aw)"/><path d="M59.93,42.24c-.34,0-.69,0-.75,0h-1c-.33,0-3.26-.06-3.58-.08a13,13,0,0,0-2-.06,4.87,4.87,0,0,1-.93.08c-.34,0-.69,0-1,0l1,0c.35,0,.67-.05,1-.08a16.43,16.43,0,0,1,2,.06c.3,0,3.19.08,3.49.08h1a2,2,0,0,0,.73,0Z" style="fill:url(#ax)"/><path d="M51.57,41.86l-.6.08a10.18,10.18,0,0,1-1.12.08l-1.12,0h0c.37,0,.73,0,1.08,0s.73,0,1.07-.05l.61-.08a1.19,1.19,0,0,0,.41-.08A2.11,2.11,0,0,1,51.57,41.86Z" style="fill:url(#ay)"/><path d="M51.51,41.75h-.67a9.93,9.93,0,0,1-1.32-.11c-.32,0-.64-.08-1-.11v0l1.08.11a9.75,9.75,0,0,0,1.34.08H52A2.9,2.9,0,0,1,51.51,41.75Z" style="fill:url(#az)"/><path d="M53.23,42.57h0l-.67-.11a6.61,6.61,0,0,0-.77,0,5.2,5.2,0,0,0-.69.06.26.26,0,0,0-.11,0h.06c.26,0,.54,0,.78,0a5.94,5.94,0,0,1,.73,0c.13,0,.26,0,.39,0a.44.44,0,0,0,.19,0S53.3,42.57,53.23,42.57Z" style="fill:url(#ba)"/><path d="M59.91,42.57c0-.08,0-.14-.11-.22.09,0,.13,0,.11,0s0-.21-.08-.24c.08,0,.08,0,.06-.08s0-.17,0-.22a6,6,0,0,0-.73-.05c-.48,0-1,0-1.43,0s-3.57,0-4,0a5.61,5.61,0,0,1-.71,0h-.69a1.71,1.71,0,0,1-.39,0c-.23,0-.47,0-.71,0-.47,0-1-.11-1.44-.11a5,5,0,0,1-.67,0,2.26,2.26,0,0,0-.52,0s0,.14,0,.17a.76.76,0,0,0,0,.3v.13s0,.08,0,.11-.06.06.06.06c0,0-.08,0-.06.05s0,.14,0,.16l.26,0H49l1.25,0c.84,0,1.66,0,2.48.06s4.29.08,5.15.08h1.16c.22,0,.41,0,.63,0a1.14,1.14,0,0,1,.32,0c-.07,0-.11-.11-.11-.11Zm-.17.11-4.72,0c-.73,0-1.47,0-2.22-.06s-1.42-.05-2.15-.05c-.37,0-.74,0-1.13,0a8.85,8.85,0,0,0-1,0l0-.13.3-.06a1.62,1.62,0,0,1-.3,0l.11,0s-.13,0-.09,0a.93.93,0,0,0,0-.24v-.27s0-.06,0-.09,0-.08.07-.08c.41,0,.84,0,1.25,0l1.31.11c.22,0,.43,0,.65,0a4.57,4.57,0,0,0,.65,0h.21a1.31,1.31,0,0,0,.28,0h.52l1.31,0c.84,0,4.27,0,5.11.08,0,.06,0,.11,0,.17s-.13,0-.13,0,.11,0,.13.06,0,.1,0,.21-.15,0-.15,0,.13,0,.11.08a.9.9,0,0,0,0,.22.25.25,0,0,1-.15.06Z" style="fill:url(#bb)"/><path d="M60,31.35h0c.09,0,0-.14,0-.22s-.06-.08-.1-.08.1,0,.1,0v-.24s0-.08,0-.11a1.14,1.14,0,0,0-.32,0H58.49l-3.84,0-1.31,0H52.09a8.22,8.22,0,0,1-1.21,0,10.36,10.36,0,0,0-1.25,0H48.58c-.09,0,0,0,0,0s0,.22,0,.22,0,.13.11.13c-.07,0-.11,0-.11.08s-.06.22.07.22a.12.12,0,0,0-.07.14c0,.05,0,.08.09.08H49a6,6,0,0,0,1.27,0l1.31,0c.43,0,.91,0,1.34,0l.67,0h.6l3.84.06c.4,0,.84,0,1.24,0h.63a.81.81,0,0,0,.22,0c0-.06-.07-.14-.07-.22Z" style="fill:url(#bc)"/><path d="M55.11,31.54l3.14,0c-.47-.06-3.55-.14-4-.11-.3,0-.6,0-.93,0s-.71-.06-1.05-.09-.65-.08-1-.13-.69-.06-1-.06-.69,0-1,0a3.2,3.2,0,0,0-.52,0l-.13,0v0c.07,0,.11,0,.11,0a2.91,2.91,0,0,1,.52,0l1,0c.35,0,.69,0,1,.06s.71.1,1.05.13.67.08,1,.08l.9,0a7.89,7.89,0,0,1,.84.05Z" style="fill:url(#bd)"/><path d="M60,31.46h-.11a6.76,6.76,0,0,0-1.27-.06,5.62,5.62,0,0,1-.58,0c-.22,0-3,0-3.23,0s-.41,0-.65-.05h-.69c-.88,0-1.72-.14-2.61-.22-.43,0-.88,0-1.31,0a4.83,4.83,0,0,0-1.08.11h0a7.56,7.56,0,0,1,1.06-.08,9.55,9.55,0,0,1,1.31,0c.89.05,1.73.21,2.61.24.39,0,.78,0,1.21,0h3.23a4.28,4.28,0,0,0,.62,0,11.29,11.29,0,0,1,1.3,0,.22.22,0,0,0,.19,0Z" style="fill:url(#be)"/><path d="M60.06,31.27h0a2.14,2.14,0,0,0-.62,0,5.4,5.4,0,0,1-1.27,0c-.18,0-2.93-.06-3.15-.09a3.53,3.53,0,0,0-.65,0l-1.31,0a10.49,10.49,0,0,1-1.25-.08c-.41-.05-.84-.05-1.25-.14-.2,0-.35-.08-.54-.1a1.75,1.75,0,0,0-.56,0,4.43,4.43,0,0,1-.63,0h-.36v0h.34c.22,0,.41,0,.63,0a3.21,3.21,0,0,1,.62,0l.56.11a2.11,2.11,0,0,0,.61.06l.64.08a11.69,11.69,0,0,0,1.32.08l1.31,0a4,4,0,0,1,.61,0c.21,0,3,.05,3.19.08a9.56,9.56,0,0,0,1.18-.05,3.63,3.63,0,0,1,.58,0Z" style="fill:url(#bf)"/><path d="M51.57,30.67h-.21c-.54,0-1.06.11-1.6.11a3.21,3.21,0,0,1-.77-.06l-.41-.08v0l.41.08c.28,0,.56.06.79.06.56,0,1.1-.09,1.64-.14Z" style="fill:url(#bg)"/><path d="M54.31,30.89A5.17,5.17,0,0,0,53,30.64h-.16a.61.61,0,0,1,.22,0,5.63,5.63,0,0,1,.75.11c.11,0,.61.08.61.22s-1.3.08-1.45.08c-.53-.06-1.07-.08-1.61-.14-.11,0-.52-.05-.26-.13a2.23,2.23,0,0,1,.73-.11,6.18,6.18,0,0,1,1.6.13c.06,0,.15,0,.23.06s-.1.08-.13.08a5.23,5.23,0,0,1-.69,0,11.87,11.87,0,0,1-1.35-.22,3.87,3.87,0,0,1,1.59,0,.2.2,0,0,1,.13.06c0,.08-.15.08-.21.08a7.91,7.91,0,0,1-.84-.06.39.39,0,0,1,.34-.08,1,1,0,0,1,.41.06l-.22.05a.58.58,0,0,1-.32,0h.35s-.59,0-.31.06c.07,0,.56.05.54-.06s-.47,0-.58,0a.41.41,0,0,0-.24.08,1.14,1.14,0,0,0,.33.06c.21,0,.43,0,.64,0s.2-.05.13-.11-.21-.08-.3-.08a6.87,6.87,0,0,0-.8-.05,2.55,2.55,0,0,0-.73.11,5,5,0,0,1,.56.11,2.72,2.72,0,0,0,.63.08c.21,0,.43,0,.64,0a1,1,0,0,0,.48-.08c.1-.08-.24-.13-.28-.16a4.62,4.62,0,0,0-.63-.11,2.37,2.37,0,0,0-.45,0h-.58a.66.66,0,0,0-.24,0l-.43.08c-.13.06-.13.14,0,.17a5.22,5.22,0,0,0,.58,0c.26,0,.48,0,.74.05a10.2,10.2,0,0,0,1.35.09,3.44,3.44,0,0,0,.56,0C54.55,31.08,54.46,30.94,54.31,30.89Z" style="fill:url(#bh)"/><path d="M60,31.13c-.24,0-.45,0-.69,0a6.19,6.19,0,0,1-1.21-.05c-.38-.09-3.34-.06-3.72-.22-.05,0-.39-.14-.69-.19h-.07c.09,0,.2,0,.2.05a3,3,0,0,1,.58.22c.36.14,3.32.14,3.73.22.21,0,.41,0,.62.08a4.43,4.43,0,0,0,.63,0,1.62,1.62,0,0,1,.62-.11Z" style="fill:url(#bi)"/><path d="M60,30.86c-.56,0-1.1.06-1.64,0-.34,0-3.27-.08-3.62-.14,0,0-.36-.05-.64-.11h-.09a5.88,5.88,0,0,0,.69.11c.37.06,3.32.14,3.71.14.13,0,1,0,1.59,0Z" style="fill:url(#bj)"/><path d="M60,30.78c-.45,0-.9,0-1.36,0-.3,0-3.16,0-3.42-.08L55,30.64h-.09a1.61,1.61,0,0,1,.3.08c.33.06,3.24.09,3.56.09s.58,0,.88,0a.53.53,0,0,0,.39,0Z" style="fill:url(#bk)"/><path d="M50.47,30.59l-.43.08a2.63,2.63,0,0,1-.73,0,1.43,1.43,0,0,1-.35-.06l-.1,0h0a.1.1,0,0,1,.07,0,1.59,1.59,0,0,0,.39.06,5.89,5.89,0,0,0,.84,0l.54-.08A.34.34,0,0,1,50.47,30.59Z" style="fill:url(#bl)"/><path d="M60,31.35h0c.09,0,0-.14,0-.22s-.06-.08-.1-.08.1,0,.1,0v-.24s0-.08,0-.11a1.14,1.14,0,0,0-.32,0H58.49l-3.84,0-1.31,0H52.09a8.22,8.22,0,0,1-1.21,0,10.36,10.36,0,0,0-1.25,0H48.58c-.09,0,0,0,0,0s0,.22,0,.22,0,.13.11.13c-.07,0-.11,0-.11.08s-.06.22.07.22a.12.12,0,0,0-.07.14c0,.05,0,.08.09.08H49a6,6,0,0,0,1.27,0l1.31,0c.43,0,.91,0,1.34,0l.67,0h.6l3.84.06c.4,0,.84,0,1.24,0h.63a.81.81,0,0,0,.22,0c0-.06-.07-.14-.07-.22Zm-.84.19h-1l-3.71-.05c-.71,0-1.44,0-2.18,0a22.06,22.06,0,0,0-2.3,0,6.25,6.25,0,0,1-1.06,0c-.06,0-.24,0-.28,0s0-.08,0-.11.09-.08.09-.08-.11,0-.13,0,0-.22,0-.24.19,0,.19,0,0,0-.06,0-.11,0-.11,0a1,1,0,0,1,0-.25c.32,0,.69,0,1,0a9.55,9.55,0,0,1,1.19,0c.34,0,.69,0,1,0l1.21,0c.73,0,1.47,0,2.22,0,.39,0,3.36,0,3.79,0h.82a1.12,1.12,0,0,0,.26,0,1,1,0,0,1,0,.22V31a.21.21,0,0,0-.13,0l.15.08v.17a.82.82,0,0,0-.21,0s.13,0,.15.06a.65.65,0,0,1,0,.24c-.39,0-.69,0-1-.08s.28.05,0,0Z" style="fill:url(#bm)"/><path d="M59.85,30.72c-.37,0-.71,0-1.08,0l-3.69-.06c-.34,0-.69,0-1,0H51.81c-.2,0-.35,0-.54,0a5.62,5.62,0,0,1-.58,0c-.33,0-.67,0-1,0s-.76,0-1.12,0h0c.71.08,1.44,0,2.19.05a2.42,2.42,0,0,0,.46,0,5,5,0,0,1,.54,0H54c.36,0,.73,0,1.1,0l3.64.05c.32,0,.73,0,1.1,0Z" style="fill:#ffeee1;opacity:0.600000023841858;isolation:isolate"/><path d="M50,30.37s0-.3,0-.27h-.21c-.09,0-.15,0-.2.08s0,0-.06,0-.15,0-.19,0c0-.08-.13-.05-.2,0s-.08,0-.11.06a5.94,5.94,0,0,0,0,.73,13.27,13.27,0,0,0,0,1.41c0,.47,0,6.9,0,7.39s0,1,0,1.47,0,.9,0,1.36a1.56,1.56,0,0,1,0,.3c0,.05,0,.1,0,.16l.22,0h.65c.08,0,.06-.06.06-.14s0-.43,0-.65,0-.35,0-.52V41c0-.49,0-1,0-1.52V32.76a2.42,2.42,0,0,0,0-.38v-.24c0-.3,0-.6,0-.87s0-.6.07-.9Z" style="fill:url(#bn)"/><path d="M49.93,30.15h-.21c-.09,0-.15,0-.2.09,0-.06,0-.06,0-.06s0,.11,0,.16,0,.25,0,.33c0,.33,0,.65,0,1s0,.67,0,1c0,.68.13,7.36.11,8,0,.33,0,.68-.07,1s-.06.67-.1,1c0,.11-.07.27-.09.38h.37c.08,0,.06,0,.06-.14s0-.43,0-.65,0-.35,0-.51v-.74c0-.49,0-1,0-1.52V32.82a2.36,2.36,0,0,0,0-.38v-.25c0-.3,0-.6,0-.87s0-.6,0-.87C50,30.34,50,30.1,49.93,30.15Z" style="opacity:0.5;isolation:isolate;fill:url(#bo)"/><path d="M49.76,43.06c0-.28.09-.52.11-.82,0-.05,0-.11,0-.16v-.16a3,3,0,0,0,0,.4c0,.22-.07.44-.09.74Z" style="fill:url(#bp)"/><path d="M49.74,41.21c0,.62-.09,1.22-.15,1.85h0c.07-.63.15-1.2.19-1.85,0-.35,0-.68,0-1s0-.38,0-.6,0-6.36,0-6.52c0-.76,0-1.52,0-2.28a4.9,4.9,0,0,0,0-.54v-.09h0v0a4.9,4.9,0,0,1,0,.54c0,.77,0,1.53,0,2.26,0,.16,0,6.33,0,6.49a4.87,4.87,0,0,0,0,.54,3.41,3.41,0,0,0,0,.55C49.74,40.8,49.76,41,49.74,41.21Z" style="fill:url(#bq)"/><path d="M49.59,42.68c0,.1,0,.27,0,.38h0l.06-.44a8.72,8.72,0,0,0,.07-1.14c0-.38,0-.76,0-1.14a4.61,4.61,0,0,1,0-.52c0-.16.06-6.32.08-6.49,0-.73,0-1.46-.1-2.2a2,2,0,0,1,0-.54,1.21,1.21,0,0,0,0-.27.11.11,0,0,0,0-.08c0-.09,0-.09,0-.06h0a.82.82,0,0,1,0,.44,2.18,2.18,0,0,0,0,.51c.05.36.15,7.91.11,8.26,0,.16-.06.33-.08.49a2.21,2.21,0,0,0,0,.54c0,.38,0,.76,0,1.14A5.79,5.79,0,0,1,49.59,42.68Z" style="fill:url(#br)"/><path d="M49.14,43a6.93,6.93,0,0,1,0-1.44c0-.25.06-.44.1-.68s.07-.52.22-.52.09,1.12.06,1.25l-.12,1.42h0a1.42,1.42,0,0,1,0-.28c0-.21,0-.4.06-.65A9.22,9.22,0,0,0,49.59,41a3.62,3.62,0,0,0,0-.46c0-.16-.15-.11-.24,0a4.43,4.43,0,0,0-.26,1.2,6.34,6.34,0,0,0,.07,1.3Z" style="fill:url(#bs)"/><path d="M49.14,42.65a4.34,4.34,0,0,1,.15-1.39,1.91,1.91,0,0,0,.06-.21c0-.09.09.08.09.1a3.32,3.32,0,0,1,0,.63A6.92,6.92,0,0,1,49.24,43a3.21,3.21,0,0,1,0-1.38c0-.06,0-.08.07-.11s.08.14.08.16a4,4,0,0,1-.06.71.53.53,0,0,1-.09-.33.81.81,0,0,1,.05-.35l0,.16c0,.09,0,.25,0,.3v-.3c-.07,0,0,.49,0,.28s0-.47,0-.47-.07.44-.07.52a.41.41,0,0,0,.09.22,1.07,1.07,0,0,0,.06-.27,2,2,0,0,0,0-.55c0-.05,0-.13-.1-.11s-.09.17-.09.28a5.49,5.49,0,0,0,0,.65s0,.65.1.65.09-.44.11-.46a3.34,3.34,0,0,0,.09-.52,4.87,4.87,0,0,0,0-.54,1.12,1.12,0,0,0-.06-.44c-.09-.11-.16.22-.16.25a4.59,4.59,0,0,0-.1.51,3.51,3.51,0,0,0,0,1.12.31.31,0,0,0,0,.11h0A1.62,1.62,0,0,1,49.14,42.65Z" style="fill:url(#bt)"/><path d="M49.55,30.21a4,4,0,0,0,0,1c0,.35.09,7.85,0,8.2a3.14,3.14,0,0,1-.21,1,3.29,3.29,0,0,0-.28.95,2.36,2.36,0,0,1,.11-.44,3.19,3.19,0,0,1,.19-.48,4.34,4.34,0,0,0,.22-1c0-.16.06-6.33.06-6.52s-.06-1.52-.09-1.71,0-.38,0-.54a1.32,1.32,0,0,1,0-.27s0-.09,0-.11,0-.17,0-.11C49.48,30.51,49.55,30.18,49.55,30.21Z" style="fill:url(#bu)"/><path d="M49.27,30.21c-.05.71.13,2.39.08,3,0,.33-.06,6.6-.13,6.87s-.1.63-.15,1c0,0,.13-.78.15-.87.07-.32.13-6.65.15-7s-.08-2.55-.1-3Z" style="fill:url(#bv)"/><path d="M49.16,30.26c0,.52.08,2.2.08,2.72,0,.27,0,6.49-.08,6.74,0,.05-.2.62-.2.65s.2-.55.2-.6c.06-.27.08-6.52.08-6.82s-.08-1.65-.08-1.93v-.65a.11.11,0,0,0,0-.11Z" style="fill:url(#bw)"/><path d="M50,30.37s0-.3,0-.27h-.21c-.09,0-.15,0-.2.08s0,0-.06,0-.15,0-.19,0c0-.08-.13-.05-.2,0s-.08,0-.11.06a5.94,5.94,0,0,0,0,.73,13.27,13.27,0,0,0,0,1.41c0,.47,0,6.9,0,7.39s0,1,0,1.47,0,.9,0,1.36a1.56,1.56,0,0,1,0,.3c0,.05,0,.1,0,.16l.22,0h.65c.08,0,.06-.06.06-.14s0-.43,0-.65,0-.35,0-.52V41c0-.49,0-1,0-1.52V32.76a2.42,2.42,0,0,0,0-.38v-.24c0-.3,0-.6,0-.87s0-.6.07-.9Zm-.05.19a6.87,6.87,0,0,0,0,.9c0,.3,0,.62,0,.89s0,.66,0,1,0,6.68,0,7c0,.63,0,1.25,0,1.88,0,.27,0,.51,0,.78,0,.09-.71,0-.84,0a1.51,1.51,0,0,0,0-.3v-.43a6.43,6.43,0,0,1,0-.87c.06-.6,0-1.17,0-1.77,0-.3,0-6.57,0-6.81s0-.6,0-.87v-.87c0-.27,0-.6,0-.9h.23s0,.11,0,.11,0-.11.09-.08h.15s0,.08,0,.08,0-.08,0-.08a.09.09,0,0,1,.08,0c.05,0,.26,0,.26,0a1,1,0,0,1,0,.35Z" style="fill:url(#bx)"/><path d="M59.42,34.15v-.52c0-.22,0-.38,0-.6,0-.4,0-.81,0-1.22s0-.79,0-1.17v-.4c-.07,0-.13,0-.13.08s0-.06,0-.08a2.08,2.08,0,0,0-.43,0h-.24c-.06,0-.08,0-.08.08,0,.46,0,.95,0,1.39s0,.86,0,1.33,0,.87,0,1.35,0,7,0,7.45a5.31,5.31,0,0,1,0,.68v.35a1.37,1.37,0,0,0,0,.35H59a2.91,2.91,0,0,0,.52,0,12.43,12.43,0,0,0,0-1.25v-.84c-.08-.33-.11-6.71-.08-7S59.39,34.31,59.42,34.15Z" style="fill:url(#by)"/><path d="M58.66,43.06c0-.3,0-.6,0-.87,0-.68,0-7.45,0-8.1s0-1.38,0-2c0-.36,0-.68.07-1s0-.54,0-.81h-.15c-.07,0-.09,0-.09.08,0,.46,0,.95,0,1.39s0,.86,0,1.33,0,.87,0,1.35,0,7,0,7.45c0,.24,0,.46,0,.68v.35a2,2,0,0,0,0,.35h.15A.3.3,0,0,1,58.66,43.06Z" style="opacity:0.5;isolation:isolate;fill:url(#bz)"/><path d="M59.42,41.07c0-.3,0-6.65,0-7h0V33.6c0-.21,0-.38,0-.59,0-.41,0-.82,0-1.23s0-.78,0-1.16v-.41c-.07,0-.13,0-.13.08s0-.05,0-.08a.08.08,0,0,0-.07,0V31.4c0,.33,0,.68,0,1,0,.68,0,1.36,0,2s0,7.38,0,8c0,.24,0,.49,0,.73h.2a12.43,12.43,0,0,0,0-1.25C59.42,41.64,59.42,41.37,59.42,41.07Z" style="opacity:0.5;isolation:isolate;fill:url(#ca)"/><path d="M58.6,42.73v.43h0v-.51c0-.73,0-7.58,0-8.31,0-.38.09-.74.09-1.09s0-.73,0-1.11,0-.76,0-1.14v-.76h0V31c0,.38,0,.76,0,1.14s0,.73,0,1.11-.06.76-.1,1.17C58.55,35.15,58.6,42,58.6,42.73Z" style="fill:url(#cb)"/><path d="M58.94,41.1c0,.35,0,.73-.06,1.09v1h0c0-.25,0-.46,0-.74,0-.7.06-7.52.13-8.23a5.64,5.64,0,0,0,0-1.08c0-.36,0-.74-.06-1.09,0-.13,0-1.19,0-1.79h0c0,.54,0,1.55,0,1.66,0,.35,0,.67,0,1A5.58,5.58,0,0,1,59,34C59,34.36,59,40.77,58.94,41.1Z" style="fill:url(#cc)"/><path d="M59.05,43.14h0v-.3c0-.41,0-.84,0-1.28s0-6.87.06-7.28a3.89,3.89,0,0,0,0-.59c0-.22,0-.41,0-.6,0,.43,0,.84,0,1.27s0,7,0,7.37,0,.84,0,1.27C59,43.06,59.05,43.08,59.05,43.14Z" style="fill:url(#cd)"/><path d="M58.81,43.14v-1c0-.28,0-.55.07-.82,0-.52.08-7.2,0-7.74a4.87,4.87,0,0,1-.06-.76c0-.3,0-.6,0-.84,0,.3,0,.59,0,.84s0,.54.06.84c0,.54,0,7.2,0,7.74,0,.25-.07.49-.07.74v.81a.41.41,0,0,0,0,.22Z" style="fill:url(#ce)"/><path d="M59.05,32.16c0-.32,0-.62-.07-.95s0-.65,0-.95v-.05h0v.05c0,.3,0,.63,0,.9a8.72,8.72,0,0,0,0,.9c0,.16,0,.35.06.48s0,.3.07.36,0-.25,0-.3A2.1,2.1,0,0,0,59.05,32.16Z" style="fill:url(#cf)"/><path d="M59.33,30.24c0,.27,0,.51-.09.81a10.32,10.32,0,0,0-.06,1.11v.9a3.08,3.08,0,0,1,0-.43v-.55A9.81,9.81,0,0,1,59.26,31a4.21,4.21,0,0,0,.07-.76Z" style="fill:url(#cg)"/><path d="M59.42,32.49c0,.14-.05.3-.07.41A9.64,9.64,0,0,0,59.22,34c0,.16,0,6.44,0,6.63s0,.27,0,.38c0-.14,0-6.38,0-6.52s0-.38,0-.54a9.83,9.83,0,0,1,.13-1.09c0-.08,0-.14,0-.24A.36.36,0,0,0,59.42,32.49Z" style="fill:url(#ch)"/><path d="M58.62,33c0-.22,0-.38,0-.6,0,0,0-.24-.07-.38v.06c0,.1,0,.27,0,.29a4.89,4.89,0,0,1,.05.66c0,.21,0,.4,0,.62s0,.22,0,.33v.13c0-.13,0-.3.07-.46S58.62,33.2,58.62,33Z" style="fill:url(#ci)"/><path d="M59.42,34.15v-.52c0-.22,0-.38,0-.6,0-.4,0-.81,0-1.22s0-.79,0-1.17v-.4c-.07,0-.13,0-.13.08s0-.06,0-.08a2.08,2.08,0,0,0-.43,0h-.24c-.06,0-.08,0-.08.08,0,.46,0,.95,0,1.39s0,.86,0,1.33,0,.87,0,1.35,0,7,0,7.45a5.31,5.31,0,0,1,0,.68v.35a1.37,1.37,0,0,0,0,.35H59a2.91,2.91,0,0,0,.52,0,12.43,12.43,0,0,0,0-1.25v-.84c-.08-.33-.11-6.71-.08-7S59.39,34.31,59.42,34.15Zm-.22,9h-.39a.42.42,0,0,0-.19,0c-.09,0-.09,0-.09-.11,0-.38,0-.76,0-1.11a4.61,4.61,0,0,1,0-.54c0-.22,0-.41,0-.63V33c0-.22,0-.38,0-.6s0-.33,0-.49,0-.38,0-.54v-.55c0-.16,0-.35,0-.49s.07,0,.09,0h.62a.23.23,0,0,0,0,.11.3.3,0,0,0,0-.09.15.15,0,0,1,.1,0v.43a3.46,3.46,0,0,1,0,.46v.95c0,.33,0,.63,0,.9s0,.63,0,.95v9.24a.15.15,0,0,0-.17-.09c-.09,0,.06,0,0,0Z" style="fill:url(#cj)"/><polygon points="70.75 46.3 80.47 46.3 80.51 57.14 70.79 57.14 70.75 46.3" style="fill:#fff"/><path d="M81.44,57.72c0-.09,0-.14-.1-.22.08,0,.12,0,.1,0s0-.22-.08-.24c.08,0,.08,0,.06-.08s0-.17,0-.22a6,6,0,0,0-.73-.06c-.48,0-1,0-1.42,0s-3.58,0-4,0c-.24,0-.48,0-.72,0h-.69a1.67,1.67,0,0,1-.38,0c-.24,0-.48,0-.71,0-.48,0-1-.11-1.45-.11a5,5,0,0,1-.67,0,2.17,2.17,0,0,0-.51,0s0,.14,0,.17a.76.76,0,0,0,0,.3v.13s0,.08,0,.11-.06,0,.07,0c0,0-.09,0-.07.06s0,.13,0,.16.15,0,.26,0h.3l1.25,0c.84,0,1.66,0,2.48.06s4.29.08,5.15.08H80.6l.63,0a1.71,1.71,0,0,1,.32,0c-.06,0-.11-.1-.11-.1Z" style="fill:url(#ck)"/><path d="M81.4,57.69c-.34,0-.69,0-1,0-.91,0-4.38.06-5.28,0-.43,0-.86-.1-1.32-.13s-.9,0-1.33,0H71.08c-.09,0-.78,0-1.12,0h1.1c.45,0,.9,0,1.35,0s.91,0,1.34,0a12.87,12.87,0,0,1,1.38.13c.9.09,4.4,0,5.3,0a5.42,5.42,0,0,0,1,0Z" style="fill:url(#cl)"/><path d="M81.4,57.25h0a9.58,9.58,0,0,1-1.31.06c-.87,0-4.31-.08-5.18-.16a7,7,0,0,0-1.29,0l-1.29.08c-.2,0-1.7.06-2.35.06v0c.6,0,2,0,2.22-.06.41,0,.8,0,1.23-.05a7,7,0,0,1,1.29-.06l1.21.08c.43,0,3.47.06,3.9.09a12.52,12.52,0,0,0,1.57-.09Z" style="fill:url(#cm)"/><path d="M81.31,57h0a5.52,5.52,0,0,1-.71.11c-.51,0-3.62,0-4.13,0A14.09,14.09,0,0,1,75,57a5.78,5.78,0,0,0-.73,0c-.24,0-.48,0-.71,0,.51,0,1,0,1.53.05s3.62.06,4.14.06,1,0,1.55,0c.19,0,.38-.06.58-.11C81.36,57,81.34,57,81.31,57Z" style="fill:url(#cn)"/><path d="M81.46,57.39c-.34,0-.68,0-.75,0h-1c-.32,0-3.25-.06-3.58-.08a10.84,10.84,0,0,0-2-.06,4.87,4.87,0,0,1-.93.08c-.34,0-.69,0-1,0l1,0c.35,0,.67,0,1-.08a14.56,14.56,0,0,1,2,.06c.3,0,3.19.08,3.49.08h1a2.64,2.64,0,0,0,.73,0Z" style="fill:url(#co)"/><path d="M73.1,57l-.6.08a10.18,10.18,0,0,1-1.12.08l-1.12,0h0c.37,0,.73.05,1.08,0s.73,0,1.08-.05L73,57a1.19,1.19,0,0,0,.41-.08A2.11,2.11,0,0,1,73.1,57Z" style="fill:url(#cp)"/><path d="M73,56.9h-.67a9.65,9.65,0,0,1-1.31-.11c-.33,0-.65-.08-1-.11v0l1.07.11a11.76,11.76,0,0,0,1.34.08h1.08A3,3,0,0,1,73,56.9Z" style="fill:url(#cq)"/><path d="M74.76,57.72h0c-.23,0-.43-.09-.67-.11a6.52,6.52,0,0,0-.77,0c-.24,0-.45,0-.69.05a.18.18,0,0,0-.11,0h.07a7.09,7.09,0,0,1,.77,0c.26,0,.48,0,.73,0l.39.06a.46.46,0,0,0,.2,0S74.83,57.72,74.76,57.72Z" style="fill:url(#cr)"/><path d="M81.44,57.72c0-.09,0-.14-.1-.22.08,0,.12,0,.1,0s0-.22-.08-.24c.08,0,.08,0,.06-.08s0-.17,0-.22a6,6,0,0,0-.73-.06c-.48,0-1,0-1.42,0s-3.58,0-4,0c-.24,0-.48,0-.72,0h-.69a1.67,1.67,0,0,1-.38,0c-.24,0-.48,0-.71,0-.48,0-1-.11-1.45-.11a5,5,0,0,1-.67,0,2.17,2.17,0,0,0-.51,0s0,.14,0,.17a.76.76,0,0,0,0,.3v.13s0,.08,0,.11-.06,0,.07,0c0,0-.09,0-.07.06s0,.13,0,.16.15,0,.26,0h.3l1.25,0c.84,0,1.66,0,2.48.06s4.29.08,5.15.08H80.6l.63,0a1.71,1.71,0,0,1,.32,0c-.06,0-.11-.1-.11-.1Zm-.17.1-4.72,0c-.73,0-1.46,0-2.22-.06s-1.42-.05-2.15-.05c-.37,0-.74,0-1.12,0a6,6,0,0,0-1,0l0-.13.31-.06a1.2,1.2,0,0,1-.31,0l.11,0s-.13,0-.08,0a.94.94,0,0,0,0-.24v-.28s0,0,0-.08,0-.08.06-.08c.41,0,.84,0,1.25,0l1.32.11.64,0c.22,0,.41,0,.65,0h.21a.88.88,0,0,0,.28,0H75l1.32,0c.84,0,4.26,0,5.1.08,0,.06,0,.11,0,.17s-.13,0-.13.05.11,0,.13,0,0,.11,0,.22-.15,0-.15,0,.13,0,.11.08a.9.9,0,0,0,0,.22.23.23,0,0,1-.15,0Z" style="fill:url(#cs)"/><path d="M81.57,46.5h0c.09,0,.05-.14.05-.22s-.07-.08-.11-.08.11,0,.11,0v-.24s0-.08,0-.11a1.14,1.14,0,0,0-.32,0H80l-3.83,0-1.32,0H73.62a8.22,8.22,0,0,1-1.21,0,10.33,10.33,0,0,0-1.25,0h-1c-.09,0,0,0,0,0S70,46,70,46s0,.13.11.13c-.06,0-.11,0-.11.08s-.06.22.07.22c0,0-.09.08-.07.14s0,.08.09.08h.39a7.7,7.7,0,0,0,1.27,0l1.31,0c.43,0,.91,0,1.34,0,.24,0,.43,0,.67,0h.6l3.84.06c.41,0,.84,0,1.25,0h.62a.81.81,0,0,0,.22,0c0-.06-.07-.14-.07-.22Z" style="fill:url(#ct)"/><path d="M76.64,46.69l3.14,0c-.47-.06-3.55-.14-4-.11l-.92,0c-.35,0-.72-.05-1.06-.08s-.65-.08-1-.13-.69-.06-1-.06-.69,0-1,0a3,3,0,0,0-.51,0l-.13,0v0c.06,0,.1,0,.1,0a4.43,4.43,0,0,1,.52,0c.35,0,.69,0,1,0s.69,0,1,0,.71.11,1,.14.67.08,1,.08l.9,0a7.91,7.91,0,0,1,.84.06Z" style="fill:url(#cu)"/><path d="M81.57,46.61h-.11a6.72,6.72,0,0,0-1.27-.06,5.72,5.72,0,0,1-.58,0c-.21,0-3,0-3.23,0a4.76,4.76,0,0,1-.65-.06H75c-.88,0-1.72-.13-2.6-.21-.44,0-.89,0-1.32,0a4.83,4.83,0,0,0-1.08.11h0a6.31,6.31,0,0,1,1.06-.08,11.45,11.45,0,0,1,1.31,0c.89.06,1.73.22,2.61.25.39,0,.78,0,1.21,0h3.23a4.42,4.42,0,0,0,.63,0,11.11,11.11,0,0,1,1.29,0,.26.26,0,0,0,.19,0Z" style="fill:url(#cv)"/><path d="M81.59,46.42h0a2.14,2.14,0,0,0-.62,0,4.91,4.91,0,0,1-1.27,0c-.17,0-2.93,0-3.15-.08a3.42,3.42,0,0,0-.64,0l-1.32,0a10.49,10.49,0,0,1-1.25-.08c-.41-.06-.84-.06-1.25-.14-.19,0-.34-.08-.54-.11a2.62,2.62,0,0,0-.56,0c-.21,0-.41,0-.62,0H70v0h.35a4.22,4.22,0,0,0,.62,0,2.22,2.22,0,0,1,.63,0l.56.11a2.39,2.39,0,0,0,.6,0l.65.09a11.51,11.51,0,0,0,1.31.08l1.31,0a4,4,0,0,1,.61,0c.21,0,3,0,3.19.08A8,8,0,0,0,81,46.44a5.43,5.43,0,0,1,.58,0Z" style="fill:url(#cw)"/><path d="M73.1,45.82h-.21c-.54,0-1.06.11-1.6.11a3.21,3.21,0,0,1-.77-.06l-.41-.08v0l.41.08a8,8,0,0,0,.8.06c.56,0,1.09-.09,1.63-.14Z" style="fill:url(#cx)"/><path d="M75.84,46a5.17,5.17,0,0,0-1.29-.25H74.4a.56.56,0,0,1,.21,0,6,6,0,0,1,.76.11c.1,0,.6.08.6.22s-1.29.08-1.44.08c-.54-.06-1.08-.08-1.62-.14-.11,0-.52-.05-.26-.13a2.23,2.23,0,0,1,.73-.11A6.18,6.18,0,0,1,75,46c.06,0,.15,0,.24.06s-.11.08-.13.08a5.39,5.39,0,0,1-.69,0A11.69,11.69,0,0,1,73,45.93a3.87,3.87,0,0,1,1.59,0,.18.18,0,0,1,.13.06c0,.08-.15.08-.21.08a7.91,7.91,0,0,1-.84-.06.39.39,0,0,1,.34-.08,1,1,0,0,1,.41.06c-.06,0-.13,0-.21,0a.61.61,0,0,1-.33,0h.35s-.58,0-.3.06c.06,0,.56.05.53-.06s-.47,0-.58,0a.36.36,0,0,0-.23.08,1,1,0,0,0,.32.05,4.64,4.64,0,0,0,.65,0c.06,0,.19-.05.12-.11s-.21-.08-.3-.08a6.7,6.7,0,0,0-.79,0A2.57,2.57,0,0,0,73,46s.52.08.56.1a2.28,2.28,0,0,0,.63.09c.21,0,.43,0,.64,0a1,1,0,0,0,.48-.08C75.37,46,75,46,75,45.93a4.62,4.62,0,0,0-.63-.11,2.37,2.37,0,0,0-.45,0h-.58a.66.66,0,0,0-.24,0l-.43.08c-.13.06-.13.14,0,.16a3.68,3.68,0,0,0,.58.06c.26,0,.48,0,.74.05a10.19,10.19,0,0,0,1.35.08,5.43,5.43,0,0,0,.57,0C76.08,46.23,76,46.09,75.84,46Z" style="fill:url(#cy)"/><path d="M81.57,46.28c-.23,0-.45,0-.69,0a5.46,5.46,0,0,1-1.2-.06c-.39-.08-3.34,0-3.73-.21,0,0-.39-.14-.69-.19h-.07c.09,0,.2,0,.2,0a2.75,2.75,0,0,1,.58.22c.37.13,3.32.13,3.73.22.21,0,.41,0,.62.08a4.43,4.43,0,0,0,.63,0,1.62,1.62,0,0,1,.62-.11Z" style="fill:url(#cz)"/><path d="M81.57,46c-.56,0-1.1.05-1.64,0-.34,0-3.27-.08-3.62-.14,0,0-.36,0-.64-.11h-.09a6.22,6.22,0,0,0,.69.11c.37.06,3.32.14,3.71.14.13,0,1,0,1.59,0Z" style="fill:url(#da)"/><path d="M81.57,45.93c-.45,0-.9,0-1.36,0-.3,0-3.16,0-3.42-.08l-.26-.06h-.09a2.11,2.11,0,0,1,.31.08c.32.06,3.23.09,3.55.09s.58,0,.88,0a.53.53,0,0,0,.39,0Z" style="fill:url(#db)"/><path d="M72,45.74l-.43.08a2.6,2.6,0,0,1-.73,0,1.28,1.28,0,0,1-.34-.06l-.11,0h0a.09.09,0,0,1,.06,0,1.59,1.59,0,0,0,.39.06,5.89,5.89,0,0,0,.84,0l.54-.08A.34.34,0,0,1,72,45.74Z" style="fill:url(#dc)"/><path d="M81.57,46.5h0c.09,0,.05-.14.05-.22s-.07-.08-.11-.08.11,0,.11,0v-.24s0-.08,0-.11a1.14,1.14,0,0,0-.32,0H80l-3.83,0-1.32,0H73.62a8.22,8.22,0,0,1-1.21,0,10.33,10.33,0,0,0-1.25,0h-1c-.09,0,0,0,0,0S70,46,70,46s0,.13.11.13c-.06,0-.11,0-.11.08s-.06.22.07.22c0,0-.09.08-.07.14s0,.08.09.08h.39a7.7,7.7,0,0,0,1.27,0l1.31,0c.43,0,.91,0,1.34,0,.24,0,.43,0,.67,0h.6l3.84.06c.41,0,.84,0,1.25,0h.62a.81.81,0,0,0,.22,0c0-.06-.07-.14-.07-.22Zm-.84.19h-1L76,46.63l-2.18,0a22.06,22.06,0,0,0-2.3,0,6.25,6.25,0,0,1-1.06,0c-.06,0-.23,0-.28,0s0-.08,0-.11.09-.08.09-.08-.11,0-.13,0,0-.22,0-.24.2,0,.2,0,0,0-.07,0-.11,0-.11-.06a1,1,0,0,1,0-.24c.33,0,.69,0,1,0a9.44,9.44,0,0,1,1.18,0c.35,0,.69,0,1.06,0l1.2,0c.74,0,1.47,0,2.22,0,.39,0,3.36,0,3.8,0h.81a1.12,1.12,0,0,0,.26,0,.86.86,0,0,1,0,.21v.11a.22.22,0,0,0-.13,0,.56.56,0,0,1,.15.08v.16a.56.56,0,0,0-.21,0s.13,0,.15.06a.65.65,0,0,1,0,.24c-.39,0-.69,0-1-.08s.28.05,0,0Z" style="fill:url(#dd)"/><path d="M81.38,45.87c-.37,0-.71,0-1.08,0l-3.68-.06c-.35,0-.69,0-1.06,0H73.34c-.19,0-.34,0-.54,0a5.62,5.62,0,0,1-.58,0c-.32,0-.67,0-1,0s-.76,0-1.12,0h0c.71.08,1.44,0,2.2,0a2.27,2.27,0,0,0,.45,0,5,5,0,0,1,.54,0h2.24c.37,0,.73,0,1.1,0l3.64,0c.32,0,.73,0,1.1,0Z" style="fill:#ffeee1;opacity:0.600000023841858;isolation:isolate"/><path d="M71.49,45.52s0-.3,0-.27h-.22c-.09,0-.15,0-.19.08s0,0-.07,0-.15,0-.19,0c0-.08-.13,0-.2,0s-.08,0-.1.06c0,.24,0,.49,0,.73,0,.46,0,.95,0,1.41s0,6.9,0,7.39,0,1,0,1.47,0,.89,0,1.36a1.42,1.42,0,0,1,0,.29c0,.06,0,.11,0,.17l.21,0h.65c.08,0,.06-.05.06-.13s0-.44,0-.65,0-.36,0-.52v-.73c0-.49,0-1,0-1.52V47.91a2.42,2.42,0,0,0,0-.38v-.24c0-.3,0-.6,0-.87s0-.6.07-.9Z" style="fill:url(#de)"/><path d="M71.47,45.3h-.22c-.09,0-.15,0-.19.08,0-.05,0-.05,0-.05a1,1,0,0,0,0,.16c0,.11,0,.25,0,.33,0,.33,0,.65,0,1s0,.68,0,1c0,.68.13,7.36.11,8,0,.33,0,.68-.06,1s-.07.68-.11,1c0,.11-.07.27-.09.38h.37c.08,0,.06-.06.06-.14s0-.43,0-.65,0-.35,0-.51v-.74c0-.49,0-1,0-1.52V48a2.55,2.55,0,0,0,0-.39v-.24c0-.3,0-.6,0-.87a8.46,8.46,0,0,1,0-.87C71.49,45.49,71.51,45.25,71.47,45.3Z" style="opacity:0.5;isolation:isolate;fill:url(#df)"/><path d="M71.29,58.2a6.6,6.6,0,0,0,.11-.81s0-.11,0-.16v-.17a3.32,3.32,0,0,0,0,.41c0,.22-.06.44-.09.73Z" style="fill:url(#dg)"/><path d="M71.27,56.36c0,.62-.08,1.22-.15,1.84h0c.07-.62.15-1.19.2-1.84,0-.36,0-.68,0-1s0-.38,0-.6,0-6.36,0-6.52c0-.76,0-1.52,0-2.28a4.91,4.91,0,0,0,0-.55V45.3h0v0a4.9,4.9,0,0,1,0,.54c0,.76,0,1.52,0,2.26,0,.16,0,6.33,0,6.49a4.87,4.87,0,0,0,0,.54,5.09,5.09,0,0,0,0,.55A5.42,5.42,0,0,0,71.27,56.36Z" style="fill:url(#dh)"/><path d="M71.12,57.82c0,.11,0,.28,0,.38h0c0-.13,0-.29.06-.43a8.72,8.72,0,0,0,.07-1.14c0-.38,0-.76,0-1.14a4.61,4.61,0,0,1,0-.52c0-.16.06-6.33.09-6.49,0-.73,0-1.47-.11-2.2a2.44,2.44,0,0,1,0-.54,1.21,1.21,0,0,0,0-.27.15.15,0,0,0,0-.09c0-.08,0-.08,0-.05h0a.94.94,0,0,1,0,.44,1.46,1.46,0,0,0,0,.51c0,.35.15,7.91.1,8.26,0,.16-.06.32-.08.49a2.17,2.17,0,0,0,0,.54c0,.38,0,.76,0,1.14A6.48,6.48,0,0,1,71.12,57.82Z" style="fill:url(#di)"/><path d="M70.67,58.18a8.65,8.65,0,0,1,0-1.44,5.07,5.07,0,0,1,.11-.68c0-.11.06-.52.21-.52s.09,1.12.07,1.25c0,.46-.09,1-.13,1.41h0a1.37,1.37,0,0,1,0-.27c0-.21,0-.4.06-.65a9.22,9.22,0,0,0,.09-1.17,3.62,3.62,0,0,0,0-.46c0-.16-.15-.11-.24,0a4.87,4.87,0,0,0-.26,1.19,6.4,6.4,0,0,0,.07,1.31Z" style="fill:url(#dj)"/><path d="M70.67,57.8a4.34,4.34,0,0,1,.15-1.39,1.91,1.91,0,0,0,.06-.21c.05-.09.09.08.09.1a3.32,3.32,0,0,1,0,.63,8,8,0,0,1-.21,1.19,3.06,3.06,0,0,1,0-1.38c0-.06,0-.08.07-.11s.09.14.09.16a4,4,0,0,1-.07.71.6.6,0,0,1-.09-.33c0-.08,0-.3,0-.35l0,.16c0,.08,0,.25,0,.3V57c-.07,0,0,.49,0,.27,0,0,0-.46,0-.46s-.07.44-.07.52,0,.13.09.22a1.06,1.06,0,0,0,.06-.28,2,2,0,0,0,0-.54c0-.05,0-.13-.11-.11s-.09.17-.09.27a5.83,5.83,0,0,0,0,.66s0,.65.11.65.08-.44.1-.46A3.34,3.34,0,0,0,71,57.2a4.87,4.87,0,0,0,0-.54,1.12,1.12,0,0,0-.06-.44c-.09-.11-.15.22-.15.25a3.1,3.1,0,0,0-.11.51,3.82,3.82,0,0,0,0,1.12.24.24,0,0,0,0,.1h0A1.49,1.49,0,0,1,70.67,57.8Z" style="fill:url(#dk)"/><path d="M71.08,45.36a3.57,3.57,0,0,0,0,1c0,.35.08,7.85,0,8.2a3.44,3.44,0,0,1-.22,1,3.63,3.63,0,0,0-.28.95,3.54,3.54,0,0,1,.11-.44c.06-.16.11-.32.19-.49a3.72,3.72,0,0,0,.22-1c0-.16.06-6.33.06-6.52s-.06-1.52-.08-1.71,0-.38,0-.54a.89.89,0,0,1,0-.27s0-.09,0-.11,0-.17,0-.11C71,45.66,71.08,45.33,71.08,45.36Z" style="fill:url(#dl)"/><path d="M70.8,45.36c0,.7.13,2.39.08,3,0,.33-.06,6.6-.13,6.87s-.1.63-.15.95c0,0,.13-.79.15-.87.07-.32.13-6.65.16-7s-.09-2.55-.11-3Z" style="fill:url(#dm)"/><path d="M70.69,45.41c0,.52.09,2.2.09,2.72,0,.27,0,6.49-.09,6.73,0,.06-.19.63-.19.66s.19-.55.19-.6c.06-.27.09-6.52.09-6.82s-.09-1.66-.09-1.93v-.65a.11.11,0,0,0,0-.11Z" style="fill:url(#dn)"/><path d="M71.49,45.52s0-.3,0-.27h-.22c-.09,0-.15,0-.19.08s0,0-.07,0-.15,0-.19,0c0-.08-.13,0-.2,0s-.08,0-.1.06c0,.24,0,.49,0,.73,0,.46,0,.95,0,1.41s0,6.9,0,7.39,0,1,0,1.47,0,.89,0,1.36a1.42,1.42,0,0,1,0,.29c0,.06,0,.11,0,.17l.21,0h.65c.08,0,.06-.05.06-.13s0-.44,0-.65,0-.36,0-.52v-.73c0-.49,0-1,0-1.52V47.91a2.42,2.42,0,0,0,0-.38v-.24c0-.3,0-.6,0-.87s0-.6.07-.9Zm0,.19a6.87,6.87,0,0,0,0,.9c0,.3,0,.62,0,.89s0,.66,0,1,0,6.69,0,7c0,.63,0,1.25,0,1.88,0,.27,0,.51,0,.78,0,.08-.71,0-.84,0a1.51,1.51,0,0,0,0-.3v-.43a6.43,6.43,0,0,1,0-.87c.06-.6,0-1.17,0-1.77,0-.3,0-6.57,0-6.81s0-.6,0-.87v-.87c0-.27,0-.6,0-.9h.23s0,.11,0,.11,0-.11.08-.08H71s0,.08,0,.08,0-.08,0-.08.06,0,.09,0,.25,0,.25,0a.69.69,0,0,1,0,.35Z" style="fill:url(#do)"/><path d="M81,49.3v-.52c0-.22,0-.38,0-.6,0-.4,0-.81,0-1.22s0-.79,0-1.17v-.41c-.07,0-.13,0-.13.09s0-.06,0-.09a3.1,3.1,0,0,0-.43,0h-.24c-.06,0-.08,0-.08.08,0,.46,0,1,0,1.38s0,.87,0,1.34,0,.86,0,1.35,0,7,0,7.45c0,.24,0,.46,0,.67V58a2,2,0,0,0,0,.35h.39a2.8,2.8,0,0,0,.51,0,10,10,0,0,0,0-1.25v-.84c-.08-.33-.1-6.71-.08-7S80.93,49.46,81,49.3Z" style="fill:url(#dp)"/><path d="M80.19,58.2c0-.29,0-.59,0-.86,0-.68,0-7.45,0-8.1s0-1.38,0-2c0-.35,0-.67.07-1s0-.54,0-.81h-.15c-.06,0-.09,0-.09.08,0,.46,0,1,0,1.38s0,.87,0,1.34,0,.86,0,1.35,0,7,0,7.45c0,.24,0,.46,0,.67V58a2,2,0,0,0,0,.35h.15A.32.32,0,0,1,80.19,58.2Z" style="opacity:0.5;isolation:isolate;fill:url(#dq)"/><path d="M81,56.22c0-.3,0-6.65,0-6.95h0v-.52c0-.21,0-.38,0-.59,0-.41,0-.82,0-1.23s0-.78,0-1.16v-.41c-.07,0-.13,0-.13.08s0-.06,0-.08a.07.07,0,0,0-.06,0v1.22c0,.33,0,.68,0,1,0,.68,0,1.36,0,2s0,7.39,0,8a5.94,5.94,0,0,1,0,.73H81a12.43,12.43,0,0,0,0-1.25C81,56.79,81,56.52,81,56.22Z" style="opacity:0.5;isolation:isolate;fill:url(#dr)"/><path d="M80.13,57.88v.43h0V57.8c0-.74,0-7.58,0-8.31,0-.38.09-.74.09-1.09s0-.73,0-1.11,0-.76,0-1.14v-.77h0v.77c0,.38,0,.76,0,1.14s0,.73,0,1.11-.07.76-.11,1.17C80.09,50.3,80.13,57.15,80.13,57.88Z" style="fill:url(#ds)"/><path d="M80.47,56.25c0,.35,0,.73-.06,1.09v.95h0c0-.25,0-.47,0-.74,0-.7.06-7.52.13-8.23a6.55,6.55,0,0,0,0-1.08c0-.36,0-.74-.07-1.09,0-.14,0-1.19,0-1.79h0c0,.54,0,1.55,0,1.65,0,.36,0,.68,0,1a5.59,5.59,0,0,1,0,1.08C80.54,49.51,80.5,55.92,80.47,56.25Z" style="fill:url(#dt)"/><path d="M80.58,58.29h0V58c0-.41,0-.84,0-1.28s0-6.87.07-7.28c0-.22,0-.38,0-.6s0-.4,0-.59a10.79,10.79,0,0,1-.05,1.27c0,.44,0,7,0,7.36s0,.85,0,1.28C80.56,58.2,80.58,58.23,80.58,58.29Z" style="fill:url(#du)"/><path d="M80.34,58.29v-1c0-.27,0-.54.07-.81,0-.52.09-7.2,0-7.74a4.87,4.87,0,0,1-.06-.76c0-.3,0-.6,0-.84,0,.29,0,.59,0,.84s0,.54.06.84c0,.54,0,7.2,0,7.74,0,.25-.07.49-.07.73v.82a.41.41,0,0,0,0,.22Z" style="fill:url(#dv)"/><path d="M80.58,47.31c0-.32,0-.62-.06-1s0-.65,0-1v0h0v0c0,.3,0,.63,0,.9s0,.62,0,.89,0,.36.06.49,0,.3.07.36,0-.25,0-.3A1.58,1.58,0,0,0,80.58,47.31Z" style="fill:url(#dw)"/><path d="M80.86,45.38c0,.28,0,.52-.08.82a8.27,8.27,0,0,0-.07,1.11v.9a3.08,3.08,0,0,1,0-.43v-.55a7.87,7.87,0,0,1,.09-1.08,5.3,5.3,0,0,0,.06-.77Z" style="fill:url(#dx)"/><path d="M81,47.64c0,.14,0,.3-.07.41-.06.35-.1.73-.13,1.11,0,.16,0,6.44,0,6.63s0,.27,0,.38c0-.14,0-6.38,0-6.52s0-.38,0-.54c0-.36.07-.74.13-1.09,0-.08,0-.14.05-.24A.53.53,0,0,0,81,47.64Z" style="fill:url(#dy)"/><path d="M80.15,48.13c0-.22,0-.38,0-.6,0,0,0-.24-.07-.38v.05c0,.11,0,.28,0,.3,0,.22,0,.44,0,.66s0,.4,0,.62,0,.22,0,.33v.13c0-.13,0-.3.07-.46S80.15,48.35,80.15,48.13Z" style="fill:url(#dz)"/><path d="M81,49.3v-.52c0-.22,0-.38,0-.6,0-.4,0-.81,0-1.22s0-.79,0-1.17v-.41c-.07,0-.13,0-.13.09s0-.06,0-.09a3.1,3.1,0,0,0-.43,0h-.24c-.06,0-.08,0-.08.08,0,.46,0,1,0,1.38s0,.87,0,1.34,0,.86,0,1.35,0,7,0,7.45c0,.24,0,.46,0,.67V58a2,2,0,0,0,0,.35h.39a2.8,2.8,0,0,0,.51,0,10,10,0,0,0,0-1.25v-.84c-.08-.33-.1-6.71-.08-7S80.93,49.46,81,49.3Zm-.22,9h-.39a.42.42,0,0,0-.19,0c-.09,0-.09,0-.09-.11,0-.38,0-.76,0-1.11a4.61,4.61,0,0,1,0-.54c0-.22,0-.41,0-.63V48.16c0-.22,0-.38,0-.6s0-.33,0-.49,0-.38,0-.54V46c0-.16,0-.35,0-.49s.07,0,.09,0h.63a.23.23,0,0,0,0,.11.41.41,0,0,0,0-.09s.06,0,.11,0v.43a2.32,2.32,0,0,1,0,.46v1c0,.33,0,.63,0,.9s0,.62,0,.95V58.4c0-.09-.1-.09-.17-.09s.07,0,0,0Z" style="fill:url(#ea)"/><text transform="translate(31.79 26.16) scale(1.22 1)" style="font-size:9.827378273010254px;font-family:MyriadPro-Regular, Myriad Pro">1</text><text transform="translate(51.34 40.45)" style="font-size:12px;font-family:MyriadPro-Regular, Myriad Pro">2</text><text transform="translate(72.24 55.54)" style="font-size:12px;font-family:MyriadPro-Regular, Myriad Pro">3</text></svg>