<svg xmlns="http://www.w3.org/2000/svg" xmlns:xlink="http://www.w3.org/1999/xlink" viewBox="0 0 127.3 79.3"><defs><clipPath id="a"><rect x="86.9" y="4.1" width="21.7" height="24.9" style="fill:none"/></clipPath><clipPath id="b"><rect x="86.7" y="4" width="21.6" height="24.9" style="fill:none"/></clipPath><clipPath id="c"><rect x="86.6" y="4" width="21.6" height="24.9" style="fill:none"/></clipPath><clipPath id="d"><rect x="86.45" y="4.03" width="21.65" height="24.86" style="fill:none"/></clipPath><clipPath id="e"><rect x="12" y="32" width="31.5" height="35.3" style="fill:none"/></clipPath><clipPath id="g"><rect x="11.95" y="31.94" width="31.5" height="35.29" style="fill:none"/></clipPath><symbol id="h" viewBox="0 0 135.26 121.9"><path d="M19.41,48.6c5.3,1.3,9.1.9,10.8-.9,3.2-1,9.7.9,11.9,3.1,1.4,1.4,3.3,2.6,3.9,4.6s4.5,6.2,5.9,7.6,6.5,6.8,5.1,9.9a9.32,9.32,0,0,0-5.6-4.5c-2-.6-7-4.2-8.5-3.7a7.59,7.59,0,0,1-4.2.6c-2-.3-2.8.6-5.1,0a9.81,9.81,0,0,0-4.8.3s-2.3-5.5-2.6-6.8l.4,6.8c-7.3-2-11.6-12.8-12.1-14.7-.3,11.5,10.6,16.3,10.6,16.3s-8.5-3-11.3-3.6c1.7,2,5.8,3,6.8,4-1.8-.7-9.3,3.7-10.2,4.2l11-2.8c4.7-.5,13.4-.2,20.7,3.4,2.3,1.1,5.1,1.8,6,2.6,1.3,1,1.2,2.6,2.2,3.9a20.75,20.75,0,0,1,3,5.7c3.2,13.7-2,25.9-2,25.9-.8.8-3.4,6.7-3.4,6.7l6.6-1.5,1.8,2.2,7.2,1.5,1.9,2.1,5.7-.8,2.6-5.1,8.8,2.7s4.1,3,4.9,3,6.9-2.7,8.5-2.9c0,0-4.6-1.2-8.6-7.3-5.9-8.6-4.1-17.2-4.6-22.2a12.1,12.1,0,0,1-.1-1.9c-.2-4.4.6-8.5,1.8-10.1.6-.8,1.2-1.8,1.8-2.8.8-1.2,1.6-2.2,2.5-2.4,1.5-.2,4.4-2.9,5.6-4.1s6.4-2.7,8.8-2,3.2,3.5,3.2,3.5,3.9,1.4,6.6,2,7.4,4.4,9.3,5.8,2.7,7.3,4.4,8.8c-.3-.5-1.2-4.4-2.5-9.3s-5.6-3.9-8.3-5.9-4.4-1.2-6.9-3.6-1.3-4.3-1.3-4.3l2.7.3s1.9.7,2.4.8,1.9.7,5.3,1.5,8.5-1.2,11-1.3c-2-.7-5.6-.3-9.7-.5s-5.3-1.2-9.5-3.7-13.4,2.4-16.3,2.5c-5.6.4-16.3,6-16.4,6a10,10,0,0,1,.9-5.9c1-2,2.2-4.2,4.9-5.4s4.2-6.4,4.2-7.1,6.4-3.2,6.4-3.2A37.18,37.18,0,0,0,105,45a67.72,67.72,0,0,1-7.8-.2c2.2-2.4,11.3-1.3,14.9-1.3-22.2-7.8-36.9,13.3-38.4,14.8-1-5.6,5.5-12.1,6.9-13.5,0,0,1-3.3,11.8-9.7,12.5-7.5,20.3-13.7,17.3-11.8s-10.8,7-16.1,8c2.5-3,4.5-8,3.5-11.9-1.2,13.5-12.6,15.3-15.9,16.3-2.8-.3-3.3-13.4-3.3-13.4s8.5-5.8,8.1-9c-1.7,4.8-9.5,6.5-10.4,7.8-.7-7-3.5-11-7.3-12.1,1.2.2,5.5,4.5,5.1,7.5s2,10.1,2.2,20.2-5.5,9-8.8,12.6c1.3-2.1-3.9-7.2-3.9-7.2a52.51,52.51,0,0,0-6.2-5.3c-2-1.2-2.5-2.8-3.4-5.6,6.4-3,7.5-7.7,6.6-10.5.7,7-7.3,7.5-9.6,9.6,0,0,2.3-14.3,0-17.1,2.3,3.5-1.5,14.4-2,16.4-1.5-1.2-7.1-1.8-10.1-5.2.4,2.6,19,11.6,22.4,26.6,2.5,4.5,2.3,11.6,2.1,17.7-4-16.6-24.3-24.3-29.2-25.5-1.3-4.8-2.5-9.3-11.9-10.3,6,.8,7.8,7.6,7,9.3a5.32,5.32,0,0,1-4.1.2l-1.1-.8s-4-2.5-6.5-2.3c1.7,2,10,3.6,10.2,7.6Z" style="fill:#deb13d"/><path d="M64.41,120.5s-2-4.8,0-9,2.5-4.5,2.5-6.5-.6-5.9-.6-7.3a33.79,33.79,0,0,1,0-4.5c.3-1.7.8-4,.8-4s1.7-7.3,2-8.2a9.45,9.45,0,0,0-.3-6.2c-.8,2.2-.6,7.9-.6,7.9s-2.8,4.5-3.1,5.9a17.06,17.06,0,0,0,.3,4.5c-.8,1.4-.8,4.5-.8,4.5l-.7,2.6.4,2.6a27,27,0,0,0-.8,3.9c0,.9-.3,3.1-.3,3.1l-.2,3.1-2,2.3-3.3,3.2Z" style="fill:#a36c31"/><path d="M58.61,94.6a5.8,5.8,0,0,1-1.7,4.5v2.3s-2.3,5.4-2,7.1-.6,5.4,2,6.8l2.3-3.1.3-4.8-2.5-2,2-3.3a38.29,38.29,0,0,0,.8-6.8l1.7-2v-5c0-1.1-1.4-6.8-1.1-8.5s-2.3-4.9-2.3-4.9l-1.1-2,2,5.9s-.6,11,.6,11.6S58.61,94.6,58.61,94.6Z" style="fill:#a36c31"/><path d="M73.81,55.9a10.79,10.79,0,0,1,1.1-3.6,39.56,39.56,0,0,1,2.2-3.4A24.51,24.51,0,0,1,80,45.4a6.55,6.55,0,0,0,1.5-1.8c.9-1.4,2.2-2.2,3.7-3.6a61.92,61.92,0,0,0-5.7,3.3c-1.1.9-4.5,3.6-4.8,5.3s-5.1,2.8-4.8,4.8a32.56,32.56,0,0,1,.6,6.2c0,2.5,2.8,1.7,1.7,7s-1.7,9.6-1.1,11.3a12.21,12.21,0,0,1,.8,6.8c-.6,2.6-2,8.5-2,9.6s.6,5.6.6,8.8.6,17.4-3.9,18.5c4.5-1.1,8.9-6.2,9.2-7.9l.3-4.5-2.3-5.6-.6-6.5,2.4-6.2-1.2-13.5,1.4-7.1s.3-6.5-.6-9-1.6-3-1.6-3C73.71,57.5,73.71,56.7,73.81,55.9Z" style="fill:#703d20"/><path d="M86.31,64.4s-7.9,2-8.7,5.4c-.6,2.1-2,4.1-2.3,7.8a32.28,32.28,0,0,0,1.1,10.2c.5,1.4,2.5,3.1-.6,6.2s-.5,7.9.1,9.9,2,5.9,2,7.3,2,6.4,4.7,7.2c-1.6.7-5.6-1.2-5.6-1.2s-1.7-1.1-2.8-.9-2.2,5.4-2.2,5.4l-2.6.2-2.8-.3c1.4-1.4,4.4-4.2,4.4-4.2l2-4,2-5.1s-2.5-5.6-2.8-6.5-.3-8.5.6-9.3.8-6.2.6-7,2-13.3,1.4-15.5S78.91,63.5,86.31,64.4Z" style="fill:#a36c31"/><path d="M33.51,43.2s6.2,1.1,7.3,2.5,4.5,2,4.5,2,2.8.3,3.7,1.4a17.7,17.7,0,0,0,4,4.2c1.7,1.1,7,5.1,7,5.9a35.11,35.11,0,0,0,1.2,4.9l2.2,4.8-3.1-2.5s-2.8-4.8-3.7-6.5A18.54,18.54,0,0,0,51,53.7a56.32,56.32,0,0,1-6.2-3.7,35.83,35.83,0,0,0-4.5-3.1C37.51,45.2,33.51,43.2,33.51,43.2Z" style="fill:#a36c31"/><path d="M53.21,31.1a15.8,15.8,0,0,0,2,3.6c.8.8,2.5-.3,3.4,2s2.5,2.5,3.4,4,5.4,4.5,5.4,5.4v2l-.6,4.2s-1.7-4.3-2.2-5.4-2-4.2-4.5-5.6-3.1-.3-4-3.4a10.49,10.49,0,0,0-3.4-5.1Z" style="fill:#a36c31"/><path d="M28.71,65.5s3.1-1.4,4.8-.3,4.8-1.6,7.6.1c1.7-.8,1.7-1.6,5.1.4a61,61,0,0,0,8.2,3.8l2.5,3.3,1.1,2a5.34,5.34,0,0,1-2.5-1.7c-1.4-1.4-4-4-5.9-4s-5.1-2-7.3-2.3-4.5.3-5.9,0S31,65.5,28.71,65.5Z" style="fill:#a36c31"/><path d="M93.11,68.9s2.8-2.3,5.1-2.5,5.1-.3,5.6.6a13.08,13.08,0,0,0,2.4,2.3s3.5,1.7,4.3,1.7a27.4,27.4,0,0,1,4.8,1.7l4.5,2.8-4.5-4-6.2-2.6-1.4-1.4-3.4-2.3-3.4-.6-4.8.6-5,3.7-2.3,2.3S89.91,72.6,93.11,68.9Z" style="fill:#a36c31"/><path d="M36.31,70s4.2,1.6,5,2.1,5,1.6,5.9,2.1a3.94,3.94,0,0,1,1.9,2.3,5.1,5.1,0,0,0,1.2,2.3,9.63,9.63,0,0,1,2.1,3.5,6.13,6.13,0,0,0-1.7-3.4s1.7-1.6,2.6-1.6c-.7-.2-2.2,1.3-2.7,1.1a1.33,1.33,0,0,1-.6-1,3.13,3.13,0,0,0-.6-1.6c-.5-.9-.8-1.3-1.5-1.6.3-.4,2-2,3.6-1.9-1.1-.5-3.1.5-3.9,1.5a2.18,2.18,0,0,1-.8-.5s-.1-.5-.3-.5.8-1.1,1.7-1.2a2.47,2.47,0,0,0-2.3,1.2l-1-.2-1.5-.6-.8-.8-.6.1-1.1-.1a2.84,2.84,0,0,1,.6-1c-.4,0-1,.8-1,.8l-.9-.3-1-.3A6.2,6.2,0,0,0,36.31,70Z" style="fill:#a36c31"/><path d="M83.61,73.7s1.1,2,.2,3.5-1.3,7.2-1.3,8.5.9,2.2.6,4.4a27.44,27.44,0,0,0-.2,6.4c.2,1.3.7,5.2.7,5.2-1.3-.9-.7-1.3-.9-2.2a31.09,31.09,0,0,1-.6-4.4v-3s-.7,3.1-.9,4.1.2,8.7.2,8.7c-.6-.4-1.1-8.3-.7-9.6.2-.5-.2-1.8.4-2.9.9-1.6,2.1-2.3,1.6-3.5-.7-1.9-2-2.1-3.3-4.8s-.4-3.5,0-4.6a22.06,22.06,0,0,1,.4,3.7l1.7,1.7.7-3.3.6-3.3.6-2.6Z" style="fill:#a36c31"/><polygon points="62.31 67.2 64.31 69.5 64.01 73.1 64.41 75.7 63.11 79.1 62.01 80.7 61.91 85.3 61.71 89.7 60.91 86 61.21 79.9 61.71 74.5 62.61 72.3 62.61 71.1 62.31 67.2" style="fill:#703d20"/><path d="M56.11,106.4a2.5,2.5,0,0,1,1.7,2.3,16.28,16.28,0,0,1-.3,3.1l-1.1.8-.6-2.8Z" style="fill:#703d20"/><path d="M83.81,119.4s-2.8-.6-4.8-4.5a16.43,16.43,0,0,1-2-6.5l-2.3-5.6-.3-5.4.8,3.4,2,3.4,1.4,4.2,2.8,3.9-.5.8,3.4,5.1,4,2,3.1-.3-4.1,1.5C87.31,121.5,85.71,120.5,83.81,119.4Z" style="fill:#703d20"/><path d="M77.91,22.3l.6,5.3.3,3.1,1.6,3.5.8,1.5,2-.7,2.8-.8,4.2-2.3-2.8,2.8a24.13,24.13,0,0,0-2.5.8,5.61,5.61,0,0,1-3.1.9,10.27,10.27,0,0,1-2.4-.5c-.8-.3-.4-1.4-.4-1.4l-.5-3.4-1.3-3.6Z" style="fill:#703d20"/><path d="M63.91,107.2l.2,3,.9-1.7.9-2.4-.2-2.4.4-4.2-.4-4a24.61,24.61,0,0,0-.7,3.9v4.8Z" style="fill:#703d20"/><path d="M61.51,93.1s-1.6,1.5-1.7,2-.3,2-.3,2l.7,3.1-.4,3.3-.5,2.4,1.7,3.8-1.7,2.2L57,115l-2.8.4,3.1.7,3.9-3.9.9-2-.7-3-.2-4.2.9-5s-1.3-1.1-1.1-2C61.11,95.3,61.51,93.1,61.51,93.1Z" style="fill:#703d20"/><path d="M50.61,53.8l.5,1.3.8,2.4s0-.2.7-.2h1.5l1.3-.4-2-1.7-.9.6S53.61,53.8,50.61,53.8Z" style="fill:#703d20"/><path d="M92.51,69.1l-.7,1.3-1.5.7-1.7.7-1.5,1-1,1.3-.7,1.1s-.9-3.7-3.7-4.8a3.59,3.59,0,0,1,3.7,1.5,1.14,1.14,0,0,1,1.4-.8h.1l1.3-.4a4.73,4.73,0,0,0-2.5-1.6c1.1-.4,3.1.5,3.3,1.3l1.5-.4,1.3-2s-.9-1.5-1.7-1.5C91.21,66,92.51,67.6,92.51,69.1Z" style="fill:#703d20"/><path d="M77.21,66.5s2.6-8.3,3.9-8.3a2.25,2.25,0,0,0,1.8-1.3l1.7-1.6,1.3-2,.7-2.4L85,52.5l-.9,2-1.8.9-2.4.9-2,3,.2,3-1.7,3-.5,2.2Z" style="fill:#703d20"/><path d="M45.11,34.3l-1.8,1.1-1.5-1.8-1.7.2-2.2-1.3-2-2.4v-.7l-1.5-1.5-2.2.6-3.1.2-3-1.8-2.2-2.2-1.3-1.3.3-1.5,3-1.7.7-2.2,1.3-.6L32,13.5l3.5-1.8,1.8,2.2,2.6,2.2L41,16l3.7-.7,2.8-.4,2.4-2.9,3.3.6,2.6,2-1.1,1.7.6,3.1.7,1.8,1.5.9,3-1.1,2.2,2.4s-.7-.9.2.7.9,5.3.4,5.5a6.35,6.35,0,0,1-2.7.4c-2,0-.9,2.8-.2,3.9s1.8,2.2-.4,2-3.1-1.2-4.3-1.8a2.83,2.83,0,0,1-.9-3.7c.7-.9,4-3.5,2.6-4.4s-3-1.7-3.5-1.5-.9-3.3-2.2-3.7-4.4,3.1-4.4,4.8,1.7,4.1,1.3,5.9a35.7,35.7,0,0,0-.4,4.6Z" style="fill:#455f2c"/><path d="M42.31,9.6l-2.4,1.8s-.4,2.4.7,2.4,1.8-.9,2.8-.2,1.1.9,2.4-.4-.9-3.4-.9-3.4S43.81,7.4,42.31,9.6Z" style="fill:#455f2c"/><path d="M50.61,37.9c-.8.7-2,1.1-1.8,1.7l.5,1.7s-1.3.4.5,1.1.7,0,1.8.7,3.3.9,3.5,0,.4-2.4-1.7-2.9S53.91,34.8,50.61,37.9Z" style="fill:#455f2c"/><path d="M17.51,29.5c-1.3,0-2.8,1.3-3.5,1.7a7.36,7.36,0,0,1-4.4.4C7.61,31.2,7,34,7,34s-2.4-.2-3.1.6-1.5,1.1-1.5,1.7-1.9,1.7-2.2,3,2,2.9,3.1,3.5-1.1,3-1.1,3L0,48.8A10.48,10.48,0,0,0,2,51c.5.2,3.5-1.5,3.5-1.5h1.7A2.65,2.65,0,0,0,9,50.6c1.3.2,5.3-2.2,5.9-1.5s0,2,1.5,2.4,6.5-1.1,6.6-1.7-1.9-2.9-2.4-3.1S16,44.9,16,44s-3.1-5-2.6-5.3,1.7-2,2.4-2.6S20.91,29.5,17.51,29.5Z" style="fill:#455f2c"/><path d="M15.91,37.6s-.4,2,.4,3a15.09,15.09,0,0,1,1.5,2.8s1.1,1.3,2,1.3a16.35,16.35,0,0,0,2.2-.2s1.9-3.4,2.6-3.6.9-2.9.9-2.9l-3.9.9-1.3.6a10.09,10.09,0,0,1-.7-1.5C19.51,37.4,18.41,35.6,15.91,37.6Z" style="fill:#455f2c"/><path d="M23.91,32.1c-.7,0-3.7-.4-3,1.3s4,1.8,4.6,3,4.4,1.8,5.7,1.8,2.6-.4,3.5.2,3.7,5.3,4.6,4.8,2.2-2,1.5-3.1-4-2.2-4-2.2l-1.5-1.3-.4-2-3-.7L30,35.2,28.11,33l-.7-1.5-2.8-1.8Z" style="fill:#455f2c"/><path d="M24.11,50.7l2,2.2,2-.7A10.87,10.87,0,0,0,28,54c0,.7-1.7,1.3-2.2.9A7.28,7.28,0,0,1,24,53.2C23.51,52.7,21.91,50.1,24.11,50.7Z" style="fill:#455f2c"/><path d="M13.41,53.6c-.9-1.8-4.2,0-4.2,0s-1.8-2.2-3.9-.6-2.9,4.4-2.2,5.5,1.5,3.5.4,3.9-1.5.9-3,4.4.4,4.6,1.5,4.8,3.9.9,3.7,1.7,1.8,3.3,3,3.5a5.48,5.48,0,0,0,3.1-.2c.5-.4,3.1-1.7,3.5-2.6a27,27,0,0,1,2.2-3.3s-2-3.7-3.9-1.5a2.05,2.05,0,0,1-2.8.6,2,2,0,0,1-.9-1.9c.2-1.3,1.7-2,2-2.8.6-.8,1.2-1.5,1.8-2.2.4-.5,3.1-.5,3.3-1.3s-1.8-2.8-1.8-2.8l-2.6-.2-1,1.5s-2.8.4-2-.9.7-1.8,1.7-2.2S14.71,56.2,13.41,53.6Z" style="fill:#455f2c"/><path d="M14.91,50.3c-.7,0-2.2,2.4-1.1,3.3s3,1.3,4.4,2.2,2.2,4,3.5,1.7.5-2.8-.6-3.5h-2.4l-1.3-1.5V49.9Z" style="fill:#455f2c"/><path d="M25.41,58.6l-1.3,3.1a4.26,4.26,0,0,0,1.5,2,8.1,8.1,0,0,0,2.2,0c.5-.2.9-1.8,2.2-2.2a13.86,13.86,0,0,1,4-.6c2,0,3.3-.5,3.3-1.3s-.5-2.4-1.8-2.4-3.3,1.7-3.9,1.7c-.9-.3-1.9-.6-2.8-1C28.11,57.7,25.41,58.6,25.41,58.6Z" style="fill:#455f2c"/><path d="M14.71,73.3c1,.5.6,2.6,1.3,3.1a5.07,5.07,0,0,1,1.7,2.4c0,.6-3.1,4.2-3.1,4.2s3,.7,3,2-1.3,1.5-2.2,1.7-2.4.7-2.2-.9,1.7-5.7,1.7-6.3V76.8l-1.1-.7C13.61,76.2,12.81,72.4,14.71,73.3Z" style="fill:#455f2c"/><path d="M12.81,77l-2.4-.5-2.6,1.3-.7,2.4s-.7,1.3,0,1.8,1.7,1.9,2.2.2-.2-2.8.9-3S12.81,80.2,12.81,77Z" style="fill:#455f2c"/><path d="M17.61,72.2c-1.1,0-.4,3.5.2,3.5s3,.2,3.5.7,3-.7,3.3-2.6a1.75,1.75,0,0,0-1.1-2.2,1.53,1.53,0,0,0-1.6.3c-1.5.9.2,1.8-.4,2.2s-1.8,0-1.8,0S20.41,72.2,17.61,72.2Z" style="fill:#455f2c"/><path d="M92.11,28c-.6,0-4.6-6-5.5-6s-.2,3.3-1.6,3.9-3.3-.3-3.9-.5-1.8-3.6-4.4-4-4.5,4-6.7,3.5-1.7-.9-1.7-.9l2.2-5.5s-1.8-3.6-1.6-4.3-1.5-1.3-2.6-1.3-.7-1.7-1.8-2.9.3-2.9,2.2-3c4.8-.2,3.3,2.6,3.9,3.3s1.8-1,6.2.5,3.1-.9,4-1.1a4.26,4.26,0,0,0,2-1.5A30.9,30.9,0,0,1,86,6.8c.7-.2,2.6,1.1,5,2.8s.2,6.1,1.5,5.9,5.8-4,6.4-4.5,1.3-2.6,3-3,3.2,4.5,4.2,5.4,3.5.4,3.5.4,4.1-.2,5.3,1.5c2.6,3.7-.7,5.2-.4,5.9s-.9,5.3-.4,6.5-.4,3.3-.6,4.2-3.7,1.4-6.4,1.9-2.3,2.8-4.1,3.3-5.6.5-6.2-.3-.6-5.2-.6-5.2,0-2.4-.6-2.8l-1.3-.2,3-2.2a14.16,14.16,0,0,1,2,.4,3.1,3.1,0,0,0,2.2-.9c.6-.6,3.3-2.7,3.3-2.7l-4-1.9a7.06,7.06,0,0,0-2.4.6,5,5,0,0,1-2.4.9c-.7,0-1.5-2-2-2.2a8.1,8.1,0,0,0-2.2,0,1.91,1.91,0,0,0,1.3,2.2c1.7.6,1.3,1.8,2.8,2.3s-.9,1.8-.9,1.8A24.88,24.88,0,0,1,92.11,28Z" style="fill:#455f2c"/><path d="M75.61,6.2c0,.6,1.1,2.6,2.2,2.6s2-.7,3.1-.9,1.5-.6,2.6-.2a1.74,1.74,0,0,0,2.2-.7c.2-.6,1.1-1.5,2.8-.4s3.5-2,3-2.6a6.77,6.77,0,0,0-2.6-1.8c-1-.2-3.6.2-3.9.8s-1.1-1-2.2-1.3c-.5-.2-1.2-1.8-2.4-1.7a7.59,7.59,0,0,0-3.9,2.4c-.1.5,1.2,2.5,1.2,2.5Z" style="fill:#455f2c"/><path d="M115.91,24.4l2,.2a1.52,1.52,0,0,0,2,0c.1-.1.2-.2.2-.3,1.1-1.5.7-2.4,2.2-2.4s3,.7,3.1,1.3.9.7.9,1.3.9.4.7,1.5,1.8.7.9,1.1-1.7-.2-2.4-.7-2-2-2.2-.7a5.29,5.29,0,0,0,.9,3s.2,1.7-.7,1.3a6.25,6.25,0,0,1-2-1.3,6.5,6.5,0,0,0-2.2-1.1c-.4.2-.9.5-1.3.7-.6.4-1.3,2-1.8,1.7s-.9-3.1-.9-3.1Z" style="fill:#455f2c"/><path d="M74.61,36.9l-.6-2s1.5-2.8-.9-1.5-3.5,2.4-3.9,3.5a4.57,4.57,0,0,0,1.1,3.7c.8.6,1.7,1.3,2.3.2a1.64,1.64,0,0,1,2.2-.7c.1,0,.1.1.2.1a3.19,3.19,0,0,0,3-.2c.6-.6.6-2-.6-3.1S75.51,36.3,74.61,36.9Z" style="fill:#455f2c"/><path d="M89.71,41.3a7.72,7.72,0,0,0,3.7,0,1.8,1.8,0,0,0,2.2,0,6.12,6.12,0,0,1,3.9-1.3c.9.2,2.4-1.5,3.7,0s6.1-.7,7.2,1.5,3.3,1.8,3.5,3.1.2,3.5,1.1,4.1,3.9,1.3,4,2.4a5.83,5.83,0,0,1-1.1,2.8,5.78,5.78,0,0,1-3.6-1.2c-1.3-1.3-3.9-3.7-4.4-3.7s1.1-3.9-.9-2.8-3.3,2.2-2.8,3.1,3.3,1.1,3.3,2.2-2.8,2-3.5,2-1.8-1.8-3.3-1.6.7-4.4.7-4.4l-2.2-.9-.6,1.3-.6,2.2-2.4-.5s-.6-1.5-1.7.2-1.8,3.3-3.1,3.1-.9-1.5-2-1.7-2.2-2-4.6-3-1.8-2.6,0-3.5S88.81,40.9,89.71,41.3Z" style="fill:#455f2c"/><path d="M117.91,49.2c-1.4.7,2-2.6,3.3-2.4s3.3,2.2,3.3,2.2,2,3-.4,3.7l-2.4.7-2-.4s3.5-.7,2.6-1.8S119.91,48.3,117.91,49.2Z" style="fill:#455f2c"/><path d="M113.51,59a3.5,3.5,0,0,0,3.1,1.5,24.17,24.17,0,0,0,4.6-1.3,8.56,8.56,0,0,1,3.9,0c1.1.4,2.4-1.1,3.7-1.1a3.57,3.57,0,0,1,3,2c.4.9.9,3,1.5,3.5s.6,3.1.6,3.1-1.2,1.6-1.5,1.1c-.6-1.3-.7-3.1-2.4-2.4s-2.1,1.5-1.4,2.2a8.64,8.64,0,0,0,1.4,1.3c.9.7,3.1,2.2,1.7,2.6s-1.7,2.2-3.1,0-1.5-3.3-2.2-3.9-.7-3.5-.2-4-1.1-1.8-2.2-1.1-.4,1.1-1.7,1.4-.4,2-2.6,2a21.27,21.27,0,0,1-4.4-.7c-1.1-.2.2-.4-1.1-2S111.81,61,113.51,59Z" style="fill:#455f2c"/><path d="M124.41,74.1c.7.8,1.3.1,1.5,3.3s1.8,2.9,2.8,4,2.8,2,2.6,3.3-2,3.3-2,3.3l-.3-2.8s-6,1.2-6.1-1.6,2.3-3.2-.4-3.3-2.8-.1-3.6-.5-2.7-1.6-2.8-2.1-2.1-1.1-2.1-1.1a12.56,12.56,0,0,0-3.8-.6c-.9.2-1.6-.5-.8-1.2s.9-1.3,1.9-.7c1,.4,1.9.9,2.9,1.4,1.7,1,5.1.4,5.1.4a9.22,9.22,0,0,0,2.6,2.2c1.2.5,1.2,1.3,1.8-.3A9.71,9.71,0,0,0,124.41,74.1Z" style="fill:#455f2c"/><path d="M130.81,73.5c-1.3-.4-.2,3.3-1.3,3.3s-2.8-.7-2,.5a8.55,8.55,0,0,0,2.2,2.8c.7.4.9-1.3,2-.9a2.14,2.14,0,0,0,2.6-.4,2.49,2.49,0,0,0,.9-2.4c-.2-.6.4-3-.4-3.3s-.9,2-1.5,2.4S131.91,73.9,130.81,73.5Z" style="fill:#455f2c"/><path d="M84.21,59a2,2,0,0,0-1.6,2.3,1.91,1.91,0,0,0,.5,1,7,7,0,0,0,2.4,1.3s-.7,1.1,1.1,2,1.5,1.5,3.1.4,1.8-.4,3.3-2,.6-3.3,2.8-3.3a14.09,14.09,0,0,0,4.6-1.1s1.7-1.5.7-2.4a3.69,3.69,0,0,1-.5-2.7s-3.1-.7-3.9-.2.6.6-.6,1.5-1.8,2-3,2.4a3,3,0,0,0-1.8,3.1c.2,1.3-2.2.2-2.8-.9S85.81,58.6,84.21,59Z" style="fill:#455f2c"/><path d="M116.61,45.1a4.42,4.42,0,0,0,1.1-2.4,7.09,7.09,0,0,0,2.8.9c1.1,0,1.7-.9,2.2-1.3s2,0,3,.2,1.7-1.1,1.8-2-1.3-2.8-1.3-2.8-1.5-2-2.6-2-2,0-2.6.7.4,2.8.4,2.8-2.4,1.5-2.6.9-1.1-4-2.4-4.2a18.48,18.48,0,0,0-5.2.6c-.6.2-3,.4-1.3,1.7s2.2-.2,2.6,1.7a15.67,15.67,0,0,0,1.8,4.2Z" style="fill:#455f2c"/></symbol><symbol id="i" viewBox="0 0 112.6 123.6"><path d="M86.6,112.4c1.5.7-10.2-1.7-10.2-1.7a20.32,20.32,0,0,1-3.9-1.4c-.7-.5-10-5.4-10-5.4l2.4,3.9s4.2,4.2,7,5.3a9.72,9.72,0,0,1,4.3,3.5l-3-1.6-3-1.6-6.4-2.2-4.2-5.4.3,7.5,2.6,3.6,7.5,6.7-6.7-3.1-2.2-3.2s-3.6-2.5-4.3-2.8-.7-4-.7-4l-2.6-4.3s-6.5,4.5-7.3,5a38.79,38.79,0,0,1-3.6,1.5s-.3,2.1-1.1,2.3a6.71,6.71,0,0,0-3.5,1.9l-6.9,2.4,6.1-3.9,3-3.8,2.9-1.7,3.9-3.1-2.1.1-3.3-.4L38,108.2l-3.4-1.4c-.9.2-7.3,1.5-7.3,1.5l4.6-3.5,4.6.7,5-.9,8.4-4.5L52,94.4l1-14.2-.5-7.5-1.3-5.5-.7-5.3s-1.1-1.5-.8-2.4-1-2.8-1-2.8l-2.2-2.2-4.4-1.2-6.3.9-5,2.8s-8.7,2.1-9.7,2.5l-6.7,2.9,1.3-1.6L17.9,59l4.8-1.6,5.2-.9,7.2-4-3.1.8-5,.6-6.1-.4-2.7-2c-.7-.5-5.2-2.6-5.2-2.6l-2.3-1.1,1.4-.4,3,1.3,3,.9-.3-2.1-1.5-3.4,1.4.8,1,2.4,1.5,2.6,2,2.4,3.7.2,4.3-.4,3.6-2.4,5.9-.4-4.5-2.8-2.7-2.7-2.2-2.9-2.7-2.7L18.8,37l-4.2-.7s-4.2-.5-4.1-1.4,5.1.7,5.1.7l4.4.7,3.1-.5-1.3-1.9-2.9-2.5-2.3-1.3-1.5-2.2,2.1.8,2.5,1.8,3.4,2.8,3,1.6,2.7,1.3.4-1.3v-5l-2.8-4.6-2.1-3.8-3-3.4-2.2-2.9,3.2,2.7,2.9,3L28,25.7l2.6,3.6.5,3.8L32.2,35l.6-2.5,1.9-4.6,1.5-2.5,1.6-4.3-.5-4.2c1.4.5,1.7,3.6,1.7,3.6l-1.3,3.4-1.1,3.2L34,36.5l-1.3,3L34,41.9l2.4,3.2,6.2,2.2,7.2.2-2-2.9-1.9-3.8s-1-1.5-1.7-1.5a23.49,23.49,0,0,1-3.7-1.4l-2.7-2.5c1-.7,2.5,1.1,2.5,1.1L44,37.8l2.3,1.8,2,2.2.5-3.9-.5-4.2L46.6,31l-1.8-2.2-2.2-2.2a1.11,1.11,0,0,1,1.5-.2.55.55,0,0,1,.3.5l2.7,2.7,3.3,4.8-.5,4.2,2.2,2.7.2-3.5,1.5-6-1.4-4.5-1.1-4.9-2.8-3.7L45,14.3l-3.2-1.1L38,9.8c1-.4,3.2.9,3.2.9L44.1,13l3.9.9,1.7,3.6L51.5,19l3.3-5.2.4-3,2.9-5.9c.9.5-.4,3-.4,3l-.9,3.7-1.4,3.7-2,2.2-.2,3.7.2,5.6L54.7,29l1.8-2.5,2.4-1.8,2.9-2.4,1.8-2.7s.1-1.9,1.5-1.8L64,21.7l-2,2.9-2,1.5-2.7,2.7-1.8,2.5-1.3,6,.3,8,1.1,5.4,4.7-8.6L65,36.7l2-2,.4-3.3L66.6,28l.6-2.8.8-1.4.9-1.5.3,3.3-1,1.6.8,2.3.1,3,.6,1.4,4.1-2.1,4.5-4.9,3.4-3.3,4-5.8L86,13c.9.3,1.5,2.7,1.5,2.7l-.9,3-4.3,5.6-3.4,6.3-3.2,2.9,2.6-.3L81,31.5h7.9l3.1-1,2.4-2A2.28,2.28,0,0,1,93.3,31s-4.3,1.4-5,1.6a12.57,12.57,0,0,1-3.3.5l2.8,1.1,4.2.4c-.3,1.2-2.4,1-2.4,1l-3.9-1.2-2.1-.1-2.3-.8-2.4,1.8-2.9.6L79.2,37s1.6.6,1.6,1.3,3.4,2,3.4,2l3.3.4,3-.1a4.3,4.3,0,0,1-3.1,1.2l-3-.4-3.6-2L77.3,39l-3.7-1.6-2.1-.8L67,37.7l-3.9,6.6,5.4-.6,2,1H74l2.2-1.4.2-.1,2.4-.6c.9,1.4-3.5,3.6-3.5,3.6l-4.7.2-4.5,1.2-3,6.1,7-2.4s3,1.3,3.7,1.1,8.3-2.9,8.3-2.9l3.7-3.1,3.6-1.9,4.7-.2,2.2-1.8,2.2-1.8-.3,1.4-1.5,1.8-1.5,1.6-2.1.6-3.4.8,4.2.7,5.6-.4,3.9,1.1,1.8,1.3,3.4,2,1.4.3c-3.8.3-4.6-1-4.6-1l-4.1-2.3-3,.1-5,.4-3.3.3-1.8-.5-2.6,1.3-3.4,1.5a4.42,4.42,0,0,0,1.6.6l3.5.1,4.8,1.2a2,2,0,0,1,1.6,1,16.59,16.59,0,0,0,2.2,3.2,27.32,27.32,0,0,0-2.6-1.1L91.8,55l-3.7-.9-3.9-.7-3.3.3-3.2-.9-4.3,1.4-4.7,1.2-4.4,2.5-1.7,2.3-1.3,6.5L61,72.1l-.9,3.2.4,5.2,1,7.5,2.1,8.9,3.5,5.6,4.4,4.2,7,3.6A37.11,37.11,0,0,1,86.6,112.4Z" style="fill:#574109"/><path d="M62.1,49.7l1.4-3s3.4-2.3,4.1-1.3l-2.3.7-2.2,2.8L61.6,53l-2,3-.5,3.1-2,4.1s-1.1,3.7-.7,5.1a9.26,9.26,0,0,1-.2,3.7l-1.7,5.5a36,36,0,0,1,.8-5.6l-.1-4.6,1.2-4.1,1.6-4,.7-3.5,1.6-3.3-.7-1.7V47.9a33.35,33.35,0,0,0,2-3.5A18.34,18.34,0,0,1,62.9,42l.2-.4,1.6-3,.1,1.6-1,2-1.9,3.3L61,47.6l-.6,2,1,2.1Z" style="fill:#9a7f55"/><path d="M54.5,52.2l-2.3-2.4.9-2.1V44.4s.1-5,.1-5.6c-.6,0-.5,1.4-.5,1.4L52,46.4l-1.4-3-.3-1.9-1-1.8c-.3.4.2,2.2.2,2.2l-.1,1.2-1.3-.5-.6-.7v.6l.6,1.2,1.7,1,1,.6.8,2.1-.3,3.1,1.5,1.2.7,1.9,2,1.4-2,4.1v3l.7,4.1.5-2.8-.3-2.2.4-2.9,2.1-3.8.6-2.4L58,50l.7-1.6-.9.8-.9,1.7-.6.6-.4,2.6Z" style="fill:#9a7f55"/><path d="M51.4,59.2l.1-2L50.3,55,49,53.5l-2.7-.4-1.9-1.4-2.8-.3-1.3.7-2.9.5-3.6,1.6c.4-.7,2.9-2,2.9-2l-1.5-.8H33.3l-1.9.6a7.5,7.5,0,0,1,2-1l2.3-.5,1.7.2,1.6.4,2.1-.4,1.9-.5,2.7,1.2,2,.2,1.7.7-.7-1.7-2.4-1.1H43.5L42,49.3l-1.4-.5L39,47.5l-2.2-1.3,2.1.7,2.4,1.3,1.4.1,4,.1,1.8,1.1L50.4,51l.3,2.3L52.3,56Z" style="fill:#9a7f55"/><path d="M31.7,39.1l.4-2.5,1.6-2,.4-1.6L32,35.5l-1-.4V33.6l-.7-2.7v1.9L30,34.9l.3,2-1.2-.4-1.4-.3L24.1,35l.8.9L27.3,37l1.1.7,2.2,2,1.2,2.2s2.9,2.8,2.5,2.1a15.91,15.91,0,0,0-2-2.4Z" style="fill:#9a7f55"/><path d="M85.1,48.8,86.9,47l2.6-1.4,2.4-.6a2.34,2.34,0,0,1-1.2,1l-1.6.5-.9.7,1.5.3,1.7.4,1.8.3,1.2-.2c-.1.3-1.9.5-1.9.5l-2.7-.1-2.1-.7-1.6,1.2L83.2,50Z" style="fill:#9a7f55"/><path d="M68.1,33v1.4l-.8,1.3-.9.7a1.91,1.91,0,0,0,1.3.2l2.6-.8,1.9.2,2.8.7,2.7,1.5a6.33,6.33,0,0,0-2.4-1.6l-.8-.9,1.7-.5,1.8-.4,1.8-.8-1.5-.2-1.4.5-1.8.3-1.3.2,1-1.2L76.3,32l1.6-1.2,1.2-2.6-.5-.1L78,29.2l-1,1-2,2.1-.9.9-1.6,1.3-2,.4H69.1Z" style="fill:#9a7f55"/><polygon points="54.5 80.8 55.2 86.2 56.1 92.2 55.5 95.3 55.9 98.1 56.7 99.8 62 104.9 56.8 101.8 57.6 105.9 57.9 110.3 56 105.5 54.8 100.9 50.7 105.9 47.5 107.6 52.4 102.4 47.3 104.5 44.2 104.9 49.3 102.1 53.4 100.6 54.3 97.7 54.9 92.1 54.5 88.3 54.5 80.8" style="fill:#9a7f55"/><polygon points="7.3 49.3 9 46.6 10.3 45.7 12.5 43.5 15.3 43.4 22.7 45.9 27 44 33.2 45.8 36.6 43.1 42.2 42.7 46.1 44.1 41.9 44.6 38.1 46 36.9 50.4 31.9 52.2 27.8 55.5 25.4 60.5 18.3 61.3 13.5 62.9 9.5 62.7 6.7 60.2 2.5 58.9 0 58 0.5 56.2 2.8 55.4 7 55.6 10.5 54.1 15 56 17.4 53.3 15 52.3 12.4 50.3 9.3 51.7 7.3 49.3" style="fill:#007b4c"/><path d="M8,37,5.6,34.5l.9-2.8,2.7-1.3,3-.1.6-2.5.4-2.6,3-2.9,1.9-4.8,1-2.5,1.7-1.8,3.5.9,5.2-1.8,1.4-4.4,3.9-3.8,7.1-2,6.8,3.2s2.1-3.6,3-3.8S57.9,0,57.9,0l6.2.5,6.3,4.1,2.3,8.5,3.6-1.4,3,1.1.5,3.1-2.4,3-4.2-.2-2.7,3.1-2.2,4.6-4.6,3.5-4,1.2-3.1,5.7-2,2-6.3.3-2.4,1.5-2.3.3L39.9,40l-2.7-1.4L35.9,36l1.6-3.2,4.3-1.9,4.7-.2,4.6-3.3-1.6-1.5-3.1,1.7-4,.5-2.6.6-3.1,1.7-1.3,1.8-1.6,3.4-3.5,1.3-1.2-.5-4.2-.7L21,38.8l-3.8.3-1.3-2.6,1.6-3.2,3.1-1,1.9-1.1,5-1.4,1.7-2L31,25.3l1-2.6-2,2.2-3.9,2.8-4,1-2.7,1.7-3.8,1.2-2.8,4.1C12.9,35.9,10,37.5,8,37Z" style="fill:#007b4c"/><path d="M71.1,30.7,72.2,28l5-1.6.6-2.5,3.4-3.3.4-2.6-1-3.6,1.5-2.3,3.5-.5,3.2,1.3,3.3,4.2-.2,4L94,25.9l3.8,3,3.9,1.6L104,36l-.6,3.9,4,3,1,4s3.7,2.1,3.6,2.7a12.66,12.66,0,0,0,.6,2.8l-1.9,1.3-3.8,1-3.4-2.5-2.8.4H92.9l3.2,4.2-.2,3-3.1.3-2.4-2.5-3-1.1-6.3-1-2.6,1s-3.1,1.5-4.3,1.2a14.48,14.48,0,0,1-3.4-2l-2-2.4-3.4-2.5L66,49l2.4-1,2.8.8,4.2.2,1.7-1.8-.8-2.6-1.5-2-3.3-.2H67.3a11.33,11.33,0,0,1-2.6-.1c-.9-.3-2.1-.6-2.1-.6l-1.3-2.2,1-2.3,3.6-1.9,2.6-.4,7.3,3.3L79.4,41,82,39.7l2.5-2.6-2.9,1-1.6.8a2.56,2.56,0,0,1-1.6-1.3c-.4-1-4.1-1.4-4.1-1.4l-1.4-.8-.6-1.2-2-1.5Z" style="fill:#007b4c"/></symbol></defs><g style="isolation:isolate"><rect x="-0.2" width="127.3" height="79.4" style="fill:#e5cd65"/><path d="M-.4,30.7c6.2-1,15.2-1.5,24.2,2.5,6.9,3.1,9.6,6.8,16.1,11.5h0A66.9,66.9,0,0,0,55.8,54c4.8,1.9,8.5,2.5,13.8,3.6,10.4,1.8,11.2.3,16.7,2.4,2.6,1,10.1,4.3,12.4,11.2.8,2.4.5,3.7.3,4-1.1,3.2-6.2,4.9-12.9,4.3H-.4Z" style="fill:#04af1c"/><path d="M30.3.1a123.59,123.59,0,0,1,24.6,16c3.8,3.2,3.1,3.2,6.4,5.9a76.15,76.15,0,0,0,13,8.8c10.9,5.6,15.2.6,26,4.7,12.7,4.7,19.2,16.1,20.9,19a47.68,47.68,0,0,1,6.1,25.1V.1Z" style="fill:#04af1c"/><g style="clip-path:url(#a)"><g style="clip-path:url(#b)"><g style="clip-path:url(#c)"><g style="clip-path:url(#d)"><use width="135.26" height="121.9" transform="translate(86.31 4.03) scale(0.16 0.2)" xlink:href="#h"/></g></g></g></g><g style="clip-path:url(#e)"><g style="clip-path:url(#e)"><g style="clip-path:url(#g)"><use width="112.6" height="123.6" transform="translate(11.95 31.94) scale(0.28 0.29)" xlink:href="#i"/></g></g></g><path d="M30.07,23.64a3,3,0,1,1-3-3A3,3,0,0,1,30.07,23.64Z" style="fill:#1d1d1b"/><path d="M28.37,23.64a1.32,1.32,0,1,1-1.32-1.31A1.32,1.32,0,0,1,28.37,23.64Z" style="fill:#4d4d4d"/><path d="M27.15,23.18a.51.51,0,1,1-.51-.5A.5.5,0,0,1,27.15,23.18Z" style="fill:#767476"/><path d="M41.69,23.64a3,3,0,1,1-3-3A3,3,0,0,1,41.69,23.64Z" style="fill:#1d1d1b"/><path d="M40,23.64a1.32,1.32,0,1,1-1.32-1.31A1.32,1.32,0,0,1,40,23.64Z" style="fill:#4d4d4d"/><path d="M38.77,23.18a.5.5,0,0,1-.5.5.5.5,0,0,1,0-1A.5.5,0,0,1,38.77,23.18Z" style="fill:#767476"/><path d="M43.91,18a38.13,38.13,0,0,0-4.2-.75s.83-7.42-7.52-7.53-7.47,7.37-7.47,7.37-4.52,1.19-4.52,2.7V23s-.31,1.25,1.25,1.3h2.78a3,3,0,0,1-.08-.67,2.91,2.91,0,1,1,5.81,0,3,3,0,0,1-.09.67h6a3,3,0,0,1-.08-.67,2.91,2.91,0,1,1,5.81,0,3,3,0,0,1-.09.67h2.58s1.45.16,1.45-.73V19.91S45.84,18.51,43.91,18Z" style="fill:#e30613"/><g style="mix-blend-mode:multiply"><path d="M20.2,20.42V23s-.31,1.25,1.25,1.3h2.78a3,3,0,0,1-.08-.67,2.91,2.91,0,1,1,5.81,0,3,3,0,0,1-.09.67h6a3,3,0,0,1-.08-.67,2.91,2.91,0,1,1,5.81,0,3,3,0,0,1-.09.67h2.58s1.45.16,1.45-.73V20.42Z" style="fill:#cecece"/></g><path d="M31.67,10.36c-5.65.45-6.38,4.18-6.33,6.84h6.33Z" style="fill:#9fd7f7"/><path d="M31.36,11.23c-4.68.37-5.28,3.46-5.24,5.66h5.24Z" style="fill:#dbedfb"/><path d="M32.55,17.2h6.74s-.26-7-6.74-6.9Z" style="fill:#9fd7f7"/><path d="M32.76,16.74h5.17s-.2-5.37-5.17-5.29Z" style="fill:#dbedfb"/><path d="M31.46,18.47a.34.34,0,0,1-.34.34h-.77a.34.34,0,0,1-.34-.34h0a.34.34,0,0,1,.34-.33h.77a.34.34,0,0,1,.34.33Z" style="fill:#1d1d1b"/><path d="M24.09,23.79a1,1,0,0,1-1,1H21a1,1,0,0,1-1-1h0a1,1,0,0,1,1-1h2.1a1,1,0,0,1,1,1Z" style="fill:#e30613"/><path d="M45.92,23.79a1,1,0,0,1-1,1h-2.1a1,1,0,0,1-1-1h0a1,1,0,0,1,1-1h2.1a1,1,0,0,1,1,1Z" style="fill:#e30613"/><path d="M21.68,20.25c0,.65-.29,1.18-.64,1.18s-.64-.53-.64-1.18.28-1.19.64-1.19S21.68,19.59,21.68,20.25Z" style="fill:#f8b056"/><path d="M21,19.78c0,.16-.07.29-.16.29s-.16-.13-.16-.29.07-.29.16-.29S21,19.62,21,19.78Z" style="fill:#fff"/><path d="M45.32,21.47c0,.33-.15.59-.32.59s-.32-.26-.32-.59.14-.59.32-.59S45.32,21.14,45.32,21.47Z" style="fill:#f8b056"/><path d="M45,21.24c0,.08,0,.14-.08.14s-.08-.06-.08-.14,0-.15.08-.15S45,21.16,45,21.24Z" style="fill:#fff"/><path d="M38.93,18.47a.34.34,0,0,1-.34.34h-.77a.34.34,0,0,1-.34-.34h0a.34.34,0,0,1,.34-.33h.77a.34.34,0,0,1,.34.33Z" style="fill:#1d1d1b"/><text transform="translate(28.49 19.93) scale(1.2 1)" style="isolation:isolate;font-size:10.021100044250488px;font-family:ArialMT, Arial">1</text><path d="M59,41.86a3,3,0,1,1-3-3A3,3,0,0,1,59,41.86Z" style="fill:#1d1d1b"/><path d="M57.3,41.86A1.32,1.32,0,1,1,56,40.54,1.31,1.31,0,0,1,57.3,41.86Z" style="fill:#4d4d4d"/><path d="M56.08,41.39a.5.5,0,0,1-.5.5.5.5,0,0,1-.5-.5.51.51,0,0,1,.5-.5A.5.5,0,0,1,56.08,41.39Z" style="fill:#767476"/><path d="M70.62,41.86a3,3,0,1,1-3-3A3,3,0,0,1,70.62,41.86Z" style="fill:#1d1d1b"/><path d="M68.93,41.86a1.32,1.32,0,1,1-1.32-1.32A1.32,1.32,0,0,1,68.93,41.86Z" style="fill:#4d4d4d"/><path d="M67.7,41.39a.5.5,0,0,1-.5.5.5.5,0,0,1-.5-.5.51.51,0,0,1,.5-.5A.5.5,0,0,1,67.7,41.39Z" style="fill:#767476"/><path d="M72.85,36.22a38.55,38.55,0,0,0-4.2-.75s.82-7.42-7.53-7.52-7.47,7.36-7.47,7.36S49.14,36.5,49.14,38v3.22s-.31,1.24,1.24,1.29h2.79a2.9,2.9,0,1,1,5.64,0h6a2.9,2.9,0,1,1,5.64,0h2.57s1.46.16,1.46-.72V38.13S74.78,36.73,72.85,36.22Z" style="fill:#ffdd45"/><g style="mix-blend-mode:multiply"><path d="M49.14,38.63v2.6s-.31,1.24,1.24,1.29h2.79a2.9,2.9,0,1,1,5.64,0h6a2.9,2.9,0,1,1,5.64,0h2.57s1.46.16,1.46-.72V38.63Z" style="fill:#f9bb09"/></g><path d="M60.6,28.58c-5.65.44-6.37,4.17-6.32,6.84H60.6Z" style="fill:#9fd7f7"/><path d="M60.29,29.44c-4.67.37-5.28,3.46-5.24,5.66h5.24Z" style="fill:#dbedfb"/><path d="M61.49,35.42h6.74s-.26-7-6.74-6.9Z" style="fill:#9fd7f7"/><path d="M61.69,35h5.18s-.2-5.37-5.18-5.29Z" style="fill:#dbedfb"/><path d="M60.4,36.69a.34.34,0,0,1-.34.33h-.78a.34.34,0,0,1-.34-.33h0a.34.34,0,0,1,.34-.34h.78a.34.34,0,0,1,.34.34Z" style="fill:#d86704"/><path d="M53,42a1,1,0,0,1-1,1H49.9a1,1,0,0,1-1-1h0a1,1,0,0,1,1-1H52a1,1,0,0,1,1,1Z" style="fill:#d86704"/><path d="M74.86,42a1,1,0,0,1-1,1H71.72a1,1,0,0,1-1-1h0a1,1,0,0,1,1-1h2.11a1,1,0,0,1,1,1Z" style="fill:#d86704"/><path d="M50.62,38.46c0,.65-.29,1.18-.65,1.18s-.64-.53-.64-1.18.29-1.19.64-1.19S50.62,37.8,50.62,38.46Z" style="fill:#e30613"/><path d="M49.88,38c0,.16-.07.29-.16.29s-.15-.13-.15-.29.07-.29.15-.29S49.88,37.83,49.88,38Z" style="fill:#fff"/><path d="M74.25,39.68c0,.33-.14.6-.32.6s-.32-.27-.32-.6.15-.59.32-.59S74.25,39.36,74.25,39.68Z" style="fill:#e30613"/><path d="M73.89,39.45c0,.08,0,.15-.08.15s-.08-.07-.08-.15,0-.15.08-.15S73.89,39.37,73.89,39.45Z" style="fill:#fff"/><path d="M67.87,36.69a.34.34,0,0,1-.34.33h-.78a.34.34,0,0,1-.34-.33h0a.34.34,0,0,1,.34-.34h.78a.34.34,0,0,1,.34.34Z" style="fill:#d86704"/><text transform="translate(58.14 40.38) scale(0.98 1)" style="isolation:isolate;font-size:12.236599922180176px;font-family:ArialMT, Arial">2</text><path d="M96.89,57.58a3,3,0,1,1-3-3A3,3,0,0,1,96.89,57.58Z" style="fill:#1d1d1b"/><path d="M95.19,57.58a1.32,1.32,0,1,1-1.31-1.32A1.32,1.32,0,0,1,95.19,57.58Z" style="fill:#4d4d4d"/><path d="M94,57.12a.5.5,0,1,1-.5-.51A.5.5,0,0,1,94,57.12Z" style="fill:#767476"/><path d="M108.51,57.58a3,3,0,1,1-3-3A3,3,0,0,1,108.51,57.58Z" style="fill:#1d1d1b"/><path d="M106.81,57.58a1.32,1.32,0,1,1-1.31-1.32A1.32,1.32,0,0,1,106.81,57.58Z" style="fill:#4d4d4d"/><path d="M105.59,57.12a.5.5,0,1,1-.5-.51A.5.5,0,0,1,105.59,57.12Z" style="fill:#767476"/><path d="M110.74,51.94a38.55,38.55,0,0,0-4.21-.75s.83-7.42-7.52-7.52S91.54,51,91.54,51,87,52.23,87,53.73V57s-.31,1.24,1.24,1.29h2.79a2.9,2.9,0,1,1,5.72-.67,2.46,2.46,0,0,1-.09.67h6a2.9,2.9,0,1,1,5.64,0h2.57s1.46.16,1.46-.72V53.85S112.67,52.45,110.74,51.94Z" style="fill:#0085c7"/><path d="M87,54.35V57s-.31,1.24,1.24,1.29h2.79a2.9,2.9,0,1,1,5.72-.67,2.46,2.46,0,0,1-.09.67h6a2.9,2.9,0,1,1,5.64,0h2.57s1.46.16,1.46-.72V54.35Z" style="fill:#095d99"/><path d="M98.49,44.3c-5.65.44-6.38,4.17-6.33,6.84h6.33Z" style="fill:#9fd7f7"/><path d="M98.18,45.16c-4.68.37-5.28,3.46-5.24,5.67h5.24Z" style="fill:#dbedfb"/><path d="M99.38,51.14h6.74s-.26-7-6.74-6.9Z" style="fill:#9fd7f7"/><path d="M99.58,50.67h5.18s-.2-5.37-5.18-5.29Z" style="fill:#dbedfb"/><path d="M98.29,52.41a.34.34,0,0,1-.34.33h-.78a.34.34,0,0,1-.34-.33h0a.34.34,0,0,1,.34-.34H98a.34.34,0,0,1,.34.34Z" style="fill:#04355a"/><path d="M90.92,57.72a1,1,0,0,1-1,1h-2.1a1,1,0,0,1-1-1h0a1,1,0,0,1,1-1h2.1a1,1,0,0,1,1,1Z" style="fill:#0a4674"/><path d="M112.75,57.72a1,1,0,0,1-1,1h-2.11a1,1,0,0,1-1-1h0a1,1,0,0,1,1-1h2.11a1,1,0,0,1,1,1Z" style="fill:#0a4674"/><path d="M88.51,54.18c0,.65-.29,1.19-.65,1.19s-.64-.54-.64-1.19.29-1.19.64-1.19S88.51,53.52,88.51,54.18Z" style="fill:#f8b056"/><path d="M87.77,53.71c0,.16-.07.29-.16.29s-.15-.13-.15-.29.07-.29.15-.29S87.77,53.55,87.77,53.71Z" style="fill:#fff"/><path d="M112.14,55.4c0,.33-.14.6-.32.6s-.32-.27-.32-.6.14-.59.32-.59S112.14,55.08,112.14,55.4Z" style="fill:#f8b056"/><path d="M111.78,55.17c0,.08,0,.15-.08.15s-.08-.07-.08-.15,0-.15.08-.15S111.78,55.09,111.78,55.17Z" style="fill:#fff"/><path d="M105.76,52.41a.34.34,0,0,1-.34.33h-.78a.34.34,0,0,1-.34-.33h0a.34.34,0,0,1,.34-.34h.78a.34.34,0,0,1,.34.34Z" style="fill:#04355a"/><text transform="translate(95.41 55.49) scale(1.02 1)" style="isolation:isolate;font-size:11.392499923706055px;font-family:ArialMT, Arial">3</text></g></svg>