<svg xmlns="http://www.w3.org/2000/svg" xmlns:xlink="http://www.w3.org/1999/xlink" viewBox="0 0 127.31 77.87"><defs><clipPath id="a"><rect x="87.04" y="3.91" width="21.65" height="24.4" style="fill:none"/></clipPath><clipPath id="b"><rect x="86.9" y="3.89" width="21.65" height="24.4" style="fill:none"/></clipPath><clipPath id="c"><rect x="12.26" y="31.45" width="31.48" height="34.59" style="fill:none"/></clipPath><linearGradient id="d" x1="45.25" y1="-1342.75" x2="51.64" y2="-1342.75" gradientTransform="matrix(1, 0, 0, -1, 20.53, -1318.17)" gradientUnits="userSpaceOnUse"><stop offset="0" stop-color="#f3c8a2"/><stop offset="0.55" stop-color="#e9a967"/><stop offset="0.93" stop-color="#dd9b5e"/></linearGradient><linearGradient id="e" x1="45.62" y1="-1342.48" x2="51.62" y2="-1342.48" xlink:href="#d"/><linearGradient id="f" x1="46.49" y1="-1342.48" x2="51.63" y2="-1342.48" xlink:href="#d"/><linearGradient id="g" x1="104.36" y1="51.86" x2="104.69" y2="51.86" gradientUnits="userSpaceOnUse"><stop offset="0" stop-color="#ffb87d"/><stop offset="0.53" stop-color="#ca6d4c"/><stop offset="0.99" stop-color="#a05c38"/></linearGradient><linearGradient id="h" x1="106.68" y1="51.86" x2="107" y2="51.86" xlink:href="#g"/><linearGradient id="i" x1="105.68" y1="54.33" x2="105.68" y2="54.55" xlink:href="#g"/><linearGradient id="j" x1="105.69" y1="49.2" x2="105.69" y2="49.46" xlink:href="#g"/><linearGradient id="k" x1="104.48" y1="49.58" x2="106.87" y2="54.35" xlink:href="#g"/><linearGradient id="l" x1="104.47" y1="51.82" x2="105.39" y2="49.56" gradientUnits="userSpaceOnUse"><stop offset="0" stop-color="#ca6d4c"/><stop offset="1" stop-color="#ffb87d"/></linearGradient><linearGradient id="m" x1="104.86" y1="50.6" x2="105.13" y2="50.6" gradientUnits="userSpaceOnUse"><stop offset="0" stop-color="#d3b994"/><stop offset="1" stop-color="#6c5030"/></linearGradient><linearGradient id="n" x1="106.34" y1="51.35" x2="106.53" y2="48.81" xlink:href="#l"/><linearGradient id="o" x1="105.69" y1="49.7" x2="105.69" y2="49.99" xlink:href="#l"/><linearGradient id="p" x1="-469.8" y1="-125.6" x2="-468.54" y2="-125.6" gradientTransform="translate(-363.41 -75.79) rotate(180)" xlink:href="#m"/><linearGradient id="q" x1="105.69" y1="51.59" x2="105.7" y2="51.22" xlink:href="#l"/><linearGradient id="r" x1="104.86" y1="51.38" x2="106.53" y2="51.38" xlink:href="#m"/><linearGradient id="s" x1="106.21" y1="50.6" x2="106.55" y2="50.6" xlink:href="#m"/><linearGradient id="t" x1="105.23" y1="49.8" x2="106.1" y2="51.54" gradientUnits="userSpaceOnUse"><stop offset="0" stop-color="#fff"/><stop offset="0.53" stop-color="#ca6d4c"/><stop offset="0.99" stop-color="#a05c38"/></linearGradient><linearGradient id="u" x1="104.41" y1="54.15" x2="105.3" y2="51.97" xlink:href="#l"/><linearGradient id="v" x1="104.86" y1="52.97" x2="104.99" y2="52.97" xlink:href="#m"/><linearGradient id="w" x1="106.41" y1="53.73" x2="106.6" y2="51.17" xlink:href="#l"/><linearGradient id="x" x1="105.69" y1="52.08" x2="105.69" y2="52.36" xlink:href="#l"/><linearGradient id="y" x1="-469.94" y1="-127.98" x2="-468.4" y2="-127.98" gradientTransform="translate(-363.41 -75.79) rotate(180)" xlink:href="#m"/><linearGradient id="z" x1="105.69" y1="53.96" x2="105.7" y2="53.6" xlink:href="#l"/><linearGradient id="aa" x1="104.86" y1="53.76" x2="106.53" y2="53.76" xlink:href="#m"/><linearGradient id="ab" x1="106.37" y1="52.97" x2="106.54" y2="52.97" xlink:href="#m"/><linearGradient id="ac" x1="105.25" y1="52.08" x2="106.16" y2="53.89" xlink:href="#t"/><linearGradient id="ad" x1="107.5" y1="54.56" x2="102.94" y2="48" xlink:href="#l"/><linearGradient id="ae" x1="103.75" y1="52.95" x2="108.51" y2="51.23" xlink:href="#m"/><linearGradient id="af" x1="106.44" y1="51.85" x2="106.52" y2="51.85" gradientUnits="userSpaceOnUse"><stop offset="0" stop-color="#7e7f82"/><stop offset="0.01" stop-color="#838487"/><stop offset="0.09" stop-color="#9d9ea0"/><stop offset="0.16" stop-color="#b0b1b2"/><stop offset="0.24" stop-color="#bbbcbd"/><stop offset="0.33" stop-color="#bfc0c1"/><stop offset="1" stop-color="#404040"/></linearGradient><radialGradient id="ag" cx="-123.29" cy="268.93" r="0.5" gradientTransform="translate(123.77 8.05) scale(0.14 0.16)" gradientUnits="userSpaceOnUse"><stop offset="0" stop-color="#e2e3e2"/><stop offset="0.23" stop-color="#b5b5b5"/><stop offset="0.46" stop-color="#909190"/><stop offset="0.67" stop-color="#767776"/><stop offset="0.85" stop-color="#676767"/><stop offset="1" stop-color="#616161"/></radialGradient><radialGradient id="ah" cx="-123.29" cy="272.3" r="0.5" xlink:href="#ag"/><symbol id="ai" viewBox="0 0 135.32 122.01"><path d="M19.43,48.72c5.31,1.33,9.12.94,10.78-.88,3.15-1,9.74.9,11.89,3.06,1.37,1.45,3.34,2.58,3.91,4.55s4.51,6.21,5.92,7.62,6.49,6.77,5.08,9.87a9.35,9.35,0,0,0-5.64-4.51c-2-.56-7-4.23-8.46-3.67a6.82,6.82,0,0,1-4.24.57c-2-.28-2.82.56-5.07,0a9.88,9.88,0,0,0-4.8.28s-2.31-5.47-2.64-6.8l.39,6.8c-7.34-2-11.64-12.84-12.13-14.67-.17,11.61,10.74,16.33,10.74,16.33s-8.49-3-11.31-3.64c1.66,2,5.78,3,6.77,4C18.8,67,11.3,71.37,10.47,71.86l11-2.82c4.71-.5,13.37-.16,20.68,3.36,2.31,1.12,5.12,1.83,6,2.57,1.28,1,1.17,2.61,2.2,3.94a19.87,19.87,0,0,1,3,5.73c3.22,13.71-2,25.92-2,25.92-.84.8-3.35,6.74-3.35,6.74l6.63-1.47L56.39,118l7.22,1.45,1.94,2.1,5.66-.78,2.55-5.06,8.8,2.71s4.07,3,4.91,3,6.94-2.71,8.46-2.88c0,0-4.57-1.19-8.63-7.28C81.48,102.63,83.24,94,82.73,89c-.06-.63-.1-1.27-.12-1.89-.16-4.4.63-8.5,1.82-10.13.58-.81,1.17-1.83,1.76-2.75C87,73,87.79,72,88.66,71.87c1.52-.17,4.4-2.88,5.58-4.06s6.43-2.71,8.8-2,3.22,3.55,3.22,3.55,3.89,1.36,6.6,2,7.45,4.4,9.32,5.76,2.7,7.28,4.39,8.8c-.34-.51-1.19-4.4-2.54-9.31s-5.59-3.89-8.29-5.92-4.4-1.19-6.94-3.56-1.19-4.4-1.19-4.4l2.71.34s1.86.68,2.37.85,1.86.67,5.25,1.52,8.46-1.18,11-1.35c-2-.68-5.59-.34-9.65-.51s-5.25-1.19-9.48-3.73-13.45,2.37-16.25,2.54c-5.58.34-16.32,5.87-16.41,5.93A11,11,0,0,1,78,62.39c1-2,2.2-4.23,4.9-5.41s4.24-6.43,4.24-7.11,6.42-3.22,6.42-3.22A36.19,36.19,0,0,0,105.07,45a63.16,63.16,0,0,1-7.78-.17c2.2-2.37,11.34-1.35,14.89-1.35C90,35.82,75.27,56.87,73.78,58.36c-1-5.64,5.48-12.11,6.91-13.49,0,0,1-3.26,11.83-9.73,12.53-7.52,20.26-13.74,17.25-11.78s-10.78,7-16.09,8c2.49-3,4.48-8,3.49-11.94C96,33,84.56,34.81,81.25,35.8c-2.82-.33-3.32-13.43-3.32-13.43s8.46-5.81,8.13-9c-1.66,4.81-9.46,6.47-10.45,7.8-.67-7-3.49-11-7.3-12.11,1.16.17,5.47,4.48,5.14,7.46s2,10.12,2.16,20.24-5.48,9-8.8,12.6c1.35-2.1-3.88-7.2-3.88-7.2a53.22,53.22,0,0,0-6.2-5.32c-2-1.16-2.54-2.84-3.44-5.59,6.43-3,7.55-7.72,6.56-10.54.66,7-7.3,7.46-9.62,9.62,0,0,2.32-14.27,0-17.08,2.32,3.48-1.49,14.42-2,16.41-1.49-1.16-7.14-1.75-10.13-5.23.51,2.71,19.14,11.65,22.52,26.71,2.49,4.48,2.3,11.55,2.13,17.68-4-16.58-24.34-24.33-29.15-25.49C32.27,38.52,31.06,34,21.7,33c6,.83,7.8,7.63,7,9.29a5.31,5.31,0,0,1-4.1.21l-1.13-.85s-4-2.54-6.49-2.25c1.7,2,10,3.57,10.16,7.61Z" style="fill:#deb13d"/><path d="M64.5,120.62s-2-4.8,0-9,2.5-4.52,2.5-6.49-.56-5.92-.56-7.33a22.76,22.76,0,0,1,0-4.52c.28-1.69.84-4,.84-4s1.7-7.33,2-8.18A9.55,9.55,0,0,0,69,74.9c-.85,2.25-.57,7.89-.57,7.89s-2.82,4.52-3.1,5.93a17.48,17.48,0,0,0,.28,4.51c-.85,1.41-.85,4.52-.85,4.52l-.66,2.58.37,2.58a30.15,30.15,0,0,0-.83,3.86c0,.85-.28,3.1-.28,3.1L63.1,113l-2,2.25-3.26,3.15Z" style="fill:#a36c31"/><path d="M58.7,94.66A6.15,6.15,0,0,1,57,99.18v2.25s-2.26,5.36-2,7.06-.57,5.35,2,6.76l2.26-3.1.28-4.8-2.54-2L59,102a45.23,45.23,0,0,0,.85-6.77l1.69-2v-5c0-1.13-1.41-6.78-1.13-8.47S58.16,75,58.16,75L57,73l2,5.93s-.56,11,.57,11.56S58.7,94.66,58.7,94.66Z" style="fill:#a36c31"/><path d="M73.86,56A10.77,10.77,0,0,1,75,52.39,24.43,24.43,0,0,1,77.15,49a23.84,23.84,0,0,1,2.94-3.49,6.41,6.41,0,0,0,1.48-1.83c.86-1.44,2.16-2.23,3.69-3.61,0,0-4.56,2.44-5.69,3.29S75.06,47,74.78,48.69,69.7,51.51,70,53.48a38,38,0,0,1,.57,6.21c0,2.53,2.82,1.69,1.69,7S70.55,76.33,71.11,78s1.41,4.23.85,6.77-2,8.46-2,9.59.57,5.64.57,8.75.66,17.46-3.85,18.59c4.51-1.13,8.93-6.19,9.21-7.89l.28-4.51-2.26-5.64-.56-6.49L75.63,91,74.5,77.46l1.41-7.06s.28-6.48-.57-9-1.56-3-1.56-3A10.07,10.07,0,0,1,73.86,56Z" style="fill:#703d20"/><path d="M86.35,64.48s-7.9,2-8.75,5.36c-.53,2.13-1.91,4.21-2.26,7.9a33.06,33.06,0,0,0,1.13,10.15C77,89.3,79,91,75.91,94.1s-.57,7.9,0,9.87,2,5.92,2,7.33,2,6.44,4.68,7.17C81,119.2,77,117.23,77,117.23s-1.7-1.13-2.82-.85S72,121.73,72,121.73l-2.52.28-2.82-.28c1.41-1.41,4.41-4.22,4.41-4.22l2-4,2-5.07s-2.54-5.65-2.82-6.49-.28-8.47.57-9.31.84-6.21.56-7,2-13.26,1.41-15.52S79,63.63,86.35,64.48Z" style="fill:#a36c31"/><path d="M33.6,43.33s6.2,1.12,7.33,2.54,4.51,2,4.51,2,2.83.28,3.67,1.41a18.07,18.07,0,0,0,4,4.23c1.69,1.13,7,5.08,7,5.92a41.31,41.31,0,0,0,1.13,4.8L63.5,69l-3.11-2.53s-2.82-4.8-3.66-6.49a19.6,19.6,0,0,0-5.64-6.21,69.2,69.2,0,0,1-6.21-3.66A41,41,0,0,0,40.37,47C37.55,45.3,33.6,43.33,33.6,43.33Z" style="fill:#a36c31"/><path d="M53.29,31.25a17,17,0,0,0,2,3.61c.84.85,2.53-.28,3.38,2s2.54,2.54,3.39,4,5.36,4.51,5.36,5.36v2l-.57,4.23s-1.66-4.28-2.22-5.4-2-4.23-4.52-5.64-3.1-.28-4-3.38A10.7,10.7,0,0,0,52.73,33Z" style="fill:#a36c31"/><path d="M28.8,65.61s3.1-1.41,4.8-.28,4.79-1.57,7.61.12c1.69-.85,1.73-1.56,5.12.42a65.69,65.69,0,0,0,8.22,3.79L57,72.94l1.13,2a6.08,6.08,0,0,1-2.54-1.69c-1.41-1.42-4-4-5.92-4s-5.08-2-7.34-2.26-4.51.28-5.92,0S31.06,65.61,28.8,65.61Z" style="fill:#a36c31"/><path d="M93.11,69s2.82-2.25,5.08-2.53,5.08-.29,5.64.56a15.61,15.61,0,0,0,2.43,2.31S109.76,71,110.6,71a31.43,31.43,0,0,1,4.8,1.69l4.51,2.82-4.51-4L109.19,69l-1.41-1.41-3.38-2.25-3.4-.58-4.79.57L91.14,69l-2.26,2.26S90,72.66,93.11,69Z" style="fill:#a36c31"/><path d="M36.37,70.15s4.15,1.59,5.05,2.07,5,1.59,5.87,2.14a4.14,4.14,0,0,1,1.94,2.35A5.43,5.43,0,0,0,50.47,79a9,9,0,0,1,2.08,3.46,6.11,6.11,0,0,0-1.66-3.39s1.72-1.59,2.62-1.59c-.69-.2-2.15,1.29-2.69,1.11a1.4,1.4,0,0,1-.62-1c0-.41-.07-.69-.63-1.59s-.76-1.31-1.52-1.59c.28-.41,2-2,3.6-1.86-1.11-.49-3.11.55-3.94,1.45a2,2,0,0,1-.83-.49S46.81,73,46.6,73s.83-1.1,1.66-1.24A2.37,2.37,0,0,0,46,73l-1-.21-1.52-.62-.76-.76-.62.07L41,71.42s.28-.83.63-1c-.42,0-1,.83-1,.83l-.9-.34-1.1-.42A5.78,5.78,0,0,0,36.37,70.15Z" style="fill:#a36c31"/><path d="M83.67,73.81s1.1,2,.18,3.5-1.33,7.19-1.29,8.48.92,2.21.55,4.42a26.78,26.78,0,0,0-.18,6.45c.18,1.29.74,5.16.74,5.16-1.29-.92-.74-1.29-.92-2.21a21.23,21.23,0,0,1-.56-4.42v-3s-.73,3.13-.92,4.06.19,8.66.19,8.66c-.56-.37-1.11-8.3-.74-9.59.15-.52-.24-1.83.37-2.94.9-1.65,2.08-2.34,1.64-3.46-.72-1.89-2-2.07-3.3-4.84s-.37-3.5,0-4.6a19.06,19.06,0,0,1,.37,3.68l1.66,1.66.73-3.32.56-3.32.55-2.58Z" style="fill:#a36c31"/><polygon points="62.37 67.3 64.34 69.56 64.06 73.22 64.5 75.84 63.11 79.17 62.1 80.81 61.92 85.42 61.74 89.84 60.91 86.14 61.24 80 61.8 74.64 62.65 72.38 62.65 71.25 62.37 67.3" style="fill:#703d20"/><path d="M56.16,106.51a2.53,2.53,0,0,1,1.69,2.26,17.87,17.87,0,0,1-.28,3.1l-1.13.84-.56-2.82Z" style="fill:#703d20"/><path d="M83.81,119.49S81,118.92,79,115a16.07,16.07,0,0,1-2-6.48l-2.26-5.65-.28-5.36.84,3.39,2,3.38,1.41,4.24,2.82,3.94-.53.84,3.39,5.08,4,2,3.1-.28-4.09,1.47S85.78,120.61,83.81,119.49Z" style="fill:#703d20"/><path d="M77.93,22.37l.59,5.32.29,3.08,1.61,3.53.83,1.5,2-.7,2.82-.83L90.29,32l-2.82,2.82a24.34,24.34,0,0,0-2.5.82,5.72,5.72,0,0,1-3.14.88A8.88,8.88,0,0,1,79.44,36c-.79-.3-.42-1.45-.42-1.45l-.47-3.37-1.33-3.56Z" style="fill:#703d20"/><path d="M64,107.35l.18,3,.92-1.66.9-2.39-.19-2.4.37-4.24-.37-4c-.55,2.39-.74,3.87-.74,3.87v4.79Z" style="fill:#703d20"/><path d="M61.52,93.25s-1.57,1.46-1.69,2-.3,2-.3,2l.73,3.13-.37,3.32-.55,2.39L61,109.93l-1.73,2.22L57,115.25l-2.83.4,3.13.73,3.87-3.87.92-2-.73-3-.19-4.24.92-5s-1.28-1.1-1.1-2S61.52,93.25,61.52,93.25Z" style="fill:#703d20"/><path d="M50.68,53.91l.55,1.29L52,57.59s0-.18.74-.18h1.47L55.47,57l-2-1.66-.92.56S53.63,53.91,50.68,53.91Z" style="fill:#703d20"/><path d="M92.51,69.21l-.74,1.28-1.47.74-1.64.64-1.49,1-1,1.31-.68,1.09s-.92-3.69-3.69-4.8A3.55,3.55,0,0,1,85.51,72a1.15,1.15,0,0,1,1.4-.8H87l1.29-.37a5.45,5.45,0,0,0-2.58-1.65c1.11-.37,3.14.55,3.32,1.28l1.47-.36,1.29-2s-.92-1.48-1.65-1.48C91.22,66.07,92.51,67.73,92.51,69.21Z" style="fill:#703d20"/><path d="M77.22,66.62s2.58-8.29,3.87-8.29A2.11,2.11,0,0,0,82.9,57l1.69-1.6,1.29-2,.74-2.4L85,52.62l-.92,2-1.85.92-2.39.92-2,2.95.23,3-1.7,3L76,67.62Z" style="fill:#703d20"/><path d="M45.15,34.37l-1.84,1.11-1.48-1.84-1.65.18L38,32.53l-2-2.39V29.4l-1.48-1.48-2.21.56-3.13.18-2.95-1.84L24,24.61l-1.29-1.29L23,21.84l3-1.65L26.72,18,28,17.42l4.06-3.87,3.5-1.84,1.84,2.21L40,16.13,41.1,16l3.68-.74,2.77-.37,2.39-3,3.32.55,2.58,2-1.11,1.66.56,3.13L56,21.1l1.5.9,3-1.11,2.21,2.4s-.74-.93.18.73.92,5.35.37,5.53a4,4,0,0,1-2.58.56c-2,0-.92,2.76-.18,3.87s1.84,2.21-.37,2S57,34.74,55.84,34.19a2.91,2.91,0,0,1-.92-3.69c.73-.92,4-3.5,2.58-4.42s-3-1.66-3.5-1.47-.92-3.32-2.21-3.69S47.36,24,47.36,25.71s1.66,4.06,1.29,5.9a29.75,29.75,0,0,0-.37,4.61Z" style="fill:#455f2c"/><path d="M42.39,9.68,40,11.52s-.37,2.4.74,2.4,1.84-.92,2.76-.19,1.11.92,2.4-.36S45,10,45,10,43.86,7.47,42.39,9.68Z" style="fill:#455f2c"/><path d="M50.68,38c-.78.74-2,1.11-1.84,1.66l.55,1.66s-1.29.36.55,1.1.74,0,1.85.74,3.31.92,3.5,0,.36-2.4-1.66-3S54,34.93,50.68,38Z" style="fill:#455f2c"/><path d="M17.51,29.58c-1.29,0-2.77,1.29-3.5,1.66a7.63,7.63,0,0,1-4.43.37C7.56,31.24,7,34,7,34s-2.39-.19-3.13.55S2.4,35.66,2.4,36.22s-1.85,1.66-2.22,3,2,2.94,3.14,3.5-1.11,3-1.11,3L0,48.75A11.37,11.37,0,0,0,2,51c.53.21,3.5-1.47,3.5-1.47H7.19A2.58,2.58,0,0,0,9,50.59c1.29.19,5.35-2.21,5.9-1.47s0,2,1.47,2.39,6.45-1.1,6.64-1.66-1.85-2.94-2.4-3.13S16,44.88,16,44s-3.13-5-2.58-5.35,1.66-2,2.4-2.58S21,29.58,17.51,29.58Z" style="fill:#455f2c"/><path d="M16,37.69s-.36,2,.37,3a13.84,13.84,0,0,1,1.48,2.76s1.1,1.29,2,1.29a20.36,20.36,0,0,0,2.21-.18S24,41.19,24.69,41s.93-2.95.93-2.95L21.75,39l-1.29.55a8.8,8.8,0,0,1-.74-1.47C19.54,37.51,18.43,35.66,16,37.69Z" style="fill:#455f2c"/><path d="M24,32.16c-.74,0-3.69-.37-2.95,1.29s4,1.85,4.61,3,4.42,1.84,5.71,1.84,2.58-.36,3.5.19,3.69,5.34,4.61,4.79,2.21-2,1.47-3.13-4-2.21-4-2.21l-1.48-1.29-.36-2-3-.74-1.85,1.29L28.38,33l-.74-1.48-2.76-1.84Z" style="fill:#455f2c"/><path d="M24.14,50.78l2,2.21,2-.74A14.24,14.24,0,0,0,28,54.09c0,.74-1.66,1.29-2.21.92A7.43,7.43,0,0,1,24,53.35C23.59,52.8,21.93,50.23,24.14,50.78Z" style="fill:#455f2c"/><path d="M13.45,53.73c-.89-1.79-4.23,0-4.23,0s-1.85-2.22-3.87-.56S2.4,57.59,3.13,58.7s1.48,3.5.37,3.87S2,63.49.55,67,.92,71.6,2,71.78s3.87.93,3.68,1.66,1.85,3.32,3,3.51a5.6,5.6,0,0,0,3.14-.19c.55-.37,3.13-1.66,3.5-2.58a26.23,26.23,0,0,1,2.21-3.32s-2-3.68-3.87-1.47A2,2,0,0,1,10,68.1c.19-1.29,1.66-2,2-2.76a24.34,24.34,0,0,1,1.84-2.22c.37-.55,3.13-.55,3.32-1.28s-1.84-2.77-1.84-2.77l-2.58-.19-1.11,1.29s-2.76.37-2-.92.74-1.84,1.66-2.21S14.74,56.3,13.45,53.73Z" style="fill:#455f2c"/><path d="M14.93,50.41c-.74,0-2.21,2.39-1.11,3.32s2.95,1.28,4.42,2.21,2.22,4,3.51,1.65.55-2.76-.56-3.5H18.8l-1.29-1.47V50Z" style="fill:#455f2c"/><path d="M25.43,58.7l-1.29,3.14a4,4,0,0,0,1.48,2,8.18,8.18,0,0,0,2.21,0c.55-.18.92-1.84,2.21-2.21a11.85,11.85,0,0,1,4.05-.56c2,0,3.32-.55,3.32-1.28s-.55-2.4-1.84-2.4S32.25,59,31.7,59a24.72,24.72,0,0,1-2.77-1C28.2,57.78,25.43,58.7,25.43,58.7Z" style="fill:#455f2c"/><path d="M14.74,73.44c1,.5.56,2.58,1.29,3.14A4.76,4.76,0,0,1,17.69,79c0,.56-3.13,4.24-3.13,4.24s3,.74,3,2-1.29,1.47-2.21,1.66-2.4.73-2.21-.93,1.65-5.71,1.65-6.26V77l-1.1-.74S12.9,72.52,14.74,73.44Z" style="fill:#455f2c"/><path d="M12.9,77.13l-2.4-.55L7.92,77.87l-.73,2.39s-.74,1.29,0,1.84S8.85,84,9.4,82.29s-.18-2.76.92-3S12.9,80.26,12.9,77.13Z" style="fill:#455f2c"/><path d="M17.69,72.34c-1.07,0-.37,3.5.19,3.5s2.95.18,3.5.74,2.95-.74,3.31-2.58a1.73,1.73,0,0,0-2.76-1.85c-1.48.92.18,1.85-.37,2.21s-1.84,0-1.84,0S20.46,72.34,17.69,72.34Z" style="fill:#455f2c"/><path d="M92.14,28.11c-.58,0-4.6-6-5.52-6S86.43,25.44,85,26s-3.32-.28-3.87-.46-1.85-3.6-4.43-4-4.46,4-6.7,3.46-1.66-.93-1.66-.93l2.21-5.52S68.74,15,68.92,14.3,67.45,13,66.34,13s-.73-1.66-1.84-2.95.32-2.88,2.21-3c4.79-.19,3.32,2.58,3.87,3.32s1.75-1,6.18.46,3.13-.92,4-1.11a5,5,0,0,0,2-1.47A27.54,27.54,0,0,1,86,6.82c.74-.18,2.58,1.11,5,2.77s.18,6.08,1.47,5.9,5.81-4,6.36-4.52,1.29-2.58,3-3,3.17,4.47,4.17,5.4,3.5.36,3.5.36,4.14-.24,5.34,1.48c2.58,3.68-.74,5.16-.37,5.89s-.92,5.35-.37,6.46-.36,3.31-.55,4.23-3.68,1.39-6.45,1.94S104.8,36.49,103,37s-5.62.46-6.17-.28-.55-5.16-.55-5.16,0-2.39-.55-2.76l-1.3-.19,3-2.21a17.15,17.15,0,0,1,2,.37,2.89,2.89,0,0,0,2.21-.92c.56-.56,3.32-2.67,3.32-2.67l-4-1.9a8.48,8.48,0,0,0-2.39.55,5.39,5.39,0,0,1-2.4.92c-.74,0-1.48-2-2-2.21a9.08,9.08,0,0,0-2.21,0,1.89,1.89,0,0,0,1.29,2.21c1.71.56,1.29,1.85,2.77,2.25s-.93,1.84-.93,1.84A10.92,10.92,0,0,1,92.14,28.11Z" style="fill:#455f2c"/><path d="M75.65,6.27c0,.55,1.11,2.58,2.21,2.58s2-.74,3.13-.92,1.48-.55,2.58-.19A1.72,1.72,0,0,0,85.79,7c.18-.56,1.1-1.48,2.76-.37s3.5-2,3-2.58A6.58,6.58,0,0,0,89,2.21C88,2,85.45,2.4,85.08,3S84,2,82.87,1.66c-.46-.15-1.23-1.75-2.4-1.66A7.15,7.15,0,0,0,76.6,2.4C76.42,3,77.71,5,77.71,5Z" style="fill:#455f2c"/><path d="M116,24.52l2,.18a1.39,1.39,0,0,0,2,0,1.45,1.45,0,0,0,.24-.35c1.1-1.47.74-2.4,2.21-2.4s3,.74,3.13,1.3.92.73.92,1.29.92.36.74,1.47,1.84.74.92,1.11-1.66-.19-2.39-.74-2-2-2.22-.74a5.34,5.34,0,0,0,.93,3s.18,1.66-.74,1.29a6.42,6.42,0,0,1-2-1.29,7.65,7.65,0,0,0-2.21-1.11c-.44.23-.87.47-1.29.74s-1.29,2-1.84,1.66-.92-3.13-.92-3.13Z" style="fill:#455f2c"/><path d="M74.64,37l-.56-2s1.48-2.77-.92-1.48-3.5,2.4-3.87,3.5a4.22,4.22,0,0,0,1.11,3.68c.74.55,1.66,1.29,2.21.18a1.64,1.64,0,0,1,2.2-.73,1.18,1.18,0,0,1,.19.11,3.25,3.25,0,0,0,3-.18c.56-.56.56-2-.55-3.14S75.56,36.4,74.64,37Z" style="fill:#455f2c"/><path d="M89.75,41.38a7.64,7.64,0,0,0,3.68,0,1.7,1.7,0,0,0,2.22,0,6,6,0,0,1,3.87-1.29c.92.18,2.39-1.48,3.68,0s6.08-.74,7.19,1.47,3.32,1.84,3.5,3.13.18,3.51,1.11,4.06,3.87,1.29,4,2.39-1.11,2.77-1.11,2.77a5,5,0,0,1-3.5-1.11c-1.29-1.29-3.87-3.68-4.42-3.68s1.11-3.87-.92-2.77-3.32,2.21-2.77,3.14,3.32,1.1,3.32,2.21-2.76,2-3.5,2-1.84-1.85-3.32-1.66.74-4.43.74-4.43l-2.21-.92L100.62,48l-.55,2.22-2.4-.56s-.55-1.47-1.65.18S94.17,53.17,92.88,53s-.92-1.48-2-1.66-2.21-2-4.6-3-1.85-2.58,0-3.5S88.83,41,89.75,41.38Z" style="fill:#455f2c"/><path d="M117.94,49.3c-1.42.65,2-2.58,3.32-2.39s3.32,2.21,3.32,2.21,2,3-.37,3.68l-2.4.74-2-.37s3.5-.73,2.58-1.84S120,48.38,117.94,49.3Z" style="fill:#455f2c"/><path d="M113.52,59.07a3.54,3.54,0,0,0,3.13,1.47,23.73,23.73,0,0,0,4.61-1.29,9.35,9.35,0,0,1,3.87,0c1.11.37,2.4-1.1,3.69-1.1a3.57,3.57,0,0,1,3,2c.36.92.92,3,1.47,3.51s.55,3.13.55,3.13-1.24,1.64-1.47,1.1c-.55-1.29-.74-3.13-2.4-2.39s-2,1.47-1.29,2.21a11,11,0,0,0,1.43,1.3c.92.74,3.13,2.21,1.66,2.58s-1.66,2.21-3.14,0-1.47-3.32-2.21-3.87-.73-3.5-.18-4-1.11-1.84-2.21-1.11-.37,1.11-1.66,1.48-.37,2-2.58,2a18,18,0,0,1-4.43-.73c-1.1-.19.19-.37-1.1-2S111.86,61.09,113.52,59.07Z" style="fill:#455f2c"/><path d="M124.47,74.2c.7.81,1.33.14,1.51,3.29s1.81,2.87,2.75,4,2.77,2,2.63,3.29-2,3.34-2,3.34l-.3-2.75s-6,1.22-6.07-1.56,2.25-3.2-.38-3.3-2.82-.07-3.64-.49-2.71-1.59-2.81-2.13-2.07-1.14-2.07-1.14a16.74,16.74,0,0,0-3.85-.63c-.9.15-1.58-.48-.76-1.18s.9-1.28,1.93-.71a27.77,27.77,0,0,1,2.86,1.37c1.67,1,5.12.42,5.12.42A9.72,9.72,0,0,0,122,78.19c1.22.54,1.16,1.29,1.82-.32A11.76,11.76,0,0,0,124.47,74.2Z" style="fill:#455f2c"/><path d="M130.84,73.63c-1.33-.44-.18,3.32-1.28,3.32s-2.77-.74-2,.55a6.94,6.94,0,0,0,2.21,2.76c.74.37.92-1.29,2-.92a2.21,2.21,0,0,0,2.58-.37,2.4,2.4,0,0,0,.92-2.39c-.19-.56.37-3-.37-3.32s-.92,2-1.47,2.39S132,74,130.84,73.63Z" style="fill:#455f2c"/><path d="M84.22,59.07a2,2,0,0,0-1.6,2.33,1.94,1.94,0,0,0,.49,1,6,6,0,0,0,2.4,1.29s-.74,1.1,1.11,2,1.47,1.48,3.13.37,1.84-.37,3.32-2,.55-3.32,2.76-3.32a12.93,12.93,0,0,0,4.61-1.11s1.66-1.47.73-2.39a3.09,3.09,0,0,1-.55-2.58s-3.13-.74-3.87-.19.55.56-.55,1.48-1.85,2-3,2.39a3.08,3.08,0,0,0-1.84,3.14c.18,1.28-2.21.18-2.77-.93S85.88,58.7,84.22,59.07Z" style="fill:#455f2c"/><path d="M116.65,45.25a4,4,0,0,0,1.11-2.4,7.51,7.51,0,0,0,2.76.92c1.11,0,1.66-.92,2.21-1.29s2,0,3,.19,1.65-1.11,1.84-2-1.29-2.76-1.29-2.76-1.48-2-2.58-2-2,0-2.58.74.37,2.76.37,2.76-2.4,1.47-2.58.92-1.11-4-2.4-4.24a19.92,19.92,0,0,0-5.16.56c-.55.18-3,.36-1.29,1.65s2.21-.18,2.58,1.66a16.32,16.32,0,0,0,1.84,4.24Z" style="fill:#455f2c"/></symbol><symbol id="aj" viewBox="0 0 112.47 123.54"><path d="M86.58,112.27c1.53.68-10.19-1.73-10.19-1.73a22.6,22.6,0,0,1-3.9-1.38c-.67-.5-10-5.44-10-5.44l2.37,3.87s4.21,4.19,7,5.27a9.74,9.74,0,0,1,4.25,3.5l-3-1.56-3-1.56L63.69,111l-4.15-5.36.3,7.49,2.61,3.65L70,123.54l-6.81-3.17L61,117.22s-3.6-2.53-4.29-2.8-.72-4-.72-4l-2.57-4.34s-6.55,4.55-7.27,5a33.26,33.26,0,0,1-3.56,1.46s-.35,2.08-1.06,2.28A7.06,7.06,0,0,0,38,116.69l-6.9,2.43,6.09-3.9,3-3.79,2.91-1.7,3.9-3.08-2.11.12-3.25-.4L38,108.05l-3.44-1.36c-.94.18-7.32,1.48-7.32,1.48l4.63-3.49,4.64.71,5-.9L49.9,100,52,94.31l1-14.2-.54-7.5-1.35-5.45-.64-5.41s-1.09-1.46-.81-2.38-1-2.85-1-2.85L46.45,54.3l-4.38-1.17L35.72,54l-5,2.77S22,58.87,21,59.29L14.31,62.2l1.25-1.57,2.2-1.75,4.75-1.62,5.19-.89,7.23-4-3.08.77-4.94.67L20.8,53.4l-2.7-2c-.67-.5-5.23-2.61-5.23-2.61l-2.28-1.06L12,47.32l3,1.33,3,.89-.35-2.12L16.16,44l1.36.77,1,2.39L20,49.81l2,2.44,3.72.2L30,52l3.63-2.38,5.86-.39L35,46.44l-2.66-2.71-2.18-2.92L27.45,38.1l-8.81-1.17-4.17-.69s-4.18-.46-4.13-1.39,5.1.74,5.1.74l4.4.7,3.07-.54-1.3-1.93L18.7,31.33,16.44,30l-1.52-2.19,2.08.81,2.47,1.77,3.36,2.75,3,1.56L28.57,36,29,34.68v-4.9l-2.8-4.59-2.13-3.85-3-3.44L18.89,15l3.36,2.75,2.88,3,2.76,4.79,2.61,3.64L31,33l1.07,1.92.6-2.54,1.88-4.57,1.53-2.49,1.64-4.35-.48-4.23c1.37.54,1.68,3.59,1.68,3.59l-1.35,3.44-1.11,3.15-2.6,9.44-1.33,3,1.27,2.41,2.4,3.16,6.19,2.2,7.24.15-2-2.9-1.9-3.79S44.73,39,44,39a25.13,25.13,0,0,1-3.66-1.36l-2.67-2.48c1-.65,2.51,1.07,2.51,1.07l3.66,1.29,2.25,1.76,2,2.2.45-3.94L48,33.36l-1.7-2.67-1.75-2.15-2.22-2.22a1.09,1.09,0,0,1,1.52-.16,1.12,1.12,0,0,1,.34.49l2.65,2.71,3.25,4.85-.46,4.18L51.83,41l.17-3.5,1.49-6L52.11,27l-.92-4.72-2.84-3.66-3.51-4.39-3.21-1.1L37.85,9.69c.95-.42,3.22.87,3.22.87L44,12.82l3.92.9,1.68,3.6,1.79,1.5,3.31-5.2.39-3L58,4.68c.91.52-.4,3-.4,3l-.89,3.69L55.34,15l-2,2.24L53.13,21l.17,5.62,1.28,2.17,1.77-2.47,2.43-1.78,2.93-2.42,1.78-2.71s.1-1.86,1.5-1.79l-1.15,3.92-2,2.93-2,1.53-2.68,2.67-1.77,2.48-1.26,6,.28,8,1.11,5.43L60.19,42l4.72-5.36,2-2,.4-3.25L66.54,28l.61-2.77L68,23.82l.91-1.5.29,3.29-1,1.58.8,2.35.08,3L69.72,34l4.08-2.11L78.27,27l3.45-3.32,4-5.85L86,13c.92.29,1.49,2.65,1.49,2.65l-.86,3-4.27,5.62L79,30.54l-3.19,2.9,2.58-.33,2.66-1.73h8l3.09-1,2.44-2a2.36,2.36,0,0,1-1.06,2.51s-4.29,1.41-5,1.61a16.8,16.8,0,0,1-3.3.52l2.75,1.08,4.18.44c-.3,1.15-2.39,1-2.39,1L85.8,34.36l-2.1-.11-2.29-.82L79,35.24l-3.06.54,3.21,1.1s1.6.56,1.57,1.25,3.39,2,3.39,2l3.25.41,3-.07a4.7,4.7,0,0,1-3.1,1.24l-3-.4-3.61-2-3.48-.42-3.65-1.6-2.06-.81L67,37.63,63.11,44.2l5.4-.64,2,1,3.49,0,2.24-1.4.17-.1,2.37-.58c.86,1.45-3.46,3.56-3.46,3.56l-4.68.21-4.5,1.16L63,53.54l7-2.4s3,1.33,3.68,1.13S82,49.41,82,49.41l3.67-3.07,3.61-1.91L94,44.21l2.2-1.75,2.19-1.75L98,42.09l-1.5,1.79L95,45.44,92.91,46l-3.31.75,4.17.69,5.62-.4,3.91,1.14,1.81,1.27,3.39,2,1.39.31c-3.76.26-4.62-1-4.62-1l-4.09-2.32-3,.07L93.25,49,90,49.29l-1.84-.56L85.52,50,82.1,51.54a4.82,4.82,0,0,0,1.61.56l3.5.18,4.84,1.2a2,2,0,0,1,1.58,1,23.48,23.48,0,0,0,2.17,3.15c-1.14-.53-2.52-1.07-2.52-1.07l-1.54-1.72-3.69-.9-3.93-.67-3.29.27-3.23-.87-4.28,1.4-4.73,1.15-4.34,2.57L62.49,60l-1.28,6.5-.28,5.36-.87,3.22.42,5.16,1,7.53,2.06,8.92L67,102.35l4.44,4.19,7,3.64A38.79,38.79,0,0,1,86.58,112.27Z" style="fill:#574109"/><path d="M62,49.54l1.41-3s3.39-2.31,4.12-1.34L65.19,46,63,48.79l-1.47,4.13-2,3L59,59l-2,4.11s-1.13,3.68-.74,5.1a8.81,8.81,0,0,1-.2,3.65l-1.69,5.52a36,36,0,0,1,.76-5.57L55,67.21l1.15-4.14,1.61-4,.66-3.53L60,52.21l-.69-1.74V47.66s1.87-3,2-3.47a18.62,18.62,0,0,1,1.32-2.45l.24-.43,1.56-3,.07,1.56-1,2L61.61,45.2l-.89,2.13-.57,2,1,2.07Z" style="fill:#9a7f55"/><path d="M54.43,52.07,52.18,49.7l.93-2.06V44.37s.11-5,.14-5.6c-.62,0-.54,1.38-.54,1.38L52,46.3l-1.36-3-.32-1.89-1-1.77c-.34.45.2,2.19.2,2.19L49.38,43l-1.26-.46-.66-.74v.59l.64,1.2,1.7.95,1,.63.82,2.07-.32,3.1,1.5,1.2.68,1.9,2,1.36-2,4.1v3L54.16,66l.5-2.78L54.31,61l.43-2.89,2.07-3.78.63-2.39.46-2.07.67-1.6-.86.77-.91,1.7-.61.67-.38,2.55Z" style="fill:#9a7f55"/><path d="M51.33,59.11l.11-2-1.17-2.28L49,53.38,46.28,53l-1.91-1.38-2.79-.27L40.26,52l-2.95.54L33.73,54.1c.38-.69,2.91-2,2.91-2l-1.48-.78H33.29l-1.9.6a6.26,6.26,0,0,1,2-1l2.25-.46,1.74.21L39,51.1l2.12-.36L43,50.26l2.74,1.2,2,.22,1.71.68-.73-1.68-2.37-1.14h-2.8L42,49.39l-1.38-.54L39,47.54l-2.15-1.28,2.06.69,2.39,1.3,1.4.07,4,.1,1.81,1.14,1.91,1.51.34,2.35,1.61,2.66Z" style="fill:#9a7f55"/><path d="M31.61,39,32,36.47l1.63-2L34,32.84,31.93,35.3l-1-.41V33.38l-.67-2.73v1.89L30,34.61l.24,2.12L29,36.31,27.57,36,24,34.76l.77.86,2.4,1.06,1.13.65,2.23,2,1.17,2.21s2.88,2.83,2.46,2.12a15.11,15.11,0,0,0-2-2.44Z" style="fill:#9a7f55"/><path d="M85,48.64l1.84-1.77,2.64-1.38,2.37-.58a2.49,2.49,0,0,1-1.22,1L89,46.4l-.86.66,1.5.31,1.73.44,1.85.34L94.44,48c-.13.34-1.89.48-1.89.48l-2.68-.14-2.07-.7L86,48.81l-2.87,1.13Z" style="fill:#9a7f55"/><path d="M68,32.9v1.4l-.77,1.24-.86.66a1.69,1.69,0,0,0,1.28.18l2.61-.79,1.86.21,2.76.74L77.57,38a7.16,7.16,0,0,0-2.36-1.64l-.78-.86,1.66-.5,1.78-.38,1.79-.83-1.39-.08-1.43.51L75,34.54l-1.3.17,1-1.23,1.48-1.56,1.58-1.2L79,28.11,78.5,28l-.64,1.13-1,1-2,2.11L74,33.1l-1.58,1.32-2,.36H69Z" style="fill:#9a7f55"/><polygon points="54.39 80.65 55.11 86.06 56.04 92.03 55.48 95.19 55.8 98.01 56.65 99.69 61.9 104.8 56.77 101.72 57.49 105.81 57.88 110.19 55.95 105.42 54.72 100.76 50.64 105.76 47.43 107.46 52.3 102.26 47.28 104.33 44.15 104.79 49.28 101.95 53.33 100.45 54.19 97.54 54.8 91.96 54.46 88.13 54.39 80.65" style="fill:#9a7f55"/><polygon points="7.24 49.17 9.02 46.46 10.23 45.59 12.46 43.37 15.27 43.29 22.61 45.78 26.91 43.91 33.13 45.65 36.53 43.02 42.16 42.62 46.06 44 41.83 44.47 38.02 45.9 36.85 50.28 31.85 52.12 27.7 55.4 25.33 60.41 18.28 61.21 13.52 62.82 9.56 62.61 6.66 60.12 2.52 58.73 0 57.9 0.57 56.06 2.71 55.24 6.9 55.46 10.49 54.02 15.06 55.89 17.3 53.21 15.02 52.16 12.33 50.14 9.21 51.61 7.24 49.17" style="fill:#007b4c"/><path d="M7.9,36.83,5.46,34.36l.85-2.76L9,30.34l3-.07.6-2.54.4-2.55,3-2.88,1.88-4.81,1-2.49,1.73-1.77,3.46.88,5.24-1.82,1.4-4.39,3.94-3.76,7.11-2L48.6,5.31s2.06-3.63,3-3.81S57.76,0,57.76,0L64,.54l6.32,4.07,2.35,8.54,3.58-1.45,3,1.1.54,3.06-2.48,2.91-4.2-.23-2.73,3.13-2.11,4.56-4.63,3.49-4,1.19-3.14,5.7-2,2L48.2,39l-2.42,1.54-2.35.34L39.74,40,37,38.61,35.74,36l1.57-3.18,4.31-1.88,4.68-.22,4.62-3.26L49.36,26l-3.13,1.7-4,.49-2.59.56-3.13,1.71-1.27,1.8-1.58,3.42-3.45,1.1L29,36.31l-4.17-.69-3.9,3.06-3.8.32-1.26-2.64,1.57-3.18,3.09-1,1.93-1.06,5-1.37,1.74-2L31,25.27l1-2.58-2,2.23-3.89,2.83-4,1-2.66,1.73-3.8,1.2-2.78,4.06S10,37.4,7.9,36.83Z" style="fill:#007b4c"/><path d="M71.07,30.61l1.08-2.74,5-1.61.6-2.53L81.2,20.4l.37-2.55-1-3.55L82.11,12l3.53-.51,3.2,1.34L92.12,17l-.21,4L94,25.76l3.81,3,3.89,1.62,2.3,5.49-.67,3.93,4,3,1,4s3.67,2.07,3.59,2.74a15.91,15.91,0,0,0,.55,2.83l-1.94,1.3-3.79,1-3.37-2.51-2.82.38H92.8l3.29,4.15-.16,3L92.86,60l-2.43-2.5-3-1.09-6.26-1-2.62,1s-3.11,1.46-4.27,1.17a15,15,0,0,1-3.39-2l-2-2.44-3.37-2.52.56-1.84,2.39-1,2.76.85,4.19.23,1.73-1.78-.79-2.58-1.53-2-3.26-.17H67.41a8.78,8.78,0,0,1-2.56-.13c-.92-.29-2.07-.58-2.07-.58l-1.29-2.17,1-2.28L66.1,35.3l2.6-.45L76,38.12l3.6,2.76,2.63-1.26L84.75,37l-2.86,1L80,38.8a2.57,2.57,0,0,1-1.57-1.26c-.42-1-4.13-1.39-4.13-1.39l-1.36-.77-.64-1.2-2-1.51Z" style="fill:#007b4c"/></symbol></defs><g style="isolation:isolate"><rect x="0.17" y="0.09" width="127.31" height="77.87" style="fill:#e5cd65"/><path d="M-.21,30C6,29,15,28.55,24,32.48c6.89,3,9.61,6.66,16.08,11.31h0A68.49,68.49,0,0,0,56,52.94c4.8,1.89,8.51,2.53,13.75,3.45,10.43,1.82,11.23.35,16.69,2.42,2.57,1,10.08,4.23,12.45,11,.84,2.37.47,3.57.34,3.91-1.11,3.1-6.2,4.78-12.93,4.22H-.21Z" style="fill:#04af1c"/><path d="M30.45,0A124.38,124.38,0,0,1,55,15.66c3.75,3.08,3.07,3.08,6.4,5.8a77.09,77.09,0,0,0,13,8.61c10.94,5.5,15.2.65,26,4.56,12.67,4.61,19.22,15.83,20.86,18.65a46,46,0,0,1,6.14,24.59V0Z" style="fill:#04af1c"/><text transform="matrix(0.66, 0.8, -0.77, 0.64, 3.1, 9.93)" style="isolation:isolate;font-size:3.736882209777832px;font-family:ArialMT, Arial">S</text><text transform="matrix(0.66, 0.8, -0.77, 0.64, 4.32, 11.4)" style="isolation:isolate;font-size:3.736882209777832px;font-family:ArialMT, Arial;letter-spacing:-0.11100947926745093em">T</text><text transform="matrix(0.66, 0.8, -0.77, 0.64, 5.37, 12.66)" style="isolation:isolate;font-size:3.736882209777832px;font-family:ArialMT, Arial;letter-spacing:-0.11025259645426376em">A</text><text transform="matrix(0.66, 0.8, -0.77, 0.64, 6.89, 14.49)" style="isolation:isolate;font-size:3.736882209777832px;font-family:ArialMT, Arial;letter-spacing:0.008073416673996432em">R</text><text transform="matrix(0.66, 0.8, -0.77, 0.64, 8.24, 16.12)" style="isolation:isolate;font-size:3.736882209777832px;font-family:ArialMT, Arial;letter-spacing:-0.03607808076192155em">T</text><g style="clip-path:url(#a)"><g style="clip-path:url(#b)"><use width="135.32" height="122.01" transform="translate(86.76 3.89) scale(0.16 0.2)" xlink:href="#ai"/></g></g><g style="clip-path:url(#c)"><use width="112.47" height="123.54" transform="translate(12.26 31.45) scale(0.28)" xlink:href="#aj"/></g><path d="M9.53,13.06a21.3,21.3,0,0,1,2.7-1.46L10.7,8.18A28.15,28.15,0,0,0,7.5,9.9Z" style="fill:none"/><polygon points="10.62 10.14 10.78 10.47 11.34 10.21 11.19 9.87 10.62 10.14" style="fill:#231f20;fill-rule:evenodd"/><polygon points="9.63 10.68 9.81 11 10.35 10.69 10.17 10.36 9.63 10.68" style="fill:#231f20;fill-rule:evenodd"/><polygon points="8.66 11.24 8.86 11.56 9.39 11.25 9.2 10.92 8.66 11.24" style="fill:#231f20;fill-rule:evenodd"/><path d="M12.23,11.6l.69-.32.71-.23a7.09,7.09,0,0,1,1.43-.41L14.22,7a11.23,11.23,0,0,0-1.8.52l-.88.3-.84.38Z" style="fill:none"/><path d="M13.75,8.89l.11.36a3,3,0,0,1,.59-.15l-.09-.37A4.21,4.21,0,0,0,13.75,8.89Z" style="fill:#231f20;fill-rule:evenodd"/><polygon points="12.69 9.25 12.81 9.6 13.4 9.4 13.28 9.05 12.69 9.25" style="fill:#231f20;fill-rule:evenodd"/><path d="M11.64,9.66l.15.35c.19-.09.38-.18.57-.25l-.14-.35C12,9.48,11.84,9.58,11.64,9.66Z" style="fill:#231f20;fill-rule:evenodd"/><path d="M15.06,10.64a7.75,7.75,0,0,1,1.44-.25,8.39,8.39,0,0,1,1.5-.08V6.56a12.1,12.1,0,0,0-1.9.1A12.16,12.16,0,0,0,14.22,7Z" style="fill:none"/><path d="M17.09,8.32v.37a3.11,3.11,0,0,1,.61,0V8.3A2.49,2.49,0,0,0,17.09,8.32Z" style="fill:#231f20;fill-rule:evenodd"/><polygon points="15.96 8.42 16.01 8.79 16.62 8.74 16.59 8.36 15.96 8.42" style="fill:#231f20;fill-rule:evenodd"/><polygon points="14.86 8.63 14.94 8.99 15.54 8.86 15.47 8.49 14.86 8.63" style="fill:#231f20;fill-rule:evenodd"/><path d="M18,10.31a11.14,11.14,0,0,1,2.87.38l.93-3.63a15.72,15.72,0,0,0-3.8-.5Z" style="fill:none"/><path d="M20.46,8.55l-.07.37a2.47,2.47,0,0,1,.6.13l.09-.37A4.26,4.26,0,0,0,20.46,8.55Z" style="fill:#231f20;fill-rule:evenodd"/><polygon points="19.34 8.38 19.3 8.75 19.91 8.84 19.97 8.47 19.34 8.38" style="fill:#231f20;fill-rule:evenodd"/><polygon points="18.22 8.31 18.21 8.69 18.82 8.71 18.85 8.33 18.22 8.31" style="fill:#231f20;fill-rule:evenodd"/><path d="M20.82,10.69a13.54,13.54,0,0,1,2.76,1.05l1.67-3.36a16.8,16.8,0,0,0-3.5-1.32Z" style="fill:none"/><path d="M23.68,9.57l-.15.34a4,4,0,0,1,.56.25l.17-.33A3,3,0,0,0,23.68,9.57Z" style="fill:#231f20;fill-rule:evenodd"/><polygon points="22.64 9.14 22.51 9.5 23.08 9.73 23.22 9.38 22.64 9.14" style="fill:#231f20;fill-rule:evenodd"/><polygon points="21.56 8.82 21.46 9.18 22.05 9.35 22.17 8.99 21.56 8.82" style="fill:#231f20;fill-rule:evenodd"/><path d="M23.58,11.74a20.36,20.36,0,0,1,2.61,1.58l2.19-3a23.72,23.72,0,0,0-3.13-1.9Z" style="fill:none"/><polygon points="26.64 11.2 26.43 11.51 26.95 11.85 27.17 11.54 26.64 11.2" style="fill:#231f20;fill-rule:evenodd"/><polygon points="25.69 10.59 25.5 10.91 26.02 11.25 26.22 10.93 25.69 10.59" style="fill:#231f20;fill-rule:evenodd"/><polygon points="24.7 10.06 24.53 10.39 25.08 10.68 25.26 10.35 24.7 10.06" style="fill:#231f20;fill-rule:evenodd"/><polygon points="29.31 13.26 29.07 13.54 29.53 13.95 29.78 13.67 29.31 13.26" style="fill:#231f20;fill-rule:evenodd"/><path d="M28.46,12.53l-.24.29a4.63,4.63,0,0,1,.48.4l.24-.29A4.63,4.63,0,0,0,28.46,12.53Z" style="fill:#231f20;fill-rule:evenodd"/><polygon points="27.57 11.85 27.35 12.15 27.84 12.53 28.07 12.23 27.57 11.85" style="fill:#231f20;fill-rule:evenodd"/><polygon points="44.51 18 44.46 18.37 45.06 18.46 45.12 18.08 44.51 18" style="fill:#231f20;fill-rule:evenodd"/><polygon points="44.42 15.61 44.47 15.98 45.08 15.93 45.04 15.56 44.42 15.61" style="fill:#231f20;fill-rule:evenodd"/><polygon points="47.75 18.77 47.61 19.12 48.16 19.37 48.31 19.03 47.75 18.77" style="fill:#231f20;fill-rule:evenodd"/><polygon points="46.69 18.45 46.58 18.81 47.16 18.98 47.28 18.61 46.69 18.45" style="fill:#231f20;fill-rule:evenodd"/><polygon points="45.62 18.15 45.54 18.52 46.12 18.69 46.22 18.32 45.62 18.15" style="fill:#231f20;fill-rule:evenodd"/><path d="M47.7,21a5.24,5.24,0,0,1,1.24.65,10.54,10.54,0,0,1,1.16.82l2.37-2.91a18.58,18.58,0,0,0-1.54-1.09,9.21,9.21,0,0,0-1.67-.89Z" style="fill:none"/><polygon points="50.67 20.36 50.46 20.66 50.96 21 51.2 20.7 50.67 20.36" style="fill:#231f20;fill-rule:evenodd"/><polygon points="49.75 19.74 49.56 20.06 50.06 20.39 50.27 20.08 49.75 19.74" style="fill:#231f20;fill-rule:evenodd"/><polygon points="48.76 19.24 48.6 19.57 49.15 19.82 49.33 19.49 48.76 19.24" style="fill:#231f20;fill-rule:evenodd"/><path d="M50.1,22.43l1,1c.32.34.61.74.92,1.11l3-2.28c-.4-.47-.76-1-1.19-1.42l-1.38-1.31Z" style="fill:none"/><polygon points="53.12 22.6 52.83 22.85 53.22 23.32 53.51 23.09 53.12 22.6" style="fill:#231f20;fill-rule:evenodd"/><path d="M52.38,21.79l-.27.27a3.33,3.33,0,0,1,.42.42l.28-.26A4.36,4.36,0,0,0,52.38,21.79Z" style="fill:#231f20;fill-rule:evenodd"/><polygon points="51.56 21.04 51.32 21.33 51.76 21.74 52.02 21.45 51.56 21.04" style="fill:#231f20;fill-rule:evenodd"/><path d="M52.07,24.5a7.46,7.46,0,0,1,.83,1.19,10,10,0,0,1,.76,1.3L57,25.29a11.67,11.67,0,0,0-.93-1.56,11,11,0,0,0-1-1.51Z" style="fill:none"/><path d="M55,25.34l-.35.17A5.54,5.54,0,0,1,55,26l.33-.17A3.35,3.35,0,0,0,55,25.34Z" style="fill:#231f20;fill-rule:evenodd"/><polygon points="54.44 24.39 54.12 24.6 54.44 25.12 54.77 24.92 54.44 24.39" style="fill:#231f20;fill-rule:evenodd"/><path d="M53.82,23.49l-.3.23a4.41,4.41,0,0,1,.36.49l.31-.21A3.68,3.68,0,0,0,53.82,23.49Z" style="fill:#231f20;fill-rule:evenodd"/><path d="M53.64,27l.65,1.37c.22.47.36,1,.53,1.44l3.54-1.24c-.21-.56-.37-1.1-.61-1.65L57,25.31Z" style="fill:none"/><polygon points="56.43 28.35 56.08 28.48 56.28 29.05 56.64 28.92 56.43 28.35" style="fill:#231f20;fill-rule:evenodd"/><path d="M56,27.32l-.35.15a5.62,5.62,0,0,1,.25.56l.36-.15Z" style="fill:#231f20;fill-rule:evenodd"/><polygon points="55.54 26.32 55.2 26.49 55.46 27.04 55.8 26.88 55.54 26.32" style="fill:#231f20;fill-rule:evenodd"/><polygon points="56.8 29.39 56.45 29.52 56.66 30.09 57.01 29.98 56.8 29.39" style="fill:#231f20;fill-rule:evenodd"/><polygon points="69.48 34.15 69.63 34.5 70.26 34.29 70.12 33.93 69.48 34.15" style="fill:#231f20;fill-rule:evenodd"/><polygon points="68.36 34.59 68.54 34.93 69.14 34.68 68.99 34.34 68.36 34.59" style="fill:#231f20;fill-rule:evenodd"/><polygon points="67.28 35.1 67.47 35.43 68.07 35.14 67.88 34.8 67.28 35.1" style="fill:#231f20;fill-rule:evenodd"/><path d="M71.08,35.75a15.63,15.63,0,0,1,3.11-.65l-.47-3.73a19.88,19.88,0,0,0-4,.83Z" style="fill:none"/><path d="M73,33.22l.06.37q.33-.06.66-.09v-.37Q73.36,33.16,73,33.22Z" style="fill:#231f20;fill-rule:evenodd"/><path d="M71.8,33.45l.1.37c.22,0,.43-.1.65-.13v-.37A7.61,7.61,0,0,0,71.8,33.45Z" style="fill:#231f20;fill-rule:evenodd"/><polygon points="70.63 33.76 70.76 34.12 71.4 33.95 71.29 33.59 70.63 33.76" style="fill:#231f20;fill-rule:evenodd"/><path d="M74.19,35.1a13.83,13.83,0,0,1,3.15,0l.48-3.72a18.73,18.73,0,0,0-4.1,0Z" style="fill:none"/><path d="M76.65,33v.38h.66V33Z" style="fill:#231f20;fill-rule:evenodd"/><path d="M75.43,33v.38h.66V33Z" style="fill:#231f20;fill-rule:evenodd"/><path d="M74.21,33.07v.38a4.89,4.89,0,0,1,.66-.05V33A4.93,4.93,0,0,0,74.21,33.07Z" style="fill:#231f20;fill-rule:evenodd"/><path d="M77.34,35.1a16.19,16.19,0,0,1,3.09.66l1.37-3.54a20.56,20.56,0,0,0-4-.84Z" style="fill:none"/><polygon points="80.25 33.61 80.14 33.97 80.77 34.15 80.9 33.79 80.25 33.61" style="fill:#231f20;fill-rule:evenodd"/><polygon points="79.07 33.33 78.98 33.7 79.63 33.84 79.74 33.47 79.07 33.33" style="fill:#231f20;fill-rule:evenodd"/><polygon points="77.88 33.14 77.82 33.51 78.48 33.6 78.55 33.23 77.88 33.14" style="fill:#231f20;fill-rule:evenodd"/><path d="M80.43,35.76a19.69,19.69,0,0,1,3,1.24l2-3.26A23.27,23.27,0,0,0,81.8,32.2Z" style="fill:none"/><path d="M83.65,34.85l-.19.34a4.6,4.6,0,0,1,.59.29l.19-.33C84.05,35.05,83.86,34.94,83.65,34.85Z" style="fill:#231f20;fill-rule:evenodd"/><polygon points="82.56 34.37 82.38 34.71 82.98 34.98 83.16 34.64 82.56 34.37" style="fill:#231f20;fill-rule:evenodd"/><polygon points="81.43 33.96 81.28 34.31 81.9 34.53 82.05 34.19 81.43 33.96" style="fill:#231f20;fill-rule:evenodd"/><path d="M83.39,37a21.73,21.73,0,0,1,2.78,1.7l2.51-3a27.34,27.34,0,0,0-3.28-2Z" style="fill:none"/><polygon points="86.75 36.61 86.51 36.91 87.05 37.28 87.3 36.98 86.75 36.61" style="fill:#231f20;fill-rule:evenodd"/><polygon points="85.75 35.98 85.53 36.3 86.09 36.63 86.32 36.32 85.75 35.98" style="fill:#231f20;fill-rule:evenodd"/><path d="M84.72,35.4l-.21.32.58.31.22-.32C85.12,35.6,84.91,35.5,84.72,35.4Z" style="fill:#231f20;fill-rule:evenodd"/><path d="M86.17,38.72c.89.62,1.75,1.32,2.59,2L91.6,38c-.93-.8-1.9-1.58-2.92-2.3Z" style="fill:none"/><polygon points="89.58 38.72 89.31 38.99 89.8 39.41 90.08 39.14 89.58 38.72" style="fill:#231f20;fill-rule:evenodd"/><path d="M88.67,38l-.27.29c.17.13.35.26.51.4l.28-.28A3.48,3.48,0,0,0,88.67,38Z" style="fill:#231f20;fill-rule:evenodd"/><polygon points="87.74 37.28 87.48 37.57 87.99 37.96 88.26 37.67 87.74 37.28" style="fill:#231f20;fill-rule:evenodd"/><polygon points="88.76 40.75 89.98 41.87 91.15 43.04 94.23 40.55 92.95 39.28 91.6 38.05 88.76 40.75" style="fill:none"/><polygon points="92.16 41.07 91.86 41.32 92.31 41.78 92.62 41.52 92.16 41.07" style="fill:#231f20;fill-rule:evenodd"/><path d="M91.33,40.26l-.3.26c.16.15.32.29.47.45l.3-.26Z" style="fill:#231f20;fill-rule:evenodd"/><polygon points="90.17 39.75 90.46 39.48 90.94 39.9 90.65 40.17 90.17 39.75" style="fill:#231f20"/><path d="M91.14,43q1.1,1.2,2.19,2.46l3.29-2.3c-.77-.9-1.58-1.78-2.4-2.65Z" style="fill:none"/><polygon points="94.54 43.59 94.21 43.83 94.62 44.31 94.95 44.08 94.54 43.59" style="fill:#231f20;fill-rule:evenodd"/><polygon points="93.76 42.74 93.45 42.98 93.88 43.45 94.2 43.21 93.76 42.74" style="fill:#231f20;fill-rule:evenodd"/><polygon points="92.98 41.9 92.67 42.14 93.11 42.61 93.42 42.37 92.98 41.9" style="fill:#231f20;fill-rule:evenodd"/><path d="M93.39,45.5c.71.85,1.41,1.71,2.08,2.6L98.76,46c-.7-.94-1.46-1.85-2.2-2.76Z" style="fill:none"/><polygon points="96.74 46.24 96.4 46.46 96.78 46.97 97.12 46.75 96.74 46.24" style="fill:#231f20;fill-rule:evenodd"/><polygon points="96.02 45.35 95.69 45.58 96.08 46.07 96.41 45.85 96.02 45.35" style="fill:#231f20;fill-rule:evenodd"/><path d="M95.29,44.47,95,44.7a6.26,6.26,0,0,1,.41.49L95.7,45Z" style="fill:#231f20;fill-rule:evenodd"/><path d="M95.52,48.1c.68.88,1.32,1.79,2,2.69l3.47-2c-.68-.94-1.35-1.9-2.06-2.82Z" style="fill:none"/><polygon points="98.78 48.99 98.44 49.2 98.8 49.71 99.15 49.51 98.78 48.99" style="fill:#231f20;fill-rule:evenodd"/><polygon points="98.11 48.07 97.77 48.28 98.14 48.79 98.48 48.59 98.11 48.07" style="fill:#231f20;fill-rule:evenodd"/><polygon points="97.43 47.16 97.09 47.37 97.47 47.88 97.81 47.67 97.43 47.16" style="fill:#231f20;fill-rule:evenodd"/><text transform="matrix(1.09, -0.01, 0.01, 1, 107.39, 75.12)" style="isolation:isolate;font-size:4.953677654266357px;font-family:ArialMT, Arial">FINISH</text><path d="M109.11,56.46l-.25.25c.19.08.37.17.54.26l.29-.22C109.49,56.66,109.32,56.55,109.11,56.46Z" style="fill:#231f20;fill-rule:evenodd"/><path d="M108,56.09l-.14.27a5.9,5.9,0,0,1,.6.17l.21-.26C108.4,56.2,108.18,56.14,108,56.09Z" style="fill:#231f20;fill-rule:evenodd"/><path d="M108.31,58a5.44,5.44,0,0,1,1.62,1.58l4-1.18a9.12,9.12,0,0,0-2.62-2.5Z" style="fill:none"/><polygon points="111.61 58.36 111.23 58.51 111.54 58.9 111.94 58.78 111.61 58.36" style="fill:#231f20;fill-rule:evenodd"/><polygon points="110.93 57.65 110.58 57.82 110.95 58.19 111.32 58.05 110.93 57.65" style="fill:#231f20;fill-rule:evenodd"/><path d="M110.11,57l-.32.21a2.61,2.61,0,0,1,.45.33l.34-.19A4.42,4.42,0,0,0,110.11,57Z" style="fill:#231f20;fill-rule:evenodd"/><path d="M109.93,59.58a7.55,7.55,0,0,1,1,2.07l4.26-.58a9.62,9.62,0,0,0-1.28-2.67Z" style="fill:none"/><path d="M113,60.71l-.43.06c.07.16.12.3.17.45l.43-.06C113.1,61,113.05,60.86,113,60.71Z" style="fill:#231f20;fill-rule:evenodd"/><path d="M112.62,59.9l-.41.1a2.39,2.39,0,0,1,.2.43l.42-.08A4.54,4.54,0,0,0,112.62,59.9Z" style="fill:#231f20;fill-rule:evenodd"/><path d="M112.18,59.13l-.4.11a3.19,3.19,0,0,1,.26.42l.41-.1C112.37,59.41,112.25,59.27,112.18,59.13Z" style="fill:#231f20;fill-rule:evenodd"/><path d="M110.92,61.65a9.63,9.63,0,0,1,.43,2.29l4.35-.15a12.45,12.45,0,0,0-.52-2.68Z" style="fill:none"/><path d="M113.61,63.17h-.44a3.47,3.47,0,0,1,.06.45h.44C113.66,63.48,113.62,63.33,113.61,63.17Z" style="fill:#231f20;fill-rule:evenodd"/><path d="M113.47,62.35H113a3.58,3.58,0,0,0,.09.45h.43A3.54,3.54,0,0,0,113.47,62.35Z" style="fill:#231f20;fill-rule:evenodd"/><path d="M113.26,61.53l-.43,0A1.88,1.88,0,0,1,113,62l.43,0A1.83,1.83,0,0,0,113.26,61.53Z" style="fill:#231f20;fill-rule:evenodd"/><path d="M111.35,63.9a12.51,12.51,0,0,1,0,2.29l4.31.19a14.66,14.66,0,0,0,0-2.65Z" style="fill:none"/><polygon points="113.7 65.67 113.26 65.67 113.23 66.12 113.67 66.14 113.7 65.67" style="fill:#231f20;fill-rule:evenodd"/><polygon points="113.71 64.84 113.28 64.84 113.27 65.3 113.71 65.31 113.71 64.84" style="fill:#231f20;fill-rule:evenodd"/><polygon points="113.69 64.01 113.25 64.03 113.28 64.48 113.72 64.47 113.69 64.01" style="fill:#231f20;fill-rule:evenodd"/><path d="M111.32,66.22a18,18,0,0,1-.4,2.33l4.29.47a18.27,18.27,0,0,0,.45-2.61Z" style="fill:none"/><polygon points="113.35 68.16 112.92 68.12 112.83 68.57 113.26 68.62 113.35 68.16" style="fill:#231f20;fill-rule:evenodd"/><path d="M113.52,67.34h-.44a1.18,1.18,0,0,1-.07.45h.43C113.47,67.64,113.49,67.49,113.52,67.34Z" style="fill:#231f20;fill-rule:evenodd"/><polygon points="113.63 66.51 113.2 66.49 113.13 66.95 113.56 66.97 113.63 66.51" style="fill:#231f20;fill-rule:evenodd"/><path d="M110.92,68.55c-.21.76-.45,1.53-.74,2.29l4.22.7a26,26,0,0,0,.81-2.55Z" style="fill:none"/><polygon points="112.66 70.62 112.24 70.55 112.08 71 112.51 71.07 112.66 70.62" style="fill:#231f20;fill-rule:evenodd"/><path d="M112.94,69.8l-.43,0a2,2,0,0,1-.15.45l.43.06C112.83,70.11,112.89,70,112.94,69.8Z" style="fill:#231f20;fill-rule:evenodd"/><polygon points="113.16 68.98 112.73 68.94 112.61 69.39 113.03 69.44 113.16 68.98" style="fill:#231f20;fill-rule:evenodd"/><path d="M110.18,70.87c-.31.76-.65,1.53-1,2.29l4.19.9c.41-.82.78-1.65,1.16-2.49Z" style="fill:none"/><rect x="117.98" y="70.74" width="0.6" height="0.38" transform="translate(15.16 162.51) rotate(-72.56)" style="fill:#231f20"/><path d="M112,72.23l-.42-.08c0,.15-.14.29-.19.44l.4.08C111.89,72.53,112,72.38,112,72.23Z" style="fill:#231f20;fill-rule:evenodd"/><polygon points="112.36 71.43 111.94 71.36 111.75 71.8 112.17 71.88 112.36 71.43" style="fill:#231f20;fill-rule:evenodd"/><path d="M55.09,73.32h-.22a4.2,4.2,0,0,1,1.43,1c.43,0,2.41.1,3.07.1h1.76a1,1,0,0,1,.55.11c-.33-.11-.66-.32-1-.43a3.71,3.71,0,0,0-1.1-.22,4.07,4.07,0,0,1,1.1-.1c.22,0,.55.1.77.1h0a1.29,1.29,0,0,0-.66-.21c-.22,0-.55-.11-.77-.11h-.55a3.15,3.15,0,0,1,1-.22c.11,0,.33-.1.44-.1h.22c-.22-.11-.44-.11-.66-.22H59c-.11,0,.22-.22.22-.32s.33-.22.44-.33.22-.11.33-.21h0a3.07,3.07,0,0,0-1.32.43A1.64,1.64,0,0,1,60,71.38h0a1.17,1.17,0,0,0-.88.11,1.11,1.11,0,0,0-.66.54v-.76c0-.21.11-.43,0-.65h0a.39.39,0,0,0-.11.22,1.52,1.52,0,0,1-.22.65c-.11.21-.11.43-.22.65,0-.11,0-.22-.11-.22a5.09,5.09,0,0,0-.66-1c-.11-.11-.22-.22-.33-.22s-.22-.11-.44-.21h0a.09.09,0,0,1-.1-.08v0h0v.11c.1,0,.1.1.21.1a.39.39,0,0,1,.11.22,1.54,1.54,0,0,1,.33.43,3.24,3.24,0,0,1,.44.87c0,.1,0,.21.11.21a.11.11,0,0,0-.11-.11h0a3.12,3.12,0,0,0-.66-.54,2.18,2.18,0,0,0-.87-.21h0c0,.11,0,.11.11.11a1.28,1.28,0,0,1,.54.54,1.87,1.87,0,0,1,.33.54,2.92,2.92,0,0,0-.76-.54,3.15,3.15,0,0,0-1-.22V72a2.33,2.33,0,0,1,.55.32,1.36,1.36,0,0,1,.55.54l.21.22c-.1-.11-.21-.11-.32-.22a3.21,3.21,0,0,0-1.32-.43h0l1,.65c.11.11.33.21.44.32s-.11,0-.11,0a4.7,4.7,0,0,0-1.73-.4v.11l1,.32C56,73.54,55.31,73.32,55.09,73.32Z" style="fill:#2e4d3a"/><path d="M31.45,70.73h-.22a4.2,4.2,0,0,1,1.43,1c.44,0,2.42.11,3.08.11H37.5a1,1,0,0,1,.55.11c-.33-.11-.66-.32-1-.43a3.78,3.78,0,0,0-1-.22,3.71,3.71,0,0,1,1.1-.11c.22,0,.55.11.77.11h0a1.18,1.18,0,0,0-.66-.21c-.22,0-.55-.11-.77-.11h-.55a3.15,3.15,0,0,1,1-.22,1.15,1.15,0,0,1,.55-.11h.22c-.22-.1-.44-.1-.66-.21H35.52c-.11,0,.22-.22.22-.33s.33-.21.44-.32.22-.11.33-.22h0a3.23,3.23,0,0,0-1.32.44,1.63,1.63,0,0,1,1.32-1.19h0a1.17,1.17,0,0,0-.88.11,1.11,1.11,0,0,0-.66.54v-.76c0-.22.11-.43,0-.65h0a.39.39,0,0,0-.11.22,1.52,1.52,0,0,1-.22.65c-.11.21-.11.43-.22.64a.36.36,0,0,0-.11-.21,5.09,5.09,0,0,0-.66-1c-.11-.1-.22-.21-.33-.21s-.22-.11-.44-.22h0a.11.11,0,0,1-.11-.11h0v.11c.11,0,.11.11.22.11a.39.39,0,0,1,.11.22,1.37,1.37,0,0,1,.33.43,3,3,0,0,1,.44.86v.22a.11.11,0,0,0-.11-.11h0a3.12,3.12,0,0,0-.66-.54,1.9,1.9,0,0,0-.88-.21h0c0,.1,0,.1.11.1a1.36,1.36,0,0,1,.55.54,3,3,0,0,1,.33.54,1.25,1.25,0,0,0-.66-.64,3.15,3.15,0,0,0-1-.22v.11a2.33,2.33,0,0,1,.55.32,1.36,1.36,0,0,1,.55.54l.22.22c-.11-.11-.22-.11-.33-.22a3.21,3.21,0,0,0-1.32-.43h0l1,.65c.11.11.33.21.44.32s-.11,0-.11,0a4.74,4.74,0,0,0-1.65-.43v.11l1,.32C32.33,71,31.67,70.73,31.45,70.73Z" style="fill:#2e4d3a"/><path d="M52.89,65.11h-.22a4,4,0,0,1,1.1.76c.33,0,1.87.11,2.42.11h1.86c-.22-.11-.55-.22-.77-.33a2.62,2.62,0,0,0-.88-.1,1.21,1.21,0,0,1,.88,0h.66c-.11-.11-.33-.11-.55-.22a1.36,1.36,0,0,0-.66-.11H56.3a5,5,0,0,1,.76-.21h.55a1,1,0,0,0-.55-.11H56c-.11,0,.11-.22.22-.22s.21-.21.32-.21.22-.11.33-.11h0a1.88,1.88,0,0,0-1,.32,1.48,1.48,0,0,1,1-1h0a.72.72,0,0,0-.65.11,1.07,1.07,0,0,0-.55.43v-.54c0-.11.11-.32,0-.54h0c-.11,0-.11.11-.11.22s-.11.32-.11.43a1.81,1.81,0,0,1-.22.54v-.22a2,2,0,0,0-.55-.75c-.11-.11-.22-.11-.22-.22s-.22-.11-.33-.22H54a.11.11,0,0,1,.11.11h0a.11.11,0,0,0,.11.11h0c.11.11.22.22.22.32l.33.65v.11a1.07,1.07,0,0,0-.55-.43,1.57,1.57,0,0,0-.66-.22h0a.11.11,0,0,0,.11.11h0a.92.92,0,0,1,.44.43.6.6,0,0,1,.22.43,2.58,2.58,0,0,0-.66-.43,5.16,5.16,0,0,0-.77-.21h0c.11.1.33.1.44.21a.92.92,0,0,1,.44.43c0,.11.11.11.11.22-.11-.11-.22-.11-.22-.22a1.88,1.88,0,0,0-1-.32h0a4.46,4.46,0,0,0,.77.43c.11.11.22.22.33.22h-.11a2.9,2.9,0,0,0-1.32-.33h0a1,1,0,0,1,.77.33C53.44,65.33,53,65.22,52.89,65.11Z" style="fill:#2e4d3a"/><path d="M40.58,76.89h-.22a3.16,3.16,0,0,1,1.31.32c.33-.1,1.87-.64,2.31-.75A5.59,5.59,0,0,1,45.3,76c.11,0,.33-.11.44-.11h-.88a2.7,2.7,0,0,0-.88.21,1.21,1.21,0,0,1,.77-.32,1.57,1.57,0,0,0,.66-.22h0c-.11-.1-.44,0-.55,0s-.44.11-.66.11-.22.11-.33.11a2.21,2.21,0,0,1,.66-.43c.11-.11.22-.11.33-.22S45,75,45.08,75h0a1,1,0,0,0-.55.11c-.33.11-.55.22-.88.33-.11,0-.11.1-.22.1s.11-.21.11-.32.11-.22.22-.32l.24-.2h0a1.45,1.45,0,0,0-.77.65,1.32,1.32,0,0,1,.66-1.3h0a1,1,0,0,0-.66.33.57.57,0,0,0-.33.54v-.11c0-.11-.11-.33-.11-.43a.44.44,0,0,0-.22-.44h0v1.3a.11.11,0,0,0-.11-.11h0a1.14,1.14,0,0,0-.77-.43c-.11,0-.22-.11-.33-.11H41c.11,0,.21.11.11.11.1.11.21.11.32.22l.55.54c0,.1.11.1.11.21L42,75.59a1.7,1.7,0,0,0-.66-.21h-.65l.11.11a1.06,1.06,0,0,1,.54.21c.11.11.22.22.33.22a1.52,1.52,0,0,0-.76-.11,1.85,1.85,0,0,0-.77.11h0a1.15,1.15,0,0,1,.55.11.78.78,0,0,1,.54.21c.11,0,.11.11.22.11a.35.35,0,0,1-.32-.11,4.05,4.05,0,0,0-1.1,0h0a2.71,2.71,0,0,1,.88.22c.11,0,.32.11.43.11h-.11a2.92,2.92,0,0,0-1.31.21h0a1.21,1.21,0,0,1,.88,0C41.23,76.78,40.8,76.78,40.58,76.89Z" style="fill:#2e4d3a"/><g style="opacity:0.5"><path d="M56.73,59.5c-.33-.44-1.42-.33-2-.33L52,59.5c-1.21,0-2.42,0-3.63.1a38.11,38.11,0,0,0-6,1.08c-.55.22-2.3.76-2.08,1.62.33,1.41,3.73,1.3,4.83,1.52a14.24,14.24,0,0,0,11-2.38C56.51,61,57.28,60.14,56.73,59.5Z" style="fill:#4e8e43"/><path d="M40.14,64.68c-1.43-1.08-3.52-1-5.17-.86h-.11a19.14,19.14,0,0,0-6.05,1,.71.71,0,0,0-.44.54c0,.43.66.65,1,.76A14.48,14.48,0,0,0,33.1,67a14,14,0,0,0,5.61-.43C39,66.41,41,65.22,40.14,64.68Z" style="fill:#4e8e43"/><path d="M39.81,59a5,5,0,0,0-1.1-.44,1.5,1.5,0,0,0-.66-.1,8.13,8.13,0,0,0-2.31,0A22.67,22.67,0,0,0,32,59.1c-.44.11-1,.22-1.21.65s1.43.76,1.65.87a13.79,13.79,0,0,0,3.63.1,5.85,5.85,0,0,0,3.3-.75C39.7,59.71,40.25,59.17,39.81,59Z" style="fill:#4e8e43"/><path d="M49.7,56.79c-.22-.1-.55-.21-.88-.32a.62.62,0,0,0-.44-.11,10.34,10.34,0,0,0-1.76,0,23.45,23.45,0,0,0-2.75.43c-.33.11-.77.11-.88.55s1.1.54,1.21.64A11.41,11.41,0,0,0,47,58a3.75,3.75,0,0,0,2.42-.54C49.59,57.34,50,57,49.7,56.79Z" style="fill:#4e8e43"/><path d="M56.84,65.33a16.88,16.88,0,0,0-6.59.65.11.11,0,0,0-.11.11h0a22.05,22.05,0,0,0-3.52,1.18c-.66.22-1.54.65-1.54,1.41,0,.43,1,.54,1.21.65a11.2,11.2,0,0,0,3.74.21,20.7,20.7,0,0,0,6.37-1.29c1-.33,2.64-.87,3.08-1.84C60,65.22,57.39,65.44,56.84,65.33Z" style="fill:#4e8e43"/><path d="M41.13,71.16c-1.1-.1-2.2,0-3.3-.1a18.81,18.81,0,0,0-3.52,0c-1.21.1-3.85.54-4.62,1.72a.84.84,0,0,0,0,1.19h0c0,.11.11.11.11.22a5.69,5.69,0,0,0,.77.32c.33.11.55.11.88.22a5.36,5.36,0,0,1,1.32.22c1.1.21,2.2.54,3.3.64,2.09.22,4.29-.75,6.26-1.29,1.1-.22,2.75-.33,3.08-1.52C45.85,71.38,41.78,71.16,41.13,71.16Z" style="fill:#4e8e43"/><path d="M61.57,74.4a19,19,0,0,0-7.36-.54,9.25,9.25,0,0,0-3.85-.1c-1.54.32-3.08.75-4.73,1.08a8.76,8.76,0,0,0-3,.86c-.55.33-2.74,2.38-1.43,3a7.4,7.4,0,0,0,3.08.54c1.65.1,3.3.43,4.95.54a43.48,43.48,0,0,0,9.12-.33c2-.21,3.74-.65,4.84-2.27C64,75.92,63,74.73,61.57,74.4Z" style="fill:#4e8e43"/></g><path d="M56.4,59.17c-.32-.43-1.42-.32-1.86-.32l-2.64.32c-1.21,0-2.31,0-3.52.11a35,35,0,0,0-5.83,1.08c-.55.22-2.19.76-2.08,1.62.33,1.41,3.51,1.3,4.61,1.51a12.91,12.91,0,0,0,10.45-2.37C56.19,60.68,57,59.82,56.4,59.17Z" style="fill:#777566"/><path d="M40.58,64.36c-1.43-1.08-3.3-1-4.95-.87h-.11a17.17,17.17,0,0,0-5.72,1,.7.7,0,0,0-.44.54c0,.43.66.64,1,.75a14,14,0,0,0,8.91.43C39.48,66.09,41.34,64.9,40.58,64.36Z" style="fill:#777566"/><path d="M40.25,58.63a3.6,3.6,0,0,0-1.1-.43,1.36,1.36,0,0,0-.66-.11,7.37,7.37,0,0,0-2.2,0,18.34,18.34,0,0,0-3.52.65c-.44.11-1,.22-1.21.65s1.32.75,1.65.86a12.58,12.58,0,0,0,3.52.11,5,5,0,0,0,3.08-.76C40.14,59.39,40.58,59,40.25,58.63Z" style="fill:#777566"/><path d="M49.7,56.47c-.22-.11-.55-.22-.77-.32a.62.62,0,0,0-.44-.11,7.58,7.58,0,0,0-1.65,0,21.36,21.36,0,0,0-2.64.43c-.33.11-.66.11-.88.54s1,.54,1.21.65a10.6,10.6,0,0,0,2.64,0,3.54,3.54,0,0,0,2.31-.54C49.59,57,50,56.69,49.7,56.47Z" style="fill:#777566"/><path d="M56.51,65a15.43,15.43,0,0,0-6.26.64.11.11,0,0,0-.11.11h0A16.85,16.85,0,0,0,46.84,67c-.66.22-1.43.65-1.54,1.4,0,.44.88.55,1.21.65a9.7,9.7,0,0,0,3.52.22A20.25,20.25,0,0,0,56.19,68c1-.32,2.52-.86,3-1.83C59.59,64.9,57.06,65.11,56.51,65Z" style="fill:#777566"/><path d="M41.56,70.84c-1.09-.11-2.08,0-3.07-.11a17.66,17.66,0,0,0-3.41,0c-1.21.11-3.74.54-4.4,1.73a1.16,1.16,0,0,0,0,1.19c0,.11.11.11.11.21l.66.33c.22.11.55.11.77.21.44.11.88.22,1.21.33,1.1.22,2.09.54,3.19.65,2.09.21,4.07-.76,6-1.3,1-.22,2.64-.32,2.86-1.51C46,71.06,42.11,70.84,41.56,70.84Z" style="fill:#777566"/><path d="M61,74.08a17.24,17.24,0,0,0-7-.54,8.9,8.9,0,0,0-3.74-.11c-1.54.33-3,.76-4.51,1.08a9,9,0,0,0-2.86.87c-.55.32-2.63,2.37-1.32,3a6.4,6.4,0,0,0,2.86.54c1.54.11,3.08.43,4.73.54a38.77,38.77,0,0,0,8.68-.32c1.87-.22,3.63-.65,4.62-2.27C63.33,75.59,62.34,74.4,61,74.08Z" style="fill:#777566"/><path d="M45.85,60c1.54-.33,3.19-.65,4.73-.87-.77,0-1.43.11-2.2.11a35,35,0,0,0-5.83,1.08c-.44.11-1.75.65-2,1.3C42.11,60.58,44.09,60.36,45.85,60Z" style="fill:#777566"/><path d="M32.11,64.14c1-.11,2-.21,3.08-.43a16.6,16.6,0,0,1,3.3-.22,13.67,13.67,0,0,0-2.86,0h-.11a17.58,17.58,0,0,0-4.73.65A4.86,4.86,0,0,0,32.11,64.14Z" style="fill:#777566"/><path d="M32.66,58.85a1.56,1.56,0,0,1,.77-.11,23.75,23.75,0,0,0,2.64-.54,16.25,16.25,0,0,1,2.31-.2,14.58,14.58,0,0,0-2.09,0,35,35,0,0,0-3.52.76A1.62,1.62,0,0,0,32,59C32.22,59,32.44,58.85,32.66,58.85Z" style="fill:#777566"/><path d="M46.18,56.47c.66-.11,1.32-.32,2-.43H46.84a16.48,16.48,0,0,0-2.31.43A4.17,4.17,0,0,0,46.18,56.47Z" style="fill:#777566"/><path d="M47.39,67.06c1.1-.43,2.2-.65,3.3-1a27.4,27.4,0,0,1,2.75-1,15.18,15.18,0,0,0-3.19.65.11.11,0,0,0-.11.11h0A16.86,16.86,0,0,0,46.84,67c-.55.21-1.43.65-1.54,1.4A3.79,3.79,0,0,1,47.39,67.06Z" style="fill:#777566"/><path d="M32.77,71.27a13.92,13.92,0,0,1,3.63-.43c1.54,0,3,.22,4.51.22.65,0,1.31-.11,2-.11a8.53,8.53,0,0,0-1.43-.11c-1.09-.11-2.08,0-3.07-.11a17.66,17.66,0,0,0-3.41,0c-1.21.11-3.74.54-4.4,1.73a.35.35,0,0,1-.11.32A8.08,8.08,0,0,1,32.77,71.27Z" style="fill:#777566"/><path d="M42.55,76.13a8.86,8.86,0,0,1,2.31-1.08l3.3-.65A12,12,0,0,1,51,73.76c1.1,0,2.2,0,3.3.1a32.78,32.78,0,0,0,3.29.11h2.86A16.13,16.13,0,0,0,54,73.65a8.58,8.58,0,0,0-3.74-.11c-1.54.32-3,.76-4.51,1.08a8.7,8.7,0,0,0-2.86.87,5.86,5.86,0,0,0-1.1,1.18A2,2,0,0,1,42.55,76.13Z" style="fill:#777566"/><g style="opacity:0.6000000238418579"><path d="M56.4,59.17c-.32-.43-1.42-.32-1.86-.32-.66.11-1.21.11-1.87.21a9.61,9.61,0,0,1,1.32.76V60a7.81,7.81,0,0,1-2.64,1.4,21.51,21.51,0,0,1-3.41,1.19,8.89,8.89,0,0,1-3.41,0,17.45,17.45,0,0,1-3.3-1.08c-.1,0-.1-.11-.1-.11h0a4.4,4.4,0,0,1,2-1.08,4.07,4.07,0,0,1,1.21-.43,8.23,8.23,0,0,0-1.76.43c-.55.22-2.19.76-2.08,1.62.33,1.41,3.51,1.3,4.61,1.51a12.91,12.91,0,0,0,10.45-2.37C56.19,60.68,57,59.82,56.4,59.17Z" style="fill:#777566"/><path d="M40.58,64.36c-.55.32-1.21.54-1.76.86a5.6,5.6,0,0,1-2.09.76,9.74,9.74,0,0,1-2.53,0,16.27,16.27,0,0,1-2.31-.22c-.44-.11-2.2-.32-1.76-1.08.11-.11.11-.21.22-.32-.22.11-.44.11-.55.21a.73.73,0,0,0-.44.54c0,.44.66.65,1,.76a13,13,0,0,0,3.52.86,12.93,12.93,0,0,0,5.39-.43C39.48,66.09,41.34,64.9,40.58,64.36Z" style="fill:#777566"/><path d="M38.6,59.39a19.7,19.7,0,0,1-2.42.54,9.79,9.79,0,0,1-4.62-.43c0,.54,1.43.64,1.65.75a12.58,12.58,0,0,0,3.52.11,5,5,0,0,0,3.08-.76,1,1,0,0,0,.55-.75A3.31,3.31,0,0,1,38.6,59.39Z" style="fill:#777566"/><path d="M45.63,57.55c-.55,0-1.87,0-2.2-.54V56.9a.11.11,0,0,1-.11.11h0c-.22.43,1,.54,1.21.65a10.6,10.6,0,0,0,2.64,0,3.54,3.54,0,0,0,2.31-.54l.33-.33A6.54,6.54,0,0,1,45.63,57.55Z" style="fill:#777566"/><path d="M57.94,65.11c.11,0,.22.11.33.22s.11.11,0,.22h0a7.86,7.86,0,0,1-2.52,1.18,23.46,23.46,0,0,1-3.3,1.52,25.64,25.64,0,0,1-4,.54,7.84,7.84,0,0,1-3.19-.33h0c0,.44.88.54,1.21.65a9.7,9.7,0,0,0,3.52.22A20,20,0,0,0,56.19,68c1-.32,2.52-.86,3-1.84C59.37,65.33,58.71,65.11,57.94,65.11Z" style="fill:#777566"/><path d="M43.87,71.16c.55.33,1.1.87.55,1.19a5.51,5.51,0,0,1-1.32.43,15.68,15.68,0,0,0-2.41.76,14.48,14.48,0,0,1-2.86,1,8.13,8.13,0,0,1-2.31,0,12.17,12.17,0,0,1-4.73-1.73c-.11,0-.11-.1,0-.21a5.12,5.12,0,0,1,1.1-1.08,3.35,3.35,0,0,0-1.21,1,1.16,1.16,0,0,0,0,1.19c0,.11.11.11.11.21l.66.33c.22.11.55.11.77.21.44.11.88.22,1.21.33,1.1.22,2.09.54,3.19.65,2.09.21,4.07-.76,6-1.3,1-.22,2.64-.32,2.86-1.51C45.74,71.7,44.86,71.38,43.87,71.16Z" style="fill:#777566"/><path d="M61.57,76.46a7.43,7.43,0,0,1-2.2.65,56,56,0,0,1-6,1.51c-4,.65-7.92-.22-11.77-1.51a.11.11,0,0,1-.11-.11h0c-.32.54-.43,1.19.11,1.51a6.4,6.4,0,0,0,2.86.54c1.54.11,3.08.43,4.73.54a38.77,38.77,0,0,0,8.68-.32c1.87-.22,3.63-.65,4.62-2.27a1.61,1.61,0,0,0,.11-1.84A3,3,0,0,1,61.57,76.46Z" style="fill:#777566"/></g><path d="M77.65,10.43h-.22a4.2,4.2,0,0,1,1.43,1c.44,0,2.42.1,3.08.1h1.75a1,1,0,0,1,.55.11c-.33-.11-.66-.32-1-.43a3.71,3.71,0,0,0-1.1-.22,4.07,4.07,0,0,1,1.1-.1c.21,0,.54.1.76.1h0a1.25,1.25,0,0,0-.65-.21c-.22,0-.55-.11-.77-.11H82a3.15,3.15,0,0,1,1-.22c.11,0,.33-.11.43-.11h.22c-.22-.1-.43-.1-.65-.21H81.61c-.11,0,.22-.22.22-.33s.33-.21.44-.32.22-.11.33-.22h0a3.23,3.23,0,0,0-1.32.44A1.64,1.64,0,0,1,82.6,8.49h0a1.17,1.17,0,0,0-.88.11,1.11,1.11,0,0,0-.66.54V8.38c0-.22.11-.43,0-.65h0A.33.33,0,0,0,81,8a1.52,1.52,0,0,1-.22.65c-.11.21-.11.43-.22.64,0-.1,0-.21-.11-.21a4.81,4.81,0,0,0-.66-1c-.11-.11-.22-.22-.33-.22s-.22-.11-.44-.22h0s-.11,0-.11-.1v.1c.11,0,.11.11.22.11a.39.39,0,0,1,.11.22,1.37,1.37,0,0,1,.33.43,3,3,0,0,1,.44.86c0,.11,0,.22.11.22A.11.11,0,0,0,80,9.35h0a3.12,3.12,0,0,0-.66-.54,1.9,1.9,0,0,0-.88-.21h0c0,.1,0,.1.11.1a1.36,1.36,0,0,1,.55.54,3,3,0,0,1,.33.54,3.8,3.8,0,0,0-.77-.54,3.43,3.43,0,0,0-1-.21v.11a2.33,2.33,0,0,1,.55.32,1.3,1.3,0,0,1,.55.54l.22.22c-.11-.11-.22-.11-.33-.22a3.07,3.07,0,0,0-1.32-.43h0l1,.65c.11.1.33.21.44.32s-.11,0-.11,0a4.65,4.65,0,0,0-1.76-.43v.11l1,.32C78.53,10.65,77.87,10.43,77.65,10.43Z" style="fill:#2e4d3a"/><path d="M54,7.84h-.22a4.2,4.2,0,0,1,1.43,1c.44,0,2.42.11,3.08.11h1.76a1,1,0,0,1,.55.11c-.33-.11-.66-.33-1-.43a3.71,3.71,0,0,0-1.1-.22,3.71,3.71,0,0,1,1.1-.11c.22,0,.55.11.77.11h0a1.19,1.19,0,0,0-.66-.22c-.22,0-.55-.1-.77-.1h-.55a3.15,3.15,0,0,1,1-.22A1.19,1.19,0,0,1,60,7.73h.22c-.22-.11-.44-.11-.66-.21H58.08c-.11,0,.22-.22.22-.33s.33-.21.44-.32.22-.11.33-.22h0a3.21,3.21,0,0,0-1.32.43A1.64,1.64,0,0,1,59.07,5.9h0a1.22,1.22,0,0,0-.88.1,1.14,1.14,0,0,0-.66.54V5.79c0-.22.11-.43,0-.65h0a.39.39,0,0,0-.11.22A1.44,1.44,0,0,1,57.2,6c-.11.22-.11.44-.22.65a.33.33,0,0,0-.11-.21,5.09,5.09,0,0,0-.66-1c-.11-.1-.22-.21-.33-.21s-.22-.11-.44-.22h0a.11.11,0,0,1-.11-.11h0V5c.11,0,.11.11.22.11a.39.39,0,0,1,.11.22,1.37,1.37,0,0,1,.33.43,3,3,0,0,1,.44.86v.22a.11.11,0,0,0-.11-.11h0a2.89,2.89,0,0,0-.66-.54A2.08,2.08,0,0,0,54.78,6h0c0,.11,0,.11.11.11a1.36,1.36,0,0,1,.55.54,3,3,0,0,1,.33.54,1.31,1.31,0,0,0-.66-.65,3.43,3.43,0,0,0-1-.21v.11a2.33,2.33,0,0,1,.55.32,1.3,1.3,0,0,1,.55.54l.22.22c-.11-.11-.22-.11-.33-.22a3.07,3.07,0,0,0-1.32-.43h0l1,.65c.11.1.33.21.44.32s-.11,0-.11,0a4.53,4.53,0,0,0-1.65-.43v.11l1,.32C54.89,8.06,54.23,7.84,54,7.84Z" style="fill:#2e4d3a"/><path d="M75.45,2.22h-.22a4,4,0,0,1,1.1.76c.33,0,1.87.11,2.42.11h1.87c-.22-.11-.55-.22-.77-.33A2.43,2.43,0,0,0,79,2.65a1.33,1.33,0,0,1,.88,0h.66c-.11-.1-.33-.1-.55-.21a1.36,1.36,0,0,0-.66-.11h-.44a6.77,6.77,0,0,1,.77-.22h.55a1,1,0,0,0-.55-.1h-1.1c-.11,0,.11-.22.22-.22s.22-.22.33-.22.22-.1.33-.1h0a1.7,1.7,0,0,0-1,.32,1.48,1.48,0,0,1,1-1h0a.74.74,0,0,0-.66.11,1,1,0,0,0-.55.43V.82c0-.11.11-.33,0-.54h0c-.11,0-.11.11-.11.21S78,.82,78,.93a1.81,1.81,0,0,1-.22.54V1.25a2.06,2.06,0,0,0-.55-.76C77.1.39,77,.39,77,.28s-.22-.11-.33-.22h-.11a.11.11,0,0,1,.11.11h0a.11.11,0,0,0,.11.11h0c.11.11.22.21.22.32l.33.65v.11a1,1,0,0,0-.55-.43,1.57,1.57,0,0,0-.66-.22h0a.11.11,0,0,0,.11.11h0a.84.84,0,0,1,.44.43.6.6,0,0,1,.22.43,2.58,2.58,0,0,0-.66-.43A7.08,7.08,0,0,0,75.45,1h0c.11.11.33.11.44.22a.92.92,0,0,1,.44.43c0,.11.11.11.11.22-.11-.11-.22-.11-.22-.22a1.88,1.88,0,0,0-1-.32h0a4.46,4.46,0,0,0,.77.43c.11.11.22.22.33.22h-.11a2.9,2.9,0,0,0-1.32-.33h0a1,1,0,0,1,.77.33C76,2.44,75.56,2.33,75.45,2.22Z" style="fill:#2e4d3a"/><path d="M63.14,14h-.22a2.89,2.89,0,0,1,1.32.32c.33-.11,1.87-.65,2.31-.75a5.54,5.54,0,0,1,1.32-.44c.11,0,.33-.1.43-.1h-.87a2.7,2.7,0,0,0-.88.21,1.21,1.21,0,0,1,.77-.32A1.65,1.65,0,0,0,68,12.7h0c-.11-.11-.44,0-.55,0s-.44.11-.66.11-.22.11-.33.11a2.09,2.09,0,0,1,.66-.43c.11-.11.22-.11.33-.22s.11-.11.22-.11h0a1,1,0,0,0-.55.11c-.33.11-.55.22-.88.32-.11,0-.11.11-.22.11s.11-.21.11-.32.11-.22.22-.33l.22-.21h0a1.45,1.45,0,0,0-.77.65,1.32,1.32,0,0,1,.66-1.3h0a1,1,0,0,0-.66.32.6.6,0,0,0-.33.54V12c0-.11-.11-.33-.11-.44a.45.45,0,0,0-.22-.43h0v1.3a.11.11,0,0,0-.11-.11h0a1.14,1.14,0,0,0-.77-.43c-.11,0-.22-.11-.33-.11H63.6c.11,0,.22.11.11.11.11.11.22.11.33.21l.55.54c0,.11.11.11.11.22l-.11-.11a1.55,1.55,0,0,0-.66-.21h-.66l.11.1c.22,0,.33.11.55.22s.22.22.33.22a1.56,1.56,0,0,0-.77-.11,1.85,1.85,0,0,0-.77.11h0a1.28,1.28,0,0,1,.55.1.82.82,0,0,1,.55.22c.11,0,.11.11.22.11a.38.38,0,0,1-.33-.11,4.05,4.05,0,0,0-1.1,0h0a2.71,2.71,0,0,1,.88.22c.11,0,.33.1.44.1h-.11a2.85,2.85,0,0,0-1.32.22h0a1.21,1.21,0,0,1,.88,0C63.8,13.89,63.36,13.89,63.14,14Z" style="fill:#2e4d3a"/><g style="opacity:0.5"><path d="M79.3-3.4c-.33-.43-1.43-.32-2-.32l-2.75.32c-1.21,0-2.42,0-3.63.11a38.11,38.11,0,0,0-6,1.08c-.55.22-2.31.76-2.09,1.62C63.14.82,66.55.71,67.65.93a14.24,14.24,0,0,0,11-2.38C79.08-1.88,79.85-2.75,79.3-3.4Z" style="fill:#4e8e43"/><path d="M62.7,1.79C61.27.71,59.18.82,57.53.93h-.11a19.11,19.11,0,0,0-6,1,.71.71,0,0,0-.44.54c0,.43.66.65,1,.75a14.07,14.07,0,0,0,3.73.87,14.35,14.35,0,0,0,5.61-.43C61.6,3.52,63.58,2.33,62.7,1.79Z" style="fill:#4e8e43"/><path d="M79.41,2.44a16.94,16.94,0,0,0-6.6.65s-.11,0-.11.1a23.14,23.14,0,0,0-3.52,1.19c-.66.22-1.53.65-1.53,1.41,0,.43,1,.54,1.2.65a11.2,11.2,0,0,0,3.74.21A21.31,21.31,0,0,0,79,5.36c1-.33,2.64-.87,3.08-1.84C82.6,2.33,80,2.55,79.41,2.44Z" style="fill:#4e8e43"/><path d="M63.69,8.27c-1.1-.11-2.2,0-3.3-.11a20.69,20.69,0,0,0-3.52,0c-1.21.11-3.84.54-4.61,1.73a.84.84,0,0,0,0,1.19h0c0,.11.11.11.11.22a7.19,7.19,0,0,0,.76.32c.33.11.55.11.88.22a5.86,5.86,0,0,1,1.32.21c1.1.22,2.2.54,3.3.65,2.09.22,4.29-.75,6.27-1.29,1.1-.22,2.75-.33,3.08-1.52C68.41,8.49,64.35,8.27,63.69,8.27Z" style="fill:#4e8e43"/><path d="M84.13,11.51A19,19,0,0,0,76.77,11a9.25,9.25,0,0,0-3.85-.1c-1.54.32-3.08.75-4.72,1.08a8.54,8.54,0,0,0-3,.86c-.55.32-2.75,2.38-1.43,3a7.4,7.4,0,0,0,3.08.54c1.64.11,3.29.44,4.94.55A43.66,43.66,0,0,0,81,16.59c2-.22,3.73-.65,4.83-2.27C86.55,13,85.56,11.84,84.13,11.51Z" style="fill:#4e8e43"/></g><path d="M79-3.72C78.64-4.15,77.54-4,77.1-4l-2.64.32c-1.21,0-2.31,0-3.52.11a33.72,33.72,0,0,0-5.82,1.08c-.55.21-2.2.75-2.09,1.62C63.36.49,66.55.39,67.65.6A12.88,12.88,0,0,0,78.09-1.78C78.75-2.21,79.52-3.07,79-3.72Z" style="fill:#777566"/><path d="M63.14,1.47c-1.43-1.08-3.3-1-5-.87H58a17.33,17.33,0,0,0-5.71,1,.73.73,0,0,0-.44.54c0,.44.66.65,1,.76a12.88,12.88,0,0,0,3.51.86,12.93,12.93,0,0,0,5.39-.43C62,3.19,63.91,2,63.14,1.47Z" style="fill:#777566"/><path d="M79.08,2.11a15.31,15.31,0,0,0-6.27.65.11.11,0,0,0-.11.11h0a16.89,16.89,0,0,0-3.3,1.19c-.66.21-1.42.65-1.53,1.4,0,.44.87.54,1.2.65a9.7,9.7,0,0,0,3.52.22A20.33,20.33,0,0,0,78.75,5c1-.32,2.53-.86,3-1.84C82.16,2,79.63,2.22,79.08,2.11Z" style="fill:#777566"/><path d="M64.13,8C63,7.84,62,8,61.05,7.84a17.66,17.66,0,0,0-3.41,0c-1.21.11-3.74.54-4.4,1.73a1.2,1.2,0,0,0,0,1.19c0,.11.11.11.11.21l.66.33c.22.11.55.11.77.21.44.11.88.22,1.21.33,1.1.21,2.09.54,3.19.65,2.09.21,4.07-.76,6.05-1.3,1-.22,2.64-.32,2.86-1.51C68.52,8.16,64.68,8,64.13,8Z" style="fill:#777566"/><path d="M83.58,11.19a17.06,17.06,0,0,0-7-.54,8.58,8.58,0,0,0-3.74-.11c-1.54.33-3,.76-4.51,1.08a8.65,8.65,0,0,0-2.85.87c-.55.32-2.64,2.37-1.32,3A6.45,6.45,0,0,0,67,16c1.53.11,3.07.43,4.72.54a38.88,38.88,0,0,0,8.69-.32C82.27,16.05,84,15.62,85,14,85.89,12.7,84.9,11.51,83.58,11.19Z" style="fill:#777566"/><path d="M54.67,1.25c1-.11,2-.22,3.08-.43A17.39,17.39,0,0,1,61.05.6a12.43,12.43,0,0,0-2.86,0h-.11a17.58,17.58,0,0,0-4.73.65A4.86,4.86,0,0,0,54.67,1.25Z" style="fill:#777566"/><path d="M70,4.17c1.1-.44,2.2-.65,3.3-1S75,2.44,76,2.22a15.18,15.18,0,0,0-3.19.65A.11.11,0,0,0,72.7,3V3h0a16.89,16.89,0,0,0-3.3,1.19c-.55.21-1.42.64-1.53,1.4A3.76,3.76,0,0,1,70,4.17Z" style="fill:#777566"/><path d="M55.33,8.38A14.18,14.18,0,0,1,59,8c1.54,0,3,.21,4.51.21.66,0,1.32-.1,2-.1A8.46,8.46,0,0,0,64,8c-1.1-.11-2.09,0-3.08-.11a17.66,17.66,0,0,0-3.41,0c-1.21.11-3.74.54-4.4,1.73a.41.41,0,0,1-.1.32A7.58,7.58,0,0,1,55.33,8.38Z" style="fill:#777566"/><path d="M65.12,13.24a8.86,8.86,0,0,1,2.31-1.08l3.29-.65a12.1,12.1,0,0,1,2.86-.64c1.1,0,2.2,0,3.3.1s2.2.11,3.3.11H83a16.32,16.32,0,0,0-6.49-.32,8.58,8.58,0,0,0-3.74-.11c-1.54.32-3,.76-4.51,1.08a8.63,8.63,0,0,0-2.85.86,5.66,5.66,0,0,0-1.1,1.19A2,2,0,0,1,65.12,13.24Z" style="fill:#777566"/><g style="opacity:0.6000000238418579"><path d="M79-3.72C78.64-4.15,77.54-4,77.1-4c-.66.1-1.21.1-1.87.21A8.86,8.86,0,0,1,76.55-3v.21a7.83,7.83,0,0,1-2.64,1.41A21.26,21.26,0,0,1,70.5-.26a9.25,9.25,0,0,1-3.4,0,17.45,17.45,0,0,1-3.3-1.08.11.11,0,0,1-.11-.11h0a4.4,4.4,0,0,1,2-1.08A3.94,3.94,0,0,1,66.88-3a7.67,7.67,0,0,0-1.76.43c-.55.21-2.2.75-2.09,1.62C63.36.49,66.55.39,67.65.6A12.88,12.88,0,0,0,78.09-1.78C78.75-2.21,79.52-3.07,79-3.72Z" style="fill:#777566"/><path d="M63.14,1.47c-.55.32-1.21.54-1.76.86a5.6,5.6,0,0,1-2.09.76,10.71,10.71,0,0,1-2.53,0,16.27,16.27,0,0,1-2.31-.22c-.44-.11-2.19-.32-1.75-1.08.11-.11.11-.22.22-.32-.22.1-.44.1-.55.21a.73.73,0,0,0-.44.54c0,.43.66.65,1,.76a12.88,12.88,0,0,0,3.51.86,12.93,12.93,0,0,0,5.39-.43C62,3.19,63.91,2,63.14,1.47Z" style="fill:#777566"/><path d="M80.51,2.22c.11,0,.22.11.33.22s.11.11,0,.21h0a7.63,7.63,0,0,1-2.53,1.19A23.57,23.57,0,0,1,75,5.36a25.64,25.64,0,0,1-4,.54,7.8,7.8,0,0,1-3.18-.33h0c0,.43.87.54,1.2.65a10.16,10.16,0,0,0,3.52.22,20.29,20.29,0,0,0,6.16-1.3c1-.33,2.53-.87,3-1.84C81.94,2.44,81.28,2.22,80.51,2.22Z" style="fill:#777566"/><path d="M66.44,8.27c.55.33,1.1.87.55,1.19a6.17,6.17,0,0,1-1.32.43,15.45,15.45,0,0,0-2.42.76,14.48,14.48,0,0,1-2.86,1,8.13,8.13,0,0,1-2.31,0,12.17,12.17,0,0,1-4.73-1.73c-.11,0-.11-.11,0-.21a4.9,4.9,0,0,1,1.1-1.08,3.35,3.35,0,0,0-1.21,1,1.2,1.2,0,0,0,0,1.19c0,.11.11.11.11.21l.66.33c.22.11.55.11.77.21.44.11.88.22,1.21.33,1.1.21,2.09.54,3.19.65,2.09.21,4.07-.76,6.05-1.3,1-.22,2.64-.32,2.86-1.51C68.3,8.81,67.43,8.49,66.44,8.27Z" style="fill:#777566"/><path d="M84.13,13.57a7.26,7.26,0,0,1-2.19.64,56.05,56.05,0,0,1-6,1.52c-4,.64-7.91-.22-11.76-1.52,0,0-.11,0-.11-.1-.33.54-.44,1.18.11,1.51a6.4,6.4,0,0,0,2.86.54c1.53.11,3.07.43,4.72.54a38.28,38.28,0,0,0,8.69-.33c1.87-.21,3.62-.64,4.61-2.26a1.61,1.61,0,0,0,.11-1.84A3.08,3.08,0,0,1,84.13,13.57Z" style="fill:#777566"/></g><path d="M72.15,24.7h-.69a6,6,0,0,1-1.2,0c-.39-.08-3.34-.06-3.73-.22a7,7,0,0,0-.69-.19h-.07c.09,0,.2,0,.2.06a2,2,0,0,1,.58.21c.37.14,3.32.14,3.73.22.21,0,.41,0,.62.08s.42,0,.63,0a1.65,1.65,0,0,1,.62-.1Z" style="fill:url(#d)"/><path d="M72.15,24.42a14.77,14.77,0,0,1-1.63,0c-.35,0-3.28-.08-3.62-.13l-.65-.11h-.09l.69.11c.37.05,3.32.13,3.71.13Z" style="fill:url(#e)"/><path d="M72.15,24.34H70.8c-.45,0-3.17,0-3.43-.08l-.26-.05H67a1.09,1.09,0,0,1,.31.08c.32.05,3.23.08,3.55.08h.89a.42.42,0,0,0,.38,0Z" style="fill:url(#f)"/><path d="M36,17.65a.9.9,0,0,1,.15.19.8.8,0,0,1,.07.34,1.6,1.6,0,0,1-.49,1.12.78.78,0,0,1-.63.27.32.32,0,0,1-.23-.13.42.42,0,0,1,0-.33l.27-1C35.21,17.73,35.58,17.29,36,17.65Z" style="fill:#704843"/><path d="M28,16.11a.48.48,0,0,0-.22.12.62.62,0,0,0-.18.29,1.66,1.66,0,0,0,0,1.22.81.81,0,0,0,.5.49.32.32,0,0,0,.27,0,.44.44,0,0,0,.12-.3l.13-1C28.75,16.47,28.57,15.93,28,16.11Z" style="fill:#704843"/><path d="M29.41,14a4,4,0,0,0-.77,2.07c-.08.74-.24,2-.22,2.29.1,1.28,1.64,2.42,1.76,2.51a2.2,2.2,0,0,0,2,.32,3.9,3.9,0,0,0,2.61-1.79,4.88,4.88,0,0,0,.6-1.78,9.83,9.83,0,0,0,.22-2.09A2.21,2.21,0,0,0,34.51,14a9.41,9.41,0,0,0-2.78-.66A2.69,2.69,0,0,0,29.41,14Z" style="fill:#7f5449"/><path d="M28.66,16.58c.23-.9.57-2.26,1.17-2.48s2,.32,2.63.44,2,.23,2.38.38a.77.77,0,0,1,.57.61A8.06,8.06,0,0,1,35.24,18c.18-.06.28-.4.38-.64a6.62,6.62,0,0,0,.43-2.57,3.1,3.1,0,0,0-1.72-2.32,8.88,8.88,0,0,0-2.74-.53,2.66,2.66,0,0,0-2.3,1.15,5.93,5.93,0,0,0-.72,2.6C28.52,16.63,28.6,16.84,28.66,16.58Z" style="fill:#230700"/><path d="M31.15,18.59c.06,0,.11.2.45.27s.47-.1.51-.07-.07.37-.5.31S31,18.67,31.15,18.59Z" style="fill:#63413b"/><path d="M30.55,19.44c.09,0,.52.26.87.33a2.17,2.17,0,0,0,.88,0c.1,0-.06.32-.91.14S30.55,19.44,30.55,19.44Z" style="fill:#63413b"/><path d="M29.26,16.94c.07-.35.66-.53,1.13-.43s.84.43.78.76-.47.55-1,.47S29.19,17.32,29.26,16.94Z" style="fill:#ffecd8"/><path d="M30.61,15.78a1.91,1.91,0,0,0-.63,0c-.16,0-.26.08-.27.06s.08-.43.85-.3c.61.12.77.42.72.5S31,15.84,30.61,15.78Z" style="fill:#230601"/><ellipse cx="30.27" cy="17.15" rx="0.54" ry="0.52" transform="translate(-4.28 21.23) rotate(-36.27)" style="fill:#290600"/><circle cx="29.95" cy="17.02" r="0.21" transform="translate(7.55 43.19) rotate(-79.04)" style="fill:#fcfcfc"/><path d="M30.41,16.35a1,1,0,0,1,.77.83c0,.49,0-.55-.83-.68a1,1,0,0,0-1.14.57A.89.89,0,0,1,30.41,16.35Z" style="fill:#230601"/><path d="M33.78,16.39a1.55,1.55,0,0,1,.59.21,1.82,1.82,0,0,1,.23.15s.08-.43-.66-.6-.88.1-.86.2S33.46,16.33,33.78,16.39Z" style="fill:#230601"/><path d="M32.65,17.57c.06-.35.65-.54,1.12-.43s.84.44.77.79-.46.56-1,.48S32.58,17.94,32.65,17.57Z" style="fill:#ffecd8"/><ellipse cx="33.65" cy="17.78" rx="0.54" ry="0.52" transform="translate(-4 23.35) rotate(-36.27)" style="fill:#290600"/><circle cx="33.34" cy="17.64" r="0.21" transform="translate(9.68 47.02) rotate(-79.04)" style="fill:#fcfcfc"/><path d="M33.79,17a1,1,0,0,1,.77.84c0,.49,0-.56-.83-.69a1,1,0,0,0-1.14.56C32.72,16.88,33.41,16.93,33.79,17Z" style="fill:#230601"/><path d="M44.7,14.38a1,1,0,0,1,.25.09c.13.08.17.18.26.27a1.76,1.76,0,0,1,.22,1.4.77.77,0,0,1-.46.61.33.33,0,0,1-.32,0,.31.31,0,0,1-.17-.3c-.14-.38-.22-.72-.36-1.09S44.14,14.29,44.7,14.38Z" style="fill:#704843"/><path d="M36.65,17.46a.69.69,0,0,0-.13.23,1,1,0,0,0,0,.38,1.78,1.78,0,0,0,.77,1.19.74.74,0,0,0,.74.14.35.35,0,0,0,.24-.21.32.32,0,0,0-.08-.34c-.15-.38-.32-.68-.46-1.06S37,17,36.65,17.46Z" style="fill:#704843"/><path d="M36.64,14.69a4.88,4.88,0,0,0,.5,2.4,21.86,21.86,0,0,0,1.13,2.28c.82,1.17,2.9,1.36,3,1.36a2.39,2.39,0,0,0,2-.83,4.46,4.46,0,0,0,1.3-3.21,4.65,4.65,0,0,0-.51-2,12.09,12.09,0,0,0-1-2.14,2.28,2.28,0,0,0-1.88-.76,8.76,8.76,0,0,0-2.89,1A2.93,2.93,0,0,0,36.64,14.69Z" style="fill:#7f5449"/><path d="M40.88,18.06c0-.07.2.11.57,0s.33-.37.45-.36.19.36-.25.59S40.83,18.2,40.88,18.06Z" style="fill:#63413b"/><path d="M40.84,19.19c.07-.09.61-.05,1-.19a2.73,2.73,0,0,0,.82-.5c.07-.09.12.33-.76.66S40.84,19.19,40.84,19.19Z" style="fill:#63413b"/><path d="M41.8,19.5c.07,0,.14.07.21,0s.07-.09.11-.1.1,0,.07,0a.2.2,0,0,1-.14.18.26.26,0,0,1-.27,0C41.71,19.53,41.8,19.5,41.8,19.5Z" style="fill:#63413b"/><path d="M38.76,15.67a3,3,0,0,0-.61.35,1.82,1.82,0,0,0-.19.2c0-.06-.18-.49.6-.79s.93,0,.93.08S39.08,15.54,38.76,15.67Z" style="fill:#1c0803"/><path d="M42,14.44a2.23,2.23,0,0,1,.68-.14,1.89,1.89,0,0,1,.28,0c0-.06-.19-.49-1-.19s-.73.59-.64.68S41.66,14.56,42,14.44Z" style="fill:#1c0803"/><path d="M36.31,16.13a4.19,4.19,0,0,1-.41-1.75l0-.11c-.06,0-.2,0-.23.09l-.07.21a.51.51,0,0,1-.45.36.61.61,0,0,1-.51-.24,1,1,0,0,0-.19-.36.78.78,0,0,1-1.15-.24A.77.77,0,0,1,33.65,13a1.2,1.2,0,0,1-.47-.81.81.81,0,0,1,.45-.6.69.69,0,0,1,.7.16c.1-.28.21-.69.84-.56.29.07.57.39.42.7a.56.56,0,0,1,.42-.16c.16,0,.27,0,.33.18s-.23.64-.1.84.28-.23.44-.36a4.45,4.45,0,0,1,1.76-1.34,4.36,4.36,0,0,1,2.17-.53,6.89,6.89,0,0,1,1.06.15c.09,0,.12-.1.12-.23s-.23-.34-.29-.5c-.19-.36,0-.82.66-.75a.64.64,0,0,1,.13-1,.75.75,0,0,1,1.1.39c0,.11,0,.19,0,.23s.17-.12.24-.21a.85.85,0,0,1,.77.07,1.06,1.06,0,0,1,.42.7c0,.38-.26.41-.38.52l.25.09a.81.81,0,0,1,.17.86c-.15.31-.7.52-.9.28-.07,0-.14.06-.16.13l-.08.21c-.07.09-.2-.11-.31-.13s-.21.15-.24.22c.36.11.46.63.65,1a9.62,9.62,0,0,1,.31,1.23c0,.25.16,1,0,1a13.92,13.92,0,0,0-.88-1.88,2.56,2.56,0,0,0-.8-.86,2.11,2.11,0,0,0-1-.19,6.86,6.86,0,0,0-3.24,1,3.1,3.1,0,0,0-1,.77,3.23,3.23,0,0,0-.49.92,2.26,2.26,0,0,0,0,1,2.85,2.85,0,0,0,.29.88,3.24,3.24,0,0,1,.37,1C37.19,17.46,36.6,16.76,36.31,16.13Z" style="fill:#230700"/><path d="M35.25,13.25c.17-.93,1-.82,1-.71a.3.3,0,0,0,.24.21c.1,0-.31.43-.41.84a2.73,2.73,0,0,0-.1.72l-.38,0A.86.86,0,0,1,35.25,13.25Z" style="fill:#bc66cc"/><path d="M43.16,10.22a.83.83,0,0,0-1.32.14c0,.1-.07.21-.14.3s.65.18,1,.42a2.72,2.72,0,0,1,.55.47s.19-.2.26-.29S43.76,10.67,43.16,10.22Z" style="fill:#bc66cc"/><path d="M38.34,17.49c-.14-.38.26-.84.72-1s1-.07,1.13.31-.08.77-.59,1S38.49,17.87,38.34,17.49Z" style="fill:#ffecd8"/><ellipse cx="39.35" cy="17.1" rx="0.54" ry="0.58" transform="translate(-1.64 4.44) rotate(-6.32)" style="fill:#290600"/><ellipse cx="39.01" cy="17.17" rx="0.2" ry="0.23" transform="translate(-3.56 15.06) rotate(-20.91)" style="fill:#fcfcfc"/><path d="M39.05,16.3a1,1,0,0,1,1.14.36c.28.45-.3-.5-1.13-.18a1,1,0,0,0-.65,1.17A.91.91,0,0,1,39.05,16.3Z" style="fill:#230601"/><path d="M41.66,16.22c-.15-.37.26-.84.72-1s1-.07,1.12.31-.08.77-.58,1S41.8,16.6,41.66,16.22Z" style="fill:#ffecd8"/><ellipse cx="42.67" cy="15.83" rx="0.54" ry="0.58" transform="translate(-1.48 4.8) rotate(-6.32)" style="fill:#290600"/><ellipse cx="42.33" cy="15.91" rx="0.2" ry="0.23" transform="translate(-2.89 16.16) rotate(-20.91)" style="fill:#fcfcfc"/><path d="M42.34,15a1,1,0,0,1,1.14.36c.28.45-.29-.5-1.12-.19a1,1,0,0,0-.66,1.18A1,1,0,0,1,42.34,15Z" style="fill:#230601"/><text transform="translate(34.4 6.91) scale(1.3 1)" style="isolation:isolate;font-size:5.388359546661377px;font-family:ArialMT, Arial">1</text><rect x="57.72" y="33.37" width="10.09" height="7.94" style="fill:#960009"/><g style="mix-blend-mode:soft-light"><rect x="57.72" y="33.92" width="10.09" height="0.78" style="fill:#fff"/><rect x="57.72" y="35.15" width="10.09" height="0.78" style="fill:#fff"/><rect x="57.72" y="36.38" width="10.09" height="0.78" style="fill:#fff"/><rect x="57.72" y="37.62" width="10.09" height="0.78" style="fill:#fff"/><rect x="57.72" y="38.85" width="10.09" height="0.78" style="fill:#fff"/><rect x="57.72" y="40.09" width="10.09" height="0.36" style="fill:#fff"/></g><rect x="57.11" y="30.84" width="11.32" height="2.59" style="fill:#960009"/><rect x="61.49" y="30.82" width="2.26" height="10.49" style="fill:#a44300"/><path d="M62.45,31s-2.51.24-3.54-1.17c-.07-.1-.12-.25.4-.29s.38-.9.33-1.19.24-.23.34-.22a3.43,3.43,0,0,1,3,1.93S63.47,30.89,62.45,31Z" style="fill:#c45700"/><path d="M62.66,31s2.51.24,3.54-1.17c.07-.1.12-.25-.4-.29s-.38-.9-.32-1.19-.25-.23-.35-.22a3.44,3.44,0,0,0-3,1.93S61.64,30.89,62.66,31Z" style="fill:#c45700"/><path d="M62.7,30.55s1.64,2.73,2.55,2.76l1-1.59-3.08-1.85Z" style="fill:#c45700"/><path d="M62.34,30.55s-1.64,2.73-2.55,2.76l-.95-1.59,3.08-1.85Z" style="fill:#c45700"/><path d="M63.46,30.38a1.13,1.13,0,0,1-1,1,1.12,1.12,0,0,1-1-1c0-.36.45-.69,1-.71S63.46,30,63.46,30.38Z" style="fill:#893300"/><text transform="translate(61.34 27.57) scale(0.87 1)" style="isolation:isolate;font-size:7.7907938957214355px;font-family:ArialMT, Arial">2</text><path d="M100.84,53.61c-.35-.44-1.49,1.11-3.1,1.81a1.25,1.25,0,0,0-.76.74,1.19,1.19,0,0,0,0,.69c.26.8,1.73.74,2.1.73,5.26-.17,16.2,1,16.29-.71,0-.16-.12-.31-.38-.62-.55-.64-1.55-1.47-4.17-1.65-.45,0-.11,0-1.92,0l-4.76-.07h-.65c-.46,0-1-.51-1.56-.51s-.69.38-.91.19S101,53.78,100.84,53.61Z" style="fill:#a2df67"/><polygon points="107.06 54.59 104.3 54.59 104.44 49.13 106.92 49.13 107.06 54.59" style="fill:#bba380;mix-blend-mode:multiply"/><polygon points="104.68 49.4 104.69 49.4 104.68 49.39 104.51 49.19 104.5 49.19 104.36 54.53 104.54 54.33 104.68 49.4" style="stroke:#72361c;stroke-linecap:round;stroke-linejoin:round;stroke-width:0.41965199999999997px;fill:url(#g)"/><polygon points="106.68 49.4 106.82 54.31 107 54.52 106.86 49.19 106.68 49.4" style="stroke:#72361c;stroke-linecap:round;stroke-linejoin:round;stroke-width:0.41965199999999997px;fill:url(#h)"/><polygon points="106.82 54.33 104.54 54.33 104.36 54.53 107 54.53 107 54.52 106.82 54.31 106.82 54.33" style="stroke:#72361c;stroke-linecap:round;stroke-linejoin:round;stroke-width:0.41965199999999997px;fill:url(#i)"/><polygon points="104.69 49.4 106.68 49.4 106.68 49.4 106.86 49.19 106.86 49.19 104.51 49.19 104.68 49.39 104.69 49.4" style="stroke:#72361c;stroke-linecap:round;stroke-linejoin:round;stroke-width:0.41965199999999997px;fill:url(#j)"/><polygon points="104.52 49.2 104.6 49.25 106.79 49.25 106.84 49.2 104.52 49.2" style="fill:#ffc9a1;opacity:0.4;mix-blend-mode:screen"/><polygon points="106.85 49.23 106.85 49.31 106.73 49.43 106.88 54.36 106.84 54.31 106.69 49.41 106.85 49.23" style="fill:#ffc9a1;opacity:0.4;mix-blend-mode:screen"/><polygon points="104.42 54.5 104.55 54.35 106.82 54.35 106.86 54.38 104.56 54.39 104.42 54.5" style="fill:#ffc9a1;opacity:0.4;mix-blend-mode:screen"/><polygon points="104.64 49.39 104.52 49.23 104.38 54.47 104.57 49.35 104.65 49.45 104.64 49.39" style="fill:#ffc9a1;opacity:0.4;mix-blend-mode:screen"/><polygon points="104.63 54.25 104.77 49.49 106.63 49.49 106.77 54.25 104.63 54.25" style="fill:url(#k)"/><polygon points="105 49.73 104.86 50.47 104.86 50.72 104.86 51.46 104.99 51.31 104.99 50.72 104.99 50.47 105.13 49.88 105 49.73" style="fill:url(#l)"/><polygon points="105 49.73 104.97 49.9 104.96 51.28 104.86 51.46 104.99 51.31 104.99 50.72 104.99 50.47 105.13 49.88 105 49.73" style="opacity:0.4;mix-blend-mode:multiply;fill:url(#m)"/><polygon points="106.25 49.88 106.4 50.47 106.4 50.72 106.4 51.31 106.53 51.46 106.53 50.72 106.53 50.47 106.38 49.73 106.25 49.88" style="opacity:0.30000000000000004;fill:url(#n)"/><polygon points="106.25 49.88 106.38 49.73 105 49.73 105.13 49.88 106.25 49.88" style="fill:url(#o)"/><polygon points="106.25 49.88 106.38 49.73 106.23 49.85 105.13 49.88 106.25 49.88" style="opacity:0.4;mix-blend-mode:multiply;fill:url(#p)"/><polygon points="104.99 51.31 104.86 51.46 106.53 51.46 106.4 51.31 104.99 51.31" style="fill:url(#q)"/><g style="opacity:0.4;mix-blend-mode:multiply"><polygon points="104.99 51.31 104.86 51.46 106.53 51.46 106.4 51.31 106.45 51.43 104.89 51.43 104.99 51.31" style="fill:url(#r)"/></g><g style="opacity:0.4;mix-blend-mode:multiply"><polygon points="106.53 51.46 106.39 49.74 106.26 49.88 106.36 49.79 106.5 51.43 106.53 51.46" style="fill:url(#s)"/></g><polygon points="106.42 51.33 104.98 51.33 105.12 49.87 106.27 49.87 106.42 51.33" style="opacity:0.30000000000000004;mix-blend-mode:multiply;fill:url(#t)"/><polygon points="104.86 52.11 104.86 52.84 104.86 53.1 104.86 53.83 104.99 53.68 104.99 53.1 104.99 52.84 104.99 52.26 104.86 52.11" style="fill:url(#u)"/><polygon points="104.86 52.11 104.97 52.28 104.96 53.65 104.86 53.83 104.99 53.68 104.99 53.1 104.99 52.84 104.99 52.26 104.86 52.11" style="opacity:0.4;mix-blend-mode:multiply;fill:url(#v)"/><polygon points="106.4 52.26 106.4 52.84 106.4 53.1 106.4 53.68 106.53 53.83 106.53 53.1 106.53 52.84 106.53 52.11 106.4 52.26" style="opacity:0.30000000000000004;fill:url(#w)"/><polygon points="106.4 52.26 106.53 52.11 104.86 52.11 104.99 52.26 106.4 52.26" style="fill:url(#x)"/><polygon points="106.4 52.26 106.53 52.11 106.38 52.23 104.99 52.26 106.4 52.26" style="opacity:0.4;mix-blend-mode:multiply;fill:url(#y)"/><polygon points="104.99 53.68 104.86 53.83 106.53 53.83 106.4 53.68 104.99 53.68" style="fill:url(#z)"/><g style="opacity:0.4;mix-blend-mode:multiply"><polygon points="104.99 53.68 104.86 53.83 106.53 53.83 106.4 53.68 106.45 53.8 104.89 53.8 104.99 53.68" style="fill:url(#aa)"/></g><g style="opacity:0.4;mix-blend-mode:multiply"><polygon points="106.53 53.83 106.53 52.11 106.4 52.26 106.5 52.16 106.5 53.8 106.53 53.83" style="fill:url(#ab)"/></g><rect x="104.98" y="52.24" width="1.44" height="1.46" style="opacity:0.30000000000000004;mix-blend-mode:multiply;fill:url(#ac)"/><path d="M106.55,49.58l.14,4.58h-2l.14-4.58Zm.15-.18h-2l-.14,4.93h2.29l-.14-4.93Z" style="fill:url(#ad)"/><path d="M106.84,54.34h-2.29a0,0,0,0,1,0,0l.14-4.93h2l.14,4.93S106.85,54.34,106.84,54.34Zm-2.28,0h2.27l-.14-4.91h-2Zm2.13-.15h-2s0,0,0,0l.14-4.58v0h1.71s0,0,0,0l.14,4.58S106.7,54.17,106.69,54.17Zm-2,0h2l-.14-4.56h-1.69Z" style="fill:#72361c"/><g style="opacity:0.6000000000000001;mix-blend-mode:multiply"><polygon points="106.66 49.4 106.8 54.28 104.55 54.28 104.55 54.33 106.84 54.33 106.7 49.4 106.66 49.4" style="fill:url(#ae)"/></g><path d="M106.64,49.45l0,0h-1.83l0,0h0a0,0,0,0,1,0,0h1.83a0,0,0,0,1,0,0Z" style="fill:#ffc9a1;opacity:0.4;mix-blend-mode:screen"/><path d="M106.73,54.2l0,0h-2l0,0h0a0,0,0,0,1,0,0h2a0,0,0,0,1,0,0Z" style="fill:#ffc9a1;opacity:0.4;mix-blend-mode:screen"/><path d="M104.6,54.28s0,0,0-.06l.14-4.71s0-.06,0-.06h0s0,0,0,.06l-.14,4.71a.22.22,0,0,1,0,.06Z" style="fill:#ffc9a1;opacity:0.4;mix-blend-mode:screen"/><path d="M106.73,54.15s0,0,0,0l-.14-4.49s0,0,0,0h0s0,0,0,0l.14,4.49s0,0,0,0Z" style="fill:#ffc9a1;opacity:0.4;mix-blend-mode:screen"/><path d="M106.52,52.05h0v-.42h0a.09.09,0,0,0,0-.06.08.08,0,0,0-.07-.08h0a.07.07,0,0,0-.07.08.09.09,0,0,0,0,.07v.41a.08.08,0,0,0,0,.14h0a.08.08,0,0,0,.07-.08A.09.09,0,0,0,106.52,52.05Z" style="fill:#c8c6c4;mix-blend-mode:multiply"/><path d="M106.52,52.09s0,.06,0,.06h0s0,0,0-.06v-.48a0,0,0,0,1,0,0h0a0,0,0,0,1,0,0Z" style="fill:url(#af)"/><path d="M106.48,51.58a0,0,0,0,0,0,.05v0s0,0,0,0,0,0,0,0V52s0,0,0,0,0,0,0,0v0a0,0,0,1,0,.08,0v-.42A0,0,0,0,0,106.48,51.58Z" style="fill:#7e7f82;opacity:0.4;mix-blend-mode:multiply"/><path d="M106.49,52s0,0,0,0h0s0,0,0,0v-.3s0,0,0,0h0s0,0,0,0Z" style="fill:#bfc0c1;opacity:0.6000000000000001"/><path d="M106.54,51.57s0,.08-.06.08a.08.08,0,0,1-.07-.08.07.07,0,0,1,.07-.08S106.54,51.52,106.54,51.57Z" style="fill:url(#ag)"/><path d="M106.51,51.53h0s0,0,0,0h0Z" style="fill:#fff"/><polygon points="106.53 51.54 106.52 51.54 106.51 51.53 106.52 51.53 106.53 51.54" style="fill:#fff"/><path d="M106.48,51.49a.07.07,0,0,0-.07.08.08.08,0,0,0,.07.08s.06,0,.06-.08S106.51,51.49,106.48,51.49Zm0,.14a.07.07,0,1,1,.06-.07A.07.07,0,0,1,106.48,51.63Z" style="fill:#7e7f82;opacity:0.2;mix-blend-mode:multiply"/><path d="M106.48,52a.08.08,0,0,0-.07.08.07.07,0,0,0,.07.08s.06,0,.06-.08S106.51,52,106.48,52Zm0,.14a.07.07,0,0,1-.06-.07.06.06,0,0,1,.12,0A.07.07,0,0,1,106.48,52.17Z" style="fill:#7e7f82;opacity:0.2;mix-blend-mode:multiply"/><path d="M106.54,52.11s0,.08-.06.08a.07.07,0,0,1-.07-.08.08.08,0,0,1,.07-.08S106.54,52.07,106.54,52.11Z" style="fill:url(#ah)"/><path d="M106.51,52.07h0v0s0,0,0,0Z" style="fill:#fff"/><polygon points="106.53 52.08 106.52 52.09 106.51 52.08 106.52 52.08 106.53 52.08" style="fill:#fff"/><polygon points="100.06 49.11 105.69 44.61 111.42 49.11 111.17 49.43 105.74 45.14 100.23 49.43 100.06 49.11" style="fill:#81afde"/><polygon points="101.19 49.66 101.3 48.88 105.62 45.44 110.25 49 110.25 49.57 111.17 49.43 105.74 45.14 100.23 49.43 101.19 49.66" style="fill:#4a78bc"/><polygon points="103.51 49.27 103.69 49.57 105.67 48.33 107.7 49.57 107.86 49.27 105.6 47.81 103.51 49.27" style="fill:#81afde"/><polygon points="103.83 49.77 105.67 48.56 107.66 49.77 107.7 49.57 105.67 48.33 103.69 49.57 103.83 49.77" style="fill:#4a78bc"/><path d="M100.74,54.53l3.58.07c0-1,.07-2,.1-3l.06-2.24-.65.41-.32-.5,2.09-1.46,2.26,1.46-.17.29,0,.21-.77-.44.18,5.28h3.74c-.09-.58-.16-1.17-.24-1.78-.13-1.17-.24-2.31-.32-3.4l-4.55-3.59-4.47,3.59Z" style="fill:#f7f2f2"/><polyline points="101.23 49.43 105.7 45.84 110.25 49.43 110.25 49 105.62 45.44 101.3 48.88 101.21 49.57" style="fill:#ccc"/><path d="M101.71,50.22l1.55,0-.11,2.17-1.57-.06Z" style="fill:#4497c9"/><polygon points="102.4 51.21 101.78 51.18 101.8 50.33 102.43 50.36 102.4 51.21" style="fill:#c5e1f4"/><polygon points="103.09 51.24 102.47 51.21 102.5 50.37 103.12 50.4 103.09 51.24" style="fill:#c5e1f4"/><polygon points="102.37 52.24 101.75 52.21 101.77 51.37 102.39 51.4 102.37 52.24" style="fill:#c5e1f4"/><polygon points="103.06 52.27 102.44 52.24 102.46 51.4 103.09 51.43 103.06 52.27" style="fill:#c5e1f4"/><path d="M108.45,50.48h1.44" style="fill:#4497c9"/><path d="M108.39,50.36l1.5.09,0,2-1.49,0Z" style="fill:#4497c9"/><polygon points="109.13 51.35 108.53 51.34 108.54 50.52 109.14 50.53 109.13 51.35" style="fill:#c5e1f4"/><polygon points="109.8 51.36 109.2 51.35 109.21 50.53 109.81 50.54 109.8 51.36" style="fill:#c5e1f4"/><polygon points="109.12 52.35 108.52 52.34 108.53 51.52 109.13 51.53 109.12 52.35" style="fill:#c5e1f4"/><polygon points="109.79 52.36 109.19 52.35 109.2 51.53 109.8 51.55 109.79 52.36" style="fill:#c5e1f4"/><ellipse cx="105.83" cy="54.95" rx="1.25" ry="0.4" style="fill:#f9c39c"/><ellipse cx="105.44" cy="55.98" rx="1.48" ry="0.4" style="fill:#f9c39c"/><path d="M104.76,49.16h1.85l-.94-.59Z" style="fill:#ccc"/><text transform="translate(103.09 43.71) scale(1.03 1)" style="isolation:isolate;font-size:6.8295512199401855px;font-family:ArialMT, Arial">3</text></g></svg>