<?xml version="1.0" encoding="utf-8"?>
<!-- Generator: Adobe Illustrator 24.2.1, SVG Export Plug-In . SVG Version: 6.00 Build 0)  -->
<svg version="1.1" xmlns="http://www.w3.org/2000/svg" xmlns:xlink="http://www.w3.org/1999/xlink" x="0px" y="0px"
	 viewBox="0 0 127.3 79.3" style="enable-background:new 0 0 127.3 79.3;" xml:space="preserve">
<style type="text/css">
	.st0{fill:#DEB13D;}
	.st1{fill:#A36C31;}
	.st2{fill:#703D20;}
	.st3{fill:#455F2C;}
	.st4{fill:#574109;}
	.st5{fill:#9A7F55;}
	.st6{fill:#007B4C;}
	.st7{display:none;}
	.st8{display:inline;}
	.st9{fill:#7F5449;}
	.st10{fill:#63413B;}
	.st11{fill:#B7825A;}
	.st12{fill:#000068;}
	.st13{fill:#2D2D2D;}
	.st14{fill:#704843;}
	.st15{fill:#230700;}
	.st16{fill:#FFECD8;}
	.st17{fill:#230601;}
	.st18{fill:#290600;}
	.st19{fill:#FCFCFC;}
	.st20{fill:#17BC9C;}
	.st21{fill:#61E5CC;}
	.st22{fill:#6BEDD4;}
	.st23{fill:#56DBC1;}
	.st24{fill:#49CEB4;}
	.st25{fill:#0E1A46;}
	.st26{fill:#000333;}
	.st27{fill:#0B173C;}
	.st28{opacity:0.4;fill:#000333;enable-background:new    ;}
	.st29{opacity:0.25;fill:#000333;enable-background:new    ;}
	.st30{opacity:0.22;fill:#000333;enable-background:new    ;}
	.st31{fill:#1C0803;}
	.st32{fill:#BC66CC;}
	.st33{fill:#B01F24;}
	.st34{fill:#D61F27;}
	.st35{fill:#FFFFFF;}
	.st36{fill:#231F20;}
	.st37{fill:#211F1F;}
	.st38{display:inline;fill:#DD8426;}
	.st39{fill:#DD8426;}
	.st40{fill:#F1A21E;}
	.st41{fill:#EE3224;}
	.st42{fill:#FEF04B;stroke:#EFEB5D;stroke-width:0.5;stroke-miterlimit:10;}
	.st43{fill:#0B0C0C;}
	.st44{fill:#DDC747;}
	.st45{display:none;fill:#6D6B6B;stroke:#5E5B5B;stroke-width:0.75;stroke-miterlimit:10;}
	.st46{font-family:'Gabriola';}
	.st47{font-size:12.919px;}
	.st48{display:inline;fill:#F4EAEA;}
	.st49{font-family:'MyriadPro-Regular';}
	.st50{font-size:4px;}
	.st51{display:none;fill:#E5CD65;}
	.st52{fill:#04AF1C;}
	.st53{clip-path:url(#SVGID_2_);}
	.st54{clip-path:url(#SVGID_4_);}
	.st55{clip-path:url(#SVGID_8_);}
	.st56{font-family:'ArialMT';}
	.st57{font-size:10.0211px;}
	.st58{font-size:12.2366px;}
	.st59{font-size:11.3925px;}
	.st60{fill:#960009;}
	.st61{fill:#A44300;}
	.st62{fill:#C45700;}
	.st63{fill:#893300;}
</style>
<symbol  id="eb" viewBox="-67.6 -61 135.3 121.9">
	<path class="st0" d="M-48.2,12.3c5.3-1.3,9.1-0.9,10.8,0.9c3.2,1,9.7-0.9,11.9-3.1c1.4-1.4,3.3-2.6,3.9-4.6s4.5-6.2,5.9-7.6
		s6.5-6.8,5.1-9.9c-1.2,2.2-3.2,3.8-5.6,4.5c-2,0.6-7,4.2-8.5,3.7c-1.3-0.6-2.8-0.8-4.2-0.6c-2,0.3-2.8-0.6-5.1,0
		c-1.6,0.3-3.2,0.2-4.8-0.3c0,0-2.3,5.5-2.6,6.8l0.4-6.8c-7.3,2-11.6,12.8-12.1,14.7C-53.4-1.5-42.5-6.3-42.5-6.3s-8.5,3-11.3,3.6
		c1.7-2,5.8-3,6.8-4c-1.8,0.7-9.3-3.7-10.2-4.2l11,2.8c4.7,0.5,13.4,0.2,20.7-3.4c2.3-1.1,5.1-1.8,6-2.6c1.3-1,1.2-2.6,2.2-3.9
		c1.3-1.7,2.3-3.7,3-5.7c3.2-13.7-2-25.9-2-25.9c-0.8-0.8-3.4-6.7-3.4-6.7l6.6,1.5l1.8-2.2l7.2-1.5l1.9-2.1l5.7,0.8l2.6,5.1l8.8-2.7
		c0,0,4.1-3,4.9-3s6.9,2.7,8.5,2.9c0,0-4.6,1.2-8.6,7.3C13.8-41.6,15.6-33,15.1-28C15-27.4,15-26.7,15-26.1
		c-0.2,4.4,0.6,8.5,1.8,10.1c0.6,0.8,1.2,1.8,1.8,2.8c0.8,1.2,1.6,2.2,2.5,2.4c1.5,0.2,4.4,2.9,5.6,4.1s6.4,2.7,8.8,2
		s3.2-3.5,3.2-3.5s3.9-1.4,6.6-2s7.4-4.4,9.3-5.8s2.7-7.3,4.4-8.8c-0.3,0.5-1.2,4.4-2.5,9.3s-5.6,3.9-8.3,5.9S43.8-8.4,41.3-6
		S40-1.7,40-1.7L42.7-2c0,0,1.9-0.7,2.4-0.8s1.9-0.7,5.3-1.5s8.5,1.2,11,1.3c-2,0.7-5.6,0.3-9.7,0.5s-5.3,1.2-9.5,3.7
		S28.8-1.2,25.9-1.3c-5.6-0.4-16.3-6-16.4-6c-0.3,2,0,4.1,0.9,5.9c1,2,2.2,4.2,4.9,5.4s4.2,6.4,4.2,7.1s6.4,3.2,6.4,3.2
		c3.9-0.1,7.8,0.5,11.5,1.6c-2.6-0.1-5.2,0-7.8,0.2c2.2,2.4,11.3,1.3,14.9,1.3C22.3,25.2,7.6,4.1,6.1,2.6c-1,5.6,5.5,12.1,6.9,13.5
		c0,0,1,3.3,11.8,9.7c12.5,7.5,20.3,13.7,17.3,11.8s-10.8-7-16.1-8c2.5,3,4.5,8,3.5,11.9C28.3,28,16.9,26.2,13.6,25.2
		c-2.8,0.3-3.3,13.4-3.3,13.4s8.5,5.8,8.1,9c-1.7-4.8-9.5-6.5-10.4-7.8c-0.7,7-3.5,11-7.3,12.1c1.2-0.2,5.5-4.5,5.1-7.5
		s2-10.1,2.2-20.2s-5.5-9-8.8-12.6c1.3,2.1-3.9,7.2-3.9,7.2c-1.9,1.9-4,3.7-6.2,5.3c-2,1.2-2.5,2.8-3.4,5.6c6.4,3,7.5,7.7,6.6,10.5
		c0.7-7-7.3-7.5-9.6-9.6c0,0,2.3,14.3,0,17.1c2.3-3.5-1.5-14.4-2-16.4c-1.5,1.2-7.1,1.8-10.1,5.2C-29,33.9-10.4,24.9-7,9.9
		C-4.5,5.4-4.7-1.7-4.9-7.8c-4,16.6-24.3,24.3-29.2,25.5C-35.4,22.5-36.6,27-46,28c6-0.8,7.8-7.6,7-9.3c-1.3-0.6-2.8-0.7-4.1-0.2
		l-1.1,0.8c0,0-4,2.5-6.5,2.3c1.7-2,10-3.6,10.2-7.6L-48.2,12.3z"/>
	<path class="st1" d="M-3.2-59.6c0,0-2,4.8,0,9s2.5,4.5,2.5,6.5s-0.6,5.9-0.6,7.3c-0.1,1.5-0.1,3,0,4.5c0.3,1.7,0.8,4,0.8,4
		s1.7,7.3,2,8.2c0.6,2,0.5,4.2-0.3,6.2c-0.8-2.2-0.6-7.9-0.6-7.9s-2.8-4.5-3.1-5.9c-0.1-1.5,0-3,0.3-4.5C-3-33.6-3-36.7-3-36.7
		l-0.7-2.6l0.4-2.6c-0.4-1.3-0.6-2.6-0.8-3.9c0-0.9-0.3-3.1-0.3-3.1L-4.6-52l-2-2.3l-3.3-3.2L-3.2-59.6z"/>
	<path class="st1" d="M-9-33.7c0.1-1.7-0.5-3.3-1.7-4.5v-2.3c0,0-2.3-5.4-2-7.1c0.3-1.7-0.6-5.4,2-6.8l2.3,3.1l0.3,4.8l-2.5,2l2,3.3
		c0.5,2.2,0.7,4.5,0.8,6.8l1.7,2v5c0,1.1-1.4,6.8-1.1,8.5S-9.5-14-9.5-14l-1.1,2l2-5.9c0,0-0.6-11,0.6-11.6S-9-33.7-9-33.7z"/>
	<path class="st2" d="M6.2,5c0.2,1.3,0.5,2.5,1.1,3.6C8,9.8,8.7,10.9,9.5,12c0.9,1.3,1.8,2.4,2.9,3.5c0.6,0.5,1.1,1.1,1.5,1.8
		c0.9,1.4,2.2,2.2,3.7,3.6c0,0-4.6-2.4-5.7-3.3S7.4,14,7.1,12.3S2,9.5,2.3,7.5c0.4-2.1,0.6-4.1,0.6-6.2c0-2.5,2.8-1.7,1.7-7
		S2.9-15.3,3.5-17s1.4-4.2,0.8-6.8s-2-8.5-2-9.6s0.6-5.6,0.6-8.8S3.5-59.6-1-60.7c4.5,1.1,8.9,6.2,9.2,7.9l0.3,4.5l-2.3,5.6
		l-0.6,6.5L8-30L6.8-16.5l1.4,7.1c0,0,0.3,6.5-0.6,9S6,2.6,6,2.6C6.1,3.4,6.1,4.2,6.2,5z"/>
	<path class="st1" d="M18.7-3.5c0,0-7.9-2-8.7-5.4C9.4-11,8-13,7.7-16.7c-0.2-3.4,0.2-6.8,1.1-10.2c0.5-1.4,2.5-3.1-0.6-6.2
		S7.7-41,8.3-43s2-5.9,2-7.3s2-6.4,4.7-7.2c-1.6-0.7-5.6,1.2-5.6,1.2s-1.7,1.1-2.8,0.9c-1.1-0.3-2.2-5.4-2.2-5.4L1.8-61L-1-60.7
		c1.4,1.4,4.4,4.2,4.4,4.2l2,4l2,5.1c0,0-2.5,5.6-2.8,6.5s-0.3,8.5,0.6,9.3c0.9,0.8,0.8,6.2,0.6,7s2,13.3,1.4,15.5
		S11.3-2.6,18.7-3.5z"/>
	<path class="st1" d="M-34.1,17.7c0,0,6.2-1.1,7.3-2.5s4.5-2,4.5-2s2.8-0.3,3.7-1.4c1.1-1.6,2.4-3,4-4.2c1.7-1.1,7-5.1,7-5.9
		C-7.3,0-6.9-1.7-6.4-3.2L-4.2-8l-3.1,2.5c0,0-2.8,4.8-3.7,6.5c-1.4,2.5-3.3,4.6-5.6,6.2c-2.1,1.1-4.2,2.3-6.2,3.7
		c-1.4,1.1-2.9,2.2-4.5,3.1C-30.1,15.7-34.1,17.7-34.1,17.7z"/>
	<path class="st1" d="M-14.4,29.8c0.5-1.3,1.2-2.5,2-3.6c0.8-0.8,2.5,0.3,3.4-2s2.5-2.5,3.4-4s5.4-4.5,5.4-5.4v-2l-0.6-4.2
		c0,0-1.7,4.3-2.2,5.4s-2,4.2-4.5,5.6s-3.1,0.3-4,3.4c-0.6,2-1.8,3.8-3.4,5.1L-14.4,29.8z"/>
	<path class="st1" d="M-38.9-4.6c0,0,3.1,1.4,4.8,0.3s4.8,1.6,7.6-0.1c1.7,0.8,1.7,1.6,5.1-0.4c2.6-1.5,5.4-2.7,8.2-3.8l2.5-3.3
		l1.1-2c-1,0.3-1.8,0.9-2.5,1.7c-1.4,1.4-4,4-5.9,4s-5.1,2-7.3,2.3s-4.5-0.3-5.9,0C-32.7-5.7-36.6-4.6-38.9-4.6z"/>
	<path class="st1" d="M25.5-8c0,0,2.8,2.3,5.1,2.5s5.1,0.3,5.6-0.6c0.7-0.9,1.5-1.6,2.4-2.3c0,0,3.5-1.7,4.3-1.7
		c1.6-0.4,3.3-1,4.8-1.7l4.5-2.8l-4.5,4L41.5-8l-1.4,1.4l-3.4,2.3l-3.4,0.6l-4.8-0.6l-5-3.7l-2.3-2.3C21.2-10.3,22.3-11.7,25.5-8z"
		/>
	<path class="st1" d="M-31.3-9.1c0,0,4.2-1.6,5-2.1s5-1.6,5.9-2.1s1.6-1.3,1.9-2.3c0.2-0.9,0.6-1.6,1.2-2.3c0.9-1,1.7-2.2,2.1-3.5
		c-0.2,1.3-0.8,2.5-1.7,3.4c0,0,1.7,1.6,2.6,1.6c-0.7,0.2-2.2-1.3-2.7-1.1c-0.3,0.2-0.6,0.6-0.6,1s-0.1,0.7-0.6,1.6
		s-0.8,1.3-1.5,1.6c0.3,0.4,2,2,3.6,1.9c-1.1,0.5-3.1-0.5-3.9-1.5c-0.3,0.1-0.6,0.3-0.8,0.5c0,0-0.1,0.5-0.3,0.5s0.8,1.1,1.7,1.2
		c-0.9,0.1-1.8-0.4-2.3-1.2l-1,0.2l-1.5,0.6l-0.8,0.8l-0.6-0.1l-1.1,0.1c0,0,0.3,0.8,0.6,1c-0.4,0-1-0.8-1-0.8L-28-9.8l-1,0.3
		C-29.8-9.2-30.5-9.1-31.3-9.1z"/>
	<path class="st1" d="M16-12.8c0,0,1.1-2,0.2-3.5c-0.9-1.5-1.3-7.2-1.3-8.5s0.9-2.2,0.6-4.4c-0.3-2.1-0.4-4.3-0.2-6.4
		c0.2-1.3,0.7-5.2,0.7-5.2c-1.3,0.9-0.7,1.3-0.9,2.2c-0.3,1.4-0.5,2.9-0.6,4.4v3c0,0-0.7-3.1-0.9-4.1s0.2-8.7,0.2-8.7
		c-0.6,0.4-1.1,8.3-0.7,9.6c0.2,0.5-0.2,1.8,0.4,2.9c0.9,1.6,2.1,2.3,1.6,3.5c-0.7,1.9-2,2.1-3.3,4.8s-0.4,3.5,0,4.6
		c0.2-1.2,0.4-2.4,0.4-3.7l1.7-1.7l0.7,3.3l0.6,3.3l0.6,2.6L16-12.8z"/>
	<polygon class="st2" points="-5.3,-6.3 -3.3,-8.6 -3.6,-12.2 -3.2,-14.8 -4.5,-18.2 -5.6,-19.8 -5.7,-24.4 -5.9,-28.8 -6.7,-25.1 
		-6.4,-19 -5.9,-13.6 -5,-11.4 -5,-10.2 	"/>
	<path class="st2" d="M-11.5-45.5c1-0.3,1.6-1.2,1.7-2.3c0-1-0.1-2.1-0.3-3.1l-1.1-0.8l-0.6,2.8L-11.5-45.5z"/>
	<path class="st2" d="M16.2-58.5c0,0-2.8,0.6-4.8,4.5c-1.1,2-1.8,4.2-2,6.5l-2.3,5.6l-0.3,5.4l0.8-3.4l2-3.4l1.4-4.2l2.8-3.9
		l-0.5-0.8l3.4-5.1l4-2l3.1,0.3l-4.1-1.5C19.7-60.6,18.1-59.6,16.2-58.5z"/>
	<path class="st2" d="M10.3,38.6l0.6-5.3l0.3-3.1l1.6-3.5l0.8-1.5l2,0.7l2.8,0.8l4.2,2.3l-2.8-2.8c-0.8-0.2-1.7-0.5-2.5-0.8
		c-0.9-0.6-2-0.9-3.1-0.9c-0.8,0.1-1.6,0.2-2.4,0.5c-0.8,0.3-0.4,1.4-0.4,1.4l-0.5,3.4l-1.3,3.6L10.3,38.6z"/>
	<path class="st2" d="M-3.7-46.3l0.2-3l0.9,1.7l0.9,2.4l-0.2,2.4l0.4,4.2l-0.4,4c-0.6-2.4-0.7-3.9-0.7-3.9v-4.8L-3.7-46.3z"/>
	<path class="st2" d="M-6.1-32.2c0,0-1.6-1.5-1.7-2c-0.1-0.5-0.3-2-0.3-2l0.7-3.1l-0.4-3.3L-8.3-45l1.7-3.8L-8.3-51l-2.3-3.1
		l-2.8-0.4l3.1-0.7l3.9,3.9l0.9,2l-0.7,3l-0.2,4.2l0.9,5c0,0-1.3,1.1-1.1,2C-6.5-34.4-6.1-32.2-6.1-32.2z"/>
	<path class="st2" d="M-17,7.1l0.5-1.3l0.8-2.4c0,0,0,0.2,0.7,0.2h1.5l1.3,0.4l-2,1.7l-0.9-0.6C-15.1,5.1-14,7.1-17,7.1z"/>
	<path class="st2" d="M24.9-8.2l-0.7-1.3l-1.5-0.7L21-10.9l-1.5-1l-1-1.3l-0.7-1.1c0,0-0.9,3.7-3.7,4.8c1.4,0.3,2.9-0.3,3.7-1.5
		c0.2,0.6,0.8,1,1.4,0.8l0,0h0.1l1.3,0.4C20-9,19.1-8.5,18.1-8.2c1.1,0.4,3.1-0.5,3.3-1.3l1.5,0.4l1.3,2c0,0-0.9,1.5-1.7,1.5
		C23.6-5.1,24.9-6.7,24.9-8.2z"/>
	<path class="st2" d="M9.6-5.6c0,0,2.6,8.3,3.9,8.3C14.3,2.8,15,3.3,15.3,4L17,5.6l1.3,2L19,10l-1.6-1.6l-0.9-2l-1.8-0.9l-2.4-0.9
		l-2-3l0.2-3l-1.7-3L8.3-6.6L9.6-5.6z"/>
	<path class="st3" d="M-22.5,26.6l-1.8-1.1l-1.5,1.8l-1.7-0.2l-2.2,1.3l-2,2.4v0.7l-1.5,1.5l-2.2-0.6l-3.1-0.2l-3,1.8l-2.2,2.2
		l-1.3,1.3l0.3,1.5l3,1.7l0.7,2.2l1.3,0.6l4.1,3.9l3.5,1.8l1.8-2.2l2.6-2.2l1.1,0.1l3.7,0.7l2.8,0.4l2.4,2.9l3.3-0.6l2.6-2l-1.1-1.7
		l0.6-3.1l0.7-1.8l1.5-0.9l3,1.1l2.2-2.4c0,0-0.7,0.9,0.2-0.7s0.9-5.3,0.4-5.5C-5.2,31-6.1,30.8-7,30.9c-2,0-0.9-2.8-0.2-3.9
		s1.8-2.2-0.4-2s-3.1,1.2-4.3,1.8c-1.2,0.8-1.6,2.4-0.9,3.7c0.7,0.9,4,3.5,2.6,4.4s-3,1.7-3.5,1.5s-0.9,3.3-2.2,3.7
		s-4.4-3.1-4.4-4.8s1.7-4.1,1.3-5.9c-0.2-1.5-0.4-3.1-0.4-4.6L-22.5,26.6z"/>
	<path class="st3" d="M-25.3,51.3l-2.4-1.8c0,0-0.4-2.4,0.7-2.4s1.8,0.9,2.8,0.2s1.1-0.9,2.4,0.4s-0.9,3.4-0.9,3.4
		S-23.8,53.5-25.3,51.3z"/>
	<path class="st3" d="M-17,23c-0.8-0.7-2-1.1-1.8-1.7l0.5-1.7c0,0-1.3-0.4,0.5-1.1s0.7,0,1.8-0.7s3.3-0.9,3.5,0s0.4,2.4-1.7,2.9
		S-13.7,26.1-17,23z"/>
	<path class="st3" d="M-50.1,31.4c-1.3,0-2.8-1.3-3.5-1.7c-1.4-0.6-2.9-0.7-4.4-0.4c-2,0.4-2.6-2.4-2.6-2.4s-2.4,0.2-3.1-0.6
		c-0.7-0.7-1.5-1.1-1.5-1.7s-1.9-1.7-2.2-3c-0.4-1.3,2-2.9,3.1-3.5s-1.1-3-1.1-3l-2.2-3c0.6-0.8,1.2-1.6,2-2.2
		c0.5-0.2,3.5,1.5,3.5,1.5h1.7c0.4-0.6,1.1-1,1.8-1.1c1.3-0.2,5.3,2.2,5.9,1.5s0-2,1.5-2.4c1.5-0.4,6.5,1.1,6.6,1.7
		s-1.9,2.9-2.4,3.1s-4.6,1.8-4.6,2.7s-3.1,5-2.6,5.3s1.7,2,2.4,2.6C-51.1,25.5-46.7,31.4-50.1,31.4z"/>
	<path class="st3" d="M-51.7,23.3c0,0-0.4-2,0.4-3c0.6-0.9,1.1-1.8,1.5-2.8c0,0,1.1-1.3,2-1.3c0.7,0,1.5,0.1,2.2,0.2
		c0,0,1.9,3.4,2.6,3.6c0.7,0.2,0.9,2.9,0.9,2.9L-46,22l-1.3-0.6c-0.3,0.5-0.5,1-0.7,1.5C-48.1,23.5-49.2,25.3-51.7,23.3z"/>
	<path class="st3" d="M-43.7,28.8c-0.7,0-3.7,0.4-3-1.3c0.7-1.7,4-1.8,4.6-3s4.4-1.8,5.7-1.8s2.6,0.4,3.5-0.2s3.7-5.3,4.6-4.8
		s2.2,2,1.5,3.1s-4,2.2-4,2.2l-1.5,1.3l-0.4,2l-3,0.7l-1.9-1.3l-1.9,2.2l-0.7,1.5l-2.8,1.8L-43.7,28.8z"/>
	<path class="st3" d="M-43.5,10.2l2-2.2l2,0.7c-0.1-0.6-0.1-1.2-0.1-1.8c0-0.7-1.7-1.3-2.2-0.9c-0.7,0.5-1.3,1-1.8,1.7
		C-44.1,8.2-45.7,10.8-43.5,10.2z"/>
	<path class="st3" d="M-54.2,7.3c-0.9,1.8-4.2,0-4.2,0s-1.8,2.2-3.9,0.6c-2-1.7-2.9-4.4-2.2-5.5c0.7-1.1,1.5-3.5,0.4-3.9
		s-1.5-0.9-3-4.4c-1.4-3.5,0.4-4.6,1.5-4.8s3.9-0.9,3.7-1.7c-0.2-0.7,1.8-3.3,3-3.5c1-0.2,2.1-0.2,3.1,0.2c0.5,0.4,3.1,1.7,3.5,2.6
		c0.7,1.2,1.4,2.3,2.2,3.3c0,0-2,3.7-3.9,1.5c-0.6-0.9-1.8-1.2-2.8-0.6c-0.6,0.4-1,1.1-0.9,1.9c0.2,1.3,1.7,2,2,2.8
		c0.6,0.8,1.2,1.5,1.8,2.2c0.4,0.5,3.1,0.5,3.3,1.3s-1.8,2.8-1.8,2.8L-55,2.3l-1-1.5c0,0-2.8-0.4-2,0.9s0.7,1.8,1.7,2.2
		C-55.4,4.3-52.9,4.7-54.2,7.3z"/>
	<path class="st3" d="M-52.7,10.6c-0.7,0-2.2-2.4-1.1-3.3c1.1-0.9,3-1.3,4.4-2.2s2.2-4,3.5-1.7s0.5,2.8-0.6,3.5h-2.4l-1.3,1.5V11
		L-52.7,10.6z"/>
	<path class="st3" d="M-42.2,2.3l-1.3-3.1c0.3-0.8,0.8-1.5,1.5-2c0.7-0.1,1.5-0.1,2.2,0c0.5,0.2,0.9,1.8,2.2,2.2s2.7,0.6,4,0.6
		c2,0,3.3,0.5,3.3,1.3s-0.5,2.4-1.8,2.4C-33.4,3.6-35.4,2-36,2c-0.9,0.3-1.9,0.6-2.8,1C-39.5,3.2-42.2,2.3-42.2,2.3z"/>
	<path class="st3" d="M-52.9-12.4c1-0.5,0.6-2.6,1.3-3.1c0.8-0.6,1.4-1.5,1.7-2.4c0-0.6-3.1-4.2-3.1-4.2s3-0.7,3-2s-1.3-1.5-2.2-1.7
		s-2.4-0.7-2.2,0.9c0.2,1.7,1.7,5.7,1.7,6.3v2.7l-1.1,0.7C-54-15.3-54.8-11.5-52.9-12.4z"/>
	<path class="st3" d="M-54.8-16.1l-2.4,0.5l-2.6-1.3l-0.7-2.4c0,0-0.7-1.3,0-1.8s1.7-1.9,2.2-0.2s-0.2,2.8,0.9,3
		C-56.2-18-54.8-19.3-54.8-16.1z"/>
	<path class="st3" d="M-50-11.3c-1.1,0-0.4-3.5,0.2-3.5s3-0.2,3.5-0.7c0.5-0.6,3,0.7,3.3,2.6c0.3,0.9-0.2,1.9-1.1,2.2
		c-0.6,0.2-1.2,0.1-1.6-0.3c-1.5-0.9,0.2-1.8-0.4-2.2c-0.5-0.4-1.8,0-1.8,0S-47.2-11.3-50-11.3z"/>
	<path class="st3" d="M24.5,32.9c-0.6,0-4.6,6-5.5,6s-0.2-3.3-1.6-3.9s-3.3,0.3-3.9,0.5s-1.8,3.6-4.4,4s-4.5-4-6.7-3.5
		s-1.7,0.9-1.7,0.9l2.2,5.5c0,0-1.8,3.6-1.6,4.3S-0.2,48-1.3,48s-0.7,1.7-1.8,2.9s0.3,2.9,2.2,3c4.8,0.2,3.3-2.6,3.9-3.3
		s1.8,1,6.2-0.5s3.1,0.9,4,1.1c0.8,0.3,1.5,0.8,2,1.5c1,0.5,2.1,1,3.2,1.4c0.7,0.2,2.6-1.1,5-2.8s0.2-6.1,1.5-5.9s5.8,4,6.4,4.5
		s1.3,2.6,3,3s3.2-4.5,4.2-5.4s3.5-0.4,3.5-0.4s4.1,0.2,5.3-1.5c2.6-3.7-0.7-5.2-0.4-5.9s-0.9-5.3-0.4-6.5s-0.4-3.3-0.6-4.2
		s-3.7-1.4-6.4-1.9s-2.3-2.8-4.1-3.3s-5.6-0.5-6.2,0.3s-0.6,5.2-0.6,5.2s0,2.4-0.6,2.8l-1.3,0.2l3,2.2c0.7-0.1,1.3-0.2,2-0.4
		c0.8,0,1.6,0.3,2.2,0.9c0.6,0.6,3.3,2.7,3.3,2.7l-4,1.9c-0.8-0.1-1.6-0.2-2.4-0.6c-0.7-0.5-1.5-0.8-2.4-0.9c-0.7,0-1.5,2-2,2.2
		c-0.7,0.1-1.5,0.1-2.2,0c-0.2-1,0.4-1.9,1.3-2.2c1.7-0.6,1.3-1.8,2.8-2.3S27.4,34,27.4,34C26.5,33.6,25.5,33.2,24.5,32.9z"/>
	<path class="st3" d="M8,54.7c0-0.6,1.1-2.6,2.2-2.6s2,0.7,3.1,0.9s1.5,0.6,2.6,0.2c0.8-0.4,1.8,0,2.2,0.7c0.2,0.6,1.1,1.5,2.8,0.4
		s3.5,2,3,2.6c-0.7,0.8-1.6,1.4-2.6,1.8c-1,0.2-3.6-0.2-3.9-0.8s-1.1,1-2.2,1.3c-0.5,0.2-1.2,1.8-2.4,1.7c-1.5-0.4-2.9-1.2-3.9-2.4
		C8.8,58,10.1,56,10.1,56L8,54.7z"/>
	<path class="st3" d="M48.3,36.5l2-0.2c0.6-0.5,1.4-0.5,2,0c0.1,0.1,0.2,0.2,0.2,0.3c1.1,1.5,0.7,2.4,2.2,2.4s3-0.7,3.1-1.3
		s0.9-0.7,0.9-1.3s0.9-0.4,0.7-1.5s1.8-0.7,0.9-1.1s-1.7,0.2-2.4,0.7s-2,2-2.2,0.7c0-1.1,0.3-2.1,0.9-3c0,0,0.2-1.7-0.7-1.3
		c-0.7,0.3-1.4,0.7-2,1.3c-0.7,0.5-1.4,0.9-2.2,1.1c-0.4-0.2-0.9-0.5-1.3-0.7c-0.6-0.4-1.3-2-1.8-1.7S47.7,34,47.7,34L48.3,36.5z"/>
	<path class="st3" d="M7,24l-0.6,2c0,0,1.5,2.8-0.9,1.5S2,25.1,1.6,24c-0.2-1.3,0.2-2.7,1.1-3.7C3.5,19.7,4.4,19,5,20.1
		c0.4,0.8,1.4,1.1,2.2,0.7c0.1,0,0.1-0.1,0.2-0.1c1-0.4,2.1-0.4,3,0.2c0.6,0.6,0.6,2-0.6,3.1S7.9,24.6,7,24z"/>
	<path class="st3" d="M22.1,19.6c1.2-0.3,2.5-0.3,3.7,0c0.6-0.5,1.6-0.5,2.2,0c1.1,0.9,2.5,1.3,3.9,1.3c0.9-0.2,2.4,1.5,3.7,0
		s6.1,0.7,7.2-1.5s3.3-1.8,3.5-3.1s0.2-3.5,1.1-4.1s3.9-1.3,4-2.4S50.3,7,50.3,7c-1.3,0-2.6,0.4-3.6,1.2c-1.3,1.3-3.9,3.7-4.4,3.7
		s1.1,3.9-0.9,2.8s-3.3-2.2-2.8-3.1s3.3-1.1,3.3-2.2s-2.8-2-3.5-2S36.6,9.2,35.1,9s0.7,4.4,0.7,4.4l-2.2,0.9L33,13l-0.6-2.2L30,11.3
		c0,0-0.6,1.5-1.7-0.2S26.5,7.8,25.2,8s-0.9,1.5-2,1.7s-2.2,2-4.6,3s-1.8,2.6,0,3.5C20.5,17.1,21.2,20,22.1,19.6z"/>
	<path class="st3" d="M50.3,11.7c-1.4-0.7,2,2.6,3.3,2.4s3.3-2.2,3.3-2.2s2-3-0.4-3.7l-2.4-0.7l-2,0.4c0,0,3.5,0.7,2.6,1.8
		S52.3,12.6,50.3,11.7z"/>
	<path class="st3" d="M45.9,1.9c0.7-1,1.9-1.6,3.1-1.5c1.6,0.3,3.1,0.7,4.6,1.3c1.3,0.3,2.6,0.3,3.9,0c1.1-0.4,2.4,1.1,3.7,1.1
		c1.3-0.1,2.4-0.8,3-2c0.4-0.9,0.9-3,1.5-3.5s0.6-3.1,0.6-3.1s-1.2-1.6-1.5-1.1c-0.6,1.3-0.7,3.1-2.4,2.4S60.3-6,61-6.7
		c0.4-0.5,0.9-0.9,1.4-1.3c0.9-0.7,3.1-2.2,1.7-2.6s-1.7-2.2-3.1,0s-1.5,3.3-2.2,3.9s-0.7,3.5-0.2,4s-1.1,1.8-2.2,1.1S56-2.7,54.7-3
		s-0.4-2-2.6-2c-1.5,0.1-3,0.3-4.4,0.7c-1.1,0.2,0.2,0.4-1.1,2S44.2-0.1,45.9,1.9z"/>
	<path class="st3" d="M56.8-13.2c0.7-0.8,1.3-0.1,1.5-3.3s1.8-2.9,2.8-4c0.9-1.1,2.8-2,2.6-3.3s-2-3.3-2-3.3l-0.3,2.8
		c0,0-6-1.2-6.1,1.6s2.3,3.2-0.4,3.3s-2.8,0.1-3.6,0.5s-2.7,1.6-2.8,2.1s-2.1,1.1-2.1,1.1c-1.3,0.4-2.5,0.6-3.8,0.6
		c-0.9-0.2-1.6,0.5-0.8,1.2s0.9,1.3,1.9,0.7c1-0.4,1.9-0.9,2.9-1.4c1.7-1,5.1-0.4,5.1-0.4c0.7-0.9,1.6-1.6,2.6-2.2
		c1.2-0.5,1.2-1.3,1.8,0.3C56.6-15.7,56.8-14.4,56.8-13.2z"/>
	<path class="st3" d="M63.2-12.6c-1.3,0.4-0.2-3.3-1.3-3.3s-2.8,0.7-2-0.5c0.5-1.1,1.3-2,2.2-2.8c0.7-0.4,0.9,1.3,2,0.9
		c0.8-0.5,1.9-0.3,2.6,0.4c0.7,0.6,1.1,1.5,0.9,2.4c-0.2,0.6,0.4,3-0.4,3.3s-0.9-2-1.5-2.4S64.3-13,63.2-12.6z"/>
	<path class="st3" d="M16.6,1.9c-1.1-0.2-1.8-1.2-1.6-2.3c0.1-0.4,0.2-0.7,0.5-1c0.7-0.6,1.5-1,2.4-1.3c0,0-0.7-1.1,1.1-2
		s1.5-1.5,3.1-0.4s1.8,0.4,3.3,2s0.6,3.3,2.8,3.3c1.6,0.1,3.2,0.5,4.6,1.1c0,0,1.7,1.5,0.7,2.4C33,4.5,32.8,5.5,33,6.4
		c0,0-3.1,0.7-3.9,0.2s0.6-0.6-0.6-1.5s-1.8-2-3-2.4c-1.2-0.5-2-1.8-1.8-3.1s-2.2-0.2-2.8,0.9S18.2,2.3,16.6,1.9z"/>
	<path class="st3" d="M49,15.8c0.6,0.7,1,1.5,1.1,2.4c0.9-0.5,1.8-0.8,2.8-0.9c1.1,0,1.7,0.9,2.2,1.3s2,0,3-0.2s1.7,1.1,1.8,2
		s-1.3,2.8-1.3,2.8s-1.5,2-2.6,2s-2,0-2.6-0.7s0.4-2.8,0.4-2.8s-2.4-1.5-2.6-0.9s-1.1,4-2.4,4.2c-1.7,0-3.5-0.1-5.2-0.6
		c-0.6-0.2-3-0.4-1.3-1.7s2.2,0.2,2.6-1.7c0.4-1.5,1-2.9,1.8-4.2L49,15.8z"/>
</symbol>
<symbol  id="ec" viewBox="-56.3 -61.8 112.5 123.6">
	<path class="st4" d="M30.3-50.6c1.5-0.7-10.2,1.7-10.2,1.7c-1.3,0.3-2.6,0.8-3.9,1.4c-0.7,0.5-10,5.4-10,5.4L8.6-46
		c0,0,4.2-4.2,7-5.3c1.7-0.7,3.2-1.9,4.3-3.5l-3,1.6l-3,1.6l-6.4,2.2L3.3-44l0.3-7.5l2.6-3.6l7.5-6.7L7-58.7l-2.2,3.2
		c0,0-3.6,2.5-4.3,2.8c-0.7,0.3-0.7,4-0.7,4l-2.6,4.3c0,0-6.5-4.5-7.3-5c-1.2-0.6-2.3-1-3.6-1.5c0,0-0.3-2.1-1.1-2.3
		c-1.3-0.3-2.6-0.9-3.5-1.9l-6.9-2.4l6.1,3.9l3,3.8l2.9,1.7l3.9,3.1l-2.1-0.1l-3.3,0.4l-3.6-1.7l-3.4,1.4c-0.9-0.2-7.3-1.5-7.3-1.5
		l4.6,3.5l4.6-0.7l5,0.9l8.4,4.5l2.1,5.7l1,14.2l-0.5,7.5l-1.3,5.5l-0.7,5.3c0,0-1.1,1.5-0.8,2.4s-1,2.8-1,2.8l-2.2,2.2l-4.4,1.2
		l-6.3-0.9l-5-2.8c0,0-8.7-2.1-9.7-2.5l-6.7-2.9l1.3,1.6l2.2,1.8l4.8,1.6l5.2,0.9l7.2,4l-3.1-0.8l-5-0.6l-6.1,0.4l-2.7,2
		c-0.7,0.5-5.2,2.6-5.2,2.6l-2.3,1.1l1.4,0.4l3-1.3l3-0.9l-0.3,2.1l-1.5,3.4l1.4-0.8l1-2.4l1.5-2.6l2-2.4l3.7-0.2l4.3,0.4l3.6,2.4
		l5.9,0.4l-4.5,2.8l-2.7,2.7l-2.2,2.9l-2.7,2.7l-8.8,1.2l-4.2,0.7c0,0-4.2,0.5-4.1,1.4c0.1,0.9,5.1-0.7,5.1-0.7l4.4-0.7l3.1,0.5
		l-1.3,1.9l-2.9,2.5l-2.3,1.3l-1.5,2.2l2.1-0.8l2.5-1.8l3.4-2.8l3-1.6l2.7-1.3l0.4,1.3v5l-2.8,4.6l-2.1,3.8l-3,3.4l-2.2,2.9l3.2-2.7
		l2.9-3l2.8-4.8l2.6-3.6l0.5-3.8l1.1-1.9l0.6,2.5l1.9,4.6l1.5,2.5l1.6,4.3l-0.5,4.2c1.4-0.5,1.7-3.6,1.7-3.6l-1.3-3.4l-1.1-3.2
		l-2.6-9.4l-1.3-3l1.3-2.4l2.4-3.2l6.2-2.2l7.2-0.2l-2,2.9l-1.9,3.8c0,0-1,1.5-1.7,1.5c-1.3,0.4-2.5,0.8-3.7,1.4l-2.7,2.5
		c1,0.7,2.5-1.1,2.5-1.1l3.7-1.3l2.3-1.8l2-2.2l0.5,3.9L-8,28.1l-1.7,2.7l-1.8,2.2l-2.2,2.2c0.4,0.5,1.1,0.5,1.5,0.2
		c0.2-0.1,0.3-0.3,0.3-0.5l2.7-2.7l3.3-4.8l-0.5-4.2l2.2-2.7L-4,24l1.5,6l-1.4,4.5L-5,39.4l-2.8,3.7l-3.5,4.4l-3.2,1.1l-3.8,3.4
		c1,0.4,3.2-0.9,3.2-0.9l2.9-2.3l3.9-0.9l1.7-3.6l1.8-1.5l3.3,5.2l0.4,3l2.9,5.9c0.9-0.5-0.4-3-0.4-3l-0.9-3.7l-1.4-3.7l-2-2.2
		l-0.2-3.7l0.2-5.6l1.3-2.2l1.8,2.5l2.4,1.8l2.9,2.4l1.8,2.7c0,0,0.1,1.9,1.5,1.8l-1.1-3.9l-2-2.9l-2-1.5L1,33l-1.8-2.5l-1.3-6
		l0.3-8l1.1-5.4L4,19.7l4.7,5.4l2,2l0.4,3.3l-0.8,3.4l0.6,2.8l0.8,1.4l0.9,1.5l0.3-3.3l-1-1.6l0.8-2.3l0.1-3l0.6-1.4l4.1,2.1
		l4.5,4.9l3.4,3.3l4,5.8l0.3,4.8c0.9-0.3,1.5-2.7,1.5-2.7l-0.9-3L26,37.5l-3.4-6.3l-3.2-2.9l2.6,0.3l2.7,1.7h4.4h3.5l3.1,1l2.4,2
		c0.2-1-0.2-2-1.1-2.5c0,0-4.3-1.4-5-1.6c-1.1-0.3-2.2-0.5-3.3-0.5l2.8-1.1l4.2-0.4c-0.3-1.2-2.4-1-2.4-1l-3.9,1.2l-2.1,0.1L25,28.3
		l-2.4-1.8l-2.9-0.6l3.2-1.1c0,0,1.6-0.6,1.6-1.3s3.4-2,3.4-2l3.3-0.4l3,0.1c-0.8-0.8-1.9-1.2-3.1-1.2l-3,0.4l-3.6,2L21,22.8
		l-3.7,1.6l-2.1,0.8l-4.5-1.1l-3.9-6.6l5.4,0.6l2-1h3.5l2.2,1.4l0.2,0.1l2.4,0.6c0.9-1.4-3.5-3.6-3.5-3.6l-4.7-0.2l-4.5-1.2l-3-6.1
		l7,2.4c0,0,3-1.3,3.7-1.1s8.3,2.9,8.3,2.9l3.7,3.1l3.6,1.9l4.7,0.2l2.2,1.8l2.2,1.8l-0.3-1.4l-1.5-1.8l-1.5-1.6l-2.1-0.6l-3.4-0.8
		l4.2-0.7l5.6,0.4l3.9-1.1l1.8-1.3l3.4-2l1.4-0.3c-3.8-0.3-4.6,1-4.6,1L45,13.2l-3-0.1l-5-0.4l-3.3-0.3l-1.8,0.5l-2.6-1.3l-3.4-1.5
		c0.5-0.3,1-0.5,1.6-0.6L31,9.4l4.8-1.2c0.7-0.1,1.3-0.4,1.6-1C37.9,6.1,38.8,5,39.6,4C38.4,4.6,37,5.1,37,5.1l-1.5,1.7l-3.7,0.9
		l-3.9,0.7l-3.3-0.3L21.4,9l-4.3-1.4l-4.7-1.2L8,3.9L6.3,1.6L5-4.9l-0.3-5.4l-0.9-3.2l0.4-5.2l1-7.5l2.1-8.9l3.5-5.6l4.4-4.2l7-3.6
		C25-48.9,27.7-49.6,30.3-50.6z"/>
	<path class="st5" d="M5.8,12.1l1.4,3c0,0,3.4,2.3,4.1,1.3L9,15.7l-2.2-2.8L5.3,8.8l-2-3L2.8,2.7l-2-4.1c0,0-1.1-3.7-0.7-5.1
		C0.3-7.7,0.2-9-0.1-10.2l-1.7-5.5c0.1,1.9,0.4,3.7,0.8,5.6l-0.1,4.6l1.2,4.1l1.6,4l0.7,3.5L4,9.4l-0.7,1.7v2.8c0,0,1.9,3,2,3.5
		c0.4,0.8,0.8,1.7,1.3,2.4l0.2,0.4l1.6,3l0.1-1.6l-1-2l-1.9-3.3l-0.9-2.1l-0.6-2l1-2.1L5.8,12.1z"/>
	<path class="st5" d="M-1.8,9.6L-4.1,12l0.9,2.1v3.3c0,0,0.1,5,0.1,5.6c-0.6,0-0.5-1.4-0.5-1.4l-0.7-6.2l-1.4,3L-6,20.3l-1,1.8
		c-0.3-0.4,0.2-2.2,0.2-2.2l-0.1-1.2l-1.3,0.5l-0.6,0.7v-0.6l0.6-1.2l1.7-1l1-0.6l0.8-2.1L-5,11.3l1.5-1.2l0.7-1.9l2-1.4l-2-4.1v-3
		l0.7-4.1l0.5,2.8l-0.3,2.2l0.4,2.9l2.1,3.8l0.6,2.4l0.5,2.1l0.7,1.6l-0.9-0.8l-0.9-1.7L0,10.3l-0.4-2.6L-1.8,9.6z"/>
	<path class="st5" d="M-4.9,2.6l0.1,2L-6,6.8l-1.3,1.5L-10,8.7l-1.9,1.4l-2.8,0.3L-16,9.7l-2.9-0.5l-3.6-1.6c0.4,0.7,2.9,2,2.9,2
		l-1.5,0.8H-23l-1.9-0.6c0.6,0.4,1.3,0.8,2,1l2.3,0.5l1.7-0.2l1.6-0.4l2.1,0.4l1.9,0.5l2.7-1.2l2-0.2l1.7-0.7l-0.7,1.7l-2.4,1.1
		h-2.8l-1.5,0.2l-1.4,0.5l-1.6,1.3l-2.2,1.3l2.1-0.7l2.4-1.3l1.4-0.1l4-0.1l1.8-1.1l1.9-1.5l0.3-2.3L-4,5.8L-4.9,2.6z"/>
	<path class="st5" d="M-24.6,22.7l0.4,2.5l1.6,2l0.4,1.6l-2.1-2.5l-1,0.4v1.5l-0.7,2.7V29l-0.3-2.1l0.3-2l-1.2,0.4l-1.4,0.3
		l-3.6,1.2l0.8-0.9l2.4-1.1l1.1-0.7l2.2-2l1.2-2.2c0,0,2.9-2.8,2.5-2.1c-0.6,0.9-1.3,1.7-2,2.4L-24.6,22.7z"/>
	<path class="st5" d="M28.8,13l1.8,1.8l2.6,1.4l2.4,0.6c-0.3-0.5-0.7-0.8-1.2-1l-1.6-0.5l-0.9-0.7l1.5-0.3l1.7-0.4l1.8-0.3l1.2,0.2
		c-0.1-0.3-1.9-0.5-1.9-0.5l-2.7,0.1l-2.1,0.7l-1.6-1.2l-2.9-1.1L28.8,13z"/>
	<path class="st5" d="M11.8,28.8v-1.4L11,26.1l-0.9-0.7c0.4-0.2,0.8-0.3,1.3-0.2L14,26l1.9-0.2l2.8-0.7l2.7-1.5
		c-0.7,0.7-1.5,1.3-2.4,1.6l-0.8,0.9l1.7,0.5l1.8,0.4l1.8,0.8L22,28l-1.4-0.5l-1.8-0.3L17.5,27l1,1.2l1.5,1.6l1.6,1.2l1.2,2.6
		l-0.5,0.1l-0.6-1.1l-1-1l-2-2.1l-0.9-0.9l-1.6-1.3l-2-0.4h-1.4L11.8,28.8z"/>
	<polygon class="st5" points="-1.8,-19 -1.1,-24.4 -0.2,-30.4 -0.8,-33.5 -0.4,-36.3 0.4,-38 5.7,-43.1 0.5,-40 1.3,-44.1 
		1.6,-48.5 -0.3,-43.7 -1.5,-39.1 -5.6,-44.1 -8.8,-45.8 -3.9,-40.6 -9,-42.7 -12.1,-43.1 -7,-40.3 -2.9,-38.8 -2,-35.9 -1.4,-30.3 
		-1.8,-26.5 	"/>
	<polygon class="st6" points="-49,12.5 -47.3,15.2 -46,16.1 -43.8,18.3 -41,18.4 -33.6,15.9 -29.3,17.8 -23.1,16 -19.7,18.7 
		-14.1,19.1 -10.2,17.7 -14.4,17.2 -18.2,15.8 -19.4,11.4 -24.4,9.6 -28.5,6.3 -30.9,1.3 -38,0.5 -42.8,-1.1 -46.8,-0.9 -49.6,1.6 
		-53.8,2.9 -56.3,3.8 -55.8,5.6 -53.5,6.4 -49.3,6.2 -45.8,7.7 -41.3,5.8 -38.9,8.5 -41.3,9.5 -43.9,11.5 -47,10.1 	"/>
	<path class="st6" d="M-48.3,24.8l-2.4,2.5l0.9,2.8l2.7,1.3l3,0.1l0.6,2.5l0.4,2.6l3,2.9l1.9,4.8l1,2.5l1.7,1.8l3.5-0.9l5.2,1.8
		l1.4,4.4l3.9,3.8l7.1,2l6.8-3.2c0,0,2.1,3.6,3,3.8c0.9,0.2,6.2,1.5,6.2,1.5l6.2-0.5l6.3-4.1l2.3-8.5l3.6,1.4l3-1.1l0.5-3.1l-2.4-3
		l-4.2,0.2L14.2,40L12,35.4l-4.6-3.5l-4-1.2L0.3,25l-2-2L-8,22.7l-2.4-1.5l-2.3-0.3l-3.7,0.9l-2.7,1.4l-1.3,2.6l1.6,3.2l4.3,1.9
		l4.7,0.2l4.6,3.3l-1.6,1.5l-3.1-1.7l-4-0.5l-2.6-0.6l-3.1-1.7l-1.3-1.8l-1.6-3.4l-3.5-1.3l-1.2,0.5l-4.2,0.7l-3.9-3.1l-3.8-0.3
		l-1.3,2.6l1.6,3.2l3.1,1l1.9,1.1l5,1.4l1.7,2l1.8,2.5l1,2.6l-2-2.2l-3.9-2.8l-4-1l-2.7-1.7l-3.8-1.2l-2.8-4.1
		C-43.4,25.9-46.3,24.3-48.3,24.8z"/>
	<path class="st6" d="M14.8,31.1l1.1,2.7l5,1.6l0.6,2.5l3.4,3.3l0.4,2.6l-1,3.6l1.5,2.3l3.5,0.5l3.2-1.3l3.3-4.2l-0.2-4l2.1-4.8
		l3.8-3l3.9-1.6l2.3-5.5l-0.6-3.9l4-3l1-4c0,0,3.7-2.1,3.6-2.7c0.1-1,0.3-1.9,0.6-2.8l-1.9-1.3l-3.8-1l-3.4,2.5l-2.8-0.4h-7.8
		L39.8,5l-0.2-3l-3.1-0.3l-2.4,2.5l-3,1.1l-6.3,1l-2.6-1c0,0-3.1-1.5-4.3-1.2c-1.2,0.5-2.4,1.2-3.4,2l-2,2.4L9.1,11l0.6,1.8l2.4,1
		l2.8-0.8l4.2-0.2l1.7,1.8L20,17.2l-1.5,2l-3.3,0.2H11c-0.9-0.1-1.7,0-2.6,0.1c-0.9,0.3-2.1,0.6-2.1,0.6L5,22.3l1,2.3l3.6,1.9
		l2.6,0.4l7.3-3.3l3.6-2.8l2.6,1.3l2.5,2.6l-2.9-1l-1.6-0.8c-0.7,0.2-1.2,0.6-1.6,1.3c-0.4,1-4.1,1.4-4.1,1.4l-1.4,0.8l-0.6,1.2
		l-2,1.5L14.8,31.1z"/>
</symbol>
<g id="Layer_1">
	<g id="Layer_3" class="st7">
		<g class="st8">
			<path class="st9" d="M15.7,34.2c0.1-0.3,6.7,1,6.9,1c-0.3,0.6-0.6,1.2-0.8,1.8c-0.1,0.6,0,1.2,0.2,1.9c-1,0.8-2.3,1.1-3.5,0.8
				c-1.3-0.1-2.4-0.8-2.9-1.8c0-0.2,0.1-0.8,0.3-1.6C15.8,35.7,15.8,35,15.7,34.2z"/>
			<path class="st10" d="M16.5,36.7c1,1.1,2.7,1.5,4.2,1c0.4-0.1,0.8-0.4,1.1-0.8c0.1-0.2,0.2-0.4,0.2-0.6l0.1-0.5v-0.1
				c0-0.1-0.1-0.1-0.2-0.1c-1.6-0.2-3.1-0.3-4.7-0.6c-0.2,0-0.4-0.2-0.6-0.2c-0.3-0.1-0.1,0-0.2,0.3C16.5,35.6,16.6,36.1,16.5,36.7z
				"/>
			<path class="st10" d="M35.6,67.2c-0.1,0.2-0.3,0.5-0.5,0.6c-0.1,0.2-0.3,0.3-0.5,0.3c-0.1,0-0.1,0.1-0.2,0.1
				c0,0.1-0.1,0.1-0.1,0.2s0,0.2-0.1,0.4c0,0.1,0.2,0.2,0.3,0.3c0.1,0,0.2,0,0.2-0.1c0.4-0.1,0.8-0.5,1.1-0.8
				c0.2-0.2,0.4-0.5,0.4-0.8c0-0.2,0.2-0.4,0.2-0.6c0.1,0.6-0.5,1.2-0.7,1.8c0,0.1,0,0.2-0.1,0.3c-0.1,0.1-0.3,0.3-0.4,0.4
				c-0.1,0.1-0.3,0.3-0.4,0.5c0,0.1,0,0.2,0,0.2c0,0.1,0.1,0.2,0.2,0.3c0.1,0.1,0.3,0.4,0.5,0.3c0.1,0,0.2-0.1,0.2-0.2l0.4-0.4
				c0.1-0.1,0.2-0.2,0.3-0.3c0.5-0.5,0.8-1.1,0.9-1.8c0-0.2,0-0.5-0.1-0.7c-0.1-0.1-0.1-0.2-0.2-0.3c0-0.1,0-0.2,0-0.2
				c-0.1-0.2-0.2-0.3-0.3-0.5c-0.2-0.1-0.4-0.3-0.6-0.4c-0.2,0-0.3-0.1-0.3,0.1c0,0.1-0.1,0.3-0.1,0.5
				C35.9,66.6,35.7,66.9,35.6,67.2z"/>
			<path class="st9" d="M36.8,68.2c0,0.2-0.2,0.4-0.2,0.6s-0.3,0.4-0.3,0.7c-0.2,0.3-0.3,0.6-0.5,0.9c0,0.1-0.1,0.3-0.1,0.4
				c0,0.2,0.1,0.3,0,0.5l0.1,0.1c0.1,0.1,0.3,0.1,0.4,0c0.1-0.1,0.3-0.3,0.3-0.4c0.3-0.6,0.7-1.2,1-1.9c0.4-1.1,0.7-2.1,0.8-3.2
				c0.1-0.3,0-0.6-0.1-0.9s-0.1-0.8-0.2-1.3c0,0,0-0.1-0.1-0.1c0,0-0.1,0-0.1,0.1c-0.1-0.1-0.2-0.3-0.4-0.4c-0.2,0-0.3-0.1-0.5-0.1
				s-0.5,0-0.8,0.1c-0.2,0.1-0.4,0.3-0.4,0.6c0,0.1,0,0.2-0.1,0.3v0.1c-0.1,0.2-0.3,0.3-0.3,0.5s-0.1,0.3-0.1,0.5s-0.1,0.3-0.2,0.5
				l-0.5,1.3c0,0.1,0,0.2-0.1,0.3c0.1,0.1,0.2,0.1,0.3,0.2l0.5,0.1c0.1,0,0.1,0,0.2,0s0.1-0.1,0.1-0.2c0.2-0.3,0.3-0.6,0.5-0.9
				l0.1,1.2c0,0.1,0,0.1,0,0.2s0,0.1,0,0.2c-0.1,0.6-0.1,1.1-0.3,1.7c-0.2,0.3-0.2,0.7-0.2,1c0,0.2,0.2,0.3,0.4,0.4
				c0.2,0,0.4-0.3,0.4-0.4l0.2-0.7c0-0.2,0.2-0.4,0.2-0.5c0-0.2,0.1-0.4,0.1-0.5c0.1-0.3,0.1-0.7,0.3-1c-0.2-0.2-0.3-0.7-0.5-0.9
				l0,0c0-0.1,0-0.2-0.1-0.2c-0.3,0.3-0.3,0.7-0.2,1c0.1,0.1,0.1,0.2,0.1,0.2C36.8,68.1,36.7,68,36.8,68.2z"/>
			<path class="st11" d="M34.8,66.4L34.8,66.4c-0.1,0.1-0.2,0.3-0.3,0.4c0,0.1-0.2,0.3,0.1,0.2l0.4,0.1c0.1,0,0.2-0.1,0.3-0.2
				c0-0.1,0-0.2,0.1-0.3c0-0.1,0-0.1,0-0.2s0-0.1-0.1,0H34.8z"/>
			<path class="st11" d="M36.4,69.9c0,0.1-0.1,0.6-0.1,0.7v0.1h0.1c0,0,0-0.1,0-0.2S36.5,70.2,36.4,69.9L36.4,69.9z"/>
			<path class="st10" d="M35.8,65.9c0-0.1,0-0.1,0.1-0.2s0.3-0.1,0.4,0.1c0.1,0.1,0.2,0.2,0.2,0.3c0.1,0.3,0,0.7,0,1s0.1,0.7,0,1
				c0,0.1,0,0.2-0.1,0.3c0,0.1-0.1,0.3-0.1,0.4c-0.1,0.4-0.1,0.8-0.2,1.2L36,70.5c0,0.1,0,0.1,0,0.2c-0.2-0.3-0.2-0.8,0-1
				c0.1-0.3,0.1-0.6,0.2-0.9l0.1-0.8c0-0.2,0.1-0.4,0.1-0.6s-0.1-0.7-0.1-1.2c-0.1,0.2-0.2,0.5-0.3,0.7s-0.6,0.3-0.5,0.2
				c0-0.2,0.2-0.4,0.2-0.5C35.6,66.3,35.7,66.2,35.8,65.9z"/>
			<path class="st10" d="M36,69.6c-0.2,0.3-0.2,0.7-0.2,1c0,0.1,0.1,0.1,0.1,0.1v0.1v0.1c0,0.1,0,0.2,0,0.2s0,0,0,0.1h-0.1
				c0,0-0.1,0-0.1-0.1s0-0.1-0.1-0.1c0-0.1,0-0.1,0-0.2c-0.1-0.2,0-0.5,0.1-0.7l0.1-0.3C35.8,69.6,35.8,69.6,36,69.6l-0.1,0.2"/>
			<path class="st9" d="M13.1,67.2c0.5,0.1,1,0.4,1.3,0.8c0.2,0.3,0.3,0.8,0.3,1.1c0.1,0.3-0.6,6.9-0.7,8.6c0.1,1.4,0,2.7-0.2,4.1
				c-0.1,0.4-0.7,1.1-1,2.1S12.3,86,12.3,87c0,0.5,0.1,1.1,0.3,1.6c0.2,1,0.2,1.8,0.3,2.7c0.1,1,0.1,1.7,0.1,2.4
				c0.1,0.3,0,0.7-0.2,1s-0.3,0.6-0.4,0.9c0.1,0.1,0.1,0.3,0.1,0.4c0.2,0.8-0.9,1.5-0.6,2.3c0.3,0.6,1.1,0.9,1.9,0.7
				c0.1,0,0.2-0.1,0.3-0.1s0.3,0.1,0.4,0.1c0.9,0.3,1.8,0.4,2.8,0.5c0.1,0,0.1,0,0.2,0c0.2-0.1,0.4-0.3,0.3-0.5s-0.2-0.3-0.2-0.6
				c-0.4-0.5-0.8-1-1-1.5c-0.3-1.1-0.1-4,0.1-4.4c0.7-1.5,1.4-3,1.7-4.6c0.5-1.6,0.6-3.1,0.4-4.8c-0.2-0.9-0.2-1.7-0.1-2.5
				c0.1-0.7,1.2-2,1.7-3.5c0.3-1.3,0.6-2.7,0.7-4.1c0.2-1.6,0.4-3.6,0.6-5.2c0.2-0.9,0-3.7,0-4.7c0-0.6,0.7-2.1,0.7-2.7
				c0-0.6,0.6-4.8,0.7-5.2c0.3-1.9,0.8-3.8,1.1-5.8c0.1-0.5,0.4-3.1,0.5-3.8c0-0.2,0.1-0.3,0.1-0.7c0.2-0.9,1.1,2.1,1.4,3
				s1.1,2.6,0.8,2.5c0.3,0.8,0.6,1.1,0.9,2c0.1,0.4,0.4,0.9,0.5,1.3c0.1,0.4,0.1,0.4,0.3,1c0.2,0.8,0.5,1.4,0.9,2.1
				c0.4,0.4,3.6,3.8,3.9,4.2c0.4,0.4,1.2,1.8,1.6,2.1s0.4,0.6,0.6,0.7c0.4-0.4,0.9-0.6,1.5-0.5c0.6,0,1-0.1,0.7-0.6
				s-1.2-2.5-1.3-2.9c-0.1-0.5-1.2-2.7-1.7-3.4c-0.4-0.8-0.9-1.5-1.4-2.2s-1.3-1.6-1.9-2.4c-0.5-0.8-0.9-1.6-1.3-2.5
				c-0.4-1.1-1.4-3.9-1.6-4.9c-0.1-0.5-0.3-1.1-0.5-1.7c-0.1-0.5-0.3-1.1-0.6-1.7c-0.3-0.4-0.5-0.7-1-1s-1.1-0.6-1.7-0.9
				c-1.2-0.5-1.9-0.5-3.2-1c-0.3,0.2-0.8,0.6-1.3,0.7c-0.8,0.2-1.5,0.3-2.4,0.1"/>
			<path class="st9" d="M18.3,39.6c-0.7-0.1-1.4-0.4-2-0.8c-0.4-0.3-0.7-0.7-0.9-1.1c-1.1-0.2-2.2-0.1-3.4-0.1
				c-0.6,0-1.2,0.1-1.8,0.2c-0.4,0.1-0.9,0.3-1.3,0.6c-0.4,0.5-0.8,0.8-1.2,1.4c-0.4,0.5-0.7,0.9-1.1,1.5c-0.7,0.9-2.5,3.2-3.3,4.2
				c-0.6,0.7-1.3,1.4-2,2c-0.8,0.6-1.9,1.1-2.6,1.7c-0.7,0.5-1.6,1.2-2.1,1.6C-4,51.3-5.8,53-6.2,53.5c-0.4,0.5-1.9,1.9-2.3,2.3
				c-0.4,0.5-0.2,0.6,0.5,0.8c0.6,0.2,1,0.5,1.2,0.9c0.3-0.2,0.6-0.3,0.8-0.5c0.5-0.2,1.7-1.2,2.2-1.4s4.7-2.4,5.1-2.7
				C2,52.3,2.5,51.8,3,51.1c0.3-0.5,0.3-0.6,0.6-0.8c0.3-0.3,0.7-0.7,0.9-1.1c0.6-0.6,1-1,1.6-1.6c-0.1,0,1.3-1.4,1.7-2.1
				c0.6-0.7,2.5-3.4,2.3-2.4C10,43.3,10,43.4,10,43.7c-0.1,0.8-0.7,3.2-0.7,3.7c-0.4,1.9-0.7,3.8-1,5.8c-0.1,0.4-1,4.7-1.1,5.1
				c-0.2,0.4-1,2-1.2,2.6c-0.4,0.9-0.4,3.6-0.7,4.6c-0.4,1.6-0.8,3.5-1.2,5.1c-0.3,1.3-0.6,2.7-0.7,4.1c-0.1,1.6,0.5,3.1,0.4,3.8
				c-0.2,0.8-0.6,1.6-1,2.3c-0.8,1.4-1.3,3-1.3,4.7c-0.1,1.7,0,3.2,0.1,4.9c-0.1,0.3-0.6,3.1-1.3,4.2c-0.4,0.5-0.9,0.8-1.5,1.1
				c0.1,0-0.1,0.2-0.2,0.3c-0.1,0.2-0.1,0.4,0.1,0.5h0.2c0.9,0.3,1.8,0.4,2.7,0.4C1.8,97,2,97,2.1,97s0.2,0.1,0.3,0.2
				c0.7,0.4,1.5,0.4,2-0.1c0.5-0.6-0.2-1.7,0.3-2.3C4.8,94.7,5,94.5,5,94.4c0.1-0.3,0.1-0.6-0.1-0.9c-0.1-0.3,0-0.7,0.2-1
				c0.2-0.7,0.6-1.4,0.8-2.1c0.4-0.9,0.7-1.7,1.2-2.5c0.3-0.5,0.6-0.9,0.8-1.4c0.3-1,0.5-2.1,0.5-3.1c0.1-1-0.3-1.9-0.2-2.3
				c0.3-1.3,0.8-2.6,1.2-4c0.5-1.8,2.1-8.1,2.3-8.4c0.2-0.4,0.3-0.7,0.7-0.9c0.4-0.3,0.8-0.4,1.3-0.3"/>
			<path class="st12" d="M5.8,61c0.2-0.5,0.5-1.2,1.1-1.2c0.1,0,0.1,0,0.1,0c3.7,0.5,15,1.9,15,2.2c0.1,0.5,0.1,0.8,0,1
				c-0.3,2.4-4,3.6-7.8,4.9C14,68,13.6,68.1,13.1,68c-0.6,0-1.1-0.3-1.4-0.4c-1.9-1.2-5.9-3.7-6-5.8C5.7,61.5,5.8,61,5.8,61z"/>
			<ellipse class="st13" cx="13.7" cy="44.5" rx="0.2" ry="0.2"/>
			<ellipse class="st13" cx="21.5" cy="45.7" rx="0.2" ry="0.2"/>
			<path class="st10" d="M2.5,50.9c0.1-0.2,0.3-0.4,0.4-0.7c0.2-0.2,0.4-0.5,0.7-0.6c0.4-0.4,0.6-0.6,0.9-1L5.6,47
				c0.1-0.2,0.3-0.5,0.4-0.7c0-0.2,0.1-0.4,0.2-0.6c0.3-0.4,0.6-0.8,0.8-1.2c0.1-0.2,0.2-0.4,0.3-0.5c0.3,0,0.4,0,0.5,0
				c1.2-0.6,2.1-1.6,2.5-2.7c0.1-0.5,0.4-0.9,0.7-1.2l0.2,0.1C11,41,11,41.8,11.3,42.6c0.1,0.2,0.2,0.3,0.2,0.6
				c0,0.2-0.1,0.5-0.1,0.7c-0.3,1.3,0.4,2.8,0.1,4.1c-0.2,0.5-0.4,1-0.6,1.4c-0.2,0.4-0.4,0.9-0.4,1.4l-0.1,0.5
				c0,0.2-0.1,0.4-0.1,0.6c-0.1,0.4,0,0.8-0.2,1.2s-0.3,0.8-0.5,1.2c-0.1,0.3-0.1,0.6-0.1,0.9c0.1,0.1,0.1,0.3,0,0.4
				c0,0.1-0.1,0.3-0.1,0.4L9,57.3c-0.1,0.2-0.5,0.2-0.7,0.1c-0.1,0-0.1-0.1-0.2-0.1c0-0.2,0.1-0.4,0.1-0.6s0.1-0.3,0.1-0.5l1.2-6.6
				l0.2-1l0.2-1.1l0.3-2l0.2-0.9c0.1-0.4,0.1-0.8,0.2-1.3c0-0.2,0.1-0.6-0.1-0.6c-0.2,0-0.4,0.4-0.4,0.5c-0.5,0.5-1,1.1-1.3,1.7
				c-0.3,0.5-1.3,1.7-1.6,2C6.5,47.5,5.8,48.3,5,49c-0.2,0.2-0.6,0.6-0.8,0.8C4,50.1,3.3,51.2,3,51.6c-0.4,0.5-0.9,0.8-1.4,1.1
				c-0.4,0.3-0.8,0.4-1.2,0.6c0.4-0.4,0.8-0.8,1-1.3C1.8,51.8,2.2,51.4,2.5,50.9z"/>
			<path class="st10" d="M17.5,98.9c0-0.1,0.1-0.2,0.2-0.2c0,0,0,0,0.1,0c-0.1,0.2-0.2,0.5-0.1,0.8c-0.1-0.1-0.3-0.2-0.5-0.2
				c-0.1,0-0.3,0.1-0.2-0.1C17.2,99.1,17.4,99.1,17.5,98.9z"/>
			<path class="st10" d="M3.4,96.6c0-0.1-0.1-0.2-0.2-0.2c0,0,0,0-0.1,0c0.1,0.2,0,0.5-0.1,0.8c0.1-0.1,0.3-0.1,0.5,0
				c0.1,0,0.3,0.2,0.2-0.1C3.6,97,3.5,96.9,3.4,96.6z"/>
			<path class="st14" d="M28.2,30.3c0.1,0.1,0.3,0.3,0.4,0.4c0.1,0.2,0.1,0.4,0.2,0.7c0,0.8-0.3,1.5-0.9,2.1
				C27.6,33.9,27,34,26.6,34c-0.2,0-0.4-0.1-0.5-0.3s-0.1-0.4,0-0.6l0.4-1.9C26.6,30.5,27.3,29.7,28.2,30.3z"/>
			<path class="st14" d="M11.6,27.6c-0.1,0.1-0.3,0.2-0.5,0.2c-0.1,0.2-0.3,0.4-0.3,0.6c-0.2,0.8-0.3,1.5,0.1,2.3
				c0.1,0.4,0.6,0.7,1.1,0.9c0.2,0,0.4,0.1,0.6-0.1c0.1-0.2,0.3-0.4,0.2-0.6L13,29C13.1,28.3,12.6,27.3,11.6,27.6z"/>
			<path class="st9" d="M14.2,23.7c-0.8,1.1-1.4,2.5-1.4,3.9c-0.1,1.3-0.3,3.8-0.3,4.2c0.3,2.3,3.6,4.4,3.9,4.6
				c1.2,0.8,2.8,1,4.2,0.6c2.2-0.5,4.1-1.6,5.3-3.4c0.6-1,1-2.1,1.1-3.4c0.2-1.3,0.3-2.5,0.2-3.9c-0.3-1.2-1.2-2.2-2.4-2.8
				c-1.9-0.6-3.9-1-5.9-1.2C17.2,22.2,15.4,22.6,14.2,23.7z"/>
			<path class="st15" d="M13,28.5c0.4-1.7,1-4.2,2.3-4.6c1-0.4,4.1,0.6,5.5,0.8c1.4,0.2,4.1,0.4,5,0.7c0.6,0.1,1.1,0.6,1.2,1.1
				c0.2,1.5,0.1,3-0.1,4.6c0.3-0.2,0.6-0.7,0.7-1.2c0.6-1.6,0.9-3.2,0.7-4.8c-0.4-1.8-1.8-3.4-3.7-4.3c-1.8-0.6-3.8-0.9-5.7-0.9
				s-3.7,0.9-4.6,2.2C13.5,23.6,13,25.2,13,27C12.6,28.6,12.8,29,13,28.5z"/>
			<path class="st10" d="M18.2,32.2c0.1-0.1,0.3,0.4,1,0.5s1-0.2,1.1-0.1s-0.1,0.7-0.9,0.6C18.5,33,18,32.3,18.2,32.2z"/>
			<path class="st10" d="M17.1,33.8c0.2-0.1,1.1,0.5,1.8,0.6c0.6,0.1,1.3,0.1,1.8,0c0.2-0.1-0.1,0.6-1.9,0.3
				C17.1,34.3,17.1,33.8,17.1,33.8z"/>
			<path class="st10" d="M18.4,35.1c0.1,0.1,0.2,0.1,0.3,0.2c0.1,0,0.2-0.1,0.3-0.1c0.1,0,0.2,0,0.1,0.1s-0.2,0.2-0.4,0.1
				C18.6,35.4,18.4,35.3,18.4,35.1C18.2,35,18.4,35.1,18.4,35.1z"/>
			<path class="st16" d="M14.2,29.2c0.1-0.7,1.3-1,2.3-0.9c0.9,0.2,1.8,0.8,1.7,1.4c-0.1,0.6-0.9,1-2,0.9S14.1,29.9,14.2,29.2z"/>
			<path class="st17" d="M16.8,26.9c-0.4-0.1-0.8-0.1-1.3,0C15.2,27,15,27,15,27s0.1-0.8,1.7-0.6c1.2,0.2,1.7,0.8,1.6,0.9
				S17.6,27,16.8,26.9z"/>
			
				<ellipse transform="matrix(0.9988 -4.995245e-02 4.995245e-02 0.9988 -1.4533 0.851)" class="st18" cx="16.3" cy="29.5" rx="1.2" ry="1"/>
			<ellipse class="st19" cx="15.6" cy="29.3" rx="0.4" ry="0.4"/>
			<path class="st17" d="M16.6,28c0.8,0.1,1.6,0.8,1.7,1.5c-0.1,0.9,0-1-1.8-1.2c-1-0.2-2,0.3-2.3,1.1C14.3,27.9,15.7,27.9,16.6,28z
				"/>
			<path class="st17" d="M23.5,28c0.4,0.1,0.8,0.1,1.2,0.4c0.2,0.1,0.3,0.2,0.5,0.3c0-0.1,0.1-0.8-1.4-1.1c-1.2-0.2-1.8,0.2-1.8,0.3
				S22.9,27.9,23.5,28z"/>
			<path class="st16" d="M21.3,30.2c0.1-0.6,1.3-1,2.3-0.8c0.9,0.2,1.8,0.8,1.7,1.4c-0.1,0.6-0.9,1-2,0.9
				C22.1,31.6,21.2,30.9,21.3,30.2z"/>
			
				<ellipse transform="matrix(0.9988 -4.995299e-02 4.995299e-02 0.9988 -1.5047 1.2024)" class="st18" cx="23.3" cy="30.7" rx="1.2" ry="1"/>
			<ellipse class="st19" cx="22.6" cy="30.4" rx="0.4" ry="0.4"/>
			<path class="st17" d="M23.6,29.2c0.8,0.1,1.6,0.8,1.7,1.5c0.1,0.9,0-1-1.8-1.2c-1-0.2-2,0.3-2.3,1.1C21.4,29,22.8,29,23.6,29.2z"
				/>
			<path class="st12" d="M35.6,53.7"/>
			<g>
				<g>
					<path class="st20" d="M11.4,59.4c0,0-0.2,0.3-0.7,0.7c2.2,0.6,4.8,1.1,7.7,1.2c-0.3-0.5-0.4-0.8-0.4-0.8s0.1,0.3,0.4,0.8
						c1.4,0.1,2.9,0,4.4-0.1c-0.1-0.9-0.2-1.5-0.2-1.5c-7.8,0.1-15.2-2.4-15.2-2.4c0,0.2-0.2,0.7-0.6,1.5c1,0.4,1.9,0.9,3.9,1.4
						C11.2,59.7,11.4,59.4,11.4,59.4z"/>
					<path class="st21" d="M22.7,64.6c-0.2-1.4-0.1-2.6-0.2-3.5c-1.5,0.1-2.6,0.2-4,0.1C19,62.2,19.8,63.6,22.7,64.6z"/>
					<path class="st20" d="M1.4,76.4l10,1.6l0.1-1.5l-9.7-1.7C1.2,76,1.4,76.4,1.4,76.4z"/>
					<path class="st20" d="M12.4,76.4L12.2,78l9.6,1.1c0-0.2,0.3-0.7,0.2-1.8L12.4,76.4z"/>
					<path class="st22" d="M11.4,60.2c-2-0.5-3.6-1.1-4.6-1.5c-0.4,0.8-0.9,2-1.6,3.3C8.6,62,10.5,60.9,11.4,60.2z"/>
				</g>
				<g>
					<path class="st23" d="M10.7,60c-0.9,0.7-2.1,2-5.4,1.9c-1.1,4.6-2.5,9.6-3.5,12.8l9.6,1.6l1.7-6.8l1.5-8.7
						C12.8,60.5,11.8,60.3,10.7,60z"/>
					<path class="st24" d="M22.7,64.6c-2.9-1-3.6-2.4-4.2-3.3c-1.4-0.1-2.9-0.2-3.9-0.4l-1.5,8.7l-0.6,6.9l9.6,0.9
						C22.2,74.2,22.6,69,22.7,64.6z"/>
				</g>
			</g>
			<g>
				<g>
					<g>
						<g>
							<g>
								<path class="st25" d="M22.3,38.5C22.4,38.5,22.4,38.5,22.3,38.5c0.1,0,0.2,0,0.3,0.1l0,0l0,0l0,0l0,0h0.1l0,0l0,0
									c0,0,0.1,0,0.1,0.1l0,0l0,0l0,0h0.1c1.2,0.7,3.3,1.1,4.4,2c0.8,0.8,2.1,5.1,3.2,6.3c0.2,0.2,0.1,0.4,0,0.5
									c-0.6,0.4-1.6,1.1-1.8,1.2c-0.9,0.5-1.3,0.4-2.1,0.7c-0.3,0.1-0.7,0-0.7-0.3c-0.1-0.3-0.2-0.6-0.4-1c-0.1,0-0.3-0.1-0.5-0.1
									l0,0c-0.8,1.9-0.9,2.7-1.2,4.7c-0.1,0.7-0.2,1.5-0.3,2.6c0,0.3-0.1,0.7-0.1,1.2c-0.1,2.2,0.1,5.3-0.2,6.5
									c0,0.2-0.3,0.3-0.5,0.3c-2.7-0.3-5.6-0.8-8.3-1.1c-1.4-0.2-2.9-0.4-4.2-0.7c-1.1-0.3-2.5-0.8-3.6-1
									c-0.3-0.1-0.5-0.3-0.4-0.5c0.2-1.2,0.9-2.3,1.3-3.4c0.1-0.3,0.2-0.5,0.2-0.8c0.1-0.3,0.2-0.6,0.2-0.9
									C8,54.7,8,54.5,8.1,54.2c0.1-0.5,0.2-0.9,0.2-1.4s0.2-1,0.3-1.6c0-0.6,0.2-1.2,0.4-1.7c0.3-0.8,0.4-1.6,0.5-2.5l0,0
									c0-0.3,0.2-0.6,0.2-0.9c0-0.1,0-0.3,0-0.4c-0.1,0-0.2,0-0.4,0c-0.3,0-0.8,0.5-0.9,0.4c-0.2-0.1-2.2-1.3-2.6-1.7l-1-1
									c-0.1-0.1-0.2-0.3,0-0.5c0.6-0.8,2.6-2.9,2.8-3.2c0.4-0.5,0.7-0.8,1.3-1.3c0.1-0.2,0.7-0.4,1-0.6c0.3-0.1,1.2-0.2,1.5-0.2
									c0.7-0.1,1.6-0.1,2.3-0.3l0,0l0,0c0,0,0,0,0.1,0s0.5-0.1,0.6-0.1c0.2,0.3,0.2,3.7,3.1,4.2C21.6,42.1,22.1,38.5,22.3,38.5z"
									/>
								<path class="st25" d="M17.7,41.4"/>
							</g>
							<g>
								<g>
									<path class="st26" d="M21.8,39.2"/>
									<path class="st26" d="M22.3,38.5c0.4,0.2,0.6,0.2,0.6,0.2l0,0l0,0l0,0c0,0,0,0,0.1,0c1.4,0.4,3,1.1,4.1,1.8
										s1.5,2.6,1.9,3.8c-0.2,0.1-0.4,0.2-0.7,0.4c-0.6-1.1-0.9-2.6-1.8-3.4c-1-0.9-1.9-1.2-3.6-1.9h-0.1l0,0l0,0
										c-0.2-0.2-0.5-0.3-0.9-0.4C22,38.9,22.2,38.7,22.3,38.5z"/>
									<path class="st26" d="M22.2,38.5"/>
								</g>
							</g>
							<g>
								<g>
									<path class="st26" d="M14.7,38.1"/>
									<path class="st26" d="M14.5,37.2c-0.5,0-0.6,0-0.6,0l0,0l0,0l0,0h-0.1c-2.5,0-2.6,0.1-3.9,0.4C8.6,38,7.2,40.1,6.4,41
										c0.2,0.2,0.3,0.3,0.6,0.6c0.9-0.8,2.2-2.5,3.3-2.9c1.3-0.5,1.9-0.5,3.3-0.6h0.1l0,0l0,0c0.3,0,0.5-0.1,0.9-0.1
										C14.5,37.7,14.5,37.5,14.5,37.2z"/>
									<path class="st26" d="M14.6,37.3"/>
								</g>
							</g>
							<g>
								<path class="st26" d="M9.7,45.9L9.7,45.9c0.4-0.7,0.6-1.5,0.7-2.2c0.1-0.3,0.1-0.5,0.2-0.8c0.1-0.3,0.2-0.6,0.2-0.9
									c0.1-0.4,0.3-0.9,0.4-1.3c0.1-0.8,0-1.6-0.2-2.3h0.1c0.3,0.7,0.3,1.5,0.2,2.3c-0.1,0.5-0.2,0.9-0.4,1.4
									c-0.1,0.3-0.2,0.6-0.2,0.8c-0.1,0.3-0.1,0.5-0.2,0.8C10.4,44.5,10.2,45.3,9.7,45.9z"/>
							</g>
							<g>
								<path class="st26" d="M24.9,48c-0.3-0.1-0.5-1.2-0.5-1.8c-0.3-2.3,0-3.8,0.6-6h0.1c-0.6,2.2-0.8,3.6-0.6,6
									C24.6,47.2,24.8,47.9,24.9,48L24.9,48z"/>
							</g>
							<g>
								<g>
									<path class="st27" d="M22.9,38.7L22.9,38.7L22.9,38.7c-0.4,1.1-0.8,1.6-1.8,2.5s-2.1,1-3.4,0.9c-0.5,0-1-0.2-1.4-0.4
										s-1.3-0.8-1.5-1.2c-0.8-1.1-1-1.6-1-3.1v-0.1h0.1c0.2-0.1,0.4-0.1,0.6-0.1l0,0l0,0c0.1,1.1,0.5,2.2,1.1,3
										c0.2,0.3,0.8,0.7,1.1,0.9c0.3,0.2,0.7,0.3,1,0.3c0.9,0.1,1.9-0.1,2.7-0.6c0.8-0.5,1.3-1.4,1.7-2.2l0.1-0.1"/>
								</g>
								<g>
									<g>
										<path class="st26" d="M22.9,38.7L22.9,38.7L22.9,38.7L22.9,38.7c-0.2,0.3-0.2,0.5-0.3,0.7l0,0c-0.3,0.7-0.8,1.2-1.5,1.8
											c-1.1,0.9-2.3,1-3.4,0.8c-0.5-0.1-1-0.2-1.4-0.4s-1.3-0.8-1.5-1.2c-0.6-0.9-0.9-1.4-1-2.4c0-0.2,0-0.4-0.1-0.7v-0.1l0,0
											l0,0l0,0l0,0c0,0.3,0,0.5,0.1,0.7c0.1,1,0.4,1.5,1,2.4c0.3,0.4,1.2,1,1.5,1.2s0.7,0.3,1.1,0.4c0.1,0,0.2,0,0.3,0
											c1,0.1,2.3,0.1,3.4-0.9c0.8-0.7,1.2-1.2,1.5-1.8C22.7,39,22.8,38.8,22.9,38.7L22.9,38.7L22.9,38.7z M22.3,38.5
											C22.2,38.5,22.2,38.5,22.3,38.5L22.3,38.5c-0.2,0.3-0.3,0.6-0.5,0.8c-0.3,0.6-0.7,1.1-1.3,1.5c-0.8,0.5-1.8,0.7-2.7,0.6
											h-0.1c-0.1,0-0.1,0-0.2,0l0,0l0,0c-0.3-0.1-0.5-0.1-0.7-0.3c-0.3-0.2-0.9-0.6-1.1-0.9c-0.5-0.6-0.8-1.3-1-2.1l0,0
											c-0.1-0.3-0.1-0.6-0.1-0.9l0,0l0,0l0,0l0,0c0,0.3,0.1,0.6,0.1,0.8c0.2,0.8,0.5,1.6,1,2.2c0.2,0.3,0.8,0.7,1.1,0.9
											c0.3,0.2,0.6,0.3,1,0.3c0.9,0.1,1.9-0.1,2.7-0.6c0.6-0.4,1-0.9,1.4-1.6C22,39,22.1,38.7,22.3,38.5L22.3,38.5L22.3,38.5z"
											/>
									</g>
								</g>
							</g>
							<path class="st28" d="M25.6,48c-0.2,0-0.4-0.1-0.6,0c-0.1-0.1-0.1-0.2-0.2-0.3c-0.2-0.3-0.3-0.6-0.4-1s0-0.9,0-1.3
								c0-0.4-0.1-0.8-0.1-1.3c0.1,0.3,0.3,0.9,0.4,1.8c0.1,0.4,0,0.8,0.4,1.2c0.1,0.1,0.2,0.3,0.2,0.5C25.4,47.7,25.6,47.9,25.6,48
								z"/>
							<path class="st28" d="M10.4,44.5c-0.1,0.6-0.4,1.1-0.7,1.6c0-0.1,0-0.3,0-0.4c-0.1,0-0.2,0-0.4,0c0.1-0.3,0.3-0.5,0.4-0.8
								c0.1-0.2,0.2-0.5,0.3-0.7c0.2-0.6,0.4-1.3,0.6-1.9c0.1,0.1,0.1,0.2,0.1,0.4c0,0.1-0.1,0.3-0.1,0.4
								C10.5,43.5,10.5,44,10.4,44.5z"/>
						</g>
						<path class="st29" d="M14.2,59.7c-0.5,0.1-1,0.1-1.5,0c-1.5-0.4-2.6-1.6-3.9-2.4c-0.2-0.1-0.3-0.2-0.5-0.3
							c-0.1-0.1-0.2-0.2-0.3-0.2c-0.1,0-0.4-0.1-0.7-0.1c0.1-0.3,0.2-0.5,0.2-0.8c0.5-0.1,1,0.1,1.3,0.5c0.3,0.3,0.4,0.6,0.7,0.8
							c1,1.1,2.5,1.2,3.9,1.8C13.7,59.1,14.1,59.3,14.2,59.7z"/>
						<path class="st30" d="M23.4,56.5L23.4,56.5c-0.1,0.1-0.3,0-0.4,0.1c-0.1,0-0.1,0.1-0.1,0.2c-0.6,1.1-1.3,2.1-2.3,2.9
							c0.1-0.9,0.8-1.6,1.3-2.4c0.1-0.2,0.2-0.4,0.2-0.5c-0.1-0.3-0.5-0.4-0.8-0.4c0-0.2,0.3-0.4,0.5-0.5c0.4-0.2,0.7-0.5,1-0.7
							c0.1-0.1,0.3-0.2,0.3-0.4c0.2-0.3,0.1-0.8,0-1.2c-0.1-0.9-0.2-1.9,0-2.8c0.2,0,0.3,0.4,0.3,0.6c0,0.5,0.1,0.9,0.3,1.3
							c0,0.1,0.1,0.2,0.1,0.2c-0.1,0.7-0.2,1.5-0.3,2.6C23.4,55.6,23.4,56,23.4,56.5z"/>
						<path class="st29" d="M9.3,51.2c-0.2,0.4-0.3,0.9-0.2,1.3c0,0.3,0.2,0.7,0,1c-0.1,0.1-0.2,0.2-0.3,0.3c-0.3,0.3-0.7,0.7-1,1
							c0.1-0.2,0.1-0.4,0.2-0.7c0.1-0.5,0.2-0.9,0.2-1.4s0.2-1,0.3-1.6C8.6,50.6,8.8,50,9,49.5c0.3-0.8,0.4-1.6,0.5-2.5l0,0
							c0.2,0.6,0.2,1.3,0,1.9c-0.1,0.2-0.2,0.5-0.1,0.7c0,0.2,0.1,0.4,0.2,0.6c0.1,0.3,0.1,0.8,0,1.1C9.5,51.3,9.4,51.3,9.3,51.2z"
							/>
					</g>
				</g>
			</g>
		</g>
		<g class="st8">
			<g>
				<path id="neck_3_" class="st9" d="M35.3,37.4c0-0.3,6.5-0.8,6.5-0.8s-0.3,1.6-0.2,2.1c0.1,0.9,0.7,1.8,0.7,1.9
					c0,0-0.7,1.4-3,1.7c-2.2,0.3-3.2-0.9-3.2-1c0-0.2-0.1-0.9-0.1-1.7C35.9,38.9,35.5,37.8,35.3,37.4z"/>
				<path class="st10" d="M36.1,39.4c1.6,0.8,3.2,0.5,4.4-0.2c0.4-0.2,0.8-0.6,0.9-0.9c0.1-0.2,0.1-0.3,0-0.5c0-0.1,0-0.3,0-0.4
					v-0.1c-0.1,0-0.2,0-0.3,0c-1.6,0.3-3.1,0.6-4.8,0.6c-0.3,0-0.4-0.1-0.7,0c-0.3,0-0.2,0-0.1,0.3C35.9,38.4,36.1,38.9,36.1,39.4z"
					/>
				<path class="st10" d="M22,67.1c0.1,0.2,0.2,0.4,0.5,0.7c0.1,0.1,0.2,0.3,0.4,0.4c0.1,0,0.1,0.1,0.2,0.1c0,0,0.1,0.1,0.1,0.2
					s0,0.2,0,0.3c0,0.1-0.2,0.2-0.3,0.2s-0.2,0-0.2-0.1c-0.4-0.2-0.7-0.5-0.9-0.8c-0.1-0.2-0.3-0.5-0.4-0.8c0-0.2-0.1-0.4-0.2-0.6
					c-0.1,0.6,0.4,1.2,0.6,1.8c0,0.1,0,0.2,0.1,0.3c0.1,0.1,0.2,0.2,0.3,0.4c0.1,0.1,0.2,0.3,0.3,0.4c0,0.1,0.1,0.1,0.1,0.2
					s-0.1,0.2-0.2,0.3c-0.1,0.1-0.2,0.3-0.4,0.3c-0.1,0-0.2-0.1-0.2-0.2c-0.1-0.1-0.2-0.3-0.3-0.4c-0.1-0.1-0.2-0.2-0.2-0.3
					c-0.4-0.6-0.7-1.2-0.8-1.8c0-0.2-0.1-0.5,0.1-0.7c0.1-0.1,0.1-0.2,0.2-0.3c0-0.1,0-0.2,0-0.2c0-0.2,0.2-0.3,0.3-0.5
					c0.2-0.1,0.4-0.2,0.5-0.4c0.2,0,0.3,0,0.3,0.1s0,0.3,0,0.4C21.7,66.5,21.8,66.8,22,67.1z"/>
				<path class="st9" d="M20.8,67.7c0,0.2,0.1,0.4,0.2,0.6s0.2,0.4,0.3,0.6c0.1,0.3,0.3,0.6,0.4,0.9c0,0.1,0,0.3,0,0.4
					c0,0.2-0.1,0.3,0,0.5l-0.1,0.1c-0.1,0.1-0.3,0-0.4-0.1S21,70.4,21,70.3c-0.3-0.6-0.6-1.2-0.8-1.9c-0.3-1-0.5-2.1-0.5-3.1
					c0-0.3,0-0.5,0.1-0.8c0-0.4,0.1-0.8,0.2-1.3c0,0,0-0.1,0.1-0.1c0,0,0.1,0,0.1,0.1c0-0.1,0.2-0.2,0.3-0.3c0.2,0,0.3,0,0.5-0.1
					c0.2,0,0.5,0.1,0.7,0.1s0.3,0.3,0.3,0.5c0,0.1-0.1,0.2,0,0.3c0,0,0,0.1,0.1,0.1c0.1,0.1,0.2,0.3,0.2,0.5s-0.1,0.3,0,0.5
					s0.1,0.3,0.1,0.4c0.2,0.5,0.5,0.9,0.6,1.4c0,0.1,0.1,0.2,0,0.3C22.9,67,22.8,67,22.7,67c-0.2,0-0.3,0-0.5,0.1
					c-0.1,0-0.1,0-0.2,0s-0.1-0.1-0.1-0.2c-0.1-0.3-0.3-0.6-0.4-0.9c0,0.4-0.1,0.7-0.2,1.2c0,0.1,0,0.1,0,0.2s0,0.1,0,0.2
					c0.1,0.5,0,1.1,0.1,1.6c0,0.4,0.2,0.7,0.1,1c-0.1,0.2-0.2,0.3-0.3,0.3c-0.2,0-0.3-0.2-0.3-0.4c0-0.2-0.1-0.4-0.2-0.7
					c0-0.2-0.1-0.3-0.1-0.5s0-0.3-0.1-0.5c0-0.3-0.1-0.6-0.2-1c0.2-0.2,0.3-0.6,0.5-0.9l0,0c0-0.1,0-0.2,0.1-0.2
					c0.2,0.3,0.3,0.7,0.1,0.9c0,0.1-0.1,0.2-0.1,0.2C20.8,67.6,20.9,67.7,20.8,67.7z"/>
				<path class="st11" d="M22.7,66.4L22.7,66.4c0,0.1,0.1,0.3,0.1,0.4s0.1,0.3-0.1,0.2h-0.4c-0.1,0-0.2-0.1-0.3-0.2
					c0-0.1,0-0.2,0-0.3s0-0.1,0-0.2s0.1-0.1,0.1,0C22.3,66.4,22.5,66.4,22.7,66.4z"/>
				<path class="st11" d="M21,69.7c0,0.1,0.1,0.6,0.1,0.7c0,0,0,0.1-0.1,0.1c0,0,0,0-0.1,0c0,0-0.1-0.1-0.1-0.2s-0.1-0.6,0-0.7
					C21,69.7,21,69.7,21,69.7z"/>
				<path class="st10" d="M21.7,65.9c0-0.1,0-0.1-0.1-0.2s-0.2-0.1-0.3,0c-0.1,0.1-0.2,0.2-0.2,0.3c-0.1,0.3,0,0.6-0.1,1
					c-0.1,0.3-0.2,0.7-0.1,1c0,0.1,0,0.2,0.1,0.3c0,0.1,0,0.3,0,0.4c0,0.4,0.1,0.8,0.1,1.2c0,0.1,0,0.2,0,0.4c0,0.1,0,0.1,0,0.2
					c0.2-0.3,0.1-0.6,0.1-1c0-0.3-0.1-0.6-0.1-0.8S21,68.2,21,68s0-0.4,0-0.6c0-0.4,0.1-0.7,0.2-1.2c0.1,0.2,0.1,0.5,0.3,0.7
					c0.1,0.2,0.5,0.4,0.4,0.3c0-0.1-0.1-0.4-0.1-0.5C21.9,66.3,21.9,66.1,21.7,65.9z"/>
				<path class="st10" d="M21.5,69.3c0,0.3,0.2,0.7,0,1c0,0,0,0.1-0.1,0.1c0,0,0,0-0.1,0.1v0.1c0,0.1,0,0.2,0,0.2l0,0h0.1
					c0.1,0,0.1,0,0.1-0.1l0.1-0.1l0.1-0.2c0.1-0.2,0-0.4-0.1-0.7c0-0.1,0-0.2,0-0.2C21.5,69.4,21.5,69.3,21.5,69.3L21.5,69.3"/>
				<path class="st10" d="M61,62.7c-0.1,0.2-0.1,0.4-0.3,0.8c-0.1,0.1-0.2,0.3-0.3,0.5c-0.1,0-0.1,0.1-0.2,0.1c0,0-0.1,0.1-0.1,0.2
					s0,0.2,0,0.3c0,0.1,0.2,0.2,0.3,0.2s0.2,0,0.2-0.1c0.4-0.2,0.6-0.7,0.7-1c0.1-0.2,0.2-0.5,0.2-0.8c0-0.2,0-0.4,0-0.6
					c0.3,0.6-0.1,1.3-0.2,1.9c0,0.1,0,0.2-0.1,0.3c-0.1,0.1-0.2,0.2-0.2,0.4c-0.1,0.1-0.2,0.3-0.2,0.4s-0.1,0.1-0.1,0.2
					s0.1,0.2,0.2,0.3c0.1,0.1,0.3,0.3,0.5,0.2c0.1,0,0.2-0.1,0.2-0.2c0.1-0.1,0.2-0.3,0.2-0.4c0.1-0.1,0.2-0.2,0.2-0.3
					c0.3-0.7,0.4-1.3,0.4-1.9c0-0.2-0.1-0.5-0.3-0.7C62,62.2,62,62.1,61.9,62c0-0.1,0-0.2,0-0.2c0-0.2-0.2-0.3-0.4-0.4
					c-0.2-0.1-0.4-0.2-0.6-0.2c-0.2,0-0.3,0-0.3,0.1s0,0.3,0.1,0.4C61.1,62.1,61,62.4,61,62.7z"/>
				<path class="st9" d="M62.2,62.9c0,0.2,0,0.4,0,0.6c-0.1,0.2-0.1,0.4-0.2,0.6c-0.1,0.3-0.1,0.6-0.2,1c0,0.1,0,0.3,0,0.4
					c0,0.2,0.1,0.3,0.1,0.5l0.1,0.1c0.1,0.1,0.3,0,0.4-0.1c0.1-0.1,0.2-0.3,0.1-0.4c0.1-0.6,0.3-1.3,0.3-2c0.1-1,0-2.2-0.2-3.2
					c0-0.3-0.1-0.5-0.3-0.8c-0.1-0.4-0.3-0.8-0.5-1.2c0,0,0-0.1-0.1-0.1c0,0-0.1,0-0.1,0.1c0-0.1-0.2-0.2-0.4-0.3
					c-0.2,0-0.3,0-0.5,0.1c-0.2,0-0.5,0.2-0.6,0.3c-0.2,0.1-0.2,0.3-0.2,0.5c0,0.1,0.1,0.2,0,0.3c0,0,0,0.1-0.1,0.1
					c-0.1,0.1-0.2,0.3-0.1,0.5c0,0.2,0.1,0.3,0.1,0.5s-0.1,0.3,0,0.4c-0.1,0.5-0.3,1-0.3,1.5c0,0.1-0.1,0.2,0,0.3s0.2,0.1,0.3,0.1
					c0.2,0,0.3,0,0.5-0.1c0.1,0,0.1,0,0.2,0s0.1-0.1,0.1-0.2c0.1-0.3,0.1-0.6,0.2-1c0.1,0.4,0.3,0.7,0.4,1.1c0,0.1,0,0.1,0,0.2
					c0,0.1,0,0.1,0,0.2c0.1,0.5,0.2,1.1,0.3,1.6c0,0.4,0,0.7,0.1,1c0.1,0.2,0.2,0.3,0.4,0.3s0.3-0.2,0.2-0.4c0-0.2,0-0.4,0-0.7
					c0-0.2,0.1-0.3,0-0.5c0-0.2,0-0.3-0.1-0.5c0-0.3-0.1-0.6,0-1c-0.2-0.2-0.4-0.5-0.6-0.8l0,0c0-0.1,0-0.2-0.1-0.2
					c-0.2,0.3-0.1,0.7,0.1,0.9c0,0.1,0.1,0.2,0.1,0.2C62.1,62.8,62.1,62.9,62.2,62.9z"/>
				<path class="st11" d="M60.1,62.2L60.1,62.2c0,0.1-0.1,0.3,0,0.4c0,0.1-0.1,0.3,0.1,0.2h0.4c0.1,0,0.2-0.1,0.3-0.2
					c0-0.1,0-0.2,0-0.3s0-0.1,0-0.2s-0.1-0.1-0.1,0C60.4,62.2,60.3,62.2,60.1,62.2z"/>
				<path class="st11" d="M62.4,65c0,0.1,0.1,0.6,0.1,0.7c0,0,0,0.1,0.1,0.1c0,0,0,0,0.1,0c0,0,0.1-0.1,0.1-0.2s-0.1-0.6-0.2-0.7
					C62.4,65,62.4,65,62.4,65z"/>
				<path class="st10" d="M60.9,61.5c0-0.1,0-0.1,0.1-0.2c0.1-0.1,0.2-0.1,0.3,0s0.2,0.2,0.2,0.3c0.1,0.3,0.2,0.6,0.3,1
					c0.1,0.3,0.4,0.7,0.3,1c0,0.1,0,0.2-0.1,0.3c0,0.1,0,0.3,0,0.4c0,0.4,0.1,0.8,0.1,1.2c0,0.1,0,0.2,0,0.4c0,0.1,0,0.1,0,0.2
					c-0.3-0.3-0.3-0.6-0.3-1c0-0.3-0.1-0.6-0.1-0.8c0-0.2-0.1-0.5-0.1-0.7s0-0.4-0.2-0.6c-0.1-0.4-0.3-0.7-0.4-1.1
					c-0.1,0.2,0,0.5-0.1,0.7s-0.4,0.5-0.3,0.3c0-0.1,0-0.4,0-0.5C60.9,61.9,60.8,61.7,60.9,61.5z"/>
				<path class="st10" d="M61.9,64.8c0,0.3,0,0.7,0.2,1c0,0,0,0.1,0.1,0.1c0,0,0,0,0.1,0.1v0.1c0,0.1,0,0.2,0,0.2l0,0h-0.1
					c-0.1,0-0.1,0-0.1-0.1L62,66.1l0-0.2c-0.1-0.2,0-0.4-0.1-0.7c0-0.1,0-0.2,0-0.2C62,64.9,61.9,64.8,61.9,64.8L61.9,64.8"/>
				<path class="st9" d="M39.1,41.3c-0.5,0.1-1.1,0.1-2-0.2c-0.4-0.2-0.8-0.5-1-0.8c-0.1-0.1-1.7,0.4-2.9,0.7
					c-0.6,0.2-1.2,0.5-1.5,0.7c-0.3,0.1-0.7,0.5-0.9,0.9c-0.2,0.5-0.5,1-0.7,1.5c-0.1,0.5-0.4,1.1-0.6,1.6c-0.4,1.1-1.3,3.7-1.8,4.6
					c-0.4,0.8-0.8,1.6-1.3,2.3c-0.6,0.8-1.3,1.5-1.8,2.2c-0.4,0.5-1.1,1.6-1.4,2c-0.4,0.7-1.5,2.6-1.6,3.2c-0.2,0.4-1.2,2.3-1.3,2.7
					c-0.2,0.5,0,0.5,0.6,0.7c0.5,0.1,0.7-0.1,1.1,0.3c0.2-0.1,0.4-0.6,0.6-0.8c0.3-0.3,1.1-1.5,1.4-1.8s2.9-3.3,3.3-3.7
					c0.3-0.5,1.1-1.5,1.2-1.9c0.2-0.4,0.3-0.8,0.4-1.1c0.1-0.4,0.3-0.9,0.4-1.3c0.4-0.8,0.6-1.2,0.9-1.9c-0.1,0,0.8-1.6,1.1-2.5
					c0.5-1,1.6-3.5,1.7-2.5c0,0.3,1.7,8,1.9,10.3s-0.4,4.2-0.4,4.6c-0.1,0.6-0.4,2.8-0.5,3.4c-0.1,0.9-0.2,3.8-0.1,4.7
					c0.1,1.5,0.3,2.7,0.4,4.2c0.1,1.3,0.3,2.6,0.6,3.9c0.4,1.5,0.8,2.9,0.9,3.5c0.1,0.7,0.6,1.8,0.4,2.4c-0.4,1.6-0.1,3,0,4.7
					c0.3,1.7,0.9,2.9,1.3,4.5c0.1,0.3,1.1,3,0.6,4.1c-0.2,0.5-0.6,1-1,1.4c-0.1,0.1-0.2,0.3-0.2,0.4s0,0.4,0.2,0.5
					c0.1,0,0.1,0,0.2,0c0.8,0,1,0,1.8-0.3c0.1,0,0.3-0.1,0.4,0c0.1,0,0.2,0.1,0.3,0.1c0.6,0.2,1.5-0.1,1.7-0.6
					c0.3-0.8-0.6-1.5-0.4-2.3c0.1-0.1,0-0.3,0-0.5c0.1-0.3,0-0.5-0.1-0.8s-0.4-2.3-0.3-3c0-0.9-0.2-1.6,0-2.5
					c0.1-0.5,0.2-1.1,0.2-1.6c0.1-1-0.2-2.2-0.3-3.1c-0.2-1-0.3-1.8-0.3-2.2c-0.1-1.2,0.4-3,0.5-3.9C41,76.4,41,70,41,69.7
					c0-0.4,0-0.7,0.2-1.2c0.2-0.3,0.4-0.6,0.8-0.6"/>
				<path class="st9" d="M39.1,41.3c-0.5,0.1-1.1,0.1-2-0.2c-0.4-0.2-0.8-0.5-1-0.8c-0.1-0.1-1.7,0.4-2.9,0.7
					c-0.6,0.2-1.2,0.5-1.5,0.7c-0.3,0.1-0.7,0.5-0.9,0.9c-0.2,0.5-0.5,1-0.7,1.5c-0.1,0.5-0.4,1.1-0.6,1.6c-0.4,1.1-1.3,3.7-1.8,4.6
					c-0.4,0.8-0.8,1.6-1.3,2.3c-0.6,0.8-1.3,1.5-1.8,2.2c-0.4,0.5-1.1,1.6-1.4,2c-0.4,0.7-1.5,2.6-1.6,3.2c-0.2,0.4-1.2,2.3-1.3,2.7
					c-0.2,0.5,0,0.5,0.6,0.7c0.5,0.1,0.7-0.1,1.1,0.3c0.2-0.1,0.4-0.6,0.6-0.8c0.3-0.3,1.1-1.5,1.4-1.8s2.9-3.3,3.3-3.7
					c0.3-0.5,1.1-1.5,1.2-1.9c0.2-0.4,0.3-0.8,0.4-1.1c0.1-0.4,0.3-0.9,0.4-1.3c0.4-0.8,0.6-1.2,0.9-1.9c-0.1,0,0.8-1.6,1.1-2.5
					c0.5-1,1.6-3.5,1.7-2.5c0,0.3,1.7,8,1.9,10.3s-0.4,4.2-0.4,4.6c-0.1,0.6-0.4,2.8-0.5,3.4c-0.1,0.9-0.2,3.8-0.1,4.7
					c0.1,1.5,0.3,2.7,0.4,4.2c0.1,1.3,0.3,2.6,0.6,3.9c0.4,1.5,0.8,2.9,0.9,3.5c0.1,0.7,0.6,1.8,0.4,2.4c-0.4,1.6-0.1,3,0,4.7
					c0.3,1.7,0.9,2.9,1.3,4.5c0.1,0.3,1.1,3,0.6,4.1c-0.2,0.5-0.6,1-1,1.4c-0.1,0.1-0.2,0.3-0.2,0.4s0,0.4,0.2,0.5
					c0.1,0,0.1,0,0.2,0c0.8,0,1,0,1.8-0.3c0.1,0,0.3-0.1,0.4,0c0.1,0,0.2,0.1,0.3,0.1c0.6,0.2,1.5-0.1,1.7-0.6
					c0.3-0.8-0.6-1.5-0.4-2.3c0.1-0.1,0-0.3,0-0.5c0.1-0.3,0-0.5-0.1-0.8s-0.4-2.3-0.3-3c0-0.9-0.2-1.6,0-2.5
					c0.1-0.5,0.2-1.1,0.2-1.6c0.1-1-0.2-2.2-0.3-3.1c-0.2-1-0.3-1.8-0.3-2.2c-0.1-1.2,0.4-3,0.5-3.9C41,76.4,41,70,41,69.7
					c0-0.4,0-0.7,0.2-1.2c0.2-0.3,0.4-0.6,0.8-0.6"/>
				<path class="st9" d="M38.8,41.3c0.5-0.1,1.1-0.1,1.9-0.6c0.4-0.2,0.7-0.7,0.8-1c0.1-0.1,1.8,0,3,0.1c0.7,0,1.3,0.3,1.6,0.3
					c0.3,0.1,0.8,0.3,1.1,0.7c0.3,0.5,0.7,0.9,1,1.3c0.2,0.5,0.6,1,0.9,1.5c0.6,1,2.1,3.3,2.7,4.1c0.5,0.7,1.1,1.4,1.7,2
					c0.7,0.6,1.5,1.2,2.3,1.7c0.5,0.4,1.4,1.3,1.8,1.7c0.5,0.6,2,2.3,2.3,2.7s1.6,2,1.9,2.4c0.3,0.5,0.1,0.5-0.5,0.8
					c-0.5,0.2-0.7,0.1-1,0.5c-0.2-0.1-0.5-0.5-0.7-0.6c-0.4-0.3-1.4-1.2-1.8-1.5c-0.4-0.3-3.6-2.6-4-2.9c-0.4-0.4-1.4-1.2-1.6-1.6
					c-0.3-0.4-0.5-0.7-0.7-1c-0.2-0.4-0.5-0.8-0.7-1.2c-0.7-0.6-1-0.9-1.5-1.6c0.1,0-1.1-1.4-1.7-2.2c-0.7-0.9-2.3-3.1-2.2-2
					c0,0.3,0.1,8.2,0.4,10.5c0.4,2.3,1.3,4,1.4,4.4c0.3,0.6,1.1,2.7,1.2,3.2c0.3,0.9,1.1,3.6,1.2,4.5c0.3,1.5,0.3,2.7,0.6,4.2
					c0.2,1.3,0.3,2.6,0.2,3.9c0,1.6-0.1,3-0.1,3.6c0.1,0.7-0.2,1.9,0.2,2.5c0.7,1.5,0.8,2.9,1,4.5c0.1,1.7-0.2,3-0.3,4.7
					c-0.1,0.3-0.4,3.1,0.3,4.1c0.3,0.5,0.8,0.8,1.3,1.1c0.1,0.1,0.3,0.3,0.3,0.4s0,0.4-0.1,0.5c-0.1,0-0.1,0-0.2,0
					c-0.8,0.2-1,0.2-1.8,0.1c-0.1,0-0.3-0.1-0.4,0c-0.1,0-0.2,0.1-0.3,0.1c-0.5,0.4-1.5,0.3-1.8-0.2c-0.5-0.7,0.3-1.6-0.2-2.4
					c-0.1-0.1,0-0.3-0.1-0.5c-0.1-0.3-0.1-0.5-0.1-0.8c0.1-0.3-0.2-2.4-0.3-3c-0.2-0.9-0.2-1.6-0.6-2.4c-0.2-0.5-0.4-1-0.5-1.5
					c-0.3-1-0.2-2.2-0.3-3.1c0-1-0.1-1.9-0.2-2.3c-0.1-1.2-1.1-2.9-1.4-3.7c-0.6-1.7-2-8-2-8.3c-0.1-0.4-0.2-0.7-0.5-1.1
					c-0.2-0.3-0.5-0.5-0.9-0.4"/>
				<path class="st12" d="M33.9,63.5c0-0.7,0.3-2.1,0.4-2.5c0.1-0.2,12.5-1.7,13.7-1.5c0.2,0,0.6,1.4,0.9,2.3
					c0.3,0.8-5.3,6.1-5.9,6.7c-0.4,0.2-0.8,0.4-1.2,0.3c-0.3,0-0.5-0.1-0.7-0.2C39.8,67.6,33.8,63.7,33.9,63.5z"/>
				<ellipse class="st13" cx="36.5" cy="47.2" rx="0.2" ry="0.2"/>
				<ellipse class="st13" cx="44.1" cy="46.3" rx="0.2" ry="0.2"/>
				<path class="st14" d="M46.1,29.6c0.2,0.1,0.3,0.2,0.4,0.3c0.2,0.2,0.2,0.4,0.3,0.6c0.3,0.8,0.2,1.7-0.3,2.5
					c-0.2,0.4-0.6,0.8-1.1,0.8c-0.2,0-0.4,0-0.6-0.1s-0.2-0.4-0.2-0.6c-0.1-0.7-0.1-1.3-0.1-2.1C44.6,30.2,45.1,29.2,46.1,29.6z"/>
				<path class="st14" d="M29.8,31.4c-0.2,0.1-0.3,0.2-0.3,0.3c-0.2,0.2-0.1,0.4-0.2,0.6c-0.1,0.8,0.2,1.7,0.8,2.4
					c0.3,0.4,0.7,0.6,1.3,0.6c0.2,0,0.4,0,0.5-0.3s0.1-0.4,0-0.6c-0.1-0.7-0.2-1.3-0.3-2C31.3,31.6,30.6,30.8,29.8,31.4z"/>
				<path id="Boy_x5F_Face_1_" class="st9" d="M31.1,26.6c-0.6,1-0.5,3.3-0.3,4.4c0.3,1.4,0.7,4,1,4.4c0.9,2.4,4.6,3.6,4.9,3.7
					c1.5,0.5,2.8,0.2,4.1-0.6c0.5-0.4,3.1-1.7,4-5c0.3-1.2,0.3-2.5,0.1-3.7c-0.1-0.5-0.3-2.7-0.8-4.2c-0.5-1.4-2.5-2.1-3.1-2.1
					c-1.9-0.3-3.9,0.1-5.8,0.4C33,24.3,31.8,25.5,31.1,26.6z"/>
				<path id="nose_1_" class="st10" d="M37.3,34.3c0.1-0.1,0.3,0.3,1.1,0.2c0.7-0.1,0.8-0.5,1-0.4c0.1,0,0.2,0.7-0.7,0.9
					C37.5,35.1,37.1,34.5,37.3,34.3z"/>
				<path class="st10" d="M36.6,36.2c0.2-0.1,1.2,0.2,1.9,0.1s1.6-0.4,1.7-0.5c0.2-0.1,0.1,0.6-1.7,0.8
					C36.8,36.7,36.6,36.2,36.6,36.2z"/>
				<path class="st10" d="M38.2,37.2c0.1,0.1,0.2,0.2,0.4,0.1c0.1,0,0.2-0.1,0.3-0.1c0.1-0.1,0.2,0,0.1,0.1c0,0-0.1,0.2-0.4,0.2
					c-0.3,0-0.4-0.1-0.5-0.2C38.1,37.2,38.2,37.2,38.2,37.2z"/>
				<path class="st31" d="M34.5,29.2c-0.5,0.1-0.9,0.2-1.3,0.3c-0.3,0.1-0.4,0.3-0.4,0.3c0-0.1-0.1-0.9,1.5-1.1
					c1.3-0.1,1.7,0.3,1.7,0.5C35.9,29.4,35.2,29.1,34.5,29.2z"/>
				<path class="st31" d="M41,28.5c0.5-0.1,0.9,0,1.3,0.1c0.3,0.1,0.5,0.2,0.5,0.2c0-0.1-0.1-0.9-1.7-0.7c-1.3,0.1-1.6,0.7-1.5,0.9
					C39.8,28.9,40.4,28.6,41,28.5z"/>
				<path class="st15" d="M30.2,30.2c-0.4-1.9,0.1-3,0-3.2c0,0,0-0.1,0-0.2c-0.1-0.1-0.4-0.1-0.5,0.1c-0.1,0.1-0.2,0.2-0.2,0.3
					c-0.2,0.3-0.6,0.5-1,0.4c-0.4-0.1-0.7-0.3-0.8-0.6c0-0.2-0.1-0.5-0.2-0.7c-0.8,0.3-1.8-0.1-2-0.9c-0.2-0.8,0.4-1.6,1.2-1.7
					c-0.3-0.5-0.6-1.1-0.5-1.6c0.1-0.4,0.8-0.8,1.1-0.8c0.4,0,1.1,0.2,1.2,0.6c0.3-0.5,0.7-1.1,1.8-0.6c0.5,0.3,0.9,0.9,0.4,1.4
					c0.4-0.1,0.5-0.2,0.8-0.1c0.3,0.1,0.5,0.2,0.5,0.5c0.2,0.6-0.7,1-0.6,1.4c0.3,0.5,0.6-0.3,1-0.4c1.1-0.8,2.4-1.3,3.9-1.7
					c1.1-0.2,2.9-0.4,4.2-0.1c0.9,0.2,1.7,0.6,1.9,0.7c0.2,0,0.3-0.1,0.3-0.3c0.1-0.3-0.3-0.7-0.3-1c-0.2-0.7,0.5-1.4,1.6-1
					c-0.5-1,0.1-1.6,0.8-1.7c0.7-0.2,1.7,0.1,1.8,1.1c0,0.2-0.2,0.3,0,0.4c0.2,0.2,0.4-0.1,0.5-0.3c0.4-0.1,1.2,0.2,1.4,0.5
					c0.2,0.3,0.6,0.8,0.4,1.4c-0.2,0.6-0.7,0.6-1,0.7l0.4,0.3c0.3,0.6,0.3,1.1-0.1,1.6c-0.4,0.5-1.5,0.6-1.8,0.1
					c-0.1-0.1-0.3,0-0.4,0.1c-0.1,0.1-0.2,0.2-0.2,0.3c-0.2,0.1-0.3-0.3-0.5-0.4c-0.2-0.1-0.5,0.2-0.5,0.3c0.6,0.3,0.5,1.3,0.7,2
					c0.1,0.6,0,1.9,0,2.3c-0.1,0.4-0.2,1.8-0.6,1.7c-0.2-1.1-0.3-2.6-0.8-3.6c-0.3-0.7-0.5-1.4-1.1-1.8c-0.4-0.4-1.1-0.6-1.7-0.7
					c-2.1-0.5-4.4,0-6.5,0.5c-0.8,0.2-1.6,0.4-2.3,0.9c-0.2,0.1-0.3,0.3-0.4,0.4c-0.3,0.3-0.7,0.7-0.9,1c-0.1,0.2-0.4,0.8-0.3,1.7
					c0,0.3,0,0.6-0.1,0.8c0,0.3,0,0.5-0.1,0.8c0.2,1,0.3,1.8,0.2,1.8C31.2,32.7,30.4,31.4,30.2,30.2z"/>
				<path class="st32" d="M29.8,24.5c0.8-1.5,2.3-1,2.3-0.8s0.1,0.4,0.3,0.5c0.2,0-0.8,0.6-1.2,1.3s-0.5,1.2-0.5,1.2
					s-0.3-0.1-0.5-0.2c-0.1,0-0.3-0.1-0.4-0.2C29.6,26,29.3,25.4,29.8,24.5z"/>
				<path class="st32" d="M45.2,22.6c-1.1-1.3-2.4-0.6-2.5-0.3c0,0.2-0.2,0.3-0.4,0.5c-0.2,0,1.1,0.6,1.6,1.2s0.8,1.1,0.8,1.1
					s0.4-0.3,0.6-0.4C45.5,24.4,46.1,23.7,45.2,22.6z"/>
				<g id="girl_eyes">
					<path class="st16" d="M32.9,32.2c-0.1-0.7,0.9-1.3,1.8-1.4c0.7-0.1,1.8,0.3,1.9,1c0.1,0.7-0.5,1.3-1.5,1.4
						C34.1,33.4,33,32.9,32.9,32.2z"/>
					<ellipse transform="matrix(0.5665 -0.824 0.824 0.5665 -11.2178 42.6596)" class="st18" cx="34.9" cy="32" rx="1.1" ry="1"/>
					<ellipse class="st19" cx="34.3" cy="31.9" rx="0.4" ry="0.4"/>
					<path class="st17" d="M34.8,30.4c0.5-0.1,1.7,0.2,1.9,1.1c0.3,0.9-0.3-1-2-0.8c-2.2,0.3-1.7,2.6-1.8,1.8
						C32.6,30.9,33.9,30.5,34.8,30.4z"/>
					<path class="st16" d="M39.6,31.5c-0.1-0.7,0.9-1.3,1.8-1.4c0.7-0.1,1.8,0.3,1.9,1c0.1,0.7-0.5,1.3-1.5,1.4S39.7,32.2,39.6,31.5
						z"/>
					<ellipse transform="matrix(0.5665 -0.824 0.824 0.5665 -7.7047 47.8189)" class="st18" cx="41.6" cy="31.2" rx="1.1" ry="1"/>
					<ellipse class="st19" cx="41" cy="31.2" rx="0.4" ry="0.4"/>
					<path class="st17" d="M41.5,29.6c0.5-0.1,1.7,0.2,1.9,1.1c0.3,0.9-0.3-1-2-0.8c-2.2,0.3-1.7,2.6-1.8,1.8
						C39.3,30.1,40.6,29.7,41.5,29.6z"/>
				</g>
			</g>
			<g>
				<path class="st33" d="M36,61.6c0.5-1.3,1.1-2.6,1.6-4l-1.4,0.2c-4,7.9-8.8,15.5-12.9,23.3c0.8,0.1,1.8,0.1,3.2,0
					c1.5-0.1,2.2,0.3,2.7,0.7c1.3-3.4,2.6-6.8,3.8-10.2C34.1,68.3,34.7,64.9,36,61.6z"/>
				<path class="st33" d="M35.5,74.2c-0.1-1.7,0.3-3.6,0.1-5.3c-0.8,4.4-1,8.9-2.2,13.2c0.6-0.3,1.1-0.7,1.6-0.8
					c0.1-0.7,0.1-1.4,0.2-2.1C35.3,77.5,35.5,75.8,35.5,74.2z"/>
				<path class="st34" d="M35.2,57.9L21.3,80.7c0,0,0.4,0.3,2,0.4c4.1-7.9,8.9-15.5,12.9-23.3L35.2,57.9z"/>
				<path class="st33" d="M38.1,66.5c0-2.1-0.1-4.2,0.5-6.3c-1.2,1.6-1.3,4.4-1.7,6.3c-0.6,2.4-0.7,4.9-1.1,7.4
					c-0.3,2.3-0.2,4.7-0.4,7.1c0,0.1,0,0.3,0,0.4c0.3,0,0.7,0.1,1.2,0.3c0.5,0.2,0.9,0.4,1.4,0.5c-0.2-2.5,0.1-5.2,0-7.6
					C37.8,71.8,38,69.1,38.1,66.5z"/>
				<path class="st34" d="M50.5,66.1c0-0.3-0.2-0.5-0.5-0.5C50.1,65.8,50.3,66,50.5,66.1C50.5,66.2,50.5,66.2,50.5,66.1z"/>
				<path class="st34" d="M45.3,56.8L43.8,57c0.8,1,1.5,2,2.3,3.1C46.2,59,45.9,57.8,45.3,56.8z"/>
				<path class="st34" d="M45.7,57c0.5,1,0.8,2.2,0.6,3.3c1.2,1.7,2.4,3.4,3.6,5.2c0.4,0,0.7,0.1,0.8,0.5c0,0.2,0,0.3-0.1,0.5
					c1,1.3,2,2.7,3,3.9c1.7,2.2,3.8,4.2,5.8,6.1c0.4,0.4,0.8,0.9,1.3,1.3c1.2-0.8,2-1.7,2-1.7L45.7,57z"/>
				<path class="st34" d="M42.9,63.5L42.9,63.5c-0.1-0.3-0.2-0.5-0.4-0.8C42.6,63,42.7,63.3,42.9,63.5z"/>
				<path class="st34" d="M41.4,70.2c0-0.2,0-0.4-0.1-0.6C41.3,69.9,41.4,70.1,41.4,70.2z"/>
				<path class="st33" d="M49,66.7c0.5,0.1,1.2,0.1,1.4-0.4c-0.2-0.2-0.3-0.4-0.4-0.6h-0.1c-0.3,0-0.5,0.1-0.8,0.3
					c-0.2,0.1-0.3,0.3-0.5,0.5c0,0.1,0.1,0.2,0.1,0.2C48.9,66.7,49,66.7,49,66.7z"/>
				<path class="st33" d="M47.1,63.4c0.4,1,0.9,1.9,1.4,2.8c0.3-0.3,0.6-0.6,1.1-0.7c0.1,0,0.1,0,0.2,0c-1.2-1.7-2.4-3.5-3.6-5.2
					c0,0.3-0.1,0.5-0.2,0.8C46.5,61.9,46.8,62.7,47.1,63.4z"/>
				<path class="st33" d="M53.6,70.4c-1-1.3-2-2.6-3-3.9c-0.1,0.2-0.3,0.3-0.5,0.4c-0.4,0.1-0.8,0.1-1.2,0c0.7,1.2,1.3,2.3,1.9,3.4
					c1.5,2.7,2.7,5.7,4.3,8.3c0.2,0.3,0.3,0.5,0.5,0.8c0.2,0,0.4,0,0.5,0c1.7,0.2,3.3-0.6,4.5-1.5c-0.4-0.4-0.8-0.9-1.3-1.3
					C57.4,74.6,55.3,72.6,53.6,70.4z"/>
				<path class="st33" d="M45.7,60.7c0,0.1,0.1,0.1,0.1,0.2c0.1-0.3,0.1-0.5,0.2-0.8l0,0c-0.7-1-1.5-2.1-2.3-3.1h-0.3
					C43.4,58.2,45.2,59.8,45.7,60.7z"/>
				<path class="st34" d="M40.8,62.2c-0.5,0.1-1,0.3-1.3,0.6c-0.2,0.4,0,0.7,0.4,0.9s0.9,0.3,1.3,0.2c0.5,0,1-0.2,1.5-0.4
					c-0.1-0.3-0.3-0.5-0.4-0.8c0.2,0.2,0.3,0.5,0.4,0.8c0.1,0,0.1-0.1,0.2-0.1C42.7,62.7,41.9,62.1,40.8,62.2z"/>
				<path class="st34" d="M42.8,65.5c-0.7,0.1-1.3,0.3-1.8,0.6c-0.4,0.3-1,0.7-0.8,1.2c0.2,0.4,0.9,0.5,1.4,0.3s0.8-0.6,1-1
					s0.5-0.8,0.6-1.2C43.1,65.4,42.9,65.4,42.8,65.5z"/>
				<path class="st34" d="M43.1,63.7c-0.1,0-0.1,0-0.2,0.1c0.1,0.2,0.2,0.4,0.3,0.7C43.3,64.1,43.2,63.9,43.1,63.7z"/>
				<path class="st34" d="M46.5,71.4c0,0.1,0,0.2-0.1,0.3h0.1c0.3,0,0.5,0.1,0.6,0.4c0,0.1,0,0.2-0.1,0.3l0,0
					c0.1-0.1,0.2-0.1,0.3-0.2c0.5-0.3,0.8-0.6,1-1.1s0.3-1,0.3-1.5c-0.1-0.4-0.2-0.8-0.6-1c-0.1,0-0.1-0.1-0.2-0.1
					c0,0.2,0,0.3-0.1,0.5c-0.1,0.4-0.3,0.8-0.7,1c-0.3,0.2-0.8,0.2-1.1-0.1c-0.2-0.3-0.1-0.8,0.2-1.1c0.4-0.4,1-0.6,1.5-0.5
					c0-0.2,0.1-0.3,0.2-0.5c0.1-0.3,0.3-0.7,0.5-1c-0.6-0.2-1.1-0.4-1.7-0.6c-0.6-0.2-1.2-0.5-1.8-0.6c-0.3-0.1-0.7-0.1-1-0.1
					c0.8,1.9,1.6,3.8,2.3,5.7C46.3,71.1,46.4,71.2,46.5,71.4z"/>
				<path class="st34" d="M46.6,68.5c-0.2,0.1-0.4,0.3-0.5,0.6c-0.1,0.2-0.2,0.6,0,0.7c0.5,0.3,1.1-0.2,1.2-0.5
					c0.1-0.2,0.1-0.5,0.2-0.7v-0.1C47.2,68.3,46.9,68.3,46.6,68.5z"/>
				<path class="st34" d="M43.4,65.2L43.4,65.2L43.4,65.2L43.4,65.2z"/>
				<path class="st34" d="M44.1,63.3c-0.3,0.1-0.5,0.2-0.8,0.3c0.1,0.4,0.2,0.8,0.1,1.3c0.1,0.1,0.1,0.2,0.2,0.4
					c0.6,0,1.1,0.1,1.7,0.2c0.6,0.2,1.2,0.5,1.8,0.7c0.4,0.2,0.8,0.3,1.3,0.4c0.1-0.1,0.1-0.2,0.2-0.3c-0.5-0.9-1-1.9-1.4-2.8
					c-0.3-0.7-0.6-1.5-1.1-2.3C45.7,62,45.1,62.8,44.1,63.3z"/>
				<path class="st34" d="M48.7,66.4c0,0.1-0.1,0.1-0.1,0.2c0.1,0,0.2,0,0.3,0.1C48.7,66.6,48.7,66.5,48.7,66.4z"/>
				<path class="st34" d="M50.9,70.2c-0.6-1.1-1.3-2.2-1.9-3.4c-0.2,0-0.3-0.1-0.5-0.1l0,0c-0.1,0.2-0.2,0.3-0.3,0.5
					c-0.1,0.3-0.3,0.6-0.4,0.9c0,0,0,0,0,0.1c0.2,0.1,0.3,0.1,0.4,0.2c0.8,0.6,0.6,1.8,0.3,2.6c-0.2,0.5-0.5,0.8-1,1.1
					c-0.2,0.1-0.5,0.3-0.7,0.4c0,0-0.1,0-0.2,0c0.1,0.1,0.1,0.3,0.2,0.4l0,0c0.4,0,0.7,0.2,0.7,0.5l0,0c0.2,0,0.3,0.2,0.3,0.3
					c0,0.1,0,0.2-0.1,0.3c0.1,0.1,0.2,0.2,0.2,0.3l0,0c0,0.2-0.1,0.4-0.4,0.5c0,0.1,0.1,0.1,0.1,0.2c0.4,0,0.9-0.1,1.3-0.2
					c0.6-0.1,1.3-0.3,1.9-0.1l0,0c0.1-0.1,0.1-0.1,0.2-0.2h-0.1c-0.2,0-0.4-0.2-0.3-0.4c0-0.1,0.1-0.2,0.2-0.2
					c-0.1-0.1-0.1-0.2-0.1-0.3c0-0.2,0.3-0.4,0.5-0.3c0,0,0,0,0.1,0c0-0.1,0.2-0.2,0.3-0.2c0.2,0,0.3,0.2,0.2,0.3l0,0
					c0.1-0.1,0.2-0.1,0.4-0.1s0.4,0.2,0.3,0.4v0.1c0.1,0.1,0.2,0.3,0.2,0.4c-0.1,0.2-0.3,0.4-0.6,0.4c-0.1,0-0.1,0-0.2,0
					c0.1,0.3-0.1,0.4-0.3,0.4c-0.1,0-0.2-0.1-0.3-0.2c-0.1,0.1-0.2,0.2-0.3,0.3l0,0c0.1,0.1,0.2,0.2,0.2,0.4
					c0.1,0.5-0.7,1.2-0.8,1.6c0,0.1,0,0.2,0,0.3h0.1c0.2,0,0.4,0.1,0.4,0.3c0,0,0,0,0,0.1c0.1,0,0.2,0.1,0.2,0.2s-0.1,0.2-0.2,0.2
					l0,0c0.1,0,0.2,0.1,0.2,0.2c0,0.2-0.1,0.3-0.3,0.3l0,0c0.3,0.5-0.8,0.7-0.8,0.4c0-0.1,0.1-0.2,0.2-0.2c-0.1-0.1-0.2-0.2-0.2-0.3
					v-0.1c-0.1,0-0.2-0.1-0.2-0.2s0.1-0.2,0.2-0.3c0,0,0-0.1,0-0.2s0-0.2,0.1-0.2c-0.1-0.1-0.2-0.3-0.2-0.5s0-0.4,0-0.5
					c-0.3,0-0.5,0-0.7,0s-0.5-0.1-0.8-0.1h-0.1c0.5,1.3,1.1,2.7,1.5,4.1c2-0.4,4.2-1.3,5.9-1.3c-0.2-0.3-0.3-0.5-0.5-0.8
					C53.5,75.9,52.4,72.9,50.9,70.2z"/>
				<path class="st34" d="M47,79.6c0,0-0.1,0-0.2,0c-0.3,0-0.7,0.1-0.5-0.2c0-0.1,0.1-0.1,0.2-0.2c-0.1-0.1-0.1-0.1-0.1-0.2v-0.1
					c-0.1,0-0.2-0.1-0.2-0.2s0.1-0.2,0.2-0.3c-0.1,0-0.1-0.1-0.1-0.2c0-0.2,0.1-0.3,0.3-0.3l0,0c-0.1-0.3-0.1-0.5-0.2-0.8
					c-0.1-0.1-0.1-0.2-0.2-0.3c-0.1,0-0.2-0.1-0.3-0.1c-0.3-0.2-0.4-0.4-0.5-0.7c-0.3,0-0.5-0.1-0.6-0.3h-0.1
					c-0.4,0-0.7-0.2-0.7-0.5c0-0.1,0-0.2,0-0.3v-0.1c-0.1-0.1-0.2-0.1-0.2-0.3c0-0.2,0.1-0.4,0.4-0.4h0.1l0,0c0-0.2,0-0.3,0.2-0.4
					c-0.2,0-0.3,0-0.5,0s-0.7,0-0.7-0.2s0.3-0.4,0.5-0.5c0.3-0.1,0.6-0.2,0.8-0.3c0,0,0,0,0-0.1h-0.1c-0.2,0-0.3-0.1-0.4-0.2
					c0-0.1,0-0.2,0.1-0.2c-0.1,0-0.2-0.1-0.2-0.2c0-0.3,0.2-0.6,0.6-0.6h0.1c0-0.1,0.1-0.2,0.2-0.3c-0.2-0.7-0.3-1.3-0.5-2
					c-0.4-1.1-0.6-2.4-0.9-3.6h-0.1c-0.1,0.3-0.2,0.6-0.3,0.9c-0.4,0.7-1,1.6-2,1.6c-0.4,0-0.9-0.1-1-0.5c-0.2-0.4,0-0.8,0.3-1.1
					c0.8-0.7,1.8-1,2.9-1.1c0,0,0,0,0-0.1c0-0.2,0-0.4,0-0.5c-0.1-0.3-0.2-0.6-0.3-0.9c-0.1,0-0.2,0.1-0.3,0.1
					c-0.5,0.2-1.1,0.4-1.7,0.3c-0.6-0.1-1.7-0.3-1.7-1c0-0.8,1.2-1.2,2-1.1c1,0,1.7,0.6,2,1.4c0.8-0.3,1.5-0.7,2-1.3
					c0.3-0.4,0.5-0.8,0.6-1.2c0-0.1-0.1-0.1-0.1-0.2c-0.6-0.9-2.3-2.5-2.3-3.7l-5.8,0.6c-0.5,1.3-1.1,2.7-1.6,4
					c-1.3,3.2-1.8,6.6-3,10s-2.5,6.8-3.8,10.2c0.6,0.4,1.1,0.8,2.3,0.7c0.8,0,1.3-0.2,1.8-0.5c1.2-4.3,1.4-8.8,2.2-13.2
					c0.2,1.7-0.1,3.6-0.1,5.3c0,1.6-0.2,3.2-0.3,5c-0.1,0.7-0.1,1.4-0.2,2.1c0.1,0,0.2,0,0.4-0.1c0-0.1,0-0.3,0-0.4
					c0.3-2.3,0.2-4.7,0.4-7.1c0.4-2.5,0.5-5,1.1-7.4c0.5-1.9,0.6-4.7,1.7-6.3c-0.6,2-0.5,4.2-0.5,6.3c-0.1,2.7-0.4,5.3-0.2,8.1
					c0.1,2.4-0.2,5,0,7.6c0.8,0.2,1.7,0.2,2.5,0.2c0.2-1.2,0.5-2.4,0.5-3.5c0.1-2.8,0.7-5.8,0.4-8.6c0-0.2-0.1-0.4-0.1-0.6
					c0,0.2,0.1,0.4,0.1,0.6c0.3,2.3,1.2,4.5,1.4,6.9c0.2,1.7,0.5,3.4,0.8,5.1c1.4-0.4,0.6-2.1,3-1.5c0.2,0,0.4,0.1,0.6,0.1
					c0,0,0,0,0-0.1C47.1,80.4,47,80,47,79.6z"/>
				<path class="st33" d="M41.4,70.2c0.3,2.8-0.3,5.7-0.4,8.6c0,1.1-0.3,2.3-0.5,3.5c0.8,0,1.7-0.1,2.5,0c0.3,0,0.5,0,0.7-0.1
					c-0.3-1.7-0.6-3.4-0.8-5.1C42.6,74.8,41.7,72.5,41.4,70.2z"/>
				<path class="st33" d="M45.7,71.2c0.1,0,0.1-0.1,0.2-0.1H46c-0.7-1.9-1.5-3.8-2.3-5.7c-0.1,0-0.2,0-0.2,0
					c0.3,1.2,0.5,2.5,0.9,3.6c0.2,0.7,0.4,1.3,0.5,2c0.1-0.1,0.2-0.1,0.3-0.1C45.4,70.9,45.7,71,45.7,71.2z"/>
				<path class="st33" d="M47.3,75.1c0.1,0,0.1,0.1,0.2,0.1c0.1,0,0.2,0,0.3,0.1c0-0.1-0.1-0.1-0.1-0.2c-0.1,0-0.1,0-0.2,0
					C47.4,75.1,47.3,75.1,47.3,75.1z"/>
				<path class="st33" d="M42.9,63.7L42.9,63.7c0.1,0.3,0.2,0.6,0.3,0.9c0-0.1,0-0.2,0-0.2C43.2,64.2,43.1,63.9,42.9,63.7z"/>
				<path class="st33" d="M46.5,77.3c0-0.1-0.1-0.1-0.1-0.2c0.1,0.3,0.1,0.5,0.2,0.8h0.1C46.6,77.7,46.6,77.5,46.5,77.3z"/>
				<path class="st33" d="M47.6,76.8c-0.2,0.1-0.5,0.1-0.7,0.1c0.1,0.2,0.2,0.3,0.2,0.6c0,0.1,0,0.2,0,0.4c0.2,0,0.3,0.1,0.3,0.3
					c0,0,0,0,0,0.1c0.1,0,0.2,0.1,0.2,0.2s-0.1,0.2-0.2,0.2l0,0c0.1,0,0.2,0.1,0.2,0.2c0,0.2-0.1,0.3-0.3,0.3h-0.1c0,0,0,0,0,0.1
					c0.1,0.2,0,0.3-0.1,0.4c0.1,0.4,0.1,0.8,0.2,1.2c0,0,0,0,0,0.1c0.8,0.1,1.7,0,2.6-0.2c-0.4-1.4-0.9-2.7-1.5-4.1
					C48.1,76.6,47.9,76.7,47.6,76.8z"/>
				<path class="st33" d="M43.5,65.2L43.5,65.2c0.1,0,0.2,0,0.2,0c-0.1-0.1-0.1-0.2-0.2-0.4C43.5,64.9,43.5,65.1,43.5,65.2
					C43.4,65.2,43.4,65.2,43.5,65.2z"/>
				<path class="st33" d="M46.7,73L46.7,73L46.7,73C46.6,73,46.6,73.1,46.7,73v0.2C46.8,73.2,46.8,73.1,46.7,73
					C46.8,73,46.8,73,46.7,73C46.8,73,46.8,73,46.7,73c0-0.1,0-0.3-0.1-0.4c-0.1,0-0.1,0-0.2,0C46.6,72.7,46.6,72.9,46.7,73z"/>
				<path class="st35" d="M44.9,73.7C44.8,73.7,44.8,73.7,44.9,73.7c-0.1,0.1-0.1,0.2,0,0.2S45,73.9,44.9,73.7
					C44.9,73.8,44.9,73.7,44.9,73.7z"/>
				<path class="st35" d="M44.6,73.7C44.5,73.7,44.5,73.7,44.6,73.7c-0.1,0.1-0.1,0.2,0,0.2S44.7,73.9,44.6,73.7
					C44.7,73.8,44.7,73.7,44.6,73.7z"/>
				<path class="st35" d="M45,73c0-0.1-0.1-0.1-0.2-0.1c-0.1,0-0.1,0.1-0.1,0.1C44.7,73.1,44.8,73.1,45,73C45,73.1,45,73.1,45,73z"
					/>
				<path class="st35" d="M45.6,73.5C45.5,73.5,45.5,73.5,45.6,73.5c-0.1,0.1-0.1,0.2,0,0.2S45.7,73.7,45.6,73.5
					C45.7,73.6,45.7,73.6,45.6,73.5z"/>
				<path class="st35" d="M45.2,73.8C45.2,73.8,45.2,73.7,45.2,73.8c-0.2-0.1-0.2-0.1-0.2,0C45,73.8,45,73.9,45.2,73.8
					C45.1,73.8,45.2,73.8,45.2,73.8z"/>
				<path class="st35" d="M45.9,73.5C45.8,73.5,45.8,73.5,45.9,73.5c-0.1,0.1-0.1,0.2,0,0.2S46,73.7,45.9,73.5
					C46,73.5,45.9,73.5,45.9,73.5z"/>
				<path class="st35" d="M45.3,73.8C45.4,73.8,45.4,73.8,45.3,73.8c0.1-0.1,0.1-0.2,0-0.2S45.2,73.6,45.3,73.8
					C45.2,73.7,45.3,73.8,45.3,73.8z"/>
				<path class="st35" d="M46.3,73.3C46.3,73.3,46.2,73.3,46.3,73.3c-0.1,0.1,0,0.2,0,0.2C46.4,73.5,46.4,73.5,46.3,73.3
					C46.4,73.3,46.4,73.3,46.3,73.3z"/>
				<path class="st35" d="M46.1,73.4C46,73.4,46,73.4,46.1,73.4c-0.1,0.1-0.1,0.2,0,0.2S46.2,73.6,46.1,73.4
					C46.2,73.4,46.2,73.4,46.1,73.4z"/>
				<path class="st35" d="M46.5,73.1C46.5,73.2,46.4,73.2,46.5,73.1c-0.1,0.1,0,0.2,0,0.2C46.6,73.3,46.6,73.3,46.5,73.1
					C46.6,73.2,46.6,73.1,46.5,73.1z"/>
				<path class="st36" d="M45.3,75.3l0.5-0.2c-0.3-1.3-0.6-2.7-0.9-4.1c-0.1,0.1-0.2,0.2-0.2,0.3h-0.1c-0.4,0-0.6,0.3-0.6,0.6
					c0,0.1,0.1,0.2,0.1,0.3C44,72.3,44,72.3,44,72.4c0,0.2,0.2,0.3,0.4,0.2h0.1v0.1c-0.2,0.2-0.5,0.2-0.8,0.3
					c-0.2,0.1-0.5,0.3-0.5,0.5s0.5,0.2,0.7,0.2c0.1,0,0.3,0,0.5,0c-0.1,0.1-0.2,0.3-0.2,0.4l0,0h-0.1c-0.2,0-0.4,0.2-0.4,0.4
					c0,0.1,0.1,0.2,0.2,0.3v0.1c0,0.1,0,0.2,0,0.3c0,0.3,0.4,0.5,0.7,0.5h0.1c0.1,0.2,0.4,0.3,0.6,0.3
					C45.4,75.7,45.3,75.5,45.3,75.3z M44.7,73.8L44.7,73.8c-0.2,0.1-0.2,0-0.2,0H44.7C44.7,73.7,44.7,73.8,44.7,73.8z M45.3,73.7
					L45.3,73.7c0.2-0.1,0.2,0,0.2,0H45.3C45.3,73.8,45.2,73.7,45.3,73.7z M44.9,73.8L44.9,73.8c-0.2,0.1-0.2,0-0.2,0H44.9
					C44.9,73.7,44.9,73.8,44.9,73.8z M44.7,73C44.7,72.9,44.8,72.9,44.7,73c0.2-0.1,0.3-0.1,0.3,0s-0.1,0.1-0.1,0.1
					C44.8,73.1,44.7,73.1,44.7,73z M45.1,73.8C45,73.8,45,73.7,45.1,73.8v-0.2C45.2,73.6,45.2,73.7,45.1,73.8
					C45.2,73.8,45.1,73.8,45.1,73.8z"/>
				<path class="st36" d="M47.7,75c0.2-0.1,0.4-0.3,0.4-0.5l0,0c0-0.1-0.1-0.3-0.2-0.3C48,74.1,48,74,48,73.9c0-0.2-0.2-0.3-0.3-0.3
					l0,0c0-0.3-0.4-0.5-0.7-0.5l0,0c0.1,0.2,0.1,0.3,0.2,0.5C47.2,74,47.4,74.5,47.7,75z"/>
				<path class="st36" d="M47,72.3c0.1-0.1,0.1-0.2,0.1-0.3c0-0.2-0.3-0.4-0.6-0.4h-0.1c0.1-0.1,0.1-0.2,0.1-0.3
					c0-0.2-0.2-0.3-0.4-0.3c0.2,0.5,0.4,0.9,0.5,1.4c0,0,0,0,0.1,0C46.8,72.4,46.9,72.4,47,72.3z"/>
				<path class="st36" d="M46.8,73.1C46.8,73.1,46.8,73.2,46.8,73.1c-0.1,0.1-0.2,0.1-0.2,0c0,0,0-0.1,0.1-0.1
					C46.7,73,46.7,73,46.8,73.1C46.7,73,46.7,73,46.8,73.1c-0.2-0.2-0.2-0.3-0.3-0.5c-0.1,0-0.2,0-0.3,0.1c0,0-0.1,0-0.1-0.1
					c0.1-0.1,0.3-0.1,0.4-0.1c-0.2-0.5-0.4-0.9-0.5-1.4h-0.1c-0.1,0-0.2,0-0.2,0.1c-0.1-0.2-0.3-0.3-0.5-0.3c-0.1,0-0.2,0.1-0.3,0.1
					c0.3,1.4,0.6,2.7,0.9,4.1l1.1-0.4c0.1,0,0.1,0.1,0.2,0.2c0.1,0.1,0.1,0.1,0.2,0.1c0.1,0,0.1,0,0.2,0c0.1,0,0.1,0,0.2,0
					c-0.2-0.5-0.4-1-0.6-1.5C47,73.4,46.9,73.2,46.8,73.1C46.8,73,46.8,73,46.8,73.1C46.8,73,46.8,73,46.8,73.1z M45.7,73.6
					L45.7,73.6c-0.2,0.1-0.2,0-0.2,0H45.7C45.7,73.6,45.7,73.6,45.7,73.6z M45.9,73.6L45.9,73.6c-0.2,0.1-0.2,0-0.2,0H45.9
					C45.9,73.5,46,73.5,45.9,73.6z M46.2,73.5L46.2,73.5c-0.2,0.1-0.2,0-0.2,0H46.2C46.2,73.4,46.2,73.4,46.2,73.5z M46.3,73.4
					C46.2,73.4,46.2,73.4,46.3,73.4c-0.1-0.1-0.1-0.2,0-0.2C46.4,73.3,46.4,73.3,46.3,73.4C46.4,73.4,46.4,73.4,46.3,73.4z
					 M46.5,73.3C46.4,73.3,46.4,73.3,46.5,73.3c-0.1-0.1-0.1-0.2,0-0.2C46.6,73.1,46.6,73.2,46.5,73.3
					C46.6,73.3,46.6,73.3,46.5,73.3z"/>
				<path class="st36" d="M48.4,76.5c0.3-0.1,0.5,0.1,0.8,0.1c0.2,0,0.5,0,0.7,0c0-0.2,0.1-0.4,0.2-0.7l0.6-1c0.1,0,0.2,0,0.3,0.1
					l0,0l0,0c-0.5-0.3-1.3-0.1-1.9,0.1c-0.4,0.1-0.9,0.3-1.3,0.2C47.9,75.6,48.1,76.1,48.4,76.5C48.3,76.5,48.3,76.5,48.4,76.5z"/>
				<path class="st36" d="M46.1,76.4L46.1,76.4c-0.1-0.4-0.2-0.8-0.3-1.3V75l-0.5,0.2c0,0.2,0,0.5,0.1,0.7c0.1,0.3,0.2,0.5,0.5,0.7
					c0.1,0,0.2,0.1,0.3,0.1C46.1,76.6,46.1,76.5,46.1,76.4z"/>
				<path class="st36" d="M47.3,75.1c-0.1,0-0.1-0.1-0.2-0.1c-0.1-0.1-0.1-0.2-0.2-0.2l-1.1,0.4v0.1c0.1,0.4,0.2,0.9,0.3,1.3
					l0.5,0.1c0.1,0.1,0.1,0.2,0.2,0.3c0.2,0,0.5,0,0.7-0.1s0.4-0.2,0.6-0.3c-0.2-0.4-0.4-0.9-0.5-1.3c-0.1,0-0.2,0-0.3-0.1
					C47.4,75.1,47.3,75.1,47.3,75.1z"/>
				<path class="st36" d="M51.2,75.1C51.1,75.1,51.1,75.1,51.2,75.1C51.1,75.1,51.1,75.1,51.2,75.1C51.1,75.1,51.1,75.1,51.2,75.1z"
					/>
				<path class="st36" d="M50.9,75.3l-0.1-0.2c0,0,0-0.1,0.1-0.1c-0.1,0-0.2-0.1-0.3-0.1l-0.6,1c-0.1,0.2-0.2,0.4-0.2,0.7
					c0,0.2,0,0.3,0,0.5c0.1,0.2,0.1,0.3,0.2,0.5c0.1,0,0.1-0.1,0.2-0.1c0.1,0,0.2,0,0.2,0.1l0.1-0.1c0-0.1-0.1-0.2,0-0.3
					c0.1-0.5,0.8-1.1,0.8-1.6c0-0.2-0.1-0.3-0.2-0.4l0,0C51.1,75.2,51,75.2,50.9,75.3z"/>
				<path class="st36" d="M50.8,75.1l0.1,0.2c0.1-0.1,0.1-0.1,0.2-0.2l0,0c0.1-0.1,0.2-0.2,0.3-0.3v-0.1c-0.1,0-0.1,0.1-0.2,0.1
					c-0.1,0.1-0.1,0.1-0.2,0.2l0,0C50.9,75,50.8,75.1,50.8,75.1z"/>
				<path class="st36" d="M51.3,74.7C51.4,74.7,51.4,74.8,51.3,74.7c0.1,0.2,0.2,0.2,0.3,0.3c0.2,0,0.3,0,0.4-0.2c0,0,0.1,0,0.2,0
					c0.3,0,0.6-0.1,0.6-0.4c0-0.2,0-0.3-0.2-0.4v-0.1c0-0.2-0.1-0.4-0.3-0.4c-0.1,0-0.3,0-0.4,0.1l0,0c0-0.1-0.1-0.3-0.2-0.3
					c-0.2,0-0.3,0.1-0.3,0.2c0,0,0,0-0.1,0c-0.2,0-0.5,0.1-0.5,0.3c0,0.1,0,0.2,0.1,0.3c-0.1,0.1-0.1,0.1-0.2,0.2
					c0,0.2,0.1,0.4,0.3,0.4h0.1C51.2,74.8,51.3,74.7,51.3,74.7z"/>
				<path class="st36" d="M50.3,77.5c-0.1,0-0.2,0-0.2,0.1C50,77.7,50,77.8,50,77.8c0,0.1,0,0.1,0.1,0.2c-0.1,0-0.2,0.1-0.2,0.3
					c0,0.1,0.1,0.2,0.2,0.2v0.1c0,0.1,0.1,0.2,0.2,0.3c0.1-0.1,0.3-0.2,0.4-0.2l0.2-0.1l0.1,0.1l0,0c0.2,0,0.3-0.2,0.3-0.3
					c0-0.1-0.1-0.2-0.2-0.2l0,0c0.1,0,0.2-0.1,0.2-0.2s-0.1-0.2-0.2-0.2c0,0,0,0,0-0.1c0-0.2-0.2-0.3-0.4-0.3h-0.1
					c-0.1,0-0.1,0.1-0.1,0.1C50.5,77.6,50.4,77.5,50.3,77.5z"/>
				<path class="st36" d="M46.9,79.2c0-0.2-0.1-0.4-0.1-0.6c0,0-0.1,0-0.1-0.1s0-0.3,0-0.4l0,0c0-0.1,0-0.2-0.1-0.2l0,0
					c-0.2,0-0.3,0.2-0.3,0.3c0,0.1,0,0.1,0.1,0.2c-0.1,0-0.2,0.1-0.2,0.3c0,0.1,0.1,0.2,0.2,0.2V79c0,0.1,0.1,0.2,0.1,0.2
					C46.6,79.1,46.8,79.1,46.9,79.2z"/>
				<path class="st36" d="M46.7,78.5c0.1,0.2,0.1,0.4,0.1,0.6l0,0L47,79c0,0,0,0,0,0.1c0,0,0,0,0-0.1h0.1c0.2,0,0.3-0.2,0.3-0.3
					c0-0.1-0.1-0.2-0.2-0.2l0,0c0.1,0,0.2-0.1,0.2-0.2s-0.1-0.2-0.2-0.2c0,0,0,0,0-0.1s-0.1-0.3-0.3-0.3c0,0.2,0,0.5,0,0.7
					C47,78.5,46.8,78.5,46.7,78.5z"/>
				<path class="st36" d="M46.6,77.9L46.6,77.9c-0.1,0.1,0,0.1,0,0.2C46.6,78,46.6,77.9,46.6,77.9z"/>
				<path class="st36" d="M46.1,76.4c0,0.1,0,0.2,0,0.3c0,0.1,0.1,0.2,0.2,0.3C46.3,76.8,46.2,76.6,46.1,76.4L46.1,76.4z"/>
				<path class="st36" d="M46.6,78.5L46.6,78.5c0.1,0,0-0.2,0-0.3l0,0C46.6,78.2,46.6,78.4,46.6,78.5z"/>
				<path class="st36" d="M46.2,76.4c0.1,0.2,0.1,0.4,0.2,0.6c0.1,0.1,0.1,0.2,0.1,0.2c0.1,0.2,0.1,0.4,0.1,0.6c0,0.1,0,0.1,0,0.2
					s0.1,0.3,0.1,0.4c0.1,0,0.2,0,0.4,0c0-0.2,0-0.5,0-0.7c0-0.1,0-0.2,0-0.4c0-0.2-0.1-0.4-0.2-0.6c-0.1-0.1-0.1-0.2-0.2-0.3
					L46.2,76.4z"/>
				<path class="st36" d="M46.5,79.2c-0.1,0.1-0.2,0.1-0.2,0.2c-0.1,0.3,0.3,0.2,0.5,0.2c0.1,0,0.1,0,0.2,0c0-0.1-0.1-0.3-0.1-0.4
					C46.8,79.1,46.6,79.1,46.5,79.2z"/>
				<path class="st36" d="M46.9,79.2L46.9,79.2c0,0.1,0,0.2,0.1,0.4c0.2-0.1,0.2-0.2,0.1-0.4c0,0,0,0,0-0.1L46.9,79.2z"/>
				<path class="st36" d="M50.6,78.7c-0.1,0-0.2,0.1-0.4,0.2C50.1,79,50,79.1,50,79.1c0,0.3,1.2,0,0.8-0.4c0,0,0-0.1-0.1-0.1
					L50.6,78.7z"/>
				<path class="st37" d="M50.5,66.1C50.5,66.2,50.5,66.2,50.5,66.1c0,0.1,0,0.2,0.1,0.2c0.1-0.2,0.1-0.5-0.2-0.7
					c-0.1-0.1-0.3-0.1-0.4-0.1c0,0,0,0.1,0.1,0.1C50.3,65.7,50.5,65.9,50.5,66.1z"/>
				<path class="st37" d="M45.4,56.8c0.6,1,0.9,2.2,0.8,3.4c0,0.1,0.1,0.1,0.1,0.2c0.2-1.1-0.1-2.3-0.6-3.3L45.4,56.8L45.4,56.8z"/>
				<path class="st37" d="M50.3,65.7c0.3,0.1,0.3,0.4,0.2,0.7c0,0,0,0.1,0.1,0.1c0.1-0.1,0.1-0.3,0.1-0.5c-0.1-0.3-0.4-0.5-0.8-0.5
					c0,0,0,0,0.1,0.1C50.1,65.6,50.2,65.6,50.3,65.7z"/>
				<path class="st37" d="M46,60L46,60c0.3-1.1-0.1-2.3-0.7-3.3h-0.1C45.9,57.8,46.2,59,46,60z"/>
				<path class="st37" d="M42.9,63.5L42.9,63.5C42.9,63.6,42.9,63.6,42.9,63.5C42.9,63.6,42.9,63.6,42.9,63.5
					C42.9,63.6,42.9,63.6,42.9,63.5z"/>
				<path class="st37" d="M42.9,63.6C42.9,63.7,42.9,63.7,42.9,63.6C42.9,63.7,42.9,63.7,42.9,63.6L42.9,63.6z"/>
				<path class="st37" d="M49,66.7c-0.1,0-0.2,0-0.3-0.1c0,0,0,0.1,0.1,0.1C48.9,66.7,48.9,66.8,49,66.7c0.3,0.2,0.9,0.2,1.2,0
					c0.1-0.1,0.2-0.2,0.2-0.3c0,0,0-0.1-0.1-0.1C50.3,66.8,49.5,66.8,49,66.7z"/>
				<path class="st37" d="M46.2,60.2L46.2,60.2L46.2,60.2c-0.1,0.2-0.2,0.4-0.3,0.7L46,61C46.1,60.7,46.1,60.5,46.2,60.2z"/>
				<path class="st37" d="M49.1,66c0.2-0.2,0.5-0.3,0.8-0.3H50c0,0,0-0.1-0.1-0.1c-0.4,0-0.8,0.2-1,0.4c-0.1,0.1-0.2,0.2-0.3,0.3
					v0.1C48.8,66.2,49,66.1,49.1,66z"/>
				<path class="st37" d="M46,61L46,61c0.2-0.2,0.3-0.4,0.3-0.7c0-0.1-0.1-0.1-0.1-0.2C46.1,60.5,46.1,60.7,46,61z"/>
				<path class="st37" d="M49.7,65.5c-0.5,0.1-0.9,0.4-1.1,0.7v0.1c0.1-0.1,0.2-0.2,0.3-0.3c0.2-0.2,0.7-0.4,1-0.4c0,0,0,0-0.1-0.1
					C49.8,65.5,49.8,65.5,49.7,65.5z"/>
				<path class="st37" d="M50.3,66.6c-0.4,0.2-0.9,0.2-1.3,0.1h-0.1c0,0,0,0.1,0.1,0.1c0.4,0.1,0.8,0.1,1.2,0
					c0.2-0.1,0.4-0.2,0.5-0.4c0,0,0-0.1-0.1-0.1C50.5,66.5,50.4,66.6,50.3,66.6z"/>
				<path class="st37" d="M46.1,68.7c-0.3,0.3-0.4,0.8-0.2,1.1c0.2,0.3,0.7,0.2,1.1,0.1c0.4-0.2,0.6-0.6,0.7-1
					c0-0.2,0.1-0.3,0.1-0.5h-0.1c0,0,0,0,0,0.1c-0.1,0.5-0.1,0.8-0.5,1.2c-0.2,0.2-0.9,0.5-1.2,0.2S45.9,69,46.1,68.7
					c0.5-0.3,1-0.4,1.4-0.3v-0.1C47.1,68.1,46.4,68.3,46.1,68.7z"/>
				<path class="st37" d="M43.4,65.2C43.4,65.2,43.4,65.3,43.4,65.2C43.4,65.3,43.5,65.3,43.4,65.2C43.5,65.3,43.5,65.2,43.4,65.2
					L43.4,65.2z"/>
				<path class="st37" d="M43.4,65.2c0-0.1,0-0.2-0.1-0.2c0,0.1,0,0.2,0,0.3C43.4,65.2,43.4,65.2,43.4,65.2L43.4,65.2z"/>
				<path class="st37" d="M46.3,68.6c-0.3,0.3-0.5,0.9-0.2,1.1c0.3,0.3,0.9,0.1,1.2-0.2c0.4-0.4,0.4-0.7,0.5-1.2c0,0,0,0,0-0.1h-0.1
					v0.1c0,0.2-0.1,0.5-0.2,0.7c-0.2,0.4-0.8,0.9-1.2,0.5c-0.2-0.2-0.1-0.5,0-0.7s0.3-0.4,0.5-0.6c0.3-0.2,0.6-0.2,1-0.1V68
					C47.1,68.2,46.6,68.3,46.3,68.6z"/>
				<path class="st37" d="M42.6,66.6c-0.2,0.4-0.5,0.8-1,1s-1.2,0.1-1.4-0.3c-0.2-0.5,0.4-1,0.8-1.2c0.6-0.3,1.2-0.5,1.8-0.6
					c0.1,0,0.3,0,0.4,0v-0.1c-0.8,0.1-1.5,0.2-2.1,0.6c-0.4,0.2-1,0.6-1,1.1c-0.1,0.5,0.4,0.8,0.9,0.8c1,0,1.5-0.8,1.9-1.4
					c0.2-0.3,0.4-0.7,0.4-1h-0.1C43.1,65.8,42.9,66.2,42.6,66.6z"/>
				<path class="st37" d="M43.4,63.6L43.4,63.6L43.4,63.6L43.4,63.6C43.3,63.6,43.3,63.6,43.4,63.6z"/>
				<path class="st37" d="M43.2,65.4L43.2,65.4L43.2,65.4C43.3,65.3,43.2,65.3,43.2,65.4C43.2,65.3,43.2,65.4,43.2,65.4z"/>
				<path class="st37" d="M43.3,65.2C43.3,65.3,43.3,65.3,43.3,65.2C43.3,65.3,43.4,65.3,43.3,65.2C43.4,65.3,43.4,65.2,43.3,65.2
					C43.4,65.2,43.4,65.2,43.3,65.2z"/>
				<path class="st37" d="M43.1,63.6L43.1,63.6L43.1,63.6C43.1,63.4,43.1,63.4,43.1,63.6C43.1,63.5,43.1,63.5,43.1,63.6z"/>
				<path class="st37" d="M46.3,65.9c0.6,0.3,1.3,0.5,2,0.7c0,0,0-0.1,0.1-0.1c-0.4-0.1-0.8-0.3-1.3-0.4c-0.6-0.2-1.2-0.5-1.8-0.7
					c-0.5-0.2-1.1-0.2-1.7-0.2v0.1c0,0,0,0,0.1,0C44.7,65.2,45.6,65.6,46.3,65.9z"/>
				<path class="st37" d="M42.9,63.5C42.9,63.6,42.9,63.6,42.9,63.5c0.1,0.1,0.2,0,0.2,0v-0.1C43,63.5,42.9,63.5,42.9,63.5z"/>
				<path class="st37" d="M41.3,63.9c-0.4,0-0.9-0.1-1.3-0.2c-0.4-0.2-0.7-0.5-0.4-0.9c0.2-0.4,0.8-0.6,1.3-0.6
					c1.1-0.2,1.9,0.5,2.2,1.3h0.1C43,63,42.6,62.6,42,62.3c-0.7-0.3-2-0.1-2.5,0.5c-0.6,0.9,0.8,1.3,1.6,1.3c0.6,0,1.2-0.2,1.8-0.4
					v-0.1C42.4,63.7,41.9,63.9,41.3,63.9z"/>
				<path class="st37" d="M43.3,63.6L43.3,63.6c0,0.2,0,0.5,0,0.7c0,0.1,0.1,0.1,0.1,0.2c0-0.1,0-0.3,0-0.5
					C43.3,64,43.3,63.8,43.3,63.6z"/>
				<path class="st37" d="M43.4,63.6L43.4,63.6c0,0.2,0,0.4,0,0.5c0,0.2,0,0.3,0,0.5c0,0.1,0.1,0.1,0.1,0.2
					C43.5,64.4,43.5,64,43.4,63.6z"/>
				<path class="st37" d="M43.1,63.6L43.1,63.6c-0.1-0.1-0.2,0-0.2,0v0.1l0,0C43,63.7,43.1,63.7,43.1,63.6
					C43.1,63.7,43.1,63.6,43.1,63.6z"/>
				<path class="st37" d="M43.1,63.6C43.1,63.6,43.1,63.7,43.1,63.6L43.1,63.6L43.1,63.6C43.2,63.5,43.1,63.5,43.1,63.6L43.1,63.6z"
					/>
				<path class="st37" d="M42.9,63.6c-0.6,0.2-1.2,0.4-1.8,0.4c-0.8,0-2.2-0.4-1.6-1.3c0.5-0.6,1.8-0.9,2.5-0.5
					c0.6,0.2,1,0.7,1.2,1.2h0.1l0,0c-0.3-0.8-1.1-1.4-2-1.4c-0.8,0-1.9,0.4-2,1.1c0,0.7,1.1,1,1.7,1c0.6,0,1.2-0.1,1.7-0.3
					C42.8,63.8,42.9,63.8,42.9,63.6C42.9,63.7,42.9,63.7,42.9,63.6C42.9,63.7,42.9,63.7,42.9,63.6z"/>
				<path class="st37" d="M43.4,64.9c0-0.1-0.1-0.2-0.1-0.3c0,0.2,0,0.4,0,0.5c0,0,0,0,0,0.1h0.1C43.3,65.1,43.4,65,43.4,64.9z"/>
				<path class="st37" d="M43.2,63.4C43.2,63.5,43.2,63.5,43.2,63.4C43.3,63.5,43.3,63.5,43.2,63.4L43.2,63.4L43.2,63.4
					C43.3,63.4,43.3,63.4,43.2,63.4L43.2,63.4z"/>
				<path class="st37" d="M43.3,65.3L43.3,65.3C43.3,65.2,43.3,65.2,43.3,65.3C43.2,65.2,43.2,65.3,43.3,65.3L43.3,65.3z"/>
				<path class="st37" d="M43.3,63.5L43.3,63.5c1.5-0.5,2.3-1.4,2.6-2.4L45.8,61c-0.1,0.4-0.3,0.8-0.6,1.2
					C44.8,62.7,44.1,63.1,43.3,63.5C43.3,63.4,43.3,63.4,43.3,63.5L43.3,63.5z"/>
				<path class="st37" d="M48.4,66.5c0.1-0.1,0.1-0.2,0.2-0.2v-0.1C48.5,66.3,48.4,66.4,48.4,66.5L48.4,66.5z"/>
				<path class="st37" d="M48.5,66.6c0-0.1,0.1-0.1,0.1-0.2v-0.1C48.6,66.4,48.5,66.5,48.5,66.6L48.5,66.6z"/>
				<path class="st37" d="M43.5,63.4L43.5,63.4L43.5,63.4c0.2,0,0.4-0.1,0.7-0.2c1-0.5,1.6-1.2,1.9-2.1L46,61
					C45.6,62.1,44.8,63,43.5,63.4z"/>
				<path class="st37" d="M42.9,66.4C42.4,67,42,67.8,41,67.8c-0.5,0-1-0.3-0.9-0.8c0.1-0.4,0.6-0.8,1-1.1c0.6-0.4,1.4-0.5,2.1-0.6
					v-0.1c-1.1,0.1-2.1,0.4-2.9,1.1C40,66.6,39.8,67,40,67.4c0.2,0.3,0.6,0.5,1,0.5C42.1,67.9,42.6,67,42.9,66.4
					c0.3-0.4,0.4-0.7,0.4-1h-0.1C43.2,65.7,43.1,66,42.9,66.4z"/>
				<path class="st37" d="M43.4,65.3C43.4,65.3,43.4,65.4,43.4,65.3C43.4,65.4,43.5,65.4,43.4,65.3C43.5,65.4,43.5,65.3,43.4,65.3
					C43.5,65.3,43.4,65.3,43.4,65.3z"/>
				<path class="st37" d="M48.4,66.6C48.4,66.7,48.4,66.7,48.4,66.6C48.4,66.7,48.4,66.7,48.4,66.6C48.4,66.7,48.5,66.7,48.4,66.6
					L48.4,66.6z"/>
				<path class="st37" d="M48.1,67.3c-0.1,0.3-0.3,0.6-0.4,0.9h0.1c0,0,0,0,0-0.1C47.9,67.8,48,67.5,48.1,67.3
					c0.2-0.3,0.3-0.5,0.4-0.6h-0.1C48.2,66.9,48.1,67.1,48.1,67.3z"/>
				<path class="st37" d="M48.5,66.7C48.5,66.7,48.4,66.7,48.5,66.7C48.4,66.7,48.4,66.7,48.5,66.7c0.1,0.1,0.3,0.2,0.4,0.2
					c0,0,0-0.1-0.1-0.1C48.7,66.7,48.6,66.7,48.5,66.7z"/>
				<path class="st37" d="M48.5,69c0.3,0.8,0.1,1.7-0.3,2.4c-0.3,0.4-0.8,0.8-1.4,1.1c-0.1,0-0.1,0.1-0.2,0.1l0,0c0.1,0,0.1,0,0.2,0
					c0.3-0.1,0.5-0.2,0.7-0.4c0.5-0.3,0.8-0.7,1-1.1c0.3-0.8,0.5-1.9-0.3-2.6c-0.1-0.1-0.3-0.2-0.4-0.2v0.1
					C48.1,68.4,48.4,68.7,48.5,69z"/>
				<path class="st37" d="M48.5,66.6L48.5,66.6c0.1,0.1,0.2,0.1,0.3,0.2c0,0,0-0.1-0.1-0.1C48.7,66.6,48.6,66.6,48.5,66.6z"/>
				<path class="st37" d="M47.7,68.3L47.7,68.3C47.8,68.3,47.8,68.3,47.7,68.3C47.8,68.2,47.7,68.2,47.7,68.3
					C47.7,68.2,47.7,68.3,47.7,68.3z"/>
				<path class="st37" d="M43.3,65.3C43.3,65.3,43.3,65.4,43.3,65.3C43.3,65.4,43.4,65.4,43.3,65.3C43.4,65.3,43.4,65.3,43.3,65.3
					C43.4,65.3,43.3,65.3,43.3,65.3z"/>
				<path class="st37" d="M48.3,66.7L48.3,66.7C48.4,66.7,48.4,66.7,48.3,66.7C48.4,66.6,48.3,66.6,48.3,66.7
					C48.3,66.6,48.3,66.7,48.3,66.7z"/>
				<path class="st37" d="M47.6,68.3C47.6,68.3,47.6,68.4,47.6,68.3C47.7,68.3,47.7,68.3,47.6,68.3C47.6,68.3,47.6,68.3,47.6,68.3
					L47.6,68.3z"/>
				<path class="st37" d="M48.4,66.5C48.4,66.6,48.4,66.6,48.4,66.5C48.4,66.6,48.4,66.6,48.4,66.5C48.5,66.6,48.5,66.6,48.4,66.5
					C48.5,66.6,48.5,66.6,48.4,66.5z"/>
				<path class="st37" d="M47.8,68.4C47.8,68.4,47.8,68.3,47.8,68.4C47.8,68.3,47.8,68.3,47.8,68.4L47.8,68.4
					C47.7,68.4,47.7,68.4,47.8,68.4z"/>
				<path class="st37" d="M48,68.5c0.4,0.2,0.6,0.6,0.6,1c0.1,0.5-0.1,1-0.3,1.5s-0.5,0.8-1,1.1c-0.1,0.1-0.2,0.1-0.3,0.2l0,0
					c0,0.1-0.1,0.1-0.1,0.1c0.6-0.2,1.1-0.6,1.4-1.1c0.4-0.7,0.6-1.7,0.3-2.4c-0.1-0.3-0.4-0.5-0.7-0.7v0.1
					C47.8,68.4,47.9,68.4,48,68.5z"/>
				<path class="st37" d="M47.6,68.3L47.6,68.3C47.7,68.3,47.7,68.3,47.6,68.3C47.7,68.2,47.6,68.2,47.6,68.3
					C47.6,68.2,47.6,68.2,47.6,68.3z"/>
				<path class="st37" d="M46.6,66.1c0.5,0.2,1.1,0.4,1.7,0.6v-0.1c-0.7-0.2-1.3-0.5-2-0.7c-0.8-0.3-1.7-0.7-2.6-0.6c0,0,0,0-0.1,0
					v0.1c0.3,0,0.7,0,1,0.1C45.4,65.6,46,65.9,46.6,66.1z"/>
				<path class="st37" d="M48.4,66.5C48.3,66.6,48.3,66.6,48.4,66.5C48.4,66.6,48.4,66.6,48.4,66.5C48.4,66.6,48.4,66.6,48.4,66.5
					L48.4,66.5z"/>
				<path class="st37" d="M47.8,67.7c-0.1,0.2-0.1,0.3-0.2,0.5h0.1c0.1-0.3,0.2-0.6,0.4-0.9c0.1-0.2,0.2-0.4,0.3-0.6h-0.1
					C48.1,67,47.9,67.4,47.8,67.7z"/>
				<path class="st37" d="M43.7,65.3c-0.1,0-0.1,0-0.2,0v0.1C43.6,65.4,43.7,65.4,43.7,65.3L43.7,65.3z"/>
				<path class="st37" d="M43.5,65.2L43.5,65.2C43.5,65.2,43.5,65.3,43.5,65.2c0,0.1,0.1,0.1,0.2,0.1v-0.1
					C43.6,65.2,43.6,65.2,43.5,65.2z"/>
				<path class="st37" d="M46.6,72.6C46.6,72.6,46.5,72.6,46.6,72.6C46.5,72.6,46.5,72.6,46.6,72.6C46.5,72.6,46.5,72.6,46.6,72.6
					C46.5,72.6,46.6,72.6,46.6,72.6L46.6,72.6L46.6,72.6z"/>
				<path class="st37" d="M46.5,72.6L46.5,72.6L46.5,72.6L46.5,72.6z"/>
				<path class="st37" d="M43.4,64.6c0-0.1-0.1-0.1-0.1-0.2C43.3,64.5,43.3,64.6,43.4,64.6c-0.1,0.1,0,0.2,0,0.3
					C43.4,64.8,43.4,64.7,43.4,64.6z"/>
				<path class="st37" d="M42.9,63.7L42.9,63.7L42.9,63.7L42.9,63.7z"/>
				<path class="st37" d="M43.5,64.8c0-0.1-0.1-0.1-0.1-0.2c0,0.1,0,0.2,0,0.3c0,0.1,0,0.2,0.1,0.2C43.5,65.1,43.5,64.9,43.5,64.8z"
					/>
				<path class="st37" d="M46.6,72.5L46.6,72.5c0.1,0,0.1,0,0.2-0.1C46.8,72.5,46.7,72.5,46.6,72.5L46.6,72.5z"/>
				<path class="st37" d="M47,72.3c-0.1,0-0.2,0.1-0.3,0.1c0,0,0,0-0.1,0l0,0l0,0c0.1,0,0.1,0,0.2-0.1C46.9,72.4,46.9,72.4,47,72.3z
					"/>
				<path class="st37" d="M46.6,72.5c-0.1,0.1-0.3,0-0.4,0.1c0,0,0,0.1,0.1,0.1S46.5,72.6,46.6,72.5L46.6,72.5
					c-0.1,0.1-0.2,0.1-0.3,0.2C46.3,72.7,46.5,72.6,46.6,72.5L46.6,72.5L46.6,72.5C46.5,72.6,46.6,72.5,46.6,72.5L46.6,72.5z"/>
				<path class="st37" d="M46.5,72.6C46.5,72.6,46.6,72.6,46.5,72.6C46.6,72.6,46.6,72.6,46.5,72.6L46.5,72.6
					C46.6,72.5,46.5,72.6,46.5,72.6z"/>
			</g>
			<g>
				<g class="st7">
					<path class="st38" d="M33.1,40.6c0.6,1.3,1.7,2.4,3.1,3.1c1,0.5,2.1,0.9,3.1,1.4c0.8-0.7,1.8-1.3,2.7-2
						c1.3-1.1,2.1-2.3,2.4-3.7c0-0.1,0-0.1,0-0.2c-2.5,0.4-3.8,2.4-6.5,2.4c-1.8,0-3.9-1.3-4.9-1.1C33.1,40.5,33.1,40.6,33.1,40.6z"
						/>
				</g>
				<path class="st39" d="M33.2,43.4c0.1-0.1,0.1-0.2,0.2-0.3C33.2,43.2,33.2,43.3,33.2,43.4z"/>
				<path class="st39" d="M34.2,56.2c0.1-1.1,0.4-2.2,0.5-3.3c0.2-1.9-0.8-3.6-1.4-5.3c0.2,1.7,0.4,3.4,0.5,5.1
					c0.1,1.6,0,3.2-0.2,4.9c-0.1,0.7-0.3,1.5-0.5,2.2c0.2-0.2,0.3-0.5,0.5-0.6C34.2,58.2,34.1,57.3,34.2,56.2z"/>
				<path class="st39" d="M33.2,43.4c-0.4,0.8-0.9,1.6-1.4,2.3c0.4,0.1,0.8,0.2,1.2,0.2c0,0.1,0,0.1,0,0.2c0.1-0.3,0.1-0.6,0.1-0.9
					C33.2,44.7,33,43.9,33.2,43.4z"/>
				<path class="st39" d="M49,38.9c0.1-0.1,0.1-0.2,0.2-0.2c-0.7,0.1-1.4,0.2-2,0.5C47.8,39.1,48.4,39,49,38.9z"/>
				<path class="st39" d="M28.7,41.4L28.7,41.4c0.3,0.3,0.1,0.6,0,0.8c0,0.1-0.1,0.2-0.1,0.3c1.1-0.4,2.2-0.8,3-1.3
					C30.7,41.3,29.6,41.3,28.7,41.4z"/>
				<path class="st39" d="M32.4,41.6c-0.9,0.4-1.7,1-2.4,1.5c-0.1,0.1-0.2,0.1-0.3,0.2c0,0.1,0.1,0.2,0.2,0.3
					c0.2,0.2,0.4,0.4,0.7,0.5c0.1,0,0.1,0,0.2,0C31.1,43.2,31.7,42.3,32.4,41.6z"/>
				<path class="st39" d="M48.5,40.9c0.1,0,0.1,0,0.3-0.1c0.2,0,0.3-0.1,0.4-0.2c0-0.1,0-0.2,0-0.3c-0.8-0.1-1.7-0.3-2.4-0.2
					C47.2,40.4,47.9,40.6,48.5,40.9z"/>
				<path class="st39" d="M45.9,52.9c0.5,1.9,0.4,4.2,2.5,5.4c0.2,0.1,0.4,0.3,0.6,0.4c-1.2-1.6-1.8-3.5-2.2-5.3
					c-0.5-1.8-0.7-3.6-0.9-5.5c-0.1,0.7,0,1.5,0,2.2C45.8,51.1,45.7,52,45.9,52.9z"/>
				<path class="st40" d="M49.8,37.9c-1.6-0.1-3.2,0.4-4.5,1.2l0,0c-0.3,0-0.5,0-0.8,0.1l0,0c-0.1,0-0.1,0.1,0,0.2
					c-0.3,1.4-1.1,2.7-2.4,3.7c-0.8,0.7-1.9,1.3-2.7,2c-0.9-0.5-2.1-0.9-3.1-1.4c-1.5-0.8-2.5-1.9-3.1-3.1c0-0.1,0-0.1,0-0.2
					c0,0,0,0-0.1,0c-0.3,0-0.5,0-0.8,0.1l0,0c-1.5-0.5-3.1-0.6-4.7-0.1c-0.1,0-0.1,0.1-0.1,0.1c0,0.2,0.3,0.2,0.5,0.3
					c0.3,0.1,0.6,0.3,0.8,0.6c1-0.1,2,0,3-0.2c-0.9,0.5-2,1-3,1.3c0,0.1,0,0.2,0.1,0.3c0.1,0.2,0.2,0.2,0.4,0.1c0.3,0,0.4,0,0.5,0.2
					c0,0,0,0.1,0.1,0.1c0.1-0.1,0.2-0.1,0.3-0.2c0.8-0.5,1.5-1.2,2.4-1.5c-0.7,0.6-1.3,1.5-1.7,2.5c0.1,0,0.1,0,0.2,0
					c0.2,0.1,0.3,0.5,0.4,0.7c0.1,0.3,0.1,0.7,0.5,0.9l0,0c0.4-0.8,1-1.6,1.4-2.3c0-0.1,0.1-0.2,0.2-0.3c0,0.1-0.1,0.2-0.2,0.3
					c-0.2,0.6,0,1.3,0,1.9c0,0.3-0.1,0.6-0.1,0.9c0.1,0.5,0.2,1,0.2,1.5c0.5,1.8,1.5,3.5,1.4,5.3c-0.1,1.1-0.4,2.2-0.5,3.3
					c0,1.1,0.1,2-0.7,2.9c-0.1,0.2-0.3,0.4-0.5,0.6c-0.2,0.6-0.5,1.1-0.8,1.7c-0.1,0.1,0,0.2,0.1,0.2c1.2,0.2,2.5,0.3,3.7,0.4
					c1,0.1,2,0.1,2.9,0.1c0.3,0,0.6,0,0.9,0c0.4,0,0.8,0,1.2,0c0.4-0.1,0.8-0.2,1.2-0.3c0.3-0.1,0.6-0.1,0.9-0.2
					c1-0.2,1.9-0.5,2.8-0.8c1.2-0.4,2.4-0.8,3.5-1.2c0.1,0,0.2-0.2,0.1-0.2c-0.3-0.3-0.5-0.5-0.7-0.8c-0.2-0.1-0.4-0.3-0.6-0.4
					c-2.1-1.2-2-3.6-2.5-5.4c-0.2-0.9-0.1-1.8-0.1-2.7c0-0.7-0.1-1.5,0-2.2c-0.1-0.7-0.1-1.4-0.2-2.1C45.2,44.2,45,41.6,46,40
					c0.3,1.4,0.2,2.8,0.3,4.3c0.2-0.1,0.3-0.2,0.5-0.3c0.4-0.3,0.3-0.7,0.3-1c0-0.1,0-0.4,0.1-0.5c-0.1-0.4-0.2-0.8-0.2-1.2
					c0.3,0.3,0.5,0.5,0.8,0.8c0.2-0.1,0.3-0.3,0.4-0.5c0.1-0.1,0.1-0.3,0.1-0.4c0-0.1,0.1-0.2,0.2-0.3c-0.6-0.3-1.3-0.5-1.8-0.8
					c0.7-0.1,1.6,0.1,2.4,0.2c-0.1-0.4-0.5-0.7-0.3-1.1c0-0.1,0.1-0.2,0.2-0.3c-0.6,0.1-1.2,0.2-1.8,0.2c0.7-0.2,1.3-0.4,2-0.5
					c0.1-0.1,0.2-0.2,0.3-0.3c0.2-0.1,0.4-0.2,0.4-0.4C49.9,38,49.8,37.9,49.8,37.9z"/>
				<path class="st39" d="M46,40c-0.9,1.6-0.8,4.2-0.3,5.9v-0.1c0-0.4-0.1-0.9-0.1-1.3c0.2-0.1,0.5-0.2,0.7-0.3
					C46.2,42.9,46.3,41.4,46,40z"/>
				<path class="st39" d="M47.1,42.5c0-0.1,0.1-0.1,0.1-0.2c0.1-0.1,0.2-0.1,0.3-0.1s0.1,0,0.2-0.1c-0.3-0.3-0.5-0.5-0.8-0.8
					C46.9,41.7,47,42.1,47.1,42.5z"/>
			</g>
		</g>
		<g id="Layer_4" class="st8">
			<path class="st41" d="M0.2,24.7c3.8,14,13.3,24.8,25,26.9c16.7,3.1,29.7-13,34.9-19.5C69.9,19.8,72.4,6.4,73.1,0
				c18.2,0,36.3,0.1,54.5,0.1c0,26.4-0.1,52.8-0.1,79.2c-42.5,0-85,0.1-127.5,0.1C0,61.1,0.1,42.9,0.2,24.7z"/>
		</g>
		<g id="Layer_5" class="st8">
			<g>
				<g>
					<path class="st42" d="M20.5,12.3c0,0.2,0,0.4,0.1,0.5c0.1,0.2,0.2,0.3,0.4,0.4c0.2,0.1,0.3,0.2,0.3,0.3s0.1,0.2,0.1,0.3
						s0,0.2-0.1,0.2c-0.1,0.1-0.1,0.1-0.3,0.1c-0.1,0-0.2,0-0.4-0.1c-0.2-0.1-0.3-0.1-0.4-0.1s-0.2,0-0.4,0.1c-0.2,0-0.3,0-0.4,0
						c-0.2,0-0.4-0.1-0.4-0.4c0-0.2,0-0.3,0-0.3s0.1-0.1,0.2-0.1s0.2-0.1,0.3-0.2c0.1-0.1,0.1-0.4,0.1-0.8c-0.2-3.8-0.2-5.7,0.1-9.5
						c0-0.2,0-0.4,0-0.6c0-0.2-0.1-0.3-0.3-0.4S19.1,1.5,19,1.4c0-0.1,0-0.2,0-0.3s0-0.1,0.1-0.2s0.1-0.1,0.2-0.1s0.3,0.1,0.5,0.1
						C20,1,20.1,1.1,20.2,1.1s0.3,0,0.4,0c0.2,0,0.3,0,0.5,0s0.2,0.2,0.2,0.4s0,0.2-0.1,0.3c0,0-0.1,0.1-0.2,0.1S20.8,2,20.7,2.1
						s-0.1,0.4-0.2,0.8C20.3,6.7,20.3,8.6,20.5,12.3z M24.7,12.4c0,0.2,0,0.4,0.1,0.5c0.1,0.2,0.2,0.3,0.4,0.4
						c0.2,0.1,0.3,0.2,0.3,0.2c0,0.1,0.1,0.1,0.1,0.2c0,0.1,0,0.2-0.1,0.2C25.4,14,25.3,14,25.2,14c-0.1,0-0.2,0-0.4-0.1
						c-0.2-0.1-0.3-0.1-0.4-0.1s-0.2,0-0.4,0.1c-0.2,0-0.3,0.1-0.4,0.1c-0.2,0-0.4-0.1-0.4-0.4c0-0.1,0-0.2,0-0.3
						c0,0,0.1-0.1,0.2-0.1s0.2-0.1,0.3-0.2c0.1-0.1,0.1-0.4,0.1-0.8c-0.1-2.1-0.1-3.1,0-5.2c0-0.2,0-0.3-0.1-0.4s-0.2-0.2-0.4-0.2
						c-0.9-0.1-1.3-0.1-2.2-0.2c-0.2,0-0.3-0.1-0.4-0.1c-0.1-0.1-0.1-0.2-0.1-0.3s0-0.2,0.1-0.3c0.1-0.1,0.2-0.1,0.4-0.1
						c1,0.1,1.4,0.1,2.4,0.2c0.1,0,0.2,0,0.3-0.1c0-0.1,0.1-0.2,0.1-0.4C24,3.9,24,3.2,24,2.9s-0.1-0.5-0.4-0.6
						c-0.1-0.1-0.2-0.2-0.2-0.3c0-0.1,0-0.2,0-0.3c0-0.1,0-0.1,0.1-0.2s0.1-0.1,0.2-0.1s0.3,0.1,0.5,0.1c0.2,0.1,0.3,0.1,0.4,0.1
						s0.3,0,0.4,0c0.2,0,0.3,0,0.5,0s0.2,0.1,0.2,0.4c0,0.1,0,0.2-0.1,0.3c0,0-0.1,0.1-0.2,0.1s-0.2,0.1-0.3,0.2
						C25,2.7,24.9,3,24.9,3.4C24.6,7,24.6,8.8,24.7,12.4z"/>
					<path class="st42" d="M29.5,12.6c0,0.4,0.2,0.7,0.5,0.8c0.1,0,0.1,0.1,0.2,0.1c0,0,0.1,0.1,0.1,0.3c0,0.1,0,0.1-0.1,0.2
						c0,0.1-0.1,0.1-0.2,0.1s-0.1,0-0.3-0.1c-0.1,0-0.2-0.1-0.3-0.1c-0.1,0-0.2,0-0.3,0.1c-0.1,0-0.2,0.1-0.2,0.1s-0.1,0-0.1-0.1
						s-0.1-0.1-0.1-0.2c0-0.1,0-0.1-0.1-0.1c0,0-0.1,0-0.1,0.1c-0.4,0.4-0.8,0.6-1.2,0.6c-0.2,0-0.4-0.1-0.7-0.3
						c-0.3-0.2-0.5-0.5-0.6-0.8c-0.2-0.4-0.3-0.8-0.3-1.4c0-0.6,0.1-1.1,0.5-1.5c0.3-0.4,0.8-0.6,1.3-0.6c0.2,0,0.4,0.1,0.6,0.3
						s0.3,0.3,0.3,0.5c0,0.1,0,0.1-0.1,0.2c0,0-0.1,0.1-0.2,0.1c0,0-0.1-0.1-0.3-0.2c-0.1-0.1-0.3-0.2-0.4-0.2
						c-0.3,0-0.5,0.1-0.7,0.4c-0.2,0.3-0.3,0.6-0.3,1.1s0.1,0.9,0.3,1.2s0.5,0.4,0.7,0.4s0.5-0.1,0.7-0.4c0.2-0.3,0.3-0.6,0.3-1
						c0-0.9,0-1.3,0-2.2c0-0.3-0.1-0.6-0.2-0.8s-0.3-0.3-0.5-0.3c-0.3,0-0.6,0.1-0.9,0.4c-0.1,0.1-0.2,0.1-0.2,0.1
						c-0.1,0-0.1,0-0.2-0.1S26.3,9.1,26.3,9c0-0.3,0.2-0.5,0.5-0.7s0.6-0.2,1-0.2s0.8,0.2,1.1,0.6c0.3,0.4,0.4,0.8,0.4,1.3
						C29.5,11,29.5,11.5,29.5,12.6z"/>
					<path class="st42" d="M31.3,15.2c0-0.3,0-1.1,0-2.5c0-0.7,0-1.6,0-2.9c0-0.1,0-0.2-0.1-0.3S31,9.3,30.8,9.3
						c-0.1,0-0.2-0.1-0.3-0.2c0-0.1-0.1-0.1-0.1-0.2c0-0.2,0.1-0.3,0.3-0.3c0,0,0.1,0,0.3,0.1c0.2,0.1,0.3,0.1,0.3,0.1
						s0.1,0,0.3-0.1c0.1-0.1,0.2-0.1,0.3-0.1c0.1,0,0.1,0,0.2,0.1c0,0.1,0,0.2,0,0.3c0,1.1-0.1,1.7-0.1,2.8c0,0.6,0.1,1,0.3,1.3
						s0.5,0.5,0.8,0.5c0.1,0,0.3-0.1,0.6-0.3c0.2-0.2,0.4-0.5,0.5-0.8c0.1-0.4,0.2-0.8,0.2-1.2c0-0.5-0.1-1-0.3-1.5
						c-0.2-0.4-0.5-0.7-0.8-0.7c-0.2,0-0.3,0-0.5,0.1s-0.3,0.1-0.3,0.1s-0.1,0-0.1-0.1c0,0-0.1-0.1,0-0.2c0-0.2,0.1-0.3,0.4-0.4
						c0.3-0.1,0.5-0.2,0.7-0.2c0.5,0,1,0.3,1.3,0.9c0.3,0.5,0.5,1.2,0.5,2.1c0,0.7-0.2,1.3-0.6,1.9c-0.4,0.6-0.8,0.9-1.3,0.9
						c-0.2,0-0.4,0-0.6-0.1c-0.2-0.1-0.4-0.3-0.7-0.6c0,0,0,0.1,0,0.4c0,0.7,0,1.2,0,1.5S32,16,31.9,16.3c-0.1,0.3-0.2,0.4-0.4,0.6
						c-0.1,0.1-0.2,0.2-0.4,0.2c-0.2,0-0.3-0.1-0.3-0.2s0-0.1,0.1-0.2c0.2-0.2,0.3-0.4,0.4-0.7C31.3,15.7,31.3,15.4,31.3,15.2z"/>
					<path class="st42" d="M36.4,15.1c0-0.3,0-1.1,0-2.3c0-0.6,0-1.5,0-2.7c0-0.1,0-0.2-0.1-0.3s-0.2-0.2-0.4-0.2
						c-0.1,0-0.2-0.1-0.3-0.1c0-0.1-0.1-0.1-0.1-0.2c0-0.2,0.1-0.3,0.3-0.3c0,0,0.1,0,0.3,0.1s0.3,0.1,0.3,0.1s0.1,0,0.3-0.1
						S37,9,37,9c0.1,0,0.1,0,0.2,0.1c0,0.1,0,0.2,0,0.3c-0.1,1-0.1,1.5-0.1,2.6c0,0.5,0.1,0.9,0.3,1.3c0.2,0.3,0.5,0.5,0.8,0.5
						c0.1,0,0.3-0.1,0.6-0.3c0.2-0.2,0.4-0.4,0.5-0.8c0.1-0.3,0.2-0.7,0.2-1.2s-0.1-1-0.3-1.4s-0.4-0.6-0.7-0.7
						c-0.2,0-0.3,0-0.5,0.1s-0.3,0.1-0.3,0.1s-0.1,0-0.1-0.1c0,0,0-0.1,0-0.2c0-0.1,0.1-0.3,0.4-0.4c0.3-0.1,0.5-0.2,0.7-0.2
						c0.5,0,1,0.3,1.3,0.8s0.5,1.2,0.4,2c0,0.6-0.2,1.2-0.6,1.8c-0.4,0.5-0.8,0.8-1.4,0.8c-0.2,0-0.4,0-0.6-0.1
						c-0.2-0.1-0.4-0.3-0.7-0.5c0,0,0,0.1,0,0.4c0,0.6,0,1.1-0.1,1.4c0,0.3-0.1,0.6-0.3,0.9c-0.1,0.2-0.2,0.4-0.4,0.5
						c-0.1,0.1-0.2,0.2-0.4,0.2s-0.3-0.1-0.3-0.2s0-0.1,0.1-0.2c0.2-0.2,0.3-0.4,0.4-0.6C36.3,15.6,36.4,15.4,36.4,15.1z"/>
					<path class="st42" d="M43.4,13.2c0.1,0,0.1,0.1,0.1,0.2c0,0.1-0.1,0.3-0.4,0.5c-0.3,0.2-0.5,0.3-0.8,0.3
						c-0.2,0-0.4-0.1-0.6-0.3c-0.2-0.2-0.3-0.4-0.4-0.6c0-0.3-0.1-0.7,0-1.4c0-0.6,0-0.8,0.1-1.4c0-0.4-0.1-0.6-0.3-0.7
						c-0.1,0-0.2-0.1-0.3-0.1s-0.1-0.1,0-0.2c0-0.1,0-0.1,0.1-0.2c0-0.1,0.1-0.1,0.1-0.1s0.1,0,0.3,0.1c0.1,0.1,0.2,0.1,0.3,0.1
						c0,0,0.1,0,0.3,0s0.2,0,0.3,0c0,0,0.1,0,0.1,0.1c0,0,0,0.1,0.1,0.1c0,0,0,0.4,0,0.9c0,0.6-0.1,1.1-0.1,1.6c0,0.4,0,0.7,0,0.8
						s0.1,0.3,0.2,0.4c0.1,0.1,0.2,0.2,0.4,0.2c0.1,0,0.3-0.1,0.4-0.2C43.3,13.3,43.4,13.2,43.4,13.2z M44.6,9.5
						c0.1,0,0.2,0.1,0.1,0.3c0,0.4-0.1,1-0.1,1.9c0,0.8-0.1,1.4-0.1,1.6c0,1-0.1,1.7-0.3,2.1s-0.4,0.7-0.5,0.9
						c-0.2,0.2-0.4,0.3-0.7,0.3c-0.2,0-0.4,0-0.6-0.1c-0.1-0.1-0.2-0.2-0.2-0.3v-0.1l0.1-0.1c0,0,0.1,0,0.2,0.1
						c0.1,0,0.2,0.1,0.3,0.1c0.2,0,0.4-0.1,0.5-0.3c0.2-0.2,0.3-0.4,0.3-0.7c0.1-0.3,0.1-0.7,0.1-1.3c0-2.1,0.1-3.2,0.2-3.5
						c0-0.2-0.1-0.4-0.3-0.5s-0.4-0.2-0.3-0.3c0-0.2,0.1-0.2,0.3-0.2c0.1,0,0.2,0,0.3,0.1c0.1,0,0.3,0.1,0.4,0.1
						C44.4,9.6,44.5,9.6,44.6,9.5C44.5,9.6,44.6,9.5,44.6,9.5z"/>
					<path class="st42" d="M50.7,5.3c0.1,0,0.2,0.2,0.2,0.5s0,0.6,0,0.8c0,0.2-0.1,0.4-0.3,0.3c0,0-0.1,0-0.1-0.1
						c0,0-0.1-0.2-0.1-0.4c0-0.2-0.1-0.4-0.2-0.5c-0.1-0.1-0.3-0.2-0.4-0.2c-0.2,0-0.4,0-0.5,0.1C49.1,6.1,49,6.3,49,6.5
						c-0.4,2.6-0.6,3.9-0.7,6.5c0,0.1,0,0.2,0.1,0.3c0,0.1,0.1,0.1,0.3,0.2c0.1,0.1,0.2,0.1,0.3,0.1v0.1c0,0.2-0.1,0.3-0.3,0.3
						c-0.1,0-0.2,0-0.4-0.1c-0.2,0-0.3-0.1-0.4-0.1c-0.1,0-0.2,0-0.4,0s-0.3,0-0.4,0c-0.1,0-0.2,0-0.3-0.1s-0.1-0.1-0.1-0.3
						c0-0.1,0-0.1,0-0.1s0.1-0.1,0.3-0.1c0.2-0.1,0.3-0.1,0.3-0.3c0.1-0.1,0.1-0.2,0.1-0.4c0.2-2.7,0.3-4,0.8-6.7
						c0.1-0.4-0.1-0.6-0.6-0.7c-0.3,0-0.5,0-0.7,0.2c-0.1,0.1-0.2,0.2-0.2,0.4C46.6,5.9,46.6,6,46.5,6h-0.1c-0.1,0-0.1,0-0.1-0.1
						l-0.1-0.1c0.1-0.5,0.2-0.8,0.3-1.1c0.1-0.3,0.2-0.4,0.4-0.4C48.4,5,49.2,5.1,50.7,5.3z"/>
					<path class="st42" d="M52.7,9.9c0.6,0,1,0.3,1.4,0.8s0.5,1,0.4,1.5c-0.1,0.6-0.3,1.1-0.7,1.5s-1,0.6-1.6,0.6
						c-0.5,0-1-0.2-1.4-0.6c-0.4-0.4-0.6-1-0.5-1.6s0.3-1.1,0.7-1.6C51.5,10,52,9.8,52.7,9.9z M52.3,13.7c0.4,0,0.7-0.2,1-0.5
						s0.4-0.7,0.5-1.2s0-0.9-0.2-1.2s-0.5-0.5-0.9-0.5s-0.7,0.1-1,0.4c-0.3,0.3-0.4,0.7-0.5,1.2s0,1,0.2,1.3
						C51.7,13.6,51.9,13.7,52.3,13.7z"/>
					<path class="st42" d="M60.1,6.7c0.1,0,0.2,0.1,0.2,0.4c0,0.2,0,0.5-0.1,0.7S60.1,8.1,60,8.1c0,0-0.1,0-0.1-0.1
						s-0.1-0.1-0.1-0.3c0-0.2-0.1-0.3-0.2-0.4s-0.3-0.1-0.4-0.2c-0.2,0-0.4,0-0.5,0.1s-0.2,0.3-0.3,0.5c-0.5,2.2-0.7,3.3-1,5.6
						c0,0.1,0,0.2,0,0.2c0,0.1,0.1,0.1,0.3,0.2c0.1,0,0.2,0.1,0.3,0.1v0.1c0,0.2-0.1,0.3-0.3,0.3c-0.1,0-0.2,0-0.4,0s-0.3,0-0.4-0.1
						c-0.1,0-0.2,0-0.4,0s-0.3,0-0.4,0c-0.1,0-0.2,0-0.3-0.1s-0.1-0.1-0.1-0.2c0,0,0-0.1,0.1-0.1c0,0,0.1-0.1,0.3-0.1
						s0.3-0.1,0.3-0.2c0.1-0.1,0.1-0.2,0.1-0.3c0.3-2.3,0.5-3.5,1-5.7c0.1-0.3-0.1-0.5-0.5-0.6c-0.3,0-0.5,0-0.7,0.1
						C56.1,7,56,7.1,56,7.2c-0.1,0.2-0.1,0.3-0.2,0.3h-0.1c-0.1,0-0.1,0-0.1-0.1l-0.1-0.1c0.1-0.4,0.2-0.7,0.3-0.9s0.2-0.3,0.4-0.3
						C57.7,6.4,58.5,6.5,60.1,6.7z"/>
					<path class="st42" d="M62,10.6c0.6,0,1,0.3,1.3,0.6c0.3,0.4,0.5,0.8,0.4,1.3s-0.4,0.9-0.8,1.3c-0.4,0.3-1,0.5-1.6,0.5
						c-0.5,0-1-0.2-1.3-0.5c-0.4-0.4-0.5-0.8-0.4-1.4c0.1-0.5,0.3-1,0.8-1.3C60.7,10.7,61.3,10.5,62,10.6z M61.4,13.8
						c0.4,0,0.7-0.1,1-0.4c0.3-0.3,0.4-0.6,0.5-1s0-0.7-0.2-1S62.2,11,61.8,11s-0.7,0.1-1,0.3s-0.4,0.6-0.5,1
						c-0.1,0.5,0,0.8,0.2,1.1C60.7,13.7,61,13.8,61.4,13.8z"/>
				</g>
			</g>
			<ellipse class="st43" cx="61.7" cy="12.5" rx="0.5" ry="0.5"/>
			<ellipse class="st43" cx="52.9" cy="12.5" rx="0.5" ry="0.5"/>
			<path class="st44" d="M53.4,17.1c-0.1,0.1,1.4,2.7,3.8,2.8c2.4,0.1,4-2.3,4-2.4c-0.1-0.1-1.3,1.5-3.3,1.7
				C55.4,19.3,53.6,16.9,53.4,17.1z"/>
		</g>
	</g>
	<text transform="matrix(1.0368 0 0 1 70.1764 34.2359)" class="st45 st46 st47">Welcome!!</text>
	<text transform="matrix(1 0 0 1 47.4682 45.1661)" class="st7"><tspan x="0" y="0" class="st48 st49 st50">                           Welcome to HappyToto </tspan><tspan x="0" y="4.8" class="st48 st49 st50">             game aiming to help your children  </tspan><tspan x="0" y="9.6" class="st48 st49 st50">protect themselves against child sexual abuse!!</tspan></text>
</g>
<g id="Layer_2">
	<rect x="-0.2" y="0" class="st51" width="127.3" height="79.4"/>
	<path class="st52" d="M-0.4,30.7c6.2-1,15.2-1.5,24.2,2.5c6.9,3.1,9.6,6.8,16.1,11.5l0,0c4.9,3.9,10.2,6.9,15.9,9.3
		c4.8,1.9,8.5,2.5,13.8,3.6C80,59.4,80.8,57.9,86.3,60c2.6,1,10.1,4.3,12.4,11.2c0.8,2.4,0.5,3.7,0.3,4c-1.1,3.2-6.2,4.9-12.9,4.3
		H-0.4V30.7z"/>
	<path class="st52" d="M30.3,0.1c8.8,4.3,17,9.7,24.6,16c3.8,3.2,3.1,3.2,6.4,5.9c4,3.4,8.4,6.3,13,8.8c10.9,5.6,15.2,0.6,26,4.7
		c12.7,4.7,19.2,16.1,20.9,19c4.3,7.6,6.4,16.3,6.1,25.1V0.1H30.3z"/>
	<g>
		<g>
			<defs>
				<rect id="SVGID_1_" x="86.9" y="4.1" width="21.7" height="24.9"/>
			</defs>
			<clipPath id="SVGID_2_">
				<use xlink:href="#SVGID_1_"  style="overflow:visible;"/>
			</clipPath>
			<g class="st53">
				<g>
					<g>
						<defs>
							<rect id="SVGID_3_" x="86.7" y="4" width="21.6" height="24.9"/>
						</defs>
						<clipPath id="SVGID_4_">
							<use xlink:href="#SVGID_3_"  style="overflow:visible;"/>
						</clipPath>
						<g transform="matrix(1 0 0 1 -7.629395e-06 0)" class="st54">
							<g>
								<defs>
									<rect id="SVGID_5_" x="86.6" y="4" width="21.6" height="24.9"/>
								</defs>
								<clipPath id="SVGID_6_">
									<use xlink:href="#SVGID_5_"  style="overflow:visible;"/>
								</clipPath>
								<g transform="matrix(1 0 0 1 -7.629395e-06 0)" style="clip-path:url(#SVGID_6_);">
									
										<use xlink:href="#eb"  width="135.3" height="121.9" x="-67.6" y="-61" transform="matrix(0.16 0 0 -0.2039 97.2681 16.4516)" style="overflow:visible;"/>
								</g>
							</g>
						</g>
					</g>
				</g>
			</g>
		</g>
	</g>
	<g>
		<g>
			<defs>
				<rect id="SVGID_7_" x="12" y="32" width="31.5" height="35.3"/>
			</defs>
			<clipPath id="SVGID_8_">
				<use xlink:href="#SVGID_7_"  style="overflow:visible;"/>
			</clipPath>
			<g class="st55">
				<g>
					<defs>
						<rect id="SVGID_9_" x="12" y="32" width="31.5" height="35.3"/>
					</defs>
					<clipPath id="SVGID_10_">
						<use xlink:href="#SVGID_9_"  style="overflow:visible;"/>
					</clipPath>
					<g style="clip-path:url(#SVGID_10_);">
						
							<use xlink:href="#ec"  width="112.5" height="123.6" x="-56.3" y="-61.8" transform="matrix(0.28 0 0 -0.2855 27.7155 49.5803)" style="overflow:visible;"/>
					</g>
				</g>
			</g>
		</g>
	</g>
	<g id="Layer_2_1_">
	</g>
	<text transform="matrix(1.1964 0 0 1 28.8316 22.1398)" class="st56 st57">1</text>
	<text transform="matrix(0.9807 0 0 1 57.4632 41.2269)" class="st56 st58">2</text>
	<text transform="matrix(1.0235 0 0 1 86.1123 53.2111)" class="st56 st59">3</text>
	<g id="Layer_3_1_">
	</g>
	<g>
		<rect x="65.3" y="34.7" class="st60" width="10.1" height="7.9"/>
		<g>
			<rect x="65.3" y="35.2" class="st35" width="10.1" height="0.8"/>
			<rect x="65.3" y="36.5" class="st35" width="10.1" height="0.8"/>
			<rect x="65.3" y="37.7" class="st35" width="10.1" height="0.8"/>
			<rect x="65.3" y="38.9" class="st35" width="10.1" height="0.8"/>
			<rect x="65.3" y="40.2" class="st35" width="10.1" height="0.8"/>
			<rect x="65.3" y="41.4" class="st35" width="10.1" height="0.4"/>
		</g>
		<rect x="64.7" y="32.1" class="st60" width="11.3" height="2.6"/>
		<g>
			<rect x="69" y="32.1" class="st61" width="2.3" height="10.5"/>
		</g>
		<g>
			<g>
				<path class="st62" d="M70,32.3c0,0-2.5,0.2-3.5-1.2c-0.1-0.1-0.1-0.2,0.4-0.3c0.6,0,0.4-0.9,0.3-1.2c-0.1-0.3,0.2-0.2,0.3-0.2
					c0.9,0.1,2.1,0.2,3,1.9C70.5,31.4,71,32.2,70,32.3z"/>
			</g>
			<g>
				<path class="st62" d="M70.2,32.3c0,0,2.5,0.2,3.5-1.2c0.1-0.1,0.1-0.2-0.4-0.3c-0.6,0-0.4-0.9-0.3-1.2c0.1-0.3-0.2-0.2-0.3-0.2
					c-0.9,0.1-2.1,0.2-3,1.9C69.7,31.4,69.2,32.2,70.2,32.3z"/>
			</g>
			<g>
				<path class="st62" d="M70.3,31.9c0,0,1.6,2.7,2.5,2.8l1-1.6l-3.1-1.9L70.3,31.9z"/>
			</g>
			<g>
				<path class="st62" d="M69.9,31.9c0,0-1.6,2.7-2.5,2.8l-1-1.6l3.1-1.9L69.9,31.9z"/>
			</g>
			<g>
				<path class="st63" d="M71,31.7c0,0.4-0.4,1-1,1c-0.6,0-1-0.6-1-1c0-0.4,0.5-0.7,1-0.7C70.6,31,71,31.3,71,31.7z"/>
			</g>
		</g>
	</g>
</g>
</svg>
