<svg xmlns="http://www.w3.org/2000/svg" viewBox="0 0 127.3 79.3"><path d="M15.6,34c.1-.3,6.7,1,6.9,1a14.17,14.17,0,0,0-.8,1.8,4.13,4.13,0,0,0,.2,1.9,4.06,4.06,0,0,1-3.5.8,3.55,3.55,0,0,1-2.9-1.8c.1-.5.2-1.1.3-1.6C15.7,35.5,15.7,34.8,15.6,34Z" style="fill:#7f5449"/><path d="M15.7,36.2a4.71,4.71,0,0,0,4.5,1.5,2.09,2.09,0,0,0,1.3-.7l.3-.6.2-.5v-.1c0-.1-.1-.1-.2-.1-1.7-.4-3.3-.7-5-1.2-.2,0-.4-.2-.6-.3s-.1,0-.3.3A4.42,4.42,0,0,1,15.7,36.2Z" style="fill:#63413b"/><path d="M35.6,67.2a2.65,2.65,0,0,1-.5.6.55.55,0,0,1-.5.3c-.1,0-.1.1-.2.1s-.1.1-.1.2a.6.6,0,0,1-.1.4c0,.1.2.2.3.3s.2,0,.2-.1a2.84,2.84,0,0,0,1.1-.8,1.23,1.23,0,0,0,.4-.8c0-.2.2-.4.2-.6.1.6-.5,1.2-.7,1.8a.37.37,0,0,1-.1.3l-.4.4a1,1,0,0,0-.4.5V70c0,.1.1.2.2.3s.3.4.5.3a.22.22,0,0,0,.2-.2l.4-.4.3-.3a3.1,3.1,0,0,0,.9-1.8,1.7,1.7,0,0,0-.1-.7c-.1-.1-.1-.2-.2-.3v-.2c-.1-.2-.2-.3-.3-.5s-.4-.3-.6-.4-.3-.1-.3.1-.1.3-.1.5C35.9,66.6,35.7,66.9,35.6,67.2Z" style="fill:#63413b"/><path d="M36.8,68.2c0,.2-.2.4-.2.6s-.3.4-.3.7c-.2.3-.3.6-.5.9,0,.1-.1.3-.1.4s.1.3,0,.5l.1.1a.3.3,0,0,0,.4,0c.1-.1.3-.3.3-.4.3-.6.7-1.2,1-1.9a11.56,11.56,0,0,0,.8-3.2,1.41,1.41,0,0,0-.1-.9c-.1-.3-.1-.8-.2-1.3,0-.1,0-.1-.1-.1s-.1,0-.1.1h0c-.1-.1-.2-.3-.4-.4a.9.9,0,0,0-.5-.1,2.2,2.2,0,0,0-.8.1.68.68,0,0,0-.4.6.37.37,0,0,1-.1.3v.1c-.1.2-.3.3-.3.5s-.1.3-.1.5-.1.3-.2.5l-.5,1.3a.37.37,0,0,1-.1.3c.1.1.2.1.3.2l.5.1h.2c.1,0,.1-.1.1-.2.2-.3.3-.6.5-.9l.1,1.2v.4c-.1.6-.2,1.1-.3,1.7a1.8,1.8,0,0,0-.2,1c0,.2.2.3.4.4s.4-.3.4-.4l.2-.7c0-.2.2-.4.2-.5s.1-.3.1-.5.2-.7.3-1c-.2-.2-.3-.7-.5-.9h0c0-.1,0-.2-.1-.2a1.23,1.23,0,0,0-.2,1c.1.1.1.1.1.2C36.8,68.1,36.7,68,36.8,68.2Z" style="fill:#7f5449"/><path d="M34.8,66.4h0c-.1.1-.2.3-.3.4s-.2.3.1.2l.4.1c.1,0,.2-.1.3-.2a.37.37,0,0,1,.1-.3v-.2c0-.1,0-.1-.1,0Z" style="fill:#b7825a"/><path d="M36.4,69.9c0,.1-.1.6-.1.7v.1h.1v-.2A.64.64,0,0,0,36.4,69.9Z" style="fill:#b7825a"/><path d="M35.8,65.9c0-.1,0-.1.1-.2a.3.3,0,0,1,.4,0v.1c.1.1.2.2.2.3a1.7,1.7,0,0,1,0,1,1.7,1.7,0,0,1,0,1,.37.37,0,0,1-.1.3c0,.1-.1.3-.1.4-.1.4-.1.8-.2,1.2l-.1.5v.2a.91.91,0,0,1,0-1c.1-.3.1-.6.2-.9l.1-.8c0-.2.1-.4.1-.6s-.1-.7-.1-1.2c-.1.2-.2.5-.3.7s-.6.3-.5.2a1.06,1.06,0,0,0,.2-.5C35.6,66.3,35.7,66.2,35.8,65.9Z" style="fill:#63413b"/><path d="M36,69.6a1.8,1.8,0,0,0-.2,1c0,.1,0,.1.1.1v.5h-.1c-.1,0-.1,0-.1-.1s0-.1-.1-.1v-.2a.88.88,0,0,1,.1-.7l.1-.3c0-.2,0-.2.2-.2l-.1.2" style="fill:#63413b"/><path d="M13.1,67.5a2.22,2.22,0,0,1,1.3.8,2,2,0,0,1,.3,1.1c.1.3-.6,6.9-.7,8.6a18.8,18.8,0,0,1-.2,4.1,20,20,0,0,0-1,2.1,10.59,10.59,0,0,0-.5,3.1,4.53,4.53,0,0,0,.3,1.6c.2,1,.2,1.8.3,2.7A19.27,19.27,0,0,1,13,94a1.23,1.23,0,0,1-.2,1,3.55,3.55,0,0,0-.4.9.6.6,0,0,1,.1.4c.2.8-.9,1.5-.6,2.3a1.76,1.76,0,0,0,1.9.7c.1,0,.2-.1.3-.1s.3.1.4.1a13.73,13.73,0,0,0,2.8.5h.2c.2-.1.4-.3.3-.5a1.42,1.42,0,0,1-.2-.6,13,13,0,0,1-1-1.5,13,13,0,0,1,.1-4.4,19.64,19.64,0,0,0,1.7-4.6,11.22,11.22,0,0,0,.4-4.8,7,7,0,0,1-.1-2.5c.1-.7,1.2-2,1.7-3.5a27,27,0,0,0,.7-4.1c.2-1.6.4-3.6.6-5.2a36.85,36.85,0,0,0,0-4.7c0-.6.7-2.1.7-2.7s.6-4.8.7-5.2c.3-1.9.8-3.8,1.1-5.8.1-.5.4-3.1.5-3.8,0-.2.1-.5.1-.7.2-.9,1.1,2.1,1.4,3s1.1,2.6.8,2.5c.3.8.6,1.1.9,2,.1.4.4.9.5,1.3s.2.7.3,1a9.49,9.49,0,0,0,.9,2.1c.4.4,3.6,3.8,3.9,4.2a16.6,16.6,0,0,0,1.6,2.1c.4.3.4.6.6.7a1.65,1.65,0,0,1,1.5-.5c.6,0,1-.1.7-.6-.5-1-.9-2-1.3-2.9a15.44,15.44,0,0,0-1.7-3.4,16.44,16.44,0,0,0-1.4-2.2c-.5-.7-1.3-1.6-1.9-2.4a19.65,19.65,0,0,1-1.3-2.5c-.4-1.1-1.4-3.9-1.6-4.9a10.93,10.93,0,0,0-.5-1.7,4.92,4.92,0,0,0-.6-1.7,4.74,4.74,0,0,0-1-1c-.5-.3-1.1-.6-1.7-.9-1.2-.5-1.9-.5-3.2-1a5.39,5.39,0,0,1-1.3.7,4.89,4.89,0,0,1-2.4.1" style="fill:#7f5449"/><path d="M18.3,39.4a5,5,0,0,1-2-.8,3.13,3.13,0,0,1-.9-1.1,19.33,19.33,0,0,0-3.4-.1,11,11,0,0,0-1.8.2,3.1,3.1,0,0,0-1.3.6,17.41,17.41,0,0,0-1.2,1.4c-.4.5-.7.9-1.1,1.5-.7.9-2.5,3.2-3.3,4.2a18.88,18.88,0,0,1-2,2c-.8.6-1.9,1.1-2.6,1.7s-1.6,1.2-2.1,1.6a35.69,35.69,0,0,0-2.8,2.7c-.4.5-1.9,1.9-2.3,2.3s-.2.6.5.8a2.15,2.15,0,0,1,1.2.9,3.51,3.51,0,0,0,.8-.5c.5-.2,1.7-1.2,2.2-1.4S.9,53,1.3,52.7A5.81,5.81,0,0,0,3,50.9c.3-.5.3-.6.6-.8A3.13,3.13,0,0,0,4.5,49l1.6-1.6c-.1,0,1.3-1.4,1.7-2.1.6-.7,2.5-3.4,2.3-2.4a1.27,1.27,0,0,0-.1.6c-.1.8-.7,3.2-.7,3.7-.4,1.9-.7,3.8-1,5.8-.1.4-1,4.7-1.1,5.1s-1,2-1.2,2.6c-.4.9-.4,3.6-.7,4.6-.4,1.6-.8,3.5-1.2,5.1a27,27,0,0,0-.7,4.1c-.1,1.6.5,3.1.4,3.8a9.43,9.43,0,0,1-1,2.3,9.47,9.47,0,0,0-1.3,4.7,40.08,40.08,0,0,0,.1,4.9A20.44,20.44,0,0,1,.3,94.4a3.27,3.27,0,0,1-1.5,1.1c.1,0-.1.2-.2.3a.35.35,0,0,0,.1.5h.2a8.42,8.42,0,0,0,2.7.4.9.9,0,0,0,.5.1c.1,0,.2.1.3.2a1.66,1.66,0,0,0,2-.1c.5-.6-.2-1.7.3-2.3.1-.1.3-.3.3-.4a1,1,0,0,0-.1-.9,1.23,1.23,0,0,1,.2-1c.2-.7.6-1.4.8-2.1a11.51,11.51,0,0,1,1.2-2.5,6.38,6.38,0,0,0,.8-1.4,10.59,10.59,0,0,0,.5-3.1c.1-1-.3-1.9-.2-2.3.3-1.3.8-2.6,1.2-4,.5-1.8,2.1-8.1,2.3-8.4s.3-.7.7-.9a1.52,1.52,0,0,1,1.3-.3" style="fill:#7f5449"/><path d="M5.8,61c.2-.5.5-1.2,1.1-1.2H7c3.7.5,15,1.9,15,2.2a1.7,1.7,0,0,1,0,1c-.3,2.4-4,3.6-7.8,4.9a2,2,0,0,1-1.1.1,3.26,3.26,0,0,1-1.4-.4c-1.9-1.2-5.9-3.7-6-5.8A2.2,2.2,0,0,1,5.8,61Z" style="fill:#000068"/><circle cx="13.7" cy="44.5" r="0.2" style="fill:#2d2d2d"/><circle cx="21.5" cy="45.7" r="0.2" style="fill:#2d2d2d"/><path d="M2.5,50.9a2.51,2.51,0,0,0,.4-.7c.2-.2.4-.5.7-.6a9,9,0,0,0,.9-1L5.6,47c.1-.2.3-.5.4-.7a1.42,1.42,0,0,1,.2-.6A8.34,8.34,0,0,0,7,44.5c.1-.2.2-.3.3-.5h.5a5.1,5.1,0,0,0,2.5-2.7,2.4,2.4,0,0,1,.7-1.2l.2.1a3.94,3.94,0,0,0,.1,2.4,1.42,1.42,0,0,1,.2.6c0,.2-.1.5-.1.7-.3,1.3.4,2.8.1,4.1-.2.5-.4,1-.6,1.4a3.26,3.26,0,0,0-.4,1.4l-.1.5c0,.2-.1.4-.1.6a5,5,0,0,1-.2,1.2c-.2.4-.3.8-.5,1.2a2.77,2.77,0,0,0-.1.9.3.3,0,0,1,0,.4c0,.1-.1.3-.1.4L9,57.3c-.1.2-.5.2-.7.1s-.1-.1-.2-.1c0-.2.1-.4.1-.6s.1-.3.1-.5l1.2-6.6.2-1,.2-1.1.3-2,.2-.9c.1-.4.1-.8.2-1.3,0-.2.1-.6-.1-.6s-.4.4-.4.5a7,7,0,0,0-1.3,1.7,15.58,15.58,0,0,1-1.6,2c-.7.6-1.4,1.4-2.2,2.1l-.8.8c-.2.3-.9,1.4-1.2,1.8a7.55,7.55,0,0,1-1.4,1.1l-1.2.6a4.12,4.12,0,0,0,1-1.3A2.91,2.91,0,0,0,2.5,50.9Z" style="fill:#63413b"/><path d="M28.2,30.3l.4.4c.1.2.1.5.2.7a2.72,2.72,0,0,1-.9,2.1,1.9,1.9,0,0,1-1.3.5.55.55,0,0,1-.5-.3.64.64,0,0,1,0-.6l.4-1.9C26.6,30.5,27.3,29.7,28.2,30.3Z" style="fill:#704843"/><path d="M11.6,27.6a.76.76,0,0,1-.5.2c-.1.2-.3.4-.3.6a3,3,0,0,0,.1,2.3c.1.4.6.7,1.1.9.2,0,.4.1.6-.1s.3-.4.2-.6L13,29C13.1,28.3,12.6,27.3,11.6,27.6Z" style="fill:#704843"/><path d="M14.2,23.7a6.86,6.86,0,0,0-1.4,3.9c-.1,1.3-.3,3.8-.3,4.2.3,2.3,3.6,4.4,3.9,4.6a5.16,5.16,0,0,0,4.2.6,8.51,8.51,0,0,0,5.3-3.4A8,8,0,0,0,27,30.2a17,17,0,0,0,.2-3.9,4.46,4.46,0,0,0-2.4-2.8,29.41,29.41,0,0,0-5.9-1.2A6.15,6.15,0,0,0,14.2,23.7Z" style="fill:#7f5449"/><path d="M13,28.5c.4-1.7,1-4.2,2.3-4.6,1-.4,4.1.6,5.5.8a42.93,42.93,0,0,1,5,.7A1.5,1.5,0,0,1,27,26.5a17.72,17.72,0,0,1-.1,4.6,1.85,1.85,0,0,0,.7-1.2,9.88,9.88,0,0,0,.7-4.8,6.62,6.62,0,0,0-3.7-4.3,18.36,18.36,0,0,0-5.7-.9,5.83,5.83,0,0,0-4.6,2.2A10.54,10.54,0,0,0,13,27C12.6,28.6,12.8,29,13,28.5Z" style="fill:#230700"/><path d="M18.2,32.2c.1-.1.3.4,1,.5s1-.2,1.1-.1-.1.7-.9.6S18,32.3,18.2,32.2Z" style="fill:#63413b"/><path d="M14.2,29.2c.1-.7,1.3-1,2.3-.9s1.8.8,1.7,1.4-.9,1-2,.9S14.1,29.9,14.2,29.2Z" style="fill:#ffecd8"/><path d="M16.8,26.9a2.85,2.85,0,0,0-1.3,0,.9.9,0,0,1-.5.1s.1-.8,1.7-.6c1.2.2,1.7.8,1.6.9S17.6,27,16.8,26.9Z" style="fill:#230601"/><ellipse cx="16.3" cy="29.5" rx="1.2" ry="1" transform="translate(-1.45 0.85) rotate(-2.86)" style="fill:#290600"/><circle cx="15.6" cy="29.3" r="0.4" style="fill:#fcfcfc"/><path d="M16.6,28a2,2,0,0,1,1.7,1.5c-.1.9,0-1-1.8-1.2a2,2,0,0,0-2.3,1.1C14.3,27.9,15.7,27.9,16.6,28Z" style="fill:#230601"/><path d="M23.5,28a2.84,2.84,0,0,1,1.2.4c.2.1.3.2.5.3,0-.1.1-.8-1.4-1.1-1.2-.2-1.8.2-1.8.3S22.9,27.9,23.5,28Z" style="fill:#230601"/><path d="M21.3,30.2c.1-.6,1.3-1,2.3-.8s1.8.8,1.7,1.4-.9,1-2,.9S21.2,30.9,21.3,30.2Z" style="fill:#ffecd8"/><ellipse cx="23.3" cy="30.7" rx="1.2" ry="1" transform="translate(-1.5 1.2) rotate(-2.86)" style="fill:#290600"/><circle cx="22.6" cy="30.4" r="0.4" style="fill:#fcfcfc"/><path d="M23.6,29.2a2,2,0,0,1,1.7,1.5c.1.9,0-1-1.8-1.2a2,2,0,0,0-2.3,1.1C21.4,29,22.8,29,23.6,29.2Z" style="fill:#230601"/><path d="M11.4,59.4a2.34,2.34,0,0,1-.7.7,33.4,33.4,0,0,0,7.7,1.2,3,3,0,0,1-.4-.8,3,3,0,0,0,.4.8,32.33,32.33,0,0,0,4.4-.1c-.1-.9-.2-1.5-.2-1.5A48.81,48.81,0,0,1,7.4,57.3a4.71,4.71,0,0,1-.6,1.5,20.32,20.32,0,0,0,3.9,1.4A2.7,2.7,0,0,0,11.4,59.4Z" style="fill:#17bc9c"/><path d="M22.7,64.6c-.2-1.4-.1-2.6-.2-3.5a26.73,26.73,0,0,1-4,.1C19,62.2,19.8,63.6,22.7,64.6Z" style="fill:#61e5cc"/><path d="M1.4,76.4l10,1.6.1-1.5L1.8,74.8C1.2,76,1.4,76.4,1.4,76.4Z" style="fill:#17bc9c"/><path d="M12.4,76.4,12.2,78l9.6,1.1a5.54,5.54,0,0,0,.2-1.8Z" style="fill:#17bc9c"/><path d="M11.4,60.2a35.33,35.33,0,0,1-4.6-1.5c-.4.8-.9,2-1.6,3.3A9.82,9.82,0,0,0,11.4,60.2Z" style="fill:#6bedd4"/><path d="M10.7,60a6.71,6.71,0,0,1-5.4,1.9c-1.1,4.6-2.5,9.6-3.5,12.8l9.6,1.6,1.7-6.8,1.5-8.7C13.3,60.6,12,60.3,10.7,60Z" style="fill:#56dbc1"/><path d="M22.7,64.6a7,7,0,0,1-4.2-3.3c-1.3-.1-2.6-.2-3.9-.4l-1.5,8.7-.6,6.9,9.6.9C22.2,74.2,22.6,69,22.7,64.6Z" style="fill:#49ceb4"/><path d="M22.3,38.5h0a.37.37,0,0,1,.3.1h.1c.1,0,.1,0,.1.1h.1c1.2.7,3.3,1.1,4.4,2,.8.8,2.1,5.1,3.2,6.3a.33.33,0,0,1,0,.5h0c-.6.4-1.6,1.1-1.8,1.2a17.23,17.23,0,0,1-2.1.7c-.3.1-.7,0-.7-.3a4.18,4.18,0,0,0-.4-1c-.2,0-.3-.1-.5-.1h0a19.1,19.1,0,0,0-1.2,4.7c-.1.7-.2,1.5-.3,2.6,0,.3-.1.7-.1,1.2-.1,2.2.1,5.3-.2,6.5,0,.2-.3.3-.5.3-2.7-.3-5.6-.8-8.3-1.1-1.4-.2-2.9-.4-4.2-.7-1.1-.3-2.5-.8-3.6-1-.3-.1-.5-.3-.4-.5a19.89,19.89,0,0,1,1.3-3.4,2.35,2.35,0,0,0,.2-.8,2.92,2.92,0,0,0,.2-.9c.1-.2.1-.5.2-.7a6.75,6.75,0,0,0,.2-1.4c.1-.5.2-1.1.3-1.6A4.71,4.71,0,0,1,9,49.5,10.08,10.08,0,0,0,9.5,47h0c0-.3.2-.6.2-.9v-.4H9.3c-.3,0-.8.5-.9.4a23.26,23.26,0,0,1-2.6-1.7l-1-1a.33.33,0,0,1,0-.5h0c.6-.8,2.6-2.9,2.8-3.2a8,8,0,0,1,1.3-1.3c.1-.2.7-.4,1-.6a7.72,7.72,0,0,1,1.5-.2l2.3-.3h.1c.1,0,.5-.1.6-.1.2.3.2,3.7,3.1,4.2C21.6,42.1,22.1,38.5,22.3,38.5Z" style="fill:#0e1a46"/><path d="M22.3,38.5a1.42,1.42,0,0,0,.6.2H23a16.52,16.52,0,0,1,4.1,1.8c1.1.7,1.5,2.6,1.9,3.8-.2.1-.5.3-.7.4-.6-1.1-.9-2.6-1.8-3.4a10.41,10.41,0,0,0-3.6-1.9h-.1a3.55,3.55,0,0,0-.9-.4A1,1,0,0,0,22.3,38.5Z" style="fill:#000333"/><path d="M14.5,37.2h-.7a10.39,10.39,0,0,0-3.9.4C8.6,38,7.2,40.1,6.4,41l.6.6c.9-.8,2.2-2.5,3.3-2.9a9.6,9.6,0,0,1,3.3-.6h.1c.3,0,.5-.1.9-.1A2.2,2.2,0,0,1,14.5,37.2Z" style="fill:#000333"/><path d="M9.7,45.9h0a5.68,5.68,0,0,0,.7-2.2c.1-.3.1-.5.2-.8a2.92,2.92,0,0,0,.2-.9c.1-.4.3-.9.4-1.3a5.83,5.83,0,0,0-.2-2.3h.1a4.44,4.44,0,0,1,.2,2.3,7.37,7.37,0,0,1-.4,1.4,2.35,2.35,0,0,0-.2.8c-.1.3-.1.5-.2.8A4.19,4.19,0,0,1,9.7,45.9Z" style="fill:#000333"/><path d="M24.9,48c-.3-.1-.5-1.2-.5-1.8a13.55,13.55,0,0,1,.6-6h.1a15.19,15.19,0,0,0-.6,6A5.84,5.84,0,0,0,24.9,48Z" style="fill:#000333"/><path d="M22.9,38.7h0a5.77,5.77,0,0,1-1.8,2.5,4.15,4.15,0,0,1-3.4.9,3.26,3.26,0,0,1-1.4-.4,4.51,4.51,0,0,1-2.5-4.3v-.1h.1a1.27,1.27,0,0,1,.6-.1h0a6.42,6.42,0,0,0,1.1,3,3.13,3.13,0,0,0,1.1.9,1.69,1.69,0,0,0,1,.3,4.31,4.31,0,0,0,2.7-.6,5.25,5.25,0,0,0,1.7-2.2l.1-.1" style="fill:#0b173c"/><path d="M22.9,38.7h0c-.1.2-.2.5-.3.7h0a6.55,6.55,0,0,1-1.5,1.8,3.85,3.85,0,0,1-3.4.8,5.73,5.73,0,0,1-1.4-.4,4.43,4.43,0,0,1-1.5-1.2,4.29,4.29,0,0,1-1-2.4,1.7,1.7,0,0,0-.1-.7v-.1h0a1.7,1.7,0,0,0,.1.7,4.29,4.29,0,0,0,1,2.4,5.66,5.66,0,0,0,1.5,1.2,3.58,3.58,0,0,0,1.1.4h.3a4.15,4.15,0,0,0,3.4-.9,6.55,6.55,0,0,0,1.5-1.8l.3-.5Zm-.6-.2h0a3.51,3.51,0,0,1-.5.8,3.74,3.74,0,0,1-1.3,1.5,4.31,4.31,0,0,1-2.7.6h-.3c-.3-.1-.5-.1-.7-.3a3.13,3.13,0,0,1-1.1-.9,5.12,5.12,0,0,1-1-2.1h0a2.77,2.77,0,0,1-.1-.9h0c0,.3.1.6.1.8a6.25,6.25,0,0,0,1,2.2,3.13,3.13,0,0,0,1.1.9,1.69,1.69,0,0,0,1,.3,4.31,4.31,0,0,0,2.7-.6,4.28,4.28,0,0,0,1.4-1.6A1.61,1.61,0,0,1,22.3,38.5Z" style="fill:#000333"/><path d="M25.6,48c-.2,0-.4-.1-.6,0-.1-.1-.1-.2-.2-.3a3,3,0,0,1-.4-1,2.85,2.85,0,0,1,0-1.3c0-.4-.1-.8-.1-1.3a11.63,11.63,0,0,1,.4,1.8c.1.4,0,.8.4,1.2a.76.76,0,0,1,.2.5C25.4,47.7,25.6,47.9,25.6,48Z" style="fill:#000333;opacity:0.4000000059604645;isolation:isolate"/><path d="M10.4,44.5a4.59,4.59,0,0,1-.7,1.6v-.4H9.3c.1-.3.3-.5.4-.8a4.88,4.88,0,0,1,.3-.7c.2-.6.4-1.3.6-1.9.1.1.1.2.1.4s-.1.3-.1.4C10.5,43.5,10.5,44,10.4,44.5Z" style="fill:#000333;opacity:0.4000000059604645;isolation:isolate"/><path d="M14.2,59.7a3.79,3.79,0,0,1-1.5,0c-1.5-.4-2.6-1.6-3.9-2.4-.2-.1-.3-.2-.5-.3s-.2-.2-.3-.2-.5-.1-.7-.1a2.35,2.35,0,0,0,.2-.8,1.3,1.3,0,0,1,1.3.5c.3.3.4.6.7.8,1,1.1,2.5,1.2,3.9,1.8A1,1,0,0,1,14.2,59.7Z" style="fill:#000333;opacity:0.25;isolation:isolate"/><path d="M23.4,56.5h0c-.1.1-.3,0-.4.1s-.1.1-.1.2a9.23,9.23,0,0,1-2.3,2.9,7,7,0,0,1,1.3-2.4c.1-.2.2-.3.2-.5s-.5-.4-.8-.4c0-.2.3-.4.5-.5a6.07,6.07,0,0,0,1-.7c.1-.1.3-.2.3-.4a1.28,1.28,0,0,0,0-1.2,13.1,13.1,0,0,1,0-2.8c.2,0,.3.4.3.6a2.77,2.77,0,0,0,.3,1.3c0,.1,0,.1.1.2-.1.7-.2,1.5-.3,2.6A3.4,3.4,0,0,0,23.4,56.5Z" style="fill:#000333;opacity:0.2199999988079071;isolation:isolate"/><path d="M9.3,51.2a2,2,0,0,0-.2,1.3c0,.3.2.7,0,1l-.3.3-1,1c.1-.2.1-.5.2-.7a6.75,6.75,0,0,0,.2-1.4c.1-.5.2-1.1.3-1.6A9.83,9.83,0,0,1,9,49.5,10.08,10.08,0,0,0,9.5,47h0a3.08,3.08,0,0,1,0,1.9.88.88,0,0,0-.1.7,1.42,1.42,0,0,0,.2.6,2.05,2.05,0,0,1,0,1.1A.37.37,0,0,1,9.3,51.2Z" style="fill:#000333;opacity:0.25;isolation:isolate"/><path d="M35.3,37.4c0-.3,6.5-.8,6.5-.8a14.92,14.92,0,0,0-.2,2.1,6.19,6.19,0,0,0,.7,1.9,4,4,0,0,1-3,1.7c-2.2.3-3.2-.9-3.2-1s-.1-.9-.1-1.7A8.08,8.08,0,0,0,35.3,37.4Z" style="fill:#7f5449"/><path d="M36.1,39.4a4.58,4.58,0,0,0,4.4-.2,2,2,0,0,0,.9-.9.45.45,0,0,0,0-.5v-.5h-.3a19.73,19.73,0,0,1-4.8.6c-.3,0-.4-.1-.7,0s-.2,0-.1.3A1.43,1.43,0,0,1,36.1,39.4Z" style="fill:#63413b"/><path d="M22,67.1a1.79,1.79,0,0,0,.5.7c.1.1.2.3.4.4s.1.1.2.1.1.1.1.2v.3c0,.1-.2.2-.3.2s-.2,0-.2-.1a2.36,2.36,0,0,1-.9-.8,3,3,0,0,1-.4-.8,1.42,1.42,0,0,0-.2-.6c-.1.6.4,1.2.6,1.8a.37.37,0,0,0,.1.3,1.38,1.38,0,0,1,.3.4c.1.1.2.3.3.4s.1.1.1.2-.1.2-.2.3-.2.3-.4.3a.22.22,0,0,1-.2-.2c-.1-.1-.2-.3-.3-.4s-.2-.2-.2-.3a4.17,4.17,0,0,1-.8-1.8c0-.2-.1-.5.1-.7s.1-.2.2-.3v-.2c0-.2.2-.3.3-.5a1,1,0,0,0,.5-.4c.2,0,.3,0,.3.1v.4A.92.92,0,0,0,22,67.1Z" style="fill:#63413b"/><path d="M20.8,67.7a1.42,1.42,0,0,0,.2.6l.3.6c.1.3.3.6.4.9v.4c0,.2-.1.3,0,.5l-.1.1c-.1.1-.3,0-.4-.1a.52.52,0,0,1-.2-.4,10.84,10.84,0,0,1-.8-1.9,10.59,10.59,0,0,1-.5-3.1,2.2,2.2,0,0,1,.1-.8,5.85,5.85,0,0,1,.2-1.3c0-.1,0-.1.1-.1s.1,0,.1.1h0c0-.1.2-.2.3-.3a.9.9,0,0,0,.5-.1c.2,0,.5.1.7.1s.3.3.3.5-.1.2,0,.3,0,.1.1.1a.76.76,0,0,1,.2.5c0,.2-.1.3,0,.5a.6.6,0,0,1,.1.4c.2.4.4.9.6,1.4,0,.1.1.2,0,.3a.37.37,0,0,1-.3.1.9.9,0,0,0-.5.1H22c-.1,0-.1-.1-.1-.2-.1-.3-.3-.6-.4-.9a5,5,0,0,1-.2,1.2v.4c.1.5,0,1.1.1,1.6s.2.7.1,1-.2.3-.3.3a.45.45,0,0,1-.3-.4,1.85,1.85,0,0,0-.2-.7c0-.2-.1-.3-.1-.5a.9.9,0,0,0-.1-.5,3.55,3.55,0,0,0-.2-1,4.05,4.05,0,0,0,.5-.9h0c0-.1,0-.2.1-.2.2.3.3.7.1.9,0,.1,0,.1-.1.2S20.9,67.7,20.8,67.7Z" style="fill:#7f5449"/><path d="M22.7,66.4h0c0,.1.1.3.1.4s.1.3-.1.2h-.4c-.1,0-.2-.1-.3-.2v-.5c0-.1.1-.1.1,0A1.27,1.27,0,0,0,22.7,66.4Z" style="fill:#b7825a"/><path d="M21,69.7c0,.1.1.6.1.7s0,.1-.1.1h-.1c-.1-.1-.1-.1-.1-.2s-.1-.6,0-.7Z" style="fill:#b7825a"/><path d="M21.7,65.9c0-.1,0-.1-.1-.2a.19.19,0,0,0-.3,0h0c-.1.1-.2.2-.2.3-.1.3,0,.6-.1,1a1.73,1.73,0,0,0-.1,1,.37.37,0,0,0,.1.3v.4c0,.4.1.8.1,1.2v.6c.2-.3.1-.6.1-1s-.1-.6-.1-.8-.1-.5-.1-.7v-.6a5,5,0,0,1,.2-1.2c.1.2.1.5.3.7s.5.4.4.3-.1-.4-.1-.5C21.9,66.3,21.9,66.1,21.7,65.9Z" style="fill:#63413b"/><path d="M21.5,69.3c0,.3.2.7,0,1,0,.1,0,.1-.1.1l-.1.1v.3h.1c.1,0,.1,0,.1-.1l.1-.1.1-.2c.1-.2,0-.4-.1-.7v-.2c-.1-.1-.1-.1-.1-.2h0" style="fill:#63413b"/><path d="M61,62.7c-.1.2-.1.4-.3.8-.1.2-.2.3-.3.5-.1,0-.1.1-.2.1s-.1.1-.1.2v.3c0,.1.2.2.3.2s.2,0,.2-.1a1.83,1.83,0,0,0,.7-1,1.88,1.88,0,0,0,.2-.8v-.6c.3.6-.1,1.3-.2,1.9a.37.37,0,0,1-.1.3,39337323868119.49,39337323868119.49,0,0,1-.4.8c0,.1-.1.1-.1.2s.1.2.2.3.3.3.5.2a.22.22,0,0,0,.2-.2.52.52,0,0,0,.2-.4c.1-.1.2-.2.2-.3a4.06,4.06,0,0,0,.4-1.9.91.91,0,0,0-.3-.7c-.1-.3-.1-.4-.2-.5v-.2c0-.2-.2-.3-.4-.4a1.42,1.42,0,0,0-.6-.2c-.2,0-.3,0-.3.1a.6.6,0,0,0,.1.4A1,1,0,0,1,61,62.7Z" style="fill:#63413b"/><path d="M62.2,62.9v.6c-.1.2-.1.4-.2.6a8.66,8.66,0,0,0-.2,1v.4c0,.2.1.3.1.5l.1.1c.1.1.3,0,.4-.1s.2-.3.1-.4a6.93,6.93,0,0,0,.3-2,11.5,11.5,0,0,0-.2-3.2,1.14,1.14,0,0,0-.3-.8,6.12,6.12,0,0,0-.5-1.2c0-.1,0-.1-.1-.1s-.1,0-.1.1c0-.1-.2-.2-.4-.3a.9.9,0,0,0-.5.1.86.86,0,0,0-.6.3c-.2.1-.2.3-.2.5s.1.2,0,.3,0,.1-.1.1a.44.44,0,0,0-.1.5c0,.2.1.3.1.5s-.1.3,0,.4l-.3,1.5c0,.1-.1.2,0,.3a.37.37,0,0,0,.3.1.9.9,0,0,0,.5-.1h.2c.1,0,.1-.1.1-.2.1-.3.1-.6.2-1,.1.4.3.7.4,1.1v.4c.1.5.2,1.1.3,1.6a3.4,3.4,0,0,0,.1,1c.1.2.2.3.4.3s.3-.2.2-.4v-.7c0-.2.1-.3,0-.5a.9.9,0,0,0-.1-.5,1.7,1.7,0,0,1,0-1,5.55,5.55,0,0,1-.6-.8h0c0-.1,0-.2-.1-.2a.74.74,0,0,0,.1.9c0,.1,0,.1.1.2A1.27,1.27,0,0,1,62.2,62.9Z" style="fill:#7f5449"/><path d="M60.1,62.2h0c0,.1-.1.3,0,.4s-.1.3.1.2h.4c.1,0,.2-.1.3-.2v-.5c0-.1-.1-.1-.1,0A1.7,1.7,0,0,1,60.1,62.2Z" style="fill:#b7825a"/><path d="M62.4,65c0,.1.1.6.1.7s0,.1.1.1h.1c.1-.1.1-.1.1-.2a1.85,1.85,0,0,0-.2-.7Z" style="fill:#b7825a"/><path d="M60.9,61.5c0-.1,0-.1.1-.2a.19.19,0,0,1,.3,0h0c.1.1.2.2.2.3.1.3.2.6.3,1s.4.7.3,1a.37.37,0,0,1-.1.3v.4c0,.4.1.8.1,1.2v.6a1.21,1.21,0,0,1-.3-1c0-.3-.1-.6-.1-.8s-.1-.5-.1-.7a.73.73,0,0,0-.2-.6c-.1-.4-.3-.7-.4-1.1-.1.2,0,.5-.1.7s-.4.5-.3.3v-.5C60.9,61.9,60.8,61.7,60.9,61.5Z" style="fill:#63413b"/><path d="M61.9,64.8a1.8,1.8,0,0,0,.2,1c0,.1,0,.1.1.1l.1.1v.3h-.1c-.1,0-.1,0-.1-.1l-.1-.1v-.2c-.1-.2,0-.4-.1-.7V65c.1-.1.1-.1,0-.2h0" style="fill:#63413b"/><path d="M39.1,41.3a4.42,4.42,0,0,1-2-.2,3.92,3.92,0,0,1-1-.8,24.6,24.6,0,0,0-2.9.7,10.09,10.09,0,0,0-1.5.7,2,2,0,0,0-.9.9c-.2.5-.5,1-.7,1.5s-.4,1.1-.6,1.6a36.56,36.56,0,0,1-1.8,4.6,17.1,17.1,0,0,1-1.3,2.3c-.6.8-1.3,1.5-1.8,2.2-.4.5-1.1,1.6-1.4,2A19.12,19.12,0,0,0,21.6,60c-.2.4-1.2,2.3-1.3,2.7s0,.5.6.7.7-.1,1.1.3c.2-.1.4-.6.6-.8s1.1-1.5,1.4-1.8,2.9-3.3,3.3-3.7c.4-.6.8-1.2,1.2-1.9a4.87,4.87,0,0,0,.4-1.1c.1-.4.3-.9.4-1.3.4-.8.6-1.2.9-1.9-.1,0,.8-1.6,1.1-2.5.5-1,1.6-3.5,1.7-2.5,0,.3,1.7,8,1.9,10.3a17.91,17.91,0,0,1-.4,4.6c-.1.6-.4,2.8-.5,3.4a36.88,36.88,0,0,0-.1,4.7c.1,1.5.3,2.7.4,4.2a26.29,26.29,0,0,0,.6,3.9c.4,1.5.8,2.9.9,3.5s.6,1.8.4,2.4a12.38,12.38,0,0,0,0,4.7c.3,1.7.9,2.9,1.3,4.5.1.3,1.1,3,.6,4.1a4.51,4.51,0,0,1-1,1.4.52.52,0,0,0-.2.4c0,.1,0,.4.2.5h.2a5.66,5.66,0,0,0,1.8-.3c.1,0,.3-.1.4,0a.37.37,0,0,0,.3.1,1.47,1.47,0,0,0,1.7-.6c.3-.8-.6-1.5-.4-2.3.1-.1,0-.3,0-.5a1.06,1.06,0,0,0-.1-.8,15.26,15.26,0,0,1-.3-3,10.45,10.45,0,0,1,0-2.5,8.75,8.75,0,0,0,.2-1.6,16.28,16.28,0,0,0-.3-3.1,8.33,8.33,0,0,1-.3-2.2,17.37,17.37,0,0,1,.5-3.9c.2-1.7.2-8.1.2-8.4a2.54,2.54,0,0,1,.2-1.2c.2-.3.4-.6.8-.6" style="fill:#7f5449"/><path d="M39.1,41.3a4.42,4.42,0,0,1-2-.2,3.92,3.92,0,0,1-1-.8,24.6,24.6,0,0,0-2.9.7,10.09,10.09,0,0,0-1.5.7,2,2,0,0,0-.9.9c-.2.5-.5,1-.7,1.5s-.4,1.1-.6,1.6a36.56,36.56,0,0,1-1.8,4.6,17.1,17.1,0,0,1-1.3,2.3c-.6.8-1.3,1.5-1.8,2.2-.4.5-1.1,1.6-1.4,2A19.12,19.12,0,0,0,21.6,60c-.2.4-1.2,2.3-1.3,2.7s0,.5.6.7.7-.1,1.1.3c.2-.1.4-.6.6-.8s1.1-1.5,1.4-1.8,2.9-3.3,3.3-3.7c.4-.6.8-1.2,1.2-1.9a4.87,4.87,0,0,0,.4-1.1c.1-.4.3-.9.4-1.3.4-.8.6-1.2.9-1.9-.1,0,.8-1.6,1.1-2.5.5-1,1.6-3.5,1.7-2.5,0,.3,1.7,8,1.9,10.3a17.91,17.91,0,0,1-.4,4.6c-.1.6-.4,2.8-.5,3.4a36.88,36.88,0,0,0-.1,4.7c.1,1.5.3,2.7.4,4.2a26.29,26.29,0,0,0,.6,3.9c.4,1.5.8,2.9.9,3.5s.6,1.8.4,2.4a12.38,12.38,0,0,0,0,4.7c.3,1.7.9,2.9,1.3,4.5.1.3,1.1,3,.6,4.1a4.51,4.51,0,0,1-1,1.4.52.52,0,0,0-.2.4c0,.1,0,.4.2.5h.2a5.66,5.66,0,0,0,1.8-.3c.1,0,.3-.1.4,0a.37.37,0,0,0,.3.1,1.47,1.47,0,0,0,1.7-.6c.3-.8-.6-1.5-.4-2.3.1-.1,0-.3,0-.5a1.06,1.06,0,0,0-.1-.8,15.26,15.26,0,0,1-.3-3,10.45,10.45,0,0,1,0-2.5,8.75,8.75,0,0,0,.2-1.6,16.28,16.28,0,0,0-.3-3.1,8.33,8.33,0,0,1-.3-2.2,17.37,17.37,0,0,1,.5-3.9c.2-1.7.2-8.1.2-8.4a2.54,2.54,0,0,1,.2-1.2c.2-.3.4-.6.8-.6" style="fill:#7f5449"/><path d="M38.8,41.3a6,6,0,0,0,1.9-.6,1.59,1.59,0,0,0,.8-1,15.06,15.06,0,0,1,3,.1l1.6.3a2.59,2.59,0,0,1,1.1.7,6.42,6.42,0,0,0,1,1.3l.9,1.5c.6,1,2.1,3.3,2.7,4.1a16.32,16.32,0,0,0,1.7,2,19.52,19.52,0,0,0,2.3,1.7c.5.4,1.4,1.3,1.8,1.7.5.6,2,2.3,2.3,2.7s1.6,2,1.9,2.4.1.5-.5.8-.7.1-1,.5c-.2-.1-.5-.5-.7-.6-.4-.3-1.4-1.2-1.8-1.5l-4-2.9a12.09,12.09,0,0,1-1.6-1.6c-.3-.4-.5-.7-.7-1a12.75,12.75,0,0,1-.7-1.2,7.52,7.52,0,0,1-1.5-1.6c.1,0-1.1-1.4-1.7-2.2s-2.3-3.1-2.2-2c0,.3.1,8.2.4,10.5a22.53,22.53,0,0,0,1.4,4.4A17.55,17.55,0,0,1,48.4,63a37.45,37.45,0,0,1,1.2,4.5c.3,1.5.3,2.7.6,4.2a17,17,0,0,1,.2,3.9c0,1.6-.1,3-.1,3.6s-.2,1.9.2,2.5a14,14,0,0,1,1,4.5,37.08,37.08,0,0,1-.3,4.7c-.1.3-.4,3.1.3,4.1a3.48,3.48,0,0,0,1.3,1.1c.1.1.3.3.3.4s0,.4-.1.5h-.2a3.67,3.67,0,0,1-1.8.1c-.1,0-.3-.1-.4,0a.37.37,0,0,1-.3.1,1.38,1.38,0,0,1-1.8-.2c-.5-.7.3-1.6-.2-2.4-.1-.1,0-.3-.1-.5a2.2,2.2,0,0,1-.1-.8,15.26,15.26,0,0,0-.3-3,10.55,10.55,0,0,0-.6-2.4,8.8,8.8,0,0,1-.5-1.5,16.28,16.28,0,0,1-.3-3.1,17.85,17.85,0,0,0-.2-2.3,16.57,16.57,0,0,0-1.4-3.7c-.6-1.7-2-8-2-8.3a3.7,3.7,0,0,0-.5-1.1.81.81,0,0,0-.9-.4" style="fill:#7f5449"/><path d="M33.9,63.5a21.66,21.66,0,0,1,.4-2.5c.1-.2,12.5-1.7,13.7-1.5.2,0,.6,1.4.9,2.3s-5.3,6.1-5.9,6.7a2.66,2.66,0,0,1-1.2.3,1.85,1.85,0,0,1-.7-.2C39.8,67.6,33.8,63.7,33.9,63.5Z" style="fill:#000068"/><circle cx="36.5" cy="47.2" r="0.2" style="fill:#2d2d2d"/><circle cx="44.1" cy="46.3" r="0.2" style="fill:#2d2d2d"/><path d="M46.1,29.6a1.38,1.38,0,0,1,.4.3c.2.2.2.4.3.6a2.77,2.77,0,0,1-.3,2.5,1.33,1.33,0,0,1-1.1.8,1.27,1.27,0,0,1-.6-.1c-.2-.1-.2-.4-.2-.6a14.77,14.77,0,0,1-.1-2.1C44.6,30.2,45.1,29.2,46.1,29.6Z" style="fill:#704843"/><path d="M29.8,31.4q-.3.15-.3.3c-.2.2-.1.4-.2.6a3.07,3.07,0,0,0,.8,2.4,1.61,1.61,0,0,0,1.3.6c.2,0,.4,0,.5-.3a.64.64,0,0,0,0-.6c-.1-.7-.2-1.3-.3-2C31.3,31.6,30.6,30.8,29.8,31.4Z" style="fill:#704843"/><path d="M31.1,26.6c-.6,1-.5,3.3-.3,4.4a31.29,31.29,0,0,0,1,4.4c.9,2.4,4.6,3.6,4.9,3.7a4.6,4.6,0,0,0,4.1-.6,8.64,8.64,0,0,0,4-5,9.23,9.23,0,0,0,.1-3.7,31,31,0,0,0-.8-4.2A3.83,3.83,0,0,0,41,23.5a18.93,18.93,0,0,0-5.8.4A5.84,5.84,0,0,0,31.1,26.6Z" style="fill:#7f5449"/><path d="M37.3,34.3c.1-.1.3.3,1.1.2s.8-.5,1-.4.2.7-.7.9C37.5,35.1,37.1,34.5,37.3,34.3Z" style="fill:#63413b"/><path d="M34.5,29.2c-.5.1-.9.2-1.3.3-.2,0-.3.2-.4.3,0-.1-.1-.9,1.5-1.1,1.3-.1,1.7.3,1.7.5S35.2,29.1,34.5,29.2Z" style="fill:#1c0803"/><path d="M41,28.5a2.88,2.88,0,0,1,1.3.1c.2.1.3.1.5.2,0-.1-.1-.9-1.7-.7-1.3.1-1.6.7-1.5.9A5.78,5.78,0,0,1,41,28.5Z" style="fill:#1c0803"/><path d="M30.2,30.2a6.94,6.94,0,0,1-.14-1.64A6.27,6.27,0,0,1,30.3,27v-.2c-.2-.1-.4-.1-.5.1s-.2.2-.2.3a1,1,0,0,1-1,.4.87.87,0,0,1-.8-.6,1.85,1.85,0,0,0-.2-.7,1.6,1.6,0,0,1-2-.8,1.39,1.39,0,0,1,1.1-1.7h.1a3,3,0,0,1-.5-1.6,1.55,1.55,0,0,1,1.1-.8c.4,0,1.1.2,1.2.6a1.24,1.24,0,0,1,1.5-.8c.1,0,.2.1.3.1.5.3.9.9.4,1.4.4-.1.5-.2.8-.1s.5.2.5.5c.2.6-.7,1-.6,1.4.3.5.6-.3,1-.4a11.31,11.31,0,0,1,3.9-1.7,11.86,11.86,0,0,1,4.2-.1,6.19,6.19,0,0,1,1.9.7c.1,0,.3-.1.3-.2v-.1c.1-.3-.3-.7-.3-1-.2-.7.5-1.4,1.6-1a1,1,0,0,1,.2-1.5,1.42,1.42,0,0,1,.6-.2,1.26,1.26,0,0,1,1.7.8c0,.1,0,.1.1.2s-.2.3,0,.4.4-.1.5-.3a1.55,1.55,0,0,1,1.4.5A1.49,1.49,0,0,1,49,22c-.2.6-.7.6-1,.7l.4.3a1.36,1.36,0,0,1-.1,1.6c-.4.5-1.5.6-1.8.1-.1-.1-.3,0-.4.1s-.2.2-.2.3c-.2.1-.3-.3-.5-.4s-.5.2-.5.3c.6.3.5,1.3.7,2v2.3c-.1.4-.2,1.8-.6,1.7a15.53,15.53,0,0,0-.8-3.6,4.18,4.18,0,0,0-1.1-1.8,3.63,3.63,0,0,0-1.7-.7,14.29,14.29,0,0,0-6.5.5,9.17,9.17,0,0,0-2.3.9l-.5.4a3,3,0,0,0-1.27,2.68c0,.53.09,1.06.13,1.59s.09,1.19.13,1.77c-.13-.28-.29-.67-.47-1.16A9.44,9.44,0,0,1,30.2,30.2Z" style="fill:#230700"/><path d="M29.8,24.5a1.55,1.55,0,0,1,2-.9c.1,0,.2.1.3.1a.55.55,0,0,0,.3.5c.2,0-.8.6-1.2,1.3a6.12,6.12,0,0,0-.5,1.2,4.71,4.71,0,0,1-.5-.2.76.76,0,0,1-.4-.2A1.5,1.5,0,0,1,29.8,24.5Z" style="fill:#bc66cc"/><path d="M45.2,22.6a1.52,1.52,0,0,0-2.2-.5c-.1.1-.2.1-.3.2s-.2.3-.4.5c-.2,0,1.1.6,1.6,1.2a4.44,4.44,0,0,1,.8,1.1c.2-.1.4-.3.6-.4A1.45,1.45,0,0,0,45.2,22.6Z" style="fill:#bc66cc"/><path d="M32.9,32.2c-.1-.7.9-1.3,1.8-1.4.7-.1,1.8.3,1.9,1s-.5,1.3-1.5,1.4S33,32.9,32.9,32.2Z" style="fill:#ffecd8"/><ellipse cx="34.92" cy="32.03" rx="1.1" ry="1" transform="translate(-11.26 42.66) rotate(-55.49)" style="fill:#290600"/><circle cx="34.3" cy="31.9" r="0.4" style="fill:#fcfcfc"/><path d="M34.8,30.4a1.75,1.75,0,0,1,1.9,1.1c.3.9-.3-1-2-.8a1.94,1.94,0,0,0-1.8,1.8C32.6,30.9,33.9,30.5,34.8,30.4Z" style="fill:#230601"/><path d="M39.6,31.5c-.1-.7.9-1.3,1.8-1.4.7-.1,1.8.3,1.9,1s-.5,1.3-1.5,1.4S39.7,32.2,39.6,31.5Z" style="fill:#ffecd8"/><ellipse cx="41.57" cy="31.22" rx="1.1" ry="1" transform="translate(-7.71 47.79) rotate(-55.49)" style="fill:#290600"/><circle cx="41" cy="31.2" r="0.4" style="fill:#fcfcfc"/><path d="M41.5,29.6a1.75,1.75,0,0,1,1.9,1.1c.3.9-.3-1-2-.8a1.94,1.94,0,0,0-1.8,1.8C39.3,30.1,40.6,29.7,41.5,29.6Z" style="fill:#230601"/><path d="M36,61.6c.5-1.3,1.1-2.6,1.6-4l-1.4.2c-4,7.9-8.8,15.5-12.9,23.3a17.1,17.1,0,0,0,3.2,0,3.3,3.3,0,0,1,2.7.7c1.3-3.4,2.6-6.8,3.8-10.2S34.7,64.9,36,61.6Z" style="fill:#b01f24"/><path d="M35.5,74.2c-.1-1.7.3-3.6.1-5.3-.8,4.4-1,8.9-2.2,13.2a8,8,0,0,1,1.6-.8c.1-.7.1-1.4.2-2.1C35.3,77.5,35.5,75.8,35.5,74.2Z" style="fill:#b01f24"/><path d="M35.2,57.9,21.3,80.7a4.48,4.48,0,0,0,2,.4c4.1-7.9,8.9-15.5,12.9-23.3Z" style="fill:#d61f27"/><path d="M38.1,66.5a22.37,22.37,0,0,1,.5-6.3c-1.2,1.6-1.3,4.4-1.7,6.3-.6,2.4-.7,4.9-1.1,7.4-.3,2.3-.2,4.7-.4,7.1v.4a2.66,2.66,0,0,1,1.2.3,5.78,5.78,0,0,0,1.4.5c-.2-2.5.1-5.2,0-7.6A73,73,0,0,1,38.1,66.5Z" style="fill:#b01f24"/><path d="M50.5,66.1a.46.46,0,0,0-.4-.5H50a1.21,1.21,0,0,0,.5.5Z" style="fill:#d61f27"/><path d="M45.3,56.8l-1.5.2c.8,1,1.5,2,2.3,3.1A5.42,5.42,0,0,0,45.3,56.8Z" style="fill:#d61f27"/><path d="M45.7,57a5.44,5.44,0,0,1,.6,3.3c1.2,1.7,2.4,3.4,3.6,5.2.4,0,.7.1.8.5a.9.9,0,0,1-.1.5c1,1.3,2,2.7,3,3.9a55.76,55.76,0,0,0,5.8,6.1,8,8,0,0,0,1.3,1.3,16.32,16.32,0,0,0,2-1.7Z" style="fill:#d61f27"/><path d="M42.9,63.5h0a2,2,0,0,0-.4-.8A2,2,0,0,0,42.9,63.5Z" style="fill:#d61f27"/><path d="M41.4,70.2a1.27,1.27,0,0,0-.1-.6A1.27,1.27,0,0,0,41.4,70.2Z" style="fill:#d61f27"/><path d="M49,66.7c.5.1,1.2.1,1.4-.4a2.09,2.09,0,0,1-.4-.6h-.1a1.14,1.14,0,0,0-.8.3c-.2.1-.3.3-.5.5,0,.1,0,.1.1.2Z" style="fill:#b01f24"/><path d="M47.1,63.4a24.37,24.37,0,0,0,1.4,2.8,2.59,2.59,0,0,1,1.1-.7h.2c-1.2-1.7-2.4-3.5-3.6-5.2a2.35,2.35,0,0,1-.2.8A16.27,16.27,0,0,1,47.1,63.4Z" style="fill:#b01f24"/><path d="M53.6,70.4l-3-3.9a1,1,0,0,1-.5.4,2.44,2.44,0,0,1-1.2,0c.7,1.2,1.3,2.3,1.9,3.4,1.5,2.7,2.7,5.7,4.3,8.3.2.3.3.5.5.8h.5a6.31,6.31,0,0,0,4.5-1.5,8,8,0,0,0-1.3-1.3A83.72,83.72,0,0,1,53.6,70.4Z" style="fill:#b01f24"/><path d="M45.7,60.7c0,.1.1.1.1.2.1-.3.1-.5.2-.8h0c-.7-1-1.5-2.1-2.3-3.1h-.3C43.4,58.2,45.2,59.8,45.7,60.7Z" style="fill:#b01f24"/><path d="M40.8,62.2a3.1,3.1,0,0,0-1.3.6c-.2.4,0,.7.4.9a2,2,0,0,0,1.3.2,4.19,4.19,0,0,0,1.5-.4c-.1-.3-.3-.5-.4-.8a2,2,0,0,1,.4.8c.1,0,.1-.1.2-.1A1.79,1.79,0,0,0,40.8,62.2Z" style="fill:#d61f27"/><path d="M42.8,65.5a6.36,6.36,0,0,0-1.8.6c-.4.3-1,.7-.8,1.2s.9.5,1.4.3a2.41,2.41,0,0,0,1-1l.6-1.2A.6.6,0,0,0,42.8,65.5Z" style="fill:#d61f27"/><path d="M43.1,63.7c-.1,0-.1,0-.2.1.1.2.2.5.3.7A1.06,1.06,0,0,0,43.1,63.7Z" style="fill:#d61f27"/><path d="M46.5,71.4a.37.37,0,0,1-.1.3h.1a.55.55,0,0,1,.6.4.37.37,0,0,1-.1.3h0c.1-.1.2-.1.3-.2a1.82,1.82,0,0,0,1-1.1,4,4,0,0,0,.3-1.5,1.33,1.33,0,0,0-.6-1c-.1,0-.1-.1-.2-.1a.9.9,0,0,1-.1.5,1.45,1.45,0,0,1-.7,1,.75.75,0,1,1-.9-1.2,1.65,1.65,0,0,1,1.5-.5c0-.2.1-.3.2-.5a3.13,3.13,0,0,1,.5-1c-.6-.2-1.1-.4-1.7-.6l-1.8-.6a3.4,3.4,0,0,0-1-.1c.8,1.9,1.6,3.8,2.3,5.7C46.3,71.1,46.4,71.2,46.5,71.4Z" style="fill:#d61f27"/><path d="M46.6,68.5a1,1,0,0,0-.5.6c-.1.2-.2.6,0,.7.5.3,1.1-.2,1.2-.5a6.37,6.37,0,0,1,.2-.7v-.1A.75.75,0,0,0,46.6,68.5Z" style="fill:#d61f27"/><path d="M44.1,63.3c-.3.1-.5.2-.8.3a2.88,2.88,0,0,1,.1,1.3c.1.1.1.2.2.4a9.85,9.85,0,0,1,1.7.2c.6.2,1.2.5,1.8.7a6.47,6.47,0,0,0,1.3.4c.1-.1.1-.2.2-.3-.5-.9-1-1.9-1.4-2.8a16.27,16.27,0,0,0-1.1-2.3A4.51,4.51,0,0,1,44.1,63.3Z" style="fill:#d61f27"/><path d="M48.7,66.4c0,.1-.1.1-.1.2a.37.37,0,0,1,.3.1C48.7,66.6,48.7,66.5,48.7,66.4Z" style="fill:#d61f27"/><path d="M50.9,70.2c-.6-1.1-1.3-2.2-1.9-3.4-.2,0-.3-.1-.5-.1h0c-.1.2-.2.3-.3.5a7.93,7.93,0,0,0-.4.9v.1c.2.1.3.1.4.2.8.6.6,1.8.3,2.6a1.82,1.82,0,0,1-1,1.1c-.2.1-.5.3-.7.4h-.2c.1.1.1.3.2.4h0c.4,0,.7.2.7.5h0a.27.27,0,0,1,.3.3.37.37,0,0,1-.1.3c.1.1.2.2.2.3h0a.66.66,0,0,1-.4.5c0,.1.1.1.1.2a5.85,5.85,0,0,0,1.3-.2,4.08,4.08,0,0,1,1.9-.1h0l.2-.2h-.1c-.2,0-.4-.2-.3-.4a.22.22,0,0,1,.2-.2.37.37,0,0,1-.1-.3c0-.2.2-.3.4-.3h.2c0-.1.2-.2.3-.2s.3.2.2.3h0c.1-.1.2-.1.4-.1s.4.2.3.4v.1a.52.52,0,0,1,.2.4.68.68,0,0,1-.6.4h-.2c.1.3-.1.4-.3.4s-.2-.1-.3-.2l-.3.3h0a.52.52,0,0,1,.2.4c.1.5-.7,1.2-.8,1.6v.3h.1c.2,0,.4.1.4.3v.1a.2.2,0,1,1,0,.4h0a.22.22,0,0,1,.2.2c0,.1-.1.3-.2.3h-.1c.3.5-.8.7-.8.4a.22.22,0,0,1,.2-.2c-.1-.1-.2-.2-.2-.3v-.1a.22.22,0,0,1-.2-.2c0-.1.1-.2.2-.3v-.2c0-.1,0-.2.1-.2a.76.76,0,0,1-.2-.5v-.5h-.7c-.2,0-.5-.1-.8-.1h-.1c.5,1.3,1.1,2.7,1.5,4.1,2-.4,4.2-1.3,5.9-1.3-.2-.3-.3-.5-.5-.8C53.5,75.9,52.4,72.9,50.9,70.2Z" style="fill:#d61f27"/><path d="M47,79.6h-.2c-.3,0-.7.1-.5-.2,0-.1.1-.1.2-.2-.1-.1-.1-.1-.1-.2v-.1a.22.22,0,0,1-.2-.2c0-.1.1-.2.2-.3-.1,0-.1-.1-.1-.2s.1-.3.2-.3h.1c-.1-.3-.1-.5-.2-.8-.1-.1-.1-.2-.2-.3a.37.37,0,0,0-.3-.1,1.16,1.16,0,0,1-.5-.7.71.71,0,0,1-.6-.3h-.1c-.4,0-.7-.2-.7-.5v-.4c-.1-.1-.2-.1-.2-.3s.1-.4.3-.4h.2c0-.2,0-.3.2-.4H44c-.2,0-.7,0-.7-.2s.3-.4.5-.5.5-.2.8-.3v-.1h-.1a.52.52,0,0,1-.4-.2c0-.1,0-.2.1-.2A.22.22,0,0,1,44,72a.58.58,0,0,1,.6-.6h.1c0-.1.1-.2.2-.3-.2-.7-.3-1.3-.5-2-.4-1.1-.6-2.4-.9-3.6h-.1l-.3.9c-.4.7-1,1.6-2,1.6-.4,0-.9-.1-1-.5a1.13,1.13,0,0,1,.3-1.1,4.36,4.36,0,0,1,2.9-1.1v-.6l-.3-.9c-.1,0-.2.1-.3.1a2.49,2.49,0,0,1-1.7.3c-.6-.1-1.7-.3-1.7-1s1.2-1.2,2-1.1a2.17,2.17,0,0,1,2,1.4,4.64,4.64,0,0,0,2-1.3,3.38,3.38,0,0,0,.6-1.2c0-.1-.1-.1-.1-.2-.6-.9-2.3-2.5-2.3-3.7l-5.8.6c-.5,1.3-1.1,2.7-1.6,4-1.3,3.2-1.8,6.6-3,10s-2.5,6.8-3.8,10.2a3.17,3.17,0,0,0,2.3.7,3.74,3.74,0,0,0,1.8-.5c1.2-4.3,1.4-8.8,2.2-13.2a46.88,46.88,0,0,1-.1,5.3c0,1.6-.2,3.2-.3,5-.1.7-.1,1.4-.2,2.1a.6.6,0,0,0,.4-.1v-.4c.3-2.3.2-4.7.4-7.1.4-2.5.5-5,1.1-7.4.5-1.9.6-4.7,1.7-6.3a22.37,22.37,0,0,0-.5,6.3,73,73,0,0,0-.2,8.1c.1,2.4-.2,5,0,7.6a10.55,10.55,0,0,0,2.5.2,21.08,21.08,0,0,0,.5-3.5c.1-2.8.7-5.8.4-8.6,0-.2-.1-.4-.1-.6,0,.2.1.4.1.6.3,2.3,1.2,4.5,1.4,6.9.2,1.7.5,3.4.8,5.1,1.4-.4.6-2.1,3-1.5.2,0,.4.1.6.1v-.1C47.1,80.4,47,80,47,79.6Z" style="fill:#d61f27"/><path d="M41.4,70.2c.3,2.8-.3,5.7-.4,8.6a21.08,21.08,0,0,1-.5,3.5,10.45,10.45,0,0,1,2.5,0,1.7,1.7,0,0,0,.7-.1c-.3-1.7-.6-3.4-.8-5.1C42.6,74.8,41.7,72.5,41.4,70.2Z" style="fill:#b01f24"/><path d="M45.7,71.2c.1,0,.1-.1.2-.1H46c-.7-1.9-1.5-3.8-2.3-5.7h-.2c.3,1.2.5,2.5.9,3.6a14.62,14.62,0,0,1,.5,2,.37.37,0,0,1,.3-.1C45.4,70.9,45.7,71,45.7,71.2Z" style="fill:#b01f24"/><path d="M47.3,75.1c.1,0,.1.1.2.1a.37.37,0,0,1,.3.1c0-.1-.1-.1-.1-.2Z" style="fill:#b01f24"/><path d="M42.9,63.7h0l.3.9v-.2A.91.91,0,0,0,42.9,63.7Z" style="fill:#b01f24"/><path d="M46.5,77.3c0-.1-.1-.1-.1-.2.1.3.1.5.2.8h.1C46.6,77.7,46.6,77.5,46.5,77.3Z" style="fill:#b01f24"/><path d="M47.6,76.8a1.7,1.7,0,0,1-.7.1,1.42,1.42,0,0,1,.2.6v.4c.1,0,.3.1.3.2v.2a.2.2,0,1,1,0,.4h0a.22.22,0,0,1,.2.2c0,.1-.1.3-.2.3h-.2v.1c.1.2,0,.3-.1.4.1.4.1.8.2,1.2V81a7.44,7.44,0,0,0,2.6-.2,28.64,28.64,0,0,0-1.5-4.1A1.06,1.06,0,0,0,47.6,76.8Z" style="fill:#b01f24"/><path d="M43.5,65.2h.2c-.1-.1-.1-.2-.2-.4Z" style="fill:#b01f24"/><path d="M46.7,73h0v.2c.1,0,.1-.1,0-.2h0a.6.6,0,0,0-.1-.4h-.2C46.6,72.7,46.6,72.9,46.7,73Z" style="fill:#b01f24"/><path d="M44.9,73.7h0c-.1.2-.1.2,0,.2s.1,0,0-.2Z" style="fill:#fff"/><path d="M44.6,73.7h0c-.1.2-.1.2,0,.2s.1,0,0-.2Z" style="fill:#fff"/><path d="M45,73c0-.1-.1-.1-.2-.1s-.1,0-.1.1.1.1.3,0Z" style="fill:#fff"/><path d="M45.6,73.5h0c-.1.2-.1.2,0,.2s.1,0,0-.2Z" style="fill:#fff"/><path d="M45.2,73.8h0c-.2-.1-.2-.1-.2,0s0,.1.2,0Z" style="fill:#fff"/><path d="M45.9,73.5h0c-.1.2-.1.2,0,.2s.1,0,0-.2Z" style="fill:#fff"/><path d="M45.3,73.8h0c.1-.2.1-.2,0-.2s-.1,0,0,.2Z" style="fill:#fff"/><path d="M46.3,73.3h0c-.1.1-.1.1,0,.2h0c.1,0,.1,0,0-.2Z" style="fill:#fff"/><path d="M46.1,73.4h0c-.1.2-.1.2,0,.2s.1,0,0-.2Z" style="fill:#fff"/><path d="M46.5,73.1c0,.1-.1.1,0,0-.1.1-.1.1,0,.2h0c.1,0,.1,0,0-.2Z" style="fill:#fff"/><path d="M45.3,75.3l.5-.2c-.3-1.3-.6-2.7-.9-4.1-.1.1-.2.2-.2.3h-.1a.58.58,0,0,0-.6.6h0c0,.1.1.2.1.3s-.1.1-.1.2a.3.3,0,0,0,.4.2h.1v.1c-.2.2-.5.2-.8.3s-.5.3-.5.5.5.2.7.2h.5a.52.52,0,0,0-.2.4h-.1a.43.43,0,0,0-.4.4c0,.1.1.2.2.3v.4c0,.3.4.5.7.5h.1a.71.71,0,0,0,.6.3A.85.85,0,0,0,45.3,75.3Zm-.6-1.5h0c-.2.1-.2.1-.2,0Zm.6-.1h0c.2-.1.2-.1.2,0h-.2C45.3,73.8,45.2,73.7,45.3,73.7Zm-.4.1h0c-.2.1-.2.1-.2,0Zm-.2-.8h0q.3-.15.3,0c0,.1,0,.1-.1.1S44.7,73.1,44.7,73Zm.4.8h0v-.2c.1,0,.1,0,.1.1s0,.1-.1.1Z" style="fill:#231f20"/><path d="M47.7,75a.66.66,0,0,0,.4-.5h0c0-.1-.1-.3-.2-.3a.37.37,0,0,0,.1-.3.27.27,0,0,0-.3-.3h0c0-.3-.4-.5-.7-.5h0c.1.2.1.3.2.5A2.39,2.39,0,0,0,47.7,75Z" style="fill:#231f20"/><path d="M47,72.3a.37.37,0,0,0,.1-.3c0-.2-.3-.4-.6-.4h-.1a.37.37,0,0,0,.1-.3c0-.2-.2-.3-.4-.3a5.78,5.78,0,0,1,.5,1.4h.1A.37.37,0,0,0,47,72.3Z" style="fill:#231f20"/><path d="M46.8,73.1h0c-.1.1-.2.1-.2,0s0-.1.1-.1l.1.1h0a2.19,2.19,0,0,1-.3-.5.37.37,0,0,0-.3.1c-.1,0-.1,0-.1-.1a.6.6,0,0,1,.4-.1,5.78,5.78,0,0,1-.5-1.4h-.1c-.1,0-.2,0-.2.1a.55.55,0,0,0-.5-.3c-.1,0-.2.1-.3.1.3,1.4.6,2.7.9,4.1l1.1-.4c.1,0,.1.1.2.2s.1.1.2.1h.4l-.6-1.5c-.1-.1-.2-.3-.3-.4Zm-1.1.5h0c-.2.1-.2.1-.2,0Zm.2,0h0c-.2.1-.2.1-.2,0h.2C45.9,73.5,46,73.5,45.9,73.6Zm.3-.1h0c-.2.1-.2.1-.2,0Zm.1-.1h0c-.1-.2-.1-.2,0-.2S46.4,73.3,46.3,73.4Zm.2-.1h0c-.1-.2-.1-.2,0-.2S46.6,73.2,46.5,73.3Z" style="fill:#231f20"/><path d="M48.4,76.5c.3-.1.5.1.8.1h.7a1.85,1.85,0,0,1,.2-.7l.6-1a.37.37,0,0,1,.3.1h0a2.51,2.51,0,0,0-1.9.1,3,3,0,0,1-1.3.2A3.38,3.38,0,0,0,48.4,76.5Z" style="fill:#231f20"/><path d="M46.1,76.4h0c-.1-.4-.2-.8-.3-1.3V75l-.5.2a1.7,1.7,0,0,0,.1.7,1.16,1.16,0,0,0,.5.7c.1,0,.2.1.3.1A.37.37,0,0,1,46.1,76.4Z" style="fill:#231f20"/><path d="M47.3,75.1c-.1,0-.1-.1-.2-.1s-.1-.2-.2-.2l-1.1.4v.1c.1.4.2.9.3,1.3l.5.1c.1.1.1.2.2.3a1.7,1.7,0,0,0,.7-.1l.6-.3a6.94,6.94,0,0,1-.5-1.3.37.37,0,0,1-.3-.1C47.4,75.1,47.3,75.1,47.3,75.1Z" style="fill:#231f20"/><path d="M50.9,75.3l-.1-.2c0-.1,0-.1.1-.1-.1,0-.2-.1-.3-.1l-.6,1a1.85,1.85,0,0,0-.2.7v.5c.1.2.1.3.2.5.1,0,.1-.1.2-.1s.2,0,.2.1l.1-.1c0-.1-.1-.2,0-.3.1-.5.8-1.1.8-1.6a.52.52,0,0,0-.2-.4h0C51,75.2,51,75.2,50.9,75.3Z" style="fill:#231f20"/><path d="M50.8,75.1l.1.2.2-.2h0l.3-.3v-.1c-.1,0-.1.1-.2.1L51,75h0C50.9,75,50.9,75,50.8,75.1Z" style="fill:#231f20"/><path d="M51.3,74.7c.1,0,.1.1,0,0,.1.2.2.2.3.3s.3,0,.4-.2h.2c.3,0,.6-.1.6-.4s0-.3-.2-.4v-.1c0-.2-.1-.4-.3-.4a.6.6,0,0,0-.4.1h0c0-.1-.1-.3-.2-.3s-.3.1-.3.2h-.1c-.2,0-.5.1-.5.3a.37.37,0,0,0,.1.3l-.2.2c0,.2.1.4.3.4h.1c.1.1.1.1.2,0Z" style="fill:#231f20"/><path d="M50.3,77.5c-.1,0-.2,0-.2.1s-.1.1-.1.2,0,.1.1.2c-.1,0-.2.1-.2.3a.22.22,0,0,0,.2.2v.1c0,.1.1.2.2.3a.52.52,0,0,1,.4-.2l.2-.1.1.1h0a.27.27,0,0,0,.3-.3.22.22,0,0,0-.2-.2h0a.2.2,0,0,0,0-.4v-.1c0-.2-.2-.3-.4-.3h-.1c-.1,0-.1,0-.1.1S50.4,77.5,50.3,77.5Z" style="fill:#231f20"/><path d="M46.9,79.2c0-.2-.1-.4-.1-.6-.1,0-.1,0-.1-.1v-.4h0c0-.1,0-.2-.1-.2h0a.27.27,0,0,0-.3.3c0,.1,0,.1.1.2-.1,0-.2.1-.2.3a.22.22,0,0,0,.2.2V79c0,.1,0,.1.1.2A.3.3,0,0,1,46.9,79.2Z" style="fill:#231f20"/><path d="M46.7,78.5a1.27,1.27,0,0,1,.1.6h0L47,79h.1a.27.27,0,0,0,.3-.3.22.22,0,0,0-.2-.2h0a.2.2,0,1,0,0-.4V78a.27.27,0,0,0-.3-.3v.7C47,78.5,46.8,78.5,46.7,78.5Z" style="fill:#231f20"/><path d="M46.6,77.9h0c-.1.1,0,.1,0,.2Z" style="fill:#231f20"/><path d="M46.1,76.4v.3c0,.1.1.2.2.3A1.42,1.42,0,0,0,46.1,76.4Z" style="fill:#231f20"/><path d="M46.6,78.5h0c.1,0,0-.2,0-.3h0Z" style="fill:#231f20"/><path d="M46.2,76.4c.1.2.1.4.2.6s.1.1.1.2a1.27,1.27,0,0,1,.1.6V78c0,.1.1.3.1.4h.4V77.3a1.42,1.42,0,0,0-.2-.6c-.1-.1-.1-.2-.2-.3Z" style="fill:#231f20"/><path d="M46.5,79.2c-.1.1-.2.1-.2.2-.1.3.3.2.5.2H47c0-.1-.1-.3-.1-.4A.3.3,0,0,0,46.5,79.2Z" style="fill:#231f20"/><path d="M46.9,79.2h0a.6.6,0,0,0,.1.4c.2-.1.2-.2.1-.4v-.1Z" style="fill:#231f20"/><path d="M50.6,78.7c-.1,0-.2.1-.4.2l-.2.2c0,.3,1.2,0,.8-.4,0-.1,0-.1-.1-.1Z" style="fill:#231f20"/><path d="M50.5,66.1h0c0,.2,0,.2.1.2a.62.62,0,0,0-.2-.7.6.6,0,0,0-.4-.1c0,.1,0,.1.1.1A.66.66,0,0,1,50.5,66.1Z" style="fill:#211f1f"/><path d="M45.4,56.8a5.73,5.73,0,0,1,.8,3.4c0,.1.1.1.1.2a5.44,5.44,0,0,0-.6-3.3Z" style="fill:#211f1f"/><path d="M50.3,65.7c.3.1.3.4.2.7,0,.1,0,.1.1.1a.75.75,0,0,0,.1-.5.89.89,0,0,0-.8-.5l.1.1A.37.37,0,0,1,50.3,65.7Z" style="fill:#211f1f"/><path d="M46,60h0a4.38,4.38,0,0,0-.7-3.3h-.1A4.34,4.34,0,0,1,46,60Z" style="fill:#211f1f"/><path d="M49,66.7a.37.37,0,0,1-.3-.1c0,.1,0,.1.1.1s.1.1.2,0a1.28,1.28,0,0,0,1.2,0c.1-.1.2-.2.2-.3s0-.1-.1-.1C50.3,66.8,49.5,66.8,49,66.7Z" style="fill:#211f1f"/><path d="M46.2,60.2h0a4.88,4.88,0,0,0-.3.7l.1.1C46.1,60.7,46.1,60.5,46.2,60.2Z" style="fill:#211f1f"/><path d="M49.1,66a1.14,1.14,0,0,1,.8-.3H50c0-.1,0-.1-.1-.1a1.28,1.28,0,0,0-1,.4l-.3.3v.1C48.8,66.2,49,66.1,49.1,66Z" style="fill:#211f1f"/><path d="M46,61h0a.91.91,0,0,0,.3-.7c0-.1-.1-.1-.1-.2C46.1,60.5,46.1,60.7,46,61Z" style="fill:#211f1f"/><path d="M49.7,65.5a1.9,1.9,0,0,0-1.1.7v.1l.3-.3a1.78,1.78,0,0,1,1-.4l-.1-.1Z" style="fill:#211f1f"/><path d="M50.3,66.6a2,2,0,0,1-1.3.1h-.1c0,.1,0,.1.1.1a2.44,2.44,0,0,0,1.2,0,1,1,0,0,0,.5-.4c0-.1,0-.1-.1-.1Q50.45,66.6,50.3,66.6Z" style="fill:#211f1f"/><path d="M46.1,68.7a.91.91,0,0,0-.2,1.1c.2.3.7.2,1.1.1a1.45,1.45,0,0,0,.7-1c0-.2.1-.3.1-.5h-.1v.1a1.85,1.85,0,0,1-.5,1.2c-.2.2-.9.5-1.2.2a1.06,1.06,0,0,1,.1-1.2,1.74,1.74,0,0,1,1.4-.3v-.1A1.24,1.24,0,0,0,46.1,68.7Z" style="fill:#211f1f"/><path d="M43.4,65.2h0c0,.1.1.1,0,0C43.5,65.3,43.5,65.2,43.4,65.2Z" style="fill:#211f1f"/><path d="M43.4,65.2c0-.1,0-.2-.1-.2v.3Z" style="fill:#211f1f"/><path d="M46.3,68.6c-.3.3-.5.9-.2,1.1a1.09,1.09,0,0,0,1.2-.2,1.85,1.85,0,0,0,.5-1.2v-.1h-.1v.1a1.85,1.85,0,0,1-.2.7c-.2.4-.8.9-1.2.5-.2-.2-.1-.5,0-.7a2.65,2.65,0,0,1,.5-.6,1.18,1.18,0,0,1,1-.1V68A4,4,0,0,0,46.3,68.6Z" style="fill:#211f1f"/><path d="M42.6,66.6a2.41,2.41,0,0,1-1,1c-.5.2-1.2.1-1.4-.3s.4-1,.8-1.2a6.36,6.36,0,0,1,1.8-.6h.4v-.1a3.94,3.94,0,0,0-2.1.6c-.4.2-1,.6-1,1.1a.82.82,0,0,0,.9.8c1,0,1.5-.8,1.9-1.4a1.78,1.78,0,0,0,.4-1h-.1A2.38,2.38,0,0,1,42.6,66.6Z" style="fill:#211f1f"/><path d="M43.3,65.2h0c0,.1.1.1,0,0,.1.1.1,0,0,0Z" style="fill:#211f1f"/><path d="M46.3,65.9a11.76,11.76,0,0,0,2,.7c0-.1,0-.1.1-.1-.4-.1-.8-.3-1.3-.4s-1.2-.5-1.8-.7a4.68,4.68,0,0,0-1.7-.2v.1h.1A5.83,5.83,0,0,1,46.3,65.9Z" style="fill:#211f1f"/><path d="M42.9,63.5h0c.1.1.1.1.2,0h0v-.1C43,63.5,43,63.5,42.9,63.5Z" style="fill:#211f1f"/><path d="M41.3,63.9a5.85,5.85,0,0,1-1.3-.2c-.4-.2-.7-.5-.4-.9a1.61,1.61,0,0,1,1.3-.6,1.91,1.91,0,0,1,2.2,1.3h.1A2.34,2.34,0,0,0,42,62.3a2.52,2.52,0,0,0-2.5.5c-.6.9.8,1.3,1.6,1.3a5.84,5.84,0,0,0,1.8-.4v-.1A4.53,4.53,0,0,1,41.3,63.9Z" style="fill:#211f1f"/><path d="M43.3,63.6h0v.7c0,.1.1.1.1.2V64C43.3,64,43.3,63.8,43.3,63.6Z" style="fill:#211f1f"/><path d="M43.4,63.6h0v1c0,.1.1.1.1.2A4.87,4.87,0,0,0,43.4,63.6Z" style="fill:#211f1f"/><path d="M43.1,63.6h0c-.1-.1-.1-.1-.2,0h0v.1h0C43,63.7,43.1,63.7,43.1,63.6Z" style="fill:#211f1f"/><path d="M42.9,63.6a5.84,5.84,0,0,1-1.8.4c-.8,0-2.2-.4-1.6-1.3a2.32,2.32,0,0,1,2.5-.5,1.8,1.8,0,0,1,1.2,1.2h.1a2.17,2.17,0,0,0-2-1.4c-.8,0-1.9.4-2,1.1s1.1,1,1.7,1a4.67,4.67,0,0,0,1.7-.3C42.8,63.8,42.9,63.8,42.9,63.6Z" style="fill:#211f1f"/><path d="M43.4,64.9c0-.1-.1-.2-.1-.3v.6h.1C43.3,65.1,43.4,65,43.4,64.9Z" style="fill:#211f1f"/><path d="M43.3,65.3h0c-.1-.1-.1,0,0,0Z" style="fill:#211f1f"/><path d="M43.3,63.5h0a3.52,3.52,0,0,0,2.6-2.4l-.1-.1a3.38,3.38,0,0,1-.6,1.2A5,5,0,0,1,43.3,63.5Z" style="fill:#211f1f"/><path d="M48.4,66.5c.1-.1.1-.2.2-.2v-.1C48.5,66.3,48.4,66.4,48.4,66.5Z" style="fill:#211f1f"/><path d="M48.5,66.6c0-.1.1-.1.1-.2v-.1C48.6,66.4,48.5,66.5,48.5,66.6Z" style="fill:#211f1f"/><path d="M43.5,63.4h0a2.54,2.54,0,0,0,.7-.2,3.57,3.57,0,0,0,1.9-2.1L46,61A3.55,3.55,0,0,1,43.5,63.4Z" style="fill:#211f1f"/><path d="M42.9,66.4c-.5.6-.9,1.4-1.9,1.4-.5,0-1-.3-.9-.8s.6-.8,1-1.1a5.09,5.09,0,0,1,2.1-.6v-.1a4.36,4.36,0,0,0-2.9,1.1,1.13,1.13,0,0,0-.3,1.1,1.23,1.23,0,0,0,1,.5,2.19,2.19,0,0,0,1.9-1.5,1.62,1.62,0,0,0,.4-1h-.1A1.69,1.69,0,0,1,42.9,66.4Z" style="fill:#211f1f"/><path d="M43.4,65.3h0c0,.1.1.1,0,0C43.5,65.4,43.5,65.3,43.4,65.3Z" style="fill:#211f1f"/><path d="M48.4,66.6h0C48.4,66.7,48.5,66.7,48.4,66.6Z" style="fill:#211f1f"/><path d="M48.1,67.3c-.1.3-.3.6-.4.9h.1v-.1a6.89,6.89,0,0,1,.3-.8,6.13,6.13,0,0,0,.4-.6h-.1A.86.86,0,0,0,48.1,67.3Z" style="fill:#211f1f"/><path d="M48.5,66.7h0a.52.52,0,0,0,.4.2c0-.1,0-.1-.1-.1A.37.37,0,0,0,48.5,66.7Z" style="fill:#211f1f"/><path d="M48.5,69a2.89,2.89,0,0,1-.3,2.4,4.86,4.86,0,0,1-1.4,1.1c-.1,0-.1.1-.2.1h.2a1.61,1.61,0,0,0,.7-.4,2.66,2.66,0,0,0,1-1.1,2.27,2.27,0,0,0-.3-2.6.52.52,0,0,0-.4-.2v.1A.86.86,0,0,1,48.5,69Z" style="fill:#211f1f"/><path d="M48.5,66.6h0c.1.1.2.1.3.2,0-.1,0-.1-.1-.1S48.6,66.6,48.5,66.6Z" style="fill:#211f1f"/><path d="M47.7,68.3h0C47.8,68.2,47.7,68.2,47.7,68.3Z" style="fill:#211f1f"/><path d="M43.3,65.3h0c0,.1.1.1,0,0Z" style="fill:#211f1f"/><path d="M48.3,66.7Z" style="fill:#211f1f"/><path d="M48.4,66.5Z" style="fill:#211f1f"/><path d="M48,68.5a1.1,1.1,0,0,1,.6,1,4,4,0,0,1-.3,1.5,1.82,1.82,0,0,1-1,1.1c-.1.1-.2.1-.3.2h0c0,.1,0,.1-.1.1a2.59,2.59,0,0,0,1.4-1.1,3.32,3.32,0,0,0,.3-2.4,2.34,2.34,0,0,0-.7-.7v.1C47.8,68.4,47.9,68.4,48,68.5Z" style="fill:#211f1f"/><path d="M47.6,68.3Z" style="fill:#211f1f"/><path d="M46.6,66.1c.5.2,1.1.4,1.7.6v-.1c-.7-.2-1.3-.5-2-.7a5.83,5.83,0,0,0-2.6-.6h-.1v.1a3.4,3.4,0,0,1,1,.1A6.64,6.64,0,0,1,46.6,66.1Z" style="fill:#211f1f"/><path d="M47.8,67.7c-.1.2-.1.3-.2.5h.1a3.55,3.55,0,0,1,.4-.9l.3-.6h-.1A3.13,3.13,0,0,0,47.8,67.7Z" style="fill:#211f1f"/><path d="M43.7,65.3h-.2v.1C43.6,65.4,43.7,65.4,43.7,65.3Z" style="fill:#211f1f"/><path d="M43.5,65.2h0c0,.1.1.1.2.1v-.1Z" style="fill:#211f1f"/><path d="M43.4,64.6c0-.1-.1-.1-.1-.2l.1.2c-.1.1,0,.2,0,.3Z" style="fill:#211f1f"/><path d="M43.5,64.8c0-.1-.1-.1-.1-.2v.3c0,.1,0,.2.1.2Z" style="fill:#211f1f"/><path d="M46.6,72.5h0c.1,0,.1,0,.2-.1C46.8,72.5,46.7,72.5,46.6,72.5Z" style="fill:#211f1f"/><path d="M47,72.3c-.1,0-.2.1-.3.1h-.1c.1,0,.1,0,.2-.1C46.9,72.4,46.9,72.4,47,72.3Z" style="fill:#211f1f"/><path d="M46.6,72.5c-.1.1-.3,0-.4.1s0,.1.1.1.2-.1.3-.2h0c-.1.1-.2.1-.3.2.1,0,.2-.1.3-.2Z" style="fill:#211f1f"/><path d="M46.5,72.6Z" style="fill:#211f1f"/><path d="M33.2,43.4c.1-.1.1-.2.2-.3C33.2,43.2,33.2,43.3,33.2,43.4Z" style="fill:#dd8426"/><path d="M34.2,56.2c.1-1.1.4-2.2.5-3.3.2-1.9-.8-3.6-1.4-5.3.2,1.7.4,3.4.5,5.1a26.8,26.8,0,0,1-.2,4.9,17.42,17.42,0,0,1-.5,2.2c.2-.2.3-.5.5-.6A6.21,6.21,0,0,0,34.2,56.2Z" style="fill:#dd8426"/><path d="M33.2,43.4a17.61,17.61,0,0,1-1.4,2.3,5,5,0,0,0,1.2.2v.2a2.77,2.77,0,0,0,.1-.9C33.2,44.7,33,43.9,33.2,43.4Z" style="fill:#dd8426"/><path d="M49,38.9c.1-.1.1-.2.2-.2a6.53,6.53,0,0,0-2,.5Z" style="fill:#dd8426"/><path d="M28.7,41.4h0c.3.3.1.6,0,.8s-.1.2-.1.3a19.45,19.45,0,0,0,3-1.3C30.7,41.3,29.6,41.3,28.7,41.4Z" style="fill:#dd8426"/><path d="M32.4,41.6A12,12,0,0,0,30,43.1c-.1.1-.2.1-.3.2s.1.2.2.3a1.79,1.79,0,0,0,.7.5h.2A6.69,6.69,0,0,1,32.4,41.6Z" style="fill:#dd8426"/><path d="M48.5,40.9c.1,0,.1,0,.3-.1a.52.52,0,0,0,.4-.2v-.3a9.74,9.74,0,0,0-2.4-.2A8.86,8.86,0,0,0,48.5,40.9Z" style="fill:#dd8426"/><path d="M45.9,52.9c.5,1.9.4,4.2,2.5,5.4.2.1.4.3.6.4a13,13,0,0,1-2.2-5.3,25.27,25.27,0,0,1-.9-5.5,8.1,8.1,0,0,0,0,2.2A8.77,8.77,0,0,0,45.9,52.9Z" style="fill:#dd8426"/><path d="M49.8,37.9a7.81,7.81,0,0,0-4.5,1.2h0a2.2,2.2,0,0,0-.8.1h0c-.1,0-.1.1,0,.2a6.2,6.2,0,0,1-2.4,3.7c-.8.7-1.9,1.3-2.7,2-.9-.5-2.1-.9-3.1-1.4a7.71,7.71,0,0,1-3.1-3.1v-.2h-.1a2.2,2.2,0,0,0-.8.1h0a7.56,7.56,0,0,0-4.7-.1c-.1,0-.1,0-.1.1s.3.2.5.3a1.56,1.56,0,0,1,.8.6c1-.1,2,0,3-.2a19.45,19.45,0,0,1-3,1.3.37.37,0,0,0,.1.3c.1.2.2.2.4.1a.37.37,0,0,1,.5.2c0,.1,0,.1.1.1s.2-.1.3-.2a9.74,9.74,0,0,1,2.4-1.5A6.19,6.19,0,0,0,30.9,44h.2c.2.1.3.5.4.7s.1.7.5.9h0c.4-.8,1-1.6,1.4-2.3,0-.1.1-.2.2-.3,0,.1-.1.2-.2.3a6.05,6.05,0,0,0,0,1.9c0,.3-.1.6-.1.9a7.72,7.72,0,0,1,.2,1.5c.5,1.8,1.5,3.5,1.4,5.3-.1,1.1-.4,2.2-.5,3.3s.1,2-.7,2.9a2.65,2.65,0,0,1-.5.6,8.86,8.86,0,0,1-.8,1.7c-.1.1,0,.2.1.2,1.2.2,2.5.3,3.7.4,1,.1,2,.1,2.9.1h2.1l1.2-.3c.3-.1.6-.1.9-.2.9-.2,1.9-.5,2.8-.8,1.2-.4,2.4-.8,3.5-1.2.1,0,.2-.2.1-.2a2.7,2.7,0,0,1-.7-.8c-.2-.1-.4-.3-.6-.4-2.1-1.2-2-3.6-2.5-5.4a12.21,12.21,0,0,1-.1-2.7,8.1,8.1,0,0,1,0-2.2c-.1-.7-.1-1.4-.2-2.1-.4-1.6-.6-4.2.4-5.8a31.08,31.08,0,0,1,.3,4.3c.2-.1.3-.2.5-.3.4-.3.3-.7.3-1,0-.1,0-.4.1-.5a5,5,0,0,1-.2-1.2l.8.8a1,1,0,0,0,.4-.5.6.6,0,0,0,.1-.4c0-.1.1-.2.2-.3-.6-.3-1.3-.5-1.8-.8a9.74,9.74,0,0,1,2.4.2c-.1-.4-.5-.7-.3-1.1,0-.1.1-.2.2-.3a11,11,0,0,1-1.8.2,14.62,14.62,0,0,1,2-.5l.3-.3c.2-.1.4-.2.4-.4C49.9,38,49.8,37.9,49.8,37.9Z" style="fill:#f1a21e"/><path d="M46,40a8.58,8.58,0,0,0-.3,5.9v-.1c0-.4-.1-.9-.1-1.3.2-.1.5-.2.7-.3A29.66,29.66,0,0,0,46,40Z" style="fill:#dd8426"/><path d="M47.1,42.5c0-.1.1-.1.1-.2a.37.37,0,0,1,.3-.1c.1,0,.1,0,.2-.1l-.8-.8A5,5,0,0,0,47.1,42.5Z" style="fill:#dd8426"/><path d="M.2,24.7c3.8,14,13.3,24.8,25,26.9,16.7,3.1,29.7-13,34.9-19.5A64,64,0,0,0,73.1,0c18.2,0,36.3.1,54.5.1,0,26.4-.1,52.8-.1,79.2q-63.75,0-127.5.1C0,61.1.1,42.9.2,24.7Z" style="fill:#ee3224"/><path d="M20.5,12.3a.75.75,0,0,0,.1.5.78.78,0,0,0,.4.4q.3.15.3.3c0,.1.1.2.1.3s0,.2-.1.2-.1.1-.3.1a.6.6,0,0,1-.4-.1,1.1,1.1,0,0,0-.8,0h-.4c-.2,0-.4-.1-.4-.3v-.4c.1-.1.1-.1.2-.1s.2-.1.3-.2.1-.4.1-.8a60.27,60.27,0,0,1,.1-9.5V2.1c0-.2-.1-.3-.3-.4a1.38,1.38,0,0,1-.4-.3V1.1c0-.1,0-.1.1-.2s.1-.1.2-.1.3.1.5.1.3.2.4.2h.9c.2,0,.2.2.2.4s0,.2-.1.3-.1.1-.2.1-.2.1-.3.2-.1.4-.2.8A73.71,73.71,0,0,0,20.5,12.3Zm4.2.1a.75.75,0,0,0,.1.5.78.78,0,0,0,.4.4c.1.1.2.1.3.2s.1.1.1.2,0,.2-.1.2a.37.37,0,0,1-.3.1.6.6,0,0,1-.4-.1,1.1,1.1,0,0,0-.8,0c-.2,0-.3.1-.4.1s-.4-.1-.4-.3v-.4c.1-.1.1-.1.2-.1s.2-.1.3-.2.1-.4.1-.8a45.1,45.1,0,0,1,0-5.2c0-.2,0-.3-.1-.4a.52.52,0,0,0-.4-.2c-.9-.1-1.3-.1-2.2-.2-.2,0-.3-.1-.4-.1a.37.37,0,0,1-.1-.3.37.37,0,0,1,.1-.3c.1-.1.2-.1.4-.1,1,.1,1.4.1,2.4.2a.37.37,0,0,0,.3-.1c0-.1.1-.2.1-.4.1-1.2.1-1.9.1-2.2a.55.55,0,0,0-.4-.6c-.1-.1-.2-.2-.2-.3V1.7c0-.1,0-.1.1-.2s.1-.1.2-.1.3.1.5.1a.6.6,0,0,0,.4.1h.9c.2,0,.2.1.2.4a.37.37,0,0,1-.1.3c-.1.1-.1.1-.2.1s-.2.1-.3.2a1.08,1.08,0,0,0-.2.8A67.62,67.62,0,0,0,24.7,12.4Z" style="fill:#fef04b;stroke:#efeb5d;stroke-miterlimit:10;stroke-width:0.5px"/><path d="M29.5,12.6a.89.89,0,0,0,.5.8c.1,0,.1.1.2.1a.37.37,0,0,1,.1.3c0,.1,0,.1-.1.2s-.1.1-.2.1-.1,0-.3-.1-.2-.1-.3-.1a.37.37,0,0,0-.3.1c-.1,0-.1,0-.2.1s-.1,0-.1-.1h0c0-.1-.1-.1-.1-.2s0-.1-.1-.1-.1,0-.1.1h0a1.43,1.43,0,0,1-1.2.6.91.91,0,0,1-.7-.3,1.56,1.56,0,0,1-.6-.8,3.19,3.19,0,0,1-.3-1.4,2.1,2.1,0,0,1,.5-1.5,1.61,1.61,0,0,1,1.3-.6.86.86,0,0,1,.6.3c.2.2.3.3.3.5s0,.1-.1.2-.1.1-.2.1-.2-.1-.3-.2a.56.56,0,0,0-.9,0l-.2.2a2,2,0,0,0-.3,1.1,2.66,2.66,0,0,0,.3,1.2.8.8,0,0,0,1.1.3l.3-.3a1.69,1.69,0,0,0,.3-1V10a1.88,1.88,0,0,0-.2-.8.55.55,0,0,0-.5-.3,1.09,1.09,0,0,0-.9.4c-.1.1-.1.1-.2.1s-.1,0-.2-.1a.37.37,0,0,1-.1-.3c0-.3.2-.5.5-.7a1.8,1.8,0,0,1,1-.2,1.25,1.25,0,0,1,1.1.6,2,2,0,0,1,.4,1.3A11.4,11.4,0,0,1,29.5,12.6Z" style="fill:#fef04b;stroke:#efeb5d;stroke-miterlimit:10;stroke-width:0.5px"/><path d="M31.3,15.2V9.8a.37.37,0,0,0-.1-.3.52.52,0,0,0-.4-.2c-.1,0-.2-.1-.3-.2s-.1-.1-.1-.2.1-.3.2-.3h.1a.37.37,0,0,1,.3.1.64.64,0,0,0,.6,0,.37.37,0,0,1,.3-.1c.1,0,.1,0,.2.1V9c0,1.1-.1,1.7-.1,2.8a2.77,2.77,0,0,0,.3,1.3,1,1,0,0,0,.8.5l.6-.3a2.18,2.18,0,0,0,.5-.8,5,5,0,0,0,.2-1.2,4,4,0,0,0-.3-1.5c-.2-.4-.5-.7-.8-.7a.9.9,0,0,0-.5.1.37.37,0,0,1-.3.1c-.1,0-.1,0-.1-.1s-.1-.1,0-.2h0c0-.2.1-.3.4-.4a1.85,1.85,0,0,1,.7-.2,1.42,1.42,0,0,1,1.3.9,3.84,3.84,0,0,1,.5,2.1,3.29,3.29,0,0,1-.6,1.9c-.4.6-.8.9-1.3.9a1.27,1.27,0,0,1-.6-.1,4.35,4.35,0,0,1-.7-.6v1.9a2.92,2.92,0,0,1-.2.9,2.09,2.09,0,0,1-.4.6.52.52,0,0,1-.4.2c-.2,0-.3-.1-.3-.2s0-.1.1-.2a1.61,1.61,0,0,0,.4-.7Z" style="fill:#fef04b;stroke:#efeb5d;stroke-miterlimit:10;stroke-width:0.5px"/><path d="M36.4,15.1v-5a.37.37,0,0,0-.1-.3.52.52,0,0,0-.4-.2c-.1,0-.2-.1-.3-.1s-.1-.1-.1-.2.1-.3.2-.3h.1a.37.37,0,0,1,.3.1.64.64,0,0,0,.6,0A.37.37,0,0,1,37,9c.1,0,.1,0,.2.1v.3a22.6,22.6,0,0,0-.1,2.6,2.77,2.77,0,0,0,.3,1.3,1,1,0,0,0,.8.5l.6-.3a2.18,2.18,0,0,0,.5-.8,5,5,0,0,0,.2-1.2,3.19,3.19,0,0,0-.3-1.4,1.21,1.21,0,0,0-.7-.7.9.9,0,0,0-.5.1.37.37,0,0,1-.3.1c-.1,0-.1,0-.1-.1V9.3c0-.1.1-.3.4-.4a1.85,1.85,0,0,1,.7-.2,1.56,1.56,0,0,1,1.3.8,2.82,2.82,0,0,1,.4,2,3,3,0,0,1-.6,1.8,1.6,1.6,0,0,1-1.4.8,1.27,1.27,0,0,1-.6-.1c-.2-.1-.4-.3-.7-.5v.4a6.6,6.6,0,0,1-.1,1.4,1.61,1.61,0,0,1-.3.9,1,1,0,0,1-.4.5.52.52,0,0,1-.4.2c-.2,0-.3-.1-.3-.2s0-.1.1-.2a2.09,2.09,0,0,0,.4-.6A1.14,1.14,0,0,0,36.4,15.1Z" style="fill:#fef04b;stroke:#efeb5d;stroke-miterlimit:10;stroke-width:0.5px"/><path d="M43.4,13.2c.1,0,.1.1.1.2s-.1.3-.4.5a1.14,1.14,0,0,1-.8.3.86.86,0,0,1-.6-.3,2.09,2.09,0,0,1-.4-.6,3.3,3.3,0,0,1,0-1.4,6.6,6.6,0,0,1,.1-1.4c0-.4-.1-.6-.3-.7s-.2-.1-.3-.1-.1-.1,0-.2,0-.1.1-.2,0-.1.1-.1a.37.37,0,0,1,.3.1.37.37,0,0,0,.3.1h.6c.1,0,.1,0,.1.1s0,.1.1.1v.9c0,.6-.1,1.1-.1,1.6v.8a.57.57,0,0,0,1,.4Zm1.2-3.7c.1,0,.2.1.1.3,0,.4-.1,1-.1,1.9s-.1,1.4-.1,1.6a7.61,7.61,0,0,1-.3,2.1c-.2.4-.4.7-.5.9a.91.91,0,0,1-.7.3,1.27,1.27,0,0,1-.6-.1c-.1-.1-.2-.2-.2-.3v-.1l.1-.1c.1,0,.1,0,.2.1s.2.1.3.1a.55.55,0,0,0,.5-.3.91.91,0,0,0,.3-.7,5.7,5.7,0,0,0,.1-1.3,13.73,13.73,0,0,1,.2-3.5.55.55,0,0,0-.3-.5c-.2-.1-.4-.2-.3-.3s.1-.2.3-.2a.37.37,0,0,1,.3.1c.1,0,.3.1.4.1l.3-.1Z" style="fill:#fef04b;stroke:#efeb5d;stroke-miterlimit:10;stroke-width:0.5px"/><path d="M50.7,5.3c.1,0,.2.2.2.5v.8c0,.2-.1.4-.3.3s-.1,0-.1-.1a.6.6,0,0,1-.1-.4.67.67,0,0,0-.6-.7.75.75,0,0,0-.5.1.91.91,0,0,0-.3.7,46.16,46.16,0,0,0-.7,6.5.37.37,0,0,0,.1.3c0,.1.1.1.3.2a.37.37,0,0,0,.3.1v.1c0,.1-.1.3-.2.3h-.1a.6.6,0,0,1-.4-.1c-.2,0-.3-.1-.4-.1h-.8a.37.37,0,0,1-.3-.1c-.1-.1-.1-.1-.1-.3v-.1a.37.37,0,0,1,.3-.1c.2-.1.3-.1.3-.3s.1-.2.1-.4a51,51,0,0,1,.8-6.7c.1-.4-.1-.6-.6-.7a.84.84,0,0,0-.7.2.52.52,0,0,0-.2.4c-.1.2-.1.3-.2.3h-.1c-.1,0-.1,0-.1-.1l-.1-.1c.1-.4.2-.7.3-1.1s.2-.4.4-.4A10.21,10.21,0,0,0,50.7,5.3Z" style="fill:#fef04b;stroke:#efeb5d;stroke-miterlimit:10;stroke-width:0.5px"/><path d="M52.7,9.9a1.6,1.6,0,0,1,1.4.8,1.67,1.67,0,0,1,.4,1.5,2.63,2.63,0,0,1-.7,1.5,2.27,2.27,0,0,1-1.6.6,2,2,0,0,1-1.4-.6,1.84,1.84,0,0,1-.5-1.6,3.29,3.29,0,0,1,.7-1.6A1.83,1.83,0,0,1,52.7,9.9Zm-.4,3.8a1.23,1.23,0,0,0,1-.5,1.85,1.85,0,0,0,.5-1.2,1.72,1.72,0,0,0-.2-1.2,1.05,1.05,0,0,0-.9-.5,1.28,1.28,0,0,0-1,.4,1.85,1.85,0,0,0-.5,1.2,2,2,0,0,0,.2,1.3A1.05,1.05,0,0,0,52.3,13.7Z" style="fill:#fef04b;stroke:#efeb5d;stroke-miterlimit:10;stroke-width:0.5px"/><path d="M60.1,6.7c.1,0,.2.1.2.4a1.7,1.7,0,0,1-.1.7c-.1.2-.1.3-.2.3s-.1,0-.1-.1-.1-.1-.1-.3a.52.52,0,0,0-.2-.4c-.1-.1-.3-.1-.4-.2a.75.75,0,0,0-.5.1c-.1.2-.2.3-.3.5a50.33,50.33,0,0,0-1,5.6v.2c0,.1.1.1.3.2s.2.1.3.1v.1c0,.1-.1.3-.2.3h-.5c-.2,0-.3,0-.4-.1h-.8a.37.37,0,0,1-.3-.1c-.1-.1-.1-.1-.1-.2s0-.1.1-.1a.37.37,0,0,1,.3-.1c.2,0,.3-.1.3-.2a.37.37,0,0,0,.1-.3,56.7,56.7,0,0,1,1-5.7c.1-.3-.1-.5-.5-.6a1.7,1.7,0,0,0-.7.1q-.3.15-.3.3c-.1.2-.1.3-.2.3h-.1c-.1,0-.1,0-.1-.1l-.1-.1.3-.9c.1-.2.2-.3.4-.3C57.7,6.4,58.5,6.5,60.1,6.7Z" style="fill:#fef04b;stroke:#efeb5d;stroke-miterlimit:10;stroke-width:0.5px"/><path d="M62,10.6a1.61,1.61,0,0,1,1.3.6,1.57,1.57,0,0,1,.4,1.3,2.22,2.22,0,0,1-.8,1.3,3,3,0,0,1-1.6.5,2.11,2.11,0,0,1-1.3-.5,1.49,1.49,0,0,1-.4-1.4,2.22,2.22,0,0,1,.8-1.3A1.84,1.84,0,0,1,62,10.6Zm-.6,3.2a1.28,1.28,0,0,0,1-.4,1.91,1.91,0,0,0,.5-1,1.23,1.23,0,0,0-.2-1,1.09,1.09,0,0,0-.9-.4,1.69,1.69,0,0,0-1,.3,1.39,1.39,0,0,0-.5,1,1.39,1.39,0,0,0,.2,1.1A1.09,1.09,0,0,0,61.4,13.8Z" style="fill:#fef04b;stroke:#efeb5d;stroke-miterlimit:10;stroke-width:0.5px"/><circle cx="61.7" cy="12.5" r="0.5" style="fill:#0b0c0c"/><circle cx="52.9" cy="12.5" r="0.5" style="fill:#0b0c0c"/><path d="M53.4,17.1a4.84,4.84,0,0,0,3.8,2.8c2.4.1,4-2.3,4-2.4a6.18,6.18,0,0,1-3.3,1.7C55.4,19.3,53.6,16.9,53.4,17.1Z" style="fill:#ddc747"/><path d="M17.1,33.7a3.47,3.47,0,0,0,1.9,1c.9.2,1.7-.2,1.7,0a2.1,2.1,0,0,1-1.4.7,1.85,1.85,0,0,1-1-.2A2.85,2.85,0,0,1,17.1,33.7Z" style="fill:#f7f2f2;stroke:#000;stroke-miterlimit:10;stroke-width:0.009999999776482582px"/><path d="M18.2,35.4c.1.1.1.2.3.2s.2-.1.3,0c.1-.1.2,0,.1.1s-.1.2-.4.1a.68.68,0,0,1-.4-.3C18,35.4,18.2,35.4,18.2,35.4Z" style="fill:#63413b"/><path d="M36.4,35.93a3.46,3.46,0,0,0,2.1.4c.9-.2,1.5-.7,1.6-.6s-.4.8-1.1,1.1a2.68,2.68,0,0,1-1,.2A2.69,2.69,0,0,1,36.4,35.93Z" style="fill:#f7f2f2;stroke:#000;stroke-miterlimit:10;stroke-width:0.009999999776482582px"/><path d="M38,37.23c.1.1.2.2.4.1a.35.35,0,0,0,.2-.1c.1-.1.2,0,.1.1a.37.37,0,0,1-.3.2c-.3,0-.4-.1-.4-.2C37.8,37.23,38,37.23,38,37.23Z" style="fill:#63413b"/><rect x="13.1" y="53.8" width="19.4" height="19" style="fill:#f2f3ed"/><path d="M12.7,59.4a1.55,1.55,0,0,0-.7-1.2,1.93,1.93,0,0,0-1-.3c1.8-2,3.6-4.1,5.4-6.1a1.7,1.7,0,0,0,.9,1.2,2.35,2.35,0,0,0,.8.2C16.3,55.3,14.5,57.4,12.7,59.4Z" style="fill:#f75497"/><path d="M34.5,57.8a1.6,1.6,0,0,1-.3.8,1.88,1.88,0,0,1-1.3.7c-1.6-1.8-3.3-3.6-4.9-5.3a1.07,1.07,0,0,1-.5-.3q-.3-.45,2.1-1.2C31.2,54.3,32.9,56,34.5,57.8Z" style="fill:#1f960e"/><g style="isolation:isolate"><text transform="translate(17.34 60.32)" style="isolation:isolate;font-size:4px;font-family:Papyrus-Regular, Papyrus">Ibra</text><text transform="translate(17.34 60.32)" style="isolation:isolate;font-size:4px;fill:none;stroke:#231f20;stroke-miterlimit:10;stroke-width:0.10000000149011612px;font-family:Papyrus-Regular, Papyrus">Ibra</text><text transform="translate(17.34 65.12)" style="isolation:isolate;font-size:4px;font-family:Papyrus-Regular, Papyrus">&amp;</text><text transform="translate(17.34 65.12)" style="isolation:isolate;font-size:4px;fill:none;stroke:#231f20;stroke-miterlimit:10;stroke-width:0.10000000149011612px;font-family:Papyrus-Regular, Papyrus">&amp;</text><text transform="translate(17.34 69.92)" style="isolation:isolate;font-size:4px;font-family:Papyrus-Regular, Papyrus">Elly</text><text transform="translate(17.34 69.92)" style="isolation:isolate;font-size:4px;fill:none;stroke:#231f20;stroke-miterlimit:10;stroke-width:0.10000000149011612px;font-family:Papyrus-Regular, Papyrus">Elly</text></g><g style="isolation:isolate"><text transform="translate(67.95 44.11)" style="isolation:isolate;font-size:5px;fill:#fcfcfc;font-family:PoorRichard-Regular, Poor Richard">Welcome to Happy Toto </text><text transform="translate(67.95 44.11)" style="isolation:isolate;font-size:5px;fill:#fff;font-family:PoorRichard-Regular, Poor Richard">Welcome to Happy Toto<tspan x="45.5" y="0" style="stroke:#f9f9f9;stroke-miterlimit:10;stroke-width:0.10000000149011612px"> </tspan></text><text transform="translate(50.35 50.11)" style="isolation:isolate;font-size:5px;fill:#fcfcfc;font-family:PoorRichard-Regular, Poor Richard">game aiming to help your children</text><text transform="translate(50.35 50.11)" style="isolation:isolate;font-size:5px;fill:#f9f9f9;font-family:PoorRichard-Regular, Poor Richard">game aiming to help your children</text><text transform="translate(64.25 56.11)" style="isolation:isolate;font-size:5px;fill:#fcfcfc;font-family:PoorRichard-Regular, Poor Richard"><tspan xml:space="preserve"> protect themselves against</tspan></text><text transform="translate(64.25 56.11)" style="isolation:isolate;font-size:5px;fill:#fcfcfc;font-family:PoorRichard-Regular, Poor Richard"><tspan xml:space="preserve"> protect themselves against</tspan></text><text transform="translate(79.65 62.11)" style="isolation:isolate;font-size:5px;fill:#fcfcfc;font-family:PoorRichard-Regular, Poor Richard">child sexual abuse!</text><text transform="translate(79.65 62.11)" style="isolation:isolate;font-size:5px;fill:#f9f7f7;font-family:PoorRichard-Regular, Poor Richard">child sexual abuse!</text></g><text transform="translate(91.89 35.04)" style="isolation:isolate;font-size:6px;font-family:PoorRichard-Regular, Poor Richard">Welcome</text></svg>