<?xml version="1.0" encoding="utf-8"?>
<!-- Generator: Adobe Illustrator 24.2.1, SVG Export Plug-In . SVG Version: 6.00 Build 0)  -->
<svg version="1.1" id="Layer_1" xmlns="http://www.w3.org/2000/svg" xmlns:xlink="http://www.w3.org/1999/xlink" x="0px" y="0px"
	 viewBox="0 0 127.3 79.3" style="enable-background:new 0 0 127.3 79.3;" xml:space="preserve">
<style type="text/css">
	.st0{fill:#7F5449;}
	.st1{fill:#63413B;}
	.st2{fill:#B7825A;}
	.st3{fill:#000068;}
	.st4{fill:#2D2D2D;}
	.st5{fill:#704843;}
	.st6{fill:#230700;}
	.st7{fill:#FFECD8;}
	.st8{fill:#230601;}
	.st9{fill:#290600;}
	.st10{fill:#FCFCFC;}
	.st11{fill:#17BC9C;}
	.st12{fill:#61E5CC;}
	.st13{fill:#6BEDD4;}
	.st14{fill:#56DBC1;}
	.st15{fill:#49CEB4;}
	.st16{fill:#0E1A46;}
	.st17{fill:#000333;}
	.st18{fill:#0B173C;}
	.st19{opacity:0.4;fill:#000333;enable-background:new    ;}
	.st20{opacity:0.25;fill:#000333;enable-background:new    ;}
	.st21{opacity:0.22;fill:#000333;enable-background:new    ;}
	.st22{fill:#1C0803;}
	.st23{fill:#BC66CC;}
	.st24{fill:#B01F24;}
	.st25{fill:#D61F27;}
	.st26{fill:#FFFFFF;}
	.st27{fill:#231F20;}
	.st28{fill:#211F1F;}
	.st29{fill:#DD8426;}
	.st30{fill:#F1A21E;}
	.st31{fill:#EE3224;}
	.st32{fill:#FEF04B;stroke:#EFEB5D;stroke-width:0.5;stroke-miterlimit:10;}
	.st33{fill:#0B0C0C;}
	.st34{fill:#DDC747;}
	.st35{fill:#F7F2F2;stroke:#000000;stroke-width:1.000000e-02;stroke-miterlimit:10;}
	.st36{fill:#F2F3ED;}
	.st37{fill:#F75497;}
	.st38{fill:#1F960E;}
	.st39{font-family:'Papyrus-Regular';}
	.st40{font-size:4px;}
	.st41{fill:none;stroke:#231F20;stroke-width:0.1;stroke-miterlimit:10;}
	.st42{font-family:'PoorRichard-Regular';}
	.st43{font-size:5px;}
	.st44{enable-background:new    ;}
	.st45{fill:#FFFFFF;stroke:#F9F9F9;stroke-width:0.1;stroke-miterlimit:10;}
	.st46{fill:#F9F9F9;}
	.st47{fill:#F9F7F7;}
	.st48{font-size:6px;}
</style>
<path class="st0" d="M15.6,34c0.1-0.3,6.7,1,6.9,1c-0.3,0.6-0.6,1.2-0.8,1.8c-0.1,0.6,0,1.3,0.2,1.9c-1,0.8-2.3,1.1-3.5,0.8
	c-1.2-0.1-2.3-0.7-2.9-1.8c0.1-0.5,0.2-1.1,0.3-1.6C15.7,35.5,15.7,34.8,15.6,34z"/>
<path class="st1" d="M15.7,36.2c1.1,1.3,2.8,1.8,4.5,1.5c0.5-0.1,1-0.3,1.3-0.7c0.1-0.2,0.2-0.4,0.3-0.6l0.2-0.5v-0.1
	c0-0.1-0.1-0.1-0.2-0.1c-1.7-0.4-3.3-0.7-5-1.2c-0.2,0-0.4-0.2-0.6-0.3c-0.2,0-0.1,0-0.3,0.3C15.9,35.2,15.9,35.7,15.7,36.2z"/>
<path class="st1" d="M35.6,67.2c-0.1,0.2-0.3,0.4-0.5,0.6c-0.1,0.2-0.3,0.3-0.5,0.3c-0.1,0-0.1,0.1-0.2,0.1s-0.1,0.1-0.1,0.2
	s0,0.3-0.1,0.4c0,0.1,0.2,0.2,0.3,0.3s0.2,0,0.2-0.1c0.4-0.2,0.8-0.4,1.1-0.8c0.2-0.2,0.4-0.5,0.4-0.8c0-0.2,0.2-0.4,0.2-0.6
	c0.1,0.6-0.5,1.2-0.7,1.8c0,0.1,0,0.2-0.1,0.3l-0.4,0.4c-0.2,0.1-0.3,0.3-0.4,0.5V70c0,0.1,0.1,0.2,0.2,0.3s0.3,0.4,0.5,0.3
	c0.1,0,0.2-0.1,0.2-0.2l0.4-0.4l0.3-0.3c0.5-0.5,0.8-1.1,0.9-1.8c0-0.2,0-0.5-0.1-0.7c-0.1-0.1-0.1-0.2-0.2-0.3v-0.2
	c-0.1-0.2-0.2-0.3-0.3-0.5s-0.4-0.3-0.6-0.4s-0.3-0.1-0.3,0.1s-0.1,0.3-0.1,0.5C35.9,66.6,35.7,66.9,35.6,67.2z"/>
<path class="st0" d="M36.8,68.2c0,0.2-0.2,0.4-0.2,0.6s-0.3,0.4-0.3,0.7c-0.2,0.3-0.3,0.6-0.5,0.9c0,0.1-0.1,0.3-0.1,0.4
	s0.1,0.3,0,0.5l0.1,0.1c0.1,0.1,0.3,0.1,0.4,0c0.1-0.1,0.3-0.3,0.3-0.4c0.3-0.6,0.7-1.2,1-1.9c0.4-1,0.7-2.1,0.8-3.2
	c0.1-0.3,0-0.6-0.1-0.9s-0.1-0.8-0.2-1.3c0-0.1,0-0.1-0.1-0.1s-0.1,0-0.1,0.1l0,0c-0.1-0.1-0.2-0.3-0.4-0.4s-0.3-0.1-0.5-0.1
	c-0.3,0-0.5,0-0.8,0.1c-0.2,0.1-0.4,0.3-0.4,0.6c0,0.1,0,0.2-0.1,0.3v0.1c-0.1,0.2-0.3,0.3-0.3,0.5s-0.1,0.3-0.1,0.5
	s-0.1,0.3-0.2,0.5l-0.5,1.3c0,0.1,0,0.2-0.1,0.3c0.1,0.1,0.2,0.1,0.3,0.2l0.5,0.1h0.2c0.1,0,0.1-0.1,0.1-0.2
	c0.2-0.3,0.3-0.6,0.5-0.9l0.1,1.2v0.4c-0.1,0.6-0.2,1.1-0.3,1.7c-0.2,0.3-0.2,0.7-0.2,1c0,0.2,0.2,0.3,0.4,0.4s0.4-0.3,0.4-0.4
	l0.2-0.7c0-0.2,0.2-0.4,0.2-0.5c0-0.2,0.1-0.3,0.1-0.5c0.1-0.3,0.2-0.7,0.3-1c-0.2-0.2-0.3-0.7-0.5-0.9l0,0c0-0.1,0-0.2-0.1-0.2
	c-0.2,0.3-0.3,0.7-0.2,1c0.1,0.1,0.1,0.1,0.1,0.2C36.8,68.1,36.7,68,36.8,68.2z"/>
<path class="st2" d="M34.8,66.4L34.8,66.4c-0.1,0.1-0.2,0.3-0.3,0.4s-0.2,0.3,0.1,0.2l0.4,0.1c0.1,0,0.2-0.1,0.3-0.2
	c0-0.1,0-0.2,0.1-0.3v-0.2c0-0.1,0-0.1-0.1,0H34.8z"/>
<path class="st2" d="M36.4,69.9c0,0.1-0.1,0.6-0.1,0.7v0.1h0.1v-0.2C36.5,70.3,36.5,70.1,36.4,69.9z"/>
<path class="st1" d="M35.8,65.9c0-0.1,0-0.1,0.1-0.2s0.3-0.1,0.4,0c0,0,0,0,0,0.1c0.1,0.1,0.2,0.2,0.2,0.3c0.1,0.3,0.1,0.7,0,1
	c0.1,0.3,0.1,0.7,0,1c0,0.1,0,0.2-0.1,0.3c0,0.1-0.1,0.3-0.1,0.4c-0.1,0.4-0.1,0.8-0.2,1.2L36,70.5v0.2c-0.2-0.3-0.2-0.7,0-1
	c0.1-0.3,0.1-0.6,0.2-0.9l0.1-0.8c0-0.2,0.1-0.4,0.1-0.6s-0.1-0.7-0.1-1.2c-0.1,0.2-0.2,0.5-0.3,0.7s-0.6,0.3-0.5,0.2
	s0.2-0.4,0.2-0.5C35.6,66.3,35.7,66.2,35.8,65.9z"/>
<path class="st1" d="M36,69.6c-0.2,0.3-0.2,0.7-0.2,1c0,0.1,0,0.1,0.1,0.1v0.5h-0.1c-0.1,0-0.1,0-0.1-0.1s0-0.1-0.1-0.1v-0.2
	c-0.1-0.2,0-0.5,0.1-0.7l0.1-0.3C35.8,69.6,35.8,69.6,36,69.6l-0.1,0.2"/>
<path class="st0" d="M13.1,67.5c0.5,0.1,1,0.4,1.3,0.8c0.2,0.3,0.3,0.7,0.3,1.1c0.1,0.3-0.6,6.9-0.7,8.6c0.1,1.4,0,2.7-0.2,4.1
	c-0.4,0.7-0.7,1.4-1,2.1c-0.3,1-0.5,2-0.5,3.1c0,0.5,0.1,1.1,0.3,1.6c0.2,1,0.2,1.8,0.3,2.7C13,92.4,13,93.2,13,94
	c0.1,0.3,0,0.7-0.2,1s-0.3,0.6-0.4,0.9c0.1,0.1,0.1,0.3,0.1,0.4c0.2,0.8-0.9,1.5-0.6,2.3c0.4,0.6,1.2,0.9,1.9,0.7
	c0.1,0,0.2-0.1,0.3-0.1s0.3,0.1,0.4,0.1c0.9,0.3,1.9,0.4,2.8,0.5h0.2c0.2-0.1,0.4-0.3,0.3-0.5s-0.2-0.4-0.2-0.6
	c-0.4-0.5-0.7-1-1-1.5c-0.2-1.5-0.2-3,0.1-4.4c0.8-1.5,1.3-3,1.7-4.6c0.5-1.6,0.6-3.2,0.4-4.8c-0.2-0.8-0.2-1.7-0.1-2.5
	c0.1-0.7,1.2-2,1.7-3.5c0.3-1.3,0.6-2.7,0.7-4.1c0.2-1.6,0.4-3.6,0.6-5.2c0.1-1.6,0.1-3.1,0-4.7c0-0.6,0.7-2.1,0.7-2.7
	s0.6-4.8,0.7-5.2c0.3-1.9,0.8-3.8,1.1-5.8c0.1-0.5,0.4-3.1,0.5-3.8c0-0.2,0.1-0.5,0.1-0.7c0.2-0.9,1.1,2.1,1.4,3s1.1,2.6,0.8,2.5
	c0.3,0.8,0.6,1.1,0.9,2c0.1,0.4,0.4,0.9,0.5,1.3c0.1,0.3,0.2,0.7,0.3,1c0.2,0.7,0.5,1.4,0.9,2.1c0.4,0.4,3.6,3.8,3.9,4.2
	s1.2,1.8,1.6,2.1s0.4,0.6,0.6,0.7c0.4-0.4,0.9-0.6,1.5-0.5c0.6,0,1-0.1,0.7-0.6c-0.5-1-0.9-2-1.3-2.9c-0.4-1.2-1-2.3-1.7-3.4
	c-0.4-0.8-0.9-1.5-1.4-2.2s-1.3-1.6-1.9-2.4c-0.5-0.8-0.9-1.6-1.3-2.5c-0.4-1.1-1.4-3.9-1.6-4.9c-0.1-0.6-0.3-1.1-0.5-1.7
	c-0.1-0.6-0.3-1.2-0.6-1.7c-0.3-0.4-0.6-0.7-1-1c-0.5-0.3-1.1-0.6-1.7-0.9c-1.2-0.5-1.9-0.5-3.2-1c-0.4,0.3-0.8,0.5-1.3,0.7
	c-0.8,0.2-1.6,0.3-2.4,0.1"/>
<path class="st0" d="M18.3,39.4c-0.7-0.1-1.4-0.4-2-0.8c-0.4-0.3-0.7-0.7-0.9-1.1c-1.1-0.1-2.3-0.2-3.4-0.1c-0.6,0-1.2,0.1-1.8,0.2
	c-0.5,0.1-0.9,0.3-1.3,0.6c-0.4,0.4-0.8,0.9-1.2,1.4c-0.4,0.5-0.7,0.9-1.1,1.5c-0.7,0.9-2.5,3.2-3.3,4.2c-0.6,0.7-1.3,1.4-2,2
	c-0.8,0.6-1.9,1.1-2.6,1.7s-1.6,1.2-2.1,1.6c-1,0.8-1.9,1.8-2.8,2.7c-0.4,0.5-1.9,1.9-2.3,2.3s-0.2,0.6,0.5,0.8
	c0.5,0.1,0.9,0.5,1.2,0.9c0.3-0.1,0.5-0.3,0.8-0.5c0.5-0.2,1.7-1.2,2.2-1.4s4.7-2.4,5.1-2.7C2,52.2,2.6,51.6,3,50.9
	c0.3-0.5,0.3-0.6,0.6-0.8C4,49.8,4.3,49.4,4.5,49l1.6-1.6c-0.1,0,1.3-1.4,1.7-2.1c0.6-0.7,2.5-3.4,2.3-2.4C10,43.1,10,43.3,10,43.5
	c-0.1,0.8-0.7,3.2-0.7,3.7c-0.4,1.9-0.7,3.8-1,5.8c-0.1,0.4-1,4.7-1.1,5.1s-1,2-1.2,2.6c-0.4,0.9-0.4,3.6-0.7,4.6
	c-0.4,1.6-0.8,3.5-1.2,5.1c-0.3,1.3-0.6,2.7-0.7,4.1c-0.1,1.6,0.5,3.1,0.4,3.8c-0.2,0.8-0.6,1.6-1,2.3c-0.8,1.4-1.3,3-1.3,4.7
	c-0.1,1.6,0,3.3,0.1,4.9c-0.3,1.4-0.7,2.9-1.3,4.2c-0.4,0.5-0.9,0.9-1.5,1.1c0.1,0-0.1,0.2-0.2,0.3s-0.1,0.4,0.1,0.5h0.2
	c0.9,0.3,1.8,0.4,2.7,0.4c0.2,0.1,0.3,0.1,0.5,0.1c0.1,0,0.2,0.1,0.3,0.2c0.6,0.4,1.4,0.4,2-0.1c0.5-0.6-0.2-1.7,0.3-2.3
	C4.8,94.5,5,94.3,5,94.2c0.1-0.3,0.1-0.6-0.1-0.9c-0.1-0.3,0-0.7,0.2-1c0.2-0.7,0.6-1.4,0.8-2.1c0.3-0.9,0.7-1.7,1.2-2.5
	c0.3-0.4,0.6-0.9,0.8-1.4c0.3-1,0.5-2,0.5-3.1c0.1-1-0.3-1.9-0.2-2.3c0.3-1.3,0.8-2.6,1.2-4c0.5-1.8,2.1-8.1,2.3-8.4
	s0.3-0.7,0.7-0.9c0.4-0.3,0.8-0.4,1.3-0.3"/>
<path class="st3" d="M5.8,61c0.2-0.5,0.5-1.2,1.1-1.2H7c3.7,0.5,15,1.9,15,2.2c0.1,0.3,0.1,0.7,0,1c-0.3,2.4-4,3.6-7.8,4.9
	c-0.3,0.1-0.7,0.2-1.1,0.1c-0.5,0-1-0.2-1.4-0.4c-1.9-1.2-5.9-3.7-6-5.8C5.7,61.5,5.7,61.3,5.8,61z"/>
<circle class="st4" cx="13.7" cy="44.5" r="0.2"/>
<circle class="st4" cx="21.5" cy="45.7" r="0.2"/>
<path class="st1" d="M2.5,50.9c0.2-0.2,0.3-0.5,0.4-0.7c0.2-0.2,0.4-0.5,0.7-0.6c0.3-0.3,0.6-0.6,0.9-1L5.6,47
	c0.1-0.2,0.3-0.5,0.4-0.7c0-0.2,0.1-0.4,0.2-0.6c0.3-0.4,0.6-0.8,0.8-1.2c0.1-0.2,0.2-0.3,0.3-0.5h0.5c1.1-0.5,2-1.5,2.5-2.7
	c0.1-0.5,0.4-0.9,0.7-1.2l0.2,0.1C11,41,11,41.8,11.3,42.6c0.1,0.2,0.2,0.4,0.2,0.6c0,0.2-0.1,0.5-0.1,0.7c-0.3,1.3,0.4,2.8,0.1,4.1
	c-0.2,0.5-0.4,1-0.6,1.4c-0.2,0.4-0.4,0.9-0.4,1.4l-0.1,0.5c0,0.2-0.1,0.4-0.1,0.6c0,0.4-0.1,0.8-0.2,1.2c-0.2,0.4-0.3,0.8-0.5,1.2
	c-0.1,0.3-0.1,0.6-0.1,0.9c0.1,0.1,0.1,0.3,0,0.4c0,0.1-0.1,0.3-0.1,0.4L9,57.3c-0.1,0.2-0.5,0.2-0.7,0.1s-0.1-0.1-0.2-0.1
	c0-0.2,0.1-0.4,0.1-0.6s0.1-0.3,0.1-0.5l1.2-6.6l0.2-1l0.2-1.1l0.3-2l0.2-0.9c0.1-0.4,0.1-0.8,0.2-1.3c0-0.2,0.1-0.6-0.1-0.6
	s-0.4,0.4-0.4,0.5c-0.5,0.5-1,1.1-1.3,1.7c-0.5,0.7-1,1.4-1.6,2C6.5,47.5,5.8,48.3,5,49l-0.8,0.8C4,50.1,3.3,51.2,3,51.6
	c-0.4,0.4-0.9,0.8-1.4,1.1c-0.4,0.2-0.8,0.4-1.2,0.6c0.4-0.4,0.8-0.8,1-1.3C1.9,51.7,2.2,51.4,2.5,50.9z"/>
<path class="st5" d="M28.2,30.3l0.4,0.4c0.1,0.2,0.1,0.5,0.2,0.7c0,0.8-0.3,1.6-0.9,2.1c-0.3,0.3-0.8,0.5-1.3,0.5
	c-0.2,0-0.4-0.1-0.5-0.3s-0.1-0.4,0-0.6l0.4-1.9C26.6,30.5,27.3,29.7,28.2,30.3z"/>
<path class="st5" d="M11.6,27.6c-0.1,0.1-0.3,0.2-0.5,0.2c-0.1,0.2-0.3,0.4-0.3,0.6c-0.3,0.8-0.2,1.6,0.1,2.3
	c0.1,0.4,0.6,0.7,1.1,0.9c0.2,0,0.4,0.1,0.6-0.1s0.3-0.4,0.2-0.6L13,29C13.1,28.3,12.6,27.3,11.6,27.6z"/>
<path class="st0" d="M14.2,23.7c-0.9,1.1-1.3,2.5-1.4,3.9c-0.1,1.3-0.3,3.8-0.3,4.2c0.3,2.3,3.6,4.4,3.9,4.6c1.2,0.8,2.8,1,4.2,0.6
	c2.1-0.4,4-1.6,5.3-3.4c0.6-1,1-2.2,1.1-3.4c0.2-1.3,0.3-2.6,0.2-3.9c-0.4-1.2-1.2-2.3-2.4-2.8c-1.9-0.6-3.9-1-5.9-1.2
	C17.2,22.1,15.5,22.6,14.2,23.7z"/>
<path class="st6" d="M13,28.5c0.4-1.7,1-4.2,2.3-4.6c1-0.4,4.1,0.6,5.5,0.8c1.7,0.1,3.3,0.4,5,0.7c0.6,0.1,1,0.5,1.2,1.1
	c0.2,1.5,0.1,3.1-0.1,4.6c0.4-0.3,0.6-0.7,0.7-1.2c0.6-1.5,0.9-3.2,0.7-4.8c-0.5-1.9-1.9-3.5-3.7-4.3c-1.8-0.6-3.8-0.9-5.7-0.9
	c-1.8,0-3.5,0.8-4.6,2.2C13.5,23.6,13,25.3,13,27C12.6,28.6,12.8,29,13,28.5z"/>
<path class="st1" d="M18.2,32.2c0.1-0.1,0.3,0.4,1,0.5s1-0.2,1.1-0.1s-0.1,0.7-0.9,0.6S18,32.3,18.2,32.2z"/>
<path class="st7" d="M14.2,29.2c0.1-0.7,1.3-1,2.3-0.9s1.8,0.8,1.7,1.4s-0.9,1-2,0.9S14.1,29.9,14.2,29.2z"/>
<path class="st8" d="M16.8,26.9c-0.4-0.1-0.9-0.1-1.3,0C15.3,27,15.2,27,15,27c0,0,0.1-0.8,1.7-0.6c1.2,0.2,1.7,0.8,1.6,0.9
	S17.6,27,16.8,26.9z"/>
<ellipse transform="matrix(0.9988 -4.989234e-02 4.989234e-02 0.9988 -1.4516 0.85)" class="st9" cx="16.3" cy="29.5" rx="1.2" ry="1"/>
<circle class="st10" cx="15.6" cy="29.3" r="0.4"/>
<path class="st8" d="M16.6,28c0.8,0.1,1.5,0.7,1.7,1.5c-0.1,0.9,0-1-1.8-1.2c-0.9-0.2-1.9,0.2-2.3,1.1C14.3,27.9,15.7,27.9,16.6,28z
	"/>
<path class="st8" d="M23.5,28c0.4,0,0.8,0.2,1.2,0.4c0.2,0.1,0.3,0.2,0.5,0.3c0-0.1,0.1-0.8-1.4-1.1c-1.2-0.2-1.8,0.2-1.8,0.3
	S22.9,27.9,23.5,28z"/>
<path class="st7" d="M21.3,30.2c0.1-0.6,1.3-1,2.3-0.8s1.8,0.8,1.7,1.4s-0.9,1-2,0.9S21.2,30.9,21.3,30.2z"/>
<ellipse transform="matrix(0.9988 -4.989342e-02 4.989342e-02 0.9988 -1.5028 1.2008)" class="st9" cx="23.3" cy="30.7" rx="1.2" ry="1"/>
<circle class="st10" cx="22.6" cy="30.4" r="0.4"/>
<path class="st8" d="M23.6,29.2c0.8,0.1,1.5,0.7,1.7,1.5c0.1,0.9,0-1-1.8-1.2c-0.9-0.2-1.9,0.2-2.3,1.1C21.4,29,22.8,29,23.6,29.2z"
	/>
<path class="st11" d="M11.4,59.4c-0.2,0.3-0.4,0.5-0.7,0.7c2.5,0.7,5.1,1.1,7.7,1.2c-0.2-0.3-0.3-0.5-0.4-0.8
	c0.1,0.3,0.2,0.5,0.4,0.8c1.5,0.1,2.9,0,4.4-0.1c-0.1-0.9-0.2-1.5-0.2-1.5c-5.2,0-10.3-0.8-15.2-2.4c-0.1,0.5-0.3,1-0.6,1.5
	c1.3,0.6,2.6,1.1,3.9,1.4C11,60,11.2,59.7,11.4,59.4z"/>
<path class="st12" d="M22.7,64.6c-0.2-1.4-0.1-2.6-0.2-3.5c-1.3,0.1-2.7,0.2-4,0.1C19,62.2,19.8,63.6,22.7,64.6z"/>
<path class="st11" d="M1.4,76.4l10,1.6l0.1-1.5l-9.7-1.7C1.2,76,1.4,76.4,1.4,76.4z"/>
<path class="st11" d="M12.4,76.4L12.2,78l9.6,1.1c0.2-0.6,0.2-1.2,0.2-1.8L12.4,76.4z"/>
<path class="st13" d="M11.4,60.2c-1.6-0.4-3.1-0.9-4.6-1.5c-0.4,0.8-0.9,2-1.6,3.3C7.4,62.1,9.6,61.5,11.4,60.2z"/>
<path class="st14" d="M10.7,60c-1.4,1.4-3.4,2.1-5.4,1.9c-1.1,4.6-2.5,9.6-3.5,12.8l9.6,1.6l1.7-6.8l1.5-8.7
	C13.3,60.6,12,60.3,10.7,60z"/>
<path class="st15" d="M22.7,64.6c-1.8-0.5-3.3-1.7-4.2-3.3c-1.3-0.1-2.6-0.2-3.9-0.4l-1.5,8.7l-0.6,6.9l9.6,0.9
	C22.2,74.2,22.6,69,22.7,64.6z"/>
<path class="st16" d="M22.3,38.5L22.3,38.5c0.1,0,0.2,0,0.3,0.1h0.1c0.1,0,0.1,0,0.1,0.1h0.1c1.2,0.7,3.3,1.1,4.4,2
	c0.8,0.8,2.1,5.1,3.2,6.3c0.1,0.1,0.2,0.3,0,0.5l0,0c-0.6,0.4-1.6,1.1-1.8,1.2c-0.7,0.3-1.4,0.5-2.1,0.7c-0.3,0.1-0.7,0-0.7-0.3
	c-0.1-0.3-0.2-0.7-0.4-1c-0.2,0-0.3-0.1-0.5-0.1l0,0c-0.6,1.5-1,3.1-1.2,4.7c-0.1,0.7-0.2,1.5-0.3,2.6c0,0.3-0.1,0.7-0.1,1.2
	c-0.1,2.2,0.1,5.3-0.2,6.5c0,0.2-0.3,0.3-0.5,0.3c-2.7-0.3-5.6-0.8-8.3-1.1c-1.4-0.2-2.9-0.4-4.2-0.7c-1.1-0.3-2.5-0.8-3.6-1
	c-0.3-0.1-0.5-0.3-0.4-0.5c0.3-1.2,0.8-2.3,1.3-3.4c0.1-0.3,0.2-0.5,0.2-0.8c0.1-0.3,0.2-0.6,0.2-0.9C8,54.7,8,54.4,8.1,54.2
	c0.1-0.5,0.2-0.9,0.2-1.4c0.1-0.5,0.2-1.1,0.3-1.6c0-0.6,0.2-1.2,0.4-1.7c0.3-0.8,0.4-1.6,0.5-2.5l0,0c0-0.3,0.2-0.6,0.2-0.9v-0.4
	H9.3c-0.3,0-0.8,0.5-0.9,0.4c-0.9-0.5-1.8-1.1-2.6-1.7l-1-1c-0.1-0.1-0.2-0.3,0-0.5l0,0c0.6-0.8,2.6-2.9,2.8-3.2
	c0.4-0.5,0.8-0.9,1.3-1.3c0.1-0.2,0.7-0.4,1-0.6c0.5-0.1,1-0.2,1.5-0.2c0.8-0.1,1.5-0.2,2.3-0.3h0.1c0.1,0,0.5-0.1,0.6-0.1
	c0.2,0.3,0.2,3.7,3.1,4.2C21.6,42.1,22.1,38.5,22.3,38.5z"/>
<path class="st17" d="M22.3,38.5c0.2,0.1,0.4,0.2,0.6,0.2H23c1.4,0.4,2.8,1,4.1,1.8c1.1,0.7,1.5,2.6,1.9,3.8
	c-0.2,0.1-0.5,0.3-0.7,0.4c-0.6-1.1-0.9-2.6-1.8-3.4c-1.1-0.9-2.3-1.5-3.6-1.9h-0.1c-0.3-0.2-0.6-0.3-0.9-0.4
	C22.1,38.9,22.2,38.7,22.3,38.5z"/>
<path class="st17" d="M14.5,37.2h-0.7c-1.3-0.1-2.6,0-3.9,0.4C8.6,38,7.2,40.1,6.4,41L7,41.6c0.9-0.8,2.2-2.5,3.3-2.9
	s2.2-0.6,3.3-0.6h0.1c0.3,0,0.5-0.1,0.9-0.1C14.5,37.7,14.5,37.5,14.5,37.2z"/>
<path class="st17" d="M9.7,45.9L9.7,45.9c0.4-0.7,0.6-1.4,0.7-2.2c0.1-0.3,0.1-0.5,0.2-0.8c0.1-0.3,0.2-0.6,0.2-0.9
	c0.1-0.4,0.3-0.9,0.4-1.3c0.1-0.8,0-1.6-0.2-2.3h0.1c0.3,0.7,0.3,1.5,0.2,2.3c-0.1,0.5-0.2,0.9-0.4,1.4c-0.1,0.3-0.2,0.5-0.2,0.8
	c-0.1,0.3-0.1,0.5-0.2,0.8C10.4,44.5,10.2,45.3,9.7,45.9z"/>
<path class="st17" d="M24.9,48c-0.3-0.1-0.5-1.2-0.5-1.8c-0.3-2,0-4.1,0.6-6h0.1c-0.6,1.9-0.8,4-0.6,6C24.5,46.8,24.7,47.4,24.9,48z
	"/>
<path class="st18" d="M22.9,38.7L22.9,38.7L22.9,38.7c-0.4,1-1,1.9-1.8,2.5c-0.9,0.8-2.2,1.1-3.4,0.9c-0.5,0-1-0.2-1.4-0.4
	c-0.6-0.3-1.1-0.7-1.5-1.2c-0.7-0.9-1.1-2-1-3.1v-0.1h0.1c0.2-0.1,0.4-0.1,0.6-0.1l0,0c0.1,1.1,0.5,2.1,1.1,3
	c0.3,0.4,0.7,0.7,1.1,0.9c0.3,0.2,0.6,0.3,1,0.3c0.9,0.1,1.9-0.1,2.7-0.6c0.8-0.6,1.3-1.3,1.7-2.2l0.1-0.1"/>
<path class="st17" d="M22.9,38.7L22.9,38.7c-0.1,0.2-0.2,0.5-0.3,0.7l0,0c-0.4,0.7-0.9,1.3-1.5,1.8c-1,0.8-2.2,1.1-3.4,0.8
	c-0.5-0.1-1-0.2-1.4-0.4c-0.6-0.3-1.1-0.7-1.5-1.2c-0.6-0.7-0.9-1.5-1-2.4c0-0.2,0-0.5-0.1-0.7v-0.1l0,0c0,0.2,0,0.5,0.1,0.7
	c0.1,0.9,0.4,1.7,1,2.4c0.4,0.5,1,0.9,1.5,1.2c0.3,0.2,0.7,0.3,1.1,0.4h0.3c1.2,0.2,2.5-0.1,3.4-0.9c0.6-0.5,1.1-1.1,1.5-1.8
	L22.9,38.7L22.9,38.7z M22.3,38.5L22.3,38.5c-0.1,0.3-0.3,0.5-0.5,0.8c-0.3,0.6-0.7,1.1-1.3,1.5c-0.8,0.5-1.8,0.7-2.7,0.6h-0.3
	c-0.3-0.1-0.5-0.1-0.7-0.3c-0.4-0.2-0.8-0.5-1.1-0.9c-0.5-0.6-0.8-1.3-1-2.1l0,0c-0.1-0.3-0.1-0.6-0.1-0.9l0,0
	c0,0.3,0.1,0.6,0.1,0.8c0.2,0.8,0.5,1.5,1,2.2c0.3,0.4,0.7,0.7,1.1,0.9c0.3,0.2,0.6,0.3,1,0.3c0.9,0.1,1.9-0.1,2.7-0.6
	c0.6-0.4,1.1-1,1.4-1.6C22,38.9,22.1,38.7,22.3,38.5z"/>
<path class="st19" d="M25.6,48c-0.2,0-0.4-0.1-0.6,0c-0.1-0.1-0.1-0.2-0.2-0.3c-0.2-0.3-0.3-0.6-0.4-1s-0.1-0.9,0-1.3
	c0-0.4-0.1-0.8-0.1-1.3c0.2,0.6,0.3,1.2,0.4,1.8c0.1,0.4,0,0.8,0.4,1.2c0.1,0.1,0.2,0.3,0.2,0.5C25.4,47.7,25.6,47.9,25.6,48z"/>
<path class="st19" d="M10.4,44.5c-0.1,0.6-0.4,1.1-0.7,1.6v-0.4H9.3c0.1-0.3,0.3-0.5,0.4-0.8s0.2-0.5,0.3-0.7
	c0.2-0.6,0.4-1.3,0.6-1.9c0.1,0.1,0.1,0.2,0.1,0.4s-0.1,0.3-0.1,0.4C10.5,43.5,10.5,44,10.4,44.5z"/>
<path class="st20" d="M14.2,59.7c-0.5,0.1-1,0.1-1.5,0c-1.5-0.4-2.6-1.6-3.9-2.4c-0.2-0.1-0.3-0.2-0.5-0.3S8.1,56.8,8,56.8
	c-0.2,0-0.5-0.1-0.7-0.1c0.1-0.3,0.2-0.5,0.2-0.8c0.5-0.1,1,0.1,1.3,0.5c0.3,0.3,0.4,0.6,0.7,0.8c1,1.1,2.5,1.2,3.9,1.8
	C13.8,59.1,14.1,59.3,14.2,59.7z"/>
<path class="st21" d="M23.4,56.5L23.4,56.5c-0.1,0.1-0.3,0-0.4,0.1s-0.1,0.1-0.1,0.2c-0.6,1.1-1.3,2.1-2.3,2.9
	c0.3-0.9,0.7-1.7,1.3-2.4c0.1-0.2,0.2-0.3,0.2-0.5c-0.1-0.3-0.5-0.4-0.8-0.4c0-0.2,0.3-0.4,0.5-0.5c0.3-0.2,0.7-0.4,1-0.7
	c0.1-0.1,0.3-0.2,0.3-0.4c0.2-0.4,0.2-0.8,0-1.2c-0.1-0.9-0.1-1.9,0-2.8c0.2,0,0.3,0.4,0.3,0.6c0,0.5,0.1,0.9,0.3,1.3
	c0,0.1,0,0.1,0.1,0.2c-0.1,0.7-0.2,1.5-0.3,2.6C23.4,55.8,23.4,56.2,23.4,56.5z"/>
<path class="st20" d="M9.3,51.2c-0.2,0.4-0.3,0.9-0.2,1.3c0,0.3,0.2,0.7,0,1l-0.3,0.3l-1,1c0.1-0.2,0.1-0.5,0.2-0.7
	c0.1-0.5,0.2-0.9,0.2-1.4c0.1-0.5,0.2-1.1,0.3-1.6S8.8,50,9,49.5c0.3-0.8,0.4-1.6,0.5-2.5l0,0c0.2,0.6,0.2,1.3,0,1.9
	c-0.1,0.2-0.2,0.5-0.1,0.7c0,0.2,0.1,0.4,0.2,0.6c0.1,0.4,0.1,0.7,0,1.1C9.5,51.3,9.4,51.3,9.3,51.2z"/>
<path class="st0" d="M35.3,37.4c0-0.3,6.5-0.8,6.5-0.8c-0.1,0.7-0.2,1.4-0.2,2.1c0.1,0.7,0.4,1.3,0.7,1.9c-0.7,1-1.8,1.6-3,1.7
	c-2.2,0.3-3.2-0.9-3.2-1S36,40.4,36,39.6C35.9,38.8,35.6,38.1,35.3,37.4z"/>
<path class="st1" d="M36.1,39.4c1.4,0.7,3.1,0.6,4.4-0.2c0.4-0.2,0.7-0.5,0.9-0.9c0.1-0.2,0.1-0.3,0-0.5v-0.5h-0.3
	c-1.6,0.4-3.2,0.6-4.8,0.6c-0.3,0-0.4-0.1-0.7,0s-0.2,0-0.1,0.3C35.9,38.5,36.1,38.9,36.1,39.4z"/>
<path class="st1" d="M22,67.1c0.1,0.3,0.3,0.5,0.5,0.7c0.1,0.1,0.2,0.3,0.4,0.4s0.1,0.1,0.2,0.1c0.1,0.1,0.1,0.1,0.1,0.2v0.3
	c0,0.1-0.2,0.2-0.3,0.2s-0.2,0-0.2-0.1c-0.4-0.2-0.7-0.5-0.9-0.8c-0.2-0.3-0.3-0.5-0.4-0.8c0-0.2-0.1-0.4-0.2-0.6
	c-0.1,0.6,0.4,1.2,0.6,1.8c0,0.1,0,0.2,0.1,0.3c0.1,0.1,0.2,0.2,0.3,0.4c0.1,0.1,0.2,0.3,0.3,0.4s0.1,0.1,0.1,0.2s-0.1,0.2-0.2,0.3
	s-0.2,0.3-0.4,0.3c-0.1,0-0.2-0.1-0.2-0.2c-0.1-0.1-0.2-0.3-0.3-0.4s-0.2-0.2-0.2-0.3c-0.4-0.5-0.7-1.2-0.8-1.8
	c0-0.2-0.1-0.5,0.1-0.7s0.1-0.2,0.2-0.3v-0.2c0-0.2,0.2-0.3,0.3-0.5c0.2-0.1,0.4-0.2,0.5-0.4c0.2,0,0.3,0,0.3,0.1v0.4
	C21.7,66.4,21.8,66.8,22,67.1z"/>
<path class="st0" d="M20.8,67.7c0,0.2,0.1,0.4,0.2,0.6l0.3,0.6c0.1,0.3,0.3,0.6,0.4,0.9v0.4c0,0.2-0.1,0.3,0,0.5l-0.1,0.1
	c-0.1,0.1-0.3,0-0.4-0.1S21,70.5,21,70.3c-0.3-0.6-0.6-1.2-0.8-1.9c-0.3-1-0.5-2-0.5-3.1c0-0.3,0-0.5,0.1-0.8c0-0.4,0.1-0.9,0.2-1.3
	c0-0.1,0-0.1,0.1-0.1s0.1,0,0.1,0.1l0,0c0-0.1,0.2-0.2,0.3-0.3c0.2,0,0.3,0,0.5-0.1c0.2,0,0.5,0.1,0.7,0.1s0.3,0.3,0.3,0.5
	s-0.1,0.2,0,0.3c0,0.1,0,0.1,0.1,0.1c0.1,0.1,0.2,0.3,0.2,0.5s-0.1,0.3,0,0.5c0.1,0.1,0.1,0.3,0.1,0.4c0.2,0.4,0.4,0.9,0.6,1.4
	c0,0.1,0.1,0.2,0,0.3C22.9,67,22.8,67,22.7,67c-0.2,0-0.3,0-0.5,0.1H22c-0.1,0-0.1-0.1-0.1-0.2c-0.1-0.3-0.3-0.6-0.4-0.9
	c0,0.4-0.1,0.8-0.2,1.2v0.4c0.1,0.5,0,1.1,0.1,1.6s0.2,0.7,0.1,1s-0.2,0.3-0.3,0.3s-0.3-0.2-0.3-0.4c0-0.2-0.1-0.5-0.2-0.7
	c0-0.2-0.1-0.3-0.1-0.5s0-0.3-0.1-0.5c0-0.3-0.1-0.7-0.2-1c0.2-0.3,0.4-0.6,0.5-0.9l0,0c0-0.1,0-0.2,0.1-0.2
	c0.2,0.3,0.3,0.7,0.1,0.9c0,0.1,0,0.1-0.1,0.2C20.8,67.6,20.9,67.7,20.8,67.7z"/>
<path class="st2" d="M22.7,66.4L22.7,66.4c0,0.1,0.1,0.3,0.1,0.4s0.1,0.3-0.1,0.2h-0.4c-0.1,0-0.2-0.1-0.3-0.2v-0.5
	c0-0.1,0.1-0.1,0.1,0C22.3,66.4,22.5,66.4,22.7,66.4z"/>
<path class="st2" d="M21,69.7c0,0.1,0.1,0.6,0.1,0.7s0,0.1-0.1,0.1h-0.1c-0.1-0.1-0.1-0.1-0.1-0.2s-0.1-0.6,0-0.7L21,69.7z"/>
<path class="st1" d="M21.7,65.9c0-0.1,0-0.1-0.1-0.2s-0.2-0.1-0.3,0l0,0c-0.1,0.1-0.2,0.2-0.2,0.3c-0.1,0.3,0,0.6-0.1,1
	c-0.1,0.3-0.2,0.7-0.1,1c0,0.1,0,0.2,0.1,0.3v0.4c0,0.4,0.1,0.8,0.1,1.2v0.6c0.2-0.3,0.1-0.6,0.1-1s-0.1-0.6-0.1-0.8S21,68.2,21,68
	v-0.6c0-0.4,0.1-0.8,0.2-1.2c0.1,0.2,0.1,0.5,0.3,0.7s0.5,0.4,0.4,0.3s-0.1-0.4-0.1-0.5C21.9,66.3,21.9,66.1,21.7,65.9z"/>
<path class="st1" d="M21.5,69.3c0,0.3,0.2,0.7,0,1c0,0.1,0,0.1-0.1,0.1l-0.1,0.1v0.3h0.1c0.1,0,0.1,0,0.1-0.1l0.1-0.1l0.1-0.2
	c0.1-0.2,0-0.4-0.1-0.7v-0.2C21.5,69.4,21.5,69.4,21.5,69.3L21.5,69.3"/>
<path class="st1" d="M61,62.7c-0.1,0.2-0.1,0.4-0.3,0.8c-0.1,0.2-0.2,0.3-0.3,0.5c-0.1,0-0.1,0.1-0.2,0.1c-0.1,0.1-0.1,0.1-0.1,0.2
	v0.3c0,0.1,0.2,0.2,0.3,0.2s0.2,0,0.2-0.1c0.3-0.2,0.6-0.6,0.7-1c0.1-0.2,0.2-0.5,0.2-0.8v-0.6c0.3,0.6-0.1,1.3-0.2,1.9
	c0,0.1,0,0.2-0.1,0.3c-0.1,0.1-0.2,0.2-0.2,0.4c-0.1,0.1-0.2,0.2-0.2,0.4c0,0.1-0.1,0.1-0.1,0.2s0.1,0.2,0.2,0.3s0.3,0.3,0.5,0.2
	c0.1,0,0.2-0.1,0.2-0.2c0.1-0.1,0.2-0.2,0.2-0.4c0.1-0.1,0.2-0.2,0.2-0.3c0.3-0.6,0.4-1.2,0.4-1.9c0-0.3-0.1-0.5-0.3-0.7
	C62,62.2,62,62.1,61.9,62v-0.2c0-0.2-0.2-0.3-0.4-0.4c-0.2-0.1-0.4-0.2-0.6-0.2c-0.2,0-0.3,0-0.3,0.1s0,0.3,0.1,0.4
	C61,62,61.1,62.3,61,62.7z"/>
<path class="st0" d="M62.2,62.9v0.6c-0.1,0.2-0.1,0.4-0.2,0.6s-0.1,0.6-0.2,1v0.4c0,0.2,0.1,0.3,0.1,0.5l0.1,0.1
	c0.1,0.1,0.3,0,0.4-0.1s0.2-0.3,0.1-0.4c0.2-0.7,0.3-1.3,0.3-2c0.1-1.1,0-2.1-0.2-3.2c0-0.3-0.1-0.6-0.3-0.8
	c-0.1-0.4-0.3-0.8-0.5-1.2c0-0.1,0-0.1-0.1-0.1s-0.1,0-0.1,0.1c0-0.1-0.2-0.2-0.4-0.3c-0.2,0-0.3,0-0.5,0.1c-0.2,0-0.4,0.1-0.6,0.3
	c-0.2,0.1-0.2,0.3-0.2,0.5s0.1,0.2,0,0.3c0,0.1,0,0.1-0.1,0.1c-0.1,0.1-0.2,0.3-0.1,0.5c0,0.2,0.1,0.3,0.1,0.5s-0.1,0.3,0,0.4
	c-0.1,0.5-0.2,1-0.3,1.5c0,0.1-0.1,0.2,0,0.3s0.2,0.1,0.3,0.1c0.2,0,0.3,0,0.5-0.1h0.2c0.1,0,0.1-0.1,0.1-0.2c0.1-0.3,0.1-0.6,0.2-1
	c0.1,0.4,0.3,0.7,0.4,1.1v0.4c0.1,0.5,0.2,1.1,0.3,1.6c0,0.3,0,0.7,0.1,1c0.1,0.2,0.2,0.3,0.4,0.3s0.3-0.2,0.2-0.4v-0.7
	c0-0.2,0.1-0.3,0-0.5c0-0.2,0-0.3-0.1-0.5c-0.1-0.3-0.1-0.7,0-1c-0.2-0.2-0.4-0.5-0.6-0.8l0,0c0-0.1,0-0.2-0.1-0.2
	c-0.2,0.3-0.1,0.7,0.1,0.9c0,0.1,0,0.1,0.1,0.2C61.8,62.8,62,62.8,62.2,62.9z"/>
<path class="st2" d="M60.1,62.2L60.1,62.2c0,0.1-0.1,0.3,0,0.4s-0.1,0.3,0.1,0.2h0.4c0.1,0,0.2-0.1,0.3-0.2v-0.5
	c0-0.1-0.1-0.1-0.1,0C60.6,62.2,60.3,62.2,60.1,62.2z"/>
<path class="st2" d="M62.4,65c0,0.1,0.1,0.6,0.1,0.7s0,0.1,0.1,0.1h0.1c0.1-0.1,0.1-0.1,0.1-0.2c0-0.2-0.1-0.5-0.2-0.7L62.4,65z"/>
<path class="st1" d="M60.9,61.5c0-0.1,0-0.1,0.1-0.2c0.1-0.1,0.2-0.1,0.3,0l0,0c0.1,0.1,0.2,0.2,0.2,0.3c0.1,0.3,0.2,0.6,0.3,1
	s0.4,0.7,0.3,1c0,0.1,0,0.2-0.1,0.3v0.4c0,0.4,0.1,0.8,0.1,1.2v0.6c-0.2-0.3-0.4-0.6-0.3-1c0-0.3-0.1-0.6-0.1-0.8s-0.1-0.5-0.1-0.7
	s0-0.4-0.2-0.6c-0.1-0.4-0.3-0.7-0.4-1.1c-0.1,0.2,0,0.5-0.1,0.7s-0.4,0.5-0.3,0.3v-0.5C60.9,61.9,60.8,61.7,60.9,61.5z"/>
<path class="st1" d="M61.9,64.8c0,0.3,0,0.7,0.2,1c0,0.1,0,0.1,0.1,0.1l0.1,0.1v0.3h-0.1c-0.1,0-0.1,0-0.1-0.1L62,66.1v-0.2
	c-0.1-0.2,0-0.4-0.1-0.7V65C62,64.9,62,64.9,61.9,64.8L61.9,64.8L61.9,64.8"/>
<path class="st0" d="M39.1,41.3c-0.7,0.1-1.4,0-2-0.2c-0.4-0.2-0.7-0.5-1-0.8c-1,0.2-2,0.4-2.9,0.7c-0.5,0.2-1,0.4-1.5,0.7
	c-0.4,0.2-0.7,0.5-0.9,0.9c-0.2,0.5-0.5,1-0.7,1.5s-0.4,1.1-0.6,1.6c-0.5,1.6-1.1,3.1-1.8,4.6c-0.4,0.8-0.8,1.6-1.3,2.3
	c-0.6,0.8-1.3,1.5-1.8,2.2c-0.4,0.5-1.1,1.6-1.4,2c-0.6,1-1.2,2.1-1.6,3.2c-0.2,0.4-1.2,2.3-1.3,2.7s0,0.5,0.6,0.7s0.7-0.1,1.1,0.3
	c0.2-0.1,0.4-0.6,0.6-0.8s1.1-1.5,1.4-1.8s2.9-3.3,3.3-3.7c0.4-0.6,0.8-1.2,1.2-1.9c0.2-0.4,0.3-0.7,0.4-1.1
	c0.1-0.4,0.3-0.9,0.4-1.3c0.4-0.8,0.6-1.2,0.9-1.9c-0.1,0,0.8-1.6,1.1-2.5c0.5-1,1.6-3.5,1.7-2.5c0,0.3,1.7,8,1.9,10.3
	c0.1,1.5-0.1,3.1-0.4,4.6c-0.1,0.6-0.4,2.8-0.5,3.4c-0.1,1.6-0.2,3.1-0.1,4.7c0.1,1.5,0.3,2.7,0.4,4.2c0.1,1.3,0.3,2.6,0.6,3.9
	c0.4,1.5,0.8,2.9,0.9,3.5s0.6,1.8,0.4,2.4c-0.3,1.6-0.3,3.1,0,4.7c0.3,1.7,0.9,2.9,1.3,4.5c0.1,0.3,1.1,3,0.6,4.1
	c-0.2,0.5-0.6,1-1,1.4c-0.1,0.1-0.2,0.2-0.2,0.4c0,0.1,0,0.4,0.2,0.5h0.2c0.6,0,1.2-0.1,1.8-0.3c0.1,0,0.3-0.1,0.4,0
	s0.2,0.1,0.3,0.1c0.6,0.2,1.3,0,1.7-0.6c0.3-0.8-0.6-1.5-0.4-2.3c0.1-0.1,0-0.3,0-0.5c0.1-0.3,0-0.6-0.1-0.8c-0.2-1-0.3-2-0.3-3
	c-0.1-0.8-0.1-1.7,0-2.5c0.1-0.5,0.2-1.1,0.2-1.6c0-1-0.1-2.1-0.3-3.1c-0.2-0.7-0.3-1.5-0.3-2.2c0-1.3,0.2-2.6,0.5-3.9
	C41,76.4,41,70,41,69.7c0-0.4,0-0.8,0.2-1.2c0.2-0.3,0.4-0.6,0.8-0.6"/>
<path class="st0" d="M39.1,41.3c-0.7,0.1-1.4,0-2-0.2c-0.4-0.2-0.7-0.5-1-0.8c-1,0.2-2,0.4-2.9,0.7c-0.5,0.2-1,0.4-1.5,0.7
	c-0.4,0.2-0.7,0.5-0.9,0.9c-0.2,0.5-0.5,1-0.7,1.5s-0.4,1.1-0.6,1.6c-0.5,1.6-1.1,3.1-1.8,4.6c-0.4,0.8-0.8,1.6-1.3,2.3
	c-0.6,0.8-1.3,1.5-1.8,2.2c-0.4,0.5-1.1,1.6-1.4,2c-0.6,1-1.2,2.1-1.6,3.2c-0.2,0.4-1.2,2.3-1.3,2.7s0,0.5,0.6,0.7s0.7-0.1,1.1,0.3
	c0.2-0.1,0.4-0.6,0.6-0.8s1.1-1.5,1.4-1.8s2.9-3.3,3.3-3.7c0.4-0.6,0.8-1.2,1.2-1.9c0.2-0.4,0.3-0.7,0.4-1.1
	c0.1-0.4,0.3-0.9,0.4-1.3c0.4-0.8,0.6-1.2,0.9-1.9c-0.1,0,0.8-1.6,1.1-2.5c0.5-1,1.6-3.5,1.7-2.5c0,0.3,1.7,8,1.9,10.3
	c0.1,1.5-0.1,3.1-0.4,4.6c-0.1,0.6-0.4,2.8-0.5,3.4c-0.1,1.6-0.2,3.1-0.1,4.7c0.1,1.5,0.3,2.7,0.4,4.2c0.1,1.3,0.3,2.6,0.6,3.9
	c0.4,1.5,0.8,2.9,0.9,3.5s0.6,1.8,0.4,2.4c-0.3,1.6-0.3,3.1,0,4.7c0.3,1.7,0.9,2.9,1.3,4.5c0.1,0.3,1.1,3,0.6,4.1
	c-0.2,0.5-0.6,1-1,1.4c-0.1,0.1-0.2,0.2-0.2,0.4c0,0.1,0,0.4,0.2,0.5h0.2c0.6,0,1.2-0.1,1.8-0.3c0.1,0,0.3-0.1,0.4,0
	s0.2,0.1,0.3,0.1c0.6,0.2,1.3,0,1.7-0.6c0.3-0.8-0.6-1.5-0.4-2.3c0.1-0.1,0-0.3,0-0.5c0.1-0.3,0-0.6-0.1-0.8c-0.2-1-0.3-2-0.3-3
	c-0.1-0.8-0.1-1.7,0-2.5c0.1-0.5,0.2-1.1,0.2-1.6c0-1-0.1-2.1-0.3-3.1c-0.2-0.7-0.3-1.5-0.3-2.2c0-1.3,0.2-2.6,0.5-3.9
	C41,76.4,41,70,41,69.7c0-0.4,0-0.8,0.2-1.2c0.2-0.3,0.4-0.6,0.8-0.6"/>
<path class="st0" d="M38.8,41.3c0.7-0.1,1.3-0.3,1.9-0.6c0.4-0.2,0.7-0.6,0.8-1c1-0.1,2,0,3,0.1c0.5,0.1,1.1,0.2,1.6,0.3
	c0.4,0.1,0.8,0.4,1.1,0.7c0.3,0.5,0.6,0.9,1,1.3c0.3,0.5,0.6,1,0.9,1.5c0.6,1,2.1,3.3,2.7,4.1c0.5,0.7,1.1,1.4,1.7,2
	c0.7,0.6,1.5,1.2,2.3,1.7c0.5,0.4,1.4,1.3,1.8,1.7c0.5,0.6,2,2.3,2.3,2.7s1.6,2,1.9,2.4s0.1,0.5-0.5,0.8s-0.7,0.1-1,0.5
	c-0.2-0.1-0.5-0.5-0.7-0.6c-0.4-0.3-1.4-1.2-1.8-1.5l-4-2.9c-0.6-0.5-1.1-1-1.6-1.6c-0.3-0.4-0.5-0.7-0.7-1s-0.5-0.8-0.7-1.2
	c-0.6-0.5-1.1-1-1.5-1.6c0.1,0-1.1-1.4-1.7-2.2s-2.3-3.1-2.2-2c0,0.3,0.1,8.2,0.4,10.5c0.3,1.5,0.8,3,1.4,4.4c0.5,1,0.9,2.1,1.2,3.2
	c0.5,1.5,0.9,3,1.2,4.5s0.3,2.7,0.6,4.2c0.2,1.3,0.3,2.6,0.2,3.9c0,1.6-0.1,3-0.1,3.6s-0.2,1.9,0.2,2.5c0.6,1.4,0.9,3,1,4.5
	c0,1.6-0.1,3.1-0.3,4.7c-0.1,0.3-0.4,3.1,0.3,4.1c0.3,0.5,0.8,0.8,1.3,1.1c0.1,0.1,0.3,0.3,0.3,0.4s0,0.4-0.1,0.5h-0.2
	c-0.6,0.2-1.2,0.2-1.8,0.1c-0.1,0-0.3-0.1-0.4,0s-0.2,0.1-0.3,0.1c-0.6,0.4-1.3,0.3-1.8-0.2c-0.5-0.7,0.3-1.6-0.2-2.4
	c-0.1-0.1,0-0.3-0.1-0.5c-0.1-0.3-0.1-0.5-0.1-0.8c0-1-0.1-2-0.3-3c-0.1-0.8-0.3-1.6-0.6-2.4c-0.2-0.5-0.4-1-0.5-1.5
	c-0.2-1-0.3-2.1-0.3-3.1c0-0.8-0.1-1.5-0.2-2.3c-0.3-1.3-0.8-2.5-1.4-3.7c-0.6-1.7-2-8-2-8.3c-0.1-0.4-0.3-0.8-0.5-1.1
	c-0.2-0.3-0.5-0.5-0.9-0.4"/>
<path class="st3" d="M33.9,63.5c0.1-0.8,0.2-1.7,0.4-2.5c0.1-0.2,12.5-1.7,13.7-1.5c0.2,0,0.6,1.4,0.9,2.3s-5.3,6.1-5.9,6.7
	c-0.4,0.2-0.8,0.3-1.2,0.3c-0.2,0-0.5-0.1-0.7-0.2C39.8,67.6,33.8,63.7,33.9,63.5z"/>
<circle class="st4" cx="36.5" cy="47.2" r="0.2"/>
<circle class="st4" cx="44.1" cy="46.3" r="0.2"/>
<path class="st5" d="M46.1,29.6c0.2,0.1,0.3,0.2,0.4,0.3c0.2,0.2,0.2,0.4,0.3,0.6c0.3,0.8,0.2,1.8-0.3,2.5c-0.2,0.4-0.6,0.8-1.1,0.8
	c-0.2,0-0.4,0-0.6-0.1c-0.2-0.1-0.2-0.4-0.2-0.6c-0.1-0.7-0.1-1.4-0.1-2.1C44.6,30.2,45.1,29.2,46.1,29.6z"/>
<path class="st5" d="M29.8,31.4c-0.2,0.1-0.3,0.2-0.3,0.3c-0.2,0.2-0.1,0.4-0.2,0.6c-0.1,0.9,0.2,1.7,0.8,2.4
	c0.3,0.4,0.8,0.6,1.3,0.6c0.2,0,0.4,0,0.5-0.3c0.1-0.2,0.1-0.4,0-0.6c-0.1-0.7-0.2-1.3-0.3-2C31.3,31.6,30.6,30.8,29.8,31.4z"/>
<path class="st0" d="M31.1,26.6c-0.6,1-0.5,3.3-0.3,4.4c0.2,1.5,0.6,3,1,4.4c0.9,2.4,4.6,3.6,4.9,3.7c1.4,0.5,2.9,0.2,4.1-0.6
	c1.9-1.1,3.4-2.9,4-5c0.3-1.2,0.3-2.5,0.1-3.7c-0.2-1.4-0.4-2.8-0.8-4.2c-0.6-1.2-1.8-2-3.1-2.1c-1.9-0.2-3.9,0-5.8,0.4
	C33.5,24.2,32,25.1,31.1,26.6z"/>
<path class="st1" d="M37.3,34.3c0.1-0.1,0.3,0.3,1.1,0.2s0.8-0.5,1-0.4s0.2,0.7-0.7,0.9C37.5,35.1,37.1,34.5,37.3,34.3z"/>
<path class="st22" d="M34.5,29.2c-0.5,0.1-0.9,0.2-1.3,0.3c-0.2,0-0.3,0.2-0.4,0.3c0-0.1-0.1-0.9,1.5-1.1c1.3-0.1,1.7,0.3,1.7,0.5
	S35.2,29.1,34.5,29.2z"/>
<path class="st22" d="M41,28.5c0.4-0.1,0.9,0,1.3,0.1c0.2,0.1,0.3,0.1,0.5,0.2c0-0.1-0.1-0.9-1.7-0.7c-1.3,0.1-1.6,0.7-1.5,0.9
	C40,28.8,40.5,28.6,41,28.5z"/>
<path class="st6" d="M30.2,30.2c-0.1-0.7-0.1-1.3-0.1-1.6c0-0.5,0.1-1.1,0.2-1.6v-0.2c-0.2-0.1-0.4-0.1-0.5,0.1
	c-0.1,0.1-0.2,0.2-0.2,0.3c-0.2,0.3-0.6,0.5-1,0.4c-0.4,0-0.7-0.3-0.8-0.6c0-0.2-0.1-0.5-0.2-0.7c-0.8,0.3-1.7-0.1-2-0.8
	c-0.2-0.8,0.3-1.5,1.1-1.7h0.1c-0.3-0.5-0.5-1-0.5-1.6c0.2-0.4,0.6-0.7,1.1-0.8c0.4,0,1.1,0.2,1.2,0.6c0.2-0.6,0.9-1,1.5-0.8
	c0.1,0,0.2,0.1,0.3,0.1c0.5,0.3,0.9,0.9,0.4,1.4c0.4-0.1,0.5-0.2,0.8-0.1s0.5,0.2,0.5,0.5c0.2,0.6-0.7,1-0.6,1.4
	c0.3,0.5,0.6-0.3,1-0.4c1.2-0.8,2.5-1.4,3.9-1.7s2.8-0.3,4.2-0.1c0.7,0.1,1.3,0.4,1.9,0.7c0.1,0,0.3-0.1,0.3-0.2v-0.1
	c0.1-0.3-0.3-0.7-0.3-1c-0.2-0.7,0.5-1.4,1.6-1c-0.4-0.5-0.3-1.1,0.2-1.5c0.2-0.1,0.4-0.2,0.6-0.2c0.7-0.3,1.5,0.1,1.7,0.8
	c0,0.1,0,0.1,0.1,0.2c0,0.2-0.2,0.3,0,0.4c0.2,0.1,0.4-0.1,0.5-0.3c0.5-0.1,1,0.1,1.4,0.5C49,21,49.1,21.5,49,22
	c-0.2,0.6-0.7,0.6-1,0.7l0.4,0.3c0.3,0.5,0.3,1.1-0.1,1.6c-0.4,0.5-1.5,0.6-1.8,0.1c-0.1-0.1-0.3,0-0.4,0.1
	c-0.1,0.1-0.2,0.2-0.2,0.3c-0.2,0.1-0.3-0.3-0.5-0.4s-0.5,0.2-0.5,0.3c0.6,0.3,0.5,1.3,0.7,2c0,0.8,0,1.5,0,2.3
	c-0.1,0.4-0.2,1.8-0.6,1.7c-0.1-1.2-0.4-2.4-0.8-3.6c-0.2-0.7-0.6-1.3-1.1-1.8c-0.5-0.4-1.1-0.6-1.7-0.7c-2.2-0.3-4.4-0.2-6.5,0.5
	c-0.8,0.2-1.6,0.5-2.3,0.9l-0.5,0.4c-0.2,0.2-0.6,0.5-0.9,1c-0.4,0.7-0.4,1.4-0.4,1.7c0,0.5,0.1,1.1,0.1,1.6c0,0.6,0.1,1.2,0.1,1.8
	c-0.1-0.3-0.3-0.7-0.5-1.2C30.4,31,30.3,30.7,30.2,30.2z"/>
<path class="st23" d="M29.8,24.5c0.3-0.8,1.2-1.2,2-0.9c0.1,0,0.2,0.1,0.3,0.1c0,0.2,0.1,0.4,0.3,0.5c0.2,0-0.8,0.6-1.2,1.3
	c-0.2,0.4-0.4,0.8-0.5,1.2c0,0-0.3-0.1-0.5-0.2c-0.1,0-0.3-0.1-0.4-0.2C29.4,25.8,29.4,25.1,29.8,24.5z"/>
<path class="st23" d="M45.2,22.6c-0.5-0.8-1.4-1-2.2-0.5c-0.1,0.1-0.2,0.1-0.3,0.2c0,0.2-0.2,0.3-0.4,0.5c-0.2,0,1.1,0.6,1.6,1.2
	c0.3,0.3,0.6,0.7,0.8,1.1c0.2-0.1,0.4-0.3,0.6-0.4C45.9,24.1,45.8,23.1,45.2,22.6z"/>
<path class="st7" d="M32.9,32.2c-0.1-0.7,0.9-1.3,1.8-1.4c0.7-0.1,1.8,0.3,1.9,1c0.1,0.7-0.5,1.3-1.5,1.4S33,32.9,32.9,32.2z"/>
<ellipse transform="matrix(0.5666 -0.824 0.824 0.5666 -11.256 42.6575)" class="st9" cx="34.9" cy="32" rx="1.1" ry="1"/>
<circle class="st10" cx="34.3" cy="31.9" r="0.4"/>
<path class="st8" d="M34.8,30.4c0.8-0.1,1.6,0.3,1.9,1.1c0.3,0.9-0.3-1-2-0.8c-1,0.1-1.7,0.8-1.8,1.8C32.6,30.9,33.9,30.5,34.8,30.4
	z"/>
<path class="st7" d="M39.6,31.5c-0.1-0.7,0.9-1.3,1.8-1.4c0.7-0.1,1.8,0.3,1.9,1s-0.5,1.3-1.5,1.4S39.7,32.2,39.6,31.5z"/>
<ellipse transform="matrix(0.5666 -0.824 0.824 0.5666 -7.7064 47.788)" class="st9" cx="41.6" cy="31.2" rx="1.1" ry="1"/>
<circle class="st10" cx="41" cy="31.2" r="0.4"/>
<path class="st8" d="M41.5,29.6c0.8-0.1,1.6,0.3,1.9,1.1c0.3,0.9-0.3-1-2-0.8c-1,0.1-1.7,0.8-1.8,1.8C39.3,30.1,40.6,29.7,41.5,29.6
	z"/>
<path class="st24" d="M36,61.6c0.5-1.3,1.1-2.6,1.6-4l-1.4,0.2c-4,7.9-8.8,15.5-12.9,23.3c1.1,0.1,2.1,0.1,3.2,0
	c1-0.2,1.9,0.1,2.7,0.7c1.3-3.4,2.6-6.8,3.8-10.2S34.7,64.9,36,61.6z"/>
<path class="st24" d="M35.5,74.2c-0.1-1.7,0.3-3.6,0.1-5.3c-0.8,4.4-1,8.9-2.2,13.2c0.5-0.3,1-0.6,1.6-0.8c0.1-0.7,0.1-1.4,0.2-2.1
	C35.3,77.5,35.5,75.8,35.5,74.2z"/>
<path class="st25" d="M35.2,57.9L21.3,80.7c0.6,0.3,1.3,0.4,2,0.4c4.1-7.9,8.9-15.5,12.9-23.3L35.2,57.9z"/>
<path class="st24" d="M38.1,66.5c-0.1-2.1,0-4.2,0.5-6.3c-1.2,1.6-1.3,4.4-1.7,6.3c-0.6,2.4-0.7,4.9-1.1,7.4
	c-0.3,2.3-0.2,4.7-0.4,7.1v0.4c0.4,0,0.8,0.1,1.2,0.3c0.4,0.2,0.9,0.4,1.4,0.5c-0.2-2.5,0.1-5.2,0-7.6
	C37.9,71.9,37.9,69.2,38.1,66.5z"/>
<path class="st25" d="M50.5,66.1c0-0.3-0.2-0.5-0.4-0.5c0,0,0,0-0.1,0C50.1,65.8,50.3,66,50.5,66.1C50.5,66.2,50.5,66.2,50.5,66.1z"
	/>
<path class="st25" d="M45.3,56.8L43.8,57c0.8,1,1.5,2,2.3,3.1C46.2,58.9,45.9,57.8,45.3,56.8z"/>
<path class="st25" d="M45.7,57c0.5,1,0.8,2.2,0.6,3.3c1.2,1.7,2.4,3.4,3.6,5.2c0.4,0,0.7,0.1,0.8,0.5c0,0.2,0,0.3-0.1,0.5
	c1,1.3,2,2.7,3,3.9c1.8,2.2,3.7,4.2,5.8,6.1c0.4,0.5,0.8,0.9,1.3,1.3c0.7-0.5,1.4-1.1,2-1.7L45.7,57z"/>
<path class="st25" d="M42.9,63.5L42.9,63.5c-0.1-0.3-0.2-0.6-0.4-0.8C42.6,63,42.7,63.3,42.9,63.5z"/>
<path class="st25" d="M41.4,70.2c0-0.2,0-0.4-0.1-0.6C41.3,69.8,41.3,70,41.4,70.2z"/>
<path class="st24" d="M49,66.7c0.5,0.1,1.2,0.1,1.4-0.4c-0.2-0.2-0.3-0.4-0.4-0.6h-0.1c-0.3,0-0.6,0.1-0.8,0.3
	c-0.2,0.1-0.3,0.3-0.5,0.5c0,0.1,0,0.1,0.1,0.2H49z"/>
<path class="st24" d="M47.1,63.4c0.4,1,0.9,1.9,1.4,2.8c0.3-0.3,0.7-0.6,1.1-0.7h0.2c-1.2-1.7-2.4-3.5-3.6-5.2
	c0,0.3-0.1,0.5-0.2,0.8C46.4,61.8,46.8,62.6,47.1,63.4z"/>
<path class="st24" d="M53.6,70.4l-3-3.9c-0.1,0.2-0.3,0.3-0.5,0.4c-0.4,0.1-0.8,0.1-1.2,0c0.7,1.2,1.3,2.3,1.9,3.4
	c1.5,2.7,2.7,5.7,4.3,8.3c0.2,0.3,0.3,0.5,0.5,0.8h0.5c1.6,0.1,3.2-0.4,4.5-1.5c-0.4-0.5-0.8-0.9-1.3-1.3
	C57.3,74.6,55.4,72.6,53.6,70.4z"/>
<path class="st24" d="M45.7,60.7c0,0.1,0.1,0.1,0.1,0.2c0.1-0.3,0.1-0.5,0.2-0.8l0,0c-0.7-1-1.5-2.1-2.3-3.1h-0.3
	C43.4,58.2,45.2,59.8,45.7,60.7z"/>
<path class="st25" d="M40.8,62.2c-0.5,0.1-0.9,0.3-1.3,0.6c-0.2,0.4,0,0.7,0.4,0.9s0.9,0.3,1.3,0.2c0.5,0,1-0.2,1.5-0.4
	c-0.1-0.3-0.3-0.5-0.4-0.8c0.2,0.2,0.3,0.5,0.4,0.8c0.1,0,0.1-0.1,0.2-0.1C42.6,62.5,41.7,62,40.8,62.2z"/>
<path class="st25" d="M42.8,65.5c-0.6,0.1-1.2,0.3-1.8,0.6c-0.4,0.3-1,0.7-0.8,1.2s0.9,0.5,1.4,0.3c0.4-0.2,0.8-0.6,1-1
	s0.4-0.8,0.6-1.2C43.1,65.4,42.9,65.4,42.8,65.5z"/>
<path class="st25" d="M43.1,63.7c-0.1,0-0.1,0-0.2,0.1c0.1,0.2,0.2,0.5,0.3,0.7C43.3,64.2,43.2,63.9,43.1,63.7z"/>
<path class="st25" d="M46.5,71.4c0,0.1,0,0.2-0.1,0.3h0.1c0.3,0,0.5,0.1,0.6,0.4c0,0.1,0,0.2-0.1,0.3l0,0c0.1-0.1,0.2-0.1,0.3-0.2
	c0.5-0.2,0.8-0.6,1-1.1s0.3-1,0.3-1.5c0-0.4-0.3-0.8-0.6-1c-0.1,0-0.1-0.1-0.2-0.1c0,0.2,0,0.3-0.1,0.5c-0.1,0.4-0.3,0.8-0.7,1
	c-0.3,0.2-0.8,0.2-1.1-0.1c-0.2-0.4-0.1-0.8,0.2-1.1c0.4-0.4,0.9-0.6,1.5-0.5c0-0.2,0.1-0.3,0.2-0.5c0.1-0.4,0.3-0.7,0.5-1
	c-0.6-0.2-1.1-0.4-1.7-0.6c-0.6-0.2-1.2-0.4-1.8-0.6c-0.3-0.1-0.7-0.1-1-0.1c0.8,1.9,1.6,3.8,2.3,5.7C46.3,71.1,46.4,71.2,46.5,71.4
	z"/>
<path class="st25" d="M46.6,68.5c-0.2,0.1-0.4,0.3-0.5,0.6c-0.1,0.2-0.2,0.6,0,0.7c0.5,0.3,1.1-0.2,1.2-0.5s0.1-0.5,0.2-0.7v-0.1
	C47.2,68.3,46.9,68.3,46.6,68.5z"/>
<path class="st25" d="M44.1,63.3c-0.3,0.1-0.5,0.2-0.8,0.3c0.1,0.4,0.2,0.9,0.1,1.3c0.1,0.1,0.1,0.2,0.2,0.4c0.6,0,1.1,0.1,1.7,0.2
	c0.6,0.2,1.2,0.5,1.8,0.7c0.4,0.2,0.9,0.3,1.3,0.4c0.1-0.1,0.1-0.2,0.2-0.3c-0.5-0.9-1-1.9-1.4-2.8c-0.3-0.8-0.7-1.6-1.1-2.3
	C45.7,62.1,45,62.8,44.1,63.3z"/>
<path class="st25" d="M48.7,66.4c0,0.1-0.1,0.1-0.1,0.2c0.1,0,0.2,0,0.3,0.1C48.7,66.6,48.7,66.5,48.7,66.4z"/>
<path class="st25" d="M50.9,70.2c-0.6-1.1-1.3-2.2-1.9-3.4c-0.2,0-0.3-0.1-0.5-0.1l0,0c-0.1,0.2-0.2,0.3-0.3,0.5s-0.3,0.6-0.4,0.9
	v0.1c0.2,0.1,0.3,0.1,0.4,0.2c0.8,0.6,0.6,1.8,0.3,2.6c-0.2,0.5-0.5,0.9-1,1.1c-0.2,0.1-0.5,0.3-0.7,0.4h-0.2
	c0.1,0.1,0.1,0.3,0.2,0.4l0,0c0.4,0,0.7,0.2,0.7,0.5l0,0c0.2,0,0.3,0.1,0.3,0.3c0,0.1,0,0.2-0.1,0.3c0.1,0.1,0.2,0.2,0.2,0.3l0,0
	c0,0.2-0.2,0.4-0.4,0.5c0,0.1,0.1,0.1,0.1,0.2c0.4,0,0.9-0.1,1.3-0.2c0.6-0.2,1.3-0.2,1.9-0.1l0,0l0.2-0.2h-0.1
	c-0.2,0-0.4-0.2-0.3-0.4c0-0.1,0.1-0.2,0.2-0.2c-0.1-0.1-0.1-0.2-0.1-0.3c0-0.2,0.2-0.3,0.4-0.3c0,0,0,0,0.1,0h0.1
	c0-0.1,0.2-0.2,0.3-0.2s0.3,0.2,0.2,0.3l0,0c0.1-0.1,0.2-0.1,0.4-0.1s0.4,0.2,0.3,0.4v0.1c0.1,0.1,0.2,0.2,0.2,0.4
	c-0.1,0.2-0.3,0.4-0.6,0.4h-0.2c0.1,0.3-0.1,0.4-0.3,0.4s-0.2-0.1-0.3-0.2L51,75.1l0,0c0.1,0.1,0.2,0.2,0.2,0.4
	c0.1,0.5-0.7,1.2-0.8,1.6v0.3h0.1c0.2,0,0.4,0.1,0.4,0.3v0.1c0.1,0,0.2,0.1,0.2,0.2s-0.1,0.2-0.2,0.2l0,0c0.1,0,0.2,0.1,0.2,0.2
	s-0.1,0.3-0.2,0.3c0,0,0,0-0.1,0l0,0c0.3,0.5-0.8,0.7-0.8,0.4c0-0.1,0.1-0.2,0.2-0.2c-0.1-0.1-0.2-0.2-0.2-0.3v-0.1
	c-0.1,0-0.2-0.1-0.2-0.2s0.1-0.2,0.2-0.3v-0.2c0-0.1,0-0.2,0.1-0.2c-0.1-0.1-0.2-0.3-0.2-0.5v-0.5h-0.7c-0.2,0-0.5-0.1-0.8-0.1h-0.1
	c0.5,1.3,1.1,2.7,1.5,4.1c2-0.4,4.2-1.3,5.9-1.3c-0.2-0.3-0.3-0.5-0.5-0.8C53.5,75.9,52.4,72.9,50.9,70.2z"/>
<path class="st25" d="M47,79.6h-0.2c-0.3,0-0.7,0.1-0.5-0.2c0-0.1,0.1-0.1,0.2-0.2c-0.1-0.1-0.1-0.1-0.1-0.2v-0.1
	c-0.1,0-0.2-0.1-0.2-0.2s0.1-0.2,0.2-0.3c-0.1,0-0.1-0.1-0.1-0.2s0.1-0.3,0.2-0.3c0,0,0,0,0.1,0l0,0c-0.1-0.3-0.1-0.5-0.2-0.8
	c-0.1-0.1-0.1-0.2-0.2-0.3s-0.2-0.1-0.3-0.1c-0.3-0.2-0.4-0.4-0.5-0.7c-0.2,0-0.5-0.1-0.6-0.3h-0.1c-0.4,0-0.7-0.2-0.7-0.5v-0.4
	c-0.1-0.1-0.2-0.1-0.2-0.3c0-0.2,0.1-0.4,0.3-0.4c0,0,0,0,0.1,0h0.1c0-0.2,0-0.3,0.2-0.4H44c-0.2,0-0.7,0-0.7-0.2s0.3-0.4,0.5-0.5
	c0.3-0.1,0.5-0.2,0.8-0.3v-0.1h-0.1c-0.2,0-0.3-0.1-0.4-0.2c0-0.1,0-0.2,0.1-0.2c-0.1,0-0.2-0.1-0.2-0.2c0-0.3,0.2-0.6,0.6-0.6l0,0
	h0.1c0-0.1,0.1-0.2,0.2-0.3c-0.2-0.7-0.3-1.3-0.5-2c-0.4-1.1-0.6-2.4-0.9-3.6h-0.1l-0.3,0.9c-0.4,0.7-1,1.6-2,1.6
	c-0.4,0-0.9-0.1-1-0.5s0-0.8,0.3-1.1c0.8-0.7,1.8-1.1,2.9-1.1v-0.6L43,63.8c-0.1,0-0.2,0.1-0.3,0.1c-0.5,0.3-1.1,0.4-1.7,0.3
	c-0.6-0.1-1.7-0.3-1.7-1s1.2-1.2,2-1.1c0.9,0,1.7,0.6,2,1.4c0.8-0.3,1.5-0.7,2-1.3c0.3-0.4,0.5-0.8,0.6-1.2c0-0.1-0.1-0.1-0.1-0.2
	c-0.6-0.9-2.3-2.5-2.3-3.7l-5.8,0.6c-0.5,1.3-1.1,2.7-1.6,4c-1.3,3.2-1.8,6.6-3,10s-2.5,6.8-3.8,10.2c0.6,0.5,1.5,0.8,2.3,0.7
	c0.6,0,1.3-0.2,1.8-0.5c1.2-4.3,1.4-8.8,2.2-13.2c0.1,1.8,0,3.5-0.1,5.3c0,1.6-0.2,3.2-0.3,5c-0.1,0.7-0.1,1.4-0.2,2.1
	c0.1,0,0.3,0,0.4-0.1v-0.4c0.3-2.3,0.2-4.7,0.4-7.1c0.4-2.5,0.5-5,1.1-7.4c0.5-1.9,0.6-4.7,1.7-6.3c-0.5,2.1-0.6,4.2-0.5,6.3
	c-0.2,2.7-0.3,5.4-0.2,8.1c0.1,2.4-0.2,5,0,7.6c0.8,0.2,1.7,0.2,2.5,0.2c0.3-1.2,0.4-2.3,0.5-3.5c0.1-2.8,0.7-5.8,0.4-8.6
	c0-0.2-0.1-0.4-0.1-0.6c0,0.2,0.1,0.4,0.1,0.6c0.3,2.3,1.2,4.5,1.4,6.9c0.2,1.7,0.5,3.4,0.8,5.1c1.4-0.4,0.6-2.1,3-1.5
	c0.2,0,0.4,0.1,0.6,0.1v-0.1C47.1,80.4,47,80,47,79.6z"/>
<path class="st24" d="M41.4,70.2c0.3,2.8-0.3,5.7-0.4,8.6c-0.1,1.2-0.2,2.3-0.5,3.5c0.8-0.1,1.7-0.1,2.5,0c0.2,0,0.5,0,0.7-0.1
	c-0.3-1.7-0.6-3.4-0.8-5.1C42.6,74.8,41.7,72.5,41.4,70.2z"/>
<path class="st24" d="M45.7,71.2c0.1,0,0.1-0.1,0.2-0.1H46c-0.7-1.9-1.5-3.8-2.3-5.7h-0.2c0.3,1.2,0.5,2.5,0.9,3.6
	c0.2,0.7,0.4,1.3,0.5,2c0.1-0.1,0.2-0.1,0.3-0.1C45.4,70.9,45.7,71,45.7,71.2z"/>
<path class="st24" d="M47.3,75.1c0.1,0,0.1,0.1,0.2,0.1c0.1,0,0.2,0,0.3,0.1c0-0.1-0.1-0.1-0.1-0.2H47.3z"/>
<path class="st24" d="M42.9,63.7L42.9,63.7l0.3,0.9v-0.2C43.2,64.1,43.1,63.9,42.9,63.7z"/>
<path class="st24" d="M46.5,77.3c0-0.1-0.1-0.1-0.1-0.2c0.1,0.3,0.1,0.5,0.2,0.8h0.1C46.6,77.7,46.6,77.5,46.5,77.3z"/>
<path class="st24" d="M47.6,76.8c-0.2,0.1-0.5,0.1-0.7,0.1c0.1,0.2,0.2,0.4,0.2,0.6v0.4c0.1,0,0.3,0.1,0.3,0.2c0,0,0,0,0,0.1v0.1
	c0.1,0,0.2,0.1,0.2,0.2s-0.1,0.2-0.2,0.2l0,0c0.1,0,0.2,0.1,0.2,0.2s-0.1,0.3-0.2,0.3c0,0,0,0-0.1,0h-0.1v0.1c0.1,0.2,0,0.3-0.1,0.4
	c0.1,0.4,0.1,0.8,0.2,1.2V81c0.9,0.1,1.8,0,2.6-0.2c-0.4-1.4-0.9-2.8-1.5-4.1C48.1,76.6,47.8,76.7,47.6,76.8z"/>
<path class="st24" d="M43.5,65.2h0.2c-0.1-0.1-0.1-0.2-0.2-0.4V65.2z"/>
<path class="st24" d="M46.7,73L46.7,73C46.6,73,46.6,73,46.7,73v0.2C46.8,73.2,46.8,73.1,46.7,73L46.7,73c0-0.1,0-0.3-0.1-0.4h-0.2
	C46.6,72.7,46.6,72.9,46.7,73z"/>
<path class="st26" d="M44.9,73.7C44.8,73.7,44.8,73.7,44.9,73.7c-0.1,0.2-0.1,0.2,0,0.2C45,73.9,45,73.9,44.9,73.7
	C44.9,73.8,44.9,73.8,44.9,73.7z"/>
<path class="st26" d="M44.6,73.7C44.5,73.7,44.5,73.7,44.6,73.7c-0.1,0.2-0.1,0.2,0,0.2C44.7,73.9,44.7,73.9,44.6,73.7
	C44.7,73.7,44.7,73.7,44.6,73.7z"/>
<path class="st26" d="M45,73c0-0.1-0.1-0.1-0.2-0.1c-0.1,0-0.1,0-0.1,0.1S44.8,73.1,45,73C45,73.1,45,73.1,45,73z"/>
<path class="st26" d="M45.6,73.5C45.5,73.5,45.5,73.5,45.6,73.5c-0.1,0.2-0.1,0.2,0,0.2C45.7,73.7,45.7,73.7,45.6,73.5L45.6,73.5z"
	/>
<path class="st26" d="M45.2,73.8C45.2,73.7,45.2,73.7,45.2,73.8c-0.2-0.1-0.2-0.1-0.2,0S45,73.9,45.2,73.8
	C45.1,73.8,45.1,73.8,45.2,73.8z"/>
<path class="st26" d="M45.9,73.5C45.8,73.5,45.8,73.5,45.9,73.5c-0.1,0.2-0.1,0.2,0,0.2S46,73.7,45.9,73.5
	C46,73.5,46,73.5,45.9,73.5z"/>
<path class="st26" d="M45.3,73.8C45.4,73.8,45.4,73.8,45.3,73.8c0.1-0.2,0.1-0.2,0-0.2C45.2,73.6,45.2,73.6,45.3,73.8L45.3,73.8z"/>
<path class="st26" d="M46.3,73.3L46.3,73.3c-0.1,0.1-0.1,0.1,0,0.2l0,0C46.4,73.5,46.4,73.5,46.3,73.3
	C46.4,73.3,46.4,73.3,46.3,73.3z"/>
<path class="st26" d="M46.1,73.4C46,73.4,46,73.4,46.1,73.4c-0.1,0.2-0.1,0.2,0,0.2C46.2,73.6,46.2,73.6,46.1,73.4
	C46.2,73.4,46.2,73.4,46.1,73.4z"/>
<path class="st26" d="M46.5,73.1C46.5,73.2,46.4,73.2,46.5,73.1c-0.1,0.1-0.1,0.1,0,0.2l0,0C46.6,73.3,46.6,73.3,46.5,73.1
	C46.6,73.1,46.6,73.1,46.5,73.1z"/>
<path class="st27" d="M45.3,75.3l0.5-0.2c-0.3-1.3-0.6-2.7-0.9-4.1c-0.1,0.1-0.2,0.2-0.2,0.3h-0.1c-0.3,0-0.6,0.2-0.6,0.6l0,0
	c0,0.1,0.1,0.2,0.1,0.3S44,72.3,44,72.4s0.2,0.3,0.4,0.2h0.1v0.1c-0.2,0.2-0.5,0.2-0.8,0.3s-0.5,0.3-0.5,0.5s0.5,0.2,0.7,0.2h0.5
	c-0.1,0.1-0.2,0.2-0.2,0.4h-0.1c-0.2,0-0.4,0.2-0.4,0.4c0,0.1,0.1,0.2,0.2,0.3v0.4c0,0.3,0.4,0.5,0.7,0.5h0.1
	c0.1,0.2,0.4,0.3,0.6,0.3C45.4,75.8,45.4,75.5,45.3,75.3z M44.7,73.8L44.7,73.8c-0.2,0.1-0.2,0.1-0.2,0H44.7
	C44.7,73.7,44.7,73.7,44.7,73.8z M45.3,73.7L45.3,73.7c0.2-0.1,0.2-0.1,0.2,0H45.3C45.3,73.8,45.2,73.7,45.3,73.7z M44.9,73.8
	L44.9,73.8c-0.2,0.1-0.2,0.1-0.2,0H44.9C44.9,73.7,44.9,73.7,44.9,73.8L44.9,73.8z M44.7,73C44.7,72.9,44.7,72.9,44.7,73
	c0.2-0.1,0.3-0.1,0.3,0s0,0.1-0.1,0.1C44.8,73.1,44.7,73.1,44.7,73z M45.1,73.8C45,73.8,45,73.8,45.1,73.8v-0.2
	C45.2,73.6,45.2,73.6,45.1,73.8C45.2,73.8,45.2,73.8,45.1,73.8L45.1,73.8z"/>
<path class="st27" d="M47.7,75c0.2-0.1,0.4-0.3,0.4-0.5l0,0c0-0.1-0.1-0.3-0.2-0.3C48,74.1,48,74,48,73.9c0-0.2-0.1-0.3-0.3-0.3l0,0
	c0-0.3-0.4-0.5-0.7-0.5l0,0c0.1,0.2,0.1,0.3,0.2,0.5C47.2,74.1,47.4,74.6,47.7,75z"/>
<path class="st27" d="M47,72.3c0.1-0.1,0.1-0.2,0.1-0.3c0-0.2-0.3-0.4-0.6-0.4h-0.1c0.1-0.1,0.1-0.2,0.1-0.3c0-0.2-0.2-0.3-0.4-0.3
	c0.2,0.4,0.4,0.9,0.5,1.4h0.1C46.8,72.4,46.9,72.4,47,72.3z"/>
<path class="st27" d="M46.8,73.1L46.8,73.1c-0.1,0.1-0.2,0.1-0.2,0s0-0.1,0.1-0.1L46.8,73.1L46.8,73.1c-0.1-0.1-0.2-0.3-0.3-0.5
	c-0.1,0-0.2,0-0.3,0.1c-0.1,0-0.1,0-0.1-0.1c0.1-0.1,0.3-0.1,0.4-0.1c-0.2-0.4-0.4-0.9-0.5-1.4h-0.1c-0.1,0-0.2,0-0.2,0.1
	c-0.1-0.2-0.3-0.3-0.5-0.3c-0.1,0-0.2,0.1-0.3,0.1c0.3,1.4,0.6,2.7,0.9,4.1l1.1-0.4c0.1,0,0.1,0.1,0.2,0.2s0.1,0.1,0.2,0.1h0.4
	l-0.6-1.5C47,73.4,46.9,73.2,46.8,73.1L46.8,73.1z M45.7,73.6L45.7,73.6c-0.2,0.1-0.2,0.1-0.2,0H45.7L45.7,73.6z M45.9,73.6
	L45.9,73.6c-0.2,0.1-0.2,0.1-0.2,0H45.9C45.9,73.5,46,73.5,45.9,73.6z M46.2,73.5L46.2,73.5c-0.2,0.1-0.2,0.1-0.2,0H46.2
	C46.2,73.4,46.2,73.4,46.2,73.5z M46.3,73.4C46.2,73.4,46.2,73.4,46.3,73.4c-0.1-0.2-0.1-0.2,0-0.2C46.4,73.3,46.4,73.3,46.3,73.4z
	 M46.5,73.3C46.4,73.3,46.4,73.3,46.5,73.3c-0.1-0.2-0.1-0.2,0-0.2C46.6,73.1,46.6,73.2,46.5,73.3z"/>
<path class="st27" d="M48.4,76.5c0.3-0.1,0.5,0.1,0.8,0.1h0.7c0-0.2,0.1-0.5,0.2-0.7l0.6-1c0.1,0,0.2,0,0.3,0.1l0,0
	c-0.6-0.2-1.3-0.2-1.9,0.1c-0.4,0.2-0.9,0.2-1.3,0.2C47.9,75.7,48.1,76.1,48.4,76.5z"/>
<path class="st27" d="M46.1,76.4L46.1,76.4c-0.1-0.4-0.2-0.8-0.3-1.3V75l-0.5,0.2c0,0.2,0,0.5,0.1,0.7c0.1,0.3,0.2,0.5,0.5,0.7
	c0.1,0,0.2,0.1,0.3,0.1C46.1,76.6,46.1,76.5,46.1,76.4z"/>
<path class="st27" d="M47.3,75.1c-0.1,0-0.1-0.1-0.2-0.1s-0.1-0.2-0.2-0.2l-1.1,0.4v0.1c0.1,0.4,0.2,0.9,0.3,1.3l0.5,0.1
	c0.1,0.1,0.1,0.2,0.2,0.3c0.2,0,0.5,0,0.7-0.1l0.6-0.3c-0.2-0.4-0.4-0.9-0.5-1.3c-0.1,0-0.2,0-0.3-0.1
	C47.4,75.1,47.3,75.1,47.3,75.1z"/>
<path class="st27" d="M50.9,75.3l-0.1-0.2c0-0.1,0-0.1,0.1-0.1c-0.1,0-0.2-0.1-0.3-0.1l-0.6,1c-0.1,0.2-0.2,0.5-0.2,0.7v0.5
	c0.1,0.2,0.1,0.3,0.2,0.5c0.1,0,0.1-0.1,0.2-0.1s0.2,0,0.2,0.1l0.1-0.1c0-0.1-0.1-0.2,0-0.3c0.1-0.5,0.8-1.1,0.8-1.6
	c0-0.2-0.1-0.3-0.2-0.4l0,0C51,75.2,51,75.2,50.9,75.3z"/>
<path class="st27" d="M50.8,75.1l0.1,0.2l0.2-0.2l0,0l0.3-0.3v-0.1c-0.1,0-0.1,0.1-0.2,0.1L51,75l0,0C50.9,75,50.9,75,50.8,75.1z"/>
<path class="st27" d="M51.3,74.7C51.4,74.7,51.4,74.8,51.3,74.7c0.1,0.2,0.2,0.2,0.3,0.3s0.3,0,0.4-0.2h0.2c0.3,0,0.6-0.1,0.6-0.4
	s0-0.3-0.2-0.4v-0.1c0-0.2-0.1-0.4-0.3-0.4c-0.1,0-0.3,0-0.4,0.1l0,0c0-0.1-0.1-0.3-0.2-0.3s-0.3,0.1-0.3,0.2h-0.1
	c-0.2,0-0.5,0.1-0.5,0.3c0,0.1,0,0.2,0.1,0.3l-0.2,0.2c0,0.2,0.1,0.4,0.3,0.4h0.1C51.2,74.8,51.2,74.8,51.3,74.7L51.3,74.7z"/>
<path class="st27" d="M50.3,77.5c-0.1,0-0.2,0-0.2,0.1C50,77.7,50,77.7,50,77.8c0,0.1,0,0.1,0.1,0.2c-0.1,0-0.2,0.1-0.2,0.3
	c0,0.1,0.1,0.2,0.2,0.2v0.1c0,0.1,0.1,0.2,0.2,0.3c0.1-0.1,0.2-0.2,0.4-0.2l0.2-0.1l0.1,0.1l0,0c0.2,0,0.3-0.1,0.3-0.3
	c0-0.1-0.1-0.2-0.2-0.2l0,0c0.1,0,0.2-0.1,0.2-0.2s-0.1-0.2-0.2-0.2v-0.1c0-0.2-0.2-0.3-0.4-0.3h-0.1c-0.1,0-0.1,0-0.1,0.1
	C50.5,77.6,50.4,77.5,50.3,77.5z"/>
<path class="st27" d="M46.9,79.2c0-0.2-0.1-0.4-0.1-0.6c-0.1,0-0.1,0-0.1-0.1v-0.4l0,0c0-0.1,0-0.2-0.1-0.2l0,0
	c-0.2,0-0.3,0.1-0.3,0.3c0,0.1,0,0.1,0.1,0.2c-0.1,0-0.2,0.1-0.2,0.3c0,0.1,0.1,0.2,0.2,0.2V79c0,0.1,0,0.1,0.1,0.2
	C46.6,79.1,46.8,79.1,46.9,79.2z"/>
<path class="st27" d="M46.7,78.5c0.1,0.2,0.1,0.4,0.1,0.6l0,0L47,79l0,0h0.1c0.2,0,0.3-0.1,0.3-0.3c0-0.1-0.1-0.2-0.2-0.2l0,0
	c0.1,0,0.2-0.1,0.2-0.2s-0.1-0.2-0.2-0.2V78c0-0.2-0.1-0.3-0.3-0.3v0.7C47,78.5,46.8,78.5,46.7,78.5z"/>
<path class="st27" d="M46.6,77.9L46.6,77.9c-0.1,0.1,0,0.1,0,0.2V77.9z"/>
<path class="st27" d="M46.1,76.4v0.3c0,0.1,0.1,0.2,0.2,0.3C46.3,76.8,46.2,76.6,46.1,76.4z"/>
<path class="st27" d="M46.6,78.5L46.6,78.5c0.1,0,0-0.2,0-0.3l0,0V78.5z"/>
<path class="st27" d="M46.2,76.4c0.1,0.2,0.1,0.4,0.2,0.6c0.1,0.1,0.1,0.1,0.1,0.2c0.1,0.2,0.1,0.4,0.1,0.6V78
	c0,0.1,0.1,0.3,0.1,0.4h0.4v-1.1c0-0.2-0.1-0.4-0.2-0.6c-0.1-0.1-0.1-0.2-0.2-0.3H46.2z"/>
<path class="st27" d="M46.5,79.2c-0.1,0.1-0.2,0.1-0.2,0.2c-0.1,0.3,0.3,0.2,0.5,0.2H47c0-0.1-0.1-0.3-0.1-0.4
	C46.8,79.1,46.6,79.1,46.5,79.2z"/>
<path class="st27" d="M46.9,79.2L46.9,79.2c0,0.1,0,0.3,0.1,0.4c0.2-0.1,0.2-0.2,0.1-0.4v-0.1L46.9,79.2z"/>
<path class="st27" d="M50.6,78.7c-0.1,0-0.2,0.1-0.4,0.2L50,79.1c0,0.3,1.2,0,0.8-0.4c0-0.1,0-0.1-0.1-0.1L50.6,78.7z"/>
<path class="st28" d="M50.5,66.1L50.5,66.1c0,0.2,0,0.2,0.1,0.2c0.1-0.2,0-0.6-0.2-0.7c-0.1-0.1-0.3-0.1-0.4-0.1
	c0,0.1,0,0.1,0.1,0.1C50.3,65.7,50.5,65.9,50.5,66.1z"/>
<path class="st28" d="M45.4,56.8c0.6,1,0.9,2.2,0.8,3.4c0,0.1,0.1,0.1,0.1,0.2c0.2-1.1-0.1-2.3-0.6-3.3
	C45.7,57.1,45.4,56.8,45.4,56.8z"/>
<path class="st28" d="M50.3,65.7c0.3,0.1,0.3,0.4,0.2,0.7c0,0.1,0,0.1,0.1,0.1c0.1-0.1,0.1-0.3,0.1-0.5c-0.1-0.3-0.5-0.5-0.8-0.5
	l0.1,0.1C50.1,65.6,50.2,65.6,50.3,65.7z"/>
<path class="st28" d="M46,60L46,60c0.2-1.1,0-2.3-0.7-3.3h-0.1C45.9,57.7,46.2,58.8,46,60z"/>
<path class="st28" d="M49,66.7c-0.1,0-0.2,0-0.3-0.1c0,0.1,0,0.1,0.1,0.1C48.9,66.7,48.9,66.8,49,66.7c0.4,0.2,0.8,0.2,1.2,0
	c0.1-0.1,0.2-0.2,0.2-0.3c0-0.1,0-0.1-0.1-0.1C50.3,66.8,49.5,66.8,49,66.7z"/>
<path class="st28" d="M46.2,60.2L46.2,60.2L46.2,60.2c-0.1,0.2-0.2,0.4-0.3,0.7L46,61C46.1,60.7,46.1,60.5,46.2,60.2z"/>
<path class="st28" d="M49.1,66c0.2-0.2,0.5-0.3,0.8-0.3H50c0-0.1,0-0.1-0.1-0.1c-0.4,0-0.7,0.1-1,0.4l-0.3,0.3v0.1
	C48.8,66.2,49,66.1,49.1,66z"/>
<path class="st28" d="M46,61L46,61c0.2-0.2,0.3-0.4,0.3-0.7c0-0.1-0.1-0.1-0.1-0.2C46.1,60.5,46.1,60.7,46,61z"/>
<path class="st28" d="M49.7,65.5c-0.4,0.1-0.8,0.3-1.1,0.7v0.1l0.3-0.3c0.3-0.2,0.6-0.4,1-0.4l-0.1-0.1L49.7,65.5z"/>
<path class="st28" d="M50.3,66.6c-0.4,0.2-0.9,0.2-1.3,0.1h-0.1c0,0.1,0,0.1,0.1,0.1c0.4,0.1,0.8,0.1,1.2,0c0.2-0.1,0.4-0.2,0.5-0.4
	c0-0.1,0-0.1-0.1-0.1C50.5,66.5,50.4,66.6,50.3,66.6z"/>
<path class="st28" d="M46.1,68.7c-0.3,0.3-0.4,0.7-0.2,1.1c0.2,0.3,0.7,0.2,1.1,0.1c0.4-0.2,0.6-0.6,0.7-1c0-0.2,0.1-0.3,0.1-0.5
	h-0.1v0.1c0,0.4-0.2,0.9-0.5,1.2c-0.2,0.2-0.9,0.5-1.2,0.2C45.8,69.5,45.8,69.1,46.1,68.7c0.4-0.3,0.9-0.4,1.4-0.3v-0.1
	C47,68.1,46.4,68.3,46.1,68.7z"/>
<path class="st28" d="M43.4,65.2L43.4,65.2C43.4,65.3,43.5,65.3,43.4,65.2C43.5,65.3,43.5,65.2,43.4,65.2z"/>
<path class="st28" d="M43.4,65.2c0-0.1,0-0.2-0.1-0.2v0.3C43.3,65.3,43.4,65.2,43.4,65.2z"/>
<path class="st28" d="M46.3,68.6c-0.3,0.3-0.5,0.9-0.2,1.1s0.9,0.1,1.2-0.2c0.3-0.3,0.5-0.8,0.5-1.2v-0.1h-0.1v0.1
	c0,0.2-0.1,0.5-0.2,0.7c-0.2,0.4-0.8,0.9-1.2,0.5c-0.2-0.2-0.1-0.5,0-0.7s0.3-0.4,0.5-0.6c0.3-0.2,0.7-0.2,1-0.1V68
	C47.3,68.1,46.7,68.3,46.3,68.6z"/>
<path class="st28" d="M42.6,66.6c-0.2,0.4-0.6,0.8-1,1c-0.5,0.2-1.2,0.1-1.4-0.3s0.4-1,0.8-1.2c0.6-0.3,1.2-0.5,1.8-0.6h0.4v-0.1
	c-0.7,0-1.5,0.2-2.1,0.6c-0.4,0.2-1,0.6-1,1.1s0.4,0.8,0.9,0.8c1,0,1.5-0.8,1.9-1.4c0.2-0.3,0.4-0.6,0.4-1h-0.1
	C43.1,65.9,42.9,66.3,42.6,66.6z"/>
<path class="st28" d="M43.4,63.6L43.4,63.6L43.4,63.6L43.4,63.6L43.4,63.6z"/>
<path class="st28" d="M43.2,65.4L43.2,65.4L43.2,65.4C43.2,65.3,43.2,65.3,43.2,65.4z"/>
<path class="st28" d="M43.3,65.2L43.3,65.2C43.3,65.3,43.4,65.3,43.3,65.2C43.4,65.3,43.4,65.2,43.3,65.2L43.3,65.2z"/>
<path class="st28" d="M43.1,63.6L43.1,63.6L43.1,63.6C43.1,63.4,43.1,63.4,43.1,63.6z"/>
<path class="st28" d="M46.3,65.9c0.6,0.3,1.3,0.5,2,0.7c0-0.1,0-0.1,0.1-0.1c-0.4-0.1-0.8-0.3-1.3-0.4s-1.2-0.5-1.8-0.7
	c-0.5-0.2-1.1-0.2-1.7-0.2v0.1h0.1C44.6,65.3,45.5,65.5,46.3,65.9z"/>
<path class="st28" d="M42.9,63.5L42.9,63.5c0.1,0.1,0.1,0.1,0.2,0l0,0v-0.1C43,63.5,43,63.5,42.9,63.5z"/>
<path class="st28" d="M41.3,63.9c-0.4,0-0.9-0.1-1.3-0.2c-0.4-0.2-0.7-0.5-0.4-0.9s0.8-0.6,1.3-0.6c1-0.2,1.9,0.4,2.2,1.3h0.1
	c-0.2-0.5-0.7-1-1.2-1.2c-0.9-0.3-1.8-0.1-2.5,0.5c-0.6,0.9,0.8,1.3,1.6,1.3c0.6,0,1.2-0.2,1.8-0.4v-0.1
	C42.4,63.8,41.8,63.9,41.3,63.9z"/>
<path class="st28" d="M43.3,63.6L43.3,63.6c0,0.2,0,0.5,0,0.7c0,0.1,0.1,0.1,0.1,0.2V64C43.3,64,43.3,63.8,43.3,63.6z"/>
<path class="st28" d="M43.4,63.6L43.4,63.6c0,0.2,0,0.3,0,0.5v0.5c0,0.1,0.1,0.1,0.1,0.2C43.5,64.4,43.5,64,43.4,63.6z"/>
<path class="st28" d="M43.1,63.6L43.1,63.6c-0.1-0.1-0.1-0.1-0.2,0l0,0v0.1l0,0C43,63.7,43.1,63.7,43.1,63.6z"/>
<path class="st28" d="M43.1,63.6L43.1,63.6L43.1,63.6C43.1,63.5,43.1,63.5,43.1,63.6z"/>
<path class="st28" d="M42.9,63.6c-0.6,0.2-1.2,0.4-1.8,0.4c-0.8,0-2.2-0.4-1.6-1.3c0.7-0.7,1.6-0.8,2.5-0.5c0.6,0.2,1,0.6,1.2,1.2
	h0.1c-0.3-0.8-1.1-1.4-2-1.4c-0.8,0-1.9,0.4-2,1.1s1.1,1,1.7,1c0.6,0,1.2-0.1,1.7-0.3C42.8,63.8,42.9,63.8,42.9,63.6z"/>
<path class="st28" d="M43.4,64.9c0-0.1-0.1-0.2-0.1-0.3v0.6h0.1C43.3,65.1,43.4,65,43.4,64.9z"/>
<path class="st28" d="M43.2,63.4L43.2,63.4L43.2,63.4L43.2,63.4L43.2,63.4L43.2,63.4z"/>
<path class="st28" d="M43.3,65.3L43.3,65.3C43.2,65.2,43.2,65.3,43.3,65.3L43.3,65.3z"/>
<path class="st28" d="M43.3,63.5L43.3,63.5c1.3-0.3,2.2-1.2,2.6-2.4L45.8,61c-0.1,0.4-0.3,0.8-0.6,1.2C44.7,62.8,44,63.2,43.3,63.5z
	"/>
<path class="st28" d="M48.4,66.5c0.1-0.1,0.1-0.2,0.2-0.2v-0.1C48.5,66.3,48.4,66.4,48.4,66.5z"/>
<path class="st28" d="M48.5,66.6c0-0.1,0.1-0.1,0.1-0.2v-0.1C48.6,66.4,48.5,66.5,48.5,66.6z"/>
<path class="st28" d="M43.5,63.4L43.5,63.4L43.5,63.4c0.2,0,0.4-0.1,0.7-0.2c0.9-0.4,1.6-1.2,1.9-2.1L46,61
	C45.6,62.2,44.7,63.1,43.5,63.4z"/>
<path class="st28" d="M42.9,66.4C42.4,67,42,67.8,41,67.8c-0.5,0-1-0.3-0.9-0.8s0.6-0.8,1-1.1c0.6-0.3,1.4-0.6,2.1-0.6v-0.1
	c-1.1,0-2.1,0.4-2.9,1.1C40,66.6,39.9,67,40,67.4c0.2,0.3,0.6,0.5,1,0.5C42.1,67.9,42.6,67,42.9,66.4c0.3-0.4,0.4-0.7,0.4-1h-0.1
	C43.2,65.8,43.1,66.1,42.9,66.4z"/>
<path class="st28" d="M43.4,65.3L43.4,65.3C43.4,65.4,43.5,65.4,43.4,65.3C43.5,65.4,43.5,65.3,43.4,65.3z"/>
<path class="st28" d="M48.4,66.6L48.4,66.6L48.4,66.6C48.4,66.7,48.5,66.7,48.4,66.6z"/>
<path class="st28" d="M48.1,67.3c-0.1,0.3-0.3,0.6-0.4,0.9h0.1v-0.1C47.9,67.8,48,67.5,48.1,67.3c0.2-0.3,0.3-0.4,0.4-0.6h-0.1
	C48.2,66.9,48.1,67.1,48.1,67.3z"/>
<path class="st28" d="M48.5,66.7L48.5,66.7c0.1,0.1,0.2,0.2,0.4,0.2c0-0.1,0-0.1-0.1-0.1C48.7,66.7,48.6,66.7,48.5,66.7z"/>
<path class="st28" d="M48.5,69c0.3,0.8,0.1,1.7-0.3,2.4c-0.4,0.5-0.9,0.8-1.4,1.1c-0.1,0-0.1,0.1-0.2,0.1h0.2
	c0.3-0.1,0.5-0.2,0.7-0.4c0.4-0.3,0.8-0.6,1-1.1c0.5-0.8,0.3-1.9-0.3-2.6c-0.1-0.1-0.2-0.2-0.4-0.2v0.1C48.1,68.4,48.4,68.7,48.5,69
	z"/>
<path class="st28" d="M48.5,66.6L48.5,66.6c0.1,0.1,0.2,0.1,0.3,0.2c0-0.1,0-0.1-0.1-0.1C48.7,66.6,48.6,66.6,48.5,66.6z"/>
<path class="st28" d="M47.7,68.3L47.7,68.3C47.8,68.2,47.7,68.2,47.7,68.3z"/>
<path class="st28" d="M43.3,65.3L43.3,65.3C43.3,65.4,43.4,65.4,43.3,65.3L43.3,65.3z"/>
<path class="st28" d="M48.3,66.7L48.3,66.7C48.4,66.7,48.4,66.7,48.3,66.7C48.3,66.6,48.3,66.6,48.3,66.7z"/>
<path class="st28" d="M47.6,68.3L47.6,68.3C47.7,68.3,47.7,68.3,47.6,68.3L47.6,68.3z"/>
<path class="st28" d="M48.4,66.5L48.4,66.5L48.4,66.5C48.5,66.6,48.5,66.6,48.4,66.5z"/>
<path class="st28" d="M47.8,68.4L47.8,68.4C47.8,68.3,47.8,68.3,47.8,68.4L47.8,68.4L47.8,68.4z"/>
<path class="st28" d="M48,68.5c0.4,0.2,0.6,0.6,0.6,1c0,0.5-0.1,1-0.3,1.5s-0.5,0.9-1,1.1c-0.1,0.1-0.2,0.1-0.3,0.2l0,0
	c0,0.1,0,0.1-0.1,0.1c0.6-0.2,1.1-0.6,1.4-1.1c0.4-0.7,0.5-1.6,0.3-2.4c-0.2-0.3-0.4-0.5-0.7-0.7v0.1C47.8,68.4,47.9,68.4,48,68.5z"
	/>
<path class="st28" d="M47.6,68.3L47.6,68.3C47.7,68.3,47.7,68.3,47.6,68.3C47.6,68.2,47.6,68.2,47.6,68.3z"/>
<path class="st28" d="M46.6,66.1c0.5,0.2,1.1,0.4,1.7,0.6v-0.1c-0.7-0.2-1.3-0.5-2-0.7c-0.8-0.4-1.7-0.6-2.6-0.6h-0.1v0.1
	c0.3,0,0.7,0,1,0.1C45.3,65.6,46,65.8,46.6,66.1z"/>
<path class="st28" d="M48.4,66.5L48.4,66.5L48.4,66.5z"/>
<path class="st28" d="M47.8,67.7c-0.1,0.2-0.1,0.3-0.2,0.5h0.1c0.1-0.3,0.2-0.6,0.4-0.9l0.3-0.6h-0.1C48.1,67,47.9,67.3,47.8,67.7z"
	/>
<path class="st28" d="M43.7,65.3h-0.2v0.1C43.6,65.4,43.7,65.4,43.7,65.3z"/>
<path class="st28" d="M43.5,65.2L43.5,65.2c0,0.1,0.1,0.1,0.2,0.1v-0.1H43.5z"/>
<path class="st28" d="M43.4,64.6c0-0.1-0.1-0.1-0.1-0.2L43.4,64.6c-0.1,0.1,0,0.2,0,0.3V64.6z"/>
<path class="st28" d="M43.5,64.8c0-0.1-0.1-0.1-0.1-0.2v0.3c0,0.1,0,0.2,0.1,0.2V64.8z"/>
<path class="st28" d="M46.6,72.5L46.6,72.5c0.1,0,0.1,0,0.2-0.1C46.8,72.5,46.7,72.5,46.6,72.5z"/>
<path class="st28" d="M47,72.3c-0.1,0-0.2,0.1-0.3,0.1h-0.1c0.1,0,0.1,0,0.2-0.1C46.9,72.4,46.9,72.4,47,72.3z"/>
<path class="st28" d="M46.6,72.5c-0.1,0.1-0.3,0-0.4,0.1c0,0.1,0,0.1,0.1,0.1C46.4,72.7,46.5,72.6,46.6,72.5L46.6,72.5
	c-0.1,0.1-0.2,0.1-0.3,0.2C46.4,72.7,46.5,72.6,46.6,72.5L46.6,72.5C46.5,72.6,46.6,72.5,46.6,72.5z"/>
<path class="st28" d="M46.5,72.6L46.5,72.6C46.6,72.5,46.5,72.6,46.5,72.6z"/>
<path class="st29" d="M33.2,43.4c0.1-0.1,0.1-0.2,0.2-0.3C33.2,43.2,33.2,43.3,33.2,43.4z"/>
<path class="st29" d="M34.2,56.2c0.1-1.1,0.4-2.2,0.5-3.3c0.2-1.9-0.8-3.6-1.4-5.3c0.2,1.7,0.4,3.4,0.5,5.1c0.1,1.6,0,3.3-0.2,4.9
	c-0.1,0.7-0.3,1.5-0.5,2.2c0.2-0.2,0.3-0.5,0.5-0.6C34,58.3,34.3,57.2,34.2,56.2z"/>
<path class="st29" d="M33.2,43.4c-0.4,0.8-0.9,1.6-1.4,2.3c0.4,0.1,0.8,0.2,1.2,0.2v0.2c0.1-0.3,0.1-0.6,0.1-0.9
	C33.2,44.7,33,43.9,33.2,43.4z"/>
<path class="st29" d="M49,38.9c0.1-0.1,0.1-0.2,0.2-0.2c-0.7,0.1-1.4,0.2-2,0.5L49,38.9z"/>
<path class="st29" d="M28.7,41.4L28.7,41.4c0.3,0.3,0.1,0.6,0,0.8s-0.1,0.2-0.1,0.3c1-0.3,2-0.8,3-1.3
	C30.7,41.3,29.6,41.3,28.7,41.4z"/>
<path class="st29" d="M32.4,41.6c-0.8,0.4-1.7,0.9-2.4,1.5c-0.1,0.1-0.2,0.1-0.3,0.2s0.1,0.2,0.2,0.3c0.2,0.2,0.4,0.4,0.7,0.5h0.2
	C31.1,43.2,31.7,42.3,32.4,41.6z"/>
<path class="st29" d="M48.5,40.9c0.1,0,0.1,0,0.3-0.1c0.2,0,0.3-0.1,0.4-0.2v-0.3c-0.8-0.2-1.6-0.2-2.4-0.2
	C47.3,40.4,47.9,40.7,48.5,40.9z"/>
<path class="st29" d="M45.9,52.9c0.5,1.9,0.4,4.2,2.5,5.4c0.2,0.1,0.4,0.3,0.6,0.4c-1.1-1.6-1.9-3.4-2.2-5.3
	c-0.5-1.8-0.8-3.6-0.9-5.5c-0.1,0.7-0.1,1.5,0,2.2C45.7,51,45.8,52,45.9,52.9z"/>
<path class="st30" d="M49.8,37.9c-1.6-0.1-3.2,0.4-4.5,1.2l0,0c-0.3,0-0.5,0-0.8,0.1l0,0c-0.1,0-0.1,0.1,0,0.2
	c-0.3,1.5-1.2,2.8-2.4,3.7c-0.8,0.7-1.9,1.3-2.7,2c-0.9-0.5-2.1-0.9-3.1-1.4c-1.3-0.7-2.4-1.8-3.1-3.1v-0.2h-0.1
	c-0.3,0-0.5,0-0.8,0.1l0,0c-1.5-0.5-3.2-0.6-4.7-0.1c-0.1,0-0.1,0-0.1,0.1c0,0.2,0.3,0.2,0.5,0.3c0.3,0.1,0.6,0.3,0.8,0.6
	c1-0.1,2,0,3-0.2c-1,0.5-2,1-3,1.3c0,0.1,0,0.2,0.1,0.3c0.1,0.2,0.2,0.2,0.4,0.1s0.4,0,0.5,0.2c0,0.1,0,0.1,0.1,0.1
	c0.1-0.1,0.2-0.1,0.3-0.2c0.7-0.6,1.5-1.1,2.4-1.5c-0.8,0.7-1.3,1.5-1.7,2.5h0.2c0.2,0.1,0.3,0.5,0.4,0.7s0.1,0.7,0.5,0.9l0,0
	c0.4-0.8,1-1.6,1.4-2.3c0-0.1,0.1-0.2,0.2-0.3c0,0.1-0.1,0.2-0.2,0.3c-0.1,0.6-0.1,1.3,0,1.9c0,0.3-0.1,0.6-0.1,0.9
	c0.1,0.5,0.2,1,0.2,1.5c0.5,1.8,1.5,3.5,1.4,5.3c-0.1,1.1-0.4,2.2-0.5,3.3s0.1,2-0.7,2.9c-0.1,0.2-0.3,0.4-0.5,0.6
	c-0.2,0.6-0.5,1.2-0.8,1.7c-0.1,0.1,0,0.2,0.1,0.2c1.2,0.2,2.5,0.3,3.7,0.4c1,0.1,2,0.1,2.9,0.1h2.1l1.2-0.3
	c0.3-0.1,0.6-0.1,0.9-0.2c0.9-0.2,1.9-0.5,2.8-0.8c1.2-0.4,2.4-0.8,3.5-1.2c0.1,0,0.2-0.2,0.1-0.2c-0.3-0.2-0.5-0.5-0.7-0.8
	c-0.2-0.1-0.4-0.3-0.6-0.4c-2.1-1.2-2-3.6-2.5-5.4c-0.1-0.9-0.2-1.8-0.1-2.7c-0.1-0.7-0.1-1.5,0-2.2c-0.1-0.7-0.1-1.4-0.2-2.1
	C45.2,44.2,45,41.6,46,40c0.2,1.4,0.3,2.9,0.3,4.3c0.2-0.1,0.3-0.2,0.5-0.3c0.4-0.3,0.3-0.7,0.3-1c0-0.1,0-0.4,0.1-0.5
	c-0.1-0.4-0.2-0.8-0.2-1.2l0.8,0.8c0.2-0.1,0.3-0.3,0.4-0.5c0.1-0.1,0.1-0.3,0.1-0.4c0-0.1,0.1-0.2,0.2-0.3
	c-0.6-0.3-1.3-0.5-1.8-0.8c0.8,0,1.6,0,2.4,0.2c-0.1-0.4-0.5-0.7-0.3-1.1c0-0.1,0.1-0.2,0.2-0.3c-0.6,0.1-1.2,0.2-1.8,0.2
	c0.7-0.2,1.3-0.4,2-0.5l0.3-0.3c0.2-0.1,0.4-0.2,0.4-0.4C49.9,38,49.8,37.9,49.8,37.9z"/>
<path class="st29" d="M46,40c-0.8,1.9-0.9,4-0.3,5.9v-0.1c0-0.4-0.1-0.9-0.1-1.3c0.2-0.1,0.5-0.2,0.7-0.3C46.3,42.8,46.2,41.4,46,40
	z"/>
<path class="st29" d="M47.1,42.5c0-0.1,0.1-0.1,0.1-0.2c0.1-0.1,0.2-0.1,0.3-0.1s0.1,0,0.2-0.1l-0.8-0.8
	C46.9,41.7,47,42.1,47.1,42.5z"/>
<path class="st31" d="M0.2,24.7c3.8,14,13.3,24.8,25,26.9c16.7,3.1,29.7-13,34.9-19.5c7.2-9.3,11.7-20.4,13-32.1
	c18.2,0,36.3,0.1,54.5,0.1c0,26.4-0.1,52.8-0.1,79.2c-42.5,0-85,0-127.5,0.1C0,61.1,0.1,42.9,0.2,24.7z"/>
<path class="st32" d="M20.5,12.3c0,0.2,0,0.4,0.1,0.5c0.1,0.2,0.2,0.3,0.4,0.4c0.2,0.1,0.3,0.2,0.3,0.3s0.1,0.2,0.1,0.3
	s0,0.2-0.1,0.2s-0.1,0.1-0.3,0.1c-0.1,0-0.3,0-0.4-0.1c-0.3-0.1-0.5-0.1-0.8,0h-0.4c-0.2,0-0.4-0.1-0.4-0.3c0,0,0,0,0-0.1v-0.3
	c0.1-0.1,0.1-0.1,0.2-0.1s0.2-0.1,0.3-0.2s0.1-0.4,0.1-0.8c-0.2-3.2-0.2-6.3,0.1-9.5V2.1c0-0.2-0.1-0.3-0.3-0.4
	c-0.2-0.1-0.3-0.2-0.4-0.3V1.1C19,1,19,1,19.1,0.9s0.1-0.1,0.2-0.1c0.2,0,0.3,0.1,0.5,0.1C20,1,20.1,1.1,20.2,1.1h0.9
	c0.2,0,0.2,0.2,0.2,0.4s0,0.2-0.1,0.3c-0.1,0.1-0.1,0.1-0.2,0.1S20.8,2,20.7,2.1s-0.1,0.4-0.2,0.8C20.3,6,20.3,9.2,20.5,12.3z
	 M24.7,12.4c0,0.2,0,0.4,0.1,0.5c0.1,0.2,0.2,0.3,0.4,0.4c0.1,0.1,0.2,0.1,0.3,0.2c0,0.1,0.1,0.1,0.1,0.2s0,0.2-0.1,0.2
	C25.4,14,25.3,14,25.2,14c-0.1,0-0.3,0-0.4-0.1c-0.3-0.1-0.5-0.1-0.8,0c-0.2,0-0.3,0.1-0.4,0.1c-0.2,0-0.4-0.1-0.4-0.3
	c0,0,0,0,0-0.1v-0.3c0.1-0.1,0.1-0.1,0.2-0.1s0.2-0.1,0.3-0.2s0.1-0.4,0.1-0.8c-0.1-1.7-0.1-3.5,0-5.2c0-0.2,0-0.3-0.1-0.4
	s-0.2-0.2-0.4-0.2c-0.9-0.1-1.3-0.1-2.2-0.2c-0.2,0-0.3-0.1-0.4-0.1c-0.1-0.1-0.1-0.2-0.1-0.3c0-0.1,0-0.2,0.1-0.3
	c0.1-0.1,0.2-0.1,0.4-0.1c1,0.1,1.4,0.1,2.4,0.2c0.1,0,0.2,0,0.3-0.1c0-0.1,0.1-0.2,0.1-0.4C24,3.9,24,3.2,24,2.9s-0.1-0.5-0.4-0.6
	c-0.1-0.1-0.2-0.2-0.2-0.3V1.7c0-0.1,0-0.1,0.1-0.2s0.1-0.1,0.2-0.1c0.2,0,0.3,0.1,0.5,0.1c0.1,0.1,0.3,0.1,0.4,0.1h0.9
	c0.2,0,0.2,0.1,0.2,0.4c0,0.1,0,0.2-0.1,0.3s-0.1,0.1-0.2,0.1s-0.2,0.1-0.3,0.2c-0.2,0.2-0.2,0.5-0.2,0.8
	C24.6,6.4,24.6,9.4,24.7,12.4z"/>
<path class="st32" d="M29.5,12.6c0,0.3,0.2,0.7,0.5,0.8c0.1,0,0.1,0.1,0.2,0.1c0.1,0.1,0.1,0.2,0.1,0.3s0,0.1-0.1,0.2
	s-0.1,0.1-0.2,0.1s-0.1,0-0.3-0.1s-0.2-0.1-0.3-0.1c-0.1,0-0.2,0-0.3,0.1c-0.1,0-0.1,0-0.2,0.1c-0.1,0-0.1,0-0.1-0.1l0,0
	c0-0.1-0.1-0.1-0.1-0.2s0-0.1-0.1-0.1s-0.1,0-0.1,0.1l0,0c-0.3,0.4-0.7,0.6-1.2,0.6c-0.3,0-0.5-0.1-0.7-0.3
	c-0.3-0.2-0.5-0.5-0.6-0.8c-0.2-0.4-0.3-0.9-0.3-1.4s0.1-1.1,0.5-1.5c0.3-0.4,0.8-0.6,1.3-0.6c0.2,0,0.4,0.1,0.6,0.3
	s0.3,0.3,0.3,0.5s0,0.1-0.1,0.2c-0.1,0.1-0.1,0.1-0.2,0.1c-0.1-0.1-0.2-0.1-0.3-0.2c-0.3-0.3-0.7-0.3-0.9,0
	c-0.1,0.1-0.1,0.1-0.2,0.2c-0.2,0.3-0.3,0.7-0.3,1.1c0,0.4,0.1,0.8,0.3,1.2c0.2,0.4,0.7,0.5,1.1,0.3c0.1-0.1,0.2-0.2,0.3-0.3
	c0.2-0.3,0.3-0.6,0.3-1V10c0-0.3-0.1-0.6-0.2-0.8s-0.3-0.3-0.5-0.3c-0.3,0-0.7,0.1-0.9,0.4c-0.1,0.1-0.1,0.1-0.2,0.1s-0.1,0-0.2-0.1
	S26.3,9.1,26.3,9c0-0.3,0.2-0.5,0.5-0.7s0.7-0.2,1-0.2c0.4,0,0.9,0.2,1.1,0.6c0.3,0.4,0.4,0.8,0.4,1.3
	C29.5,10.9,29.5,11.7,29.5,12.6z"/>
<path class="st32" d="M31.3,15.2V9.8c0-0.1,0-0.2-0.1-0.3S31,9.3,30.8,9.3c-0.1,0-0.2-0.1-0.3-0.2S30.4,9,30.4,8.9s0.1-0.3,0.2-0.3
	c0,0,0,0,0.1,0s0.2,0,0.3,0.1c0.2,0.1,0.4,0.1,0.6,0c0.1-0.1,0.2-0.1,0.3-0.1c0.1,0,0.1,0,0.2,0.1V9c0,1.1-0.1,1.7-0.1,2.8
	c0,0.5,0.1,0.9,0.3,1.3c0.2,0.3,0.5,0.5,0.8,0.5c0.2-0.1,0.4-0.2,0.6-0.3c0.2-0.2,0.4-0.5,0.5-0.8c0.1-0.4,0.2-0.8,0.2-1.2
	c0-0.5-0.1-1-0.3-1.5c-0.2-0.4-0.5-0.7-0.8-0.7c-0.2,0-0.3,0-0.5,0.1c-0.1,0.1-0.2,0.1-0.3,0.1s-0.1,0-0.1-0.1
	c-0.1-0.1-0.1-0.1,0-0.2l0,0c0-0.2,0.1-0.3,0.4-0.4c0.2-0.1,0.5-0.2,0.7-0.2c0.6,0,1.1,0.4,1.3,0.9c0.4,0.6,0.5,1.4,0.5,2.1
	c0,0.7-0.2,1.3-0.6,1.9c-0.4,0.6-0.8,0.9-1.3,0.9c-0.2,0-0.4,0-0.6-0.1c-0.3-0.2-0.5-0.4-0.7-0.6v1.9c0,0.3-0.1,0.6-0.2,0.9
	c-0.1,0.2-0.2,0.4-0.4,0.6c-0.1,0.1-0.2,0.2-0.4,0.2c-0.2,0-0.3-0.1-0.3-0.2s0-0.1,0.1-0.2c0.2-0.2,0.3-0.4,0.4-0.7L31.3,15.2z"/>
<path class="st32" d="M36.4,15.1v-5c0-0.1,0-0.2-0.1-0.3s-0.2-0.2-0.4-0.2c-0.1,0-0.2-0.1-0.3-0.1s-0.1-0.1-0.1-0.2
	c0-0.1,0.1-0.3,0.2-0.3c0,0,0,0,0.1,0s0.2,0,0.3,0.1c0.2,0.1,0.4,0.1,0.6,0C36.8,9,36.9,9,37,9s0.1,0,0.2,0.1v0.3
	c-0.1,0.9-0.1,1.7-0.1,2.6c0,0.5,0.1,0.9,0.3,1.3c0.2,0.3,0.5,0.5,0.8,0.5c0.2-0.1,0.4-0.2,0.6-0.3c0.2-0.2,0.4-0.5,0.5-0.8
	c0.1-0.4,0.2-0.8,0.2-1.2c0-0.5-0.1-1-0.3-1.4c-0.1-0.3-0.4-0.6-0.7-0.7c-0.2,0-0.3,0-0.5,0.1c-0.1,0.1-0.2,0.1-0.3,0.1
	s-0.1,0-0.1-0.1V9.3c0-0.1,0.1-0.3,0.4-0.4c0.2-0.1,0.5-0.2,0.7-0.2c0.5,0,1,0.3,1.3,0.8c0.4,0.6,0.5,1.3,0.4,2
	c0,0.6-0.2,1.3-0.6,1.8c-0.3,0.5-0.8,0.8-1.4,0.8c-0.2,0-0.4,0-0.6-0.1c-0.2-0.1-0.4-0.3-0.7-0.5v0.4c0,0.5,0,0.9-0.1,1.4
	c0,0.3-0.1,0.6-0.3,0.9c-0.1,0.2-0.2,0.4-0.4,0.5c-0.1,0.1-0.2,0.2-0.4,0.2s-0.3-0.1-0.3-0.2s0-0.1,0.1-0.2c0.2-0.2,0.3-0.4,0.4-0.6
	C36.3,15.7,36.4,15.4,36.4,15.1z"/>
<path class="st32" d="M43.4,13.2c0.1,0,0.1,0.1,0.1,0.2s-0.1,0.3-0.4,0.5c-0.2,0.2-0.5,0.3-0.8,0.3c-0.2,0-0.4-0.1-0.6-0.3
	c-0.2-0.2-0.3-0.4-0.4-0.6c-0.1-0.5-0.1-0.9,0-1.4c0-0.5,0-0.9,0.1-1.4c0-0.4-0.1-0.6-0.3-0.7s-0.2-0.1-0.3-0.1s-0.1-0.1,0-0.2
	s0-0.1,0.1-0.2c0-0.1,0-0.1,0.1-0.1s0.2,0,0.3,0.1s0.2,0.1,0.3,0.1h0.6c0.1,0,0.1,0,0.1,0.1s0,0.1,0.1,0.1v0.9
	c0,0.6-0.1,1.1-0.1,1.6v0.8c0,0.2,0.1,0.3,0.2,0.4c0.1,0.1,0.2,0.2,0.4,0.2s0.3-0.1,0.4-0.2L43.4,13.2z M44.6,9.5
	c0.1,0,0.2,0.1,0.1,0.3c0,0.4-0.1,1-0.1,1.9s-0.1,1.4-0.1,1.6c0,0.7-0.1,1.4-0.3,2.1c-0.2,0.4-0.4,0.7-0.5,0.9
	c-0.2,0.2-0.4,0.3-0.7,0.3c-0.2,0-0.4,0-0.6-0.1c-0.1-0.1-0.2-0.2-0.2-0.3v-0.1l0.1-0.1c0.1,0,0.1,0,0.2,0.1c0.1,0,0.2,0.1,0.3,0.1
	c0.2,0,0.4-0.1,0.5-0.3c0.2-0.2,0.3-0.4,0.3-0.7c0.1-0.4,0.1-0.9,0.1-1.3c-0.1-1.2,0-2.3,0.2-3.5c0-0.2-0.1-0.4-0.3-0.5
	s-0.4-0.2-0.3-0.3s0.1-0.2,0.3-0.2c0.1,0,0.2,0,0.3,0.1c0.1,0,0.3,0.1,0.4,0.1L44.6,9.5L44.6,9.5z"/>
<path class="st32" d="M50.7,5.3c0.1,0,0.2,0.2,0.2,0.5v0.8c0,0.2-0.1,0.4-0.3,0.3c-0.1,0-0.1,0-0.1-0.1c-0.1-0.1-0.1-0.3-0.1-0.4
	c0-0.4-0.3-0.7-0.6-0.7c-0.2,0-0.4,0-0.5,0.1C49.1,6,49,6.2,49,6.5c-0.4,2.1-0.6,4.3-0.7,6.5c0,0.1,0,0.2,0.1,0.3
	c0,0.1,0.1,0.1,0.3,0.2c0.1,0.1,0.2,0.1,0.3,0.1v0.1c0,0.1-0.1,0.3-0.2,0.3c0,0,0,0-0.1,0s-0.3,0-0.4-0.1c-0.2,0-0.3-0.1-0.4-0.1
	h-0.8c-0.1,0-0.2,0-0.3-0.1s-0.1-0.1-0.1-0.3v-0.1c0.1-0.1,0.2-0.1,0.3-0.1c0.2-0.1,0.3-0.1,0.3-0.3s0.1-0.2,0.1-0.4
	c0.1-2.2,0.4-4.5,0.8-6.7c0.1-0.4-0.1-0.6-0.6-0.7c-0.3,0-0.5,0-0.7,0.2c-0.1,0.1-0.2,0.2-0.2,0.4C46.6,5.9,46.6,6,46.5,6h-0.1
	c-0.1,0-0.1,0-0.1-0.1l-0.1-0.1c0.1-0.4,0.2-0.7,0.3-1.1c0.1-0.3,0.2-0.4,0.4-0.4C48.1,4.9,49.4,5.2,50.7,5.3z"/>
<path class="st32" d="M52.7,9.9c0.6,0,1.1,0.3,1.4,0.8c0.4,0.4,0.5,1,0.4,1.5c-0.1,0.6-0.3,1.1-0.7,1.5s-1,0.6-1.6,0.6
	c-0.5,0-1-0.2-1.4-0.6c-0.4-0.4-0.6-1-0.5-1.6s0.3-1.1,0.7-1.6C51.4,10,52.1,9.8,52.7,9.9z M52.3,13.7c0.4,0,0.8-0.2,1-0.5
	c0.3-0.3,0.5-0.8,0.5-1.2c0.1-0.4,0-0.8-0.2-1.2c-0.2-0.3-0.5-0.5-0.9-0.5s-0.7,0.1-1,0.4c-0.3,0.3-0.5,0.8-0.5,1.2
	c-0.1,0.4,0,0.9,0.2,1.3C51.6,13.5,51.9,13.7,52.3,13.7z"/>
<path class="st32" d="M60.1,6.7c0.1,0,0.2,0.1,0.2,0.4c0,0.2,0,0.5-0.1,0.7C60.1,8,60.1,8.1,60,8.1s-0.1,0-0.1-0.1
	c0-0.1-0.1-0.1-0.1-0.3c0-0.2-0.1-0.3-0.2-0.4c-0.1-0.1-0.3-0.1-0.4-0.2c-0.2,0-0.4,0-0.5,0.1c-0.1,0.2-0.2,0.3-0.3,0.5
	c-0.4,1.8-0.8,3.7-1,5.6v0.2c0,0.1,0.1,0.1,0.3,0.2s0.2,0.1,0.3,0.1v0.1c0,0.1-0.1,0.3-0.2,0.3c0,0,0,0-0.1,0h-0.4
	c-0.2,0-0.3,0-0.4-0.1h-0.8c-0.1,0-0.2,0-0.3-0.1s-0.1-0.1-0.1-0.2c0-0.1,0-0.1,0.1-0.1c0.1-0.1,0.2-0.1,0.3-0.1
	c0.2,0,0.3-0.1,0.3-0.2c0.1-0.1,0.1-0.2,0.1-0.3c0.2-1.9,0.6-3.8,1-5.7c0.1-0.3-0.1-0.5-0.5-0.6c-0.2,0-0.5,0-0.7,0.1
	C56.1,7,56,7.1,56,7.2c-0.1,0.2-0.1,0.3-0.2,0.3h-0.1c-0.1,0-0.1,0-0.1-0.1l-0.1-0.1c0.1-0.3,0.2-0.6,0.3-0.9
	c0.1-0.2,0.2-0.3,0.4-0.3C57.7,6.4,58.5,6.5,60.1,6.7z"/>
<path class="st32" d="M62,10.6c0.5,0,1,0.2,1.3,0.6c0.3,0.4,0.5,0.8,0.4,1.3s-0.4,1-0.8,1.3c-0.5,0.3-1,0.5-1.6,0.5
	c-0.5,0-0.9-0.2-1.3-0.5c-0.4-0.4-0.5-0.9-0.4-1.4s0.4-1,0.8-1.3C60.8,10.7,61.4,10.5,62,10.6z M61.4,13.8c0.4,0,0.7-0.1,1-0.4
	c0.3-0.3,0.4-0.6,0.5-1c0.1-0.3,0-0.7-0.2-1S62.1,11,61.8,11c-0.4,0-0.7,0.1-1,0.3c-0.3,0.3-0.5,0.6-0.5,1c-0.1,0.4,0,0.8,0.2,1.1
	C60.7,13.7,61.1,13.8,61.4,13.8z"/>
<circle class="st33" cx="61.7" cy="12.5" r="0.5"/>
<circle class="st33" cx="52.9" cy="12.5" r="0.5"/>
<path class="st34" d="M53.4,17.1c0.7,1.5,2.1,2.6,3.8,2.8c2.4,0.1,4-2.3,4-2.4s-1.3,1.5-3.3,1.7C55.4,19.3,53.6,16.9,53.4,17.1z"/>
<g>
	<path class="st35" d="M17.1,33.7c0.4,0.4,1.1,0.9,1.9,1c0.9,0.2,1.7-0.2,1.7,0c0,0.1-0.6,0.6-1.4,0.7c-0.5,0-0.9-0.1-1-0.2
		C17.5,34.8,17.2,33.9,17.1,33.7z"/>
	<path class="st1" d="M18.2,35.4c0.1,0.1,0.1,0.2,0.3,0.2c0.1,0,0.2-0.1,0.3,0c0.1-0.1,0.2,0,0.1,0.1c0,0-0.1,0.2-0.4,0.1
		c-0.3-0.1-0.3-0.2-0.4-0.3S18.2,35.4,18.2,35.4z"/>
</g>
<g>
	<path class="st35" d="M36.4,35.9c0.5,0.3,1.3,0.5,2.1,0.4c0.9-0.2,1.5-0.7,1.6-0.6c0.1,0.1-0.4,0.8-1.1,1.1C38.5,37,38.1,37,38,37
		C37.1,36.8,36.5,36.1,36.4,35.9z"/>
	<path class="st1" d="M38,37.2c0.1,0.1,0.2,0.2,0.4,0.1c0.1,0,0.2-0.1,0.2-0.1c0.1-0.1,0.2,0,0.1,0.1c0,0-0.1,0.2-0.3,0.2
		C38.1,37.5,38,37.4,38,37.2C37.8,37.2,38,37.2,38,37.2z"/>
</g>
<rect x="13.1" y="53.8" class="st36" width="19.4" height="19"/>
<path class="st37" d="M12.7,59.4c0-0.3-0.2-0.9-0.7-1.2c-0.3-0.2-0.7-0.3-1-0.3c1.8-2,3.6-4.1,5.4-6.1c0.1,0.4,0.3,0.9,0.9,1.2
	c0.3,0.1,0.5,0.2,0.8,0.2C16.3,55.3,14.5,57.4,12.7,59.4z"/>
<path class="st38" d="M34.5,57.8c0,0.2-0.1,0.5-0.3,0.8c-0.4,0.5-1,0.7-1.3,0.7c-1.6-1.8-3.3-3.6-4.9-5.3c-0.3-0.1-0.4-0.2-0.5-0.3
	c-0.2-0.3,0.5-0.7,2.1-1.2C31.2,54.3,32.9,56,34.5,57.8z"/>
<text transform="matrix(1 0 0 1 17.3403 60.3193)" class="st39 st40">Ibra</text>
<text transform="matrix(1 0 0 1 17.3403 60.3193)" class="st41 st39 st40">Ibra</text>
<text transform="matrix(1 0 0 1 17.3403 65.1193)" class="st39 st40">&amp;</text>
<text transform="matrix(1 0 0 1 17.3403 65.1193)" class="st41 st39 st40">&amp;</text>
<text transform="matrix(1 0 0 1 17.3403 69.9193)" class="st39 st40">Elly</text>
<text transform="matrix(1 0 0 1 17.3403 69.9193)" class="st41 st39 st40">Elly</text>
<text transform="matrix(1 0 0 1 67.9539 44.1062)" class="st10 st42 st43">Welcome to Happy Toto </text>
<text transform="matrix(1 0 0 1 67.9539 44.1062)" class="st44"><tspan x="0" y="0" class="st26 st42 st43">Welcome to Happy Toto</tspan><tspan x="45.5" y="0" class="st45 st42 st43"> </tspan></text>
<text transform="matrix(1 0 0 1 50.3539 50.1062)" class="st10 st42 st43">game aiming to help your children</text>
<text transform="matrix(1 0 0 1 50.3539 50.1062)" class="st46 st42 st43">game aiming to help your children</text>
<text transform="matrix(1 0 0 1 64.2539 56.1062)" class="st10 st42 st43"> protect themselves against</text>
<text transform="matrix(1 0 0 1 64.2539 56.1062)" class="st10 st42 st43"> protect themselves against</text>
<text transform="matrix(1 0 0 1 79.6539 62.1062)" class="st10 st42 st43">child sexual abuse!</text>
<text transform="matrix(1 0 0 1 79.6539 62.1062)" class="st47 st42 st43">child sexual abuse!</text>
<text transform="matrix(1 0 0 1 91.8851 35.0425)" class="st42 st48">Welcome</text>
</svg>
