<?xml version="1.0" encoding="utf-8"?>
<!-- Generator: Adobe Illustrator 24.2.1, SVG Export Plug-In . SVG Version: 6.00 Build 0)  -->
<svg version="1.1" xmlns="http://www.w3.org/2000/svg" xmlns:xlink="http://www.w3.org/1999/xlink" x="0px" y="0px"
	 viewBox="0 0 42.1 33.6" style="enable-background:new 0 0 42.1 33.6;" xml:space="preserve">
<style type="text/css">
	.st0{display:none;}
	.st1{display:inline;fill:#7F5449;}
	.st2{display:inline;fill:#63413B;}
	.st3{display:inline;fill:#B7825A;}
	.st4{display:inline;fill:#000068;}
	.st5{display:inline;fill:#2D2D2D;}
	.st6{display:inline;fill:#704843;}
	.st7{display:inline;fill:#230700;}
	.st8{display:inline;fill:#FFECD8;}
	.st9{display:inline;fill:#230601;}
	.st10{display:inline;fill:#290600;}
	.st11{display:inline;fill:#FCFCFC;}
	.st12{display:inline;fill:#17BC9C;}
	.st13{display:inline;fill:#61E5CC;}
	.st14{display:inline;fill:#6BEDD4;}
	.st15{display:inline;fill:#56DBC1;}
	.st16{display:inline;fill:#49CEB4;}
	.st17{display:inline;fill:#0E1A46;}
	.st18{display:inline;fill:#000333;}
	.st19{display:inline;fill:#0B173C;}
	.st20{display:inline;opacity:0.4;fill:#000333;enable-background:new    ;}
	.st21{display:inline;opacity:0.25;fill:#000333;enable-background:new    ;}
	.st22{display:inline;opacity:0.22;fill:#000333;enable-background:new    ;}
	.st23{display:inline;fill:#1C0803;}
	.st24{display:inline;fill:#BC66CC;}
	.st25{display:inline;fill:#B01F24;}
	.st26{display:inline;fill:#D61F27;}
	.st27{display:inline;fill:#FFFFFF;}
	.st28{display:inline;fill:#231F20;}
	.st29{display:inline;fill:#211F1F;}
	.st30{display:inline;fill:#DD8426;}
	.st31{display:inline;fill:#F1A21E;}
	.st32{display:inline;fill:#EE3224;}
	.st33{display:inline;fill:#FEF04B;stroke:#EFEB5D;stroke-width:0.5;stroke-miterlimit:10;}
	.st34{display:inline;fill:#0B0C0C;}
	.st35{display:inline;fill:#DDC747;}
	.st36{display:inline;}
	.st37{fill:#F7F2F2;stroke:#000000;stroke-width:1.000000e-02;stroke-miterlimit:10;}
	.st38{fill:#63413B;}
	.st39{display:inline;fill:#F2F3ED;}
	.st40{display:inline;fill:#F75497;}
	.st41{display:inline;fill:#1F960E;}
	.st42{display:inline;fill:#F9F9F9;}
	.st43{font-family:'PoorRichard-Regular';}
	.st44{font-size:5px;}
	.st45{fill:#7F5449;}
	.st46{fill:#2D2D2D;}
	.st47{fill:#704843;}
	.st48{fill:#230700;}
	.st49{fill:#FFECD8;}
	.st50{fill:#230601;}
	.st51{fill:#290600;}
	.st52{fill:#FCFCFC;}
	.st53{fill:#0E1A46;}
	.st54{fill:#000333;}
	.st55{fill:#0B173C;}
	.st56{opacity:0.4;fill:#000333;enable-background:new    ;}
	.st57{fill:#1C0803;}
	.st58{fill:#BC66CC;}
	.st59{fill:#DD8426;}
	.st60{fill:#F1A21E;}
	.st61{fill:#EE3224;}
</style>
<g id="Layer_1" class="st0">
	<path class="st1" d="M7.1,19.2c0.1-0.3,6.7,1,6.9,1c-0.3,0.6-0.6,1.2-0.8,1.8c-0.1,0.6,0,1.3,0.2,1.9c-1,0.8-2.3,1.1-3.5,0.8
		C8.7,24.6,7.6,24,7,22.9c0.1-0.5,0.2-1.1,0.3-1.6C7.2,20.7,7.2,20,7.1,19.2z"/>
	<path class="st2" d="M7.2,21.4c1.1,1.3,2.8,1.8,4.5,1.5c0.5-0.1,1-0.3,1.3-0.7c0.1-0.2,0.2-0.4,0.3-0.6l0.2-0.5V21
		c0-0.1-0.1-0.1-0.2-0.1c-1.7-0.4-3.3-0.7-5-1.2c-0.2,0-0.4-0.2-0.6-0.3c-0.2,0-0.1,0-0.3,0.3C7.4,20.4,7.4,20.9,7.2,21.4z"/>
	<path class="st2" d="M27.1,52.4c-0.1,0.2-0.3,0.4-0.5,0.6c-0.1,0.2-0.3,0.3-0.5,0.3c-0.1,0-0.1,0.1-0.2,0.1s-0.1,0.1-0.1,0.2
		s0,0.3-0.1,0.4c0,0.1,0.2,0.2,0.3,0.3s0.2,0,0.2-0.1c0.4-0.2,0.8-0.4,1.1-0.8c0.2-0.2,0.4-0.5,0.4-0.8c0-0.2,0.2-0.4,0.2-0.6
		c0.1,0.6-0.5,1.2-0.7,1.8c0,0.1,0,0.2-0.1,0.3l-0.4,0.4c-0.2,0.1-0.3,0.3-0.4,0.5v0.2c0,0.1,0.1,0.2,0.2,0.3s0.3,0.4,0.5,0.3
		c0.1,0,0.2-0.1,0.2-0.2l0.4-0.4l0.3-0.3c0.5-0.5,0.8-1.1,0.9-1.8c0-0.2,0-0.5-0.1-0.7c-0.1-0.1-0.1-0.2-0.2-0.3v-0.2
		c-0.1-0.2-0.2-0.3-0.3-0.5s-0.4-0.3-0.6-0.4s-0.3-0.1-0.3,0.1s-0.1,0.3-0.1,0.5C27.4,51.8,27.2,52.1,27.1,52.4z"/>
	<path class="st1" d="M28.3,53.4c0,0.2-0.2,0.4-0.2,0.6s-0.3,0.4-0.3,0.7c-0.2,0.3-0.3,0.6-0.5,0.9c0,0.1-0.1,0.3-0.1,0.4
		s0.1,0.3,0,0.5l0.1,0.1c0.1,0.1,0.3,0.1,0.4,0c0.1-0.1,0.3-0.3,0.3-0.4c0.3-0.6,0.7-1.2,1-1.9c0.4-1,0.7-2.1,0.8-3.2
		c0.1-0.3,0-0.6-0.1-0.9s-0.1-0.8-0.2-1.3c0-0.1,0-0.1-0.1-0.1s-0.1,0-0.1,0.1l0,0c-0.1-0.1-0.2-0.3-0.4-0.4s-0.3-0.1-0.5-0.1
		c-0.3,0-0.5,0-0.8,0.1c-0.2,0.1-0.4,0.3-0.4,0.6c0,0.1,0,0.2-0.1,0.3v0.1c-0.1,0.2-0.3,0.3-0.3,0.5s-0.1,0.3-0.1,0.5
		s-0.1,0.3-0.2,0.5L26,52.3c0,0.1,0,0.2-0.1,0.3c0.1,0.1,0.2,0.1,0.3,0.2l0.5,0.1h0.2c0.1,0,0.1-0.1,0.1-0.2
		c0.2-0.3,0.3-0.6,0.5-0.9l0.1,1.2v0.4c-0.1,0.6-0.2,1.1-0.3,1.7c-0.2,0.3-0.2,0.7-0.2,1c0,0.2,0.2,0.3,0.4,0.4s0.4-0.3,0.4-0.4
		l0.2-0.7c0-0.2,0.2-0.4,0.2-0.5c0-0.2,0.1-0.3,0.1-0.5c0.1-0.3,0.2-0.7,0.3-1c-0.2-0.2-0.3-0.7-0.5-0.9l0,0c0-0.1,0-0.2-0.1-0.2
		c-0.2,0.3-0.3,0.7-0.2,1c0.1,0.1,0.1,0.1,0.1,0.2C28.3,53.3,28.2,53.2,28.3,53.4z"/>
	<path class="st3" d="M26.3,51.6L26.3,51.6c-0.1,0.1-0.2,0.3-0.3,0.4s-0.2,0.3,0.1,0.2l0.4,0.1c0.1,0,0.2-0.1,0.3-0.2
		c0-0.1,0-0.2,0.1-0.3v-0.2c0-0.1,0-0.1-0.1,0H26.3z"/>
	<path class="st3" d="M27.9,55.1c0,0.1-0.1,0.6-0.1,0.7v0.1h0.1v-0.2C28,55.5,28,55.3,27.9,55.1z"/>
	<path class="st2" d="M27.3,51.1c0-0.1,0-0.1,0.1-0.2s0.3-0.1,0.4,0c0,0,0,0,0,0.1c0.1,0.1,0.2,0.2,0.2,0.3c0.1,0.3,0.1,0.7,0,1
		c0.1,0.3,0.1,0.7,0,1c0,0.1,0,0.2-0.1,0.3c0,0.1-0.1,0.3-0.1,0.4c-0.1,0.4-0.1,0.8-0.2,1.2l-0.1,0.5v0.2c-0.2-0.3-0.2-0.7,0-1
		c0.1-0.3,0.1-0.6,0.2-0.9l0.1-0.8c0-0.2,0.1-0.4,0.1-0.6s-0.1-0.7-0.1-1.2c-0.1,0.2-0.2,0.5-0.3,0.7s-0.6,0.3-0.5,0.2
		s0.2-0.4,0.2-0.5C27.1,51.5,27.2,51.4,27.3,51.1z"/>
	<path class="st2" d="M27.5,54.8c-0.2,0.3-0.2,0.7-0.2,1c0,0.1,0,0.1,0.1,0.1v0.5h-0.1c-0.1,0-0.1,0-0.1-0.1s0-0.1-0.1-0.1V56
		c-0.1-0.2,0-0.5,0.1-0.7l0.1-0.3C27.3,54.8,27.3,54.8,27.5,54.8L27.4,55"/>
	<path class="st1" d="M4.6,52.7c0.5,0.1,1,0.4,1.3,0.8c0.2,0.3,0.3,0.7,0.3,1.1c0.1,0.3-0.6,6.9-0.7,8.6c0.1,1.4,0,2.7-0.2,4.1
		c-0.4,0.7-0.7,1.4-1,2.1c-0.3,1-0.5,2-0.5,3.1c0,0.5,0.1,1.1,0.3,1.6c0.2,1,0.2,1.8,0.3,2.7c0.1,0.8,0.1,1.6,0.1,2.4
		c0.1,0.3,0,0.7-0.2,1S4,80.8,3.9,81.1C4,81.2,4,81.4,4,81.5c0.2,0.8-0.9,1.5-0.6,2.3c0.4,0.6,1.2,0.9,1.9,0.7
		c0.1,0,0.2-0.1,0.3-0.1s0.3,0.1,0.4,0.1c0.9,0.3,1.9,0.4,2.8,0.5H9c0.2-0.1,0.4-0.3,0.3-0.5s-0.2-0.4-0.2-0.6c-0.4-0.5-0.7-1-1-1.5
		c-0.2-1.5-0.2-3,0.1-4.4c0.8-1.5,1.3-3,1.7-4.6c0.5-1.6,0.6-3.2,0.4-4.8c-0.2-0.8-0.2-1.7-0.1-2.5c0.1-0.7,1.2-2,1.7-3.5
		c0.3-1.3,0.6-2.7,0.7-4.1c0.2-1.6,0.4-3.6,0.6-5.2c0.1-1.6,0.1-3.1,0-4.7c0-0.6,0.7-2.1,0.7-2.7s0.6-4.8,0.7-5.2
		c0.3-1.9,0.8-3.8,1.1-5.8c0.1-0.5,0.4-3.1,0.5-3.8c0-0.2,0.1-0.5,0.1-0.7c0.2-0.9,1.1,2.1,1.4,3s1.1,2.6,0.8,2.5
		c0.3,0.8,0.6,1.1,0.9,2c0.1,0.4,0.4,0.9,0.5,1.3c0.1,0.3,0.2,0.7,0.3,1c0.2,0.7,0.5,1.4,0.9,2.1c0.4,0.4,3.6,3.8,3.9,4.2
		s1.2,1.8,1.6,2.1s0.4,0.6,0.6,0.7c0.4-0.4,0.9-0.6,1.5-0.5c0.6,0,1-0.1,0.7-0.6c-0.5-1-0.9-2-1.3-2.9c-0.4-1.2-1-2.3-1.7-3.4
		c-0.4-0.8-0.9-1.5-1.4-2.2s-1.3-1.6-1.9-2.4c-0.5-0.8-0.9-1.6-1.3-2.5c-0.4-1.1-1.4-3.9-1.6-4.9c-0.1-0.6-0.3-1.1-0.5-1.7
		c-0.1-0.6-0.3-1.2-0.6-1.7c-0.3-0.4-0.6-0.7-1-1c-0.5-0.3-1.1-0.6-1.7-0.9c-1.2-0.5-1.9-0.5-3.2-1c-0.4,0.3-0.8,0.5-1.3,0.7
		c-0.8,0.2-1.6,0.3-2.4,0.1"/>
	<path class="st1" d="M9.8,24.6c-0.7-0.1-1.4-0.4-2-0.8c-0.4-0.3-0.7-0.7-0.9-1.1c-1.1-0.1-2.3-0.2-3.4-0.1c-0.6,0-1.2,0.1-1.8,0.2
		c-0.5,0.1-0.9,0.3-1.3,0.6c-0.4,0.4-0.8,0.9-1.2,1.4c-0.4,0.5-0.7,0.9-1.1,1.5c-0.7,0.9-2.5,3.2-3.3,4.2c-0.6,0.7-1.3,1.4-2,2
		c-0.8,0.6-1.9,1.1-2.6,1.7c-0.7,0.6-1.6,1.2-2.1,1.6c-1,0.8-1.9,1.8-2.8,2.7c-0.4,0.5-1.9,1.9-2.3,2.3c-0.4,0.4-0.2,0.6,0.5,0.8
		c0.5,0.1,0.9,0.5,1.2,0.9c0.3-0.1,0.5-0.3,0.8-0.5c0.5-0.2,1.7-1.2,2.2-1.4c0.5-0.2,4.7-2.4,5.1-2.7c0.7-0.5,1.3-1.1,1.7-1.8
		c0.3-0.5,0.3-0.6,0.6-0.8c0.4-0.3,0.7-0.7,0.9-1.1l1.6-1.6c-0.1,0,1.3-1.4,1.7-2.1c0.6-0.7,2.5-3.4,2.3-2.4
		c-0.1,0.2-0.1,0.4-0.1,0.6c-0.1,0.8-0.7,3.2-0.7,3.7c-0.4,1.9-0.7,3.8-1,5.8c-0.1,0.4-1,4.7-1.1,5.1s-1,2-1.2,2.6
		c-0.4,0.9-0.4,3.6-0.7,4.6C-3.6,52.1-4,54-4.4,55.6c-0.3,1.3-0.6,2.7-0.7,4.1c-0.1,1.6,0.5,3.1,0.4,3.8c-0.2,0.8-0.6,1.6-1,2.3
		c-0.8,1.4-1.3,3-1.3,4.7c-0.1,1.6,0,3.3,0.1,4.9c-0.3,1.4-0.7,2.9-1.3,4.2c-0.4,0.5-0.9,0.9-1.5,1.1c0.1,0-0.1,0.2-0.2,0.3
		c-0.1,0.1-0.1,0.4,0.1,0.5h0.2c0.9,0.3,1.8,0.4,2.7,0.4C-6.7,82-6.6,82-6.4,82c0.1,0,0.2,0.1,0.3,0.2c0.6,0.4,1.4,0.4,2-0.1
		c0.5-0.6-0.2-1.7,0.3-2.3c0.1-0.1,0.3-0.3,0.3-0.4c0.1-0.3,0.1-0.6-0.1-0.9c-0.1-0.3,0-0.7,0.2-1c0.2-0.7,0.6-1.4,0.8-2.1
		c0.3-0.9,0.7-1.7,1.2-2.5c0.3-0.4,0.6-0.9,0.8-1.4c0.3-1,0.5-2,0.5-3.1c0.1-1-0.3-1.9-0.2-2.3c0.3-1.3,0.8-2.6,1.2-4
		C1.4,60.3,3,54,3.2,53.7s0.3-0.7,0.7-0.9c0.4-0.3,0.8-0.4,1.3-0.3"/>
	<path class="st4" d="M-2.7,46.2c0.2-0.5,0.5-1.2,1.1-1.2h0.1c3.7,0.5,15,1.9,15,2.2c0.1,0.3,0.1,0.7,0,1c-0.3,2.4-4,3.6-7.8,4.9
		c-0.3,0.1-0.7,0.2-1.1,0.1c-0.5,0-1-0.2-1.4-0.4c-1.9-1.2-5.9-3.7-6-5.8C-2.8,46.7-2.8,46.5-2.7,46.2z"/>
	<circle class="st5" cx="5.2" cy="29.7" r="0.2"/>
	<circle class="st5" cx="13" cy="30.9" r="0.2"/>
	<path class="st2" d="M-6,36.1c0.2-0.2,0.3-0.5,0.4-0.7c0.2-0.2,0.4-0.5,0.7-0.6c0.3-0.3,0.6-0.6,0.9-1l1.1-1.6
		c0.1-0.2,0.3-0.5,0.4-0.7c0-0.2,0.1-0.4,0.2-0.6c0.3-0.4,0.6-0.8,0.8-1.2c0.1-0.2,0.2-0.3,0.3-0.5h0.5c1.1-0.5,2-1.5,2.5-2.7
		c0.1-0.5,0.4-0.9,0.7-1.2l0.2,0.1c-0.2,0.8-0.2,1.6,0.1,2.4C2.9,28,3,28.2,3,28.4c0,0.2-0.1,0.5-0.1,0.7c-0.3,1.3,0.4,2.8,0.1,4.1
		c-0.2,0.5-0.4,1-0.6,1.4C2.2,35,2,35.5,2,36l-0.1,0.5c0,0.2-0.1,0.4-0.1,0.6c0,0.4-0.1,0.8-0.2,1.2c-0.2,0.4-0.3,0.8-0.5,1.2
		C1,39.8,1,40.1,1,40.4c0.1,0.1,0.1,0.3,0,0.4c0,0.1-0.1,0.3-0.1,0.4l-0.4,1.3c-0.1,0.2-0.5,0.2-0.7,0.1s-0.1-0.1-0.2-0.1
		c0-0.2,0.1-0.4,0.1-0.6s0.1-0.3,0.1-0.5L1,34.8l0.2-1l0.2-1.1l0.3-2l0.2-0.9C2,29.4,2,29,2.1,28.5c0-0.2,0.1-0.6-0.1-0.6
		s-0.4,0.4-0.4,0.5c-0.5,0.5-1,1.1-1.3,1.7c-0.5,0.7-1,1.4-1.6,2c-0.7,0.6-1.4,1.4-2.2,2.1L-4.3,35c-0.2,0.3-0.9,1.4-1.2,1.8
		c-0.4,0.4-0.9,0.8-1.4,1.1c-0.4,0.2-0.8,0.4-1.2,0.6c0.4-0.4,0.8-0.8,1-1.3C-6.6,36.9-6.3,36.6-6,36.1z"/>
	<path class="st6" d="M19.7,15.5l0.4,0.4c0.1,0.2,0.1,0.5,0.2,0.7c0,0.8-0.3,1.6-0.9,2.1c-0.3,0.3-0.8,0.5-1.3,0.5
		c-0.2,0-0.4-0.1-0.5-0.3s-0.1-0.4,0-0.6l0.4-1.9C18.1,15.7,18.8,14.9,19.7,15.5z"/>
	<path class="st6" d="M3.1,12.8C3,12.9,2.8,13,2.6,13c-0.1,0.2-0.3,0.4-0.3,0.6c-0.3,0.8-0.2,1.6,0.1,2.3c0.1,0.4,0.6,0.7,1.1,0.9
		c0.2,0,0.4,0.1,0.6-0.1c0.2-0.2,0.3-0.4,0.2-0.6l0.2-1.9C4.6,13.5,4.1,12.5,3.1,12.8z"/>
	<path class="st1" d="M5.7,8.9c-0.9,1.1-1.3,2.5-1.4,3.9C4.2,14.1,4,16.6,4,17c0.3,2.3,3.6,4.4,3.9,4.6c1.2,0.8,2.8,1,4.2,0.6
		c2.1-0.4,4-1.6,5.3-3.4c0.6-1,1-2.2,1.1-3.4c0.2-1.3,0.3-2.6,0.2-3.9c-0.4-1.2-1.2-2.3-2.4-2.8c-1.9-0.6-3.9-1-5.9-1.2
		C8.7,7.3,7,7.8,5.7,8.9z"/>
	<path class="st7" d="M4.5,13.7c0.4-1.7,1-4.2,2.3-4.6c1-0.4,4.1,0.6,5.5,0.8c1.7,0.1,3.3,0.4,5,0.7c0.6,0.1,1,0.5,1.2,1.1
		c0.2,1.5,0.1,3.1-0.1,4.6c0.4-0.3,0.6-0.7,0.7-1.2c0.6-1.5,0.9-3.2,0.7-4.8c-0.5-1.9-1.9-3.5-3.7-4.3c-1.8-0.6-3.8-0.9-5.7-0.9
		c-1.8,0-3.5,0.8-4.6,2.2C5,8.8,4.5,10.5,4.5,12.2C4.1,13.8,4.3,14.2,4.5,13.7z"/>
	<path class="st2" d="M9.7,17.4c0.1-0.1,0.3,0.4,1,0.5s1-0.2,1.1-0.1s-0.1,0.7-0.9,0.6S9.5,17.5,9.7,17.4z"/>
	<path class="st8" d="M5.7,14.4c0.1-0.7,1.3-1,2.3-0.9s1.8,0.8,1.7,1.4s-0.9,1-2,0.9S5.6,15.1,5.7,14.4z"/>
	<path class="st9" d="M8.3,12.1C7.9,12,7.4,12,7,12.1c-0.2,0.1-0.3,0.1-0.5,0.1c0,0,0.1-0.8,1.7-0.6c1.2,0.2,1.7,0.8,1.6,0.9
		S9.1,12.2,8.3,12.1z"/>
	
		<ellipse transform="matrix(0.9988 -4.988674e-02 4.988674e-02 0.9988 -0.7236 0.4058)" class="st10" cx="7.8" cy="14.7" rx="1.2" ry="1"/>
	<circle class="st11" cx="7.1" cy="14.5" r="0.4"/>
	<path class="st9" d="M8.1,13.2c0.8,0.1,1.5,0.7,1.7,1.5c-0.1,0.9,0-1-1.8-1.2c-0.9-0.2-1.9,0.2-2.3,1.1C5.8,13.1,7.2,13.1,8.1,13.2
		z"/>
	<path class="st9" d="M15,13.2c0.4,0,0.8,0.2,1.2,0.4c0.2,0.1,0.3,0.2,0.5,0.3c0-0.1,0.1-0.8-1.4-1.1c-1.2-0.2-1.8,0.2-1.8,0.3
		S14.4,13.1,15,13.2z"/>
	<path class="st8" d="M12.8,15.4c0.1-0.6,1.3-1,2.3-0.8s1.8,0.8,1.7,1.4c-0.1,0.6-0.9,1-2,0.9S12.7,16.1,12.8,15.4z"/>
	
		<ellipse transform="matrix(0.9988 -4.988890e-02 4.988890e-02 0.9988 -0.7747 0.7566)" class="st10" cx="14.8" cy="15.9" rx="1.2" ry="1"/>
	<circle class="st11" cx="14.1" cy="15.6" r="0.4"/>
	<path class="st9" d="M15.1,14.4c0.8,0.1,1.5,0.7,1.7,1.5c0.1,0.9,0-1-1.8-1.2c-0.9-0.2-1.9,0.2-2.3,1.1
		C12.9,14.2,14.3,14.2,15.1,14.4z"/>
	<path class="st12" d="M2.9,44.6c-0.2,0.3-0.4,0.5-0.7,0.7c2.5,0.7,5.1,1.1,7.7,1.2c-0.2-0.3-0.3-0.5-0.4-0.8
		c0.1,0.3,0.2,0.5,0.4,0.8c1.5,0.1,2.9,0,4.4-0.1c-0.1-0.9-0.2-1.5-0.2-1.5c-5.2,0-10.3-0.8-15.2-2.4c-0.1,0.5-0.3,1-0.6,1.5
		c1.3,0.6,2.6,1.1,3.9,1.4C2.5,45.2,2.7,44.9,2.9,44.6z"/>
	<path class="st13" d="M14.2,49.8c-0.2-1.4-0.1-2.6-0.2-3.5c-1.3,0.1-2.7,0.2-4,0.1C10.5,47.4,11.3,48.8,14.2,49.8z"/>
	<path class="st12" d="M-7.1,61.6l10,1.6L3,61.7L-6.7,60C-7.3,61.2-7.1,61.6-7.1,61.6z"/>
	<path class="st12" d="M3.9,61.6l-0.2,1.6l9.6,1.1c0.2-0.6,0.2-1.2,0.2-1.8L3.9,61.6z"/>
	<path class="st14" d="M2.9,45.4c-1.6-0.4-3.1-0.9-4.6-1.5c-0.4,0.8-0.9,2-1.6,3.3C-1.1,47.3,1.1,46.7,2.9,45.4z"/>
	<path class="st15" d="M2.2,45.2c-1.4,1.4-3.4,2.1-5.4,1.9c-1.1,4.6-2.5,9.6-3.5,12.8l9.6,1.6l1.7-6.8L6.1,46
		C4.8,45.8,3.5,45.5,2.2,45.2z"/>
	<path class="st16" d="M14.2,49.8c-1.8-0.5-3.3-1.7-4.2-3.3c-1.3-0.1-2.6-0.2-3.9-0.4l-1.5,8.7L4,61.7l9.6,0.9
		C13.7,59.4,14.1,54.2,14.2,49.8z"/>
	<path class="st17" d="M13.8,23.7L13.8,23.7c0.1,0,0.2,0,0.3,0.1h0.1c0.1,0,0.1,0,0.1,0.1h0.1c1.2,0.7,3.3,1.1,4.4,2
		c0.8,0.8,2.1,5.1,3.2,6.3c0.1,0.1,0.2,0.3,0,0.5l0,0c-0.6,0.4-1.6,1.1-1.8,1.2c-0.7,0.3-1.4,0.5-2.1,0.7c-0.3,0.1-0.7,0-0.7-0.3
		c-0.1-0.3-0.2-0.7-0.4-1c-0.2,0-0.3-0.1-0.5-0.1l0,0c-0.6,1.5-1,3.1-1.2,4.7c-0.1,0.7-0.2,1.5-0.3,2.6c0,0.3-0.1,0.7-0.1,1.2
		c-0.1,2.2,0.1,5.3-0.2,6.5c0,0.2-0.3,0.3-0.5,0.3c-2.7-0.3-5.6-0.8-8.3-1.1C4.5,47.2,3,47,1.7,46.7c-1.1-0.3-2.5-0.8-3.6-1
		c-0.3-0.1-0.5-0.3-0.4-0.5C-2,44-1.5,42.9-1,41.8c0.1-0.3,0.2-0.5,0.2-0.8c0.1-0.3,0.2-0.6,0.2-0.9c0.1-0.2,0.1-0.5,0.2-0.7
		c0.1-0.5,0.2-0.9,0.2-1.4c0.1-0.5,0.2-1.1,0.3-1.6c0-0.6,0.2-1.2,0.4-1.7c0.3-0.8,0.4-1.6,0.5-2.5l0,0c0-0.3,0.2-0.6,0.2-0.9v-0.4
		H0.8c-0.3,0-0.8,0.5-0.9,0.4c-0.9-0.5-1.8-1.1-2.6-1.7l-1-1c-0.1-0.1-0.2-0.3,0-0.5l0,0c0.6-0.8,2.6-2.9,2.8-3.2
		c0.4-0.5,0.8-0.9,1.3-1.3c0.1-0.2,0.7-0.4,1-0.6c0.5-0.1,1-0.2,1.5-0.2c0.8-0.1,1.5-0.2,2.3-0.3h0.1c0.1,0,0.5-0.1,0.6-0.1
		c0.2,0.3,0.2,3.7,3.1,4.2C13.1,27.3,13.6,23.7,13.8,23.7z"/>
	<path class="st18" d="M13.8,23.7c0.2,0.1,0.4,0.2,0.6,0.2h0.1c1.4,0.4,2.8,1,4.1,1.8c1.1,0.7,1.5,2.6,1.9,3.8
		c-0.2,0.1-0.5,0.3-0.7,0.4c-0.6-1.1-0.9-2.6-1.8-3.4c-1.1-0.9-2.3-1.5-3.6-1.9h-0.1c-0.3-0.2-0.6-0.3-0.9-0.4
		C13.6,24.1,13.7,23.9,13.8,23.7z"/>
	<path class="st18" d="M6,22.4H5.3c-1.3-0.1-2.6,0-3.9,0.4c-1.3,0.4-2.7,2.5-3.5,3.4l0.6,0.6c0.9-0.8,2.2-2.5,3.3-2.9
		s2.2-0.6,3.3-0.6h0.1c0.3,0,0.5-0.1,0.9-0.1C6,22.9,6,22.7,6,22.4z"/>
	<path class="st18" d="M1.2,31.1L1.2,31.1c0.4-0.7,0.6-1.4,0.7-2.2C2,28.6,2,28.4,2.1,28.1c0.1-0.3,0.2-0.6,0.2-0.9
		c0.1-0.4,0.3-0.9,0.4-1.3c0.1-0.8,0-1.6-0.2-2.3h0.1c0.3,0.7,0.3,1.5,0.2,2.3c-0.1,0.5-0.2,0.9-0.4,1.4c-0.1,0.3-0.2,0.5-0.2,0.8
		c-0.1,0.3-0.1,0.5-0.2,0.8C1.9,29.7,1.7,30.5,1.2,31.1z"/>
	<path class="st18" d="M16.4,33.2c-0.3-0.1-0.5-1.2-0.5-1.8c-0.3-2,0-4.1,0.6-6h0.1c-0.6,1.9-0.8,4-0.6,6C16,32,16.2,32.6,16.4,33.2
		z"/>
	<path class="st19" d="M14.4,23.9L14.4,23.9L14.4,23.9c-0.4,1-1,1.9-1.8,2.5c-0.9,0.8-2.2,1.1-3.4,0.9c-0.5,0-1-0.2-1.4-0.4
		c-0.6-0.3-1.1-0.7-1.5-1.2c-0.7-0.9-1.1-2-1-3.1v-0.1h0.1c0.2-0.1,0.4-0.1,0.6-0.1l0,0c0.1,1.1,0.5,2.1,1.1,3
		c0.3,0.4,0.7,0.7,1.1,0.9c0.3,0.2,0.6,0.3,1,0.3c0.9,0.1,1.9-0.1,2.7-0.6c0.8-0.6,1.3-1.3,1.7-2.2l0.1-0.1"/>
	<path class="st18" d="M14.4,23.9L14.4,23.9c-0.1,0.2-0.2,0.5-0.3,0.7l0,0c-0.4,0.7-0.9,1.3-1.5,1.8c-1,0.8-2.2,1.1-3.4,0.8
		c-0.5-0.1-1-0.2-1.4-0.4c-0.6-0.3-1.1-0.7-1.5-1.2c-0.6-0.7-0.9-1.5-1-2.4c0-0.2,0-0.5-0.1-0.7v-0.1l0,0c0,0.2,0,0.5,0.1,0.7
		c0.1,0.9,0.4,1.7,1,2.4c0.4,0.5,1,0.9,1.5,1.2c0.3,0.2,0.7,0.3,1.1,0.4h0.3c1.2,0.2,2.5-0.1,3.4-0.9c0.6-0.5,1.1-1.1,1.5-1.8
		L14.4,23.9L14.4,23.9z M13.8,23.7L13.8,23.7c-0.1,0.3-0.3,0.5-0.5,0.8C13,25.1,12.6,25.6,12,26c-0.8,0.5-1.8,0.7-2.7,0.6H9
		c-0.3-0.1-0.5-0.1-0.7-0.3c-0.4-0.2-0.8-0.5-1.1-0.9c-0.5-0.6-0.8-1.3-1-2.1l0,0c-0.1-0.3-0.1-0.6-0.1-0.9l0,0
		c0,0.3,0.1,0.6,0.1,0.8c0.2,0.8,0.5,1.5,1,2.2c0.3,0.4,0.7,0.7,1.1,0.9c0.3,0.2,0.6,0.3,1,0.3c0.9,0.1,1.9-0.1,2.7-0.6
		c0.6-0.4,1.1-1,1.4-1.6C13.5,24.1,13.6,23.9,13.8,23.7z"/>
	<path class="st20" d="M17.1,33.2c-0.2,0-0.4-0.1-0.6,0c-0.1-0.1-0.1-0.2-0.2-0.3c-0.2-0.3-0.3-0.6-0.4-1c-0.1-0.4-0.1-0.9,0-1.3
		c0-0.4-0.1-0.8-0.1-1.3c0.2,0.6,0.3,1.2,0.4,1.8c0.1,0.4,0,0.8,0.4,1.2c0.1,0.1,0.2,0.3,0.2,0.5C16.9,32.9,17.1,33.1,17.1,33.2z"/>
	<path class="st20" d="M1.9,29.7c-0.1,0.6-0.4,1.1-0.7,1.6v-0.4H0.8c0.1-0.3,0.3-0.5,0.4-0.8s0.2-0.5,0.3-0.7
		c0.2-0.6,0.4-1.3,0.6-1.9c0.1,0.1,0.1,0.2,0.1,0.4s-0.1,0.3-0.1,0.4C2,28.7,2,29.2,1.9,29.7z"/>
	<path class="st21" d="M5.7,44.9c-0.5,0.1-1,0.1-1.5,0c-1.5-0.4-2.6-1.6-3.9-2.4c-0.2-0.1-0.3-0.2-0.5-0.3S-0.4,42-0.5,42
		c-0.2,0-0.5-0.1-0.7-0.1c0.1-0.3,0.2-0.5,0.2-0.8c0.5-0.1,1,0.1,1.3,0.5c0.3,0.3,0.4,0.6,0.7,0.8c1,1.1,2.5,1.2,3.9,1.8
		C5.3,44.3,5.6,44.5,5.7,44.9z"/>
	<path class="st22" d="M14.9,41.7L14.9,41.7c-0.1,0.1-0.3,0-0.4,0.1s-0.1,0.1-0.1,0.2c-0.6,1.1-1.3,2.1-2.3,2.9
		c0.3-0.9,0.7-1.7,1.3-2.4c0.1-0.2,0.2-0.3,0.2-0.5c-0.1-0.3-0.5-0.4-0.8-0.4c0-0.2,0.3-0.4,0.5-0.5c0.3-0.2,0.7-0.4,1-0.7
		c0.1-0.1,0.3-0.2,0.3-0.4c0.2-0.4,0.2-0.8,0-1.2c-0.1-0.9-0.1-1.9,0-2.8c0.2,0,0.3,0.4,0.3,0.6c0,0.5,0.1,0.9,0.3,1.3
		c0,0.1,0,0.1,0.1,0.2c-0.1,0.7-0.2,1.5-0.3,2.6C14.9,41,14.9,41.4,14.9,41.7z"/>
	<path class="st21" d="M0.8,36.4c-0.2,0.4-0.3,0.9-0.2,1.3c0,0.3,0.2,0.7,0,1L0.3,39l-1,1c0.1-0.2,0.1-0.5,0.2-0.7
		c0.1-0.5,0.2-0.9,0.2-1.4c0.1-0.5,0.2-1.1,0.3-1.6s0.3-1.1,0.5-1.6c0.3-0.8,0.4-1.6,0.5-2.5l0,0c0.2,0.6,0.2,1.3,0,1.9
		c-0.1,0.2-0.2,0.5-0.1,0.7c0,0.2,0.1,0.4,0.2,0.6c0.1,0.4,0.1,0.7,0,1.1C1,36.5,0.9,36.5,0.8,36.4z"/>
	<path class="st1" d="M26.8,22.6c0-0.3,6.5-0.8,6.5-0.8c-0.1,0.7-0.2,1.4-0.2,2.1c0.1,0.7,0.4,1.3,0.7,1.9c-0.7,1-1.8,1.6-3,1.7
		c-2.2,0.3-3.2-0.9-3.2-1s-0.1-0.9-0.1-1.7C27.4,24,27.1,23.3,26.8,22.6z"/>
	<path class="st2" d="M27.6,24.6c1.4,0.7,3.1,0.6,4.4-0.2c0.4-0.2,0.7-0.5,0.9-0.9c0.1-0.2,0.1-0.3,0-0.5v-0.5h-0.3
		c-1.6,0.4-3.2,0.6-4.8,0.6c-0.3,0-0.4-0.1-0.7,0s-0.2,0-0.1,0.3C27.4,23.7,27.6,24.1,27.6,24.6z"/>
	<path class="st2" d="M13.5,52.3c0.1,0.3,0.3,0.5,0.5,0.7c0.1,0.1,0.2,0.3,0.4,0.4s0.1,0.1,0.2,0.1c0.1,0.1,0.1,0.1,0.1,0.2V54
		c0,0.1-0.2,0.2-0.3,0.2s-0.2,0-0.2-0.1c-0.4-0.2-0.7-0.5-0.9-0.8c-0.2-0.3-0.3-0.5-0.4-0.8c0-0.2-0.1-0.4-0.2-0.6
		c-0.1,0.6,0.4,1.2,0.6,1.8c0,0.1,0,0.2,0.1,0.3c0.1,0.1,0.2,0.2,0.3,0.4c0.1,0.1,0.2,0.3,0.3,0.4s0.1,0.1,0.1,0.2s-0.1,0.2-0.2,0.3
		s-0.2,0.3-0.4,0.3c-0.1,0-0.2-0.1-0.2-0.2c-0.1-0.1-0.2-0.3-0.3-0.4s-0.2-0.2-0.2-0.3c-0.4-0.5-0.7-1.2-0.8-1.8
		c0-0.2-0.1-0.5,0.1-0.7s0.1-0.2,0.2-0.3v-0.2c0-0.2,0.2-0.3,0.3-0.5c0.2-0.1,0.4-0.2,0.5-0.4c0.2,0,0.3,0,0.3,0.1v0.4
		C13.2,51.6,13.3,52,13.5,52.3z"/>
	<path class="st1" d="M12.3,52.9c0,0.2,0.1,0.4,0.2,0.6l0.3,0.6c0.1,0.3,0.3,0.6,0.4,0.9v0.4c0,0.2-0.1,0.3,0,0.5L13.1,56
		c-0.1,0.1-0.3,0-0.4-0.1s-0.2-0.2-0.2-0.4c-0.3-0.6-0.6-1.2-0.8-1.9c-0.3-1-0.5-2-0.5-3.1c0-0.3,0-0.5,0.1-0.8
		c0-0.4,0.1-0.9,0.2-1.3c0-0.1,0-0.1,0.1-0.1s0.1,0,0.1,0.1l0,0c0-0.1,0.2-0.2,0.3-0.3c0.2,0,0.3,0,0.5-0.1c0.2,0,0.5,0.1,0.7,0.1
		s0.3,0.3,0.3,0.5s-0.1,0.2,0,0.3c0,0.1,0,0.1,0.1,0.1c0.1,0.1,0.2,0.3,0.2,0.5s-0.1,0.3,0,0.5c0.1,0.1,0.1,0.3,0.1,0.4
		c0.2,0.4,0.4,0.9,0.6,1.4c0,0.1,0.1,0.2,0,0.3c-0.1,0.1-0.2,0.1-0.3,0.1c-0.2,0-0.3,0-0.5,0.1h-0.2c-0.1,0-0.1-0.1-0.1-0.2
		c-0.1-0.3-0.3-0.6-0.4-0.9c0,0.4-0.1,0.8-0.2,1.2v0.4c0.1,0.5,0,1.1,0.1,1.6s0.2,0.7,0.1,1s-0.2,0.3-0.3,0.3s-0.3-0.2-0.3-0.4
		c0-0.2-0.1-0.5-0.2-0.7c0-0.2-0.1-0.3-0.1-0.5s0-0.3-0.1-0.5c0-0.3-0.1-0.7-0.2-1c0.2-0.3,0.4-0.6,0.5-0.9l0,0c0-0.1,0-0.2,0.1-0.2
		c0.2,0.3,0.3,0.7,0.1,0.9c0,0.1,0,0.1-0.1,0.2C12.3,52.8,12.4,52.9,12.3,52.9z"/>
	<path class="st3" d="M14.2,51.6L14.2,51.6c0,0.1,0.1,0.3,0.1,0.4s0.1,0.3-0.1,0.2h-0.4c-0.1,0-0.2-0.1-0.3-0.2v-0.5
		c0-0.1,0.1-0.1,0.1,0C13.8,51.6,14,51.6,14.2,51.6z"/>
	<path class="st3" d="M12.5,54.9c0,0.1,0.1,0.6,0.1,0.7s0,0.1-0.1,0.1h-0.1c-0.1-0.1-0.1-0.1-0.1-0.2s-0.1-0.6,0-0.7L12.5,54.9z"/>
	<path class="st2" d="M13.2,51.1c0-0.1,0-0.1-0.1-0.2s-0.2-0.1-0.3,0l0,0c-0.1,0.1-0.2,0.2-0.2,0.3c-0.1,0.3,0,0.6-0.1,1
		c-0.1,0.3-0.2,0.7-0.1,1c0,0.1,0,0.2,0.1,0.3v0.4c0,0.4,0.1,0.8,0.1,1.2v0.6c0.2-0.3,0.1-0.6,0.1-1s-0.1-0.6-0.1-0.8
		s-0.1-0.5-0.1-0.7v-0.6c0-0.4,0.1-0.8,0.2-1.2c0.1,0.2,0.1,0.5,0.3,0.7s0.5,0.4,0.4,0.3s-0.1-0.4-0.1-0.5
		C13.4,51.5,13.4,51.3,13.2,51.1z"/>
	<path class="st2" d="M13,54.5c0,0.3,0.2,0.7,0,1c0,0.1,0,0.1-0.1,0.1l-0.1,0.1V56h0.1c0.1,0,0.1,0,0.1-0.1l0.1-0.1l0.1-0.2
		c0.1-0.2,0-0.4-0.1-0.7v-0.2C13,54.6,13,54.6,13,54.5L13,54.5"/>
	<path class="st2" d="M52.5,47.9c-0.1,0.2-0.1,0.4-0.3,0.8c-0.1,0.2-0.2,0.3-0.3,0.5c-0.1,0-0.1,0.1-0.2,0.1
		c-0.1,0.1-0.1,0.1-0.1,0.2v0.3c0,0.1,0.2,0.2,0.3,0.2s0.2,0,0.2-0.1c0.3-0.2,0.6-0.6,0.7-1c0.1-0.2,0.2-0.5,0.2-0.8v-0.6
		c0.3,0.6-0.1,1.3-0.2,1.9c0,0.1,0,0.2-0.1,0.3c-0.1,0.1-0.2,0.2-0.2,0.4c-0.1,0.1-0.2,0.2-0.2,0.4c0,0.1-0.1,0.1-0.1,0.2
		s0.1,0.2,0.2,0.3s0.3,0.3,0.5,0.2c0.1,0,0.2-0.1,0.2-0.2c0.1-0.1,0.2-0.2,0.2-0.4c0.1-0.1,0.2-0.2,0.2-0.3c0.3-0.6,0.4-1.2,0.4-1.9
		c0-0.3-0.1-0.5-0.3-0.7c-0.1-0.3-0.1-0.4-0.2-0.5V47c0-0.2-0.2-0.3-0.4-0.4c-0.2-0.1-0.4-0.2-0.6-0.2c-0.2,0-0.3,0-0.3,0.1
		s0,0.3,0.1,0.4C52.5,47.2,52.6,47.5,52.5,47.9z"/>
	<path class="st1" d="M53.7,48.1v0.6c-0.1,0.2-0.1,0.4-0.2,0.6s-0.1,0.6-0.2,1v0.4c0,0.2,0.1,0.3,0.1,0.5l0.1,0.1
		c0.1,0.1,0.3,0,0.4-0.1s0.2-0.3,0.1-0.4c0.2-0.7,0.3-1.3,0.3-2c0.1-1.1,0-2.1-0.2-3.2c0-0.3-0.1-0.6-0.3-0.8
		c-0.1-0.4-0.3-0.8-0.5-1.2c0-0.1,0-0.1-0.1-0.1s-0.1,0-0.1,0.1c0-0.1-0.2-0.2-0.4-0.3c-0.2,0-0.3,0-0.5,0.1c-0.2,0-0.4,0.1-0.6,0.3
		c-0.2,0.1-0.2,0.3-0.2,0.5s0.1,0.2,0,0.3c0,0.1,0,0.1-0.1,0.1c-0.1,0.1-0.2,0.3-0.1,0.5c0,0.2,0.1,0.3,0.1,0.5s-0.1,0.3,0,0.4
		c-0.1,0.5-0.2,1-0.3,1.5c0,0.1-0.1,0.2,0,0.3s0.2,0.1,0.3,0.1c0.2,0,0.3,0,0.5-0.1H52c0.1,0,0.1-0.1,0.1-0.2c0.1-0.3,0.1-0.6,0.2-1
		c0.1,0.4,0.3,0.7,0.4,1.1v0.4c0.1,0.5,0.2,1.1,0.3,1.6c0,0.3,0,0.7,0.1,1c0.1,0.2,0.2,0.3,0.4,0.3s0.3-0.2,0.2-0.4v-0.7
		c0-0.2,0.1-0.3,0-0.5c0-0.2,0-0.3-0.1-0.5c-0.1-0.3-0.1-0.7,0-1c-0.2-0.2-0.4-0.5-0.6-0.8l0,0c0-0.1,0-0.2-0.1-0.2
		c-0.2,0.3-0.1,0.7,0.1,0.9c0,0.1,0,0.1,0.1,0.2C53.3,48,53.5,48,53.7,48.1z"/>
	<path class="st3" d="M51.6,47.4L51.6,47.4c0,0.1-0.1,0.3,0,0.4s-0.1,0.3,0.1,0.2h0.4c0.1,0,0.2-0.1,0.3-0.2v-0.5
		c0-0.1-0.1-0.1-0.1,0C52.1,47.4,51.8,47.4,51.6,47.4z"/>
	<path class="st3" d="M53.9,50.2c0,0.1,0.1,0.6,0.1,0.7s0,0.1,0.1,0.1h0.1c0.1-0.1,0.1-0.1,0.1-0.2c0-0.2-0.1-0.5-0.2-0.7L53.9,50.2
		z"/>
	<path class="st2" d="M52.4,46.7c0-0.1,0-0.1,0.1-0.2c0.1-0.1,0.2-0.1,0.3,0l0,0c0.1,0.1,0.2,0.2,0.2,0.3c0.1,0.3,0.2,0.6,0.3,1
		s0.4,0.7,0.3,1c0,0.1,0,0.2-0.1,0.3v0.4c0,0.4,0.1,0.8,0.1,1.2v0.6c-0.2-0.3-0.4-0.6-0.3-1c0-0.3-0.1-0.6-0.1-0.8s-0.1-0.5-0.1-0.7
		s0-0.4-0.2-0.6c-0.1-0.4-0.3-0.7-0.4-1.1c-0.1,0.2,0,0.5-0.1,0.7s-0.4,0.5-0.3,0.3v-0.5C52.4,47.1,52.3,46.9,52.4,46.7z"/>
	<path class="st2" d="M53.4,50c0,0.3,0,0.7,0.2,1c0,0.1,0,0.1,0.1,0.1l0.1,0.1v0.3h-0.1c-0.1,0-0.1,0-0.1-0.1l-0.1-0.1v-0.2
		c-0.1-0.2,0-0.4-0.1-0.7v-0.2C53.5,50.1,53.5,50.1,53.4,50L53.4,50L53.4,50"/>
	<path class="st1" d="M30.6,26.5c-0.7,0.1-1.4,0-2-0.2c-0.4-0.2-0.7-0.5-1-0.8c-1,0.2-2,0.4-2.9,0.7c-0.5,0.2-1,0.4-1.5,0.7
		c-0.4,0.2-0.7,0.5-0.9,0.9c-0.2,0.5-0.5,1-0.7,1.5s-0.4,1.1-0.6,1.6c-0.5,1.6-1.1,3.1-1.8,4.6c-0.4,0.8-0.8,1.6-1.3,2.3
		c-0.6,0.8-1.3,1.5-1.8,2.2c-0.4,0.5-1.1,1.6-1.4,2c-0.6,1-1.2,2.1-1.6,3.2c-0.2,0.4-1.2,2.3-1.3,2.7s0,0.5,0.6,0.7s0.7-0.1,1.1,0.3
		c0.2-0.1,0.4-0.6,0.6-0.8s1.1-1.5,1.4-1.8s2.9-3.3,3.3-3.7c0.4-0.6,0.8-1.2,1.2-1.9c0.2-0.4,0.3-0.7,0.4-1.1
		c0.1-0.4,0.3-0.9,0.4-1.3c0.4-0.8,0.6-1.2,0.9-1.9c-0.1,0,0.8-1.6,1.1-2.5c0.5-1,1.6-3.5,1.7-2.5c0,0.3,1.7,8,1.9,10.3
		c0.1,1.5-0.1,3.1-0.4,4.6c-0.1,0.6-0.4,2.8-0.5,3.4c-0.1,1.6-0.2,3.1-0.1,4.7c0.1,1.5,0.3,2.7,0.4,4.2c0.1,1.3,0.3,2.6,0.6,3.9
		c0.4,1.5,0.8,2.9,0.9,3.5s0.6,1.8,0.4,2.4c-0.3,1.6-0.3,3.1,0,4.7c0.3,1.7,0.9,2.9,1.3,4.5c0.1,0.3,1.1,3,0.6,4.1
		c-0.2,0.5-0.6,1-1,1.4c-0.1,0.1-0.2,0.2-0.2,0.4c0,0.1,0,0.4,0.2,0.5h0.2c0.6,0,1.2-0.1,1.8-0.3c0.1,0,0.3-0.1,0.4,0
		s0.2,0.1,0.3,0.1c0.6,0.2,1.3,0,1.7-0.6c0.3-0.8-0.6-1.5-0.4-2.3c0.1-0.1,0-0.3,0-0.5c0.1-0.3,0-0.6-0.1-0.8c-0.2-1-0.3-2-0.3-3
		c-0.1-0.8-0.1-1.7,0-2.5c0.1-0.5,0.2-1.1,0.2-1.6c0-1-0.1-2.1-0.3-3.1c-0.2-0.7-0.3-1.5-0.3-2.2c0-1.3,0.2-2.6,0.5-3.9
		c0.2-1.7,0.2-8.1,0.2-8.4c0-0.4,0-0.8,0.2-1.2c0.2-0.3,0.4-0.6,0.8-0.6"/>
	<path class="st1" d="M30.6,26.5c-0.7,0.1-1.4,0-2-0.2c-0.4-0.2-0.7-0.5-1-0.8c-1,0.2-2,0.4-2.9,0.7c-0.5,0.2-1,0.4-1.5,0.7
		c-0.4,0.2-0.7,0.5-0.9,0.9c-0.2,0.5-0.5,1-0.7,1.5s-0.4,1.1-0.6,1.6c-0.5,1.6-1.1,3.1-1.8,4.6c-0.4,0.8-0.8,1.6-1.3,2.3
		c-0.6,0.8-1.3,1.5-1.8,2.2c-0.4,0.5-1.1,1.6-1.4,2c-0.6,1-1.2,2.1-1.6,3.2c-0.2,0.4-1.2,2.3-1.3,2.7s0,0.5,0.6,0.7s0.7-0.1,1.1,0.3
		c0.2-0.1,0.4-0.6,0.6-0.8s1.1-1.5,1.4-1.8s2.9-3.3,3.3-3.7c0.4-0.6,0.8-1.2,1.2-1.9c0.2-0.4,0.3-0.7,0.4-1.1
		c0.1-0.4,0.3-0.9,0.4-1.3c0.4-0.8,0.6-1.2,0.9-1.9c-0.1,0,0.8-1.6,1.1-2.5c0.5-1,1.6-3.5,1.7-2.5c0,0.3,1.7,8,1.9,10.3
		c0.1,1.5-0.1,3.1-0.4,4.6c-0.1,0.6-0.4,2.8-0.5,3.4c-0.1,1.6-0.2,3.1-0.1,4.7c0.1,1.5,0.3,2.7,0.4,4.2c0.1,1.3,0.3,2.6,0.6,3.9
		c0.4,1.5,0.8,2.9,0.9,3.5s0.6,1.8,0.4,2.4c-0.3,1.6-0.3,3.1,0,4.7c0.3,1.7,0.9,2.9,1.3,4.5c0.1,0.3,1.1,3,0.6,4.1
		c-0.2,0.5-0.6,1-1,1.4c-0.1,0.1-0.2,0.2-0.2,0.4c0,0.1,0,0.4,0.2,0.5h0.2c0.6,0,1.2-0.1,1.8-0.3c0.1,0,0.3-0.1,0.4,0
		s0.2,0.1,0.3,0.1c0.6,0.2,1.3,0,1.7-0.6c0.3-0.8-0.6-1.5-0.4-2.3c0.1-0.1,0-0.3,0-0.5c0.1-0.3,0-0.6-0.1-0.8c-0.2-1-0.3-2-0.3-3
		c-0.1-0.8-0.1-1.7,0-2.5c0.1-0.5,0.2-1.1,0.2-1.6c0-1-0.1-2.1-0.3-3.1c-0.2-0.7-0.3-1.5-0.3-2.2c0-1.3,0.2-2.6,0.5-3.9
		c0.2-1.7,0.2-8.1,0.2-8.4c0-0.4,0-0.8,0.2-1.2c0.2-0.3,0.4-0.6,0.8-0.6"/>
	<path class="st1" d="M30.3,26.5c0.7-0.1,1.3-0.3,1.9-0.6c0.4-0.2,0.7-0.6,0.8-1c1-0.1,2,0,3,0.1c0.5,0.1,1.1,0.2,1.6,0.3
		c0.4,0.1,0.8,0.4,1.1,0.7c0.3,0.5,0.6,0.9,1,1.3c0.3,0.5,0.6,1,0.9,1.5c0.6,1,2.1,3.3,2.7,4.1c0.5,0.7,1.1,1.4,1.7,2
		c0.7,0.6,1.5,1.2,2.3,1.7c0.5,0.4,1.4,1.3,1.8,1.7c0.5,0.6,2,2.3,2.3,2.7s1.6,2,1.9,2.4s0.1,0.5-0.5,0.8s-0.7,0.1-1,0.5
		c-0.2-0.1-0.5-0.5-0.7-0.6c-0.4-0.3-1.4-1.2-1.8-1.5l-4-2.9c-0.6-0.5-1.1-1-1.6-1.6c-0.3-0.4-0.5-0.7-0.7-1s-0.5-0.8-0.7-1.2
		c-0.6-0.5-1.1-1-1.5-1.6c0.1,0-1.1-1.4-1.7-2.2c-0.6-0.8-2.3-3.1-2.2-2c0,0.3,0.1,8.2,0.4,10.5c0.3,1.5,0.8,3,1.4,4.4
		c0.5,1,0.9,2.1,1.2,3.2c0.5,1.5,0.9,3,1.2,4.5s0.3,2.7,0.6,4.2c0.2,1.3,0.3,2.6,0.2,3.9c0,1.6-0.1,3-0.1,3.6s-0.2,1.9,0.2,2.5
		c0.6,1.4,0.9,3,1,4.5c0,1.6-0.1,3.1-0.3,4.7c-0.1,0.3-0.4,3.1,0.3,4.1c0.3,0.5,0.8,0.8,1.3,1.1c0.1,0.1,0.3,0.3,0.3,0.4
		s0,0.4-0.1,0.5h-0.2c-0.6,0.2-1.2,0.2-1.8,0.1c-0.1,0-0.3-0.1-0.4,0s-0.2,0.1-0.3,0.1c-0.6,0.4-1.3,0.3-1.8-0.2
		c-0.5-0.7,0.3-1.6-0.2-2.4c-0.1-0.1,0-0.3-0.1-0.5c-0.1-0.3-0.1-0.5-0.1-0.8c0-1-0.1-2-0.3-3c-0.1-0.8-0.3-1.6-0.6-2.4
		c-0.2-0.5-0.4-1-0.5-1.5c-0.2-1-0.3-2.1-0.3-3.1c0-0.8-0.1-1.5-0.2-2.3c-0.3-1.3-0.8-2.5-1.4-3.7c-0.6-1.7-2-8-2-8.3
		c-0.1-0.4-0.3-0.8-0.5-1.1c-0.2-0.3-0.5-0.5-0.9-0.4"/>
	<path class="st4" d="M25.4,48.7c0.1-0.8,0.2-1.7,0.4-2.5c0.1-0.2,12.5-1.7,13.7-1.5c0.2,0,0.6,1.4,0.9,2.3s-5.3,6.1-5.9,6.7
		c-0.4,0.2-0.8,0.3-1.2,0.3c-0.2,0-0.5-0.1-0.7-0.2C31.3,52.8,25.3,48.9,25.4,48.7z"/>
	<circle class="st5" cx="28" cy="32.4" r="0.2"/>
	<circle class="st5" cx="35.6" cy="31.5" r="0.2"/>
	<path class="st6" d="M37.6,14.8c0.2,0.1,0.3,0.2,0.4,0.3c0.2,0.2,0.2,0.4,0.3,0.6c0.3,0.8,0.2,1.8-0.3,2.5
		c-0.2,0.4-0.6,0.8-1.1,0.8c-0.2,0-0.4,0-0.6-0.1c-0.2-0.1-0.2-0.4-0.2-0.6C36,17.6,36,16.9,36,16.2C36.1,15.4,36.6,14.4,37.6,14.8z
		"/>
	<path class="st6" d="M21.3,16.6c-0.2,0.1-0.3,0.2-0.3,0.3c-0.2,0.2-0.1,0.4-0.2,0.6c-0.1,0.9,0.2,1.7,0.8,2.4
		c0.3,0.4,0.8,0.6,1.3,0.6c0.2,0,0.4,0,0.5-0.3c0.1-0.2,0.1-0.4,0-0.6c-0.1-0.7-0.2-1.3-0.3-2C22.8,16.8,22.1,16,21.3,16.6z"/>
	<path class="st1" d="M22.6,11.8c-0.6,1-0.5,3.3-0.3,4.4c0.2,1.5,0.6,3,1,4.4c0.9,2.4,4.6,3.6,4.9,3.7c1.4,0.5,2.9,0.2,4.1-0.6
		c1.9-1.1,3.4-2.9,4-5c0.3-1.2,0.3-2.5,0.1-3.7c-0.2-1.4-0.4-2.8-0.8-4.2c-0.6-1.2-1.8-2-3.1-2.1c-1.9-0.2-3.9,0-5.8,0.4
		C25,9.4,23.5,10.3,22.6,11.8z"/>
	<path class="st2" d="M28.8,19.5c0.1-0.1,0.3,0.3,1.1,0.2s0.8-0.5,1-0.4s0.2,0.7-0.7,0.9C29,20.3,28.6,19.7,28.8,19.5z"/>
	<path class="st23" d="M26,14.4c-0.5,0.1-0.9,0.2-1.3,0.3c-0.2,0-0.3,0.2-0.4,0.3c0-0.1-0.1-0.9,1.5-1.1c1.3-0.1,1.7,0.3,1.7,0.5
		S26.7,14.3,26,14.4z"/>
	<path class="st23" d="M32.5,13.7c0.4-0.1,0.9,0,1.3,0.1c0.2,0.1,0.3,0.1,0.5,0.2c0-0.1-0.1-0.9-1.7-0.7c-1.3,0.1-1.6,0.7-1.5,0.9
		C31.5,14,32,13.8,32.5,13.7z"/>
	<path class="st7" d="M21.7,15.4c-0.1-0.7-0.1-1.3-0.1-1.6c0-0.5,0.1-1.1,0.2-1.6V12c-0.2-0.1-0.4-0.1-0.5,0.1
		c-0.1,0.1-0.2,0.2-0.2,0.3c-0.2,0.3-0.6,0.5-1,0.4c-0.4,0-0.7-0.3-0.8-0.6c0-0.2-0.1-0.5-0.2-0.7c-0.8,0.3-1.7-0.1-2-0.8
		c-0.2-0.8,0.3-1.5,1.1-1.7h0.1c-0.3-0.5-0.5-1-0.5-1.6C18,7,18.4,6.7,18.9,6.6c0.4,0,1.1,0.2,1.2,0.6c0.2-0.6,0.9-1,1.5-0.8
		c0.1,0,0.2,0.1,0.3,0.1c0.5,0.3,0.9,0.9,0.4,1.4c0.4-0.1,0.5-0.2,0.8-0.1s0.5,0.2,0.5,0.5c0.2,0.6-0.7,1-0.6,1.4
		c0.3,0.5,0.6-0.3,1-0.4c1.2-0.8,2.5-1.4,3.9-1.7s2.8-0.3,4.2-0.1c0.7,0.1,1.3,0.4,1.9,0.7c0.1,0,0.3-0.1,0.3-0.2V7.9
		c0.1-0.3-0.3-0.7-0.3-1c-0.2-0.7,0.5-1.4,1.6-1c-0.4-0.5-0.3-1.1,0.2-1.5c0.2-0.1,0.4-0.2,0.6-0.2c0.7-0.3,1.5,0.1,1.7,0.8
		c0,0.1,0,0.1,0.1,0.2c0,0.2-0.2,0.3,0,0.4s0.4-0.1,0.5-0.3c0.5-0.1,1,0.1,1.4,0.5c0.4,0.4,0.5,0.9,0.4,1.4c-0.2,0.6-0.7,0.6-1,0.7
		l0.4,0.3c0.3,0.5,0.3,1.1-0.1,1.6c-0.4,0.5-1.5,0.6-1.8,0.1c-0.1-0.1-0.3,0-0.4,0.1c-0.1,0.1-0.2,0.2-0.2,0.3
		c-0.2,0.1-0.3-0.3-0.5-0.4s-0.5,0.2-0.5,0.3c0.6,0.3,0.5,1.3,0.7,2c0,0.8,0,1.5,0,2.3c-0.1,0.4-0.2,1.8-0.6,1.7
		c-0.1-1.2-0.4-2.4-0.8-3.6c-0.2-0.7-0.6-1.3-1.1-1.8c-0.5-0.4-1.1-0.6-1.7-0.7c-2.2-0.3-4.4-0.2-6.5,0.5c-0.8,0.2-1.6,0.5-2.3,0.9
		l-0.5,0.4c-0.2,0.2-0.6,0.5-0.9,1c-0.4,0.7-0.4,1.4-0.4,1.7c0,0.5,0.1,1.1,0.1,1.6c0,0.6,0.1,1.2,0.1,1.8c-0.1-0.3-0.3-0.7-0.5-1.2
		C21.9,16.2,21.8,15.9,21.7,15.4z"/>
	<path class="st24" d="M21.3,9.7c0.3-0.8,1.2-1.2,2-0.9c0.1,0,0.2,0.1,0.3,0.1c0,0.2,0.1,0.4,0.3,0.5c0.2,0-0.8,0.6-1.2,1.3
		c-0.2,0.4-0.4,0.8-0.5,1.2c0,0-0.3-0.1-0.5-0.2c-0.1,0-0.3-0.1-0.4-0.2C20.9,11,20.9,10.3,21.3,9.7z"/>
	<path class="st24" d="M36.7,7.8c-0.5-0.8-1.4-1-2.2-0.5c-0.1,0.1-0.2,0.1-0.3,0.2c0,0.2-0.2,0.3-0.4,0.5c-0.2,0,1.1,0.6,1.6,1.2
		c0.3,0.3,0.6,0.7,0.8,1.1c0.2-0.1,0.4-0.3,0.6-0.4C37.4,9.3,37.3,8.3,36.7,7.8z"/>
	<path class="st8" d="M24.4,17.4c-0.1-0.7,0.9-1.3,1.8-1.4c0.7-0.1,1.8,0.3,1.9,1c0.1,0.7-0.5,1.3-1.5,1.4S24.5,18.1,24.4,17.4z"/>
	<ellipse transform="matrix(0.5666 -0.824 0.824 0.5666 -2.7575 29.1545)" class="st10" cx="26.3" cy="17.2" rx="1.1" ry="1"/>
	<circle class="st11" cx="25.8" cy="17.1" r="0.4"/>
	<path class="st9" d="M26.3,15.6c0.8-0.1,1.6,0.3,1.9,1.1c0.3,0.9-0.3-1-2-0.8c-1,0.1-1.7,0.8-1.8,1.8
		C24.1,16.1,25.4,15.7,26.3,15.6z"/>
	<path class="st8" d="M31.1,16.7C31,16,32,15.4,32.9,15.3c0.7-0.1,1.8,0.3,1.9,1c0.1,0.7-0.5,1.3-1.5,1.4S31.2,17.4,31.1,16.7z"/>
	<ellipse transform="matrix(0.5666 -0.824 0.824 0.5666 0.8432 34.3403)" class="st10" cx="33.1" cy="16.4" rx="1.1" ry="1"/>
	<circle class="st11" cx="32.5" cy="16.4" r="0.4"/>
	<path class="st9" d="M33,14.8c0.8-0.1,1.6,0.3,1.9,1.1c0.3,0.9-0.3-1-2-0.8c-1,0.1-1.7,0.8-1.8,1.8C30.8,15.3,32.1,14.9,33,14.8z"
		/>
	<path class="st25" d="M27.5,46.8c0.5-1.3,1.1-2.6,1.6-4L27.7,43c-4,7.9-8.8,15.5-12.9,23.3c1.1,0.1,2.1,0.1,3.2,0
		c1-0.2,1.9,0.1,2.7,0.7c1.3-3.4,2.6-6.8,3.8-10.2S26.2,50.1,27.5,46.8z"/>
	<path class="st25" d="M27,59.4c-0.1-1.7,0.3-3.6,0.1-5.3c-0.8,4.4-1,8.9-2.2,13.2c0.5-0.3,1-0.6,1.6-0.8c0.1-0.7,0.1-1.4,0.2-2.1
		C26.8,62.7,27,61,27,59.4z"/>
	<path class="st26" d="M26.7,43.1L12.8,65.9c0.6,0.3,1.3,0.4,2,0.4c4.1-7.9,8.9-15.5,12.9-23.3L26.7,43.1z"/>
	<path class="st25" d="M29.6,51.7c-0.1-2.1,0-4.2,0.5-6.3c-1.2,1.6-1.3,4.4-1.7,6.3c-0.6,2.4-0.7,4.9-1.1,7.4
		c-0.3,2.3-0.2,4.7-0.4,7.1v0.4c0.4,0,0.8,0.1,1.2,0.3c0.4,0.2,0.9,0.4,1.4,0.5c-0.2-2.5,0.1-5.2,0-7.6
		C29.4,57.1,29.4,54.4,29.6,51.7z"/>
	<path class="st26" d="M42,51.3c0-0.3-0.2-0.5-0.4-0.5c0,0,0,0-0.1,0C41.6,51,41.8,51.2,42,51.3C42,51.4,42,51.4,42,51.3z"/>
	<path class="st26" d="M36.8,42l-1.5,0.2c0.8,1,1.5,2,2.3,3.1C37.7,44.1,37.4,43,36.8,42z"/>
	<path class="st26" d="M37.2,42.2c0.5,1,0.8,2.2,0.6,3.3c1.2,1.7,2.4,3.4,3.6,5.2c0.4,0,0.7,0.1,0.8,0.5c0,0.2,0,0.3-0.1,0.5
		c1,1.3,2,2.7,3,3.9c1.8,2.2,3.7,4.2,5.8,6.1c0.4,0.5,0.8,0.9,1.3,1.3c0.7-0.5,1.4-1.1,2-1.7L37.2,42.2z"/>
	<path class="st26" d="M34.4,48.7L34.4,48.7c-0.1-0.3-0.2-0.6-0.4-0.8C34.1,48.2,34.2,48.5,34.4,48.7z"/>
	<path class="st26" d="M32.9,55.4c0-0.2,0-0.4-0.1-0.6C32.8,55,32.8,55.2,32.9,55.4z"/>
	<path class="st25" d="M40.5,51.9c0.5,0.1,1.2,0.1,1.4-0.4c-0.2-0.2-0.3-0.4-0.4-0.6h-0.1c-0.3,0-0.6,0.1-0.8,0.3
		c-0.2,0.1-0.3,0.3-0.5,0.5c0,0.1,0,0.1,0.1,0.2H40.5z"/>
	<path class="st25" d="M38.6,48.6c0.4,1,0.9,1.9,1.4,2.8c0.3-0.3,0.7-0.6,1.1-0.7h0.2c-1.2-1.7-2.4-3.5-3.6-5.2
		c0,0.3-0.1,0.5-0.2,0.8C37.9,47,38.3,47.8,38.6,48.6z"/>
	<path class="st25" d="M45.1,55.6l-3-3.9c-0.1,0.2-0.3,0.3-0.5,0.4c-0.4,0.1-0.8,0.1-1.2,0c0.7,1.2,1.3,2.3,1.9,3.4
		c1.5,2.7,2.7,5.7,4.3,8.3c0.2,0.3,0.3,0.5,0.5,0.8h0.5c1.6,0.1,3.2-0.4,4.5-1.5c-0.4-0.5-0.8-0.9-1.3-1.3
		C48.8,59.8,46.9,57.8,45.1,55.6z"/>
	<path class="st25" d="M37.2,45.9c0,0.1,0.1,0.1,0.1,0.2c0.1-0.3,0.1-0.5,0.2-0.8l0,0c-0.7-1-1.5-2.1-2.3-3.1h-0.3
		C34.9,43.4,36.7,45,37.2,45.9z"/>
	<path class="st26" d="M32.3,47.4c-0.5,0.1-0.9,0.3-1.3,0.6c-0.2,0.4,0,0.7,0.4,0.9s0.9,0.3,1.3,0.2c0.5,0,1-0.2,1.5-0.4
		c-0.1-0.3-0.3-0.5-0.4-0.8c0.2,0.2,0.3,0.5,0.4,0.8c0.1,0,0.1-0.1,0.2-0.1C34.1,47.7,33.2,47.2,32.3,47.4z"/>
	<path class="st26" d="M34.3,50.7c-0.6,0.1-1.2,0.3-1.8,0.6c-0.4,0.3-1,0.7-0.8,1.2s0.9,0.5,1.4,0.3c0.4-0.2,0.8-0.6,1-1
		s0.4-0.8,0.6-1.2C34.6,50.6,34.4,50.6,34.3,50.7z"/>
	<path class="st26" d="M34.6,48.9c-0.1,0-0.1,0-0.2,0.1c0.1,0.2,0.2,0.5,0.3,0.7C34.8,49.4,34.7,49.1,34.6,48.9z"/>
	<path class="st26" d="M38,56.6c0,0.1,0,0.2-0.1,0.3H38c0.3,0,0.5,0.1,0.6,0.4c0,0.1,0,0.2-0.1,0.3l0,0c0.1-0.1,0.2-0.1,0.3-0.2
		c0.5-0.2,0.8-0.6,1-1.1s0.3-1,0.3-1.5c0-0.4-0.3-0.8-0.6-1c-0.1,0-0.1-0.1-0.2-0.1c0,0.2,0,0.3-0.1,0.5c-0.1,0.4-0.3,0.8-0.7,1
		c-0.3,0.2-0.8,0.2-1.1-0.1c-0.2-0.4-0.1-0.8,0.2-1.1c0.4-0.4,0.9-0.6,1.5-0.5c0-0.2,0.1-0.3,0.2-0.5c0.1-0.4,0.3-0.7,0.5-1
		c-0.6-0.2-1.1-0.4-1.7-0.6c-0.6-0.2-1.2-0.4-1.8-0.6c-0.3-0.1-0.7-0.1-1-0.1c0.8,1.9,1.6,3.8,2.3,5.7C37.8,56.3,37.9,56.4,38,56.6z
		"/>
	<path class="st26" d="M38.1,53.7c-0.2,0.1-0.4,0.3-0.5,0.6c-0.1,0.2-0.2,0.6,0,0.7c0.5,0.3,1.1-0.2,1.2-0.5s0.1-0.5,0.2-0.7v-0.1
		C38.7,53.5,38.4,53.5,38.1,53.7z"/>
	<path class="st26" d="M35.6,48.5c-0.3,0.1-0.5,0.2-0.8,0.3c0.1,0.4,0.2,0.9,0.1,1.3c0.1,0.1,0.1,0.2,0.2,0.4c0.6,0,1.1,0.1,1.7,0.2
		c0.6,0.2,1.2,0.5,1.8,0.7c0.4,0.2,0.9,0.3,1.3,0.4c0.1-0.1,0.1-0.2,0.2-0.3c-0.5-0.9-1-1.9-1.4-2.8c-0.3-0.8-0.7-1.6-1.1-2.3
		C37.2,47.3,36.5,48,35.6,48.5z"/>
	<path class="st26" d="M40.2,51.6c0,0.1-0.1,0.1-0.1,0.2c0.1,0,0.2,0,0.3,0.1C40.2,51.8,40.2,51.7,40.2,51.6z"/>
	<path class="st26" d="M42.4,55.4c-0.6-1.1-1.3-2.2-1.9-3.4c-0.2,0-0.3-0.1-0.5-0.1l0,0c-0.1,0.2-0.2,0.3-0.3,0.5s-0.3,0.6-0.4,0.9
		v0.1c0.2,0.1,0.3,0.1,0.4,0.2c0.8,0.6,0.6,1.8,0.3,2.6c-0.2,0.5-0.5,0.9-1,1.1c-0.2,0.1-0.5,0.3-0.7,0.4h-0.2
		c0.1,0.1,0.1,0.3,0.2,0.4l0,0c0.4,0,0.7,0.2,0.7,0.5l0,0c0.2,0,0.3,0.1,0.3,0.3c0,0.1,0,0.2-0.1,0.3c0.1,0.1,0.2,0.2,0.2,0.3l0,0
		c0,0.2-0.2,0.4-0.4,0.5c0,0.1,0.1,0.1,0.1,0.2c0.4,0,0.9-0.1,1.3-0.2c0.6-0.2,1.3-0.2,1.9-0.1l0,0l0.2-0.2h-0.1
		c-0.2,0-0.4-0.2-0.3-0.4c0-0.1,0.1-0.2,0.2-0.2c-0.1-0.1-0.1-0.2-0.1-0.3c0-0.2,0.2-0.3,0.4-0.3c0,0,0,0,0.1,0h0.1
		c0-0.1,0.2-0.2,0.3-0.2s0.3,0.2,0.2,0.3l0,0c0.1-0.1,0.2-0.1,0.4-0.1s0.4,0.2,0.3,0.4V59c0.1,0.1,0.2,0.2,0.2,0.4
		c-0.1,0.2-0.3,0.4-0.6,0.4h-0.2c0.1,0.3-0.1,0.4-0.3,0.4s-0.2-0.1-0.3-0.2l-0.3,0.3l0,0c0.1,0.1,0.2,0.2,0.2,0.4
		c0.1,0.5-0.7,1.2-0.8,1.6v0.3H42c0.2,0,0.4,0.1,0.4,0.3V63c0.1,0,0.2,0.1,0.2,0.2s-0.1,0.2-0.2,0.2l0,0c0.1,0,0.2,0.1,0.2,0.2
		s-0.1,0.3-0.2,0.3c0,0,0,0-0.1,0l0,0c0.3,0.5-0.8,0.7-0.8,0.4c0-0.1,0.1-0.2,0.2-0.2c-0.1-0.1-0.2-0.2-0.2-0.3v-0.1
		c-0.1,0-0.2-0.1-0.2-0.2s0.1-0.2,0.2-0.3V63c0-0.1,0-0.2,0.1-0.2c-0.1-0.1-0.2-0.3-0.2-0.5v-0.5h-0.7c-0.2,0-0.5-0.1-0.8-0.1h-0.1
		c0.5,1.3,1.1,2.7,1.5,4.1c2-0.4,4.2-1.3,5.9-1.3c-0.2-0.3-0.3-0.5-0.5-0.8C45,61.1,43.9,58.1,42.4,55.4z"/>
	<path class="st26" d="M38.5,64.8h-0.2c-0.3,0-0.7,0.1-0.5-0.2c0-0.1,0.1-0.1,0.2-0.2c-0.1-0.1-0.1-0.1-0.1-0.2v-0.1
		c-0.1,0-0.2-0.1-0.2-0.2s0.1-0.2,0.2-0.3c-0.1,0-0.1-0.1-0.1-0.2s0.1-0.3,0.2-0.3c0,0,0,0,0.1,0l0,0c-0.1-0.3-0.1-0.5-0.2-0.8
		c-0.1-0.1-0.1-0.2-0.2-0.3s-0.2-0.1-0.3-0.1c-0.3-0.2-0.4-0.4-0.5-0.7c-0.2,0-0.5-0.1-0.6-0.3h-0.1c-0.4,0-0.7-0.2-0.7-0.5V60
		c-0.1-0.1-0.2-0.1-0.2-0.3c0-0.2,0.1-0.4,0.3-0.4c0,0,0,0,0.1,0h0.1c0-0.2,0-0.3,0.2-0.4h-0.5c-0.2,0-0.7,0-0.7-0.2
		s0.3-0.4,0.5-0.5c0.3-0.1,0.5-0.2,0.8-0.3v-0.1H36c-0.2,0-0.3-0.1-0.4-0.2c0-0.1,0-0.2,0.1-0.2c-0.1,0-0.2-0.1-0.2-0.2
		c0-0.3,0.2-0.6,0.6-0.6l0,0h0.1c0-0.1,0.1-0.2,0.2-0.3c-0.2-0.7-0.3-1.3-0.5-2c-0.4-1.1-0.6-2.4-0.9-3.6h-0.1l-0.3,0.9
		c-0.4,0.7-1,1.6-2,1.6c-0.4,0-0.9-0.1-1-0.5s0-0.8,0.3-1.1c0.8-0.7,1.8-1.1,2.9-1.1v-0.6L34.5,49c-0.1,0-0.2,0.1-0.3,0.1
		c-0.5,0.3-1.1,0.4-1.7,0.3c-0.6-0.1-1.7-0.3-1.7-1s1.2-1.2,2-1.1c0.9,0,1.7,0.6,2,1.4c0.8-0.3,1.5-0.7,2-1.3
		c0.3-0.4,0.5-0.8,0.6-1.2c0-0.1-0.1-0.1-0.1-0.2c-0.6-0.9-2.3-2.5-2.3-3.7l-5.8,0.6c-0.5,1.3-1.1,2.7-1.6,4c-1.3,3.2-1.8,6.6-3,10
		s-2.5,6.8-3.8,10.2c0.6,0.5,1.5,0.8,2.3,0.7c0.6,0,1.3-0.2,1.8-0.5c1.2-4.3,1.4-8.8,2.2-13.2c0.1,1.8,0,3.5-0.1,5.3
		c0,1.6-0.2,3.2-0.3,5c-0.1,0.7-0.1,1.4-0.2,2.1c0.1,0,0.3,0,0.4-0.1V66c0.3-2.3,0.2-4.7,0.4-7.1c0.4-2.5,0.5-5,1.1-7.4
		c0.5-1.9,0.6-4.7,1.7-6.3c-0.5,2.1-0.6,4.2-0.5,6.3c-0.2,2.7-0.3,5.4-0.2,8.1c0.1,2.4-0.2,5,0,7.6c0.8,0.2,1.7,0.2,2.5,0.2
		c0.3-1.2,0.4-2.3,0.5-3.5c0.1-2.8,0.7-5.8,0.4-8.6c0-0.2-0.1-0.4-0.1-0.6c0,0.2,0.1,0.4,0.1,0.6c0.3,2.3,1.2,4.5,1.4,6.9
		c0.2,1.7,0.5,3.4,0.8,5.1c1.4-0.4,0.6-2.1,3-1.5c0.2,0,0.4,0.1,0.6,0.1v-0.1C38.6,65.6,38.5,65.2,38.5,64.8z"/>
	<path class="st25" d="M32.9,55.4c0.3,2.8-0.3,5.7-0.4,8.6c-0.1,1.2-0.2,2.3-0.5,3.5c0.8-0.1,1.7-0.1,2.5,0c0.2,0,0.5,0,0.7-0.1
		c-0.3-1.7-0.6-3.4-0.8-5.1C34.1,60,33.2,57.7,32.9,55.4z"/>
	<path class="st25" d="M37.2,56.4c0.1,0,0.1-0.1,0.2-0.1h0.1c-0.7-1.9-1.5-3.8-2.3-5.7H35c0.3,1.2,0.5,2.5,0.9,3.6
		c0.2,0.7,0.4,1.3,0.5,2c0.1-0.1,0.2-0.1,0.3-0.1C36.9,56.1,37.2,56.2,37.2,56.4z"/>
	<path class="st25" d="M38.8,60.3c0.1,0,0.1,0.1,0.2,0.1c0.1,0,0.2,0,0.3,0.1c0-0.1-0.1-0.1-0.1-0.2H38.8z"/>
	<path class="st25" d="M34.4,48.9L34.4,48.9l0.3,0.9v-0.2C34.7,49.3,34.6,49.1,34.4,48.9z"/>
	<path class="st25" d="M38,62.5c0-0.1-0.1-0.1-0.1-0.2c0.1,0.3,0.1,0.5,0.2,0.8h0.1C38.1,62.9,38.1,62.7,38,62.5z"/>
	<path class="st25" d="M39.1,62c-0.2,0.1-0.5,0.1-0.7,0.1c0.1,0.2,0.2,0.4,0.2,0.6v0.4c0.1,0,0.3,0.1,0.3,0.2c0,0,0,0,0,0.1v0.1
		c0.1,0,0.2,0.1,0.2,0.2s-0.1,0.2-0.2,0.2l0,0c0.1,0,0.2,0.1,0.2,0.2s-0.1,0.3-0.2,0.3c0,0,0,0-0.1,0h-0.1v0.1
		c0.1,0.2,0,0.3-0.1,0.4c0.1,0.4,0.1,0.8,0.2,1.2v0.1c0.9,0.1,1.8,0,2.6-0.2c-0.4-1.4-0.9-2.8-1.5-4.1C39.6,61.8,39.3,61.9,39.1,62z
		"/>
	<path class="st25" d="M35,50.4h0.2c-0.1-0.1-0.1-0.2-0.2-0.4V50.4z"/>
	<path class="st25" d="M38.2,58.2L38.2,58.2C38.1,58.2,38.1,58.2,38.2,58.2v0.2C38.3,58.4,38.3,58.3,38.2,58.2L38.2,58.2
		c0-0.1,0-0.3-0.1-0.4h-0.2C38.1,57.9,38.1,58.1,38.2,58.2z"/>
	<path class="st27" d="M36.4,58.9C36.3,58.9,36.3,58.9,36.4,58.9c-0.1,0.2-0.1,0.2,0,0.2C36.5,59.1,36.5,59.1,36.4,58.9
		C36.4,59,36.4,59,36.4,58.9z"/>
	<path class="st27" d="M36.1,58.9C36,58.9,36,58.9,36.1,58.9c-0.1,0.2-0.1,0.2,0,0.2C36.2,59.1,36.2,59.1,36.1,58.9
		C36.2,58.9,36.2,58.9,36.1,58.9z"/>
	<path class="st27" d="M36.5,58.2c0-0.1-0.1-0.1-0.2-0.1c-0.1,0-0.1,0-0.1,0.1S36.3,58.3,36.5,58.2C36.5,58.3,36.5,58.3,36.5,58.2z"
		/>
	<path class="st27" d="M37.1,58.7C37,58.7,37,58.7,37.1,58.7c-0.1,0.2-0.1,0.2,0,0.2C37.2,58.9,37.2,58.9,37.1,58.7L37.1,58.7z"/>
	<path class="st27" d="M36.7,59C36.7,58.9,36.7,58.9,36.7,59c-0.2-0.1-0.2-0.1-0.2,0S36.5,59.1,36.7,59C36.6,59,36.6,59,36.7,59z"/>
	<path class="st27" d="M37.4,58.7C37.3,58.7,37.3,58.7,37.4,58.7c-0.1,0.2-0.1,0.2,0,0.2S37.5,58.9,37.4,58.7
		C37.5,58.7,37.5,58.7,37.4,58.7z"/>
	<path class="st27" d="M36.8,59C36.9,59,36.9,59,36.8,59c0.1-0.2,0.1-0.2,0-0.2C36.7,58.8,36.7,58.8,36.8,59L36.8,59z"/>
	<path class="st27" d="M37.8,58.5L37.8,58.5c-0.1,0.1-0.1,0.1,0,0.2l0,0C37.9,58.7,37.9,58.7,37.8,58.5
		C37.9,58.5,37.9,58.5,37.8,58.5z"/>
	<path class="st27" d="M37.6,58.6C37.5,58.6,37.5,58.6,37.6,58.6c-0.1,0.2-0.1,0.2,0,0.2C37.7,58.8,37.7,58.8,37.6,58.6
		C37.7,58.6,37.7,58.6,37.6,58.6z"/>
	<path class="st27" d="M38,58.3C38,58.4,37.9,58.4,38,58.3c-0.1,0.1-0.1,0.1,0,0.2l0,0C38.1,58.5,38.1,58.5,38,58.3
		C38.1,58.3,38.1,58.3,38,58.3z"/>
	<path class="st28" d="M36.8,60.5l0.5-0.2c-0.3-1.3-0.6-2.7-0.9-4.1c-0.1,0.1-0.2,0.2-0.2,0.3h-0.1c-0.3,0-0.6,0.2-0.6,0.6l0,0
		c0,0.1,0.1,0.2,0.1,0.3s-0.1,0.1-0.1,0.2s0.2,0.3,0.4,0.2H36v0.1c-0.2,0.2-0.5,0.2-0.8,0.3s-0.5,0.3-0.5,0.5s0.5,0.2,0.7,0.2h0.5
		c-0.1,0.1-0.2,0.2-0.2,0.4h-0.1c-0.2,0-0.4,0.2-0.4,0.4c0,0.1,0.1,0.2,0.2,0.3v0.4c0,0.3,0.4,0.5,0.7,0.5h0.1
		c0.1,0.2,0.4,0.3,0.6,0.3C36.9,61,36.9,60.7,36.8,60.5z M36.2,59L36.2,59C36,59.1,36,59.1,36,59H36.2C36.2,58.9,36.2,58.9,36.2,59z
		 M36.8,58.9L36.8,58.9c0.2-0.1,0.2-0.1,0.2,0H36.8C36.8,59,36.7,58.9,36.8,58.9z M36.4,59L36.4,59c-0.2,0.1-0.2,0.1-0.2,0H36.4
		C36.4,58.9,36.4,58.9,36.4,59L36.4,59z M36.2,58.2C36.2,58.1,36.2,58.1,36.2,58.2c0.2-0.1,0.3-0.1,0.3,0s0,0.1-0.1,0.1
		C36.3,58.3,36.2,58.3,36.2,58.2z M36.6,59C36.5,59,36.5,59,36.6,59v-0.2C36.7,58.8,36.7,58.8,36.6,59C36.7,59,36.7,59,36.6,59
		L36.6,59z"/>
	<path class="st28" d="M39.2,60.2c0.2-0.1,0.4-0.3,0.4-0.5l0,0c0-0.1-0.1-0.3-0.2-0.3c0.1-0.1,0.1-0.2,0.1-0.3
		c0-0.2-0.1-0.3-0.3-0.3l0,0c0-0.3-0.4-0.5-0.7-0.5l0,0c0.1,0.2,0.1,0.3,0.2,0.5C38.7,59.3,38.9,59.8,39.2,60.2z"/>
	<path class="st28" d="M38.5,57.5c0.1-0.1,0.1-0.2,0.1-0.3c0-0.2-0.3-0.4-0.6-0.4h-0.1c0.1-0.1,0.1-0.2,0.1-0.3
		c0-0.2-0.2-0.3-0.4-0.3c0.2,0.4,0.4,0.9,0.5,1.4h0.1C38.3,57.6,38.4,57.6,38.5,57.5z"/>
	<path class="st28" d="M38.3,58.3L38.3,58.3c-0.1,0.1-0.2,0.1-0.2,0s0-0.1,0.1-0.1L38.3,58.3L38.3,58.3c-0.1-0.1-0.2-0.3-0.3-0.5
		c-0.1,0-0.2,0-0.3,0.1c-0.1,0-0.1,0-0.1-0.1c0.1-0.1,0.3-0.1,0.4-0.1c-0.2-0.4-0.4-0.9-0.5-1.4h-0.1c-0.1,0-0.2,0-0.2,0.1
		c-0.1-0.2-0.3-0.3-0.5-0.3c-0.1,0-0.2,0.1-0.3,0.1c0.3,1.4,0.6,2.7,0.9,4.1l1.1-0.4c0.1,0,0.1,0.1,0.2,0.2s0.1,0.1,0.2,0.1h0.4
		l-0.6-1.5C38.5,58.6,38.4,58.4,38.3,58.3L38.3,58.3z M37.2,58.8L37.2,58.8c-0.2,0.1-0.2,0.1-0.2,0H37.2L37.2,58.8z M37.4,58.8
		L37.4,58.8c-0.2,0.1-0.2,0.1-0.2,0H37.4C37.4,58.7,37.5,58.7,37.4,58.8z M37.7,58.7L37.7,58.7c-0.2,0.1-0.2,0.1-0.2,0H37.7
		C37.7,58.6,37.7,58.6,37.7,58.7z M37.8,58.6C37.7,58.6,37.7,58.6,37.8,58.6c-0.1-0.2-0.1-0.2,0-0.2C37.9,58.5,37.9,58.5,37.8,58.6z
		 M38,58.5C37.9,58.5,37.9,58.5,38,58.5c-0.1-0.2-0.1-0.2,0-0.2C38.1,58.3,38.1,58.4,38,58.5z"/>
	<path class="st28" d="M39.9,61.7c0.3-0.1,0.5,0.1,0.8,0.1h0.7c0-0.2,0.1-0.5,0.2-0.7l0.6-1c0.1,0,0.2,0,0.3,0.1l0,0
		c-0.6-0.2-1.3-0.2-1.9,0.1c-0.4,0.2-0.9,0.2-1.3,0.2C39.4,60.9,39.6,61.3,39.9,61.7z"/>
	<path class="st28" d="M37.6,61.6L37.6,61.6c-0.1-0.4-0.2-0.8-0.3-1.3v-0.1l-0.5,0.2c0,0.2,0,0.5,0.1,0.7c0.1,0.3,0.2,0.5,0.5,0.7
		c0.1,0,0.2,0.1,0.3,0.1C37.6,61.8,37.6,61.7,37.6,61.6z"/>
	<path class="st28" d="M38.8,60.3c-0.1,0-0.1-0.1-0.2-0.1S38.5,60,38.4,60l-1.1,0.4v0.1c0.1,0.4,0.2,0.9,0.3,1.3l0.5,0.1
		c0.1,0.1,0.1,0.2,0.2,0.3c0.2,0,0.5,0,0.7-0.1l0.6-0.3c-0.2-0.4-0.4-0.9-0.5-1.3c-0.1,0-0.2,0-0.3-0.1
		C38.9,60.3,38.8,60.3,38.8,60.3z"/>
	<path class="st28" d="M42.4,60.5l-0.1-0.2c0-0.1,0-0.1,0.1-0.1c-0.1,0-0.2-0.1-0.3-0.1l-0.6,1c-0.1,0.2-0.2,0.5-0.2,0.7v0.5
		c0.1,0.2,0.1,0.3,0.2,0.5c0.1,0,0.1-0.1,0.2-0.1s0.2,0,0.2,0.1l0.1-0.1c0-0.1-0.1-0.2,0-0.3c0.1-0.5,0.8-1.1,0.8-1.6
		c0-0.2-0.1-0.3-0.2-0.4l0,0C42.5,60.4,42.5,60.4,42.4,60.5z"/>
	<path class="st28" d="M42.3,60.3l0.1,0.2l0.2-0.2l0,0l0.3-0.3v-0.1c-0.1,0-0.1,0.1-0.2,0.1l-0.2,0.2l0,0
		C42.4,60.2,42.4,60.2,42.3,60.3z"/>
	<path class="st28" d="M42.8,59.9C42.9,59.9,42.9,60,42.8,59.9c0.1,0.2,0.2,0.2,0.3,0.3s0.3,0,0.4-0.2h0.2c0.3,0,0.6-0.1,0.6-0.4
		s0-0.3-0.2-0.4v-0.1c0-0.2-0.1-0.4-0.3-0.4c-0.1,0-0.3,0-0.4,0.1l0,0c0-0.1-0.1-0.3-0.2-0.3s-0.3,0.1-0.3,0.2h-0.1
		c-0.2,0-0.5,0.1-0.5,0.3c0,0.1,0,0.2,0.1,0.3l-0.2,0.2c0,0.2,0.1,0.4,0.3,0.4h0.1C42.7,60,42.7,60,42.8,59.9L42.8,59.9z"/>
	<path class="st28" d="M41.8,62.7c-0.1,0-0.2,0-0.2,0.1c-0.1,0.1-0.1,0.1-0.1,0.2c0,0.1,0,0.1,0.1,0.2c-0.1,0-0.2,0.1-0.2,0.3
		c0,0.1,0.1,0.2,0.2,0.2v0.1c0,0.1,0.1,0.2,0.2,0.3c0.1-0.1,0.2-0.2,0.4-0.2l0.2-0.1l0.1,0.1l0,0c0.2,0,0.3-0.1,0.3-0.3
		c0-0.1-0.1-0.2-0.2-0.2l0,0c0.1,0,0.2-0.1,0.2-0.2S42.7,63,42.6,63v-0.1c0-0.2-0.2-0.3-0.4-0.3h-0.1c-0.1,0-0.1,0-0.1,0.1
		C42,62.8,41.9,62.7,41.8,62.7z"/>
	<path class="st28" d="M38.4,64.4c0-0.2-0.1-0.4-0.1-0.6c-0.1,0-0.1,0-0.1-0.1v-0.4l0,0c0-0.1,0-0.2-0.1-0.2l0,0
		c-0.2,0-0.3,0.1-0.3,0.3c0,0.1,0,0.1,0.1,0.2c-0.1,0-0.2,0.1-0.2,0.3c0,0.1,0.1,0.2,0.2,0.2v0.1c0,0.1,0,0.1,0.1,0.2
		C38.1,64.3,38.3,64.3,38.4,64.4z"/>
	<path class="st28" d="M38.2,63.7c0.1,0.2,0.1,0.4,0.1,0.6l0,0l0.2-0.1l0,0h0.1c0.2,0,0.3-0.1,0.3-0.3c0-0.1-0.1-0.2-0.2-0.2l0,0
		c0.1,0,0.2-0.1,0.2-0.2s-0.1-0.2-0.2-0.2v-0.1c0-0.2-0.1-0.3-0.3-0.3v0.7C38.5,63.7,38.3,63.7,38.2,63.7z"/>
	<path class="st28" d="M38.1,63.1L38.1,63.1c-0.1,0.1,0,0.1,0,0.2V63.1z"/>
	<path class="st28" d="M37.6,61.6v0.3c0,0.1,0.1,0.2,0.2,0.3C37.8,62,37.7,61.8,37.6,61.6z"/>
	<path class="st28" d="M38.1,63.7L38.1,63.7c0.1,0,0-0.2,0-0.3l0,0V63.7z"/>
	<path class="st28" d="M37.7,61.6c0.1,0.2,0.1,0.4,0.2,0.6c0.1,0.1,0.1,0.1,0.1,0.2c0.1,0.2,0.1,0.4,0.1,0.6v0.2
		c0,0.1,0.1,0.3,0.1,0.4h0.4v-1.1c0-0.2-0.1-0.4-0.2-0.6c-0.1-0.1-0.1-0.2-0.2-0.3H37.7z"/>
	<path class="st28" d="M38,64.4c-0.1,0.1-0.2,0.1-0.2,0.2c-0.1,0.3,0.3,0.2,0.5,0.2h0.2c0-0.1-0.1-0.3-0.1-0.4
		C38.3,64.3,38.1,64.3,38,64.4z"/>
	<path class="st28" d="M38.4,64.4L38.4,64.4c0,0.1,0,0.3,0.1,0.4c0.2-0.1,0.2-0.2,0.1-0.4v-0.1L38.4,64.4z"/>
	<path class="st28" d="M42.1,63.9c-0.1,0-0.2,0.1-0.4,0.2l-0.2,0.2c0,0.3,1.2,0,0.8-0.4c0-0.1,0-0.1-0.1-0.1L42.1,63.9z"/>
	<path class="st29" d="M42,51.3L42,51.3c0,0.2,0,0.2,0.1,0.2c0.1-0.2,0-0.6-0.2-0.7c-0.1-0.1-0.3-0.1-0.4-0.1c0,0.1,0,0.1,0.1,0.1
		C41.8,50.9,42,51.1,42,51.3z"/>
	<path class="st29" d="M36.9,42c0.6,1,0.9,2.2,0.8,3.4c0,0.1,0.1,0.1,0.1,0.2c0.2-1.1-0.1-2.3-0.6-3.3C37.2,42.3,36.9,42,36.9,42z"
		/>
	<path class="st29" d="M41.8,50.9c0.3,0.1,0.3,0.4,0.2,0.7c0,0.1,0,0.1,0.1,0.1c0.1-0.1,0.1-0.3,0.1-0.5c-0.1-0.3-0.5-0.5-0.8-0.5
		l0.1,0.1C41.6,50.8,41.7,50.8,41.8,50.9z"/>
	<path class="st29" d="M37.5,45.2L37.5,45.2c0.2-1.1,0-2.3-0.7-3.3h-0.1C37.4,42.9,37.7,44,37.5,45.2z"/>
	<path class="st29" d="M40.5,51.9c-0.1,0-0.2,0-0.3-0.1c0,0.1,0,0.1,0.1,0.1C40.4,51.9,40.4,52,40.5,51.9c0.4,0.2,0.8,0.2,1.2,0
		c0.1-0.1,0.2-0.2,0.2-0.3c0-0.1,0-0.1-0.1-0.1C41.8,52,41,52,40.5,51.9z"/>
	<path class="st29" d="M37.7,45.4L37.7,45.4L37.7,45.4c-0.1,0.2-0.2,0.4-0.3,0.7l0.1,0.1C37.6,45.9,37.6,45.7,37.7,45.4z"/>
	<path class="st29" d="M40.6,51.2c0.2-0.2,0.5-0.3,0.8-0.3h0.1c0-0.1,0-0.1-0.1-0.1c-0.4,0-0.7,0.1-1,0.4l-0.3,0.3v0.1
		C40.3,51.4,40.5,51.3,40.6,51.2z"/>
	<path class="st29" d="M37.5,46.2L37.5,46.2c0.2-0.2,0.3-0.4,0.3-0.7c0-0.1-0.1-0.1-0.1-0.2C37.6,45.7,37.6,45.9,37.5,46.2z"/>
	<path class="st29" d="M41.2,50.7c-0.4,0.1-0.8,0.3-1.1,0.7v0.1l0.3-0.3c0.3-0.2,0.6-0.4,1-0.4l-0.1-0.1L41.2,50.7z"/>
	<path class="st29" d="M41.8,51.8c-0.4,0.2-0.9,0.2-1.3,0.1h-0.1c0,0.1,0,0.1,0.1,0.1c0.4,0.1,0.8,0.1,1.2,0
		c0.2-0.1,0.4-0.2,0.5-0.4c0-0.1,0-0.1-0.1-0.1C42,51.7,41.9,51.8,41.8,51.8z"/>
	<path class="st29" d="M37.6,53.9c-0.3,0.3-0.4,0.7-0.2,1.1c0.2,0.3,0.7,0.2,1.1,0.1c0.4-0.2,0.6-0.6,0.7-1c0-0.2,0.1-0.3,0.1-0.5
		h-0.1v0.1c0,0.4-0.2,0.9-0.5,1.2c-0.2,0.2-0.9,0.5-1.2,0.2C37.3,54.7,37.3,54.3,37.6,53.9c0.4-0.3,0.9-0.4,1.4-0.3v-0.1
		C38.5,53.3,37.9,53.5,37.6,53.9z"/>
	<path class="st29" d="M34.9,50.4L34.9,50.4C34.9,50.5,35,50.5,34.9,50.4C35,50.5,35,50.4,34.9,50.4z"/>
	<path class="st29" d="M34.9,50.4c0-0.1,0-0.2-0.1-0.2v0.3C34.8,50.5,34.9,50.4,34.9,50.4z"/>
	<path class="st29" d="M37.8,53.8c-0.3,0.3-0.5,0.9-0.2,1.1s0.9,0.1,1.2-0.2c0.3-0.3,0.5-0.8,0.5-1.2v-0.1h-0.1v0.1
		c0,0.2-0.1,0.5-0.2,0.7c-0.2,0.4-0.8,0.9-1.2,0.5c-0.2-0.2-0.1-0.5,0-0.7s0.3-0.4,0.5-0.6c0.3-0.2,0.7-0.2,1-0.1v-0.1
		C38.8,53.3,38.2,53.5,37.8,53.8z"/>
	<path class="st29" d="M34.1,51.8c-0.2,0.4-0.6,0.8-1,1c-0.5,0.2-1.2,0.1-1.4-0.3s0.4-1,0.8-1.2c0.6-0.3,1.2-0.5,1.8-0.6h0.4v-0.1
		c-0.7,0-1.5,0.2-2.1,0.6c-0.4,0.2-1,0.6-1,1.1s0.4,0.8,0.9,0.8c1,0,1.5-0.8,1.9-1.4c0.2-0.3,0.4-0.6,0.4-1h-0.1
		C34.6,51.1,34.4,51.5,34.1,51.8z"/>
	<path class="st29" d="M34.9,48.8L34.9,48.8L34.9,48.8L34.9,48.8L34.9,48.8z"/>
	<path class="st29" d="M34.7,50.6L34.7,50.6L34.7,50.6C34.7,50.5,34.7,50.5,34.7,50.6z"/>
	<path class="st29" d="M34.8,50.4L34.8,50.4C34.8,50.5,34.9,50.5,34.8,50.4C34.9,50.5,34.9,50.4,34.8,50.4L34.8,50.4z"/>
	<path class="st29" d="M34.6,48.8L34.6,48.8L34.6,48.8C34.6,48.6,34.6,48.6,34.6,48.8z"/>
	<path class="st29" d="M37.8,51.1c0.6,0.3,1.3,0.5,2,0.7c0-0.1,0-0.1,0.1-0.1c-0.4-0.1-0.8-0.3-1.3-0.4s-1.2-0.5-1.8-0.7
		c-0.5-0.2-1.1-0.2-1.7-0.2v0.1h0.1C36.1,50.5,37,50.7,37.8,51.1z"/>
	<path class="st29" d="M34.4,48.7L34.4,48.7c0.1,0.1,0.1,0.1,0.2,0l0,0v-0.1C34.5,48.7,34.5,48.7,34.4,48.7z"/>
	<path class="st29" d="M32.8,49.1c-0.4,0-0.9-0.1-1.3-0.2c-0.4-0.2-0.7-0.5-0.4-0.9s0.8-0.6,1.3-0.6c1-0.2,1.9,0.4,2.2,1.3h0.1
		c-0.2-0.5-0.7-1-1.2-1.2c-0.9-0.3-1.8-0.1-2.5,0.5c-0.6,0.9,0.8,1.3,1.6,1.3c0.6,0,1.2-0.2,1.8-0.4v-0.1
		C33.9,49,33.3,49.1,32.8,49.1z"/>
	<path class="st29" d="M34.8,48.8L34.8,48.8c0,0.2,0,0.5,0,0.7c0,0.1,0.1,0.1,0.1,0.2v-0.5C34.8,49.2,34.8,49,34.8,48.8z"/>
	<path class="st29" d="M34.9,48.8L34.9,48.8c0,0.2,0,0.3,0,0.5v0.5c0,0.1,0.1,0.1,0.1,0.2C35,49.6,35,49.2,34.9,48.8z"/>
	<path class="st29" d="M34.6,48.8L34.6,48.8c-0.1-0.1-0.1-0.1-0.2,0l0,0v0.1l0,0C34.5,48.9,34.6,48.9,34.6,48.8z"/>
	<path class="st29" d="M34.6,48.8L34.6,48.8L34.6,48.8C34.6,48.7,34.6,48.7,34.6,48.8z"/>
	<path class="st29" d="M34.4,48.8c-0.6,0.2-1.2,0.4-1.8,0.4c-0.8,0-2.2-0.4-1.6-1.3c0.7-0.7,1.6-0.8,2.5-0.5c0.6,0.2,1,0.6,1.2,1.2
		h0.1c-0.3-0.8-1.1-1.4-2-1.4c-0.8,0-1.9,0.4-2,1.1s1.1,1,1.7,1c0.6,0,1.2-0.1,1.7-0.3C34.3,49,34.4,49,34.4,48.8z"/>
	<path class="st29" d="M34.9,50.1c0-0.1-0.1-0.2-0.1-0.3v0.6h0.1C34.8,50.3,34.9,50.2,34.9,50.1z"/>
	<path class="st29" d="M34.7,48.6L34.7,48.6L34.7,48.6L34.7,48.6L34.7,48.6L34.7,48.6z"/>
	<path class="st29" d="M34.8,50.5L34.8,50.5C34.7,50.4,34.7,50.5,34.8,50.5L34.8,50.5z"/>
	<path class="st29" d="M34.8,48.7L34.8,48.7c1.3-0.3,2.2-1.2,2.6-2.4l-0.1-0.1c-0.1,0.4-0.3,0.8-0.6,1.2
		C36.2,48,35.5,48.4,34.8,48.7z"/>
	<path class="st29" d="M39.9,51.7c0.1-0.1,0.1-0.2,0.2-0.2v-0.1C40,51.5,39.9,51.6,39.9,51.7z"/>
	<path class="st29" d="M40,51.8c0-0.1,0.1-0.1,0.1-0.2v-0.1C40.1,51.6,40,51.7,40,51.8z"/>
	<path class="st29" d="M35,48.6L35,48.6L35,48.6c0.2,0,0.4-0.1,0.7-0.2c0.9-0.4,1.6-1.2,1.9-2.1l-0.1-0.1
		C37.1,47.4,36.2,48.3,35,48.6z"/>
	<path class="st29" d="M34.4,51.6c-0.5,0.6-0.9,1.4-1.9,1.4c-0.5,0-1-0.3-0.9-0.8s0.6-0.8,1-1.1c0.6-0.3,1.4-0.6,2.1-0.6v-0.1
		c-1.1,0-2.1,0.4-2.9,1.1c-0.3,0.3-0.4,0.7-0.3,1.1c0.2,0.3,0.6,0.5,1,0.5C33.6,53.1,34.1,52.2,34.4,51.6c0.3-0.4,0.4-0.7,0.4-1
		h-0.1C34.7,51,34.6,51.3,34.4,51.6z"/>
	<path class="st29" d="M34.9,50.5L34.9,50.5C34.9,50.6,35,50.6,34.9,50.5C35,50.6,35,50.5,34.9,50.5z"/>
	<path class="st29" d="M39.9,51.8L39.9,51.8L39.9,51.8C39.9,51.9,40,51.9,39.9,51.8z"/>
	<path class="st29" d="M39.6,52.5c-0.1,0.3-0.3,0.6-0.4,0.9h0.1v-0.1C39.4,53,39.5,52.7,39.6,52.5c0.2-0.3,0.3-0.4,0.4-0.6h-0.1
		C39.7,52.1,39.6,52.3,39.6,52.5z"/>
	<path class="st29" d="M40,51.9L40,51.9c0.1,0.1,0.2,0.2,0.4,0.2c0-0.1,0-0.1-0.1-0.1C40.2,51.9,40.1,51.9,40,51.9z"/>
	<path class="st29" d="M40,54.2c0.3,0.8,0.1,1.7-0.3,2.4c-0.4,0.5-0.9,0.8-1.4,1.1c-0.1,0-0.1,0.1-0.2,0.1h0.2
		c0.3-0.1,0.5-0.2,0.7-0.4c0.4-0.3,0.8-0.6,1-1.1c0.5-0.8,0.3-1.9-0.3-2.6c-0.1-0.1-0.2-0.2-0.4-0.2v0.1
		C39.6,53.6,39.9,53.9,40,54.2z"/>
	<path class="st29" d="M40,51.8L40,51.8c0.1,0.1,0.2,0.1,0.3,0.2c0-0.1,0-0.1-0.1-0.1C40.2,51.8,40.1,51.8,40,51.8z"/>
	<path class="st29" d="M39.2,53.5L39.2,53.5C39.3,53.4,39.2,53.4,39.2,53.5z"/>
	<path class="st29" d="M34.8,50.5L34.8,50.5C34.8,50.6,34.9,50.6,34.8,50.5L34.8,50.5z"/>
	<path class="st29" d="M39.8,51.9L39.8,51.9C39.9,51.9,39.9,51.9,39.8,51.9C39.8,51.8,39.8,51.8,39.8,51.9z"/>
	<path class="st29" d="M39.1,53.5L39.1,53.5C39.2,53.5,39.2,53.5,39.1,53.5L39.1,53.5z"/>
	<path class="st29" d="M39.9,51.7L39.9,51.7L39.9,51.7C40,51.8,40,51.8,39.9,51.7z"/>
	<path class="st29" d="M39.3,53.6L39.3,53.6C39.3,53.5,39.3,53.5,39.3,53.6L39.3,53.6L39.3,53.6z"/>
	<path class="st29" d="M39.5,53.7c0.4,0.2,0.6,0.6,0.6,1c0,0.5-0.1,1-0.3,1.5s-0.5,0.9-1,1.1c-0.1,0.1-0.2,0.1-0.3,0.2l0,0
		c0,0.1,0,0.1-0.1,0.1c0.6-0.2,1.1-0.6,1.4-1.1c0.4-0.7,0.5-1.6,0.3-2.4c-0.2-0.3-0.4-0.5-0.7-0.7v0.1
		C39.3,53.6,39.4,53.6,39.5,53.7z"/>
	<path class="st29" d="M39.1,53.5L39.1,53.5C39.2,53.5,39.2,53.5,39.1,53.5C39.1,53.4,39.1,53.4,39.1,53.5z"/>
	<path class="st29" d="M38.1,51.3c0.5,0.2,1.1,0.4,1.7,0.6v-0.1c-0.7-0.2-1.3-0.5-2-0.7c-0.8-0.4-1.7-0.6-2.6-0.6h-0.1v0.1
		c0.3,0,0.7,0,1,0.1C36.8,50.8,37.5,51,38.1,51.3z"/>
	<path class="st29" d="M39.9,51.7L39.9,51.7L39.9,51.7z"/>
	<path class="st29" d="M39.3,52.9c-0.1,0.2-0.1,0.3-0.2,0.5h0.1c0.1-0.3,0.2-0.6,0.4-0.9l0.3-0.6h-0.1
		C39.6,52.2,39.4,52.5,39.3,52.9z"/>
	<path class="st29" d="M35.2,50.5H35v0.1C35.1,50.6,35.2,50.6,35.2,50.5z"/>
	<path class="st29" d="M35,50.4L35,50.4c0,0.1,0.1,0.1,0.2,0.1v-0.1H35z"/>
	<path class="st29" d="M34.9,49.8c0-0.1-0.1-0.1-0.1-0.2L34.9,49.8c-0.1,0.1,0,0.2,0,0.3V49.8z"/>
	<path class="st29" d="M35,50c0-0.1-0.1-0.1-0.1-0.2v0.3c0,0.1,0,0.2,0.1,0.2V50z"/>
	<path class="st29" d="M38.1,57.7L38.1,57.7c0.1,0,0.1,0,0.2-0.1C38.3,57.7,38.2,57.7,38.1,57.7z"/>
	<path class="st29" d="M38.5,57.5c-0.1,0-0.2,0.1-0.3,0.1h-0.1c0.1,0,0.1,0,0.2-0.1C38.4,57.6,38.4,57.6,38.5,57.5z"/>
	<path class="st29" d="M38.1,57.7c-0.1,0.1-0.3,0-0.4,0.1c0,0.1,0,0.1,0.1,0.1C37.9,57.9,38,57.8,38.1,57.7L38.1,57.7
		c-0.1,0.1-0.2,0.1-0.3,0.2C37.9,57.9,38,57.8,38.1,57.7L38.1,57.7C38,57.8,38.1,57.7,38.1,57.7z"/>
	<path class="st29" d="M38,57.8L38,57.8C38.1,57.7,38,57.8,38,57.8z"/>
	<path class="st30" d="M24.7,28.6c0.1-0.1,0.1-0.2,0.2-0.3C24.7,28.4,24.7,28.5,24.7,28.6z"/>
	<path class="st30" d="M25.7,41.4c0.1-1.1,0.4-2.2,0.5-3.3c0.2-1.9-0.8-3.6-1.4-5.3c0.2,1.7,0.4,3.4,0.5,5.1c0.1,1.6,0,3.3-0.2,4.9
		c-0.1,0.7-0.3,1.5-0.5,2.2c0.2-0.2,0.3-0.5,0.5-0.6C25.5,43.5,25.8,42.4,25.7,41.4z"/>
	<path class="st30" d="M24.7,28.6c-0.4,0.8-0.9,1.6-1.4,2.3c0.4,0.1,0.8,0.2,1.2,0.2v0.2c0.1-0.3,0.1-0.6,0.1-0.9
		C24.7,29.9,24.5,29.1,24.7,28.6z"/>
	<path class="st30" d="M40.5,24.1c0.1-0.1,0.1-0.2,0.2-0.2c-0.7,0.1-1.4,0.2-2,0.5L40.5,24.1z"/>
	<path class="st30" d="M20.2,26.6L20.2,26.6c0.3,0.3,0.1,0.6,0,0.8s-0.1,0.2-0.1,0.3c1-0.3,2-0.8,3-1.3
		C22.2,26.5,21.1,26.5,20.2,26.6z"/>
	<path class="st30" d="M23.9,26.8c-0.8,0.4-1.7,0.9-2.4,1.5c-0.1,0.1-0.2,0.1-0.3,0.2s0.1,0.2,0.2,0.3c0.2,0.2,0.4,0.4,0.7,0.5h0.2
		C22.6,28.4,23.2,27.5,23.9,26.8z"/>
	<path class="st30" d="M40,26.1c0.1,0,0.1,0,0.3-0.1c0.2,0,0.3-0.1,0.4-0.2v-0.3c-0.8-0.2-1.6-0.2-2.4-0.2
		C38.8,25.6,39.4,25.9,40,26.1z"/>
	<path class="st30" d="M37.4,38.1c0.5,1.9,0.4,4.2,2.5,5.4c0.2,0.1,0.4,0.3,0.6,0.4c-1.1-1.6-1.9-3.4-2.2-5.3
		c-0.5-1.8-0.8-3.6-0.9-5.5c-0.1,0.7-0.1,1.5,0,2.2C37.2,36.2,37.3,37.2,37.4,38.1z"/>
	<path class="st31" d="M41.3,23.1c-1.6-0.1-3.2,0.4-4.5,1.2l0,0c-0.3,0-0.5,0-0.8,0.1l0,0c-0.1,0-0.1,0.1,0,0.2
		c-0.3,1.5-1.2,2.8-2.4,3.7c-0.8,0.7-1.9,1.3-2.7,2c-0.9-0.5-2.1-0.9-3.1-1.4c-1.3-0.7-2.4-1.8-3.1-3.1v-0.2h-0.1
		c-0.3,0-0.5,0-0.8,0.1l0,0c-1.5-0.5-3.2-0.6-4.7-0.1c-0.1,0-0.1,0-0.1,0.1c0,0.2,0.3,0.2,0.5,0.3c0.3,0.1,0.6,0.3,0.8,0.6
		c1-0.1,2,0,3-0.2c-1,0.5-2,1-3,1.3c0,0.1,0,0.2,0.1,0.3c0.1,0.2,0.2,0.2,0.4,0.1s0.4,0,0.5,0.2c0,0.1,0,0.1,0.1,0.1
		c0.1-0.1,0.2-0.1,0.3-0.2c0.7-0.6,1.5-1.1,2.4-1.5c-0.8,0.7-1.3,1.5-1.7,2.5h0.2c0.2,0.1,0.3,0.5,0.4,0.7s0.1,0.7,0.5,0.9l0,0
		c0.4-0.8,1-1.6,1.4-2.3c0-0.1,0.1-0.2,0.2-0.3c0,0.1-0.1,0.2-0.2,0.3c-0.1,0.6-0.1,1.3,0,1.9c0,0.3-0.1,0.6-0.1,0.9
		c0.1,0.5,0.2,1,0.2,1.5c0.5,1.8,1.5,3.5,1.4,5.3c-0.1,1.1-0.4,2.2-0.5,3.3s0.1,2-0.7,2.9c-0.1,0.2-0.3,0.4-0.5,0.6
		c-0.2,0.6-0.5,1.2-0.8,1.7c-0.1,0.1,0,0.2,0.1,0.2c1.2,0.2,2.5,0.3,3.7,0.4c1,0.1,2,0.1,2.9,0.1h2.1l1.2-0.3
		c0.3-0.1,0.6-0.1,0.9-0.2c0.9-0.2,1.9-0.5,2.8-0.8c1.2-0.4,2.4-0.8,3.5-1.2c0.1,0,0.2-0.2,0.1-0.2c-0.3-0.2-0.5-0.5-0.7-0.8
		c-0.2-0.1-0.4-0.3-0.6-0.4c-2.1-1.2-2-3.6-2.5-5.4c-0.1-0.9-0.2-1.8-0.1-2.7c-0.1-0.7-0.1-1.5,0-2.2c-0.1-0.7-0.1-1.4-0.2-2.1
		c-0.4-1.6-0.6-4.2,0.4-5.8c0.2,1.4,0.3,2.9,0.3,4.3c0.2-0.1,0.3-0.2,0.5-0.3c0.4-0.3,0.3-0.7,0.3-1c0-0.1,0-0.4,0.1-0.5
		c-0.1-0.4-0.2-0.8-0.2-1.2l0.8,0.8c0.2-0.1,0.3-0.3,0.4-0.5c0.1-0.1,0.1-0.3,0.1-0.4c0-0.1,0.1-0.2,0.2-0.3
		c-0.6-0.3-1.3-0.5-1.8-0.8c0.8,0,1.6,0,2.4,0.2c-0.1-0.4-0.5-0.7-0.3-1.1c0-0.1,0.1-0.2,0.2-0.3c-0.6,0.1-1.2,0.2-1.8,0.2
		c0.7-0.2,1.3-0.4,2-0.5l0.3-0.3c0.2-0.1,0.4-0.2,0.4-0.4C41.4,23.2,41.3,23.1,41.3,23.1z"/>
	<path class="st30" d="M37.5,25.2c-0.8,1.9-0.9,4-0.3,5.9V31c0-0.4-0.1-0.9-0.1-1.3c0.2-0.1,0.5-0.2,0.7-0.3
		C37.8,28,37.7,26.6,37.5,25.2z"/>
	<path class="st30" d="M38.6,27.7c0-0.1,0.1-0.1,0.1-0.2c0.1-0.1,0.2-0.1,0.3-0.1s0.1,0,0.2-0.1l-0.8-0.8
		C38.4,26.9,38.5,27.3,38.6,27.7z"/>
	<path class="st32" d="M-8.3,9.9c3.8,14,13.3,24.8,25,26.9c16.7,3.1,29.7-13,34.9-19.5c7.2-9.3,11.7-20.4,13-32.1
		c18.2,0,36.3,0.1,54.5,0.1c0,26.4-0.1,52.8-0.1,79.2c-42.5,0-85,0-127.5,0.1C-8.5,46.3-8.4,28.1-8.3,9.9z"/>
	<path class="st33" d="M12-2.5c0,0.2,0,0.4,0.1,0.5c0.1,0.2,0.2,0.3,0.4,0.4c0.2,0.1,0.3,0.2,0.3,0.3s0.1,0.2,0.1,0.3s0,0.2-0.1,0.2
		s-0.1,0.1-0.3,0.1c-0.1,0-0.3,0-0.4-0.1c-0.3-0.1-0.5-0.1-0.8,0h-0.4c-0.2,0-0.4-0.1-0.4-0.3c0,0,0,0,0-0.1v-0.3
		c0.1-0.1,0.1-0.1,0.2-0.1s0.2-0.1,0.3-0.2s0.1-0.4,0.1-0.8c-0.2-3.2-0.2-6.3,0.1-9.5v-0.6c0-0.2-0.1-0.3-0.3-0.4
		c-0.2-0.1-0.3-0.2-0.4-0.3v-0.3c0-0.1,0-0.1,0.1-0.2c0.1-0.1,0.1-0.1,0.2-0.1c0.2,0,0.3,0.1,0.5,0.1c0.2,0.1,0.3,0.2,0.4,0.2h0.9
		c0.2,0,0.2,0.2,0.2,0.4s0,0.2-0.1,0.3c-0.1,0.1-0.1,0.1-0.2,0.1s-0.2,0.1-0.3,0.2c-0.1,0.1-0.1,0.4-0.2,0.8
		C11.8-8.8,11.8-5.6,12-2.5z M16.2-2.4c0,0.2,0,0.4,0.1,0.5c0.1,0.2,0.2,0.3,0.4,0.4c0.1,0.1,0.2,0.1,0.3,0.2c0,0.1,0.1,0.1,0.1,0.2
		s0,0.2-0.1,0.2c-0.1,0.1-0.2,0.1-0.3,0.1c-0.1,0-0.3,0-0.4-0.1C16-1,15.8-1,15.5-0.9c-0.2,0-0.3,0.1-0.4,0.1
		c-0.2,0-0.4-0.1-0.4-0.3c0,0,0,0,0-0.1v-0.3c0.1-0.1,0.1-0.1,0.2-0.1s0.2-0.1,0.3-0.2s0.1-0.4,0.1-0.8c-0.1-1.7-0.1-3.5,0-5.2
		c0-0.2,0-0.3-0.1-0.4c-0.1-0.1-0.2-0.2-0.4-0.2c-0.9-0.1-1.3-0.1-2.2-0.2c-0.2,0-0.3-0.1-0.4-0.1c-0.1-0.1-0.1-0.2-0.1-0.3
		s0-0.2,0.1-0.3s0.2-0.1,0.4-0.1c1,0.1,1.4,0.1,2.4,0.2c0.1,0,0.2,0,0.3-0.1c0-0.1,0.1-0.2,0.1-0.4c0.1-1.2,0.1-1.9,0.1-2.2
		c0-0.3-0.1-0.5-0.4-0.6c-0.1-0.1-0.2-0.2-0.2-0.3v-0.3c0-0.1,0-0.1,0.1-0.2c0.1-0.1,0.1-0.1,0.2-0.1c0.2,0,0.3,0.1,0.5,0.1
		c0.1,0.1,0.3,0.1,0.4,0.1H17c0.2,0,0.2,0.1,0.2,0.4c0,0.1,0,0.2-0.1,0.3c-0.1,0.1-0.1,0.1-0.2,0.1s-0.2,0.1-0.3,0.2
		c-0.2,0.2-0.2,0.5-0.2,0.8C16.1-8.4,16.1-5.4,16.2-2.4z"/>
	<path class="st33" d="M21-2.2c0,0.3,0.2,0.7,0.5,0.8c0.1,0,0.1,0.1,0.2,0.1c0.1,0.1,0.1,0.2,0.1,0.3s0,0.1-0.1,0.2
		s-0.1,0.1-0.2,0.1s-0.1,0-0.3-0.1S21-0.9,20.9-0.9c-0.1,0-0.2,0-0.3,0.1c-0.1,0-0.1,0-0.2,0.1c-0.1,0-0.1,0-0.1-0.1l0,0
		c0-0.1-0.1-0.1-0.1-0.2s0-0.1-0.1-0.1S20-1.1,20-1l0,0c-0.3,0.4-0.7,0.6-1.2,0.6c-0.3,0-0.5-0.1-0.7-0.3c-0.3-0.2-0.5-0.5-0.6-0.8
		c-0.2-0.4-0.3-0.9-0.3-1.4s0.1-1.1,0.5-1.5C18-4.8,18.5-5,19-5c0.2,0,0.4,0.1,0.6,0.3s0.3,0.3,0.3,0.5s0,0.1-0.1,0.2
		c-0.1,0.1-0.1,0.1-0.2,0.1C19.5-4,19.4-4,19.3-4.1c-0.3-0.3-0.7-0.3-0.9,0C18.3-4,18.3-4,18.2-3.9c-0.2,0.3-0.3,0.7-0.3,1.1
		c0,0.4,0.1,0.8,0.3,1.2c0.2,0.4,0.7,0.5,1.1,0.3c0.1-0.1,0.2-0.2,0.3-0.3c0.2-0.3,0.3-0.6,0.3-1v-2.2c0-0.3-0.1-0.6-0.2-0.8
		s-0.3-0.3-0.5-0.3c-0.3,0-0.7,0.1-0.9,0.4c-0.1,0.1-0.1,0.1-0.2,0.1s-0.1,0-0.2-0.1s-0.1-0.2-0.1-0.3c0-0.3,0.2-0.5,0.5-0.7
		s0.7-0.2,1-0.2c0.4,0,0.9,0.2,1.1,0.6c0.3,0.4,0.4,0.8,0.4,1.3C21-3.9,21-3.1,21-2.2z"/>
	<path class="st33" d="M22.8,0.4V-5c0-0.1,0-0.2-0.1-0.3s-0.2-0.2-0.4-0.2c-0.1,0-0.2-0.1-0.3-0.2s-0.1-0.1-0.1-0.2s0.1-0.3,0.2-0.3
		c0,0,0,0,0.1,0s0.2,0,0.3,0.1c0.2,0.1,0.4,0.1,0.6,0c0.1-0.1,0.2-0.1,0.3-0.1c0.1,0,0.1,0,0.2,0.1v0.3c0,1.1-0.1,1.7-0.1,2.8
		c0,0.5,0.1,0.9,0.3,1.3c0.2,0.3,0.5,0.5,0.8,0.5c0.2-0.1,0.4-0.2,0.6-0.3c0.2-0.2,0.4-0.5,0.5-0.8c0.1-0.4,0.2-0.8,0.2-1.2
		c0-0.5-0.1-1-0.3-1.5c-0.2-0.4-0.5-0.7-0.8-0.7c-0.2,0-0.3,0-0.5,0.1c-0.1,0.1-0.2,0.1-0.3,0.1s-0.1,0-0.1-0.1
		c-0.1-0.1-0.1-0.1,0-0.2l0,0c0-0.2,0.1-0.3,0.4-0.4c0.2-0.1,0.5-0.2,0.7-0.2c0.6,0,1.1,0.4,1.3,0.9c0.4,0.6,0.5,1.4,0.5,2.1
		c0,0.7-0.2,1.3-0.6,1.9c-0.4,0.6-0.8,0.9-1.3,0.9c-0.2,0-0.4,0-0.6-0.1c-0.3-0.2-0.5-0.4-0.7-0.6v1.9c0,0.3-0.1,0.6-0.2,0.9
		c-0.1,0.2-0.2,0.4-0.4,0.6c-0.1,0.1-0.2,0.2-0.4,0.2c-0.2,0-0.3-0.1-0.3-0.2c0-0.1,0-0.1,0.1-0.2c0.2-0.2,0.3-0.4,0.4-0.7L22.8,0.4
		z"/>
	<path class="st33" d="M27.9,0.3v-5c0-0.1,0-0.2-0.1-0.3s-0.2-0.2-0.4-0.2c-0.1,0-0.2-0.1-0.3-0.1S27-5.4,27-5.5
		c0-0.1,0.1-0.3,0.2-0.3c0,0,0,0,0.1,0s0.2,0,0.3,0.1c0.2,0.1,0.4,0.1,0.6,0c0.1-0.1,0.2-0.1,0.3-0.1s0.1,0,0.2,0.1v0.3
		c-0.1,0.9-0.1,1.7-0.1,2.6c0,0.5,0.1,0.9,0.3,1.3C29.1-1.2,29.4-1,29.7-1c0.2-0.1,0.4-0.2,0.6-0.3c0.2-0.2,0.4-0.5,0.5-0.8
		C30.9-2.5,31-2.9,31-3.3c0-0.5-0.1-1-0.3-1.4C30.6-5,30.3-5.3,30-5.4c-0.2,0-0.3,0-0.5,0.1c-0.1,0.1-0.2,0.1-0.3,0.1
		s-0.1,0-0.1-0.1v-0.2c0-0.1,0.1-0.3,0.4-0.4C29.7-6,30-6.1,30.2-6.1c0.5,0,1,0.3,1.3,0.8c0.4,0.6,0.5,1.3,0.4,2
		c0,0.6-0.2,1.3-0.6,1.8C31-1,30.5-0.7,29.9-0.7c-0.2,0-0.4,0-0.6-0.1c-0.2-0.1-0.4-0.3-0.7-0.5v0.4c0,0.5,0,0.9-0.1,1.4
		c0,0.3-0.1,0.6-0.3,0.9c-0.1,0.2-0.2,0.4-0.4,0.5c-0.1,0.1-0.2,0.2-0.4,0.2S27.1,2,27.1,1.9s0-0.1,0.1-0.2c0.2-0.2,0.3-0.4,0.4-0.6
		C27.8,0.9,27.9,0.6,27.9,0.3z"/>
	<path class="st33" d="M34.9-1.6C35-1.6,35-1.5,35-1.4s-0.1,0.3-0.4,0.5c-0.2,0.2-0.5,0.3-0.8,0.3c-0.2,0-0.4-0.1-0.6-0.3
		c-0.2-0.2-0.3-0.4-0.4-0.6c-0.1-0.5-0.1-0.9,0-1.4c0-0.5,0-0.9,0.1-1.4c0-0.4-0.1-0.6-0.3-0.7s-0.2-0.1-0.3-0.1s-0.1-0.1,0-0.2
		s0-0.1,0.1-0.2c0-0.1,0-0.1,0.1-0.1s0.2,0,0.3,0.1s0.2,0.1,0.3,0.1h0.6c0.1,0,0.1,0,0.1,0.1s0,0.1,0.1,0.1v0.9
		c0,0.6-0.1,1.1-0.1,1.6v0.8c0,0.2,0.1,0.3,0.2,0.4c0.1,0.1,0.2,0.2,0.4,0.2s0.3-0.1,0.4-0.2L34.9-1.6z M36.1-5.3
		c0.1,0,0.2,0.1,0.1,0.3c0,0.4-0.1,1-0.1,1.9S36-1.7,36-1.5c0,0.7-0.1,1.4-0.3,2.1c-0.2,0.4-0.4,0.7-0.5,0.9
		c-0.2,0.2-0.4,0.3-0.7,0.3c-0.2,0-0.4,0-0.6-0.1c-0.1-0.1-0.2-0.2-0.2-0.3V1.3l0.1-0.1c0.1,0,0.1,0,0.2,0.1c0.1,0,0.2,0.1,0.3,0.1
		c0.2,0,0.4-0.1,0.5-0.3c0.2-0.2,0.3-0.4,0.3-0.7c0.1-0.4,0.1-0.9,0.1-1.3c-0.1-1.2,0-2.3,0.2-3.5c0-0.2-0.1-0.4-0.3-0.5
		s-0.4-0.2-0.3-0.3s0.1-0.2,0.3-0.2c0.1,0,0.2,0,0.3,0.1c0.1,0,0.3,0.1,0.4,0.1L36.1-5.3L36.1-5.3z"/>
	<path class="st33" d="M42.2-9.5c0.1,0,0.2,0.2,0.2,0.5v0.8c0,0.2-0.1,0.4-0.3,0.3C42-7.9,42-7.9,42-8c-0.1-0.1-0.1-0.3-0.1-0.4
		c0-0.4-0.3-0.7-0.6-0.7c-0.2,0-0.4,0-0.5,0.1c-0.2,0.2-0.3,0.4-0.3,0.7c-0.4,2.1-0.6,4.3-0.7,6.5c0,0.1,0,0.2,0.1,0.3
		c0,0.1,0.1,0.1,0.3,0.2c0.1,0.1,0.2,0.1,0.3,0.1v0.1c0,0.1-0.1,0.3-0.2,0.3c0,0,0,0-0.1,0s-0.3,0-0.4-0.1c-0.2,0-0.3-0.1-0.4-0.1
		h-0.8c-0.1,0-0.2,0-0.3-0.1s-0.1-0.1-0.1-0.3v-0.1c0.1-0.1,0.2-0.1,0.3-0.1c0.2-0.1,0.3-0.1,0.3-0.3s0.1-0.2,0.1-0.4
		C39-4.5,39.3-6.8,39.7-9c0.1-0.4-0.1-0.6-0.6-0.7c-0.3,0-0.5,0-0.7,0.2c-0.1,0.1-0.2,0.2-0.2,0.4c-0.1,0.2-0.1,0.3-0.2,0.3h-0.1
		c-0.1,0-0.1,0-0.1-0.1L37.7-9c0.1-0.4,0.2-0.7,0.3-1.1c0.1-0.3,0.2-0.4,0.4-0.4C39.6-9.9,40.9-9.6,42.2-9.5z"/>
	<path class="st33" d="M44.2-4.9c0.6,0,1.1,0.3,1.4,0.8c0.4,0.4,0.5,1,0.4,1.5c-0.1,0.6-0.3,1.1-0.7,1.5s-1,0.6-1.6,0.6
		c-0.5,0-1-0.2-1.4-0.6c-0.4-0.4-0.6-1-0.5-1.6s0.3-1.1,0.7-1.6C42.9-4.8,43.6-5,44.2-4.9z M43.8-1.1c0.4,0,0.8-0.2,1-0.5
		c0.3-0.3,0.5-0.8,0.5-1.2c0.1-0.4,0-0.8-0.2-1.2c-0.2-0.3-0.5-0.5-0.9-0.5s-0.7,0.1-1,0.4c-0.3,0.3-0.5,0.8-0.5,1.2
		c-0.1,0.4,0,0.9,0.2,1.3C43.1-1.3,43.4-1.1,43.8-1.1z"/>
	<path class="st33" d="M51.6-8.1c0.1,0,0.2,0.1,0.2,0.4c0,0.2,0,0.5-0.1,0.7c-0.1,0.2-0.1,0.3-0.2,0.3s-0.1,0-0.1-0.1
		c0-0.1-0.1-0.1-0.1-0.3c0-0.2-0.1-0.3-0.2-0.4c-0.1-0.1-0.3-0.1-0.4-0.2c-0.2,0-0.4,0-0.5,0.1c-0.1,0.2-0.2,0.3-0.3,0.5
		c-0.4,1.8-0.8,3.7-1,5.6v0.2c0,0.1,0.1,0.1,0.3,0.2S49.4-1,49.5-1v0.1c0,0.1-0.1,0.3-0.2,0.3c0,0,0,0-0.1,0h-0.4
		c-0.2,0-0.3,0-0.4-0.1h-0.8c-0.1,0-0.2,0-0.3-0.1S47.2-0.9,47.2-1c0-0.1,0-0.1,0.1-0.1c0.1-0.1,0.2-0.1,0.3-0.1
		c0.2,0,0.3-0.1,0.3-0.2C48-1.5,48-1.6,48-1.7c0.2-1.9,0.6-3.8,1-5.7c0.1-0.3-0.1-0.5-0.5-0.6c-0.2,0-0.5,0-0.7,0.1
		c-0.2,0.1-0.3,0.2-0.3,0.3c-0.1,0.2-0.1,0.3-0.2,0.3h-0.1c-0.1,0-0.1,0-0.1-0.1L47-7.5c0.1-0.3,0.2-0.6,0.3-0.9
		c0.1-0.2,0.2-0.3,0.4-0.3C49.2-8.4,50-8.3,51.6-8.1z"/>
	<path class="st33" d="M53.5-4.2c0.5,0,1,0.2,1.3,0.6c0.3,0.4,0.5,0.8,0.4,1.3s-0.4,1-0.8,1.3c-0.5,0.3-1,0.5-1.6,0.5
		c-0.5,0-0.9-0.2-1.3-0.5c-0.4-0.4-0.5-0.9-0.4-1.4s0.4-1,0.8-1.3C52.3-4.1,52.9-4.3,53.5-4.2z M52.9-1c0.4,0,0.7-0.1,1-0.4
		c0.3-0.3,0.4-0.6,0.5-1c0.1-0.3,0-0.7-0.2-1s-0.6-0.4-0.9-0.4c-0.4,0-0.7,0.1-1,0.3c-0.3,0.3-0.5,0.6-0.5,1c-0.1,0.4,0,0.8,0.2,1.1
		C52.2-1.1,52.6-1,52.9-1z"/>
	<circle class="st34" cx="53.2" cy="-2.3" r="0.5"/>
	<circle class="st34" cx="44.4" cy="-2.3" r="0.5"/>
	<path class="st35" d="M44.9,2.3c0.7,1.5,2.1,2.6,3.8,2.8c2.4,0.1,4-2.3,4-2.4s-1.3,1.5-3.3,1.7C46.9,4.5,45.1,2.1,44.9,2.3z"/>
	<g class="st36">
		<path class="st37" d="M8.6,18.9c0.4,0.4,1.1,0.9,1.9,1c0.9,0.2,1.7-0.2,1.7,0c0,0.1-0.6,0.6-1.4,0.7c-0.5,0-0.9-0.1-1-0.2
			C9,20,8.7,19.1,8.6,18.9z"/>
		<path class="st38" d="M9.7,20.6c0.1,0.1,0.1,0.2,0.3,0.2c0.1,0,0.2-0.1,0.3,0c0.1-0.1,0.2,0,0.1,0.1c0,0-0.1,0.2-0.4,0.1
			c-0.3-0.1-0.3-0.2-0.4-0.3S9.7,20.6,9.7,20.6z"/>
	</g>
	<g class="st36">
		<path class="st37" d="M27.9,21.1c0.5,0.3,1.3,0.5,2.1,0.4c0.9-0.2,1.5-0.7,1.6-0.6c0.1,0.1-0.4,0.8-1.1,1.1
			c-0.5,0.2-0.9,0.2-1,0.2C28.6,22,28,21.3,27.9,21.1z"/>
		<path class="st38" d="M29.5,22.4c0.1,0.1,0.2,0.2,0.4,0.1c0.1,0,0.2-0.1,0.2-0.1c0.1-0.1,0.2,0,0.1,0.1c0,0-0.1,0.2-0.3,0.2
			C29.6,22.7,29.5,22.6,29.5,22.4C29.3,22.4,29.5,22.4,29.5,22.4z"/>
	</g>
	<rect x="4.6" y="39" class="st39" width="19.4" height="19"/>
	<path class="st40" d="M4.2,44.6c0-0.3-0.2-0.9-0.7-1.2c-0.3-0.2-0.7-0.3-1-0.3c1.8-2,3.6-4.1,5.4-6.1c0.1,0.4,0.3,0.9,0.9,1.2
		c0.3,0.1,0.5,0.2,0.8,0.2C7.8,40.5,6,42.6,4.2,44.6z"/>
	<path class="st41" d="M26,43c0,0.2-0.1,0.5-0.3,0.8c-0.4,0.5-1,0.7-1.3,0.7c-1.6-1.8-3.3-3.6-4.9-5.3c-0.3-0.1-0.4-0.2-0.5-0.3
		c-0.2-0.3,0.5-0.7,2.1-1.2C22.7,39.5,24.4,41.2,26,43z"/>
	<text transform="matrix(1 0 0 1 8.8073 45.5156)" class="st36" style="font-family:'Papyrus-Regular'; font-size:4px;">Ibra</text>
	
		<text transform="matrix(1 0 0 1 8.8073 45.5156)" style="display:inline;fill:none;stroke:#231F20;stroke-width:0.1;stroke-miterlimit:10; font-family:'Papyrus-Regular'; font-size:4px;">Ibra</text>
	<text transform="matrix(1 0 0 1 8.8073 50.3157)" class="st36" style="font-family:'Papyrus-Regular'; font-size:4px;">&amp;</text>
	
		<text transform="matrix(1 0 0 1 8.8073 50.3157)" style="display:inline;fill:none;stroke:#231F20;stroke-width:0.1;stroke-miterlimit:10; font-family:'Papyrus-Regular'; font-size:4px;">&amp;</text>
	<text transform="matrix(1 0 0 1 8.8073 55.1157)" class="st36" style="font-family:'Papyrus-Regular'; font-size:4px;">Elly</text>
	
		<text transform="matrix(1 0 0 1 8.8073 55.1157)" style="display:inline;fill:none;stroke:#231F20;stroke-width:0.1;stroke-miterlimit:10; font-family:'Papyrus-Regular'; font-size:4px;">Elly</text>
	<text transform="matrix(1 0 0 1 76.272 30.4941)" class="st11 st43 st44">Karibu Happy Toto, </text>
	<text transform="matrix(1 0 0 1 104.9209 29.3025)" class="st27 st43 st44"> </text>
	
		<text transform="matrix(1 0 0 1 104.9209 29.3025)" class="st43 st44" style="display:inline;fill:none;stroke:#F9F9F9;stroke-width:0.1;stroke-miterlimit:10;"> </text>
	<text transform="matrix(1 0 0 1 41.8209 35.3026)" class="st42 st43 st44">mchezo unaohusika na kusaidia watoto</text>
	<text transform="matrix(1 0 0 1 55.7209 41.3026)" class="st11 st43 st44"> kujikinga dhidi ya unyanyasaji</text>
	<text transform="matrix(1 0 0 1 55.7209 41.3026)" class="st11 st43 st44"> </text>
	<text transform="matrix(1 0 0 1 75.7166 47.9833)" class="st11 st43 st44">wa kijinsia wa ngono.</text>
	<text transform="matrix(1 0 0 1 83.3521 20.2388)" class="st36 st43" style="font-size:6px;">Karibu!</text>
	<g id="Layer_2_1_" class="st36">
	</g>
</g>
<g id="Layer_2">
	<path class="st45" d="M7.7,19.3c0.1-0.3,6.7,1,6.9,1c-0.3,0.6-0.6,1.2-0.8,1.8c-0.1,0.6,0,1.3,0.2,1.9c-1,0.8-2.3,1.1-3.5,0.8
		c-1.2-0.1-2.3-0.7-2.9-1.8c0.1-0.5,0.2-1.1,0.3-1.6C7.8,20.8,7.8,20.1,7.7,19.3z"/>
	<path class="st38" d="M7.8,21.5c1.1,1.3,2.8,1.8,4.5,1.5c0.5-0.1,1-0.3,1.3-0.7c0.1-0.2,0.2-0.4,0.3-0.6l0.2-0.5v-0.1
		c0-0.1-0.1-0.1-0.2-0.1c-1.7-0.4-3.3-0.7-5-1.2c-0.2,0-0.4-0.2-0.6-0.3c-0.2,0-0.1,0-0.3,0.3C8,20.5,8,21,7.8,21.5z"/>
	<path class="st45" d="M5.2,52.8c0.5,0.1,1,0.4,1.3,0.8c0.2,0.3,0.3,0.7,0.3,1.1c0.1,0.3-0.6,6.9-0.7,8.6c0.1,1.4,0,2.7-0.2,4.1
		c-0.4,0.7-0.7,1.4-1,2.1c-0.3,1-0.5,2-0.5,3.1c0,0.5,0.1,1.1,0.3,1.6c0.2,1,0.2,1.8,0.3,2.7c0.1,0.8,0.1,1.6,0.1,2.4
		c0.1,0.3,0,0.7-0.2,1s-0.3,0.6-0.4,0.9c0.1,0.1,0.1,0.3,0.1,0.4c0.2,0.8-0.9,1.5-0.6,2.3c0.4,0.6,1.2,0.9,1.9,0.7
		c0.1,0,0.2-0.1,0.3-0.1s0.3,0.1,0.4,0.1c0.9,0.3,1.9,0.4,2.8,0.5h0.2c0.2-0.1,0.4-0.3,0.3-0.5S9.7,84.2,9.7,84
		c-0.4-0.5-0.7-1-1-1.5c-0.2-1.5-0.2-3,0.1-4.4c0.8-1.5,1.3-3,1.7-4.6c0.5-1.6,0.6-3.2,0.4-4.8c-0.2-0.8-0.2-1.7-0.1-2.5
		c0.1-0.7,1.2-2,1.7-3.5c0.3-1.3,0.6-2.7,0.7-4.1c0.2-1.6,0.4-3.6,0.6-5.2c0.1-1.6,0.1-3.1,0-4.7c0-0.6,0.7-2.1,0.7-2.7
		s0.6-4.8,0.7-5.2c0.3-1.9,0.8-3.8,1.1-5.8c0.1-0.5,0.4-3.1,0.5-3.8c0-0.2,0.1-0.5,0.1-0.7c0.2-0.9,1.1,2.1,1.4,3s1.1,2.6,0.8,2.5
		c0.3,0.8,0.6,1.1,0.9,2c0.1,0.4,0.4,0.9,0.5,1.3c0.1,0.3,0.2,0.7,0.3,1c0.2,0.7,0.5,1.4,0.9,2.1c0.4,0.4,3.6,3.8,3.9,4.2
		s1.2,1.8,1.6,2.1s0.4,0.6,0.6,0.7c0.4-0.4,0.9-0.6,1.5-0.5c0.6,0,1-0.1,0.7-0.6c-0.5-1-0.9-2-1.3-2.9c-0.4-1.2-1-2.3-1.7-3.4
		c-0.4-0.8-0.9-1.5-1.4-2.2s-1.3-1.6-1.9-2.4c-0.5-0.8-0.9-1.6-1.3-2.5C22,33.8,21,31,20.8,30c-0.1-0.6-0.3-1.1-0.5-1.7
		c-0.1-0.6-0.3-1.2-0.6-1.7c-0.3-0.4-0.6-0.7-1-1c-0.5-0.3-1.1-0.6-1.7-0.9c-1.2-0.5-1.9-0.5-3.2-1c-0.4,0.3-0.8,0.5-1.3,0.7
		c-0.8,0.2-1.6,0.3-2.4,0.1"/>
	<path class="st45" d="M10.4,24.7c-0.7-0.1-1.4-0.4-2-0.8c-0.4-0.3-0.7-0.7-0.9-1.1c-1.1-0.1-2.3-0.2-3.4-0.1
		c-0.6,0-1.2,0.1-1.8,0.2C1.8,23,1.4,23.2,1,23.5c-0.4,0.4-0.8,0.9-1.2,1.4c-0.4,0.5-0.7,0.9-1.1,1.5c-0.7,0.9-2.5,3.2-3.3,4.2
		c-0.6,0.7-1.3,1.4-2,2c-0.8,0.6-1.9,1.1-2.6,1.7s-1.6,1.2-2.1,1.6c-1,0.8-1.9,1.8-2.8,2.7c-0.4,0.5-1.9,1.9-2.3,2.3
		c-0.4,0.4-0.2,0.6,0.5,0.8c0.5,0.1,0.9,0.5,1.2,0.9c0.3-0.1,0.5-0.3,0.8-0.5c0.5-0.2,1.7-1.2,2.2-1.4S-7,38.3-6.6,38
		c0.7-0.5,1.3-1.1,1.7-1.8c0.3-0.5,0.3-0.6,0.6-0.8c0.4-0.3,0.7-0.7,0.9-1.1l1.6-1.6c-0.1,0,1.3-1.4,1.7-2.1
		c0.6-0.7,2.5-3.4,2.3-2.4c-0.1,0.2-0.1,0.4-0.1,0.6C2,29.6,1.4,32,1.4,32.5c-0.4,1.9-0.7,3.8-1,5.8c-0.1,0.4-1,4.7-1.1,5.1
		s-1,2-1.2,2.6c-0.4,0.9-0.4,3.6-0.7,4.6c-0.4,1.6-0.8,3.5-1.2,5.1c-0.3,1.3-0.6,2.7-0.7,4.1c-0.1,1.6,0.5,3.1,0.4,3.8
		c-0.2,0.8-0.6,1.6-1,2.3c-0.8,1.4-1.3,3-1.3,4.7c-0.1,1.6,0,3.3,0.1,4.9c-0.3,1.4-0.7,2.9-1.3,4.2c-0.4,0.5-0.9,0.9-1.5,1.1
		c0.1,0-0.1,0.2-0.2,0.3c-0.1,0.1-0.1,0.4,0.1,0.5H-9c0.9,0.3,1.8,0.4,2.7,0.4c0.2,0.1,0.3,0.1,0.5,0.1c0.1,0,0.2,0.1,0.3,0.2
		c0.6,0.4,1.4,0.4,2-0.1c0.5-0.6-0.2-1.7,0.3-2.3c0.1-0.1,0.3-0.3,0.3-0.4c0.1-0.3,0.1-0.6-0.1-0.9c-0.1-0.3,0-0.7,0.2-1
		c0.2-0.7,0.6-1.4,0.8-2.1c0.3-0.9,0.7-1.7,1.2-2.5c0.3-0.4,0.6-0.9,0.8-1.4c0.3-1,0.5-2,0.5-3.1c0.1-1-0.3-1.9-0.2-2.3
		c0.3-1.3,0.8-2.6,1.2-4c0.5-1.8,2.1-8.1,2.3-8.4s0.3-0.7,0.7-0.9c0.4-0.3,0.8-0.4,1.3-0.3"/>
	<circle class="st46" cx="5.8" cy="29.8" r="0.2"/>
	<circle class="st46" cx="13.6" cy="31" r="0.2"/>
	<path class="st38" d="M-5.4,36.2c0.2-0.2,0.3-0.5,0.4-0.7c0.2-0.2,0.4-0.5,0.7-0.6c0.3-0.3,0.6-0.6,0.9-1l1.1-1.6
		c0.1-0.2,0.3-0.5,0.4-0.7c0-0.2,0.1-0.4,0.2-0.6c0.3-0.4,0.6-0.8,0.8-1.2c0.1-0.2,0.2-0.3,0.3-0.5h0.5c1.1-0.5,2-1.5,2.5-2.7
		c0.1-0.5,0.4-0.9,0.7-1.2l0.2,0.1c-0.2,0.8-0.2,1.6,0.1,2.4c0.1,0.2,0.2,0.4,0.2,0.6c0,0.2-0.1,0.5-0.1,0.7
		c-0.3,1.3,0.4,2.8,0.1,4.1c-0.2,0.5-0.4,1-0.6,1.4c-0.2,0.4-0.4,0.9-0.4,1.4l-0.1,0.5c0,0.2-0.1,0.4-0.1,0.6c0,0.4-0.1,0.8-0.2,1.2
		c-0.2,0.4-0.3,0.8-0.5,1.2c-0.1,0.3-0.1,0.6-0.1,0.9c0.1,0.1,0.1,0.3,0,0.4c0,0.1-0.1,0.3-0.1,0.4l-0.4,1.3
		c-0.1,0.2-0.5,0.2-0.7,0.1s-0.1-0.1-0.2-0.1c0-0.2,0.1-0.4,0.1-0.6s0.1-0.3,0.1-0.5l1.2-6.6l0.2-1L2,32.8l0.3-2l0.2-0.9
		c0.1-0.4,0.1-0.8,0.2-1.3c0-0.2,0.1-0.6-0.1-0.6s-0.4,0.4-0.4,0.5c-0.5,0.5-1,1.1-1.3,1.7c-0.5,0.7-1,1.4-1.6,2
		c-0.7,0.6-1.4,1.4-2.2,2.1l-0.8,0.8c-0.2,0.3-0.9,1.4-1.2,1.8c-0.4,0.4-0.9,0.8-1.4,1.1c-0.4,0.2-0.8,0.4-1.2,0.6
		c0.4-0.4,0.8-0.8,1-1.3C-6,37-5.7,36.7-5.4,36.2z"/>
	<path class="st47" d="M20.3,15.6l0.4,0.4c0.1,0.2,0.1,0.5,0.2,0.7c0,0.8-0.3,1.6-0.9,2.1c-0.3,0.3-0.8,0.5-1.3,0.5
		c-0.2,0-0.4-0.1-0.5-0.3s-0.1-0.4,0-0.6l0.4-1.9C18.7,15.8,19.4,15,20.3,15.6z"/>
	<path class="st47" d="M3.7,12.9c-0.1,0.1-0.3,0.2-0.5,0.2c-0.1,0.2-0.3,0.4-0.3,0.6C2.6,14.5,2.7,15.3,3,16
		c0.1,0.4,0.6,0.7,1.1,0.9c0.2,0,0.4,0.1,0.6-0.1s0.3-0.4,0.2-0.6l0.2-1.9C5.2,13.6,4.7,12.6,3.7,12.9z"/>
	<path class="st45" d="M6.3,9c-0.9,1.1-1.3,2.5-1.4,3.9c-0.1,1.3-0.3,3.8-0.3,4.2c0.3,2.3,3.6,4.4,3.9,4.6c1.2,0.8,2.8,1,4.2,0.6
		c2.1-0.4,4-1.6,5.3-3.4c0.6-1,1-2.2,1.1-3.4c0.2-1.3,0.3-2.6,0.2-3.9c-0.4-1.2-1.2-2.3-2.4-2.8C15,8.2,13,7.8,11,7.6
		C9.3,7.4,7.6,7.9,6.3,9z"/>
	<path class="st48" d="M5.1,13.8c0.4-1.7,1-4.2,2.3-4.6c1-0.4,4.1,0.6,5.5,0.8c1.7,0.1,3.3,0.4,5,0.7c0.6,0.1,1,0.5,1.2,1.1
		c0.2,1.5,0.1,3.1-0.1,4.6c0.4-0.3,0.6-0.7,0.7-1.2c0.6-1.5,0.9-3.2,0.7-4.8c-0.5-1.9-1.9-3.5-3.7-4.3c-1.8-0.6-3.8-0.9-5.7-0.9
		C9.2,5.2,7.5,6,6.4,7.4c-0.8,1.5-1.3,3.2-1.3,4.9C4.7,13.9,4.9,14.3,5.1,13.8z"/>
	<path class="st38" d="M10.3,17.5c0.1-0.1,0.3,0.4,1,0.5s1-0.2,1.1-0.1s-0.1,0.7-0.9,0.6S10.1,17.6,10.3,17.5z"/>
	<path class="st49" d="M6.3,14.5c0.1-0.7,1.3-1,2.3-0.9s1.8,0.8,1.7,1.4s-0.9,1-2,0.9S6.2,15.2,6.3,14.5z"/>
	<path class="st50" d="M8.9,12.2c-0.4-0.1-0.9-0.1-1.3,0c-0.2,0.1-0.3,0.1-0.5,0.1c0,0,0.1-0.8,1.7-0.6c1.2,0.2,1.7,0.8,1.6,0.9
		S9.7,12.3,8.9,12.2z"/>
	
		<ellipse transform="matrix(0.9988 -4.988674e-02 4.988674e-02 0.9988 -0.7267 0.4373)" class="st51" cx="8.4" cy="14.8" rx="1.2" ry="1"/>
	<circle class="st52" cx="7.7" cy="14.6" r="0.4"/>
	<path class="st50" d="M8.7,13.3c0.8,0.1,1.5,0.7,1.7,1.5c-0.1,0.9,0-1-1.8-1.2c-0.9-0.2-1.9,0.2-2.3,1.1
		C6.4,13.2,7.8,13.2,8.7,13.3z"/>
	<path class="st50" d="M15.6,13.3c0.4,0,0.8,0.2,1.2,0.4c0.2,0.1,0.3,0.2,0.5,0.3c0-0.1,0.1-0.8-1.4-1.1c-1.2-0.2-1.8,0.2-1.8,0.3
		S15,13.2,15.6,13.3z"/>
	<path class="st49" d="M13.4,15.5c0.1-0.6,1.3-1,2.3-0.8s1.8,0.8,1.7,1.4c-0.1,0.6-0.9,1-2,0.9S13.3,16.2,13.4,15.5z"/>
	
		<ellipse transform="matrix(0.9988 -4.988890e-02 4.988890e-02 0.9988 -0.7779 0.788)" class="st51" cx="15.4" cy="16" rx="1.2" ry="1"/>
	<circle class="st52" cx="14.7" cy="15.7" r="0.4"/>
	<path class="st50" d="M15.7,14.5c0.8,0.1,1.5,0.7,1.7,1.5c0.1,0.9,0-1-1.8-1.2c-0.9-0.2-1.9,0.2-2.3,1.1
		C13.5,14.3,14.9,14.3,15.7,14.5z"/>
	<path class="st53" d="M14.4,23.8L14.4,23.8c0.1,0,0.2,0,0.3,0.1h0.1c0.1,0,0.1,0,0.1,0.1H15c1.2,0.7,3.3,1.1,4.4,2
		c0.8,0.8,2.1,5.1,3.2,6.3c0.1,0.1,0.2,0.3,0,0.5l0,0C22,33.2,21,33.9,20.8,34c-0.7,0.3-1.4,0.5-2.1,0.7c-0.3,0.1-0.7,0-0.7-0.3
		c-0.1-0.3-0.2-0.7-0.4-1c-0.2,0-0.3-0.1-0.5-0.1l0,0c-0.6,1.5-1,3.1-1.2,4.7c-0.1,0.7-0.2,1.5-0.3,2.6c0,0.3-0.1,0.7-0.1,1.2
		c-0.1,2.2,0.1,5.3-0.2,6.5c0,0.2-0.3,0.3-0.5,0.3c-2.7-0.3-5.6-0.8-8.3-1.1c-1.4-0.2-2.9-0.4-4.2-0.7c-1.1-0.3-2.5-0.8-3.6-1
		c-0.3-0.1-0.5-0.3-0.4-0.5c0.3-1.2,0.8-2.3,1.3-3.4c0.1-0.3,0.2-0.5,0.2-0.8c0.1-0.3,0.2-0.6,0.2-0.9c0.1-0.2,0.1-0.5,0.2-0.7
		c0.1-0.5,0.2-0.9,0.2-1.4c0.1-0.5,0.2-1.1,0.3-1.6c0-0.6,0.2-1.2,0.4-1.7c0.3-0.8,0.4-1.6,0.5-2.5l0,0c0-0.3,0.2-0.6,0.2-0.9V31
		H1.4c-0.3,0-0.8,0.5-0.9,0.4c-0.9-0.5-1.8-1.1-2.6-1.7l-1-1c-0.1-0.1-0.2-0.3,0-0.5l0,0c0.6-0.8,2.6-2.9,2.8-3.2
		c0.4-0.5,0.8-0.9,1.3-1.3c0.1-0.2,0.7-0.4,1-0.6c0.5-0.1,1-0.2,1.5-0.2c0.8-0.1,1.5-0.2,2.3-0.3h0.1c0.1,0,0.5-0.1,0.6-0.1
		c0.2,0.3,0.2,3.7,3.1,4.2C13.7,27.4,14.2,23.8,14.4,23.8z"/>
	<path class="st54" d="M14.4,23.8c0.2,0.1,0.4,0.2,0.6,0.2h0.1c1.4,0.4,2.8,1,4.1,1.8c1.1,0.7,1.5,2.6,1.9,3.8
		c-0.2,0.1-0.5,0.3-0.7,0.4c-0.6-1.1-0.9-2.6-1.8-3.4c-1.1-0.9-2.3-1.5-3.6-1.9h-0.1c-0.3-0.2-0.6-0.3-0.9-0.4
		C14.2,24.2,14.3,24,14.4,23.8z"/>
	<path class="st54" d="M6.6,22.5H5.9c-1.3-0.1-2.6,0-3.9,0.4c-1.3,0.4-2.7,2.5-3.5,3.4l0.6,0.6C0,26.1,1.3,24.4,2.4,24
		s2.2-0.6,3.3-0.6h0.1c0.3,0,0.5-0.1,0.9-0.1C6.6,23,6.6,22.8,6.6,22.5z"/>
	<path class="st54" d="M1.8,31.2L1.8,31.2c0.4-0.7,0.6-1.4,0.7-2.2c0.1-0.3,0.1-0.5,0.2-0.8c0.1-0.3,0.2-0.6,0.2-0.9
		C3,26.9,3.2,26.4,3.3,26c0.1-0.8,0-1.6-0.2-2.3h0.1c0.3,0.7,0.3,1.5,0.2,2.3c-0.1,0.5-0.2,0.9-0.4,1.4c-0.1,0.3-0.2,0.5-0.2,0.8
		c-0.1,0.3-0.1,0.5-0.2,0.8C2.5,29.8,2.3,30.6,1.8,31.2z"/>
	<path class="st54" d="M17,33.3c-0.3-0.1-0.5-1.2-0.5-1.8c-0.3-2,0-4.1,0.6-6h0.1c-0.6,1.9-0.8,4-0.6,6C16.6,32.1,16.8,32.7,17,33.3
		z"/>
	<path class="st55" d="M15,24L15,24L15,24c-0.4,1-1,1.9-1.8,2.5c-0.9,0.8-2.2,1.1-3.4,0.9c-0.5,0-1-0.2-1.4-0.4
		c-0.6-0.3-1.1-0.7-1.5-1.2c-0.7-0.9-1.1-2-1-3.1v-0.1H6c0.2-0.1,0.4-0.1,0.6-0.1l0,0c0.1,1.1,0.5,2.1,1.1,3
		c0.3,0.4,0.7,0.7,1.1,0.9c0.3,0.2,0.6,0.3,1,0.3c0.9,0.1,1.9-0.1,2.7-0.6c0.8-0.6,1.3-1.3,1.7-2.2l0.1-0.1"/>
	<path class="st54" d="M15,24L15,24c-0.1,0.2-0.2,0.5-0.3,0.7l0,0c-0.4,0.7-0.9,1.3-1.5,1.8c-1,0.8-2.2,1.1-3.4,0.8
		c-0.5-0.1-1-0.2-1.4-0.4c-0.6-0.3-1.1-0.7-1.5-1.2c-0.6-0.7-0.9-1.5-1-2.4c0-0.2,0-0.5-0.1-0.7v-0.1l0,0c0,0.2,0,0.5,0.1,0.7
		c0.1,0.9,0.4,1.7,1,2.4c0.4,0.5,1,0.9,1.5,1.2c0.3,0.2,0.7,0.3,1.1,0.4h0.3c1.2,0.2,2.5-0.1,3.4-0.9c0.6-0.5,1.1-1.1,1.5-1.8L15,24
		L15,24z M14.4,23.8L14.4,23.8c-0.1,0.3-0.3,0.5-0.5,0.8c-0.3,0.6-0.7,1.1-1.3,1.5c-0.8,0.5-1.8,0.7-2.7,0.6H9.6
		c-0.3-0.1-0.5-0.1-0.7-0.3c-0.4-0.2-0.8-0.5-1.1-0.9c-0.5-0.6-0.8-1.3-1-2.1l0,0c-0.1-0.3-0.1-0.6-0.1-0.9l0,0
		c0,0.3,0.1,0.6,0.1,0.8c0.2,0.8,0.5,1.5,1,2.2c0.3,0.4,0.7,0.7,1.1,0.9c0.3,0.2,0.6,0.3,1,0.3c0.9,0.1,1.9-0.1,2.7-0.6
		c0.6-0.4,1.1-1,1.4-1.6C14.1,24.2,14.2,24,14.4,23.8z"/>
	<path class="st56" d="M17.7,33.3c-0.2,0-0.4-0.1-0.6,0C17,33.2,17,33.1,16.9,33c-0.2-0.3-0.3-0.6-0.4-1s-0.1-0.9,0-1.3
		c0-0.4-0.1-0.8-0.1-1.3c0.2,0.6,0.3,1.2,0.4,1.8c0.1,0.4,0,0.8,0.4,1.2c0.1,0.1,0.2,0.3,0.2,0.5C17.5,33,17.7,33.2,17.7,33.3z"/>
	<path class="st56" d="M2.5,29.8c-0.1,0.6-0.4,1.1-0.7,1.6V31H1.4c0.1-0.3,0.3-0.5,0.4-0.8s0.2-0.5,0.3-0.7c0.2-0.6,0.4-1.3,0.6-1.9
		c0.1,0.1,0.1,0.2,0.1,0.4s-0.1,0.3-0.1,0.4C2.6,28.8,2.6,29.3,2.5,29.8z"/>
	<path class="st45" d="M27.4,22.7c0-0.3,6.5-0.8,6.5-0.8c-0.1,0.7-0.2,1.4-0.2,2.1c0.1,0.7,0.4,1.3,0.7,1.9c-0.7,1-1.8,1.6-3,1.7
		c-2.2,0.3-3.2-0.9-3.2-1s-0.1-0.9-0.1-1.7C28,24.1,27.7,23.4,27.4,22.7z"/>
	<path class="st38" d="M28.2,24.7c1.4,0.7,3.1,0.6,4.4-0.2c0.4-0.2,0.7-0.5,0.9-0.9c0.1-0.2,0.1-0.3,0-0.5v-0.5h-0.3
		c-1.6,0.4-3.2,0.6-4.8,0.6c-0.3,0-0.4-0.1-0.7,0s-0.2,0-0.1,0.3C28,23.8,28.2,24.2,28.2,24.7z"/>
	<path class="st45" d="M31.2,26.6c-0.7,0.1-1.4,0-2-0.2c-0.4-0.2-0.7-0.5-1-0.8c-1,0.2-2,0.4-2.9,0.7c-0.5,0.2-1,0.4-1.5,0.7
		c-0.4,0.2-0.7,0.5-0.9,0.9c-0.2,0.5-0.5,1-0.7,1.5s-0.4,1.1-0.6,1.6c-0.5,1.6-1.1,3.1-1.8,4.6c-0.4,0.8-0.8,1.6-1.3,2.3
		c-0.6,0.8-1.3,1.5-1.8,2.2c-0.4,0.5-1.1,1.6-1.4,2c-0.6,1-1.2,2.1-1.6,3.2c-0.2,0.4-1.2,2.3-1.3,2.7s0,0.5,0.6,0.7s0.7-0.1,1.1,0.3
		c0.2-0.1,0.4-0.6,0.6-0.8s1.1-1.5,1.4-1.8s2.9-3.3,3.3-3.7c0.4-0.6,0.8-1.2,1.2-1.9c0.2-0.4,0.3-0.7,0.4-1.1
		c0.1-0.4,0.3-0.9,0.4-1.3c0.4-0.8,0.6-1.2,0.9-1.9c-0.1,0,0.8-1.6,1.1-2.5c0.5-1,1.6-3.5,1.7-2.5c0,0.3,1.7,8,1.9,10.3
		c0.1,1.5-0.1,3.1-0.4,4.6c-0.1,0.6-0.4,2.8-0.5,3.4c-0.1,1.6-0.2,3.1-0.1,4.7c0.1,1.5,0.3,2.7,0.4,4.2c0.1,1.3,0.3,2.6,0.6,3.9
		c0.4,1.5,0.8,2.9,0.9,3.5s0.6,1.8,0.4,2.4c-0.3,1.6-0.3,3.1,0,4.7c0.3,1.7,0.9,2.9,1.3,4.5c0.1,0.3,1.1,3,0.6,4.1
		c-0.2,0.5-0.6,1-1,1.4c-0.1,0.1-0.2,0.2-0.2,0.4c0,0.1,0,0.4,0.2,0.5h0.2c0.6,0,1.2-0.1,1.8-0.3c0.1,0,0.3-0.1,0.4,0
		s0.2,0.1,0.3,0.1c0.6,0.2,1.3,0,1.7-0.6c0.3-0.8-0.6-1.5-0.4-2.3c0.1-0.1,0-0.3,0-0.5c0.1-0.3,0-0.6-0.1-0.8c-0.2-1-0.3-2-0.3-3
		c-0.1-0.8-0.1-1.7,0-2.5c0.1-0.5,0.2-1.1,0.2-1.6c0-1-0.1-2.1-0.3-3.1c-0.2-0.7-0.3-1.5-0.3-2.2c0-1.3,0.2-2.6,0.5-3.9
		c0.2-1.7,0.2-8.1,0.2-8.4c0-0.4,0-0.8,0.2-1.2c0.2-0.3,0.4-0.6,0.8-0.6"/>
	<path class="st45" d="M31.2,26.6c-0.7,0.1-1.4,0-2-0.2c-0.4-0.2-0.7-0.5-1-0.8c-1,0.2-2,0.4-2.9,0.7c-0.5,0.2-1,0.4-1.5,0.7
		c-0.4,0.2-0.7,0.5-0.9,0.9c-0.2,0.5-0.5,1-0.7,1.5s-0.4,1.1-0.6,1.6c-0.5,1.6-1.1,3.1-1.8,4.6c-0.4,0.8-0.8,1.6-1.3,2.3
		c-0.6,0.8-1.3,1.5-1.8,2.2c-0.4,0.5-1.1,1.6-1.4,2c-0.6,1-1.2,2.1-1.6,3.2c-0.2,0.4-1.2,2.3-1.3,2.7s0,0.5,0.6,0.7s0.7-0.1,1.1,0.3
		c0.2-0.1,0.4-0.6,0.6-0.8s1.1-1.5,1.4-1.8s2.9-3.3,3.3-3.7c0.4-0.6,0.8-1.2,1.2-1.9c0.2-0.4,0.3-0.7,0.4-1.1
		c0.1-0.4,0.3-0.9,0.4-1.3c0.4-0.8,0.6-1.2,0.9-1.9c-0.1,0,0.8-1.6,1.1-2.5c0.5-1,1.6-3.5,1.7-2.5c0,0.3,1.7,8,1.9,10.3
		c0.1,1.5-0.1,3.1-0.4,4.6c-0.1,0.6-0.4,2.8-0.5,3.4c-0.1,1.6-0.2,3.1-0.1,4.7c0.1,1.5,0.3,2.7,0.4,4.2c0.1,1.3,0.3,2.6,0.6,3.9
		c0.4,1.5,0.8,2.9,0.9,3.5s0.6,1.8,0.4,2.4c-0.3,1.6-0.3,3.1,0,4.7c0.3,1.7,0.9,2.9,1.3,4.5c0.1,0.3,1.1,3,0.6,4.1
		c-0.2,0.5-0.6,1-1,1.4c-0.1,0.1-0.2,0.2-0.2,0.4c0,0.1,0,0.4,0.2,0.5h0.2c0.6,0,1.2-0.1,1.8-0.3c0.1,0,0.3-0.1,0.4,0
		s0.2,0.1,0.3,0.1c0.6,0.2,1.3,0,1.7-0.6c0.3-0.8-0.6-1.5-0.4-2.3c0.1-0.1,0-0.3,0-0.5c0.1-0.3,0-0.6-0.1-0.8c-0.2-1-0.3-2-0.3-3
		c-0.1-0.8-0.1-1.7,0-2.5c0.1-0.5,0.2-1.1,0.2-1.6c0-1-0.1-2.1-0.3-3.1c-0.2-0.7-0.3-1.5-0.3-2.2c0-1.3,0.2-2.6,0.5-3.9
		c0.2-1.7,0.2-8.1,0.2-8.4c0-0.4,0-0.8,0.2-1.2c0.2-0.3,0.4-0.6,0.8-0.6"/>
	<path class="st45" d="M30.9,26.6c0.7-0.1,1.3-0.3,1.9-0.6c0.4-0.2,0.7-0.6,0.8-1c1-0.1,2,0,3,0.1c0.5,0.1,1.1,0.2,1.6,0.3
		c0.4,0.1,0.8,0.4,1.1,0.7c0.3,0.5,0.6,0.9,1,1.3c0.3,0.5,0.6,1,0.9,1.5c0.6,1,2.1,3.3,2.7,4.1c0.5,0.7,1.1,1.4,1.7,2
		c0.7,0.6,1.5,1.2,2.3,1.7c0.5,0.4,1.4,1.3,1.8,1.7c0.5,0.6,2,2.3,2.3,2.7s1.6,2,1.9,2.4s0.1,0.5-0.5,0.8s-0.7,0.1-1,0.5
		c-0.2-0.1-0.5-0.5-0.7-0.6c-0.4-0.3-1.4-1.2-1.8-1.5l-4-2.9c-0.6-0.5-1.1-1-1.6-1.6c-0.3-0.4-0.5-0.7-0.7-1s-0.5-0.8-0.7-1.2
		c-0.6-0.5-1.1-1-1.5-1.6c0.1,0-1.1-1.4-1.7-2.2s-2.3-3.1-2.2-2c0,0.3,0.1,8.2,0.4,10.5c0.3,1.5,0.8,3,1.4,4.4
		c0.5,1,0.9,2.1,1.2,3.2c0.5,1.5,0.9,3,1.2,4.5s0.3,2.7,0.6,4.2c0.2,1.3,0.3,2.6,0.2,3.9c0,1.6-0.1,3-0.1,3.6s-0.2,1.9,0.2,2.5
		c0.6,1.4,0.9,3,1,4.5c0,1.6-0.1,3.1-0.3,4.7c-0.1,0.3-0.4,3.1,0.3,4.1c0.3,0.5,0.8,0.8,1.3,1.1c0.1,0.1,0.3,0.3,0.3,0.4
		s0,0.4-0.1,0.5h-0.2c-0.6,0.2-1.2,0.2-1.8,0.1c-0.1,0-0.3-0.1-0.4,0s-0.2,0.1-0.3,0.1c-0.6,0.4-1.3,0.3-1.8-0.2
		c-0.5-0.7,0.3-1.6-0.2-2.4c-0.1-0.1,0-0.3-0.1-0.5c-0.1-0.3-0.1-0.5-0.1-0.8c0-1-0.1-2-0.3-3c-0.1-0.8-0.3-1.6-0.6-2.4
		c-0.2-0.5-0.4-1-0.5-1.5c-0.2-1-0.3-2.1-0.3-3.1c0-0.8-0.1-1.5-0.2-2.3c-0.3-1.3-0.8-2.5-1.4-3.7c-0.6-1.7-2-8-2-8.3
		c-0.1-0.4-0.3-0.8-0.5-1.1c-0.2-0.3-0.5-0.5-0.9-0.4"/>
	<path class="st47" d="M38.2,14.9c0.2,0.1,0.3,0.2,0.4,0.3c0.2,0.2,0.2,0.4,0.3,0.6c0.3,0.8,0.2,1.8-0.3,2.5
		c-0.2,0.4-0.6,0.8-1.1,0.8c-0.2,0-0.4,0-0.6-0.1c-0.2-0.1-0.2-0.4-0.2-0.6c-0.1-0.7-0.1-1.4-0.1-2.1C36.7,15.5,37.2,14.5,38.2,14.9
		z"/>
	<path class="st47" d="M21.9,16.7c-0.2,0.1-0.3,0.2-0.3,0.3c-0.2,0.2-0.1,0.4-0.2,0.6c-0.1,0.9,0.2,1.7,0.8,2.4
		c0.3,0.4,0.8,0.6,1.3,0.6c0.2,0,0.4,0,0.5-0.3c0.1-0.2,0.1-0.4,0-0.6c-0.1-0.7-0.2-1.3-0.3-2C23.4,16.9,22.7,16.1,21.9,16.7z"/>
	<path class="st45" d="M23.2,11.9c-0.6,1-0.5,3.3-0.3,4.4c0.2,1.5,0.6,3,1,4.4c0.9,2.4,4.6,3.6,4.9,3.7c1.4,0.5,2.9,0.2,4.1-0.6
		c1.9-1.1,3.4-2.9,4-5c0.3-1.2,0.3-2.5,0.1-3.7c-0.2-1.4-0.4-2.8-0.8-4.2c-0.6-1.2-1.8-2-3.1-2.1c-1.9-0.2-3.9,0-5.8,0.4
		C25.6,9.5,24.1,10.4,23.2,11.9z"/>
	<path class="st38" d="M29.4,19.6c0.1-0.1,0.3,0.3,1.1,0.2s0.8-0.5,1-0.4s0.2,0.7-0.7,0.9C29.6,20.4,29.2,19.8,29.4,19.6z"/>
	<path class="st57" d="M26.6,14.5c-0.5,0.1-0.9,0.2-1.3,0.3c-0.2,0-0.3,0.2-0.4,0.3c0-0.1-0.1-0.9,1.5-1.1c1.3-0.1,1.7,0.3,1.7,0.5
		S27.3,14.4,26.6,14.5z"/>
	<path class="st57" d="M33.1,13.8c0.4-0.1,0.9,0,1.3,0.1c0.2,0.1,0.3,0.1,0.5,0.2c0-0.1-0.1-0.9-1.7-0.7c-1.3,0.1-1.6,0.7-1.5,0.9
		C32.1,14.1,32.6,13.9,33.1,13.8z"/>
	<path class="st48" d="M22.3,15.5c-0.1-0.7-0.1-1.3-0.1-1.6c0-0.5,0.1-1.1,0.2-1.6v-0.2C22.2,12,22,12,21.9,12.2
		c-0.1,0.1-0.2,0.2-0.2,0.3c-0.2,0.3-0.6,0.5-1,0.4c-0.4,0-0.7-0.3-0.8-0.6c0-0.2-0.1-0.5-0.2-0.7c-0.8,0.3-1.7-0.1-2-0.8
		C17.5,10,18,9.3,18.8,9.1h0.1c-0.3-0.5-0.5-1-0.5-1.6c0.2-0.4,0.6-0.7,1.1-0.8c0.4,0,1.1,0.2,1.2,0.6c0.2-0.6,0.9-1,1.5-0.8
		c0.1,0,0.2,0.1,0.3,0.1C23,6.9,23.4,7.5,22.9,8c0.4-0.1,0.5-0.2,0.8-0.1s0.5,0.2,0.5,0.5c0.2,0.6-0.7,1-0.6,1.4
		c0.3,0.5,0.6-0.3,1-0.4c1.2-0.8,2.5-1.4,3.9-1.7s2.8-0.3,4.2-0.1C33.4,7.7,34,8,34.6,8.3c0.1,0,0.3-0.1,0.3-0.2V8
		c0.1-0.3-0.3-0.7-0.3-1c-0.2-0.7,0.5-1.4,1.6-1c-0.4-0.5-0.3-1.1,0.2-1.5c0.2-0.1,0.4-0.2,0.6-0.2c0.7-0.3,1.5,0.1,1.7,0.8
		c0,0.1,0,0.1,0.1,0.2c0,0.2-0.2,0.3,0,0.4s0.4-0.1,0.5-0.3c0.5-0.1,1,0.1,1.4,0.5c0.4,0.4,0.5,0.9,0.4,1.4c-0.2,0.6-0.7,0.6-1,0.7
		l0.4,0.3c0.3,0.5,0.3,1.1-0.1,1.6c-0.4,0.5-1.5,0.6-1.8,0.1c-0.1-0.1-0.3,0-0.4,0.1c-0.1,0.1-0.2,0.2-0.2,0.3
		c-0.2,0.1-0.3-0.3-0.5-0.4S37,10.2,37,10.3c0.6,0.3,0.5,1.3,0.7,2c0,0.8,0,1.5,0,2.3c-0.1,0.4-0.2,1.8-0.6,1.7
		c-0.1-1.2-0.4-2.4-0.8-3.6c-0.2-0.7-0.6-1.3-1.1-1.8c-0.5-0.4-1.1-0.6-1.7-0.7c-2.2-0.3-4.4-0.2-6.5,0.5c-0.8,0.2-1.6,0.5-2.3,0.9
		L24.2,12c-0.2,0.2-0.6,0.5-0.9,1c-0.4,0.7-0.4,1.4-0.4,1.7c0,0.5,0.1,1.1,0.1,1.6c0,0.6,0.1,1.2,0.1,1.8c-0.1-0.3-0.3-0.7-0.5-1.2
		C22.5,16.3,22.4,16,22.3,15.5z"/>
	<path class="st58" d="M21.9,9.8c0.3-0.8,1.2-1.2,2-0.9C24,8.9,24.1,9,24.2,9c0,0.2,0.1,0.4,0.3,0.5c0.2,0-0.8,0.6-1.2,1.3
		c-0.2,0.4-0.4,0.8-0.5,1.2c0,0-0.3-0.1-0.5-0.2c-0.1,0-0.3-0.1-0.4-0.2C21.5,11.1,21.5,10.4,21.9,9.8z"/>
	<path class="st58" d="M37.3,7.9c-0.5-0.8-1.4-1-2.2-0.5c-0.1,0.1-0.2,0.1-0.3,0.2c0,0.2-0.2,0.3-0.4,0.5c-0.2,0,1.1,0.6,1.6,1.2
		c0.3,0.3,0.6,0.7,0.8,1.1c0.2-0.1,0.4-0.3,0.6-0.4C38,9.4,37.9,8.4,37.3,7.9z"/>
	<path class="st49" d="M25,17.5c-0.1-0.7,0.9-1.3,1.8-1.4c0.7-0.1,1.8,0.3,1.9,1c0.1,0.7-0.5,1.3-1.5,1.4S25.1,18.2,25,17.5z"/>
	<ellipse transform="matrix(0.5666 -0.824 0.824 0.5666 -2.5499 29.7066)" class="st51" cx="27" cy="17.3" rx="1.1" ry="1"/>
	<circle class="st52" cx="26.4" cy="17.2" r="0.4"/>
	<path class="st50" d="M26.9,15.7c0.8-0.1,1.6,0.3,1.9,1.1c0.3,0.9-0.3-1-2-0.8c-1,0.1-1.7,0.8-1.8,1.8C24.7,16.2,26,15.8,26.9,15.7
		z"/>
	<path class="st49" d="M31.7,16.8c-0.1-0.7,0.9-1.3,1.8-1.4c0.7-0.1,1.8,0.3,1.9,1c0.1,0.7-0.5,1.3-1.5,1.4S31.8,17.5,31.7,16.8z"/>
	<ellipse transform="matrix(0.5666 -0.824 0.824 0.5666 1.0509 34.8925)" class="st51" cx="33.7" cy="16.4" rx="1.1" ry="1"/>
	<circle class="st52" cx="33.1" cy="16.5" r="0.4"/>
	<path class="st50" d="M33.6,14.9c0.8-0.1,1.6,0.3,1.9,1.1c0.3,0.9-0.3-1-2-0.8c-1,0.1-1.7,0.8-1.8,1.8C31.4,15.4,32.7,15,33.6,14.9
		z"/>
	<path class="st59" d="M25.3,28.7c0.1-0.1,0.1-0.2,0.2-0.3C25.3,28.5,25.3,28.6,25.3,28.7z"/>
	<path class="st59" d="M25.3,28.7c-0.4,0.8-0.9,1.6-1.4,2.3c0.4,0.1,0.8,0.2,1.2,0.2v0.2c0.1-0.3,0.1-0.6,0.1-0.9
		C25.3,30,25.1,29.2,25.3,28.7z"/>
	<path class="st59" d="M41.1,24.2c0.1-0.1,0.1-0.2,0.2-0.2c-0.7,0.1-1.4,0.2-2,0.5L41.1,24.2z"/>
	<path class="st59" d="M20.8,26.7L20.8,26.7c0.3,0.3,0.1,0.6,0,0.8s-0.1,0.2-0.1,0.3c1-0.3,2-0.8,3-1.3
		C22.8,26.6,21.7,26.6,20.8,26.7z"/>
	<path class="st59" d="M24.5,26.9c-0.8,0.4-1.7,0.9-2.4,1.5c-0.1,0.1-0.2,0.1-0.3,0.2s0.1,0.2,0.2,0.3c0.2,0.2,0.4,0.4,0.7,0.5h0.2
		C23.2,28.5,23.8,27.6,24.5,26.9z"/>
	<path class="st59" d="M40.6,26.2c0.1,0,0.1,0,0.3-0.1c0.2,0,0.3-0.1,0.4-0.2v-0.3c-0.8-0.2-1.6-0.2-2.4-0.2
		C39.4,25.7,40,26,40.6,26.2z"/>
	<path class="st60" d="M41.9,23.2c-1.6-0.1-3.2,0.4-4.5,1.2l0,0c-0.3,0-0.5,0-0.8,0.1l0,0c-0.1,0-0.1,0.1,0,0.2
		c-0.3,1.5-1.2,2.8-2.4,3.7c-0.8,0.7-1.9,1.3-2.7,2c-0.9-0.5-2.1-0.9-3.1-1.4c-1.3-0.7-2.4-1.8-3.1-3.1v-0.2h-0.1
		c-0.3,0-0.5,0-0.8,0.1l0,0c-1.5-0.5-3.2-0.6-4.7-0.1c-0.1,0-0.1,0-0.1,0.1c0,0.2,0.3,0.2,0.5,0.3c0.3,0.1,0.6,0.3,0.8,0.6
		c1-0.1,2,0,3-0.2c-1,0.5-2,1-3,1.3c0,0.1,0,0.2,0.1,0.3c0.1,0.2,0.2,0.2,0.4,0.1s0.4,0,0.5,0.2c0,0.1,0,0.1,0.1,0.1
		c0.1-0.1,0.2-0.1,0.3-0.2c0.7-0.6,1.5-1.1,2.4-1.5c-0.8,0.7-1.3,1.5-1.7,2.5h0.2c0.2,0.1,0.3,0.5,0.4,0.7s0.1,0.7,0.5,0.9l0,0
		c0.4-0.8,1-1.6,1.4-2.3c0-0.1,0.1-0.2,0.2-0.3c0,0.1-0.1,0.2-0.2,0.3c-0.1,0.6-0.1,1.3,0,1.9c0,0.3-0.1,0.6-0.1,0.9
		c0.1,0.5,0.2,1,0.2,1.5c0.5,1.8,1.5,3.5,1.4,5.3c-0.1,1.1-0.4,2.2-0.5,3.3s0.1,2-0.7,2.9c-0.1,0.2-0.3,0.4-0.5,0.6
		c-0.2,0.6-0.5,1.2-0.8,1.7c-0.1,0.1,0,0.2,0.1,0.2c1.2,0.2,2.5,0.3,3.7,0.4c1,0.1,2,0.1,2.9,0.1h2.1l1.2-0.3
		c0.3-0.1,0.6-0.1,0.9-0.2c0.9-0.2,1.9-0.5,2.8-0.8c1.2-0.4,2.4-0.8,3.5-1.2c0.1,0,0.2-0.2,0.1-0.2c-0.3-0.2-0.5-0.5-0.7-0.8
		c-0.2-0.1-0.4-0.3-0.6-0.4c-2.1-1.2-2-3.6-2.5-5.4c-0.1-0.9-0.2-1.8-0.1-2.7c-0.1-0.7-0.1-1.5,0-2.2c-0.1-0.7-0.1-1.4-0.2-2.1
		c-0.4-1.6-0.6-4.2,0.4-5.8c0.2,1.4,0.3,2.9,0.3,4.3c0.2-0.1,0.3-0.2,0.5-0.3c0.4-0.3,0.3-0.7,0.3-1c0-0.1,0-0.4,0.1-0.5
		c-0.1-0.4-0.2-0.8-0.2-1.2l0.8,0.8c0.2-0.1,0.3-0.3,0.4-0.5c0.1-0.1,0.1-0.3,0.1-0.4c0-0.1,0.1-0.2,0.2-0.3
		c-0.6-0.3-1.3-0.5-1.8-0.8c0.8,0,1.6,0,2.4,0.2c-0.1-0.4-0.5-0.7-0.3-1.1c0-0.1,0.1-0.2,0.2-0.3c-0.6,0.1-1.2,0.2-1.8,0.2
		c0.7-0.2,1.3-0.4,2-0.5l0.3-0.3c0.2-0.1,0.4-0.2,0.4-0.4C42,23.3,41.9,23.2,41.9,23.2z"/>
	<path class="st59" d="M38.1,25.3c-0.8,1.9-0.9,4-0.3,5.9v-0.1c0-0.4-0.1-0.9-0.1-1.3c0.2-0.1,0.5-0.2,0.7-0.3
		C38.4,28.1,38.3,26.7,38.1,25.3z"/>
	<path class="st59" d="M39.2,27.8c0-0.1,0.1-0.1,0.1-0.2c0.1-0.1,0.2-0.1,0.3-0.1s0.1,0,0.2-0.1L39,26.6C39,27,39.1,27.4,39.2,27.8z
		"/>
	<path class="st61" d="M2,49.5c3.8,14,13.3,24.8,25,26.9c16.7,3.1,21.6-2.5,26.8-9c3.1-3.8,5.2-10.3,5.5-18.9
		c0.2-6.4-1.5-12.9-2.6-23c12.1-0.1,24.2-0.2,36.3-0.3c13.6-0.2,27.2-0.3,36.3-0.3c0,26.4-0.1,52.8-0.1,79.2c-42.5,0-85,0-127.5,0.1
		C1.8,85.9,1.9,67.7,2,49.5z"/>
	<g>
		<path class="st37" d="M9.2,19c0.4,0.4,1.1,0.9,1.9,1c0.9,0.2,1.7-0.2,1.7,0c0,0.1-0.6,0.6-1.4,0.7c-0.5,0-0.9-0.1-1-0.2
			C9.6,20.1,9.3,19.2,9.2,19z"/>
		<path class="st38" d="M10.3,20.7c0.1,0.1,0.1,0.2,0.3,0.2c0.1,0,0.2-0.1,0.3,0c0.1-0.1,0.2,0,0.1,0.1c0,0-0.1,0.2-0.4,0.1
			c-0.3-0.1-0.3-0.2-0.4-0.3S10.3,20.7,10.3,20.7z"/>
	</g>
	<g>
		<path class="st37" d="M28.5,21.2c0.5,0.3,1.3,0.5,2.1,0.4c0.9-0.2,1.5-0.7,1.6-0.6c0.1,0.1-0.4,0.8-1.1,1.1
			c-0.5,0.2-0.9,0.2-1,0.2C29.2,22.1,28.6,21.4,28.5,21.2z"/>
		<path class="st38" d="M30.1,22.5c0.1,0.1,0.2,0.2,0.4,0.1c0.1,0,0.2-0.1,0.2-0.1c0.1-0.1,0.2,0,0.1,0.1c0,0-0.1,0.2-0.3,0.2
			C30.2,22.8,30.1,22.7,30.1,22.5C29.9,22.5,30.1,22.5,30.1,22.5z"/>
	</g>
</g>
</svg>
