<svg xmlns="http://www.w3.org/2000/svg" viewBox="0 0 127.3 79.26"><path d="M15.7,34.2c.1-.3,6.7,1,6.9,1a14.17,14.17,0,0,0-.8,1.8,4.27,4.27,0,0,0,.2,1.9,4.06,4.06,0,0,1-3.5.8,3.49,3.49,0,0,1-2.9-1.8,9.43,9.43,0,0,1,.3-1.6C15.8,35.7,15.8,35,15.7,34.2Z" style="fill:#7f5449"/><path d="M16.5,36.7a4,4,0,0,0,4.2,1,2.1,2.1,0,0,0,1.1-.8,1.42,1.42,0,0,0,.2-.6l.1-.5v-.1c0-.1-.1-.1-.2-.1-1.6-.2-3.1-.3-4.7-.6-.2,0-.4-.2-.6-.2s-.1,0-.2.3A4.19,4.19,0,0,1,16.5,36.7Z" style="fill:#63413b"/><path d="M35.6,67.2a1.47,1.47,0,0,1-.5.6.55.55,0,0,1-.5.3c-.1,0-.1.1-.2.1s-.1.1-.1.2a.76.76,0,0,1-.1.4c0,.1.2.2.3.3s.2,0,.2-.1a2.84,2.84,0,0,0,1.1-.8,1.23,1.23,0,0,0,.4-.8c0-.2.2-.4.2-.6.1.6-.5,1.2-.7,1.8a.37.37,0,0,1-.1.3l-.4.4a2.18,2.18,0,0,0-.4.5V70c0,.1.1.2.2.3s.3.4.5.3a.22.22,0,0,0,.2-.2l.4-.4.3-.3a3.1,3.1,0,0,0,.9-1.8,1.7,1.7,0,0,0-.1-.7c-.1-.1-.1-.2-.2-.3v-.2c-.1-.2-.2-.3-.3-.5s-.4-.3-.6-.4-.3-.1-.3.1a4.33,4.33,0,0,0-.1.5C35.9,66.6,35.7,66.9,35.6,67.2Z" style="fill:#63413b"/><path d="M36.8,68.2c0,.2-.2.4-.2.6s-.3.4-.3.7c-.2.3-.3.6-.5.9,0,.1-.1.3-.1.4s.1.3,0,.5l.1.1a.3.3,0,0,0,.4,0c.1-.1.3-.3.3-.4.3-.6.7-1.2,1-1.9a12.51,12.51,0,0,0,.8-3.2,1.41,1.41,0,0,0-.1-.9c-.1-.3-.1-.8-.2-1.3a.1.1,0,0,0-.2,0c-.1-.1-.2-.3-.4-.4s-.3-.1-.5-.1a2.49,2.49,0,0,0-.8.1.68.68,0,0,0-.4.6.37.37,0,0,1-.1.3v.1c-.1.2-.3.3-.3.5s-.1.3-.1.5-.1.3-.2.5l-.5,1.3a.37.37,0,0,1-.1.3c.1.1.2.1.3.2l.5.1h.2c.1,0,.1-.1.1-.2.2-.3.3-.6.5-.9l.1,1.2v.4a10.1,10.1,0,0,1-.3,1.7,1.8,1.8,0,0,0-.2,1c0,.2.2.3.4.4s.4-.3.4-.4l.2-.7c0-.2.2-.4.2-.5a4.33,4.33,0,0,1,.1-.5,3.81,3.81,0,0,1,.3-1c-.2-.2-.3-.7-.5-.9h0c0-.1,0-.2-.1-.2a1,1,0,0,0-.2,1,.31.31,0,0,1,.1.2C36.8,68.1,36.7,68,36.8,68.2Z" style="fill:#7f5449"/><path d="M34.8,66.4h0c-.1.1-.2.3-.3.4s-.2.3.1.2l.4.1c.1,0,.2-.1.3-.2a.37.37,0,0,1,.1-.3v-.2c0-.1,0-.1-.1,0Z" style="fill:#b7825a"/><path d="M36.4,69.9c0,.1-.1.6-.1.7v.1h.1v-.2a1.15,1.15,0,0,0,0-.6Z" style="fill:#b7825a"/><path d="M35.8,65.9c0-.1,0-.1.1-.2a.25.25,0,0,1,.4.1c.1.1.2.2.2.3a3.35,3.35,0,0,1,0,1,3.35,3.35,0,0,1,0,1,.37.37,0,0,1-.1.3c0,.1-.1.3-.1.4-.1.4-.1.8-.2,1.2l-.1.5v.2a.9.9,0,0,1,0-1c.1-.3.1-.6.2-.9l.1-.8c0-.2.1-.4.1-.6s-.1-.7-.1-1.2c-.1.2-.2.5-.3.7s-.6.3-.5.2.2-.4.2-.5C35.6,66.3,35.7,66.2,35.8,65.9Z" style="fill:#63413b"/><path d="M36,69.6a1.8,1.8,0,0,0-.2,1,.1.1,0,0,0,.1.1v.5h-.1a.1.1,0,0,1-.1-.1c0-.1,0-.1-.1-.1v-.2a.88.88,0,0,1,.1-.7l.1-.3c0-.2,0-.2.2-.2l-.1.2" style="fill:#63413b"/><path d="M13.1,67.2a2.22,2.22,0,0,1,1.3.8,2.28,2.28,0,0,1,.3,1.1c.1.3-.6,6.9-.7,8.6a18.8,18.8,0,0,1-.2,4.1,22.36,22.36,0,0,0-1,2.1,11.15,11.15,0,0,0-.5,3.1,4.53,4.53,0,0,0,.3,1.6c.2,1,.2,1.8.3,2.7a21.82,21.82,0,0,1,.1,2.4,1.23,1.23,0,0,1-.2,1,3.55,3.55,0,0,0-.4.9.6.6,0,0,1,.1.4c.2.8-.9,1.5-.6,2.3a1.65,1.65,0,0,0,1.9.7c.1,0,.2-.1.3-.1s.3.1.4.1a12.61,12.61,0,0,0,2.8.5h.2c.2-.1.4-.3.3-.5a1.07,1.07,0,0,1-.2-.6,6.53,6.53,0,0,1-1-1.5,12.45,12.45,0,0,1,.1-4.4,19.64,19.64,0,0,0,1.7-4.6,11.09,11.09,0,0,0,.4-4.8,7.1,7.1,0,0,1-.1-2.5c.1-.7,1.2-2,1.7-3.5a27,27,0,0,0,.7-4.1c.2-1.6.4-3.6.6-5.2a36.84,36.84,0,0,0,0-4.7c0-.6.7-2.1.7-2.7s.6-4.8.7-5.2c.3-1.9.8-3.8,1.1-5.8.1-.5.4-3.1.5-3.8a5.64,5.64,0,0,0,.1-.7c.2-.9,1.1,2.1,1.4,3s1.1,2.6.8,2.5c.3.8.6,1.1.9,2,.1.4.4.9.5,1.3a9.25,9.25,0,0,0,.3,1,7.84,7.84,0,0,0,.9,2.1c.4.4,3.6,3.8,3.9,4.2s1.2,1.8,1.6,2.1.4.6.6.7a1.65,1.65,0,0,1,1.5-.5c.6,0,1-.1.7-.6a23.76,23.76,0,0,1-1.3-2.9,17.91,17.91,0,0,0-1.7-3.4,16.44,16.44,0,0,0-1.4-2.2c-.5-.7-1.3-1.6-1.9-2.4a19.65,19.65,0,0,1-1.3-2.5c-.4-1.1-1.4-3.9-1.6-4.9a15.43,15.43,0,0,0-.5-1.7,7,7,0,0,0-.6-1.7,3.18,3.18,0,0,0-1-1c-.5-.3-1.1-.6-1.7-.9-1.2-.5-1.9-.5-3.2-1a4,4,0,0,1-1.3.7,4.84,4.84,0,0,1-2.4.1" style="fill:#7f5449"/><path d="M18.3,39.6a5,5,0,0,1-2-.8,3.13,3.13,0,0,1-.9-1.1,19,19,0,0,0-3.4-.1,11,11,0,0,0-1.8.2,3.79,3.79,0,0,0-1.3.6,17.41,17.41,0,0,0-1.2,1.4c-.4.5-.7.9-1.1,1.5-.7.9-2.5,3.2-3.3,4.2a18.88,18.88,0,0,1-2,2c-.8.6-1.9,1.1-2.6,1.7s-1.6,1.2-2.1,1.6a36.33,36.33,0,0,0-2.8,2.7c-.4.5-1.9,1.9-2.3,2.3s-.2.6.5.8a1.93,1.93,0,0,1,1.2.9A5.58,5.58,0,0,0-6,57c.5-.2,1.7-1.2,2.2-1.4s4.7-2.4,5.1-2.7A9.58,9.58,0,0,0,3,51.1c.3-.5.3-.6.6-.8a4.81,4.81,0,0,0,.9-1.1l1.6-1.6c-.1,0,1.3-1.4,1.7-2.1.6-.7,2.5-3.4,2.3-2.4a1.08,1.08,0,0,0-.1.6c-.1.8-.7,3.2-.7,3.7-.4,1.9-.7,3.8-1,5.8-.1.4-1,4.7-1.1,5.1s-1,2-1.2,2.6c-.4.9-.4,3.6-.7,4.6-.4,1.6-.8,3.5-1.2,5.1a27,27,0,0,0-.7,4.1c-.1,1.6.5,3.1.4,3.8a9.43,9.43,0,0,1-1,2.3,9.47,9.47,0,0,0-1.3,4.7,40.08,40.08,0,0,0,.1,4.9A18.71,18.71,0,0,1,.3,94.6a4.18,4.18,0,0,1-1.5,1.1c.1,0-.1.2-.2.3s-.1.4.1.5h.2a8.42,8.42,0,0,0,2.7.4,1.09,1.09,0,0,0,.5.1c.1,0,.2.1.3.2a1.64,1.64,0,0,0,2-.1c.5-.6-.2-1.7.3-2.3.1-.1.3-.3.3-.4a1,1,0,0,0-.1-.9,1.23,1.23,0,0,1,.2-1c.2-.7.6-1.4.8-2.1a19.23,19.23,0,0,1,1.2-2.5,10,10,0,0,0,.8-1.4,11.15,11.15,0,0,0,.5-3.1c.1-1-.3-1.9-.2-2.3.3-1.3.8-2.6,1.2-4,.5-1.8,2.1-8.1,2.3-8.4s.3-.7.7-.9a1.52,1.52,0,0,1,1.3-.3" style="fill:#7f5449"/><path d="M5.8,61c.2-.5.5-1.2,1.1-1.2H7c3.7.5,15,1.9,15,2.2a1.62,1.62,0,0,1,0,1c-.3,2.4-4,3.6-7.8,4.9a1.78,1.78,0,0,1-1.1.1,3.92,3.92,0,0,1-1.4-.4c-1.9-1.2-5.9-3.7-6-5.8A5.38,5.38,0,0,1,5.8,61Z" style="fill:#000068"/><circle cx="13.7" cy="44.5" r="0.2" style="fill:#2d2d2d"/><circle cx="21.5" cy="45.7" r="0.2" style="fill:#2d2d2d"/><path d="M2.5,50.9a4.35,4.35,0,0,0,.4-.7c.2-.2.4-.5.7-.6a8.12,8.12,0,0,0,.9-1L5.6,47c.1-.2.3-.5.4-.7a1.42,1.42,0,0,1,.2-.6A8.34,8.34,0,0,0,7,44.5a2.19,2.19,0,0,1,.3-.5h.5a5,5,0,0,0,2.5-2.7,2.4,2.4,0,0,1,.7-1.2l.2.1a3.94,3.94,0,0,0,.1,2.4,1.07,1.07,0,0,1,.2.6c0,.2-.1.5-.1.7-.3,1.3.4,2.8.1,4.1-.2.5-.4,1-.6,1.4a3.26,3.26,0,0,0-.4,1.4l-.1.5c0,.2-.1.4-.1.6a5,5,0,0,1-.2,1.2c-.2.4-.3.8-.5,1.2a2.77,2.77,0,0,0-.1.9.3.3,0,0,1,0,.4c0,.1-.1.3-.1.4L9,57.3c-.1.2-.5.2-.7.1s-.1-.1-.2-.1c0-.2.1-.4.1-.6s.1-.3.1-.5l1.2-6.6.2-1,.2-1.1.3-2,.2-.9c.1-.4.1-.8.2-1.3,0-.2.1-.6-.1-.6s-.4.4-.4.5a7,7,0,0,0-1.3,1.7,17.49,17.49,0,0,1-1.6,2c-.7.6-1.4,1.4-2.2,2.1l-.8.8c-.2.3-.9,1.4-1.2,1.8a4.86,4.86,0,0,1-1.4,1.1,6.72,6.72,0,0,1-1.2.6,4.12,4.12,0,0,0,1-1.3A2.89,2.89,0,0,0,2.5,50.9Z" style="fill:#63413b"/><path d="M28.2,30.3l.4.4a6.37,6.37,0,0,1,.2.7,2.88,2.88,0,0,1-.9,2.1,1.66,1.66,0,0,1-1.3.5.55.55,0,0,1-.5-.3.64.64,0,0,1,0-.6l.4-1.9C26.6,30.5,27.3,29.7,28.2,30.3Z" style="fill:#704843"/><path d="M11.6,27.6a.76.76,0,0,1-.5.2c-.1.2-.3.4-.3.6a3.06,3.06,0,0,0,.1,2.3c.1.4.6.7,1.1.9.2,0,.4.1.6-.1s.3-.4.2-.6L13,29C13.1,28.3,12.6,27.3,11.6,27.6Z" style="fill:#704843"/><path d="M14.2,23.7a6.86,6.86,0,0,0-1.4,3.9c-.1,1.3-.3,3.8-.3,4.2.3,2.3,3.6,4.4,3.9,4.6a5.16,5.16,0,0,0,4.2.6,8.39,8.39,0,0,0,5.3-3.4A7.59,7.59,0,0,0,27,30.2a16.73,16.73,0,0,0,.2-3.9,4.42,4.42,0,0,0-2.4-2.8,29.41,29.41,0,0,0-5.9-1.2A6.44,6.44,0,0,0,14.2,23.7Z" style="fill:#7f5449"/><path d="M13,28.5c.4-1.7,1-4.2,2.3-4.6,1-.4,4.1.6,5.5.8a50.24,50.24,0,0,1,5,.7A1.51,1.51,0,0,1,27,26.5a17.81,17.81,0,0,1-.1,4.6,2,2,0,0,0,.7-1.2,10.05,10.05,0,0,0,.7-4.8,6.54,6.54,0,0,0-3.7-4.3,18.36,18.36,0,0,0-5.7-.9,5.69,5.69,0,0,0-4.6,2.2A10.23,10.23,0,0,0,13,27C12.6,28.6,12.8,29,13,28.5Z" style="fill:#230700"/><path d="M18.2,32.2c.1-.1.3.4,1,.5s1-.2,1.1-.1-.1.7-.9.6S18,32.3,18.2,32.2Z" style="fill:#63413b"/><path d="M17.1,33.8c.2-.1,1.1.5,1.8.6a5.43,5.43,0,0,0,1.8,0c.2-.1-.1.6-1.9.3S17.1,33.8,17.1,33.8Z" style="fill:#63413b"/><path d="M18.4,35.1c.1.1.2.1.3.2s.2-.1.3-.1.2,0,.1.1-.2.2-.4.1a.32.32,0,0,1-.3-.3Z" style="fill:#63413b"/><path d="M14.2,29.2c.1-.7,1.3-1,2.3-.9s1.8.8,1.7,1.4-.9,1-2,.9S14.1,29.9,14.2,29.2Z" style="fill:#ffecd8"/><path d="M16.8,26.9a2.85,2.85,0,0,0-1.3,0,1.75,1.75,0,0,1-.5.1s.1-.8,1.7-.6c1.2.2,1.7.8,1.6.9S17.6,27,16.8,26.9Z" style="fill:#230601"/><ellipse cx="16.3" cy="29.5" rx="1.2" ry="1" transform="translate(-1.45 0.85) rotate(-2.86)" style="fill:#290600"/><circle cx="15.6" cy="29.3" r="0.4" style="fill:#fcfcfc"/><path d="M16.6,28a2,2,0,0,1,1.7,1.5c-.1.9,0-1-1.8-1.2a2,2,0,0,0-2.3,1.1C14.3,27.9,15.7,27.9,16.6,28Z" style="fill:#230601"/><path d="M23.5,28a2.84,2.84,0,0,1,1.2.4c.2.1.3.2.5.3,0-.1.1-.8-1.4-1.1-1.2-.2-1.8.2-1.8.3S22.9,27.9,23.5,28Z" style="fill:#230601"/><path d="M21.3,30.2c.1-.6,1.3-1,2.3-.8s1.8.8,1.7,1.4-.9,1-2,.9S21.2,30.9,21.3,30.2Z" style="fill:#ffecd8"/><ellipse cx="23.3" cy="30.7" rx="1.2" ry="1" transform="translate(-1.5 1.2) rotate(-2.86)" style="fill:#290600"/><circle cx="22.6" cy="30.4" r="0.4" style="fill:#fcfcfc"/><path d="M23.6,29.2a2,2,0,0,1,1.7,1.5c.1.9,0-1-1.8-1.2a2,2,0,0,0-2.3,1.1C21.4,29,22.8,29,23.6,29.2Z" style="fill:#230601"/><path d="M11.4,59.4a3.57,3.57,0,0,1-.7.7,33.63,33.63,0,0,0,7.7,1.2,4.56,4.56,0,0,1-.4-.8,4.56,4.56,0,0,0,.4.8,32.69,32.69,0,0,0,4.4-.1c-.1-.9-.2-1.5-.2-1.5A51.91,51.91,0,0,1,7.4,57.3a5.26,5.26,0,0,1-.6,1.5,22.8,22.8,0,0,0,3.9,1.4A6,6,0,0,0,11.4,59.4Z" style="fill:#17bc9c"/><path d="M22.7,64.6c-.2-1.4-.1-2.6-.2-3.5a27.06,27.06,0,0,1-4,.1C19,62.2,19.8,63.6,22.7,64.6Z" style="fill:#61e5cc"/><path d="M1.4,76.4l10,1.6.1-1.5L1.8,74.8C1.2,76,1.4,76.4,1.4,76.4Z" style="fill:#17bc9c"/><path d="M12.4,76.4,12.2,78l9.6,1.1a4.81,4.81,0,0,0,.2-1.8Z" style="fill:#17bc9c"/><path d="M11.4,60.2a35.5,35.5,0,0,1-4.6-1.5c-.4.8-.9,2-1.6,3.3A9.77,9.77,0,0,0,11.4,60.2Z" style="fill:#6bedd4"/><path d="M10.7,60a6.89,6.89,0,0,1-5.4,1.9c-1.1,4.6-2.5,9.6-3.5,12.8l9.6,1.6,1.7-6.8,1.5-8.7A37,37,0,0,1,10.7,60Z" style="fill:#56dbc1"/><path d="M22.7,64.6a6.88,6.88,0,0,1-4.2-3.3,36.35,36.35,0,0,1-3.9-.4l-1.5,8.7-.6,6.9,9.6.9C22.2,74.2,22.6,69,22.7,64.6Z" style="fill:#49ceb4"/><path d="M22.3,38.5h0a.37.37,0,0,1,.3.1h.1a.1.1,0,0,1,.1.1h.1c1.2.7,3.3,1.1,4.4,2,.8.8,2.1,5.1,3.2,6.3a.33.33,0,0,1,0,.5c-.6.4-1.6,1.1-1.8,1.2a10.33,10.33,0,0,1-2.1.7c-.3.1-.7,0-.7-.3a6.89,6.89,0,0,0-.4-1A4.33,4.33,0,0,0,25,48h0a15.5,15.5,0,0,0-1.2,4.7c-.1.7-.2,1.5-.3,2.6,0,.3-.1.7-.1,1.2-.1,2.2.1,5.3-.2,6.5,0,.2-.3.3-.5.3-2.7-.3-5.6-.8-8.3-1.1-1.4-.2-2.9-.4-4.2-.7-1.1-.3-2.5-.8-3.6-1-.3-.1-.5-.3-.4-.5a19.89,19.89,0,0,1,1.3-3.4,2.35,2.35,0,0,0,.2-.8,2.92,2.92,0,0,0,.2-.9,6.37,6.37,0,0,0,.2-.7,6.75,6.75,0,0,0,.2-1.4,11,11,0,0,1,.3-1.6A4.71,4.71,0,0,1,9,49.5,10.08,10.08,0,0,0,9.5,47h0c0-.3.2-.6.2-.9v-.4H9.3c-.3,0-.8.5-.9.4a22.59,22.59,0,0,1-2.6-1.7l-1-1a.33.33,0,0,1,0-.5c.6-.8,2.6-2.9,2.8-3.2a8,8,0,0,1,1.3-1.3c.1-.2.7-.4,1-.6a7.72,7.72,0,0,1,1.5-.2,18.1,18.1,0,0,0,2.3-.3h.1c.1,0,.5-.1.6-.1.2.3.2,3.7,3.1,4.2C21.6,42.1,22.1,38.5,22.3,38.5Z" style="fill:#0e1a46"/><path d="M22.3,38.5a1.55,1.55,0,0,0,.6.2H23a17,17,0,0,1,4.1,1.8c1.1.7,1.5,2.6,1.9,3.8a5.74,5.74,0,0,0-.7.4c-.6-1.1-.9-2.6-1.8-3.4a11,11,0,0,0-3.6-1.9h-.1a1.88,1.88,0,0,0-.9-.4A2.18,2.18,0,0,0,22.3,38.5Z" style="fill:#000333"/><path d="M14.5,37.2h-.7a11.66,11.66,0,0,0-3.9.4C8.6,38,7.2,40.1,6.4,41l.6.6c.9-.8,2.2-2.5,3.3-2.9a9.19,9.19,0,0,1,3.3-.6h.1c.3,0,.5-.1.9-.1A2.2,2.2,0,0,1,14.5,37.2Z" style="fill:#000333"/><path d="M9.7,45.9h0a6.26,6.26,0,0,0,.7-2.2c.1-.3.1-.5.2-.8a2.92,2.92,0,0,0,.2-.9c.1-.4.3-.9.4-1.3a5.83,5.83,0,0,0-.2-2.3h.1a4.44,4.44,0,0,1,.2,2.3,7.37,7.37,0,0,1-.4,1.4,3.09,3.09,0,0,0-.2.8c-.1.3-.1.5-.2.8A4.19,4.19,0,0,1,9.7,45.9Z" style="fill:#000333"/><path d="M24.9,48c-.3-.1-.5-1.2-.5-1.8a13.55,13.55,0,0,1,.6-6h.1a15,15,0,0,0-.6,6,5.11,5.11,0,0,0,.4,1.8Z" style="fill:#000333"/><path d="M22.9,38.7h0v.1a5.63,5.63,0,0,1-1.8,2.4,4.15,4.15,0,0,1-3.4.9,3.26,3.26,0,0,1-1.4-.4,4.43,4.43,0,0,1-1.5-1.2,4.16,4.16,0,0,1-1-3.1v-.1h.1a1.27,1.27,0,0,1,.6-.1h0a6,6,0,0,0,1.1,3,4.81,4.81,0,0,0,1.1.9,1.93,1.93,0,0,0,1,.3,4.31,4.31,0,0,0,2.7-.6,5.25,5.25,0,0,0,1.7-2.2l.1-.1" style="fill:#0b173c"/><path d="M22.9,38.7h0a3.63,3.63,0,0,0-.3.7h0a5,5,0,0,1-1.5,1.8,4,4,0,0,1-3.4.8,5.73,5.73,0,0,1-1.4-.4,4.43,4.43,0,0,1-1.5-1.2,4.6,4.6,0,0,1-1-2.4,2,2,0,0,0-.1-.7v-.1h0a1.48,1.48,0,0,0,.1.7,4.6,4.6,0,0,0,1,2.4,7.89,7.89,0,0,0,1.5,1.2,3.58,3.58,0,0,0,1.1.4h.3a4.14,4.14,0,0,0,3.4-.9,5.69,5.69,0,0,0,1.5-1.8l.3-.6v.1Zm-.6-.2h0a5.58,5.58,0,0,1-.5.8,3.74,3.74,0,0,1-1.3,1.5,4.31,4.31,0,0,1-2.7.6h-.3c-.3-.1-.5-.1-.7-.3a4.81,4.81,0,0,1-1.1-.9,5.12,5.12,0,0,1-1-2.1h0a2.77,2.77,0,0,1-.1-.9h0c0,.3.1.6.1.8a5.54,5.54,0,0,0,1,2.2,4.81,4.81,0,0,0,1.1.9,1.69,1.69,0,0,0,1,.3,4.31,4.31,0,0,0,2.7-.6,4.39,4.39,0,0,0,1.4-1.6,2.51,2.51,0,0,1,.4-.7Z" style="fill:#000333"/><path d="M25.6,48c-.2,0-.4-.1-.6,0-.1-.1-.1-.2-.2-.3a3,3,0,0,1-.4-1,5.65,5.65,0,0,1,0-1.3c0-.4-.1-.8-.1-1.3a8.24,8.24,0,0,1,.4,1.8c.1.4,0,.8.4,1.2a.76.76,0,0,1,.2.5C25.4,47.7,25.6,47.9,25.6,48Z" style="fill:#000333;opacity:0.4000000059604645;isolation:isolate"/><path d="M10.4,44.5a4.59,4.59,0,0,1-.7,1.6v-.4H9.3c.1-.3.3-.5.4-.8s.2-.5.3-.7c.2-.6.4-1.3.6-1.9.1.1.1.2.1.4s-.1.3-.1.4C10.5,43.5,10.5,44,10.4,44.5Z" style="fill:#000333;opacity:0.4000000059604645;isolation:isolate"/><path d="M14.2,59.7a3.79,3.79,0,0,1-1.5,0c-1.5-.4-2.6-1.6-3.9-2.4-.2-.1-.3-.2-.5-.3s-.2-.2-.3-.2a5.64,5.64,0,0,0-.7-.1,2.35,2.35,0,0,0,.2-.8,1.3,1.3,0,0,1,1.3.5c.3.3.4.6.7.8,1,1.1,2.5,1.2,3.9,1.8A1.12,1.12,0,0,1,14.2,59.7Z" style="fill:#000333;opacity:0.25;isolation:isolate"/><path d="M23.4,56.5h0c-.1.1-.3,0-.4.1s-.1.1-.1.2a9.23,9.23,0,0,1-2.3,2.9,6.29,6.29,0,0,1,1.3-2.4,1.69,1.69,0,0,0,.2-.5c-.1-.3-.5-.4-.8-.4,0-.2.3-.4.5-.5a8.65,8.65,0,0,0,1-.7c.1-.1.3-.2.3-.4a1.65,1.65,0,0,0,0-1.2,8.77,8.77,0,0,1,0-2.8c.2,0,.3.4.3.6a2.77,2.77,0,0,0,.3,1.3.35.35,0,0,0,.1.2c-.1.7-.2,1.5-.3,2.6A2.24,2.24,0,0,0,23.4,56.5Z" style="fill:#000333;opacity:0.2199999988079071;isolation:isolate"/><path d="M9.3,51.2a2,2,0,0,0-.2,1.3c0,.3.2.7,0,1l-.3.3-1,1a6.37,6.37,0,0,0,.2-.7,6.75,6.75,0,0,0,.2-1.4,11,11,0,0,1,.3-1.6A9.83,9.83,0,0,1,9,49.5,10.08,10.08,0,0,0,9.5,47h0a3.08,3.08,0,0,1,0,1.9.88.88,0,0,0-.1.7,1.42,1.42,0,0,0,.2.6,2.05,2.05,0,0,1,0,1.1A.37.37,0,0,1,9.3,51.2Z" style="fill:#000333;opacity:0.25;isolation:isolate"/><path d="M35.3,37.4c0-.3,6.5-.8,6.5-.8a9.82,9.82,0,0,0-.2,2.1,6.89,6.89,0,0,0,.7,1.9,3.8,3.8,0,0,1-3,1.7c-2.2.3-3.2-.9-3.2-1s-.1-.9-.1-1.7A9.51,9.51,0,0,0,35.3,37.4Z" style="fill:#7f5449"/><path d="M36.1,39.4a4.54,4.54,0,0,0,4.4-.2,2,2,0,0,0,.9-.9.45.45,0,0,0,0-.5v-.5h-.3a25.21,25.21,0,0,1-4.8.6c-.3,0-.4-.1-.7,0s-.2,0-.1.3A1.31,1.31,0,0,1,36.1,39.4Z" style="fill:#63413b"/><path d="M22,67.1a2.31,2.31,0,0,0,.5.7c.1.1.2.3.4.4s.1.1.2.1a.35.35,0,0,1,.1.2v.3c0,.1-.2.2-.3.2s-.2,0-.2-.1a2.36,2.36,0,0,1-.9-.8,5.94,5.94,0,0,1-.4-.8,1.42,1.42,0,0,0-.2-.6c-.1.6.4,1.2.6,1.8a.37.37,0,0,0,.1.3,1.38,1.38,0,0,1,.3.4c.1.1.2.3.3.4s.1.1.1.2-.1.2-.2.3-.2.3-.4.3a.22.22,0,0,1-.2-.2c-.1-.1-.2-.3-.3-.4s-.2-.2-.2-.3a4.76,4.76,0,0,1-.8-1.8c0-.2-.1-.5.1-.7s.1-.2.2-.3v-.2c0-.2.2-.3.3-.5a1,1,0,0,0,.5-.4c.2,0,.3,0,.3.1v.4A.9.9,0,0,0,22,67.1Z" style="fill:#63413b"/><path d="M20.8,67.7a1.42,1.42,0,0,0,.2.6l.3.6c.1.3.3.6.4.9v.4c0,.2-.1.3,0,.5l-.1.1c-.1.1-.3,0-.4-.1a.76.76,0,0,1-.2-.4,10.84,10.84,0,0,1-.8-1.9,11.15,11.15,0,0,1-.5-3.1,2.2,2.2,0,0,1,.1-.8,6.88,6.88,0,0,1,.2-1.3.1.1,0,0,1,.2,0c0-.1.2-.2.3-.3a.9.9,0,0,0,.5-.1c.2,0,.5.1.7.1s.3.3.3.5-.1.2,0,.3a.1.1,0,0,0,.1.1.76.76,0,0,1,.2.5c0,.2-.1.3,0,.5a.76.76,0,0,1,.1.4,8.43,8.43,0,0,1,.6,1.4c0,.1.1.2,0,.3a.37.37,0,0,1-.3.1.9.9,0,0,0-.5.1H22c-.1,0-.1-.1-.1-.2-.1-.3-.3-.6-.4-.9a6,6,0,0,1-.2,1.2v.4c.1.5,0,1.1.1,1.6s.2.7.1,1-.2.3-.3.3-.3-.2-.3-.4a2.54,2.54,0,0,0-.2-.7c0-.2-.1-.3-.1-.5a.9.9,0,0,0-.1-.5,4.4,4.4,0,0,0-.2-1,7.26,7.26,0,0,0,.5-.9h0c0-.1,0-.2.1-.2.2.3.3.7.1.9a.35.35,0,0,1-.1.2C20.8,67.6,20.9,67.7,20.8,67.7Z" style="fill:#7f5449"/><path d="M22.7,66.4h0c0,.1.1.3.1.4s.1.3-.1.2h-.4c-.1,0-.2-.1-.3-.2v-.5c0-.1.1-.1.1,0A1.27,1.27,0,0,0,22.7,66.4Z" style="fill:#b7825a"/><path d="M21,69.7c0,.1.1.6.1.7a.1.1,0,0,1-.1.1h-.1a.35.35,0,0,1-.1-.2c0-.1-.1-.6,0-.7Z" style="fill:#b7825a"/><path d="M21.7,65.9c0-.1,0-.1-.1-.2a.19.19,0,0,0-.3,0c-.1.1-.2.2-.2.3-.1.3,0,.6-.1,1a1.73,1.73,0,0,0-.1,1,.37.37,0,0,0,.1.3v.4c0,.4.1.8.1,1.2v.6c.2-.3.1-.6.1-1s-.1-.6-.1-.8-.1-.5-.1-.7v-.6a6,6,0,0,1,.2-1.2c.1.2.1.5.3.7s.5.4.4.3-.1-.4-.1-.5C21.9,66.3,21.9,66.1,21.7,65.9Z" style="fill:#63413b"/><path d="M21.5,69.3c0,.3.2.7,0,1a.1.1,0,0,1-.1.1l-.1.1v.3h.1c.1,0,.1,0,.1-.1l.1-.1.1-.2c.1-.2,0-.4-.1-.7v-.2a.31.31,0,0,1-.1-.2h0" style="fill:#63413b"/><path d="M61,62.7c-.1.2-.1.4-.3.8a2.19,2.19,0,0,0-.3.5c-.1,0-.1.1-.2.1a.35.35,0,0,0-.1.2v.3c0,.1.2.2.3.2s.2,0,.2-.1a1.69,1.69,0,0,0,.7-1,1.88,1.88,0,0,0,.2-.8v-.6c.3.6-.1,1.3-.2,1.9a.37.37,0,0,1-.1.3.52.52,0,0,0-.2.4.76.76,0,0,0-.2.4c0,.1-.1.1-.1.2s.1.2.2.3.3.3.5.2a.22.22,0,0,0,.2-.2.76.76,0,0,0,.2-.4c.1-.1.2-.2.2-.3a4.64,4.64,0,0,0,.4-1.9,1.08,1.08,0,0,0-.3-.7c-.1-.3-.1-.4-.2-.5v-.2c0-.2-.2-.3-.4-.4a1.42,1.42,0,0,0-.6-.2c-.2,0-.3,0-.3.1a.6.6,0,0,0,.1.4A1.07,1.07,0,0,1,61,62.7Z" style="fill:#63413b"/><path d="M62.2,62.9v.6c-.1.2-.1.4-.2.6s-.1.6-.2,1v.4c0,.2.1.3.1.5l.1.1c.1.1.3,0,.4-.1s.2-.3.1-.4a12,12,0,0,0,.3-2,11.5,11.5,0,0,0-.2-3.2,1.33,1.33,0,0,0-.3-.8,6.12,6.12,0,0,0-.5-1.2.1.1,0,1,0-.2,0c0-.1-.2-.2-.4-.3a.9.9,0,0,0-.5.1,1.14,1.14,0,0,0-.6.3c-.2.1-.2.3-.2.5s.1.2,0,.3a.1.1,0,0,1-.1.1.44.44,0,0,0-.1.5c0,.2.1.3.1.5s-.1.3,0,.4a8,8,0,0,0-.3,1.5c0,.1-.1.2,0,.3a.37.37,0,0,0,.3.1.9.9,0,0,0,.5-.1h.2c.1,0,.1-.1.1-.2.1-.3.1-.6.2-1,.1.4.3.7.4,1.1v.4c.1.5.2,1.1.3,1.6a3.08,3.08,0,0,0,.1,1c.1.2.2.3.4.3s.3-.2.2-.4v-.7c0-.2.1-.3,0-.5a.9.9,0,0,0-.1-.5,3.33,3.33,0,0,1,0-1,5.55,5.55,0,0,1-.6-.8h0c0-.1,0-.2-.1-.2a.74.74,0,0,0,.1.9.35.35,0,0,0,.1.2A1.45,1.45,0,0,1,62.2,62.9Z" style="fill:#7f5449"/><path d="M60.1,62.2h0c0,.1-.1.3,0,.4s-.1.3.1.2h.4c.1,0,.2-.1.3-.2v-.5c0-.1-.1-.1-.1,0A2.25,2.25,0,0,1,60.1,62.2Z" style="fill:#b7825a"/><path d="M62.4,65c0,.1.1.6.1.7a.1.1,0,0,0,.1.1h.1a.35.35,0,0,0,.1-.2,1.85,1.85,0,0,0-.2-.7Z" style="fill:#b7825a"/><path d="M60.9,61.5c0-.1,0-.1.1-.2a.19.19,0,0,1,.3,0c.1.1.2.2.2.3.1.3.2.6.3,1s.4.7.3,1a.37.37,0,0,1-.1.3v.4c0,.4.1.8.1,1.2v.6a1.21,1.21,0,0,1-.3-1c0-.3-.1-.6-.1-.8s-.1-.5-.1-.7a.73.73,0,0,0-.2-.6c-.1-.4-.3-.7-.4-1.1-.1.2,0,.5-.1.7s-.4.5-.3.3v-.5C60.9,61.9,60.8,61.7,60.9,61.5Z" style="fill:#63413b"/><path d="M61.9,64.8a1.8,1.8,0,0,0,.2,1,.1.1,0,0,0,.1.1l.1.1v.3h-.1c-.1,0-.1,0-.1-.1l-.1-.1v-.2c-.1-.2,0-.4-.1-.7V65a.14.14,0,0,0,0-.2h0" style="fill:#63413b"/><path d="M39.1,41.3a3.73,3.73,0,0,1-2-.2,2.72,2.72,0,0,1-1-.8,20.78,20.78,0,0,0-2.9.7,7.11,7.11,0,0,0-1.5.7,2,2,0,0,0-.9.9c-.2.5-.5,1-.7,1.5a10.41,10.41,0,0,1-.6,1.6,49,49,0,0,1-1.8,4.6,17.1,17.1,0,0,1-1.3,2.3c-.6.8-1.3,1.5-1.8,2.2-.4.5-1.1,1.6-1.4,2A19.08,19.08,0,0,0,21.6,60c-.2.4-1.2,2.3-1.3,2.7s0,.5.6.7.7-.1,1.1.3c.2-.1.4-.6.6-.8s1.1-1.5,1.4-1.8,2.9-3.3,3.3-3.7a14.51,14.51,0,0,0,1.2-1.9,7.6,7.6,0,0,0,.4-1.1c.1-.4.3-.9.4-1.3.4-.8.6-1.2.9-1.9-.1,0,.8-1.6,1.1-2.5.5-1,1.6-3.5,1.7-2.5,0,.3,1.7,8,1.9,10.3a17.8,17.8,0,0,1-.4,4.6c-.1.6-.4,2.8-.5,3.4a36.88,36.88,0,0,0-.1,4.7c.1,1.5.3,2.7.4,4.2a26.29,26.29,0,0,0,.6,3.9c.4,1.5.8,2.9.9,3.5s.6,1.8.4,2.4a14.82,14.82,0,0,0,0,4.7c.3,1.7.9,2.9,1.3,4.5.1.3,1.1,3,.6,4.1a4.51,4.51,0,0,1-1,1.4.76.76,0,0,0-.2.4c0,.1,0,.4.2.5h.2a3.81,3.81,0,0,0,1.8-.3c.1,0,.3-.1.4,0s.2.1.3.1a1.51,1.51,0,0,0,1.7-.6c.3-.8-.6-1.5-.4-2.3.1-.1,0-.3,0-.5a1.13,1.13,0,0,0-.1-.8,12.62,12.62,0,0,1-.3-3,10.45,10.45,0,0,1,0-2.5,8.75,8.75,0,0,0,.2-1.6,15.53,15.53,0,0,0-.3-3.1,13.44,13.44,0,0,1-.3-2.2,21.77,21.77,0,0,1,.5-3.9c.2-1.7.2-8.1.2-8.4a2.74,2.74,0,0,1,.2-1.2c.2-.3.4-.6.8-.6" style="fill:#7f5449"/><path d="M39.1,41.3a3.73,3.73,0,0,1-2-.2,2.72,2.72,0,0,1-1-.8,20.78,20.78,0,0,0-2.9.7,7.11,7.11,0,0,0-1.5.7,2,2,0,0,0-.9.9c-.2.5-.5,1-.7,1.5a10.41,10.41,0,0,1-.6,1.6,49,49,0,0,1-1.8,4.6,17.1,17.1,0,0,1-1.3,2.3c-.6.8-1.3,1.5-1.8,2.2-.4.5-1.1,1.6-1.4,2A19.08,19.08,0,0,0,21.6,60c-.2.4-1.2,2.3-1.3,2.7s0,.5.6.7.7-.1,1.1.3c.2-.1.4-.6.6-.8s1.1-1.5,1.4-1.8,2.9-3.3,3.3-3.7a14.51,14.51,0,0,0,1.2-1.9,7.6,7.6,0,0,0,.4-1.1c.1-.4.3-.9.4-1.3.4-.8.6-1.2.9-1.9-.1,0,.8-1.6,1.1-2.5.5-1,1.6-3.5,1.7-2.5,0,.3,1.7,8,1.9,10.3a17.8,17.8,0,0,1-.4,4.6c-.1.6-.4,2.8-.5,3.4a36.88,36.88,0,0,0-.1,4.7c.1,1.5.3,2.7.4,4.2a26.29,26.29,0,0,0,.6,3.9c.4,1.5.8,2.9.9,3.5s.6,1.8.4,2.4a14.82,14.82,0,0,0,0,4.7c.3,1.7.9,2.9,1.3,4.5.1.3,1.1,3,.6,4.1a4.51,4.51,0,0,1-1,1.4.76.76,0,0,0-.2.4c0,.1,0,.4.2.5h.2a3.81,3.81,0,0,0,1.8-.3c.1,0,.3-.1.4,0s.2.1.3.1a1.51,1.51,0,0,0,1.7-.6c.3-.8-.6-1.5-.4-2.3.1-.1,0-.3,0-.5a1.13,1.13,0,0,0-.1-.8,12.62,12.62,0,0,1-.3-3,10.45,10.45,0,0,1,0-2.5,8.75,8.75,0,0,0,.2-1.6,15.53,15.53,0,0,0-.3-3.1,13.44,13.44,0,0,1-.3-2.2,21.77,21.77,0,0,1,.5-3.9c.2-1.7.2-8.1.2-8.4a2.74,2.74,0,0,1,.2-1.2c.2-.3.4-.6.8-.6" style="fill:#7f5449"/><path d="M38.8,41.3a4.5,4.5,0,0,0,1.9-.6,1.89,1.89,0,0,0,.8-1,17,17,0,0,1,3,.1,11.6,11.6,0,0,1,1.6.3,2.27,2.27,0,0,1,1.1.7,14.7,14.7,0,0,0,1,1.3,11.91,11.91,0,0,0,.9,1.5c.6,1,2.1,3.3,2.7,4.1a16.32,16.32,0,0,0,1.7,2,19.52,19.52,0,0,0,2.3,1.7c.5.4,1.4,1.3,1.8,1.7.5.6,2,2.3,2.3,2.7s1.6,2,1.9,2.4.1.5-.5.8-.7.1-1,.5c-.2-.1-.5-.5-.7-.6-.4-.3-1.4-1.2-1.8-1.5l-4-2.9a12.07,12.07,0,0,1-1.6-1.6c-.3-.4-.5-.7-.7-1s-.5-.8-.7-1.2a7.52,7.52,0,0,1-1.5-1.6c.1,0-1.1-1.4-1.7-2.2s-2.3-3.1-2.2-2c0,.3.1,8.2.4,10.5a22.22,22.22,0,0,0,1.4,4.4A25.58,25.58,0,0,1,48.4,63a37.45,37.45,0,0,1,1.2,4.5c.3,1.5.3,2.7.6,4.2a17,17,0,0,1,.2,3.9c0,1.6-.1,3-.1,3.6s-.2,1.9.2,2.5a14,14,0,0,1,1,4.5,37.08,37.08,0,0,1-.3,4.7c-.1.3-.4,3.1.3,4.1a3.48,3.48,0,0,0,1.3,1.1c.1.1.3.3.3.4s0,.4-.1.5h-.2a3.67,3.67,0,0,1-1.8.1c-.1,0-.3-.1-.4,0s-.2.1-.3.1a1.36,1.36,0,0,1-1.8-.2c-.5-.7.3-1.6-.2-2.4-.1-.1,0-.3-.1-.5a2.2,2.2,0,0,1-.1-.8,17.83,17.83,0,0,0-.3-3,9.38,9.38,0,0,0-.6-2.4,8.8,8.8,0,0,1-.5-1.5,17.09,17.09,0,0,1-.3-3.1,11.32,11.32,0,0,0-.2-2.3,15.88,15.88,0,0,0-1.4-3.7c-.6-1.7-2-8-2-8.3a2.7,2.7,0,0,0-.5-1.1.81.81,0,0,0-.9-.4" style="fill:#7f5449"/><path d="M33.9,63.5a14.55,14.55,0,0,1,.4-2.5c.1-.2,12.5-1.7,13.7-1.5.2,0,.6,1.4.9,2.3s-5.3,6.1-5.9,6.7a1.8,1.8,0,0,1-1.2.3,1.45,1.45,0,0,1-.7-.2C39.8,67.6,33.8,63.7,33.9,63.5Z" style="fill:#000068"/><circle cx="36.5" cy="47.2" r="0.2" style="fill:#2d2d2d"/><circle cx="44.1" cy="46.29" r="0.2" style="fill:#2d2d2d"/><path d="M46.1,29.6a1.38,1.38,0,0,1,.4.3c.2.2.2.4.3.6a2.81,2.81,0,0,1-.3,2.5,1.33,1.33,0,0,1-1.1.8,1.27,1.27,0,0,1-.6-.1c-.2-.1-.2-.4-.2-.6a14.08,14.08,0,0,1-.1-2.1C44.6,30.2,45.1,29.2,46.1,29.6Z" style="fill:#704843"/><path d="M29.8,31.4q-.3.15-.3.3c-.2.2-.1.4-.2.6a3.19,3.19,0,0,0,.8,2.4,1.49,1.49,0,0,0,1.3.6c.2,0,.4,0,.5-.3a.63.63,0,0,0,0-.6c-.1-.7-.2-1.3-.3-2C31.3,31.6,30.6,30.8,29.8,31.4Z" style="fill:#704843"/><path d="M31.1,26.6c-.6,1-.5,3.3-.3,4.4a29.86,29.86,0,0,0,1,4.4c.9,2.4,4.6,3.6,4.9,3.7a4.6,4.6,0,0,0,4.1-.6,8.66,8.66,0,0,0,4-5,9.23,9.23,0,0,0,.1-3.7,28.63,28.63,0,0,0-.8-4.2A4,4,0,0,0,41,23.5a18.93,18.93,0,0,0-5.8.4A5.87,5.87,0,0,0,31.1,26.6Z" style="fill:#7f5449"/><path d="M37.3,34.3c.1-.1.3.3,1.1.2s.8-.5,1-.4.2.7-.7.9C37.5,35.1,37.1,34.5,37.3,34.3Z" style="fill:#63413b"/><path d="M36.6,36.2c.2-.1,1.2.2,1.9.1a5.85,5.85,0,0,0,1.7-.5c.2-.1.1.6-1.7.8S36.6,36.2,36.6,36.2Z" style="fill:#63413b"/><path d="M38.2,37.2c.1.1.2.2.4.1s.2-.1.3-.1.2,0,.1.1a.43.43,0,0,1-.4.2.59.59,0,0,1-.5-.2A.1.1,0,0,1,38.2,37.2Z" style="fill:#63413b"/><path d="M34.5,29.2c-.5.1-.9.2-1.3.3a.69.69,0,0,0-.4.3c0-.1-.1-.9,1.5-1.1,1.3-.1,1.7.3,1.7.5S35.2,29.1,34.5,29.2Z" style="fill:#1c0803"/><path d="M41,28.5a2.77,2.77,0,0,1,1.3.1,4.2,4.2,0,0,1,.5.2c0-.1-.1-.9-1.7-.7-1.3.1-1.6.7-1.5.9A5.31,5.31,0,0,1,41,28.5Z" style="fill:#1c0803"/><path d="M30.21,30.16A6.47,6.47,0,0,1,30.26,27v-.2a.36.36,0,0,0-.5.11c-.09.1-.19.21-.19.31a.94.94,0,0,1-1,.41,1,1,0,0,1-.81-.59,2,2,0,0,0-.21-.69,1.52,1.52,0,0,1-2-.87,1.42,1.42,0,0,1,1.17-1.72,2.56,2.56,0,0,1-.52-1.59,1.5,1.5,0,0,1,1.09-.82c.4,0,1.1.18,1.2.58a1.21,1.21,0,0,1,1.79-.63c.51.3.92.89.43,1.4.4-.11.49-.21.8-.12s.5.2.5.5c.21.59-.68,1-.57,1.41.3.49.59-.31,1-.42a9.68,9.68,0,0,1,3.87-1.66,9.85,9.85,0,0,1,4.2-.07,8.52,8.52,0,0,1,1.91.67.27.27,0,0,0,.3-.31c.09-.3-.31-.69-.32-1-.21-.7.48-1.41,1.59-1a1.07,1.07,0,0,1,.77-1.71A1.36,1.36,0,0,1,46.55,20c0,.2-.2.31,0,.4s.4-.1.5-.31a1.8,1.8,0,0,1,1.41.48,1.61,1.61,0,0,1,.42,1.4c-.19.6-.69.61-1,.71l.4.3a1.35,1.35,0,0,1-.07,1.6c-.39.5-1.49.62-1.8.13-.1-.1-.3,0-.4.1s-.19.2-.19.3c-.2.11-.31-.29-.51-.39s-.49.21-.49.31c.6.29.52,1.29.73,2a18.22,18.22,0,0,1,0,2.3c-.1.4-.18,1.8-.58,1.71a20.58,20.58,0,0,0-.75-3.59,3.8,3.8,0,0,0-1.13-1.78A3.21,3.21,0,0,0,41.43,25a14.37,14.37,0,0,0-6.5.5,6.49,6.49,0,0,0-2.28.94l-.45.39a5.89,5.89,0,0,0-.93,1A2.6,2.6,0,0,0,31,29.53c0,.27,0,.55-.07.83s0,.53-.07.79a4.7,4.7,0,0,1,.23,1.79C31.25,32.74,30.43,31.35,30.21,30.16Z" style="fill:#230700"/><path d="M29.81,24.52a1.56,1.56,0,0,1,2.3-.8.55.55,0,0,0,.3.5c.2,0-.8.6-1.2,1.3a4.46,4.46,0,0,0-.5,1.2s-.26-.1-.48-.16a.67.67,0,0,1-.37-.24A1.44,1.44,0,0,1,29.81,24.52Z" style="fill:#bc66cc"/><path d="M45.24,22.59a1.6,1.6,0,0,0-2.5-.3c0,.2-.2.3-.4.5-.2,0,1.1.6,1.6,1.2a9.78,9.78,0,0,1,.8,1.1,5.92,5.92,0,0,1,.6-.4A1.49,1.49,0,0,0,45.24,22.59Z" style="fill:#bc66cc"/><path d="M32.9,32.2c-.1-.7.9-1.3,1.8-1.4.7-.1,1.8.3,1.9,1s-.5,1.3-1.5,1.4S33,32.9,32.9,32.2Z" style="fill:#ffecd8"/><ellipse cx="34.94" cy="31.99" rx="1.1" ry="1" transform="translate(-11.22 42.66) rotate(-55.49)" style="fill:#290600"/><circle cx="34.29" cy="31.9" r="0.4" style="fill:#fcfcfc"/><path d="M34.8,30.4a1.76,1.76,0,0,1,1.9,1.1c.3.9-.3-1-2-.8a2,2,0,0,0-1.8,1.8C32.6,30.9,33.9,30.5,34.8,30.4Z" style="fill:#230601"/><path d="M39.6,31.5c-.1-.7.9-1.3,1.8-1.4.7-.1,1.8.3,1.9,1s-.5,1.3-1.5,1.4S39.7,32.2,39.6,31.5Z" style="fill:#ffecd8"/><ellipse cx="41.6" cy="31.23" rx="1.1" ry="1" transform="translate(-7.7 47.82) rotate(-55.49)" style="fill:#290600"/><circle cx="41" cy="31.2" r="0.4" style="fill:#fcfcfc"/><path d="M41.5,29.6a1.76,1.76,0,0,1,1.9,1.1c.3.9-.3-1-2-.8a2,2,0,0,0-1.8,1.8C39.3,30.1,40.6,29.7,41.5,29.6Z" style="fill:#230601"/><path d="M36,61.6c.5-1.3,1.1-2.6,1.6-4l-1.4.2c-4,7.9-8.8,15.5-12.9,23.3a16.77,16.77,0,0,0,3.2,0,3.5,3.5,0,0,1,2.7.7c1.3-3.4,2.6-6.8,3.8-10.2S34.7,64.9,36,61.6Z" style="fill:#b01f24"/><path d="M35.5,74.2c-.1-1.7.3-3.6.1-5.3-.8,4.4-1,8.9-2.2,13.2a7.93,7.93,0,0,1,1.6-.8c.1-.7.1-1.4.2-2.1C35.3,77.5,35.5,75.8,35.5,74.2Z" style="fill:#b01f24"/><path d="M35.2,57.9,21.3,80.7a4.32,4.32,0,0,0,2,.4c4.1-7.9,8.9-15.5,12.9-23.3Z" style="fill:#d61f27"/><path d="M38.1,66.5a22.37,22.37,0,0,1,.5-6.3c-1.2,1.6-1.3,4.4-1.7,6.3-.6,2.4-.7,4.9-1.1,7.4-.3,2.3-.2,4.7-.4,7.1v.4a3.46,3.46,0,0,1,1.2.3,7.84,7.84,0,0,0,1.4.5c-.2-2.5.1-5.2,0-7.6A72.35,72.35,0,0,1,38.1,66.5Z" style="fill:#b01f24"/><path d="M50.5,66.1a.47.47,0,0,0-.5-.5c.1.2.3.4.4.6C50.5,66.2,50.5,66.2,50.5,66.1Z" style="fill:#d61f27"/><path d="M45.3,56.8l-1.5.2c.8,1,1.5,2,2.3,3.1A5.59,5.59,0,0,0,45.3,56.8Z" style="fill:#d61f27"/><path d="M45.7,57a5.44,5.44,0,0,1,.6,3.3c1.2,1.7,2.4,3.4,3.6,5.2.4,0,.7.1.8.5a.9.9,0,0,1-.1.5c1,1.3,2,2.7,3,3.9a55.76,55.76,0,0,0,5.8,6.1,15.93,15.93,0,0,0,1.3,1.3,11.45,11.45,0,0,0,2-1.7Z" style="fill:#d61f27"/><path d="M42.9,63.5h0a3,3,0,0,0-.4-.8A2,2,0,0,0,42.9,63.5Z" style="fill:#d61f27"/><path d="M41.4,70.2a1.27,1.27,0,0,0-.1-.6A3.54,3.54,0,0,0,41.4,70.2Z" style="fill:#d61f27"/><path d="M49,66.7c.5.1,1.2.1,1.4-.4a2.09,2.09,0,0,1-.4-.6h-.1a1.33,1.33,0,0,0-.8.3c-.2.1-.3.3-.5.5a.35.35,0,0,0,.1.2Z" style="fill:#b01f24"/><path d="M47.1,63.4a24.37,24.37,0,0,0,1.4,2.8,2.1,2.1,0,0,1,1.1-.7h.2c-1.2-1.7-2.4-3.5-3.6-5.2a2.35,2.35,0,0,1-.2.8A15.77,15.77,0,0,1,47.1,63.4Z" style="fill:#b01f24"/><path d="M53.6,70.4l-3-3.9a1,1,0,0,1-.5.4,2.44,2.44,0,0,1-1.2,0c.7,1.2,1.3,2.3,1.9,3.4,1.5,2.7,2.7,5.7,4.3,8.3.2.3.3.5.5.8h.5a6.46,6.46,0,0,0,4.5-1.5,15.93,15.93,0,0,0-1.3-1.3A83.72,83.72,0,0,1,53.6,70.4Z" style="fill:#b01f24"/><path d="M45.7,60.7c0,.1.1.1.1.2.1-.3.1-.5.2-.8h0c-.7-1-1.5-2.1-2.3-3.1h-.3C43.4,58.2,45.2,59.8,45.7,60.7Z" style="fill:#b01f24"/><path d="M40.8,62.2a2.62,2.62,0,0,0-1.3.6c-.2.4,0,.7.4.9a2,2,0,0,0,1.3.2,4.19,4.19,0,0,0,1.5-.4c-.1-.3-.3-.5-.4-.8a2,2,0,0,1,.4.8c.1,0,.1-.1.2-.1A1.9,1.9,0,0,0,40.8,62.2Z" style="fill:#d61f27"/><path d="M42.8,65.5a4.78,4.78,0,0,0-1.8.6c-.4.3-1,.7-.8,1.2s.9.5,1.4.3a2,2,0,0,0,1-1,6.72,6.72,0,0,0,.6-1.2A.6.6,0,0,0,42.8,65.5Z" style="fill:#d61f27"/><path d="M43.1,63.7c-.1,0-.1,0-.2.1a4.88,4.88,0,0,1,.3.7A1,1,0,0,0,43.1,63.7Z" style="fill:#d61f27"/><path d="M46.5,71.4a.37.37,0,0,1-.1.3h.1a.55.55,0,0,1,.6.4.37.37,0,0,1-.1.3h0c.1-.1.2-.1.3-.2a2.13,2.13,0,0,0,1-1.1,4,4,0,0,0,.3-1.5,1.33,1.33,0,0,0-.6-1c-.1,0-.1-.1-.2-.1a.9.9,0,0,1-.1.5,1.45,1.45,0,0,1-.7,1,.91.91,0,0,1-1.1-.1.94.94,0,0,1,.2-1.1,1.74,1.74,0,0,1,1.5-.5c0-.2.1-.3.2-.5a4.67,4.67,0,0,1,.5-1c-.6-.2-1.1-.4-1.7-.6a12.66,12.66,0,0,0-1.8-.6,3.4,3.4,0,0,0-1-.1c.8,1.9,1.6,3.8,2.3,5.7C46.3,71.1,46.4,71.2,46.5,71.4Z" style="fill:#d61f27"/><path d="M46.6,68.5a1,1,0,0,0-.5.6c-.1.2-.2.6,0,.7.5.3,1.1-.2,1.2-.5s.1-.5.2-.7v-.1A.75.75,0,0,0,46.6,68.5Z" style="fill:#d61f27"/><path d="M44.1,63.3c-.3.1-.5.2-.8.3a2.77,2.77,0,0,1,.1,1.3c.1.1.1.2.2.4a9.85,9.85,0,0,1,1.7.2c.6.2,1.2.5,1.8.7a5,5,0,0,0,1.3.4c.1-.1.1-.2.2-.3-.5-.9-1-1.9-1.4-2.8a15.77,15.77,0,0,0-1.1-2.3A4.48,4.48,0,0,1,44.1,63.3Z" style="fill:#d61f27"/><path d="M48.7,66.4c0,.1-.1.1-.1.2a.37.37,0,0,1,.3.1C48.7,66.6,48.7,66.5,48.7,66.4Z" style="fill:#d61f27"/><path d="M50.9,70.2c-.6-1.1-1.3-2.2-1.9-3.4-.2,0-.3-.1-.5-.1h0c-.1.2-.2.3-.3.5s-.3.6-.4.9v.1c.2.1.3.1.4.2.8.6.6,1.8.3,2.6a2.13,2.13,0,0,1-1,1.1c-.2.1-.5.3-.7.4h-.2c.1.1.1.3.2.4h0c.4,0,.7.2.7.5h0a.32.32,0,0,1,.3.3.37.37,0,0,1-.1.3c.1.1.2.2.2.3h0a.51.51,0,0,1-.4.5c0,.1.1.1.1.2a5.85,5.85,0,0,0,1.3-.2,4.08,4.08,0,0,1,1.9-.1h0l.2-.2h-.1c-.2,0-.4-.2-.3-.4a.22.22,0,0,1,.2-.2.37.37,0,0,1-.1-.3.38.38,0,0,1,.5-.3h.1c0-.1.2-.2.3-.2s.3.2.2.3h0c.1-.1.2-.1.4-.1s.4.2.3.4v.1a.76.76,0,0,1,.2.4.68.68,0,0,1-.6.4h-.2c.1.3-.1.4-.3.4s-.2-.1-.3-.2l-.3.3h0a.52.52,0,0,1,.2.4c.1.5-.7,1.2-.8,1.6v.3h.1c.2,0,.4.1.4.3v.1a.2.2,0,1,1,0,.4h0a.22.22,0,0,1,.2.2.27.27,0,0,1-.3.3h0c.3.5-.8.7-.8.4a.22.22,0,0,1,.2-.2c-.1-.1-.2-.2-.2-.3v-.1a.22.22,0,0,1-.2-.2c0-.1.1-.2.2-.3v-.2c0-.1,0-.2.1-.2a.76.76,0,0,1-.2-.5v-.5h-.7c-.2,0-.5-.1-.8-.1h-.1c.5,1.3,1.1,2.7,1.5,4.1,2-.4,4.2-1.3,5.9-1.3-.2-.3-.3-.5-.5-.8C53.5,75.9,52.4,72.9,50.9,70.2Z" style="fill:#d61f27"/><path d="M47,79.6h-.2c-.3,0-.7.1-.5-.2,0-.1.1-.1.2-.2-.1-.1-.1-.1-.1-.2v-.1a.22.22,0,0,1-.2-.2c0-.1.1-.2.2-.3-.1,0-.1-.1-.1-.2a.27.27,0,0,1,.3-.3h0c-.1-.3-.1-.5-.2-.8-.1-.1-.1-.2-.2-.3s-.2-.1-.3-.1a1.16,1.16,0,0,1-.5-.7.6.6,0,0,1-.6-.3h-.1c-.4,0-.7-.2-.7-.5v-.4c-.1-.1-.2-.1-.2-.3a.37.37,0,0,1,.4-.4h.1c0-.2,0-.3.2-.4H44c-.2,0-.7,0-.7-.2s.3-.4.5-.5a6.89,6.89,0,0,0,.8-.3v-.1h-.1a.52.52,0,0,1-.4-.2c0-.1,0-.2.1-.2A.22.22,0,0,1,44,72a.58.58,0,0,1,.6-.6h.1c0-.1.1-.2.2-.3-.2-.7-.3-1.3-.5-2-.4-1.1-.6-2.4-.9-3.6h-.1l-.3.9c-.4.7-1,1.6-2,1.6-.4,0-.9-.1-1-.5a1,1,0,0,1,.3-1.1,4.93,4.93,0,0,1,2.9-1.1v-.6l-.3-.9c-.1,0-.2.1-.3.1a3.23,3.23,0,0,1-1.7.3c-.6-.1-1.7-.3-1.7-1s1.2-1.2,2-1.1a2.08,2.08,0,0,1,2,1.4,4.64,4.64,0,0,0,2-1.3,3.38,3.38,0,0,0,.6-1.2c0-.1-.1-.1-.1-.2-.6-.9-2.3-2.5-2.3-3.7l-5.8.6c-.5,1.3-1.1,2.7-1.6,4-1.3,3.2-1.8,6.6-3,10s-2.5,6.8-3.8,10.2a3,3,0,0,0,2.3.7,3.2,3.2,0,0,0,1.8-.5c1.2-4.3,1.4-8.8,2.2-13.2a46.88,46.88,0,0,1-.1,5.3c0,1.6-.2,3.2-.3,5-.1.7-.1,1.4-.2,2.1a.76.76,0,0,0,.4-.1v-.4c.3-2.3.2-4.7.4-7.1.4-2.5.5-5,1.1-7.4.5-1.9.6-4.7,1.7-6.3a22.08,22.08,0,0,0-.5,6.3,72.42,72.42,0,0,0-.2,8.1c.1,2.4-.2,5,0,7.6a10.55,10.55,0,0,0,2.5.2,22.68,22.68,0,0,0,.5-3.5c.1-2.8.7-5.8.4-8.6,0-.2-.1-.4-.1-.6,0,.2.1.4.1.6.3,2.3,1.2,4.5,1.4,6.9.2,1.7.5,3.4.8,5.1,1.4-.4.6-2.1,3-1.5.2,0,.4.1.6.1v-.1C47.1,80.4,47,80,47,79.6Z" style="fill:#d61f27"/><path d="M41.4,70.2c.3,2.8-.3,5.7-.4,8.6a22.68,22.68,0,0,1-.5,3.5,20.85,20.85,0,0,1,2.5,0,1.48,1.48,0,0,0,.7-.1c-.3-1.7-.6-3.4-.8-5.1C42.6,74.8,41.7,72.5,41.4,70.2Z" style="fill:#b01f24"/><path d="M45.7,71.2c.1,0,.1-.1.2-.1H46c-.7-1.9-1.5-3.8-2.3-5.7h-.2c.3,1.2.5,2.5.9,3.6a14.62,14.62,0,0,1,.5,2,.37.37,0,0,1,.3-.1C45.4,70.9,45.7,71,45.7,71.2Z" style="fill:#b01f24"/><path d="M47.3,75.1c.1,0,.1.1.2.1a.37.37,0,0,1,.3.1c0-.1-.1-.1-.1-.2h-.4Z" style="fill:#b01f24"/><path d="M42.9,63.7h0l.3.9v-.2A1.08,1.08,0,0,0,42.9,63.7Z" style="fill:#b01f24"/><path d="M46.5,77.3c0-.1-.1-.1-.1-.2.1.3.1.5.2.8h.1C46.6,77.7,46.6,77.5,46.5,77.3Z" style="fill:#b01f24"/><path d="M47.6,76.8a1.7,1.7,0,0,1-.7.1,1.07,1.07,0,0,1,.2.6v.4a.27.27,0,0,1,.3.3v.1a.2.2,0,1,1,0,.4h0a.22.22,0,0,1,.2.2.27.27,0,0,1-.3.3h-.1v.1c.1.2,0,.3-.1.4.1.4.1.8.2,1.2V81a7.82,7.82,0,0,0,2.6-.2,33.86,33.86,0,0,0-1.5-4.1A1.13,1.13,0,0,0,47.6,76.8Z" style="fill:#b01f24"/><path d="M43.5,65.2h.2c-.1-.1-.1-.2-.2-.4v.4Z" style="fill:#b01f24"/><path d="M46.7,73h0a.1.1,0,0,0-.1.1l.1.1c.1,0,.1-.1,0-.2h.1c-.1-.1-.1-.3-.2-.4h-.2C46.6,72.7,46.6,72.9,46.7,73Z" style="fill:#b01f24"/><path d="M44.9,73.7c-.1,0-.1,0-.1.1a.1.1,0,0,0,.1.1c.1,0,.1,0,.1-.1A.1.1,0,0,1,44.9,73.7Z" style="fill:#fff"/><path d="M44.6,73.7c-.1,0-.1,0-.1.1a.1.1,0,0,0,.1.1c.1,0,.1,0,.1-.1A.1.1,0,0,0,44.6,73.7Z" style="fill:#fff"/><path d="M45,73c0-.1-.1-.1-.2-.1a.1.1,0,0,0-.1.1c0,.1.1.1.2.1S45,73.1,45,73Z" style="fill:#fff"/><path d="M45.6,73.5c-.1,0-.1,0-.1.1a.1.1,0,0,0,.1.1c.1,0,.1,0,.1-.1Z" style="fill:#fff"/><path d="M45.2,73.8a.1.1,0,0,0-.1-.1c-.1,0-.1,0-.1.1a.1.1,0,0,0,.1.1A.1.1,0,0,1,45.2,73.8Z" style="fill:#fff"/><path d="M45.9,73.5c-.1,0-.1,0-.1.1a.1.1,0,0,0,.1.1c.1,0,.1,0,.1-.1A.1.1,0,0,0,45.9,73.5Z" style="fill:#fff"/><path d="M45.3,73.8c.1,0,.1,0,.1-.1a.1.1,0,0,0-.1-.1c-.1,0-.1,0-.1.1Z" style="fill:#fff"/><path d="M46.3,73.3h0a.14.14,0,0,0,0,.2c.1,0,.1,0,.1-.1S46.4,73.3,46.3,73.3Z" style="fill:#fff"/><path d="M46.1,73.4c-.1,0-.1,0-.1.1a.1.1,0,0,0,.1.1c.1,0,.1,0,.1-.1S46.2,73.4,46.1,73.4Z" style="fill:#fff"/><path d="M46.5,73.1c0,.1-.1.1,0,0a.14.14,0,0,0,0,.2c.1,0,.1,0,.1-.1A.1.1,0,0,0,46.5,73.1Z" style="fill:#fff"/><path d="M45.3,75.3l.5-.2c-.3-1.3-.6-2.7-.9-4.1-.1.1-.2.2-.2.3h-.1a.58.58,0,0,0-.6.6c0,.1.1.2.1.3s-.1.1-.1.2.2.3.4.2h.1v.1c-.2.2-.5.2-.8.3s-.5.3-.5.5.5.2.7.2h.5a.76.76,0,0,0-.2.4h-.1a.43.43,0,0,0-.4.4c0,.1.1.2.2.3v.4c0,.3.4.5.7.5h.1a.71.71,0,0,0,.6.3A1.63,1.63,0,0,0,45.3,75.3Zm-.6-1.5-.1.1a.1.1,0,0,1-.1-.1l.1-.1A.1.1,0,0,1,44.7,73.8Zm.6-.1.1-.1a.1.1,0,0,1,.1.1l-.1.1C45.3,73.8,45.2,73.7,45.3,73.7Zm-.4.1-.1.1a.1.1,0,0,1-.1-.1l.1-.1A.1.1,0,0,1,44.9,73.8Zm-.2-.8a.1.1,0,0,1,.1-.1c.1,0,.2,0,.2.1a.1.1,0,0,1-.1.1C44.8,73.1,44.7,73.1,44.7,73Zm.4.8a.1.1,0,0,1-.1-.1l.1-.1a.1.1,0,1,1,0,.2Z" style="fill:#231f20"/><path d="M47.7,75a.66.66,0,0,0,.4-.5h0c0-.1-.1-.3-.2-.3a.37.37,0,0,0,.1-.3.32.32,0,0,0-.3-.3h0c0-.3-.4-.5-.7-.5h0c.1.2.1.3.2.5A3,3,0,0,0,47.7,75Z" style="fill:#231f20"/><path d="M47,72.3a.37.37,0,0,0,.1-.3c0-.2-.3-.4-.6-.4h-.1a.37.37,0,0,0,.1-.3c0-.2-.2-.3-.4-.3a7.84,7.84,0,0,1,.5,1.4h.1A.37.37,0,0,0,47,72.3Z" style="fill:#231f20"/><path d="M46.8,73.1h0c-.1.1-.2.1-.2,0a.1.1,0,0,1,.1-.1l.1.1h0a1.33,1.33,0,0,1-.3-.5.37.37,0,0,0-.3.1.1.1,0,0,1-.1-.1.6.6,0,0,1,.4-.1,7.84,7.84,0,0,1-.5-1.4h-.1c-.1,0-.2,0-.2.1a.55.55,0,0,0-.5-.3c-.1,0-.2.1-.3.1.3,1.4.6,2.7.9,4.1l1.1-.4c.1,0,.1.1.2.2s.1.1.2.1h.4l-.6-1.5c-.1-.1-.2-.3-.3-.4Zm-1.1.5-.1.1a.1.1,0,0,1-.1-.1l.1-.1Zm.2,0-.1.1a.1.1,0,0,1-.1-.1l.1-.1C45.9,73.5,46,73.5,45.9,73.6Zm.3-.1-.1.1a.1.1,0,0,1-.1-.1l.1-.1C46.2,73.4,46.2,73.4,46.2,73.5Zm.1-.1c-.1,0-.1,0-.1-.1a.1.1,0,0,1,.1-.1c.1.1.1.1,0,.2Zm.2-.1c-.1,0-.1,0-.1-.1a.1.1,0,0,1,.1-.1c.1,0,.1.1,0,.2Z" style="fill:#231f20"/><path d="M48.4,76.5c.3-.1.5.1.8.1h.7a2.54,2.54,0,0,1,.2-.7l.6-1a.37.37,0,0,1,.3.1h0a2.53,2.53,0,0,0-1.9.1,3,3,0,0,1-1.3.2,4.45,4.45,0,0,0,.6,1.2Z" style="fill:#231f20"/><path d="M46.1,76.4h0c-.1-.4-.2-.8-.3-1.3V75l-.5.2a1.7,1.7,0,0,0,.1.7,1.16,1.16,0,0,0,.5.7c.1,0,.2.1.3.1A.37.37,0,0,1,46.1,76.4Z" style="fill:#231f20"/><path d="M47.3,75.1c-.1,0-.1-.1-.2-.1s-.1-.2-.2-.2l-1.1.4v.1c.1.4.2.9.3,1.3l.5.1c.1.1.1.2.2.3a1.7,1.7,0,0,0,.7-.1l.6-.3a6.94,6.94,0,0,1-.5-1.3.37.37,0,0,1-.3-.1C47.4,75.1,47.3,75.1,47.3,75.1Z" style="fill:#231f20"/><path d="M50.9,75.3l-.1-.2a.1.1,0,0,1,.1-.1c-.1,0-.2-.1-.3-.1l-.6,1a1.45,1.45,0,0,0-.2.7v.5c.1.2.1.3.2.5.1,0,.1-.1.2-.1s.2,0,.2.1l.1-.1c0-.1-.1-.2,0-.3.1-.5.8-1.1.8-1.6a.52.52,0,0,0-.2-.4h0A.31.31,0,0,0,50.9,75.3Z" style="fill:#231f20"/><path d="M50.8,75.1l.1.2.2-.2h0l.3-.3v-.1c-.1,0-.1.1-.2.1L51,75h0A.35.35,0,0,0,50.8,75.1Z" style="fill:#231f20"/><path d="M51.3,74.7c.1,0,.1.1,0,0,.1.2.2.2.3.3s.3,0,.4-.2h.2c.3,0,.6-.1.6-.4s0-.3-.2-.4v-.1c0-.2-.1-.4-.3-.4a.6.6,0,0,0-.4.1h0c0-.1-.1-.3-.2-.3s-.3.1-.3.2h-.1c-.2,0-.5.1-.5.3a.37.37,0,0,0,.1.3l-.2.2c0,.2.1.4.3.4h.1A.14.14,0,0,0,51.3,74.7Z" style="fill:#231f20"/><path d="M50.3,77.5c-.1,0-.2,0-.2.1a.31.31,0,0,0-.1.2c0,.1,0,.1.1.2-.1,0-.2.1-.2.3a.22.22,0,0,0,.2.2v.1c0,.1.1.2.2.3a.76.76,0,0,1,.4-.2l.2-.1.1.1h0a.32.32,0,0,0,.3-.3.22.22,0,0,0-.2-.2h0a.2.2,0,0,0,0-.4v-.1c0-.2-.2-.3-.4-.3h-.1a.1.1,0,0,0-.1.1C50.5,77.6,50.4,77.5,50.3,77.5Z" style="fill:#231f20"/><path d="M46.9,79.2c0-.2-.1-.4-.1-.6a.1.1,0,0,1-.1-.1v-.4h0c0-.1,0-.2-.1-.2h0a.32.32,0,0,0-.3.3c0,.1,0,.1.1.2-.1,0-.2.1-.2.3a.22.22,0,0,0,.2.2V79a.35.35,0,0,0,.1.2A.3.3,0,0,1,46.9,79.2Z" style="fill:#231f20"/><path d="M46.7,78.5a1.27,1.27,0,0,1,.1.6h0L47,79v0h.1a.32.32,0,0,0,.3-.3.22.22,0,0,0-.2-.2h0a.2.2,0,1,0,0-.4V78a.32.32,0,0,0-.3-.3v.7C47,78.5,46.8,78.5,46.7,78.5Z" style="fill:#231f20"/><path d="M46.6,77.9h0c-.1.1,0,.1,0,.2Z" style="fill:#231f20"/><path d="M46.1,76.4v.3c0,.1.1.2.2.3a1.42,1.42,0,0,0-.2-.6Z" style="fill:#231f20"/><path d="M46.6,78.5l.1.1c0-.1-.1-.3-.1-.4h0Z" style="fill:#231f20"/><path d="M46.2,76.4c.1.2.1.4.2.6a.31.31,0,0,1,.1.2,1.27,1.27,0,0,1,.1.6V78c0,.1.1.3.1.4h.4V77.3a1.42,1.42,0,0,0-.2-.6c-.1-.1-.1-.2-.2-.3Z" style="fill:#231f20"/><path d="M46.5,79.2c-.1.1-.2.1-.2.2-.1.3.3.2.5.2H47c0-.1-.1-.3-.1-.4A.3.3,0,0,0,46.5,79.2Z" style="fill:#231f20"/><path d="M46.9,79.2h0a.76.76,0,0,0,.1.4c.2-.1.2-.2.1-.4v-.1Z" style="fill:#231f20"/><path d="M50.6,78.7c-.1,0-.2.1-.4.2l-.2.2c0,.3,1.2,0,.8-.4a.1.1,0,0,0-.1-.1Z" style="fill:#231f20"/><path d="M50.5,66.1v.1a.1.1,0,0,0,.1.1.53.53,0,0,0-.2-.7.6.6,0,0,0-.4-.1.1.1,0,0,0,.1.1A.66.66,0,0,1,50.5,66.1Z" style="fill:#211f1f"/><path d="M45.4,56.8a5.73,5.73,0,0,1,.8,3.4c0,.1.1.1.1.2a5.44,5.44,0,0,0-.6-3.3l-.3-.3Z" style="fill:#211f1f"/><path d="M50.3,65.7c.3.1.3.4.2.7a.1.1,0,0,0,.1.1.75.75,0,0,0,.1-.5.79.79,0,0,0-.8-.5l.1.1A.37.37,0,0,1,50.3,65.7Z" style="fill:#211f1f"/><path d="M46,60l.1.1a5.09,5.09,0,0,0-.8-3.4h-.1A4.66,4.66,0,0,1,46,60Z" style="fill:#211f1f"/><path d="M49,66.7a.37.37,0,0,1-.3-.1.1.1,0,0,0,.1.1c.1,0,.1.1.2,0a1.28,1.28,0,0,0,1.2,0c.1-.1.2-.2.2-.3a.1.1,0,0,0-.1-.1C50.3,66.8,49.5,66.8,49,66.7Z" style="fill:#211f1f"/><path d="M46.2,60.2l-.1-.1h0a2.35,2.35,0,0,1-.2.8l.1.1C46.1,60.7,46.1,60.5,46.2,60.2Z" style="fill:#211f1f"/><path d="M49.1,66a1.14,1.14,0,0,1,.8-.3H50a.1.1,0,0,0-.1-.1,1.53,1.53,0,0,0-1,.4l-.3.3v.1C48.8,66.2,49,66.1,49.1,66Z" style="fill:#211f1f"/><path d="M46,61l.1.1a2.35,2.35,0,0,0,.2-.8c0-.1-.1-.1-.1-.2C46.1,60.5,46.1,60.7,46,61Z" style="fill:#211f1f"/><path d="M49.7,65.5a1.77,1.77,0,0,0-1.1.7v.1l.3-.3a1.78,1.78,0,0,1,1-.4l-.1-.1Z" style="fill:#211f1f"/><path d="M50.3,66.6a2,2,0,0,1-1.3.1h-.1a.1.1,0,0,0,.1.1,2.44,2.44,0,0,0,1.2,0,1,1,0,0,0,.5-.4.1.1,0,0,0-.1-.1Q50.45,66.6,50.3,66.6Z" style="fill:#211f1f"/><path d="M46.1,68.7a.94.94,0,0,0-.2,1.1c.2.3.7.2,1.1.1a1.45,1.45,0,0,0,.7-1c0-.2.1-.3.1-.5h-.1v.1a1.85,1.85,0,0,1-.5,1.2c-.2.2-.9.5-1.2.2a.8.8,0,0,1,.2-1.1,1.37,1.37,0,0,1,1.3-.4v-.1A1.28,1.28,0,0,0,46.1,68.7Z" style="fill:#211f1f"/><path d="M43.4,65.2h0c0,.1.1.1,0,0,.1.1.1,0,0,0Z" style="fill:#211f1f"/><path d="M43.4,65.2c0-.1,0-.2-.1-.2v.3l.1-.1Z" style="fill:#211f1f"/><path d="M46.3,68.6c-.3.3-.5.9-.2,1.1s.9.1,1.2-.2a1.85,1.85,0,0,0,.5-1.2v-.1h-.1v.1a1.85,1.85,0,0,1-.2.7c-.2.4-.8.9-1.2.5-.2-.2-.1-.5,0-.7a2.65,2.65,0,0,1,.5-.6,1.15,1.15,0,0,1,1-.1V68A3.56,3.56,0,0,0,46.3,68.6Z" style="fill:#211f1f"/><path d="M42.6,66.6a2,2,0,0,1-1,1c-.5.2-1.2.1-1.4-.3s.4-1,.8-1.2a6.36,6.36,0,0,1,1.8-.6h.4v-.1a4.69,4.69,0,0,0-2.1.6c-.4.2-1,.6-1,1.1s.4.8.9.8c1,0,1.5-.8,1.9-1.4a2.11,2.11,0,0,0,.4-1h-.1A4.07,4.07,0,0,1,42.6,66.6Z" style="fill:#211f1f"/><path d="M43.4,63.6v-.1h-.1v.1Z" style="fill:#211f1f"/><path d="M43.2,65.4h.1v-.1a.1.1,0,0,0-.1.1Z" style="fill:#211f1f"/><path d="M43.3,65.2h0c0,.1.1.1,0,0,.1.1.1,0,.1,0Z" style="fill:#211f1f"/><path d="M43.1,63.6h.1v-.1c-.1-.1-.1-.1-.1.1Z" style="fill:#211f1f"/><path d="M46.3,65.9a11.76,11.76,0,0,0,2,.7.1.1,0,0,1,.1-.1c-.4-.1-.8-.3-1.3-.4s-1.2-.5-1.8-.7a4.68,4.68,0,0,0-1.7-.2v.1h.1A5.26,5.26,0,0,1,46.3,65.9Z" style="fill:#211f1f"/><path d="M42.9,63.5h0a.14.14,0,0,0,.2,0v-.1A.31.31,0,0,1,42.9,63.5Z" style="fill:#211f1f"/><path d="M41.3,63.9a5.85,5.85,0,0,1-1.3-.2c-.4-.2-.7-.5-.4-.9a1.49,1.49,0,0,1,1.3-.6,2,2,0,0,1,2.2,1.3h.1A2.33,2.33,0,0,0,42,62.3a2.52,2.52,0,0,0-2.5.5c-.6.9.8,1.3,1.6,1.3a5.84,5.84,0,0,0,1.8-.4v-.1A7.58,7.58,0,0,1,41.3,63.9Z" style="fill:#211f1f"/><path d="M43.3,63.6h-.1a1.7,1.7,0,0,1,.1.7c0,.1.1.1.1.2V64C43.3,64,43.3,63.8,43.3,63.6Z" style="fill:#211f1f"/><path d="M43.4,63.6h-.1a1.09,1.09,0,0,1,.1.5v.5c0,.1.1.1.1.2A4.87,4.87,0,0,0,43.4,63.6Z" style="fill:#211f1f"/><path d="M43.1,63.6h0a.14.14,0,0,0-.2,0v.1h0c.1,0,.2,0,.2-.1Z" style="fill:#211f1f"/><path d="M43.1,63.6h.1v-.1a.1.1,0,0,0-.1.1Z" style="fill:#211f1f"/><path d="M42.9,63.6a5.84,5.84,0,0,1-1.8.4c-.8,0-2.2-.4-1.6-1.3a2.32,2.32,0,0,1,2.5-.5,2,2,0,0,1,1.2,1.2h.1a2.17,2.17,0,0,0-2-1.4c-.8,0-1.9.4-2,1.1s1.1,1,1.7,1a4.67,4.67,0,0,0,1.7-.3c.1,0,.2,0,.2-.2Z" style="fill:#211f1f"/><path d="M43.4,64.9c0-.1-.1-.2-.1-.3v.6h.1C43.3,65.1,43.4,65,43.4,64.9Z" style="fill:#211f1f"/><path d="M43.2,63.4h0l.1.1h0v-.1Z" style="fill:#211f1f"/><path d="M43.3,65.3h0c-.1-.1-.1,0-.1,0Z" style="fill:#211f1f"/><path d="M43.3,63.5h.1a3.75,3.75,0,0,0,2.5-2.4l-.1-.1a3.38,3.38,0,0,1-.6,1.2,5.74,5.74,0,0,1-1.9,1.3Z" style="fill:#211f1f"/><path d="M48.4,66.5c.1-.1.1-.2.2-.2v-.1c-.1.1-.2.2-.2.3Z" style="fill:#211f1f"/><path d="M48.5,66.6c0-.1.1-.1.1-.2v-.1c0,.1-.1.2-.1.3Z" style="fill:#211f1f"/><path d="M43.5,63.4h-.1v.1c.3-.1.5-.2.8-.3a3.54,3.54,0,0,0,1.9-2.1L46,61A3.76,3.76,0,0,1,43.5,63.4Z" style="fill:#211f1f"/><path d="M42.9,66.4c-.5.6-.9,1.4-1.9,1.4-.5,0-1-.3-.9-.8s.6-.8,1-1.1a5.09,5.09,0,0,1,2.1-.6v-.1a4.93,4.93,0,0,0-2.9,1.1,1,1,0,0,0-.3,1.1,1.23,1.23,0,0,0,1,.5c1.1,0,1.6-.9,2-1.6a1.61,1.61,0,0,0,.3-.9h-.1A2.24,2.24,0,0,1,42.9,66.4Z" style="fill:#211f1f"/><path d="M43.4,65.3h0c0,.1.1.1,0,0,.1.1.1,0,0,0Z" style="fill:#211f1f"/><path d="M48.4,66.6h0v.1s.1,0,0-.1Z" style="fill:#211f1f"/><path d="M48.1,67.3c-.1.3-.3.6-.4.9h.1v-.1a3.55,3.55,0,0,1,.4-.9,2.19,2.19,0,0,1,.3-.5h-.1A.86.86,0,0,0,48.1,67.3Z" style="fill:#211f1f"/><path d="M48.5,66.7h0a.76.76,0,0,0,.4.2.1.1,0,0,0-.1-.1A.37.37,0,0,0,48.5,66.7Z" style="fill:#211f1f"/><path d="M48.5,69a2.89,2.89,0,0,1-.3,2.4,4,4,0,0,1-1.4,1.1c-.1,0-.1.1-.2.1h.2a1.61,1.61,0,0,0,.7-.4,2.59,2.59,0,0,0,1-1.1,2.27,2.27,0,0,0-.3-2.6.76.76,0,0,0-.4-.2v.1A.86.86,0,0,1,48.5,69Z" style="fill:#211f1f"/><path d="M48.5,66.6h0c.1.1.2.1.3.2a.1.1,0,0,0-.1-.1C48.7,66.6,48.6,66.6,48.5,66.6Z" style="fill:#211f1f"/><path d="M47.7,68.3h.1c0-.1-.1-.1-.1,0Z" style="fill:#211f1f"/><path d="M43.3,65.3h0c0,.1.1.1,0,0h0Z" style="fill:#211f1f"/><path d="M48.3,66.7h0c.1,0,.1,0,.1-.1a.1.1,0,0,0-.1.1Z" style="fill:#211f1f"/><path d="M47.6,68.3h0c.1,0,.1,0,.1-.1l-.1.1Z" style="fill:#211f1f"/><path d="M48.4,66.5h0v.1c.1,0,.1,0,0-.1Z" style="fill:#211f1f"/><path d="M47.8,68.4h0c0-.1,0-.1-.1-.1v.1Z" style="fill:#211f1f"/><path d="M48,68.5a1.1,1.1,0,0,1,.6,1,2.7,2.7,0,0,1-.3,1.5,2.13,2.13,0,0,1-1,1.1c-.1.1-.2.1-.3.2h0a.1.1,0,0,1-.1.1,2.59,2.59,0,0,0,1.4-1.1,2.94,2.94,0,0,0,.3-2.4,1.58,1.58,0,0,0-.7-.7v.1C47.8,68.4,47.9,68.4,48,68.5Z" style="fill:#211f1f"/><path d="M47.6,68.3h0c.1,0,.1,0,.1-.1a.1.1,0,0,0-.1.1Z" style="fill:#211f1f"/><path d="M46.6,66.1c.5.2,1.1.4,1.7.6v-.1c-.7-.2-1.3-.5-2-.7a5.83,5.83,0,0,0-2.6-.6h-.1v.1a3.4,3.4,0,0,1,1,.1A9.48,9.48,0,0,1,46.6,66.1Z" style="fill:#211f1f"/><path d="M48.4,66.5h0v0Z" style="fill:#211f1f"/><path d="M47.8,67.7c-.1.2-.1.3-.2.5h.1a3.55,3.55,0,0,1,.4-.9l.3-.6h-.1A4.67,4.67,0,0,0,47.8,67.7Z" style="fill:#211f1f"/><path d="M43.7,65.3h-.2v.1c.1,0,.2,0,.2-.1Z" style="fill:#211f1f"/><path d="M43.5,65.2h0c0,.1.1.1.2.1v-.1Z" style="fill:#211f1f"/><path d="M43.4,64.6c0-.1-.1-.1-.1-.2v.2c0,.1.1.2.1.3Z" style="fill:#211f1f"/><path d="M43.5,64.8c0-.1-.1-.1-.1-.2v.3c0,.1,0,.2.1.2Z" style="fill:#211f1f"/><path d="M46.6,72.5h0c.1,0,.1,0,.2-.1,0,.1-.1.1-.2.1Z" style="fill:#211f1f"/><path d="M47,72.3c-.1,0-.2.1-.3.1h-.1c.1,0,.1,0,.2-.1C46.9,72.4,46.9,72.4,47,72.3Z" style="fill:#211f1f"/><path d="M46.6,72.5c-.1.1-.3,0-.4.1a.1.1,0,0,0,.1.1c.1,0,.2-.1.3-.1h0a.37.37,0,0,0-.3.1,1,1,0,0,1,.3-.1h0c-.1,0,0-.1,0-.1Z" style="fill:#211f1f"/><path d="M46.5,72.6h.1C46.6,72.5,46.5,72.6,46.5,72.6Z" style="fill:#211f1f"/><path d="M33.2,43.4c.1-.1.1-.2.2-.3C33.2,43.2,33.2,43.3,33.2,43.4Z" style="fill:#dd8426"/><path d="M34.2,56.2c.1-1.1.4-2.2.5-3.3.2-1.9-.8-3.6-1.4-5.3.2,1.7.4,3.4.5,5.1a27.16,27.16,0,0,1-.2,4.9,17.42,17.42,0,0,1-.5,2.2c.2-.2.3-.5.5-.6A6.21,6.21,0,0,0,34.2,56.2Z" style="fill:#dd8426"/><path d="M33.2,43.4a17.61,17.61,0,0,1-1.4,2.3,5,5,0,0,0,1.2.2v.2a2.77,2.77,0,0,0,.1-.9C33.2,44.7,33,43.9,33.2,43.4Z" style="fill:#dd8426"/><path d="M49,38.9c.1-.1.1-.2.2-.2a6.53,6.53,0,0,0-2,.5Z" style="fill:#dd8426"/><path d="M28.7,41.4h0c.3.3.1.6,0,.8s-.1.2-.1.3a16.88,16.88,0,0,0,3-1.3C30.7,41.3,29.6,41.3,28.7,41.4Z" style="fill:#dd8426"/><path d="M32.4,41.6A14,14,0,0,0,30,43.1c-.1.1-.2.1-.3.2s.1.2.2.3a1.79,1.79,0,0,0,.7.5h.2A6.69,6.69,0,0,1,32.4,41.6Z" style="fill:#dd8426"/><path d="M48.5,40.9c.1,0,.1,0,.3-.1a.52.52,0,0,0,.4-.2v-.3a10.14,10.14,0,0,0-2.4-.2A13.76,13.76,0,0,0,48.5,40.9Z" style="fill:#dd8426"/><path d="M45.9,52.9c.5,1.9.4,4.2,2.5,5.4.2.1.4.3.6.4a13.61,13.61,0,0,1-2.2-5.3,33.22,33.22,0,0,1-.9-5.5,16.15,16.15,0,0,0,0,2.2A8.76,8.76,0,0,0,45.9,52.9Z" style="fill:#dd8426"/><path d="M49.8,37.9a7.81,7.81,0,0,0-4.5,1.2h0a2.2,2.2,0,0,0-.8.1h0c-.1,0-.1.1,0,.2a6.33,6.33,0,0,1-2.4,3.7c-.8.7-1.9,1.3-2.7,2-.9-.5-2.1-.9-3.1-1.4a7.12,7.12,0,0,1-3.1-3.1v-.2h-.1a2.2,2.2,0,0,0-.8.1h0a7.54,7.54,0,0,0-4.7-.1.1.1,0,0,0-.1.1c0,.2.3.2.5.3a1.56,1.56,0,0,1,.8.6c1-.1,2,0,3-.2a16,16,0,0,1-3,1.3.37.37,0,0,0,.1.3c.1.2.2.2.4.1s.4,0,.5.2a.1.1,0,0,0,.1.1c.1-.1.2-.1.3-.2a12,12,0,0,1,2.4-1.5A6.52,6.52,0,0,0,30.9,44h.2c.2.1.3.5.4.7s.1.7.5.9h0c.4-.8,1-1.6,1.4-2.3,0-.1.1-.2.2-.3,0,.1-.1.2-.2.3a6.05,6.05,0,0,0,0,1.9c0,.3-.1.6-.1.9a7.72,7.72,0,0,1,.2,1.5c.5,1.8,1.5,3.5,1.4,5.3-.1,1.1-.4,2.2-.5,3.3s.1,2-.7,2.9a2.65,2.65,0,0,1-.5.6,13,13,0,0,1-.8,1.7c-.1.1,0,.2.1.2,1.2.2,2.5.3,3.7.4,1,.1,2,.1,2.9.1h2.1l1.2-.3c.3-.1.6-.1.9-.2a22.88,22.88,0,0,0,2.8-.8c1.2-.4,2.4-.8,3.5-1.2.1,0,.2-.2.1-.2a5,5,0,0,1-.7-.8c-.2-.1-.4-.3-.6-.4-2.1-1.2-2-3.6-2.5-5.4a12.21,12.21,0,0,1-.1-2.7,16.15,16.15,0,0,1,0-2.2c-.1-.7-.1-1.4-.2-2.1-.4-1.6-.6-4.2.4-5.8a30,30,0,0,1,.3,4.3c.2-.1.3-.2.5-.3.4-.3.3-.7.3-1,0-.1,0-.4.1-.5a5,5,0,0,1-.2-1.2l.8.8a1,1,0,0,0,.4-.5.6.6,0,0,0,.1-.4c0-.1.1-.2.2-.3-.6-.3-1.3-.5-1.8-.8a10.14,10.14,0,0,1,2.4.2c-.1-.4-.5-.7-.3-1.1,0-.1.1-.2.2-.3a11,11,0,0,1-1.8.2,14.62,14.62,0,0,1,2-.5l.3-.3c.2-.1.4-.2.4-.4C49.9,38,49.8,37.9,49.8,37.9Z" style="fill:#f1a21e"/><path d="M46,40a8.55,8.55,0,0,0-.3,5.9v-.1c0-.4-.1-.9-.1-1.3.2-.1.5-.2.7-.3A30.75,30.75,0,0,0,46,40Z" style="fill:#dd8426"/><path d="M47.1,42.5c0-.1.1-.1.1-.2a.37.37,0,0,1,.3-.1c.1,0,.1,0,.2-.1l-.8-.8A5,5,0,0,0,47.1,42.5Z" style="fill:#dd8426"/><path d="M.2,24.66c3.8,14,13.3,24.76,25,26.9,16.7,3.06,29.7-13,34.9-19.46A63.18,63.18,0,0,0,73.1,0c18.2,0,36.3.1,54.5.1,0,26.39-.1,52.79-.1,79.18q-63.75,0-127.5.1C0,61.14.1,42.9.2,24.66Z" style="fill:#ee3224"/><path d="M20.5,12.3a.75.75,0,0,0,.1.5.78.78,0,0,0,.4.4q.3.15.3.3c0,.1.1.2.1.3s0,.2-.1.2-.1.1-.3.1a.76.76,0,0,1-.4-.1.85.85,0,0,0-.8,0h-.4a.37.37,0,0,1-.4-.4v-.3a.35.35,0,0,1,.2-.1c.1,0,.2-.1.3-.2s.1-.4.1-.8a60.27,60.27,0,0,1,.1-9.5V2.1c0-.2-.1-.3-.3-.4a1.38,1.38,0,0,1-.4-.3V1.1c0-.1,0-.1.1-.2s.1-.1.2-.1a4.33,4.33,0,0,0,.5.1c.2.1.3.2.4.2h.9c.2,0,.2.2.2.4s0,.2-.1.3a.35.35,0,0,1-.2.1c-.1,0-.2.1-.3.2s-.1.4-.2.8A73.7,73.7,0,0,0,20.5,12.3Zm4.2.1a.75.75,0,0,0,.1.5.78.78,0,0,0,.4.4,1.24,1.24,0,0,1,.3.2c0,.1.1.1.1.2s0,.2-.1.2a.37.37,0,0,1-.3.1.76.76,0,0,1-.4-.1.85.85,0,0,0-.8,0c-.2,0-.3.1-.4.1a.37.37,0,0,1-.4-.4v-.3a.35.35,0,0,1,.2-.1c.1,0,.2-.1.3-.2s.1-.4.1-.8a45.1,45.1,0,0,1,0-5.2c0-.2,0-.3-.1-.4a.52.52,0,0,0-.4-.2c-.9-.1-1.3-.1-2.2-.2-.2,0-.3-.1-.4-.1a.37.37,0,0,1-.1-.3.37.37,0,0,1,.1-.3c.1-.1.2-.1.4-.1,1,.1,1.4.1,2.4.2a.37.37,0,0,0,.3-.1c0-.1.1-.2.1-.4.1-1.2.1-1.9.1-2.2a.55.55,0,0,0-.4-.6c-.1-.1-.2-.2-.2-.3V1.7c0-.1,0-.1.1-.2s.1-.1.2-.1a4.33,4.33,0,0,0,.5.1.76.76,0,0,0,.4.1h.9c.2,0,.2.1.2.4a.37.37,0,0,1-.1.3.35.35,0,0,1-.2.1c-.1,0-.2.1-.3.2a1.29,1.29,0,0,0-.2.8A67.62,67.62,0,0,0,24.7,12.4Z" style="fill:#fef04b;stroke:#efeb5d;stroke-miterlimit:10;stroke-width:0.5px"/><path d="M29.5,12.6a.79.79,0,0,0,.5.8c.1,0,.1.1.2.1a.44.44,0,0,1,.1.3c0,.1,0,.1-.1.2s-.1.1-.2.1-.1,0-.3-.1-.2-.1-.3-.1a.37.37,0,0,0-.3.1.35.35,0,0,0-.2.1.1.1,0,0,1-.1-.1c0-.1-.1-.1-.1-.2s0-.1-.1-.1a.1.1,0,0,0-.1.1,1.73,1.73,0,0,1-1.2.6,1.33,1.33,0,0,1-.7-.3,1.56,1.56,0,0,1-.6-.8,2.9,2.9,0,0,1-.3-1.4,2,2,0,0,1,.5-1.5,1.61,1.61,0,0,1,1.3-.6.86.86,0,0,1,.6.3c.2.2.3.3.3.5s0,.1-.1.2a.35.35,0,0,1-.2.1,1.24,1.24,0,0,0-.3-.2.67.67,0,0,0-1.1.2,1.8,1.8,0,0,0-.3,1.1,2.13,2.13,0,0,0,.3,1.2.81.81,0,0,0,1.4,0,1.69,1.69,0,0,0,.3-1V10a1.88,1.88,0,0,0-.2-.8.55.55,0,0,0-.5-.3,1.22,1.22,0,0,0-.9.4.31.31,0,0,1-.2.1c-.1,0-.1,0-.2-.1a.37.37,0,0,1-.1-.3c0-.3.2-.5.5-.7a1.64,1.64,0,0,1,1-.2,1.38,1.38,0,0,1,1.1.6,2,2,0,0,1,.4,1.3A11,11,0,0,1,29.5,12.6Z" style="fill:#fef04b;stroke:#efeb5d;stroke-miterlimit:10;stroke-width:0.5px"/><path d="M31.3,15.2V9.8a.37.37,0,0,0-.1-.3.52.52,0,0,0-.4-.2c-.1,0-.2-.1-.3-.2s-.1-.1-.1-.2a.27.27,0,0,1,.3-.3.77.77,0,0,1,.3.1.5.5,0,0,0,.6,0,.37.37,0,0,1,.3-.1c.1,0,.1,0,.2.1V9c0,1.1-.1,1.7-.1,2.8a2.27,2.27,0,0,0,.3,1.3,1,1,0,0,0,.8.5,1.55,1.55,0,0,0,.6-.3,2.18,2.18,0,0,0,.5-.8,5,5,0,0,0,.2-1.2,4,4,0,0,0-.3-1.5c-.2-.4-.5-.7-.8-.7a.9.9,0,0,0-.5.1.77.77,0,0,1-.3.1.1.1,0,0,1-.1-.1.14.14,0,0,1,0-.2c0-.2.1-.3.4-.4a2.54,2.54,0,0,1,.7-.2,1.48,1.48,0,0,1,1.3.9,4.06,4.06,0,0,1,.5,2.1,3.29,3.29,0,0,1-.6,1.9c-.4.6-.8.9-1.3.9a1.27,1.27,0,0,1-.6-.1,3.19,3.19,0,0,1-.7-.6v1.9a2.92,2.92,0,0,1-.2.9,1.27,1.27,0,0,1-.4.6.52.52,0,0,1-.4.2c-.2,0-.3-.1-.3-.2s0-.1.1-.2a1.61,1.61,0,0,0,.4-.7Z" style="fill:#fef04b;stroke:#efeb5d;stroke-miterlimit:10;stroke-width:0.5px"/><path d="M36.4,15.1v-5a.37.37,0,0,0-.1-.3.52.52,0,0,0-.4-.2c-.1,0-.2-.1-.3-.1s-.1-.1-.1-.2a.27.27,0,0,1,.3-.3.77.77,0,0,1,.3.1.5.5,0,0,0,.6,0A.77.77,0,0,1,37,9c.1,0,.1,0,.2.1v.3a21.75,21.75,0,0,0-.1,2.6,2.77,2.77,0,0,0,.3,1.3,1,1,0,0,0,.8.5,1.55,1.55,0,0,0,.6-.3,1.58,1.58,0,0,0,.5-.8,3.73,3.73,0,0,0,.2-1.2,3.19,3.19,0,0,0-.3-1.4,1.2,1.2,0,0,0-.7-.7.9.9,0,0,0-.5.1.77.77,0,0,1-.3.1.1.1,0,0,1-.1-.1V9.3c0-.1.1-.3.4-.4a2.54,2.54,0,0,1,.7-.2,1.56,1.56,0,0,1,1.3.8,3.14,3.14,0,0,1,.4,2,3.23,3.23,0,0,1-.6,1.8,1.72,1.72,0,0,1-1.4.8,1.27,1.27,0,0,1-.6-.1c-.2-.1-.4-.3-.7-.5v.4a5.31,5.31,0,0,1-.1,1.4,1.61,1.61,0,0,1-.3.9,1,1,0,0,1-.4.5.52.52,0,0,1-.4.2c-.2,0-.3-.1-.3-.2s0-.1.1-.2a2.09,2.09,0,0,0,.4-.6A1.33,1.33,0,0,0,36.4,15.1Z" style="fill:#fef04b;stroke:#efeb5d;stroke-miterlimit:10;stroke-width:0.5px"/><path d="M43.4,13.2c.1,0,.1.1.1.2s-.1.3-.4.5a1.33,1.33,0,0,1-.8.3.86.86,0,0,1-.6-.3,2.09,2.09,0,0,1-.4-.6,6.25,6.25,0,0,1,0-1.4,6.6,6.6,0,0,1,.1-1.4c0-.4-.1-.6-.3-.7s-.2-.1-.3-.1-.1-.1,0-.2,0-.1.1-.2a.1.1,0,0,1,.1-.1.77.77,0,0,1,.3.1.37.37,0,0,0,.3.1h.6a.1.1,0,0,1,.1.1.1.1,0,0,0,.1.1v.9c0,.6-.1,1.1-.1,1.6v.8a.76.76,0,0,0,.2.4.52.52,0,0,0,.4.2.76.76,0,0,0,.4-.2Zm1.2-3.7c.1,0,.2.1.1.3,0,.4-.1,1-.1,1.9s-.1,1.4-.1,1.6a5.15,5.15,0,0,1-.3,2.1c-.2.4-.4.7-.5.9a.91.91,0,0,1-.7.3,1.27,1.27,0,0,1-.6-.1c-.1-.1-.2-.2-.2-.3v-.1l.1-.1a.31.31,0,0,1,.2.1c.1,0,.2.1.3.1a.55.55,0,0,0,.5-.3.91.91,0,0,0,.3-.7,4.51,4.51,0,0,0,.1-1.3,17.31,17.31,0,0,1,.2-3.5.55.55,0,0,0-.3-.5c-.2-.1-.4-.2-.3-.3s.1-.2.3-.2a.37.37,0,0,1,.3.1c.1,0,.3.1.4.1h.2Z" style="fill:#fef04b;stroke:#efeb5d;stroke-miterlimit:10;stroke-width:0.5px"/><path d="M50.7,5.3c.1,0,.2.2.2.5v.8c0,.2-.1.4-.3.3a.1.1,0,0,1-.1-.1,1,1,0,0,1-.1-.4.69.69,0,0,0-.6-.7.75.75,0,0,0-.5.1,1.33,1.33,0,0,0-.3.7,47.82,47.82,0,0,0-.7,6.5.37.37,0,0,0,.1.3c0,.1.1.1.3.2a.37.37,0,0,0,.3.1v.1a.27.27,0,0,1-.3.3.76.76,0,0,1-.4-.1c-.2,0-.3-.1-.4-.1h-.8a.37.37,0,0,1-.3-.1c-.1-.1-.1-.1-.1-.3v-.1a.44.44,0,0,1,.3-.1c.2-.1.3-.1.3-.3s.1-.2.1-.4a51,51,0,0,1,.8-6.7c.1-.4-.1-.6-.6-.7a.84.84,0,0,0-.7.2.52.52,0,0,0-.2.4c-.1.2-.1.3-.2.3h-.1c-.1,0-.1,0-.1-.1l-.1-.1a8.11,8.11,0,0,1,.3-1.1c.1-.3.2-.4.4-.4A10.73,10.73,0,0,0,50.7,5.3Z" style="fill:#fef04b;stroke:#efeb5d;stroke-miterlimit:10;stroke-width:0.5px"/><path d="M52.7,9.9a1.72,1.72,0,0,1,1.4.8,1.75,1.75,0,0,1,.4,1.5,2.63,2.63,0,0,1-.7,1.5,2.27,2.27,0,0,1-1.6.6,2,2,0,0,1-1.4-.6,1.84,1.84,0,0,1-.5-1.6,3.29,3.29,0,0,1,.7-1.6A1.83,1.83,0,0,1,52.7,9.9Zm-.4,3.8a1.39,1.39,0,0,0,1-.5,2.2,2.2,0,0,0,.5-1.2,1.55,1.55,0,0,0-.2-1.2,1.05,1.05,0,0,0-.9-.5,1.28,1.28,0,0,0-1,.4,2.2,2.2,0,0,0-.5,1.2,1.81,1.81,0,0,0,.2,1.3A1,1,0,0,0,52.3,13.7Z" style="fill:#fef04b;stroke:#efeb5d;stroke-miterlimit:10;stroke-width:0.5px"/><path d="M60.1,6.7c.1,0,.2.1.2.4a1.7,1.7,0,0,1-.1.7c-.1.2-.1.3-.2.3a.1.1,0,0,1-.1-.1c0-.1-.1-.1-.1-.3a.52.52,0,0,0-.2-.4c-.1-.1-.3-.1-.4-.2a.75.75,0,0,0-.5.1,2.19,2.19,0,0,0-.3.5,50.33,50.33,0,0,0-1,5.6v.2c0,.1.1.1.3.2s.2.1.3.1v.1a.27.27,0,0,1-.3.3h-.4c-.2,0-.3,0-.4-.1h-.8a.37.37,0,0,1-.3-.1c-.1-.1-.1-.1-.1-.2a.1.1,0,0,1,.1-.1.44.44,0,0,1,.3-.1c.2,0,.3-.1.3-.2a.37.37,0,0,0,.1-.3,52.14,52.14,0,0,1,1-5.7c.1-.3-.1-.5-.5-.6a1.48,1.48,0,0,0-.7.1q-.3.15-.3.3c-.1.2-.1.3-.2.3h-.1c-.1,0-.1,0-.1-.1l-.1-.1a4.65,4.65,0,0,1,.3-.9c.1-.2.2-.3.4-.3C57.7,6.4,58.5,6.5,60.1,6.7Z" style="fill:#fef04b;stroke:#efeb5d;stroke-miterlimit:10;stroke-width:0.5px"/><path d="M62,10.6a1.78,1.78,0,0,1,1.3.6,1.57,1.57,0,0,1,.4,1.3,2.58,2.58,0,0,1-.8,1.3,2.77,2.77,0,0,1-1.6.5,1.9,1.9,0,0,1-1.3-.5,1.42,1.42,0,0,1-.4-1.4,1.83,1.83,0,0,1,.8-1.3A1.67,1.67,0,0,1,62,10.6Zm-.6,3.2a1.28,1.28,0,0,0,1-.4,1.91,1.91,0,0,0,.5-1,1.16,1.16,0,0,0-.2-1,1,1,0,0,0-.9-.4,1.69,1.69,0,0,0-1,.3,1.6,1.6,0,0,0-.5,1,1.31,1.31,0,0,0,.2,1.1A1,1,0,0,0,61.4,13.8Z" style="fill:#fef04b;stroke:#efeb5d;stroke-miterlimit:10;stroke-width:0.5px"/><circle cx="61.7" cy="12.5" r="0.5" style="fill:#0b0c0c"/><circle cx="52.9" cy="12.5" r="0.5" style="fill:#0b0c0c"/><path d="M53.4,17.1a4.83,4.83,0,0,0,3.8,2.8c2.4.1,4-2.3,4-2.4s-1.3,1.5-3.3,1.7C55.4,19.3,53.6,16.9,53.4,17.1Z" style="fill:#ddc747"/><text transform="translate(70.18 34.24) scale(1.04 1)" style="font-size:12.919017791748047px;fill:#6d6b6b;stroke:#5e5b5b;stroke-miterlimit:10;stroke-width:0.75px;font-family:Gabriola;letter-spacing:-0.048777825779691246em">W<tspan x="8.55" y="0" style="letter-spacing:-0.00007291154825065956em">elcome!!</tspan></text><text transform="translate(47.47 45.17)" style="font-size:4px;fill:#f4eaea;font-family:MyriadPro-Regular, Myriad Pro"><tspan xml:space="preserve">           </tspan><tspan x="9.33" y="0" style="letter-spacing:-0.035888671875em"> </tspan><tspan x="10.03" y="0" style="letter-spacing:-0.032958984375em">W</tspan><tspan x="13.28" y="0">el</tspan><tspan x="16.23" y="0" style="letter-spacing:-0.006103515625em">c</tspan><tspan x="18" y="0">ome </tspan><tspan x="26.38" y="0" style="letter-spacing:-0.006103515625em">t</tspan><tspan x="27.68" y="0">o Hap</tspan><tspan x="37.54" y="0" style="letter-spacing:-0.007080078125em">p</tspan><tspan x="39.79" y="0" style="letter-spacing:-0.030029296875em">y</tspan><tspan x="41.55" y="0" style="letter-spacing:-0.071044921875em">T</tspan><tspan x="43.25" y="0">o</tspan><tspan x="45.45" y="0" style="letter-spacing:-0.006103515625em">t</tspan><tspan x="46.75" y="0">o </tspan><tspan x="0" y="4.8" xml:space="preserve">   game aiming </tspan><tspan x="25.34" y="4.8" style="letter-spacing:-0.006103515625em">t</tspan><tspan x="26.64" y="4.8" style="letter-spacing:-0.000244140625em">o help </tspan><tspan x="37.97" y="4.8" style="letter-spacing:-0.010009765625em">y</tspan><tspan x="39.82" y="4.8">our child</tspan><tspan x="54.52" y="4.8" style="letter-spacing:-0.010009765625em">r</tspan><tspan x="55.79" y="4.8" xml:space="preserve">en  </tspan><tspan x="0" y="9.6">p</tspan><tspan x="2.28" y="9.6" style="letter-spacing:-0.010009765625em">r</tspan><tspan x="3.54" y="9.6">o</tspan><tspan x="5.74" y="9.6" style="letter-spacing:-0.006103515625em">t</tspan><tspan x="7.04" y="9.6">e</tspan><tspan x="9.04" y="9.6" style="letter-spacing:0.012939453125em">c</tspan><tspan x="10.89" y="9.6">t themsel</tspan><tspan x="26.48" y="9.6" style="letter-spacing:-0.010009765625em">v</tspan><tspan x="28.36" y="9.6">es against child s</tspan><tspan x="56.38" y="9.6" style="letter-spacing:-0.0029296875em">e</tspan><tspan x="58.37" y="9.6">xual abuse!!</tspan></text></svg>