<svg xmlns="http://www.w3.org/2000/svg" viewBox="0 0 20.84 24.17"><path d="M17.4,21h0l-.12.3a1,1,0,0,0,0,.1c0,.12-.11.24-.17.36l-.06.12c-.07.13-.14.25-.22.37l-.08.1a1.5,1.5,0,0,1-1.2.63h-.08l-.06-.08,0,0c-.09,0-.11-.2-.1-.44l0-.28A2.71,2.71,0,0,1,15.59,21s0,0,0,0,0,0,.05,0a1.89,1.89,0,0,1,.4-.34l.09,0a2.12,2.12,0,0,1,.37-.18l.08,0a2.38,2.38,0,0,1,.63-.14c-.38-1.89-.58-3.88-.87-5.73a46.25,46.25,0,0,1-.18-7.52H14.54V5.68c-.59.12-1.17.29-1.75.43l0,.13,0,.09-.07.18,0,.09c0,.1-.07.19-.11.29h0l0,.09c-.06.13-.11.25-.17.37l-.06.12c-.07.13-.15.25-.23.37a.86.86,0,0,0-.07.1,1.52,1.52,0,0,1-1.2.63h-.09l-.05-.08,0,0c-.08,0-.11-.2-.09-.44a1.5,1.5,0,0,1,0-.29,2.53,2.53,0,0,1,.3-1.11l0,0,0,0A1.14,1.14,0,0,1,11,6.42h-.52l-.59,0-.49,0c-1-.11-2-.47-3-.68V6.94H4.73a47.41,47.41,0,0,1-.18,7.52L4.46,15l.06,0a2.53,2.53,0,0,1,.37-.18l.08,0a2,2,0,0,1,.79-.14.86.86,0,0,1,.23,0h.08c-.05.13-.11.27-.16.41l0,.09-.07.18,0,.09-.12.3,0,.1c-.05.12-.1.24-.16.36l-.07.12c-.07.13-.14.25-.22.37l-.08.1a1.57,1.57,0,0,1-1,.61,22.79,22.79,0,0,1-1.54,6.31c.58.23,1.15.44,1.73.65l0,0c-.09,0-.11-.2-.1-.44l0-.28a2.71,2.71,0,0,1,.31-1.12l0,0,.05-.06a2.24,2.24,0,0,1,.4-.34L5.1,22a2.09,2.09,0,0,1,.37-.17l.08,0a2.43,2.43,0,0,1,.78-.14l.24,0,.08,0c-.06.13-.11.26-.16.4l0,.09c0,.06,0,.12-.07.19l0,.09-.12.29,0,.1c-.05.12-.11.24-.17.36L6,23.36a3.28,3.28,0,0,1-.22.37l-.08.1a1.5,1.5,0,0,1-1.1.63c.77.27,1.54.52,2.3.73a16.71,16.71,0,0,0,3.59.59A16.61,16.61,0,0,0,14,25.19a45.14,45.14,0,0,0,4.28-1.47A14.23,14.23,0,0,1,17.4,21ZM9.92,11.42a2.53,2.53,0,0,1,.79-.14,2,2,0,0,1,.24,0H11c0,.13-.1.27-.16.4l0,.09c0,.07-.05.13-.07.19l0,.09c0,.1-.07.2-.11.3a.36.36,0,0,0,0,.09c-.06.13-.11.25-.17.37l-.06.12c-.07.13-.15.25-.23.37a.86.86,0,0,0-.07.1,1.52,1.52,0,0,1-1.2.63H8.75L8.7,14l0,0c-.08,0-.11-.2-.09-.44a1.5,1.5,0,0,1,0-.29,2.63,2.63,0,0,1,.3-1.11l0,0L9,12a1.73,1.73,0,0,1,.41-.34l.08,0a3.14,3.14,0,0,1,.37-.18ZM6.85,9.6a1.52,1.52,0,0,1-1.21.63H5.56l0-.08,0,0c-.09,0-.11-.2-.1-.44l0-.29a2.6,2.6,0,0,1,.31-1.11l0,0,0-.05a1.73,1.73,0,0,1,.41-.34l.08,0a2.53,2.53,0,0,1,.37-.18l.08,0a2.48,2.48,0,0,1,.79-.14,1.6,1.6,0,0,1,.23,0h.08c0,.13-.1.27-.16.4l0,.09c0,.07,0,.13-.07.19l0,.09-.12.3a.36.36,0,0,1,0,.09c0,.13-.1.25-.16.37a.75.75,0,0,1-.07.12,2.77,2.77,0,0,1-.22.37A.86.86,0,0,0,6.85,9.6ZM8.74,19.68H8.66L8.6,19.6l0-.05c-.09,0-.11-.2-.1-.44,0-.09,0-.18,0-.28a2.71,2.71,0,0,1,.31-1.12l0,0,.05-.06a2.24,2.24,0,0,1,.4-.34l.09-.05.37-.17.08,0a2.43,2.43,0,0,1,.78-.14l.24,0,.08,0c-.06.13-.11.26-.16.4l0,.09c0,.06,0,.12-.07.19l0,.09-.12.29,0,.1c-.05.12-.11.24-.17.36l-.06.12a3.28,3.28,0,0,1-.22.37l-.08.1A1.54,1.54,0,0,1,8.74,19.68Zm3.49,3.72,0,.09-.07.19,0,.09-.12.3,0,.09c0,.13-.11.25-.17.37l-.06.12c-.07.13-.14.25-.22.37l-.08.1a1.5,1.5,0,0,1-1.2.63h-.08l0-.08,0,0c-.09,0-.11-.2-.1-.44l0-.29a2.6,2.6,0,0,1,.31-1.11s0,0,0,0l0-.05a1.89,1.89,0,0,1,.4-.34l.09-.05a2.12,2.12,0,0,1,.37-.18l.08,0a2.43,2.43,0,0,1,.78-.14,2,2,0,0,1,.24,0h.08C12.33,23.13,12.28,23.27,12.23,23.4Zm1-12.41c0-.08,0-.18,0-.28a2.71,2.71,0,0,1,.31-1.12l0,0,.05-.05a1.89,1.89,0,0,1,.4-.34l.09-.05a2.53,2.53,0,0,1,.37-.18l.08,0a2.47,2.47,0,0,1,.78-.14l.24,0,.08,0c-.06.13-.11.27-.16.4l0,.09c0,.07,0,.13-.08.19l0,.09-.12.29a1,1,0,0,1,0,.1c-.05.13-.11.25-.17.37l-.06.12a3.13,3.13,0,0,1-.22.36l-.08.1a1.48,1.48,0,0,1-1.2.64h-.08l0-.08,0-.05C13.26,11.41,13.24,11.23,13.25,11ZM15,16a.36.36,0,0,1-.07.1,1.48,1.48,0,0,1-1.2.64h-.09l-.05-.08,0,0c-.09,0-.12-.2-.1-.45a1.49,1.49,0,0,1,0-.28,2.56,2.56,0,0,1,.31-1.12l0,0,0-.05a2.25,2.25,0,0,1,.41-.34l.09,0a2.12,2.12,0,0,1,.37-.18l.07,0A2.53,2.53,0,0,1,15.6,14l.24,0,.08,0c-.06.13-.11.27-.16.4l0,.09-.07.19,0,.09-.12.29a1,1,0,0,1,0,.1c-.05.13-.11.25-.17.37l-.06.12A2.21,2.21,0,0,1,15,16Z" style="fill:#75bf46"/><path d="M16.18,6.94h0v-2a1.55,1.55,0,0,1-.7.19h-.09l0-.08,0,0c-.08,0-.11-.2-.09-.44a1.41,1.41,0,0,1,0-.28,2.56,2.56,0,0,1,.31-1.12l0,0,0-.06a2.2,2.2,0,0,1,.41-.33l.08-.06.07,0V.82H14.54V6.94Z" style="fill:#75bf46"/><path d="M6.36,5.68V.82H4.69V3.45a2.34,2.34,0,0,1,.67-.11l.24,0,.08,0c-.06.13-.11.26-.16.4l0,.09-.08.19,0,.09-.12.29a1,1,0,0,1,0,.1,4,4,0,0,1-.17.36L5,5a3.13,3.13,0,0,1-.22.36l-.08.1h0V6.94H6.36Z" style="fill:#75bf46"/><path d="M5.64,10.23A1.52,1.52,0,0,0,6.85,9.6a10.93,10.93,0,0,1-1.1.37Z" style="fill:#51a346"/><path d="M5.42,9.84a.85.85,0,0,0,0-.17c0,.24,0,.42.1.44l0,0h0C5.47,10.05,5.45,9.93,5.42,9.84Z" style="fill:#51a346"/><path d="M7.52,7.44a2.48,2.48,0,0,0-.79.14,5.23,5.23,0,0,0-.18.68A2.78,2.78,0,0,1,7.52,7.44Z" style="fill:#51a346"/><path d="M7.52,7.9l.15,0c.06-.13.11-.27.16-.4H7.75A2.15,2.15,0,0,0,7,8C7.18,7.92,7.35,7.92,7.52,7.9Z" style="fill:#51a346"/><path d="M5.93,9.55l-.13.31A8.6,8.6,0,0,0,6.92,9.5a2.77,2.77,0,0,0,.22-.37,1.8,1.8,0,0,1-.38.16A5,5,0,0,0,5.93,9.55Z" style="fill:#51a346"/><path d="M6.19,8.64v.13l.06-.09a2.2,2.2,0,0,1,.17-.25,4.53,4.53,0,0,1,.23-.82,2.53,2.53,0,0,0-.37.18l-.06.46A2.56,2.56,0,0,0,6.19,8.64Z" style="fill:#51a346"/><path d="M5.5,9.78c0,.08,0,.15.07.22a1.54,1.54,0,0,1,.08-.19l.09-.19a.08.08,0,0,1,0,0c0-.43,0-.87,0-1.3a2.6,2.6,0,0,0-.31,1.11v0C5.44,9.53,5.47,9.66,5.5,9.78Z" style="fill:#51a346"/><path d="M6.1,8.93a1,1,0,0,1,0-.3c0-.14,0-.27,0-.4s0-.26.07-.39a1.73,1.73,0,0,0-.41.34q0,.63,0,1.26A5.05,5.05,0,0,1,6.1,8.93Z" style="fill:#51a346"/><path d="M6.63,8.39a6.14,6.14,0,0,0,.94-.23c0-.06,0-.12.07-.19-.25,0-.51,0-.75.11A3.88,3.88,0,0,0,6.63,8.39Z" style="fill:#51a346"/><path d="M6.57,8.49h0l-.22.34,0,0c.37-.12.75-.19,1.11-.32l.12-.3a1.14,1.14,0,0,1-.26.09A5.44,5.44,0,0,1,6.57,8.49Z" style="fill:#51a346"/><path d="M6.23,9c-.08.13-.15.26-.22.4a5.27,5.27,0,0,1,.68-.19A2.33,2.33,0,0,0,7.21,9c.06-.12.11-.24.16-.37l-.3.11C6.79,8.83,6.51,8.89,6.23,9Z" style="fill:#51a346"/><path d="M5.8,9.86l.13-.31a5,5,0,0,1,.83-.26,1.8,1.8,0,0,0,.38-.16A.75.75,0,0,0,7.21,9a2.33,2.33,0,0,1-.52.2A5.27,5.27,0,0,0,6,9.4c.07-.14.14-.27.22-.4.28-.11.56-.17.84-.25l.3-.11a.36.36,0,0,0,0-.09c-.36.13-.74.2-1.11.32l0,0,.22-.34h0a5.44,5.44,0,0,0,.7-.15,1.14,1.14,0,0,0,.26-.09l0-.09a6.14,6.14,0,0,1-.94.23,3.88,3.88,0,0,1,.26-.31C7.13,8,7.39,8,7.64,8l0-.09-.15,0c-.17,0-.34,0-.5,0a2.15,2.15,0,0,1,.73-.48,1.6,1.6,0,0,0-.23,0,2.78,2.78,0,0,0-1,.82,5.23,5.23,0,0,1,.18-.68l-.08,0a4.53,4.53,0,0,0-.23.82,2.2,2.2,0,0,0-.17.25l-.06.09V8.64a2.56,2.56,0,0,1,0-.39l.06-.46-.08,0c0,.13,0,.26-.07.39s0,.26,0,.4a1,1,0,0,0,0,.3,5.05,5.05,0,0,0-.28.51q0-.63,0-1.26l0,.05,0,0c0,.43,0,.87,0,1.3a.08.08,0,0,0,0,0l-.09.19a1.54,1.54,0,0,0-.08.19c0-.07-.05-.14-.07-.22s-.06-.25-.08-.38v0l0,.29a.85.85,0,0,1,0,.17c0,.09,0,.21.09.3h0l0,.08h.08L5.75,10a10.93,10.93,0,0,0,1.1-.37.86.86,0,0,1,.07-.1A8.6,8.6,0,0,1,5.8,9.86Z" style="fill:#2f6531"/><path d="M10.72,8.58A1.52,1.52,0,0,0,11.92,8a10.93,10.93,0,0,1-1.1.37C10.79,8.41,10.75,8.49,10.72,8.58Z" style="fill:#51a346"/><path d="M10.49,8.19l0-.17c0,.24,0,.42.09.44l0,0h0A1.76,1.76,0,0,1,10.49,8.19Z" style="fill:#51a346"/><path d="M11.62,6.61l.21-.24.06-.06-.2,0v0Z" style="fill:#51a346"/><path d="M12.59,6.25h.15l0-.13-.66.15,0,0C12.25,6.27,12.43,6.27,12.59,6.25Z" style="fill:#51a346"/><path d="M11,7.91c0,.1-.1.2-.14.3A7.31,7.31,0,0,0,12,7.85c.08-.12.16-.24.23-.37a2.14,2.14,0,0,1-.39.16A3.94,3.94,0,0,0,11,7.91Z" style="fill:#51a346"/><path d="M11.29,6.6c0,.13,0,.26,0,.39v.13L11.32,7l.17-.25.09-.39v0h-.05l-.22,0h0Z" style="fill:#51a346"/><path d="M10.57,8.13c0,.08,0,.15.07.22s0-.13.08-.19L10.81,8a.08.08,0,0,1,0,0c0-.43,0-.87,0-1.3a2.53,2.53,0,0,0-.3,1.11v0C10.51,7.88,10.54,8,10.57,8.13Z" style="fill:#51a346"/><path d="M10.86,6.53c0,.42,0,.84,0,1.27.09-.18.18-.35.28-.52a1,1,0,0,1,0-.3c0-.13,0-.27,0-.4l0-.18H11A1.14,1.14,0,0,0,10.86,6.53Z" style="fill:#51a346"/><path d="M12,6.43a3.88,3.88,0,0,0-.26.31,4.91,4.91,0,0,0,.76-.17l.18-.06.07-.18-.27,0A4,4,0,0,0,12,6.43Z" style="fill:#51a346"/><path d="M12.34,6.69c-.23.07-.46.11-.69.16h0l-.23.34,0,0c.36-.12.74-.19,1.11-.32h0c0-.1.08-.19.11-.29l-.13.05Z" style="fill:#51a346"/><path d="M11.3,7.35c-.08.13-.15.27-.22.4a5.27,5.27,0,0,1,.68-.19,1.93,1.93,0,0,0,.52-.2c.06-.12.11-.24.17-.37l-.31.11C11.86,7.18,11.58,7.24,11.3,7.35Z" style="fill:#51a346"/><path d="M11.2,6.58c0,.13,0,.27,0,.4a1,1,0,0,0,0,.3c-.1.17-.19.34-.28.52,0-.43,0-.85,0-1.27l0,0,0,0c0,.43,0,.87,0,1.3a.08.08,0,0,0,0,0l-.09.19c0,.06-.05.13-.08.19s-.05-.14-.07-.22-.06-.25-.08-.38v0a1.5,1.5,0,0,0,0,.29l0,.17a1.76,1.76,0,0,0,.1.3h0l.05.08h.09c0-.09.07-.17.1-.26A10.93,10.93,0,0,0,11.92,8a.86.86,0,0,1,.07-.1,7.31,7.31,0,0,1-1.12.36c0-.1.09-.2.14-.3a3.94,3.94,0,0,1,.82-.27,2.14,2.14,0,0,0,.39-.16l.06-.12a1.93,1.93,0,0,1-.52.2,5.27,5.27,0,0,0-.68.19c.07-.13.14-.27.22-.4.28-.11.56-.17.84-.25L12.45,7l0-.09c-.37.13-.75.2-1.11.32l0,0,.23-.34h0c.23,0,.46-.09.69-.16l.13,0,.13-.05,0-.09-.18.06a4.91,4.91,0,0,1-.76.17A3.88,3.88,0,0,1,12,6.43a4,4,0,0,1,.48-.07l.27,0,0-.09h-.15c-.16,0-.34,0-.5,0l0,0-.24,0-.06.06-.21.24.06-.23v0h-.1v0l-.09.39L11.32,7l-.06.09V7c0-.13,0-.26,0-.39l0-.2h-.09Z" style="fill:#2f6531"/><path d="M8.84,14.07a1.52,1.52,0,0,0,1.2-.63,10.93,10.93,0,0,1-1.1.37C8.91,13.9,8.87,14,8.84,14.07Z" style="fill:#51a346"/><path d="M8.62,13.68a1.36,1.36,0,0,1,0-.17c0,.24,0,.42.09.44l0,0h0A1.14,1.14,0,0,1,8.62,13.68Z" style="fill:#51a346"/><path d="M10.71,11.28a2.53,2.53,0,0,0-.79.14,5.2,5.2,0,0,0-.17.68A2.67,2.67,0,0,1,10.71,11.28Z" style="fill:#51a346"/><path d="M10.71,11.74l.15,0c.06-.13.11-.27.16-.4H11a2.19,2.19,0,0,0-.74.48C10.37,11.76,10.55,11.76,10.71,11.74Z" style="fill:#51a346"/><path d="M9.13,13.39c-.05.1-.1.21-.14.31a8.6,8.6,0,0,0,1.12-.36c.08-.12.16-.24.23-.37a1.88,1.88,0,0,1-.39.16A4.6,4.6,0,0,0,9.13,13.39Z" style="fill:#51a346"/><path d="M9.38,12.48v.13l.06-.09.17-.25a4.53,4.53,0,0,1,.23-.82,3.14,3.14,0,0,0-.37.18l-.06.46C9.4,12.22,9.38,12.35,9.38,12.48Z" style="fill:#51a346"/><path d="M8.69,13.62c0,.08.05.15.07.22s.05-.13.08-.19l.09-.19a.08.08,0,0,1,0-.05c0-.43,0-.87,0-1.3a2.63,2.63,0,0,0-.3,1.11v0C8.63,13.37,8.66,13.5,8.69,13.62Z" style="fill:#51a346"/><path d="M9.29,12.77a1,1,0,0,1,0-.3c0-.14,0-.27,0-.4s0-.26.07-.39A1.73,1.73,0,0,0,9,12q0,.63,0,1.26C9.1,13.11,9.19,12.93,9.29,12.77Z" style="fill:#51a346"/><path d="M9.82,12.23a6.14,6.14,0,0,0,.94-.23c0-.06.05-.12.07-.19-.25,0-.5,0-.75.11A3.88,3.88,0,0,0,9.82,12.23Z" style="fill:#51a346"/><path d="M9.77,12.34h0l-.23.34,0,0c.36-.12.74-.19,1.11-.32,0-.1.08-.2.11-.3a1.14,1.14,0,0,1-.26.09C10.23,12.25,10,12.29,9.77,12.34Z" style="fill:#51a346"/><path d="M9.42,12.84c-.08.13-.15.26-.22.4a5.27,5.27,0,0,1,.68-.19,2.33,2.33,0,0,0,.52-.2c.06-.12.11-.24.17-.37l-.31.11C10,12.67,9.7,12.73,9.42,12.84Z" style="fill:#51a346"/><path d="M9.61,12.27l-.17.25-.06.09v-.13c0-.13,0-.26,0-.39l.06-.46-.08,0c0,.13-.05.26-.07.39s0,.26,0,.4a1,1,0,0,0,0,.3c-.1.16-.19.34-.28.51Q9,12.65,9,12l0,.05,0,0c0,.43,0,.87,0,1.3a.08.08,0,0,0,0,.05l-.09.19c0,.06-.05.13-.08.19s0-.14-.07-.22-.06-.25-.08-.38v0a1.5,1.5,0,0,0,0,.29,1.36,1.36,0,0,0,0,.17,1.14,1.14,0,0,0,.09.3h0l.05.08h.09c0-.09.07-.17.1-.26a10.93,10.93,0,0,0,1.1-.37.86.86,0,0,1,.07-.1A8.6,8.6,0,0,1,9,13.7c0-.1.09-.21.14-.31a4.6,4.6,0,0,1,.82-.26,1.88,1.88,0,0,0,.39-.16l.06-.12a2.33,2.33,0,0,1-.52.2,5.27,5.27,0,0,0-.68.19c.07-.14.14-.27.22-.4.28-.11.56-.17.84-.25l.31-.11a.36.36,0,0,1,0-.09c-.37.13-.75.2-1.11.32l0,0,.23-.34h0c.23-.05.46-.09.69-.16a1.14,1.14,0,0,0,.26-.09l0-.09a6.14,6.14,0,0,1-.94.23,3.88,3.88,0,0,1,.26-.31c.25-.06.5-.07.75-.11l0-.09-.15,0c-.16,0-.34,0-.5,0a2.19,2.19,0,0,1,.74-.48,2,2,0,0,0-.24,0,2.67,2.67,0,0,0-1,.82,5.2,5.2,0,0,1,.17-.68l-.08,0A4.53,4.53,0,0,0,9.61,12.27Z" style="fill:#2f6531"/><path d="M13.51,11.56a1.48,1.48,0,0,0,1.2-.64,8.27,8.27,0,0,1-1.09.38C13.58,11.38,13.55,11.47,13.51,11.56Z" style="fill:#51a346"/><path d="M13.35,11.43l0,.05v0a1.49,1.49,0,0,1-.09-.3c0-.05,0-.11,0-.17C13.24,11.23,13.26,11.41,13.35,11.43Z" style="fill:#51a346"/><path d="M15.38,8.77a2.47,2.47,0,0,0-.78.14,5.54,5.54,0,0,0-.18.67A2.93,2.93,0,0,1,15.38,8.77Z" style="fill:#51a346"/><path d="M15.39,9.23l.15,0c.05-.13.1-.27.16-.4l-.08,0a2.22,2.22,0,0,0-.74.49C15.05,9.25,15.22,9.25,15.39,9.23Z" style="fill:#51a346"/><path d="M13.8,10.88c-.05.1-.09.2-.14.31a9.32,9.32,0,0,0,1.13-.37,3.13,3.13,0,0,0,.22-.36,1.68,1.68,0,0,1-.39.16A3.4,3.4,0,0,0,13.8,10.88Z" style="fill:#51a346"/><path d="M14.05,10a.57.57,0,0,0,0,.13l.06-.09a2.2,2.2,0,0,1,.17-.25,3.84,3.84,0,0,1,.23-.82,2.53,2.53,0,0,0-.37.18c0,.15-.05.3-.06.46S14.06,9.84,14.05,10Z" style="fill:#51a346"/><path d="M13.37,11.11a1.87,1.87,0,0,0,.07.22,1.54,1.54,0,0,1,.08-.19,1.67,1.67,0,0,1,.08-.2s0,0,0,0c0-.44,0-.87,0-1.31a2.71,2.71,0,0,0-.31,1.12v0Z" style="fill:#51a346"/><path d="M14,10.26A1.61,1.61,0,0,1,14,10c0-.13,0-.26,0-.39l.06-.39a1.89,1.89,0,0,0-.4.34q0,.63,0,1.26A5,5,0,0,1,14,10.26Z" style="fill:#51a346"/><path d="M14.5,9.72a6,6,0,0,0,.93-.23c0-.06.05-.12.08-.19-.25,0-.51,0-.75.11A3.88,3.88,0,0,0,14.5,9.72Z" style="fill:#51a346"/><path d="M14.44,9.82h0c-.08.11-.15.23-.22.34l0,0c.37-.12.75-.19,1.11-.33l.12-.29a2.67,2.67,0,0,1-.26.09C14.91,9.73,14.67,9.78,14.44,9.82Z" style="fill:#51a346"/><path d="M14.1,10.32l-.22.41a3.93,3.93,0,0,1,.67-.19,2.16,2.16,0,0,0,.52-.2c.06-.12.12-.24.17-.37a1.76,1.76,0,0,1-.3.1C14.66,10.16,14.37,10.22,14.1,10.32Z" style="fill:#51a346"/><path d="M13.38,11.46v0l0,.08h.08c0-.09.07-.18.11-.26a8.27,8.27,0,0,0,1.09-.38l.08-.1a9.32,9.32,0,0,1-1.13.37c.05-.11.09-.21.14-.31a3.4,3.4,0,0,1,.82-.26,1.68,1.68,0,0,0,.39-.16l.06-.12a2.16,2.16,0,0,1-.52.2,3.93,3.93,0,0,0-.67.19l.22-.41c.27-.1.56-.16.84-.25a1.76,1.76,0,0,0,.3-.1,1,1,0,0,0,0-.1c-.36.14-.74.21-1.11.33l0,0c.07-.11.14-.23.22-.34h0c.23,0,.47-.09.7-.15a2.67,2.67,0,0,0,.26-.09l0-.09a6,6,0,0,1-.93.23,3.88,3.88,0,0,1,.26-.31c.24-.06.5-.07.75-.11l0-.09-.15,0c-.17,0-.34,0-.51,0a2.22,2.22,0,0,1,.74-.49l-.24,0a2.93,2.93,0,0,0-1,.81,5.54,5.54,0,0,1,.18-.67l-.08,0a3.84,3.84,0,0,0-.23.82,2.2,2.2,0,0,0-.17.25l-.06.09a.57.57,0,0,1,0-.13c0-.13,0-.26,0-.39s0-.31.06-.46l-.09.05L14,9.56c0,.13,0,.26,0,.39a1.61,1.61,0,0,0,0,.31,5,5,0,0,0-.27.51q0-.63,0-1.26l-.05.05,0,0c0,.44,0,.87,0,1.31,0,0,0,0,0,0a1.67,1.67,0,0,0-.08.2,1.54,1.54,0,0,0-.08.19,1.87,1.87,0,0,1-.07-.22l-.09-.38v0c0,.1,0,.2,0,.28s0,.12,0,.17A1.49,1.49,0,0,0,13.38,11.46Z" style="fill:#2f6531"/><path d="M15.52,5.12a1.55,1.55,0,0,0,.7-.19V4.67q-.3.11-.6.18Z" style="fill:#51a346"/><path d="M15.3,4.72a.85.85,0,0,1,0-.17c0,.24,0,.42.09.44l0,0V5A1,1,0,0,1,15.3,4.72Z" style="fill:#51a346"/><path d="M15.67,4.74c.18,0,.37-.09.55-.15V4.28a2.05,2.05,0,0,0-.41.16C15.76,4.54,15.71,4.64,15.67,4.74Z" style="fill:#51a346"/><path d="M16.09,3.13l0,.4v.13l.06-.09.1-.15V2.64l-.07,0Z" style="fill:#51a346"/><path d="M15.37,4.67l.07.22c0-.07.05-.13.08-.19l.09-.2a.05.05,0,0,1,0,0c0-.44,0-.87,0-1.31a2.56,2.56,0,0,0-.31,1.12v0C15.32,4.42,15.34,4.54,15.37,4.67Z" style="fill:#51a346"/><path d="M16,3.81a1,1,0,0,1,0-.3c0-.13,0-.26,0-.39s0-.26.06-.39a2.2,2.2,0,0,0-.41.33c0,.43,0,.85,0,1.27C15.78,4.15,15.87,4,16,3.81Z" style="fill:#51a346"/><path d="M16.18,3.76h0V3.69l0,0Z" style="fill:#51a346"/><path d="M15.88,4.29a2.24,2.24,0,0,1,.34-.11V3.84l-.12,0Z" style="fill:#51a346"/><path d="M16.06,3.66V3.53l0-.4.06-.46-.08.06c0,.13-.05.26-.06.39s0,.26,0,.39a1,1,0,0,0,0,.3c-.1.17-.19.34-.28.52,0-.42,0-.84,0-1.27l0,.06,0,0c0,.44,0,.87,0,1.31a.05.05,0,0,0,0,0l-.09.2c0,.06,0,.12-.08.19l-.07-.22c0-.13,0-.25-.08-.38v0a1.41,1.41,0,0,0,0,.28.85.85,0,0,0,0,.17,1,1,0,0,0,.09.3V5l0,.08h.09l.1-.27q.3-.07.6-.18V4.59c-.18.06-.37.1-.55.15,0-.1.09-.2.14-.3a2.05,2.05,0,0,1,.41-.16v-.1a2.24,2.24,0,0,0-.34.11l.22-.41.12,0V3.75h0l0,0,0,0V3.42l-.1.15Z" style="fill:#2f6531"/><polygon points="4.69 5.5 4.69 5.5 4.69 5.49 4.69 5.5" style="fill:#51a346"/><path d="M4.69,3.45v.38a2.62,2.62,0,0,1,.67-.49A2.34,2.34,0,0,0,4.69,3.45Z" style="fill:#51a346"/><path d="M5.37,3.8l.15,0c.05-.14.1-.27.16-.4l-.08,0a2.22,2.22,0,0,0-.74.49A4.4,4.4,0,0,1,5.37,3.8Z" style="fill:#51a346"/><path d="M5,5a1.94,1.94,0,0,1-.3.13v.27l.08,0A3.13,3.13,0,0,0,5,5Z" style="fill:#51a346"/><path d="M5.49,3.87A6.16,6.16,0,0,0,4.74,4l0,.06v.21a5.86,5.86,0,0,0,.72-.19Z" style="fill:#51a346"/><path d="M5.38,4.15l-.26.09-.43.1v.28l.57-.18Z" style="fill:#51a346"/><path d="M5.22,4.54l-.3.1-.23.07v.35a1.65,1.65,0,0,0,.36-.16A4,4,0,0,0,5.22,4.54Z" style="fill:#51a346"/><path d="M4.77,5.39l-.08,0V5.5h0Z" style="fill:#2f6531"/><path d="M5.05,4.9a1.65,1.65,0,0,1-.36.16v.1A1.94,1.94,0,0,0,5,5Z" style="fill:#2f6531"/><path d="M5.22,4.54a1,1,0,0,0,0-.1l-.57.18v.09l.23-.07Z" style="fill:#2f6531"/><path d="M5.38,4.15l0-.09a5.86,5.86,0,0,1-.72.19v.09l.43-.1Z" style="fill:#2f6531"/><path d="M5.49,3.87l0-.09-.15,0a4.4,4.4,0,0,0-.51.05,2.22,2.22,0,0,1,.74-.49l-.24,0a2.62,2.62,0,0,0-.67.49V3.9s0,.06,0,.08V4l0-.06A6.16,6.16,0,0,1,5.49,3.87Z" style="fill:#2f6531"/><path d="M5.08,16.8a7,7,0,0,1-.91.32c0,.09,0,.19,0,.29A1.57,1.57,0,0,0,5.08,16.8Z" style="fill:#51a346"/><path d="M5.76,14.65a2,2,0,0,0-.79.14,4.7,4.7,0,0,0-.18.67A2.75,2.75,0,0,1,5.76,14.65Z" style="fill:#51a346"/><path d="M5.76,15.1h.15c0-.14.11-.28.16-.41H6a2.15,2.15,0,0,0-.73.48C5.42,15.12,5.59,15.12,5.76,15.1Z" style="fill:#51a346"/><path d="M5.38,16.33a1.68,1.68,0,0,1-.39.16,4.29,4.29,0,0,0-.77.24l0,.29a7,7,0,0,0,1-.32C5.24,16.58,5.31,16.46,5.38,16.33Z" style="fill:#51a346"/><path d="M4.43,15.84a.56.56,0,0,0,0,.13l.06-.09.17-.25a4.53,4.53,0,0,1,.23-.82,2.53,2.53,0,0,0-.37.18l-.06.46A2.56,2.56,0,0,0,4.43,15.84Z" style="fill:#51a346"/><path d="M4.32,16l0,.22a.25.25,0,0,0,0-.07A.76.76,0,0,1,4.32,16Z" style="fill:#51a346"/><path d="M4.87,15.59a5.16,5.16,0,0,0,.94-.23l.07-.18c-.25,0-.51,0-.75.1Z" style="fill:#51a346"/><path d="M4.81,15.7h0L4.57,16l0,0c.37-.12.75-.19,1.11-.32l.12-.3a1.14,1.14,0,0,1-.26.09C5.28,15.61,5.05,15.65,4.81,15.7Z" style="fill:#51a346"/><path d="M4.47,16.2c-.08.13-.15.27-.22.4a5.27,5.27,0,0,1,.68-.19,1.75,1.75,0,0,0,.52-.2c.06-.12.11-.24.16-.36l-.3.1C5,16,4.75,16.09,4.47,16.2Z" style="fill:#51a346"/><path d="M5.16,16.7a7,7,0,0,1-1,.32v.1a7,7,0,0,0,.91-.32Z" style="fill:#2f6531"/><path d="M5.38,16.33l.07-.12a1.75,1.75,0,0,1-.52.2,5.27,5.27,0,0,0-.68.19c.07-.13.14-.27.22-.4.28-.11.56-.17.84-.25l.3-.1,0-.1c-.36.13-.74.2-1.11.32l0,0,.22-.34h0c.24,0,.47-.09.7-.16a1.14,1.14,0,0,0,.26-.09l0-.09a5.16,5.16,0,0,1-.94.23l.26-.31c.24-.06.5-.06.75-.1l0-.09H5.76c-.17,0-.34,0-.5.05A2.15,2.15,0,0,1,6,14.67a.86.86,0,0,0-.23,0,2.75,2.75,0,0,0-1,.81A4.7,4.7,0,0,1,5,14.79l-.08,0a4.53,4.53,0,0,0-.23.82l-.17.25L4.43,16a.56.56,0,0,1,0-.13,2.56,2.56,0,0,1,0-.39L4.52,15l-.06,0c0,.31-.09.63-.14,1a.76.76,0,0,0,0,.15.25.25,0,0,1,0,.07c0,.14,0,.27,0,.41v0l0,.1A4.29,4.29,0,0,1,5,16.49,1.68,1.68,0,0,0,5.38,16.33Z" style="fill:#2f6531"/><path d="M8.85,19.41c0,.09-.08.18-.11.27A1.54,1.54,0,0,0,9.94,19,7.37,7.37,0,0,1,8.85,19.41Z" style="fill:#51a346"/><path d="M8.52,19.28a1,1,0,0,1,0-.17c0,.24,0,.42.1.44l0,.05v0A1.49,1.49,0,0,1,8.52,19.28Z" style="fill:#51a346"/><path d="M10.61,16.89a2.43,2.43,0,0,0-.78.14,4.7,4.7,0,0,0-.18.67A2.74,2.74,0,0,1,10.61,16.89Z" style="fill:#51a346"/><path d="M10.62,17.35l.15,0c.05-.14.1-.27.16-.4l-.08,0a2.08,2.08,0,0,0-.74.49A2.94,2.94,0,0,1,10.62,17.35Z" style="fill:#51a346"/><path d="M9,19l-.14.3A7.8,7.8,0,0,0,10,18.94a3.28,3.28,0,0,0,.22-.37,1.34,1.34,0,0,1-.39.16A3.94,3.94,0,0,0,9,19Z" style="fill:#51a346"/><path d="M9.28,18.09v.13l.06-.1.18-.25a3.75,3.75,0,0,1,.23-.81l-.37.17c0,.16-.05.31-.07.46Z" style="fill:#51a346"/><path d="M8.6,19.23c0,.07,0,.14.06.22a1.67,1.67,0,0,0,.08-.2l.09-.19s0,0,0,0c0-.44,0-.87,0-1.31a2.71,2.71,0,0,0-.31,1.12v0C8.54,19,8.56,19.1,8.6,19.23Z" style="fill:#51a346"/><path d="M9.19,18.37a1,1,0,0,1,0-.3c0-.13,0-.26,0-.39l.06-.4a2.24,2.24,0,0,0-.4.34c0,.43,0,.85,0,1.27C9,18.71,9.09,18.54,9.19,18.37Z" style="fill:#51a346"/><path d="M9.72,17.84a5.86,5.86,0,0,0,.94-.23c0-.07.05-.13.07-.19-.24,0-.5,0-.74.1A4.15,4.15,0,0,0,9.72,17.84Z" style="fill:#51a346"/><path d="M9.67,17.94h0l-.23.34,0,0c.37-.13.75-.19,1.11-.33l.12-.29-.26.09C10.14,17.85,9.9,17.89,9.67,17.94Z" style="fill:#51a346"/><path d="M9.33,18.44c-.08.13-.16.27-.23.41a4.07,4.07,0,0,1,.68-.2,1.65,1.65,0,0,0,.52-.2c.06-.12.12-.24.17-.36l-.3.1C9.89,18.27,9.6,18.34,9.33,18.44Z" style="fill:#51a346"/><path d="M9.94,19l.08-.1a7.8,7.8,0,0,1-1.13.36L9,19a3.94,3.94,0,0,1,.82-.27,1.34,1.34,0,0,0,.39-.16l.06-.12a1.65,1.65,0,0,1-.52.2,4.07,4.07,0,0,0-.68.2c.07-.14.15-.28.23-.41.27-.1.56-.17.84-.25l.3-.1,0-.1c-.36.14-.74.2-1.11.33l0,0,.23-.34h0c.23-.05.47-.09.7-.15l.26-.09,0-.09a5.86,5.86,0,0,1-.94.23,4.15,4.15,0,0,1,.27-.32c.24-.06.5-.06.74-.1l0-.09-.15,0a2.94,2.94,0,0,0-.51,0,2.08,2.08,0,0,1,.74-.49l-.24,0a2.74,2.74,0,0,0-1,.81A4.7,4.7,0,0,1,9.83,17l-.08,0a3.75,3.75,0,0,0-.23.81l-.18.25-.06.1v-.13l0-.4c0-.15,0-.3.07-.46l-.09.05-.06.4c0,.13,0,.26,0,.39a1,1,0,0,0,0,.3c-.1.17-.19.34-.28.52,0-.42,0-.84,0-1.27l-.05.06,0,0c0,.44,0,.87,0,1.31,0,0,0,0,0,0l-.09.19a1.67,1.67,0,0,1-.08.2c0-.08-.05-.15-.06-.22s-.06-.25-.09-.38v0c0,.1,0,.19,0,.28a1,1,0,0,0,0,.17,1.49,1.49,0,0,0,.09.3v0l.06.08h.08c0-.09.07-.18.11-.27A7.37,7.37,0,0,0,9.94,19Z" style="fill:#2f6531"/><path d="M13.73,16.74a1.48,1.48,0,0,0,1.2-.64,8.94,8.94,0,0,1-1.1.38C13.8,16.56,13.76,16.65,13.73,16.74Z" style="fill:#51a346"/><path d="M13.51,16.34a.85.85,0,0,1,0-.17c0,.25,0,.42.1.45l0,0v0A1,1,0,0,1,13.51,16.34Z" style="fill:#51a346"/><path d="M15.6,14a2.53,2.53,0,0,0-.79.14c-.07.22-.12.45-.17.67A2.74,2.74,0,0,1,15.6,14Z" style="fill:#51a346"/><path d="M15.6,14.41l.16,0c.05-.13.1-.27.16-.4l-.08,0a2.22,2.22,0,0,0-.74.49C15.27,14.43,15.44,14.43,15.6,14.41Z" style="fill:#51a346"/><path d="M14,16.06c0,.1-.09.2-.14.31A8.64,8.64,0,0,0,15,16a2.21,2.21,0,0,0,.23-.36,1.68,1.68,0,0,1-.39.16A3.4,3.4,0,0,0,14,16.06Z" style="fill:#51a346"/><path d="M14.27,15.15v.13l.06-.09.18-.25a3.84,3.84,0,0,1,.23-.82,2.12,2.12,0,0,0-.37.18c0,.15,0,.3-.07.46Z" style="fill:#51a346"/><path d="M13.58,16.29l.07.22a1.54,1.54,0,0,0,.08-.19l.09-.19a.08.08,0,0,1,0-.05c0-.44,0-.87,0-1.31a2.56,2.56,0,0,0-.31,1.12v0C13.53,16,13.55,16.17,13.58,16.29Z" style="fill:#51a346"/><path d="M14.18,15.44a1.07,1.07,0,0,1,0-.31c0-.13,0-.26,0-.39s0-.26.06-.39a2.25,2.25,0,0,0-.41.34l0,1.26C14,15.78,14.08,15.6,14.18,15.44Z" style="fill:#51a346"/><path d="M14.71,14.9a5.86,5.86,0,0,0,.94-.23l.07-.19c-.24,0-.5,0-.74.11A4,4,0,0,0,14.71,14.9Z" style="fill:#51a346"/><path d="M14.66,15h0l-.23.34,0,0c.37-.12.75-.19,1.11-.33l.12-.29-.27.09Q15,14.94,14.66,15Z" style="fill:#51a346"/><path d="M14.31,15.5l-.22.41a4,4,0,0,1,.68-.19,2.33,2.33,0,0,0,.52-.2c.06-.12.12-.24.17-.37a1.76,1.76,0,0,1-.3.1C14.88,15.34,14.59,15.4,14.31,15.5Z" style="fill:#51a346"/><path d="M14.77,15.72a4,4,0,0,0-.68.19l.22-.41c.28-.1.57-.16.85-.25a1.76,1.76,0,0,0,.3-.1,1,1,0,0,0,0-.1c-.36.14-.74.21-1.11.33l0,0,.23-.34h0q.35-.06.69-.15l.27-.09,0-.09a5.86,5.86,0,0,1-.94.23,4,4,0,0,1,.27-.31c.24-.06.5-.07.74-.11l0-.09-.16,0c-.16,0-.33,0-.5.05a2.22,2.22,0,0,1,.74-.49l-.24,0a2.74,2.74,0,0,0-1,.81c0-.22.1-.45.17-.67l-.07,0a3.84,3.84,0,0,0-.23.82l-.18.25-.06.09v-.13l0-.39c0-.16,0-.31.07-.46l-.09,0c0,.13,0,.26-.06.39s0,.26,0,.39a1.07,1.07,0,0,0,0,.31c-.1.16-.19.34-.28.51l0-1.26,0,.05,0,0c0,.44,0,.87,0,1.31a.08.08,0,0,0,0,.05l-.09.19a1.54,1.54,0,0,1-.08.19l-.07-.22c0-.12-.05-.25-.08-.38v0a1.49,1.49,0,0,0,0,.28.85.85,0,0,0,0,.17,1,1,0,0,0,.09.3v0l.05.08h.09c0-.09.07-.18.1-.26a8.94,8.94,0,0,0,1.1-.38A.36.36,0,0,0,15,16a8.64,8.64,0,0,1-1.12.37c0-.11.09-.21.14-.31a3.4,3.4,0,0,1,.82-.26,1.68,1.68,0,0,0,.39-.16l.06-.12A2.33,2.33,0,0,1,14.77,15.72Z" style="fill:#2f6531"/><path d="M15.51,23a1.5,1.5,0,0,0,1.2-.63,10.76,10.76,0,0,1-1.09.37Z" style="fill:#51a346"/><path d="M15.29,22.58c0-.06,0-.11,0-.17,0,.24,0,.42.1.44l0,0h0A1.49,1.49,0,0,1,15.29,22.58Z" style="fill:#51a346"/><path d="M16.42,21a2.86,2.86,0,0,1,.82-.74v-.07a2.38,2.38,0,0,0-.63.14A4.7,4.7,0,0,0,16.42,21Z" style="fill:#51a346"/><path d="M17.33,20.65l-.06-.27a3,3,0,0,0-.39.31A3.42,3.42,0,0,1,17.33,20.65Z" style="fill:#51a346"/><path d="M15.8,22.3l-.14.3a7.8,7.8,0,0,0,1.13-.36c.08-.12.15-.24.22-.37a1.68,1.68,0,0,1-.39.16A3.94,3.94,0,0,0,15.8,22.3Z" style="fill:#51a346"/><path d="M16.05,21.39a.62.62,0,0,0,0,.13.33.33,0,0,1,.06-.1l.17-.25a3.84,3.84,0,0,1,.23-.82,2.12,2.12,0,0,0-.37.18,3.62,3.62,0,0,0-.06.46C16.07,21.12,16.06,21.25,16.05,21.39Z" style="fill:#51a346"/><path d="M15.37,22.52a2,2,0,0,0,.06.23,1.67,1.67,0,0,0,.08-.2l.09-.19s0,0,0,0c0-.44,0-.88,0-1.31a2.71,2.71,0,0,0-.31,1.12v0C15.31,22.27,15.33,22.4,15.37,22.52Z" style="fill:#51a346"/><path d="M16,21.67a1.5,1.5,0,0,1,0-.3c0-.13,0-.26,0-.4l.06-.39a1.89,1.89,0,0,0-.4.34c0,.42,0,.85,0,1.27C15.77,22,15.86,21.84,16,21.67Z" style="fill:#51a346"/><path d="M16.5,21.13a5.48,5.48,0,0,0,.89-.21,1.16,1.16,0,0,1,0-.18,3.81,3.81,0,0,0-.59.08Z" style="fill:#51a346"/><path d="M16.44,21.24h0l-.22.33,0,.05c.37-.13.75-.2,1.11-.33l.12-.3-.26.09C16.91,21.15,16.67,21.19,16.44,21.24Z" style="fill:#51a346"/><path d="M16.1,21.74c-.08.13-.15.27-.22.41a3.71,3.71,0,0,1,.67-.2,1.56,1.56,0,0,0,.52-.2c.06-.12.12-.24.17-.36l-.3.1A8.11,8.11,0,0,0,16.1,21.74Z" style="fill:#51a346"/><path d="M16.42,21a4.7,4.7,0,0,1,.18-.67l-.08,0a3.84,3.84,0,0,0-.23.82l-.17.25a.33.33,0,0,0-.06.1.62.62,0,0,1,0-.13c0-.14,0-.27,0-.4a3.62,3.62,0,0,1,.06-.46l-.09,0L16,21c0,.14,0,.27,0,.4a1.5,1.5,0,0,0,0,.3c-.1.17-.19.34-.28.52,0-.42,0-.85,0-1.27,0,0,0,0-.05,0s0,0,0,0c0,.43,0,.87,0,1.31,0,0,0,0,0,0l-.09.19a1.67,1.67,0,0,1-.08.2,2,2,0,0,1-.06-.23c0-.12-.06-.25-.09-.37v0l0,.28c0,.06,0,.11,0,.17a1.49,1.49,0,0,0,.09.3h0l.06.08h.08l.11-.26a10.76,10.76,0,0,0,1.09-.37l.08-.1a7.8,7.8,0,0,1-1.13.36l.14-.3a3.94,3.94,0,0,1,.82-.27,1.68,1.68,0,0,0,.39-.16l.06-.12a1.56,1.56,0,0,1-.52.2,3.71,3.71,0,0,0-.67.2c.07-.14.14-.28.22-.41a8.11,8.11,0,0,1,.84-.25l.3-.1a1,1,0,0,1,0-.1c-.36.13-.74.2-1.11.33l0-.05.22-.33h0c.23,0,.47-.09.7-.16L17.4,21h0v-.06a5.48,5.48,0,0,1-.89.21l.26-.31a3.81,3.81,0,0,1,.59-.08l0-.09a3.42,3.42,0,0,0-.45,0,3,3,0,0,1,.39-.31l0-.12A2.86,2.86,0,0,0,16.42,21Z" style="fill:#2f6531"/><path d="M12.07,23a2.43,2.43,0,0,0-.78.14,5.23,5.23,0,0,0-.18.68A2.75,2.75,0,0,1,12.07,23Z" style="fill:#51a346"/><path d="M11.57,23.47c.17,0,.34,0,.51,0l.15,0c0-.13.1-.27.16-.4h-.08A2.19,2.19,0,0,0,11.57,23.47Z" style="fill:#51a346"/><path d="M10.74,24.16a.57.57,0,0,0,0,.13l.06-.09A2.2,2.2,0,0,1,11,24a3.84,3.84,0,0,1,.23-.82,2.12,2.12,0,0,0-.37.18c0,.15-.05.3-.06.46S10.75,24,10.74,24.16Z" style="fill:#51a346"/><path d="M10.06,25.3a1.41,1.41,0,0,0,.06.22l.09-.19a1.54,1.54,0,0,1,.08-.19.07.07,0,0,1,0-.05c0-.43,0-.87,0-1.3A2.6,2.6,0,0,0,10,24.9v0C10,25.05,10,25.18,10.06,25.3Z" style="fill:#51a346"/><path d="M10.65,24.45a1.5,1.5,0,0,1,0-.3c0-.14,0-.27,0-.4l.06-.39a1.89,1.89,0,0,0-.4.34c0,.42,0,.84,0,1.26C10.46,24.79,10.55,24.61,10.65,24.45Z" style="fill:#51a346"/><path d="M11.19,23.91a6,6,0,0,0,.93-.23l.07-.19c-.24,0-.5.05-.74.11A3.88,3.88,0,0,0,11.19,23.91Z" style="fill:#51a346"/><path d="M11.13,24h0c-.08.11-.15.23-.22.34l0,0c.37-.12.75-.19,1.11-.32l.12-.3a1.34,1.34,0,0,1-.26.09A5.83,5.83,0,0,1,11.13,24Z" style="fill:#51a346"/><path d="M10.79,24.52c-.08.13-.15.26-.22.4a4.72,4.72,0,0,1,.67-.19,2.16,2.16,0,0,0,.52-.2c.06-.12.12-.24.17-.37l-.3.11A8.11,8.11,0,0,0,10.79,24.52Z" style="fill:#51a346"/><path d="M11.57,23.47a2.19,2.19,0,0,1,.74-.48,2,2,0,0,0-.24,0,2.75,2.75,0,0,0-1,.82,5.23,5.23,0,0,1,.18-.68l-.08,0A3.84,3.84,0,0,0,11,24a2.2,2.2,0,0,0-.17.25l-.06.09a.57.57,0,0,1,0-.13c0-.13,0-.26,0-.39s0-.31.06-.46l-.09.05-.06.39c0,.13,0,.26,0,.4a1.5,1.5,0,0,0,0,.3c-.1.16-.19.34-.28.51,0-.42,0-.84,0-1.26l0,.05s0,0,0,0c0,.43,0,.87,0,1.3a.07.07,0,0,0,0,.05,1.54,1.54,0,0,0-.08.19l-.09.19a1.41,1.41,0,0,1-.06-.22c0-.12-.06-.25-.09-.38v0l0,.29s0,.11,0,.17a1.71,1.71,0,0,0,.09.3h0l0,.08h.08l.11-.26a10.76,10.76,0,0,0,1.09-.37l.08-.1a9.26,9.26,0,0,1-1.13.36c.05-.1.09-.21.14-.31a4.6,4.6,0,0,1,.82-.26,1.68,1.68,0,0,0,.39-.16l.06-.12a2.16,2.16,0,0,1-.52.2,4.72,4.72,0,0,0-.67.19c.07-.14.14-.27.22-.4a8.11,8.11,0,0,1,.84-.25l.3-.11,0-.09c-.36.13-.74.2-1.11.32l0,0c.07-.11.14-.23.22-.34h0a5.83,5.83,0,0,0,.7-.15,1.34,1.34,0,0,0,.26-.09l0-.09a6,6,0,0,1-.93.23,3.88,3.88,0,0,1,.26-.31c.24-.06.5-.07.74-.11l0-.09-.15,0C11.91,23.44,11.74,23.44,11.57,23.47Z" style="fill:#2f6531"/><path d="M5.66,23.83a8.74,8.74,0,0,1-1.09.37l-.09.23,0,0h.1A1.5,1.5,0,0,0,5.66,23.83Z" style="fill:#51a346"/><path d="M4.24,24.07c0-.06,0-.11,0-.17,0,.24,0,.42.1.44l0,0h0A1.49,1.49,0,0,1,4.24,24.07Z" style="fill:#51a346"/><path d="M6.33,21.68a2.43,2.43,0,0,0-.78.14,4.7,4.7,0,0,0-.18.67A2.83,2.83,0,0,1,6.33,21.68Z" style="fill:#51a346"/><path d="M6.34,22.14l.15,0c0-.14.1-.27.16-.4l-.08,0a2.08,2.08,0,0,0-.74.49A2.94,2.94,0,0,1,6.34,22.14Z" style="fill:#51a346"/><path d="M4.75,23.79l-.14.3a7.8,7.8,0,0,0,1.13-.36A3.28,3.28,0,0,0,6,23.36a1.68,1.68,0,0,1-.39.16A3.94,3.94,0,0,0,4.75,23.79Z" style="fill:#51a346"/><path d="M5,22.88A.62.62,0,0,0,5,23l.06-.1.17-.25a3.75,3.75,0,0,1,.23-.81A2.09,2.09,0,0,0,5.1,22c0,.16,0,.31-.06.46S5,22.74,5,22.88Z" style="fill:#51a346"/><path d="M4.32,24c0,.07,0,.14.06.22l.09-.2a1.54,1.54,0,0,1,.08-.19s0,0,0,0c0-.44,0-.87,0-1.31a2.71,2.71,0,0,0-.31,1.12v0C4.26,23.76,4.28,23.89,4.32,24Z" style="fill:#51a346"/><path d="M4.91,23.16a1.5,1.5,0,0,1,0-.3c0-.13,0-.26,0-.39l.06-.4a2.24,2.24,0,0,0-.4.34c0,.42,0,.85,0,1.27C4.72,23.5,4.81,23.33,4.91,23.16Z" style="fill:#51a346"/><path d="M5.45,22.63a7.43,7.43,0,0,0,.93-.23c0-.07,0-.13.07-.19-.24,0-.5,0-.74.1A4,4,0,0,0,5.45,22.63Z" style="fill:#51a346"/><path d="M5.39,22.73h0a4,4,0,0,0-.22.34l0,0c.37-.13.75-.19,1.11-.33l.12-.29-.26.09C5.86,22.64,5.62,22.68,5.39,22.73Z" style="fill:#51a346"/><path d="M5.05,23.23c-.08.13-.15.27-.22.41a3.71,3.71,0,0,1,.67-.2,1.56,1.56,0,0,0,.52-.2c.06-.12.12-.24.17-.36l-.3.1C5.61,23.06,5.32,23.13,5.05,23.23Z" style="fill:#51a346"/><path d="M5.66,23.83l.08-.1a7.8,7.8,0,0,1-1.13.36l.14-.3a3.94,3.94,0,0,1,.82-.27A1.68,1.68,0,0,0,6,23.36L6,23.24a1.56,1.56,0,0,1-.52.2,3.71,3.71,0,0,0-.67.2c.07-.14.14-.28.22-.41.27-.1.56-.17.84-.25l.3-.1,0-.1c-.36.14-.74.2-1.11.33l0,0a4,4,0,0,1,.22-.34h0c.23-.05.47-.09.7-.15l.26-.09,0-.09a7.43,7.43,0,0,1-.93.23,4,4,0,0,1,.26-.32c.24-.06.5-.06.74-.1l0-.09-.15,0a2.94,2.94,0,0,0-.51.05,2.08,2.08,0,0,1,.74-.49l-.24,0a2.83,2.83,0,0,0-1,.81,4.7,4.7,0,0,1,.18-.67l-.08,0a3.75,3.75,0,0,0-.23.81l-.17.25L5,23a.62.62,0,0,1,0-.13c0-.14,0-.27,0-.4s0-.3.06-.46L5,22.07l-.06.4c0,.13,0,.26,0,.39a1.5,1.5,0,0,0,0,.3c-.1.17-.19.34-.28.52,0-.42,0-.85,0-1.27l-.05.06,0,0c0,.44,0,.87,0,1.31,0,0,0,0,0,0a1.54,1.54,0,0,0-.08.19l-.09.2c0-.08,0-.15-.06-.22s-.06-.26-.09-.38v0l0,.28c0,.06,0,.11,0,.17a1.49,1.49,0,0,0,.09.3h0v0s0,0,.05,0l.08,0,.09-.23A8.74,8.74,0,0,0,5.66,23.83Z" style="fill:#2f6531"/></svg>