<svg xmlns="http://www.w3.org/2000/svg" viewBox="0 0 20.84 24.17"><path d="M5,3.81l.17-.29A.92.92,0,0,0,5,3.81Z" style="fill:#dd8426"/><path d="M4.63,17.16c.2-1.12.55-2.24.75-3.37C5.73,11.87,5,10,4.67,8.14c.06,1.79,0,3.57-.07,5.35a30,30,0,0,1-.68,5,14.77,14.77,0,0,1-.7,2.23l.5-.6A5.11,5.11,0,0,0,4.63,17.16Z" style="fill:#dd8426"/><path d="M5,3.81C4.55,4.55,4,5.3,3.5,6.06a4.08,4.08,0,0,0,1.1.37.92.92,0,0,1,0,.16,4,4,0,0,0,.22-.87A8.89,8.89,0,0,1,5,3.81Z" style="fill:#dd8426"/><path d="M19.91,1a2.39,2.39,0,0,1,.23-.22,9.42,9.42,0,0,0-1.91.24Z" style="fill:#dd8426"/><path d="M1.09,1.24s0,0,0,0c.2.3,0,.54-.12.82a1.39,1.39,0,0,0-.1.31,14.46,14.46,0,0,0,2.91-1C3,1.43,2,1.25,1.09,1.24Z" style="fill:#dd8426"/><path d="M4.48,1.92A12.06,12.06,0,0,0,2.11,3.21l-.3.17a2.49,2.49,0,0,0,.11.29.92.92,0,0,0,.62.56l.15,0A7.47,7.47,0,0,1,4.48,1.92Z" style="fill:#dd8426"/><path d="M19.28,3a.72.72,0,0,1,.24-.05c.19,0,.3,0,.36-.2a.57.57,0,0,0,0-.34,7.58,7.58,0,0,0-2.18-.48A8.64,8.64,0,0,0,19.28,3Z" style="fill:#dd8426"/><path d="M15.71,15.05c.25,2-.05,4.4,1.71,5.87.19.16.36.33.53.49a16.12,16.12,0,0,1-1.5-5.68A43.92,43.92,0,0,1,16.14,10a22,22,0,0,0-.23,2.28A12.93,12.93,0,0,0,15.71,15.05Z" style="fill:#dd8426"/><path d="M20.74.09a6.84,6.84,0,0,0-4.26.69h0a3,3,0,0,0-.73,0h0a.13.13,0,0,0,0,.19,7.09,7.09,0,0,1-2.56,3.58c-.85.64-1.85,1.13-2.67,1.8C9.61,5.7,8.6,5.2,7.75,4.57A7,7,0,0,1,5.19,1a.12.12,0,0,0,0-.17L5.1.79a2.89,2.89,0,0,0-.72,0h0A6.82,6.82,0,0,0,.11.09.13.13,0,0,0,0,.21c0,.2.23.25.39.36a2.64,2.64,0,0,1,.7.67c.91,0,1.87.19,2.73.16a14.46,14.46,0,0,1-2.91,1,.76.76,0,0,0,0,.33c.06.18.17.19.37.2s.37.06.43.31c0,0,0,.09.05.13l.3-.17A12.06,12.06,0,0,1,4.48,1.92,7.47,7.47,0,0,0,2.69,4.25a.44.44,0,0,1,.15,0c.21.1.24.53.26.72,0,.35,0,.77.36,1l0,0C4,5.3,4.55,4.55,5,3.81a.92.92,0,0,1,.17-.29L5,3.81a8.89,8.89,0,0,0-.18,1.91,4,4,0,0,1-.22.87c0,.52,0,1,.06,1.55C5,10,5.73,11.87,5.38,13.79c-.2,1.13-.55,2.25-.75,3.37a5.11,5.11,0,0,1-.91,2.94l-.5.6a8.27,8.27,0,0,1-.9,1.65c-.07.1,0,.2.12.24a31,31,0,0,0,3.35.87c.89.19,1.78.35,2.68.48l.82.11,1.12.12,1.14-.12.83-.11q1.35-.2,2.67-.48a29.58,29.58,0,0,0,3.36-.87c.11,0,.18-.14.11-.24a8.11,8.11,0,0,1-.57-.94c-.17-.16-.34-.33-.53-.49C15.66,19.45,16,17,15.71,15.05a12.93,12.93,0,0,1,.2-2.77A22,22,0,0,1,16.14,10c0-.72,0-1.44,0-2.15-.29-1.83-.13-4.51.89-6a32.78,32.78,0,0,1-.16,4.42A2.52,2.52,0,0,0,17.38,6c.38-.23.34-.66.36-1a1.71,1.71,0,0,1,.12-.55,4.5,4.5,0,0,1,0-1.21c.21.32.42.62.65.91a1,1,0,0,0,.44-.5c.06-.14.11-.28.16-.42s.1-.23.2-.26a8.64,8.64,0,0,1-1.55-1.07,7.58,7.58,0,0,1,2.18.48c-.08-.38-.42-.74-.2-1.12a2.43,2.43,0,0,1,.2-.25l-1.68,0A9.42,9.42,0,0,1,20.14.81l.31-.24c.16-.12.39-.16.39-.36A.13.13,0,0,0,20.74.09Z" style="fill:#f1a21e"/><path d="M17.07,1.83c-1,1.51-1.18,4.19-.89,6V7.76l.06-1.33c.22-.06.45-.11.67-.18A32.78,32.78,0,0,0,17.07,1.83Z" style="fill:#dd8426"/><path d="M17.86,4.47A.47.47,0,0,1,18,4.3a1,1,0,0,1,.3-.07l.18-.06c-.23-.29-.44-.59-.65-.91A4.5,4.5,0,0,0,17.86,4.47Z" style="fill:#dd8426"/></svg>