<svg xmlns="http://www.w3.org/2000/svg" viewBox="0 0 150 100"><path d="M117.66,55a6,6,0,0,1,1.79,1.41,6.21,6.21,0,0,1,1.3,2.86,13.74,13.74,0,0,1-2.6,10.82,7.88,7.88,0,0,1-5.74,3.46,3.33,3.33,0,0,1-2.53-.76,3.48,3.48,0,0,1-.68-2.92l.68-9.41C110.12,57,112.9,52.49,117.66,55Z" style="fill:#704843"/><path d="M37.12,55a5.76,5.76,0,0,0-1.85,1.41A6.09,6.09,0,0,0,34,59.25a13.71,13.71,0,0,0,2.53,10.82,8,8,0,0,0,5.8,3.46,3.46,3.46,0,0,0,2.54-.76,3.49,3.49,0,0,0,.61-2.92l-.61-9.41C44.66,57,41.88,52.49,37.12,55Z" style="fill:#704843"/><path d="M46.45,34.05a34,34,0,0,0-3.64,19.74c.61,6.71,1.48,18.28,2.22,20.66C48.49,85.59,65.72,93.11,67,93.65a24.12,24.12,0,0,0,20.26-.59c10.29-3.81,18.3-11.2,22.11-20.39a41.09,41.09,0,0,0,2.53-16.93,83.68,83.68,0,0,0-1.79-19A21.06,21.06,0,0,0,96.29,25.39a99.82,99.82,0,0,0-28.41-1.13C59.35,24.29,51.37,27.94,46.45,34.05Z" style="fill:#7f5449"/><path d="M44,58.06c.56-8.38,1.3-21.09,6.8-24.12,4.5-2.49,19.63-.54,26.49-.6s19.82-1.35,23.9-.7A7.36,7.36,0,0,1,107.9,37a72.63,72.63,0,0,1,3,22.12c1.6-.81,2-4,2.47-6.27a54.67,54.67,0,0,0-.68-23.64C109.44,20.65,101.57,14,91.66,11.49a97.28,97.28,0,0,0-27.79,0c-9.06,1.42-16.68,6.75-20.26,14.17a51,51,0,0,0-2.1,24.4C42.81,58.82,43.86,60.5,44,58.06Z" style="fill:#230700"/><path d="M72.14,71.69c.62-.43,1.48,1.63,4.94,1.63S81.47,71.64,82,71.8s0,3.35-4.26,3.62S71.15,72.56,72.14,71.69Z" style="fill:#63413b"/><path d="M67.88,80.35c.8-.44,5.62,1.35,9.08,1.35a26.06,26.06,0,0,0,8.65-1.46c.92-.49,0,2.92-8.65,2.76S67.88,80.35,67.88,80.35Z" style="fill:#63413b"/><path d="M50.65,60.28c0-3.3,5.43-6,10.19-5.79s9,2.44,9,5.41-3.52,5.68-8.71,5.9S50.65,63.8,50.65,60.28Z" style="fill:#ffecd8"/><path d="M61.46,47.57a18.9,18.9,0,0,0-6.18.76c-1.48.37-2.41,1.13-2.53,1s0-4,7.66-4.22c6.17,0,8.34,2.38,8,3.2S65,47.57,61.46,47.57Z" style="fill:#230601"/><ellipse cx="60.79" cy="60.43" rx="5.33" ry="4.79" transform="translate(-11.47 14.33) rotate(-12.29)" style="fill:#290600"/><ellipse cx="57.51" cy="59.79" rx="2.1" ry="1.95" style="fill:#fcfcfc"/><path d="M60.72,53C65,53,68.64,55.49,69.86,59c.74,4.38-1.11-4.87-9.39-4.6-4.81,0-9,2.87-10.07,7C50.09,54.06,56.83,53,60.72,53Z" style="fill:#230601"/><path d="M93.57,47.57a18.38,18.38,0,0,1,6.18.76,25.22,25.22,0,0,1,2.53,1c0-.32,0-4-7.6-4.22-6.17,0-8.33,2.38-8,3.2S90.36,47.57,93.57,47.57Z" style="fill:#230601"/><path d="M84.8,60c0-3.25,5.44-5.9,10.19-5.73s9,2.43,9,5.68-3.52,5.67-8.71,5.89S84.8,63.36,84.8,60Z" style="fill:#ffecd8"/><ellipse cx="94.97" cy="60.23" rx="5.33" ry="4.79" transform="translate(-10.64 21.6) rotate(-12.29)" style="fill:#290600"/><ellipse cx="91.66" cy="59.52" rx="2.1" ry="1.95" style="fill:#fcfcfc"/><path d="M94.93,53c4.22.09,7.9,2.56,9.08,6.11.8,4.38-1.11-4.87-9.39-4.65-4.82,0-9,2.91-10.06,7C84.25,53.84,91,53,94.93,53Z" style="fill:#230601"/></svg>