<svg xmlns="http://www.w3.org/2000/svg" viewBox="0 0 46.39 77.37"><path d="M27.32,61a2.51,2.51,0,0,0,.4.7.78.78,0,0,0,.4.4c.1,0,.1.1.2.1a.35.35,0,0,1,.1.2v.3c0,.1-.2.2-.3.2s-.2,0-.2-.1A2.36,2.36,0,0,1,27,62a1.91,1.91,0,0,1-.3-.8c0-.2-.1-.4-.1-.6-.2.6.3,1.2.4,1.7v.3l.3.3c.1.1.2.3.3.4s.1.1.1.2-.1.2-.2.3-.3.3-.5.2a.22.22,0,0,1-.2-.2l-.3-.4-.3-.3a3.23,3.23,0,0,1-.6-1.8,1.85,1.85,0,0,1,.2-.7c.1-.1.1-.2.2-.2v-.2a.78.78,0,0,1,.4-.4l.6-.3c.2,0,.3,0,.3.1V60A1.7,1.7,0,0,0,27.32,61Z" transform="translate(-25.08 -17.37)" style="fill:#63413b"/><path d="M26.12,61.45a4.33,4.33,0,0,0,.1.5l.3.6a3.09,3.09,0,0,1,.2.8v.4c0,.2-.1.3-.1.5l-.1.1c-.1.1-.3,0-.4-.1a.76.76,0,0,1-.2-.4,10.56,10.56,0,0,1-.6-1.9,10.8,10.8,0,0,1-.2-3.1,2.35,2.35,0,0,1,.2-.8,8.4,8.4,0,0,1,.4-1.2.1.1,0,0,1,.1-.1h.1a1.38,1.38,0,0,1,.4-.3h.5a1.85,1.85,0,0,1,.7.2.55.55,0,0,1,.3.5v.4a.76.76,0,0,1,.2.5v.5c0,.2.1.3.1.4l.5,1.4c0,.1.1.2,0,.3a.37.37,0,0,1-.3.1h-.7c-.1,0-.1-.1-.1-.2a6.89,6.89,0,0,0-.3-.8l-.6,1.1v.4a8.55,8.55,0,0,0,0,1.6,1.7,1.7,0,0,1,0,1c0,.2-.2.3-.4.3s-.3-.2-.3-.4l-.2-.6v-1a2.77,2.77,0,0,0-.1-.9,5.55,5.55,0,0,0,.6-.8h0c0-.1,0-.2.1-.2a.91.91,0,0,1,0,1,.31.31,0,0,0-.1.2C26.12,61.35,26.12,61.45,26.12,61.45Z" transform="translate(-25.08 -17.37)" style="fill:#7f5449"/><path d="M28.22,60.35h0a.6.6,0,0,1,.1.4c0,.1.1.2-.1.2h-.4c-.1,0-.2-.1-.3-.2v-.5c0-.1,0,0,.1,0h.6Z" transform="translate(-25.08 -17.37)" style="fill:#b7825a"/><path d="M26.12,63.35v.8H26c-.1,0,0-.1,0-.2a1.27,1.27,0,0,1,.1-.6Z" transform="translate(-25.08 -17.37)" style="fill:#b7825a"/><path d="M27.32,59.75c0-.1-.1-.1-.1-.2a.19.19,0,0,0-.3,0l-.2.2a3.55,3.55,0,0,0-.2,1,3.55,3.55,0,0,0-.2,1c0,.1,0,.2.1.2v2.2a.92.92,0,0,0,.1-1v-1.5a1.27,1.27,0,0,1,.1-.6c.1-.4.2-.7.3-1.1.1.2.1.5.2.7s.5.4.4.3a.9.9,0,0,1-.1-.5C27.32,60.15,27.42,60,27.32,59.75Z" transform="translate(-25.08 -17.37)" style="fill:#63413b"/><path d="M26.52,63.05a1.7,1.7,0,0,1,0,1c0,.1,0,.1-.1.1h0v.3h.1c.1,0,.1,0,.1-.1a.1.1,0,0,1,.1-.1c0-.1,0-.1.1-.2v-.9c0-.1,0-.1-.1-.2v.1" transform="translate(-25.08 -17.37)" style="fill:#63413b"/><path d="M45.2,32c0-.3,6.5-.1,6.6-.1a13.32,13.32,0,0,0-.5,1.9,4.07,4.07,0,0,0,.5,1.8,3.89,3.89,0,0,1-3.2,1.3,3.3,3.3,0,0,1-3-1.3V34A17.66,17.66,0,0,0,45.2,32Z" transform="translate(-25.08 -17.37)" style="fill:#7f5449"/><path d="M46.3,34.3a3.8,3.8,0,0,0,4.1.3,2,2,0,0,0,.9-.9,1.27,1.27,0,0,0,.1-.6v-.6c0-.1-.1-.1-.2-.1-1.5.1-3,.2-4.5.2-.2,0-.4-.1-.6-.1s-.1,0-.1.3A3.34,3.34,0,0,1,46.3,34.3Z" transform="translate(-25.08 -17.37)" style="fill:#63413b"/><path d="M69.13,60.61a2.51,2.51,0,0,1-.4.7.78.78,0,0,1-.4.4c-.1,0-.1.1-.2.1s-.1.1-.1.2v.4c0,.1.2.2.3.2s.2,0,.2-.1a2.58,2.58,0,0,0,.9-.9,1.14,1.14,0,0,0,.3-.8c0-.2.1-.4.1-.6.2.6-.3,1.2-.4,1.8v.3c-.1.1-.2.3-.3.4a2.19,2.19,0,0,0-.3.5v.2c0,.1.1.2.2.3s.3.3.5.2a.22.22,0,0,0,.2-.2l.3-.4c.1-.1.2-.2.2-.3a3.29,3.29,0,0,0,.6-1.9,1.85,1.85,0,0,0-.2-.7c-.1-.1-.1-.2-.2-.3v-.2a.78.78,0,0,0-.4-.4l-.6-.3c-.2,0-.3,0-.3.1v.5C69.33,60,69.23,60.31,69.13,60.61Z" transform="translate(-25.08 -17.37)" style="fill:#63413b"/><path d="M70.43,61.34c0,.2-.1.4-.1.6s-.2.4-.2.7l-.3.9v.4c0,.2.1.3.1.5l.1.1c.1.1.3,0,.4-.1a.76.76,0,0,0,.2-.4,11.69,11.69,0,0,0,.6-2,11.5,11.5,0,0,0,.2-3.2,2.92,2.92,0,0,0-.2-.9,8.4,8.4,0,0,0-.4-1.2.1.1,0,1,0-.2,0c-.1-.1-.2-.3-.4-.3h-.5a1.85,1.85,0,0,0-.7.2.6.6,0,0,0-.3.6v.4c-.1.2-.2.3-.2.5v.5a.9.9,0,0,1-.1.5l-.3,1.3v.3a.37.37,0,0,0,.3.1h.7c.1,0,.1-.1.1-.2l.3-.9.3,1.1v.4a9.65,9.65,0,0,1,0,1.7,1.7,1.7,0,0,0,0,1c0,.2.2.3.4.3s.3-.3.3-.4l.1-.7a4.33,4.33,0,0,1,.1-.5v-.5a3.4,3.4,0,0,1,.1-1c-.2-.2-.4-.6-.6-.8h0c0-.1,0-.2-.1-.2a.91.91,0,0,0,0,1,.31.31,0,0,1,.1.2C70.43,61.24,70.33,61.24,70.43,61.34Z" transform="translate(-25.08 -17.37)" style="fill:#7f5449"/><path d="M68.23,60h0c-.1.1-.1.3-.2.4s-.1.3.1.2h.4c.1,0,.2-.1.3-.2v-.5c0-.1,0-.1-.1,0Z" transform="translate(-25.08 -17.37)" style="fill:#b7825a"/><path d="M70.33,63.11v.8h.1v-.2a1.27,1.27,0,0,0-.1-.6Z" transform="translate(-25.08 -17.37)" style="fill:#b7825a"/><path d="M69.13,59.31c0-.1,0-.1.1-.2a.3.3,0,0,1,.4,0c.1.1.2.2.2.3.1.3.1.7.2,1a3.55,3.55,0,0,1,.2,1V64a1.23,1.23,0,0,1-.2-1v-2.3a9.68,9.68,0,0,0-.3-1.1c-.1.2-.1.5-.2.7s-.5.4-.4.3a4.33,4.33,0,0,1,.1-.5C69,59.71,69,59.61,69.13,59.31Z" transform="translate(-25.08 -17.37)" style="fill:#63413b"/><path d="M69.93,62.81a1.7,1.7,0,0,0,0,1,.1.1,0,0,0,.1.1v.5h-.1a.1.1,0,0,1-.1-.1c0-.1,0-.1-.1-.1V64a.85.85,0,0,1,0-.7V63c0-.1,0-.1.2-.2l-.1.2" transform="translate(-25.08 -17.37)" style="fill:#63413b"/><path d="M48,64.1a2,2,0,0,1,1.4.6,4.67,4.67,0,0,1,.5,1c.1.3.5,6.7.7,8.4a25.72,25.72,0,0,1,.5,4c0,.4-.5,1.2-.6,2.2a16.05,16.05,0,0,0,0,3.1,8.8,8.8,0,0,0,.5,1.5,25,25,0,0,1,.7,2.6,15.52,15.52,0,0,1,.4,2.1,1.7,1.7,0,0,1,0,1,2.92,2.92,0,0,0-.2.9c.1.1.1.3.2.4.3.7-.6,1.6-.2,2.3a1.64,1.64,0,0,0,1.9.4c.1,0,.2-.1.3-.1h.4a12.19,12.19,0,0,0,2.7,0h.2a.37.37,0,0,0,.2-.5c-.1-.2-.2-.3-.3-.5a4.89,4.89,0,0,1-1.2-1.3,11.71,11.71,0,0,1-.6-4.2,24.41,24.41,0,0,0,.9-4.7,10.76,10.76,0,0,0-.4-4.7,6.87,6.87,0,0,1-.5-2.4c0-.7.8-2.1,1-3.6a26.7,26.7,0,0,0,0-4c-.1-1.6-.2-3.5-.3-5.1,0-.9-.6-3.6-.7-4.5-.1-.6.3-2.1.2-2.7s-.2-4.7-.2-5.1c0-1.9.1-3.8.1-5.7,0-.5-.1-3-.1-3.7v-.7c0-.9,1.4,1.8,1.8,2.7s1.4,2.3,1.2,2.3c.4.7.7,1,1.2,1.8.2.4.5.8.7,1.2a7.93,7.93,0,0,1,.4.9A7.61,7.61,0,0,0,62,51.9c.4.3,4,3.1,4.3,3.4s1.4,1.5,1.8,1.8.5.5.7.6a1.71,1.71,0,0,1,1.3-.7c.6-.1.9-.2.6-.7s-1.5-2.2-1.7-2.6a23.69,23.69,0,0,0-2.1-3,15.37,15.37,0,0,0-1.7-1.9c-.6-.6-1.5-1.3-2.2-2a17.68,17.68,0,0,1-1.6-2.2,47.83,47.83,0,0,1-2.3-4.5c-.2-.5-.5-1-.7-1.6a10.93,10.93,0,0,0-.8-1.5,3.13,3.13,0,0,0-1.1-.8c-.5-.2-1.1-.4-1.7-.6-1.2-.3-1.9-.2-3.2-.5a10.63,10.63,0,0,1-1.1.9,5.45,5.45,0,0,1-2.2.5" transform="translate(-25.08 -17.37)" style="fill:#7f5449"/><path d="M48.5,36.8a4.55,4.55,0,0,1-2-.5,2.93,2.93,0,0,1-1-.9,17.5,17.5,0,0,0-3.2.4,10.93,10.93,0,0,0-1.7.5,2.84,2.84,0,0,0-1.1.8c-.3.5-.6.9-.9,1.5s-.5,1-.8,1.6c-.5,1-1.8,3.5-2.4,4.5a11.22,11.22,0,0,1-1.6,2.2c-.7.7-1.6,1.4-2.2,2s-1.3,1.4-1.7,1.9-1.9,2.5-2.2,3-1.5,2.1-1.8,2.6-.1.6.6.7a1.86,1.86,0,0,1,1.3.7,4.35,4.35,0,0,0,.7-.6c.4-.3,1.4-1.4,1.8-1.7s4-3,4.4-3.4a7.61,7.61,0,0,0,1.2-1.9,3.92,3.92,0,0,1,.4-.9,12.75,12.75,0,0,0,.7-1.2,18.76,18.76,0,0,0,1.2-1.8c-.1,0,1-1.5,1.3-2.3s1.8-3.7,1.8-2.7V42c0,.8-.1,3.2-.1,3.7-.1,1.9,0,3.8,0,5.7,0,.4-.2,4.7-.2,5.1s-.6,2.1-.7,2.7c-.2.9.2,3.5.1,4.5-.1,1.6-.2,3.5-.3,5.1a26.7,26.7,0,0,0,0,4c.2,1.5,1,2.9,1,3.6a10.55,10.55,0,0,1-.6,2.4,10.67,10.67,0,0,0-.5,4.7,38.9,38.9,0,0,0,.9,4.7,15.42,15.42,0,0,1-.6,4.2,4.89,4.89,0,0,1-1.2,1.3c.1,0-.1.2-.1.3a.37.37,0,0,0,.2.5h.2a11.29,11.29,0,0,0,2.6,0h.4c.1,0,.2.1.3.1a1.64,1.64,0,0,0,1.9-.4c.4-.7-.5-1.6-.1-2.3a.76.76,0,0,0,.2-.4,1.49,1.49,0,0,0-.2-.9,1.7,1.7,0,0,1,0-1c.1-.7.3-1.4.4-2.1a25,25,0,0,1,.7-2.6,8.8,8.8,0,0,0,.5-1.5,16.05,16.05,0,0,0,0-3.1c-.1-1-.6-1.8-.6-2.2.1-1.3.3-2.6.5-4,.2-1.8.7-8.1.8-8.4a1.91,1.91,0,0,1,.5-1,1.66,1.66,0,0,1,1.2-.5" transform="translate(-25.08 -17.37)" style="fill:#7f5449"/><path d="M40.1,59.3c.1-.5.3-1.2.8-1.3H41c3.6-.1,14.4-.5,14.5-.2a2.4,2.4,0,0,1,.2,1c.1,2.4-3.2,4.1-6.6,5.9a2,2,0,0,1-1,.3,2.76,2.76,0,0,1-1.4-.2c-2-.9-6.1-2.6-6.6-4.6Z" transform="translate(-25.08 -17.37)" style="fill:#000068"/><circle cx="19.82" cy="24.83" r="0.2" style="fill:#2d2d2d"/><circle cx="27.42" cy="24.73" r="0.2" style="fill:#2d2d2d"/><path d="M35.4,50.1a4.88,4.88,0,0,0,.3-.7c.2-.2.3-.5.6-.7a6.73,6.73,0,0,0,.7-1.1l.8-1.7c.1-.2.2-.5.3-.7a1.27,1.27,0,0,1,.1-.6c.2-.4.4-.9.6-1.3.1-.2.1-.4.2-.5s.2-.2.3-.2a5.18,5.18,0,0,0,1.9-3,2.11,2.11,0,0,1,.5-1.3l.2.1a3.72,3.72,0,0,0,.5,2.3c.1.2.2.3.3.5v.7c-.1,1.3.8,2.6.7,3.9-.1.5-.2,1-.3,1.4a5.9,5.9,0,0,0-.2,1.4v1.1a4.82,4.82,0,0,1,0,1.2l-.3,1.2a2.77,2.77,0,0,0,.1.9.6.6,0,0,1,.1.4v.4l-.2,1.4a.48.48,0,0,1-.6.2c-.1,0-.1-.1-.2-.1V54.2l.1-6.5V41.4c0-.2,0-.6-.2-.6s-.3.4-.3.5a8.11,8.11,0,0,0-1,1.8c-.2.5-1,1.8-1.2,2.2a23.26,23.26,0,0,1-1.7,2.6,4.7,4.7,0,0,0-.6.9c-.1.3-.6,1.5-.8,1.9A6.89,6.89,0,0,1,35,52c-.3.3-.7.5-1,.8a3.69,3.69,0,0,0,.7-1.4A7.62,7.62,0,0,0,35.4,50.1Z" transform="translate(-25.08 -17.37)" style="fill:#63413b"/><path d="M57.2,93.9a.22.22,0,0,1,.2-.2h.1a1.1,1.1,0,0,0,0,.8.75.75,0,0,0-.5-.1c-.1,0-.3.1-.2-.1S57.1,94.1,57.2,93.9Z" transform="translate(-25.08 -17.37)" style="fill:#63413b"/><path d="M43.6,93.9a.22.22,0,0,0-.2-.2h-.1a1.1,1.1,0,0,1,0,.8.75.75,0,0,1,.5-.1c.1,0,.3.1.2-.1A.78.78,0,0,1,43.6,93.9Z" transform="translate(-25.08 -17.37)" style="fill:#63413b"/><path d="M56.3,26.3c.1.1.3.2.4.3l.3.6a2.91,2.91,0,0,1-.5,2.2,1.64,1.64,0,0,1-1.1.7c-.2,0-.4,0-.5-.2a.66.66,0,0,1-.1-.6l.1-1.9C54.8,26.7,55.4,25.8,56.3,26.3Z" transform="translate(-25.08 -17.37)" style="fill:#704843"/><path d="M40.3,26.3c-.1.1-.3.2-.4.3a1.42,1.42,0,0,0-.2.6,2.91,2.91,0,0,0,.5,2.2,1.64,1.64,0,0,0,1.2.7c.2,0,.4,0,.5-.2a.66.66,0,0,0,.1-.6l-.1-1.9C41.8,26.7,41.2,25.8,40.3,26.3Z" transform="translate(-25.08 -17.37)" style="fill:#704843"/><path d="M42.1,22.1a6.84,6.84,0,0,0-.7,4c.1,1.3.3,3.7.4,4.1.7,2.2,4.1,3.7,4.4,3.8a4.66,4.66,0,0,0,4-.1,7.73,7.73,0,0,0,4.4-4.1,7.83,7.83,0,0,0,.5-3.4,16.37,16.37,0,0,0-.4-3.8A4.43,4.43,0,0,0,52,20.3a21.79,21.79,0,0,0-5.7-.2A6,6,0,0,0,42.1,22.1Z" transform="translate(-25.08 -17.37)" style="fill:#7f5449"/><path d="M41.7,26.9c.1-1.7.3-4.2,1.4-4.8.9-.5,3.9-.1,5.3-.1a40.32,40.32,0,0,1,4.8-.1,1.42,1.42,0,0,1,1.3.9,16.11,16.11,0,0,1,.6,4.4c.3-.2.4-.8.5-1.3a10.62,10.62,0,0,0-.1-4.7,6.37,6.37,0,0,0-4.2-3.6,16.92,16.92,0,0,0-5.5,0,5.47,5.47,0,0,0-4,2.8,10.15,10.15,0,0,0-.4,4.9C41.4,27.1,41.6,27.4,41.7,26.9Z" transform="translate(-25.08 -17.37)" style="fill:#230700"/><path d="M47.2,29.7c.1-.1.3.3,1,.3a1.79,1.79,0,0,0,1-.3c.1,0,0,.7-.8.7S47,29.8,47.2,29.7Z" transform="translate(-25.08 -17.37)" style="fill:#63413b"/><path d="M46.4,31.4c.2-.1,1.1.3,1.8.3a4.67,4.67,0,0,0,1.7-.3c.2-.1,0,.6-1.7.6S46.4,31.4,46.4,31.4Z" transform="translate(-25.08 -17.37)" style="fill:#63413b"/><path d="M47.9,32.4a.37.37,0,0,0,.3.1c.1,0,.2-.1.3-.1s.2,0,.1.1a.52.52,0,0,1-.4.2.32.32,0,0,1-.3-.3Z" transform="translate(-25.08 -17.37)" style="fill:#63413b"/><path d="M43,27.4c0-.7,1.1-1.2,2-1.2s1.8.5,1.8,1.1-.7,1.1-1.7,1.2S43,28.1,43,27.4Z" transform="translate(-25.08 -17.37)" style="fill:#ffecd8"/><path d="M45.1,24.8a2.54,2.54,0,0,0-1.2.2,4.2,4.2,0,0,0-.5.2s0-.8,1.5-.8c1.2,0,1.7.5,1.6.6S45.8,24.8,45.1,24.8Z" transform="translate(-25.08 -17.37)" style="fill:#230601"/><ellipse cx="45" cy="27.4" rx="1.1" ry="1" transform="translate(-30.07 -6.6) rotate(-12.94)" style="fill:#290600"/><circle cx="19.22" cy="9.93" r="0.4" style="fill:#fcfcfc"/><path d="M45,25.9a1.87,1.87,0,0,1,1.8,1.2c.1.9-.2-1-1.9-.9a2,2,0,0,0-2,1.4C42.9,26.1,44.2,25.9,45,25.9Z" transform="translate(-25.08 -17.37)" style="fill:#230601"/><path d="M51.5,24.8a2.54,2.54,0,0,1,1.2.2c.2.1.3.1.5.2,0-.1,0-.8-1.5-.8-1.2,0-1.7.5-1.6.6S50.9,24.8,51.5,24.8Z" transform="translate(-25.08 -17.37)" style="fill:#230601"/><path d="M49.8,27.3c0-.6,1.1-1.2,2-1.1s1.8.5,1.8,1.1-.7,1.1-1.7,1.2S49.8,28,49.8,27.3Z" transform="translate(-25.08 -17.37)" style="fill:#ffecd8"/><ellipse cx="51.81" cy="27.4" rx="1.1" ry="1" transform="translate(-29.9 -5.07) rotate(-12.94)" style="fill:#290600"/><circle cx="26.02" cy="9.83" r="0.4" style="fill:#fcfcfc"/><path d="M51.8,25.9a1.87,1.87,0,0,1,1.8,1.2c.2.9-.2-1-1.9-.9a2,2,0,0,0-2,1.4C49.7,26.1,51,25.9,51.8,25.9Z" transform="translate(-25.08 -17.37)" style="fill:#230601"/><path d="M67,47.6" transform="translate(-25.08 -17.37)" style="fill:#000068"/><path d="M45.19,56.84a4.38,4.38,0,0,1-.55.76,34.68,34.68,0,0,0,7.4-.05,4.19,4.19,0,0,1-.51-.71,4.19,4.19,0,0,0,.51.71,31.33,31.33,0,0,0,4.08-.77l-.43-1.42a49.31,49.31,0,0,1-14.64,0,9.57,9.57,0,0,1-.32,1.49,24.2,24.2,0,0,0,3.91.72A4.38,4.38,0,0,0,45.19,56.84Z" transform="translate(-25.08 -17.37)" style="fill:#17bc9c"/><path d="M56.6,60.07c-.41-1.34-.53-2.43-.79-3.28a25.44,25.44,0,0,1-3.77.76A6.77,6.77,0,0,0,56.6,60.07Z" transform="translate(-25.08 -17.37)" style="fill:#61e5cc"/><path d="M38.46,74.79h9.61L48,73.28l-9.35-.13C38.22,74.39,38.46,74.79,38.46,74.79Z" transform="translate(-25.08 -17.37)" style="fill:#17bc9c"/><path d="M48.85,73.1l.1,1.6,9.18-.44A5,5,0,0,0,58,72.48Z" transform="translate(-25.08 -17.37)" style="fill:#17bc9c"/><path d="M45.32,57.63a34.62,34.62,0,0,1-4.59-.75c-.22.87-.55,2-.94,3.37A8.76,8.76,0,0,0,45.32,57.63Z" transform="translate(-25.08 -17.37)" style="fill:#6bedd4"/><path d="M44.56,57.55a6.51,6.51,0,0,1-4.77,2.7c-.28,4.56-.83,9.61-1.26,12.89l9.28.09.49-6.82v-8.6C46.67,57.72,45.64,57.65,44.56,57.55Z" transform="translate(-25.08 -17.37)" style="fill:#56dbc1"/><path d="M56.6,60.07a6.54,6.54,0,0,1-4.49-2.52,34.37,34.37,0,0,1-3.77.22v8.6l.51,6.73L58,72.48C57.69,69.38,57.16,64.35,56.6,60.07Z" transform="translate(-25.08 -17.37)" style="fill:#49ceb4"/><path d="M52.07,35.07h.09l.15,0h.09l.09,0h0l.13.05h0l0,0,.08,0c1.2.52,3.32.57,4.42,1.29.91.6,2.83,4.53,4,5.52a.33.33,0,0,1,0,.52c-.47.47-1.35,1.29-1.51,1.41a11,11,0,0,1-1.85,1,.52.52,0,0,1-.74-.17,4.45,4.45,0,0,0-.56-.9.44.44,0,0,0-.49-.15h0a14.85,14.85,0,0,0-.37,4.74c0,.67.07,1.47.12,2.51,0,.34.05.72.09,1.14.22,2.1.95,5.06.86,6.29a.43.43,0,0,1-.45.36c-2.57.09-5.39.13-7.93.23a26.71,26.71,0,0,1-4.1,0c-1-.12-2.44-.39-3.58-.43a.46.46,0,0,1-.48-.39,30.19,30.19,0,0,1,.65-3.43L41,54c0-.28.06-.57.08-.86s0-.43,0-.65a10.93,10.93,0,0,0,0-1.4,10.44,10.44,0,0,1,0-1.57c0-.63.13-1.26.2-1.74a17,17,0,0,0,.09-2.47v0c0-.28,0-.59,0-.86a.84.84,0,0,0-.1-.37.81.81,0,0,0-.35,0c-.31.1-.64.62-.8.54a22.42,22.42,0,0,1-2.76-1.25l-1.11-.79a.33.33,0,0,1-.12-.45c.47-.86,2-3.19,2.15-3.48.35-.51.55-.83,1-1.46a4,4,0,0,1,1-.79A8.49,8.49,0,0,1,41.69,36a18.42,18.42,0,0,0,2.13-.65h0l0,0,.08,0c.07,0,.49-.2.52-.16.21.29.75,3.52,3.54,3.53C52,38.62,51.9,35.08,52.07,35.07Z" transform="translate(-25.08 -17.37)" style="fill:#0e1a46"/><path d="M48.19,38.6" transform="translate(-25.08 -17.37)" style="fill:#0e1a46"/><path d="M51.76,35.85" transform="translate(-25.08 -17.37)" style="fill:#000333"/><path d="M52.07,35.07a5.09,5.09,0,0,1,.59.13h0l0,0s0,0,.08,0a15.88,15.88,0,0,1,4.12,1.12c1.1.51,1.79,2.29,2.41,3.31-.18.16-.35.27-.64.51-.71-.95-1.3-2.37-2.2-3A10.22,10.22,0,0,0,52.83,36l-.12,0,0,0h0a2.33,2.33,0,0,0-.87-.26Z" transform="translate(-25.08 -17.37)" style="fill:#000333"/><path d="M52,35.08" transform="translate(-25.08 -17.37)" style="fill:#000333"/><path d="M44.83,35.86" transform="translate(-25.08 -17.37)" style="fill:#000333"/><path d="M44.52,35.08l-.59.13h0l0,0-.07,0a10.22,10.22,0,0,0-3.58,1c-1.11.51-2.13,2.66-2.74,3.69.18.16.35.27.63.51.72-.95,1.69-2.75,2.6-3.34a8.06,8.06,0,0,1,3-1.11l.11,0,0,0h0a4.94,4.94,0,0,1,.8-.22C44.63,35.54,44.61,35.29,44.52,35.08Z" transform="translate(-25.08 -17.37)" style="fill:#000333"/><path d="M44.6,35.09" transform="translate(-25.08 -17.37)" style="fill:#000333"/><path d="M41.45,44.18l-.05,0a5.15,5.15,0,0,0,.38-2.22c0-.27,0-.54,0-.81s.06-.58.1-.86A10,10,0,0,0,42,38.92a4.61,4.61,0,0,0-.57-2.16l0,0a4.57,4.57,0,0,1,.57,2.18A8.71,8.71,0,0,1,42,40.27c0,.28-.08.57-.1.86s0,.53,0,.8A5.17,5.17,0,0,1,41.45,44.18Z" transform="translate(-25.08 -17.37)" style="fill:#000333"/><path d="M56.07,43.81c-.31,0-.63-1.08-.8-1.69a14.3,14.3,0,0,1-.43-5.83h.06a14.19,14.19,0,0,0,.42,5.81c.28,1,.56,1.62.76,1.65Z" transform="translate(-25.08 -17.37)" style="fill:#000333"/><path d="M52.67,35.2h0l0,.11a5.4,5.4,0,0,1-1.29,2.59,3.85,3.85,0,0,1-3,1.35A3.32,3.32,0,0,1,47,39.07a6.49,6.49,0,0,1-1.64-.93,4.76,4.76,0,0,1-1.46-2.8l0-.05.12-.06a1.13,1.13,0,0,1,.52-.16h0l0,0a5.27,5.27,0,0,0,1.55,2.71,5.6,5.6,0,0,0,1.22.68,2.25,2.25,0,0,0,1,.14,4,4,0,0,0,2.43-1A5.25,5.25,0,0,0,52,35.18l0-.11" transform="translate(-25.08 -17.37)" style="fill:#0b173c"/><path d="M52.67,35.2h0l0,.11c0,.21-.1.4-.16.58h0a5.51,5.51,0,0,1-1.13,2,3.84,3.84,0,0,1-3,1.34A3.26,3.26,0,0,1,47,39a6.18,6.18,0,0,1-1.63-.93A4.43,4.43,0,0,1,44,36c-.05-.18-.1-.39-.15-.62v-.07l0,0h0v0h0c0,.24.11.45.16.64a4.5,4.5,0,0,0,1.31,2.17,5.88,5.88,0,0,0,1.65.93,2.9,2.9,0,0,0,1.12.2h.25a4,4,0,0,0,3.06-1.36,5.72,5.72,0,0,0,1.15-2c0-.18.1-.37.15-.58l0-.11ZM52,35.07h0l0,.09c-.08.26-.17.52-.26.77a3.83,3.83,0,0,1-1,1.64,4.08,4.08,0,0,1-2.41,1H48a2.18,2.18,0,0,1-.7-.14,4.05,4.05,0,0,1-2.49-2.53h0a6.18,6.18,0,0,1-.27-.83v0h-.06v0a5.4,5.4,0,0,0,.24.78,5.06,5.06,0,0,0,1.33,1.94,5,5,0,0,0,1.22.69,2.18,2.18,0,0,0,1,.14,4.08,4.08,0,0,0,2.45-1,4,4,0,0,0,1-1.72l.24-.72,0-.12Z" transform="translate(-25.08 -17.37)" style="fill:#000333"/><path d="M56.7,43.74a1.5,1.5,0,0,0-.59,0,2.39,2.39,0,0,1-.22-.23,2.62,2.62,0,0,1-.54-.91,9.21,9.21,0,0,1-.2-1.28c-.07-.41-.21-.79-.27-1.2a7.94,7.94,0,0,1,.66,1.66c.13.4.15.76.54,1.05a1.27,1.27,0,0,1,.3.47C56.42,43.44,56.7,43.64,56.7,43.74Z" transform="translate(-25.08 -17.37)" style="fill:#000333;opacity:0.4"/><path d="M41.85,42.71a6.58,6.58,0,0,1-.44,1.66.84.84,0,0,0-.1-.37.81.81,0,0,0-.35,0c0-.27.2-.57.26-.83s.1-.5.14-.75c.1-.65.19-1.3.28-1.95a.41.41,0,0,1,.17.32,1.76,1.76,0,0,1,0,.4C41.75,41.73,41.88,42.22,41.85,42.71Z" transform="translate(-25.08 -17.37)" style="fill:#000333;opacity:0.4"/><path d="M47.83,56.69a2.7,2.7,0,0,1-1.37.24c-1.46-.11-2.74-1.09-4.09-1.7-.17-.08-.33-.15-.49-.24a2.11,2.11,0,0,0-.33-.18,4.19,4.19,0,0,0-.66,0L41,54a2.06,2.06,0,0,1,1.28.39c.27.21.5.48.77.7,1.08.89,2.57.79,3.9,1.11A1.34,1.34,0,0,1,47.83,56.69Z" transform="translate(-25.08 -17.37)" style="fill:#000333;opacity:0.25"/><path d="M55.92,52.19h0c-.11.1-.29,0-.4.13a.42.42,0,0,0-.09.19,8.71,8.71,0,0,1-1.69,3.11,5.31,5.31,0,0,1,.88-2.54.79.79,0,0,0,.07-.56c-.11-.32-.52-.32-.84-.26,0-.24.18-.43.35-.58a6.67,6.67,0,0,0,.82-.86,1.7,1.7,0,0,0,.26-.43,1.91,1.91,0,0,0-.15-1.12,10.06,10.06,0,0,1-.48-2.67c.22-.05.33.29.37.54a3,3,0,0,0,.51,1.2,1.62,1.62,0,0,0,.18.2c0,.67.07,1.47.12,2.51C55.84,51.39,55.88,51.77,55.92,52.19Z" transform="translate(-25.08 -17.37)" style="fill:#000333;opacity:0.22"/><path d="M41.86,49.35a2.36,2.36,0,0,0,0,1.29,1.89,1.89,0,0,1,.17,1,1.19,1.19,0,0,1-.21.38l-.76,1.1c0-.21,0-.43,0-.65a10.93,10.93,0,0,0,0-1.4,10.44,10.44,0,0,1,0-1.57c0-.63.13-1.26.2-1.74a17,17,0,0,0,.09-2.47v0a3.41,3.41,0,0,1,.3,1.84,2,2,0,0,0,0,.69,2.9,2.9,0,0,0,.31.54,1.52,1.52,0,0,1,.15,1.07Z" transform="translate(-25.08 -17.37)" style="fill:#000333;opacity:0.25"/></svg>