<svg xmlns="http://www.w3.org/2000/svg" viewBox="0 0 28.8 75.01"><path d="M11.11,13.45c0-.31,6.56-.11,6.56-.11a13,13,0,0,0-.46,2.06,6.42,6.42,0,0,0,.46,2,3.67,3.67,0,0,1-3.18,1.34c-2.25.1-3.1-1.23-3.1-1.34a14.63,14.63,0,0,1,.1-1.74A11.86,11.86,0,0,0,11.11,13.45Z" style="fill:#7f5449"/><path d="M11.67,15.5a4.8,4.8,0,0,0,4.41.31,2.86,2.86,0,0,0,1-.82,1,1,0,0,0,.1-.52V14h-.29a37.34,37.34,0,0,1-4.87.1c-.28,0-.38-.1-.66-.1s-.18,0-.09.31A1.58,1.58,0,0,1,11.67,15.5Z" style="fill:#63413b"/><path d="M2.1,45.53a6.27,6.27,0,0,0,.37.72c.1.11.19.31.38.41s.09.11.19.11a.36.36,0,0,1,.09.2v.31c0,.1-.19.21-.28.21s-.19,0-.19-.11a2.54,2.54,0,0,1-.84-.92,2,2,0,0,1-.28-.82c0-.21-.1-.42-.1-.62-.18.62.28,1.23.38,1.85a.42.42,0,0,0,.09.31,1.16,1.16,0,0,1,.28.41c.1.1.19.31.28.41s.1.1.1.21-.1.2-.19.31-.28.3-.47.2a.21.21,0,0,1-.19-.2c-.09-.11-.18-.31-.28-.42s-.18-.2-.18-.3a3.53,3.53,0,0,1-.57-1.86,1.05,1.05,0,0,1,.19-.72c.09-.1.09-.2.19-.3v-.21c0-.21.19-.31.37-.41L2,44c.18,0,.28,0,.28.1a.61.61,0,0,1-.1.41A1.05,1.05,0,0,0,2.1,45.53Z" style="fill:#63413b"/><path d="M.88,46.05c0,.2.09.41.09.61l.29.62.28.93v.41c0,.2-.1.31-.1.51l-.09.11c-.09.1-.28,0-.38-.11a.82.82,0,0,1-.18-.41,12,12,0,0,1-.57-1.95A12.22,12.22,0,0,1,0,43.58a2.63,2.63,0,0,1,.18-.82A6.32,6.32,0,0,1,.6,41.52s0-.1.09-.1a.1.1,0,0,1,.1.1c0-.1.18-.2.37-.31h.47a1.69,1.69,0,0,1,.66.21.59.59,0,0,1,.28.51c0,.11-.1.21,0,.31s0,.1.09.1a.82.82,0,0,1,.19.52c0,.2-.09.31-.09.51s.09.31.09.41a9.29,9.29,0,0,1,.47,1.44c0,.11.09.21,0,.31a.32.32,0,0,1-.28.11H2.38c-.09,0-.09-.11-.09-.21L2,44.5c-.1.42-.19.72-.29,1.14v.41c0,.51-.09,1.13-.09,1.64a3.93,3.93,0,0,1,0,1c-.09.21-.19.31-.37.31S1,48.82,1,48.62s-.09-.41-.09-.72-.09-.31-.09-.52v-.51a4,4,0,0,0-.1-1A5.28,5.28,0,0,0,1.26,45h0c0-.1,0-.21.09-.21a.83.83,0,0,1,0,.93.36.36,0,0,1-.09.2C.88,45.94,1,46.05.88,46.05Z" style="fill:#7f5449"/><path d="M2.85,44.92h0c0,.1.09.3.09.41s.1.31-.09.2H2.47c-.09,0-.18-.1-.28-.2v-.52c0-.1.1-.1.1,0A1,1,0,0,0,2.85,44.92Z" style="fill:#b7825a"/><path d="M.88,48v.72s0,.1-.09.1H.69a.36.36,0,0,1-.09-.2,2,2,0,0,1,.09-.72Z" style="fill:#b7825a"/><path d="M2,44.3c0-.1,0-.1-.1-.21a.17.17,0,0,0-.28,0c-.09.11-.19.21-.19.31-.09.31-.09.62-.18,1a1.89,1.89,0,0,0-.19,1,.43.43,0,0,0,.09.31V49c.28-.31.19-.62.19-1V46.46a1.49,1.49,0,0,1,.09-.62c.1-.41.19-.72.28-1.13.1.21.1.51.19.72s.47.41.38.31-.1-.41-.1-.52A4.64,4.64,0,0,0,2,44.3Z" style="fill:#63413b"/><path d="M1.35,47.69a2,2,0,0,1-.09,1,.1.1,0,0,1-.1.1l-.09.11v.31h.09c.1,0,.1,0,.1-.11l.09-.1.09-.21c.1-.2,0-.41,0-.72v-.2a.34.34,0,0,1-.09-.21h0" style="fill:#63413b"/><path d="M14.39,17.77a4,4,0,0,1-2-.42,2.73,2.73,0,0,1-.93-.92,18.09,18.09,0,0,0-3,.41,10.91,10.91,0,0,0-1.6.51A4.26,4.26,0,0,0,5.49,19c-.08.59-.19,1.07-.27,1.65a11.3,11.3,0,0,1-.15,1.71c-.07,1.13-.32,3.87-.51,4.94a17.59,17.59,0,0,1-.63,2.55c-.35.91-.83,1.75-1.23,2.56-.29.56-.62,1.79-.82,2.3a23.7,23.7,0,0,0-.77,3.49c-.11.49-.54,2.53-.57,3s.1.51.79.47c.47-.07.7-.27,1.11,0a4.32,4.32,0,0,0,.35-.91c.24-.42.66-1.68.9-2.1s2-4,2.23-4.39a11.17,11.17,0,0,0,.69-2.13c.12-.49.09-.81.16-1.17l.08-1.35c.18-.84.3-1.32.42-2-.08,0,.33-1.78.47-2.72a12.71,12.71,0,0,0,.09-2.64c0,.31.84,8.12.75,10.49a15.89,15.89,0,0,1-.94,4.53c-.18.61-.75,2.77-.84,3.29a38.51,38.51,0,0,0-.66,4.63c-.09,1.54,0,2.67-.09,4.21a18.29,18.29,0,0,0,.19,3.91c.18,1.55.47,3,.47,3.6s.37,1.86.09,2.47A12.86,12.86,0,0,0,6.33,64a36.07,36.07,0,0,0,.84,4.63c.1.31.75,3.09.19,4.12a4.62,4.62,0,0,1-1.12,1.23c-.1.1-.28.31-.28.41s0,.41.18.52h.19a3.42,3.42,0,0,0,1.78-.11c.1,0,.28-.1.38,0s.18.11.28.11a1.45,1.45,0,0,0,1.78-.42c.37-.72-.47-1.54-.09-2.36.09-.1,0-.31.09-.52a1.28,1.28,0,0,0,0-.82,16.39,16.39,0,0,1,0-3,10.27,10.27,0,0,1,.28-2.47,9.88,9.88,0,0,0,.38-1.54,17.67,17.67,0,0,0,0-3.09,22.54,22.54,0,0,1-.1-2.26,18,18,0,0,1,.94-3.81c.37-1.75,1.12-8.13,1.12-8.43A2.85,2.85,0,0,1,13.55,45a1,1,0,0,1,.84-.51" style="fill:#7f5449"/><path d="M14.39,17.77a4.75,4.75,0,0,1-1-.09,3.17,3.17,0,0,1-.93-.33,2.73,2.73,0,0,1-.93-.92A24.93,24.93,0,0,0,8.64,17a4.54,4.54,0,0,0-1.75.69,4,4,0,0,0-1.23,1.61,4.54,4.54,0,0,0-.38,1.53C5.14,22,5,22.93,5,23.57c-.21,2.08-.23,2.61-.42,3.7a12.68,12.68,0,0,1-.63,2.55c-.35.91-.83,1.75-1.23,2.56-.29.56-.62,1.79-.82,2.3a23.7,23.7,0,0,0-.77,3.49c-.11.49-.54,2.53-.57,3s.1.51.79.47c.47-.07.7-.27,1.11,0a4.32,4.32,0,0,0,.35-.91c.24-.42.66-1.68.9-2.1s2-4,2.23-4.39a11.17,11.17,0,0,0,.69-2.13c.12-.49.09-.81.16-1.17l.08-1.35c.18-.84.3-1.32.42-2-.08,0,.33-1.78.47-2.72a12.71,12.71,0,0,0,.09-2.64c0,.31.84,8.12.75,10.49a15.89,15.89,0,0,1-.94,4.53c-.18.61-.75,2.77-.84,3.29a38.51,38.51,0,0,0-.66,4.63c-.09,1.54,0,2.67-.09,4.21a18.29,18.29,0,0,0,.19,3.91c.18,1.55.47,3,.47,3.6s.37,1.86.09,2.47A12.86,12.86,0,0,0,6.33,64a36.07,36.07,0,0,0,.84,4.63c.1.31.75,3.09.19,4.12a4.62,4.62,0,0,1-1.12,1.23c-.1.1-.28.31-.28.41s0,.41.18.52h.19a3.42,3.42,0,0,0,1.78-.11c.1,0,.28-.1.38,0s.18.11.28.11a1.45,1.45,0,0,0,1.78-.42c.37-.72-.47-1.54-.09-2.36.09-.1,0-.31.09-.52a1.28,1.28,0,0,0,0-.82,16.39,16.39,0,0,1,0-3,10.27,10.27,0,0,1,.28-2.47,9.88,9.88,0,0,0,.38-1.54,17.67,17.67,0,0,0,0-3.09,22.54,22.54,0,0,1-.1-2.26,18,18,0,0,1,.94-3.81c.37-1.75,1.12-8.13,1.12-8.43A2.85,2.85,0,0,1,13.55,45a1.13,1.13,0,0,1,.52-.45.87.87,0,0,1,.32-.06C15.16,24.48,15,17.81,14.39,17.77Z" style="fill:#7f5449"/><path d="M26.7,45.41a6.27,6.27,0,0,1-.37.72c-.1.11-.19.31-.38.41s-.09.11-.19.11a.36.36,0,0,0-.09.2v.31c0,.1.19.21.28.21s.19,0,.19-.11a2.54,2.54,0,0,0,.84-.92,2,2,0,0,0,.28-.82c0-.21.1-.42.1-.62.18.62-.28,1.23-.38,1.85a.42.42,0,0,1-.09.31,1.16,1.16,0,0,0-.28.41c-.1.1-.19.31-.28.41s-.1.1-.1.21.1.2.19.31.28.3.47.2a.21.21,0,0,0,.19-.2c.09-.11.18-.31.28-.42s.18-.2.18-.3a3.53,3.53,0,0,0,.57-1.86,1.05,1.05,0,0,0-.19-.72c-.09-.1-.09-.2-.19-.3v-.21c0-.21-.19-.31-.37-.41l-.57-.31c-.18,0-.28,0-.28.1a.61.61,0,0,0,.1.41A1.05,1.05,0,0,1,26.7,45.41Z" style="fill:#63413b"/><path d="M27.92,45.93c0,.2-.09.41-.09.61l-.29.62-.28.93v.41c0,.2.1.31.1.51l.09.11c.09.1.28,0,.38-.11A.82.82,0,0,0,28,48.6a12,12,0,0,0,.57-2,12.22,12.22,0,0,0,.18-3.19,2.63,2.63,0,0,0-.18-.82,6.32,6.32,0,0,0-.38-1.24s0-.1-.09-.1a.1.1,0,0,0-.1.1c0-.1-.18-.2-.37-.31h-.47a1.69,1.69,0,0,0-.66.21.59.59,0,0,0-.28.51c0,.11.1.21,0,.31s0,.1-.09.1a.82.82,0,0,0-.19.52c0,.2.09.31.09.51s-.09.31-.09.41a9.29,9.29,0,0,0-.47,1.44c0,.11-.09.21,0,.31a.32.32,0,0,0,.28.11h.66c.09,0,.09-.11.09-.21l.28-.93c.1.42.19.72.29,1.14v.41c0,.51.09,1.13.09,1.64a3.93,3.93,0,0,0,0,1c.09.21.19.31.37.31s.29-.21.29-.41.09-.41.09-.72.09-.31.09-.52v-.51a4,4,0,0,1,.1-1,5.28,5.28,0,0,1-.57-.82h0c0-.1,0-.21-.09-.21a.83.83,0,0,0,0,.93.36.36,0,0,0,.09.2C27.92,45.82,27.83,45.93,27.92,45.93Z" style="fill:#7f5449"/><path d="M26,44.8h0c0,.1-.09.3-.09.41s-.1.31.09.2h.38c.09,0,.18-.1.28-.2v-.52c0-.1-.1-.1-.1,0A1,1,0,0,1,26,44.8Z" style="fill:#b7825a"/><path d="M27.92,47.88v.72s0,.1.09.1h.1a.36.36,0,0,0,.09-.2,2,2,0,0,0-.09-.72Z" style="fill:#b7825a"/><path d="M26.79,44.18c0-.1,0-.1.1-.21a.17.17,0,0,1,.28,0c.09.11.19.21.19.31.09.31.09.62.18,1a1.89,1.89,0,0,1,.19,1,.43.43,0,0,1-.09.31v2.26c-.28-.31-.19-.62-.19-1V46.34a1.49,1.49,0,0,0-.09-.62c-.1-.41-.19-.72-.28-1.13-.1.21-.1.51-.19.72s-.47.41-.38.31.1-.41.1-.52A4.64,4.64,0,0,1,26.79,44.18Z" style="fill:#63413b"/><path d="M27.45,47.57a2,2,0,0,0,.09,1,.1.1,0,0,0,.1.1l.09.11v.31h-.09c-.1,0-.1,0-.1-.11l-.09-.1-.09-.21c-.1-.2,0-.41,0-.72v-.2a.34.34,0,0,0,.09-.21h0" style="fill:#63413b"/><path d="M14.36,17.77a3.74,3.74,0,0,0,1.05-.09,3.07,3.07,0,0,0,.92-.32,2.76,2.76,0,0,0,.94-.92,23.28,23.28,0,0,1,2.85.54,4.69,4.69,0,0,1,1.74.68,4.09,4.09,0,0,1,1.24,1.62,4.73,4.73,0,0,1,.38,1.53c.13,1.18.23,2.13.3,2.77.21,2.08.23,2.61.42,3.69a12.14,12.14,0,0,0,.63,2.56c.35.91.83,1.75,1.22,2.56.29.55.62,1.78.83,2.3a25.07,25.07,0,0,1,.77,3.49c.11.49.53,2.52.56,3s-.09.52-.78.48c-.48-.08-.7-.27-1.11,0a4.93,4.93,0,0,1-.36-.91c-.24-.42-.65-1.68-.89-2.1s-2-4-2.24-4.39a9.88,9.88,0,0,1-.84-3.3l-.08-1.35c-.18-.84-.3-1.33-.43-2,.09,0-.32-1.77-.46-2.71a11.7,11.7,0,0,1-.09-2.64c0,.31-.85,8.12-.75,10.49a16.62,16.62,0,0,0,.93,4.53c.19.61.75,2.77.85,3.29a38.48,38.48,0,0,1,.65,4.63c.1,1.54,0,2.67.1,4.21a18.32,18.32,0,0,1-.19,3.91c-.19,1.55-.47,3-.47,3.6s-.37,1.85-.09,2.47A12.81,12.81,0,0,1,22.43,64a37.89,37.89,0,0,1-.85,4.63c-.09.31-.75,3.08-.18,4.11a4.51,4.51,0,0,0,1.12,1.24c.09.1.28.31.28.41s0,.41-.19.51h-.18a3.32,3.32,0,0,1-1.78-.1c-.1,0-.29-.1-.38,0s-.19.1-.28.1a1.44,1.44,0,0,1-1.78-.41c-.38-.72.47-1.54.09-2.36-.09-.11,0-.31-.09-.52a1.16,1.16,0,0,1,0-.82,16.39,16.39,0,0,0,0-3,10.8,10.8,0,0,0-.28-2.47,9.73,9.73,0,0,1-.38-1.55,16.64,16.64,0,0,1,0-3.08,22.54,22.54,0,0,0,.1-2.26,18,18,0,0,0-.94-3.81c-.38-1.75-1.13-8.13-1.13-8.44A2.64,2.64,0,0,0,15.21,45a1.18,1.18,0,0,0-.53-.46,1.12,1.12,0,0,0-.32,0C13.6,24.48,13.78,17.82,14.36,17.77Z" style="fill:#7f5449"/><ellipse cx="11.21" cy="23.32" rx="0.19" ry="0.21" style="fill:#2d2d2d"/><path d="M12.52,12.42c.19-.11,1.12.3,1.87.3a5.37,5.37,0,0,0,1.78-.3c.19-.11,0,.61-1.78.61S12.52,12.42,12.52,12.42Z" style="fill:#63413b"/><path d="M14,13.55c.09.1.19.2.37.1s.19-.1.28-.1.19,0,.1.1a.42.42,0,0,1-.38.21.55.55,0,0,1-.47-.21C13.83,13.55,14,13.55,14,13.55Z" style="fill:#63413b"/><ellipse cx="17.77" cy="23.38" rx="0.19" ry="0.21" style="fill:#2d2d2d"/><path d="M17.78,16.29h.09l.14,0h.09l.08,0h0l.12.05h.05l.08,0,4.19,1.29c1,.34,1.95,2.06,1.86,8.29-.32.14-.82.34-1.44.55-1.7.55-1.95.32-2,.25s0-.26-.13-.86a2.17,2.17,0,0,0-.25-.86,9.64,9.64,0,0,0,0,2.26c0,.44,0,.75.05,1,0,.46,0,.8,0,.94,0,1.32.05,1.58.07,2.46,0,1.48,0,1.42,0,2.59a20.79,20.79,0,0,0,.13,2.3c.26,2,.83,2.86.38,3.36a1.46,1.46,0,0,1-1.19.26c-2-.12-3.93.05-5.89,0-2.18-.07-3.27,0-3.88,0-1-.11-2.32-.38-3.39-.43-.25,0-.46-.17-.45-.38A30.82,30.82,0,0,1,7.18,36l.09-.81c0-.29.06-.57.07-.86s0-.44,0-.65a11.1,11.1,0,0,0,0-1.41,12,12,0,0,1,0-1.56c0-.63.12-1.26.18-1.75.18-1.38,0-2.46.09-2.46s.1.33.11.33a4.22,4.22,0,0,1-.08-1.23A2.62,2.62,0,0,1,7.83,25a5.55,5.55,0,0,0-.29.8c-.12.38-.11.45-.16.51s-.9,0-3.5-1.76c0,0,.69-4.43.87-4.71.33-.51.52-.84,1-1.46a4,4,0,0,1,.93-.8,9.86,9.86,0,0,1,1.27-.42,16.23,16.23,0,0,0,2-.64h0l0,0,.08,0c.06,0,.47-.21.49-.17.19.3.71,3.53,3.36,3.54C17.67,19.84,17.63,16.3,17.78,16.29Z" style="fill:#0e1a46"/><path d="M17.78,16.29l.56.12h.05l.08,0c.06,0,3.1.76,3.9,1.11s1.46,1.11,1.86,3.3a.65.65,0,0,1-.16.55.53.53,0,0,1-.26.12A5.18,5.18,0,0,0,22,18.45a8.71,8.71,0,0,0-3.46-1.23l-.11,0h0a2.15,2.15,0,0,0-.82-.27Z" style="fill:#000333"/><path d="M10.63,16.3l-.56.12H10l-.08,0A14.52,14.52,0,0,0,7.59,17a4.82,4.82,0,0,0-1,.47c-1.54.88-2,3.22-2.08,3.94q-.1,0-.12,0s.13.19.48.44A7,7,0,0,1,7,18.34a7.61,7.61,0,0,1,.9-.52,17,17,0,0,1,2-.59l.12,0h0a4.48,4.48,0,0,1,.76-.23C10.73,16.76,10.71,16.51,10.63,16.3Z" style="fill:#000333"/><path d="M7.72,25.4l0,0A5.51,5.51,0,0,0,8,23.14c0-.26,0-.54,0-.8s.06-.58.09-.86a8.68,8.68,0,0,0,.11-1.35A4.85,4.85,0,0,0,7.73,18l0,0a5,5,0,0,1,.54,2.19,12.07,12.07,0,0,1-.11,1.36c0,.28-.07.57-.09.85s0,.54,0,.8A5.32,5.32,0,0,1,7.72,25.4Z" style="fill:#000333"/><path d="M21.2,24.27a8.77,8.77,0,0,1-.39-.93,11.14,11.14,0,0,1-.45-2.51,17.86,17.86,0,0,1,.05-3.33h.06a18.62,18.62,0,0,0-.06,3.31,12.39,12.39,0,0,0,.46,2.5A8.38,8.38,0,0,0,21.2,24.27Z" style="fill:#000333"/><path d="M18.35,16.42h0l0,.11a5.62,5.62,0,0,1-1.23,2.59,3.59,3.59,0,0,1-2.88,1.35,2.8,2.8,0,0,1-1.28-.19,5.52,5.52,0,0,1-1.56-.93A4.83,4.83,0,0,1,10,16.56v0l.11-.06a1.15,1.15,0,0,1,.49-.17h0v0A5.35,5.35,0,0,0,12.11,19a5,5,0,0,0,1.15.69,2.2,2.2,0,0,0,1,.14,3.83,3.83,0,0,0,2.3-1,5.36,5.36,0,0,0,1.21-2.43l0-.11" style="fill:#0b173c"/><path d="M18.35,16.42h0l0,.11c0,.22-.09.41-.14.59h0a5.88,5.88,0,0,1-1.08,2,3.58,3.58,0,0,1-2.86,1.34,2.81,2.81,0,0,1-1.28-.19,5.29,5.29,0,0,1-1.54-.92,4.55,4.55,0,0,1-1.24-2.15c0-.19-.09-.39-.14-.63v-.06l0,0h0v0h0c.06.24.1.45.16.64a4.54,4.54,0,0,0,1.24,2.18,5.71,5.71,0,0,0,1.57.93,2.74,2.74,0,0,0,1.06.2h.23a3.67,3.67,0,0,0,2.9-1.36,5.9,5.9,0,0,0,1.09-2c.05-.18.1-.38.14-.59l0-.11Zm-.6-.13h0l0,.09-.24.77a3.86,3.86,0,0,1-1,1.64,3.75,3.75,0,0,1-2.28,1h-.28a2,2,0,0,1-.66-.14A5.14,5.14,0,0,1,12.13,19a5.11,5.11,0,0,1-1.22-1.85h0a6.09,6.09,0,0,1-.25-.83v0H10.6v0a5.48,5.48,0,0,0,.23.79,5.11,5.11,0,0,0,1.25,1.94,5.16,5.16,0,0,0,1.16.69,2.26,2.26,0,0,0,1,.14,3.79,3.79,0,0,0,2.32-1,4.1,4.1,0,0,0,1-1.72c.07-.24.15-.48.22-.73l0-.11Z" style="fill:#000333"/><path d="M22.17,25a1.37,1.37,0,0,0-.56.05l-.2-.24a2.47,2.47,0,0,1-.51-.91,9,9,0,0,1-.2-1.28c-.06-.4-.19-.79-.26-1.19A7.89,7.89,0,0,1,21.07,23c.12.41.15.77.51,1.05a1.21,1.21,0,0,1,.29.48C21.9,24.66,22.18,24.86,22.17,25Z" style="fill:#000333;opacity:0.4"/><path d="M8.09,23.92a6.58,6.58,0,0,1-.41,1.67.74.74,0,0,0-.1-.38,1,1,0,0,0-.33.06c0-.27.19-.58.25-.83a6.54,6.54,0,0,0,.13-.75c.1-.65.19-1.3.26-2a.4.4,0,0,1,.17.33,1.82,1.82,0,0,1,0,.4C8,22.94,8.12,23.43,8.09,23.92Z" style="fill:#000333;opacity:0.4"/><path d="M13.76,37.91a2.4,2.4,0,0,1-1.29.24c-1.39-.11-2.6-1.09-3.88-1.71a4.09,4.09,0,0,1-.47-.23,2.49,2.49,0,0,0-.3-.19c-.06,0-.33,0-.64,0l.09-.81a1.8,1.8,0,0,1,1.21.39c.27.2.48.48.73.7,1,.89,2.44.79,3.7,1.1A1.25,1.25,0,0,1,13.76,37.91Z" style="fill:#000333;opacity:0.25"/><path d="M8.11,30.56a2.46,2.46,0,0,0,0,1.29,1.92,1.92,0,0,1,.16,1,1.13,1.13,0,0,1-.19.38l-.73,1.1c0-.22,0-.44,0-.65a11.1,11.1,0,0,0,0-1.41,12,12,0,0,1,0-1.56c0-.63.12-1.26.18-1.75a16.82,16.82,0,0,0,.09-2.46v0a3.6,3.6,0,0,1,.29,1.84,1.94,1.94,0,0,0,0,.68,2.22,2.22,0,0,0,.29.55,1.55,1.55,0,0,1,.14,1.06Z" style="fill:#000333;opacity:0.25"/><path d="M10.86,13.63c0-.31,6.56-.1,6.56-.1A12.47,12.47,0,0,0,17,15.59a6.4,6.4,0,0,0,.47,1.95,3.68,3.68,0,0,1-3.19,1.34c-2.25.1-3.09-1.24-3.09-1.34a16.29,16.29,0,0,1,.09-1.75A12.86,12.86,0,0,0,10.86,13.63Z" style="fill:#7f5449"/><path d="M11.42,15.69a4.86,4.86,0,0,0,4.41.31,3.09,3.09,0,0,0,1-.83,1,1,0,0,0,.09-.51v-.51h-.28a39.34,39.34,0,0,1-4.88.1c-.28,0-.37-.1-.65-.1s-.19,0-.1.3A1.57,1.57,0,0,1,11.42,15.69Z" style="fill:#63413b"/><path d="M13.76,13.73c.1.11.19.21.38.11s.19-.11.28-.11.19,0,.09.11a.39.39,0,0,1-.37.2.54.54,0,0,1-.47-.2C13.58,13.73,13.76,13.73,13.76,13.73Z" style="fill:#63413b"/><ellipse cx="17.51" cy="23.56" rx="0.19" ry="0.21" style="fill:#2d2d2d"/><path d="M10.86,13.63c0-.31,6.56-.1,6.56-.1A12.47,12.47,0,0,0,17,15.59a6.4,6.4,0,0,0,.47,1.95,3.68,3.68,0,0,1-3.19,1.34c-2.25.1-3.09-1.24-3.09-1.34a16.29,16.29,0,0,1,.09-1.75A12.86,12.86,0,0,0,10.86,13.63Z" style="fill:#7f5449"/><path d="M11.42,15.69a4.86,4.86,0,0,0,4.41.31,3.09,3.09,0,0,0,1-.83,1,1,0,0,0,.09-.51v-.51h-.28a39.34,39.34,0,0,1-4.88.1c-.28,0-.37-.1-.65-.1s-.19,0-.1.3A1.57,1.57,0,0,1,11.42,15.69Z" style="fill:#63413b"/><ellipse cx="10.95" cy="23.51" rx="0.19" ry="0.21" style="fill:#2d2d2d"/><path d="M13.15,15.21c.1-.06.59.17,1,.17a2.82,2.82,0,0,0,.93-.17c.09-.06,0,.33-.93.33S13.15,15.21,13.15,15.21Z" style="fill:#63413b"/><path d="M13.76,13.73c.1.11.19.21.38.11s.19-.11.28-.11.19,0,.09.11a.39.39,0,0,1-.37.2.54.54,0,0,1-.47-.2C13.58,13.73,13.76,13.73,13.76,13.73Z" style="fill:#63413b"/><ellipse cx="17.51" cy="23.56" rx="0.19" ry="0.21" style="fill:#2d2d2d"/><path d="M9.62,67.9v-.09h.14v.11H9.59Zm-.31,0v-.09h.15v.11Zm.64-.1h.15v.1H9.94Zm-1,.09v-.11h.15v.11Zm1.29-.1h.15v.11h-.16Zm.3,0h.17v.11h-.16Zm-1.91.1v-.11h.16v.11Zm2.19-.12H11v.1h-.16Zm-2.5,0v-.1H8.5v.11Zm2.86-.11h.15v.1H11.2ZM8,67.81v-.1h.16v.1Zm3.49-.11h.16v.1h-.17Zm-3.81.07v-.1h.16v.1Zm4.12-.11H12v.1h-.16Zm-4.43.06v-.11h.15v.1Zm4.73-.11h.16l.05.1h-.16Zm-5,0v-.1h.14v.11Zm-.22,0,.07-.1h0v.1Z"/><path d="M19.16,67.86h.17V68h-.17Zm-.31.1v-.1H19V68Zm.63-.1h.16V68h-.15Zm-1,.1v-.15h.16v.11Zm1.27-.15H20v.1h-.17Zm-1.59.09v-.09h.17v.11Zm1.91-.1h.17v.11h-.16Zm-2.18.08v-.07h.16v.11Zm2.54-.1h.17v.11h-.19Zm-2.86.07v-.1h.16v.11Zm3.13,0h.17v.11h-.17Zm.32,0h.16v.11h-.16Zm-3.82.09v-.11l.15,0v.1Zm4.14-.12h.15v.1h-.16Zm-4.46,0v-.1h.16v.11Zm4.76-.11h.17v.1h-.09Zm-5.06.11V67.7h.15v.1ZM22,67.7h.15v.11H22Zm-5.63.06v-.1h.09v.1Zm5.93-.11h.16v.1H22.3Z"/><path d="M6.26,40.49l.07-.41A3.56,3.56,0,0,1,6.44,39a4.06,4.06,0,0,1,.46-1.12c.09-.25.18-.52.27-.8s.15-.49.21-.73l.23,0a.2.2,0,0,1,.15-.06h.66a.15.15,0,0,1,.14.06c.66,0,1.65.16,2.35.17h.87a.2.2,0,0,1,.17.09h3.4a.24.24,0,0,1,.12,0h.66a.16.16,0,0,1,.16.09h2.54a.15.15,0,0,1,.13,0h.65a.18.18,0,0,1,.16.06H21a.17.17,0,0,1,.17.11s.11.46.22,1.27v.12a9,9,0,0,1,.37,1.08A8.8,8.8,0,0,1,22,40.51l.1.26a33.62,33.62,0,0,1,.83,5.53,31.64,31.64,0,0,1,0,4.36q.18,9.72.34,19.44a.12.12,0,0,1-.12.11h0a19.63,19.63,0,0,1-3.9.4A13.31,13.31,0,0,1,16,70.28a.1.1,0,0,1-.1-.12C15.76,65,15.5,59.59,15.07,54c-.2-2.64-.43-5.22-.69-7.76-.09.51-.17,1-.24,1.55a62.39,62.39,0,0,0-.54,6.25l-.69,16a.12.12,0,0,1-.1.11,12,12,0,0,1-3.16.37A19,19,0,0,1,6,70.22H5.9a.13.13,0,0,1-.11-.11l-.12-19.9c0-1.44.11-2.92.19-4.43C6,44,6.1,42.21,6.26,40.49Z"/><path d="M14.25,36.72c3.76,0,6.55-.1,6.55-.1.09.41.17.82.22,1.24,0,0-2.85.12-6.79.13Z" style="fill:#0e6177"/><path d="M14.18,36.66h.07c3.71,0,6.55-.09,6.55-.09h.08c.1.41.19.82.25,1.24v.06H21s-2.84.12-6.8.14h-.08Zm6.54,0c-.47,0-3.06.09-6.4.09v1.16c3.46,0,6.11-.1,6.61-.12a7.69,7.69,0,0,0-.19-1.11Z"/><path d="M7,37.73l.23-1.16,3.37.1,3.61.09V38l-3.58-.12Q8.84,37.84,7,37.73Z" style="fill:#0e6177"/><path d="M7.34,37.81H7.26V36.48h.09c1.91.06,4.37.22,6.55.22h.4v1.39h-.77C11.48,38.05,9.2,37.89,7.34,37.81Zm6.84-1H14c-2.19,0-4.62-.16-6.55-.21v1.16c1.83.06,4.09.22,6.14.22h.6Z"/><path d="M14.25,38H18a4.71,4.71,0,0,0,3.71,2.31,28.42,28.42,0,0,1,1,8.7q0,.55-.06,1.11L22.77,70a15.3,15.3,0,0,1-6.7.08c-.06-5.42-.35-11.18-1-17.25q-.34-3.57-.81-7c-.13-1.61-.2-3.36-.17-5.24C14.16,39.68,14.2,38.82,14.25,38Z" style="fill:#137699"/><path d="M18,38c1.85,0,3-.09,3-.09a14.5,14.5,0,0,1,.36,2.27A5.05,5.05,0,0,1,18,38Z" style="fill:#b1d6e0"/><path d="M21.37,40.18A5.12,5.12,0,0,1,18,38v-.07h.11c1.84,0,3-.09,3-.09h.08a19.3,19.3,0,0,1,.35,2.28v.08ZM18.09,38a5,5,0,0,0,3.17,2,14.43,14.43,0,0,0-.35-2.12c-.24,0-1.26.09-2.76.12Z"/><path d="M6.51,39.92a3.86,3.86,0,0,1,.59-2.15c1,0,2.36.18,3.28.2A5.89,5.89,0,0,1,6.51,39.92Z" style="fill:#b1d6e0"/><path d="M6.71,39.91a4.22,4.22,0,0,1,.56-2.16h.06c.86,0,2.08.18,3,.2h.12V38a5.32,5.32,0,0,1-3.65,2H6.72Zm.7-2.1a4.72,4.72,0,0,0-.52,2A5.23,5.23,0,0,0,10.26,38C9.37,38,8.22,37.81,7.41,37.81Z"/><path d="M6,50.09c0-1.38,0-2.79.07-4.24.06-2,.17-3.93.32-5.77a5.25,5.25,0,0,0,2.27-.72,5.62,5.62,0,0,0,1.61-1.44h4c-.05.86-.09,1.76-.12,2.68s0,1.67,0,2.65.05,1.74.09,2.48c0,.18-.07.35-.11.53a43,43,0,0,0-.79,7.57l-.59,16.1a16.29,16.29,0,0,1-6.67,0Z" style="fill:#137699"/><path d="M12.63,37.31c0,.15.19.28.42.28s.43-.13.43-.28-.19-.28-.43-.28S12.63,37.15,12.63,37.31Z" style="fill:#fbb040"/><path d="M12.55,37.31c0-.19.23-.34.5-.34s.51.15.51.34-.23.34-.51.34S12.55,37.49,12.55,37.31Zm.16,0c0,.12.16.22.34.22s.34-.1.34-.22-.15-.23-.34-.23S12.71,37.18,12.71,37.31Z"/><path d="M14.12,37v-.11h.18V37Zm.34-.11h.17V37h-.17Zm.34,0H15V37H14.8Zm-1,.11v-.11H14V37Zm1.36-.11h.16V37h-.2Zm-1.7.11v-.11h.18V37Zm2-.11h.17V37h-.18ZM13,37v-.11h.17V37Zm2.71-.12h.16V37h-.18ZM12.69,37v-.12h.18V37Zm3.38-.12h.23V37h-.17ZM12.35,37v-.11h.18V37Zm4.06-.11h.17V37H16.4ZM12.05,37v-.11h.17V37Zm4.74-.16H17v.11h-.18Zm-5.07.11v-.11h.22v.12Zm5.46-.11h.16v.11h-.16Zm-5.75.11v-.11h.16v.11Zm6-.11h.16v.11h-.16ZM11,36.92v-.11h.17v.12Zm-.34,0v-.11h.15v.11Zm7.11-.11H18v.12h-.16Zm-7.44.1V36.8h.15v.11Zm7.77-.1h.17v.11h-.16Zm-8.11.1v-.1h.16v.12Zm8.46-.1h.17v.11h-.17Zm-8.73.1v-.1h.16v.11Zm9-.1H19v.11h-.17Zm-9.46.11v-.11h.18v.11Zm9.82-.11h.18v.11h-.17Zm-10.42,0V36.7h.18v.11Zm10.76,0h.18v.11h-.17Zm-11.12,0V36.7h.18v.11Zm11.44,0H20v.11h-.16Zm-11.78,0V36.7h.17v.11Zm12.12,0h.16v.11h-.16Zm-12.46,0V36.7h.17v.11Zm12.79,0h.17v.11H20.5Zm-13.09,0v-.12h.16v.11Z"/><path d="M14.45,37.74h.16v.07h-.16Zm.34,0H15v.07h-.16Zm-.67.07V37.7h.16v.11Zm1-.11h.16v.11h-.16Zm-1.37.11V37.7h.16v.11Zm1.69-.11h.17v.11h-.17Zm-2,.11v-.12h.17v.12Zm2.37-.12H16v.12H15.8Zm-2.71.12V37.7h.18v.11Zm3.05-.11h.16v.11h-.16Zm-3.38.11V37.7h.17v.11Zm3.71-.11h.16v.11h-.16Zm-4,.11V37.7h.17v.11Zm4.36-.11H17v.11h-.16Zm-4.7.11v-.12h.17v.12Zm5.06-.12h.18v.12h-.17Zm-5.45.11v-.11h.25v.12Zm5.74-.11h.17v.12h-.16Zm-6,.12v-.1h.18v.1Zm-.34,0v-.1h.17v.1Zm6.76-.11H18v.11h-.16Zm-7.09.1v-.11h.16v.12Zm7.43-.11h.17v.12h-.16Zm-7.77.12v-.12h.16v.12Zm8.1-.11h.17v.11h-.17ZM10,37.8v-.11h.16v.12Zm8.73-.11h.17v.12h-.16Zm-9,.12V37.7h.16v.11Zm9.46-.11h.16v.11h-.16Zm-9.82.1v-.11h.16v.12Zm10.13-.11h.17v.12h-.12Zm-10.77,0v-.12h.18v.11Zm11.11,0H20v.12h-.17Zm-11.45,0v-.12h.17v.11Zm11.79,0h.16v.12h-.15Zm-12.11,0v-.18h.16v.11Zm12.45,0h.12v.12h-.18Zm-12.79,0v-.12h.17v.11Zm13.09,0H21v.11h-.18Zm-13.46,0v-.11h.18v.11Z"/><path d="M14,41.26h.11v.11H14Zm-.35.09v-.11h.15v.11Zm-.33-.11.1-.09h.13l-.07.1Zm-.3-.16.12-.07.11.08-.11.08Zm-.21-.19.21-.08a.32.32,0,0,0,.08.09L13,41Zm-.15-.21h.16l.07.1h-.15Zm-.11-.22h.16v.11h-.15l0-.11Zm-.09-.22h.17v.11h-.17a.37.37,0,0,1,0-.11ZM12.41,40h.17v.11h-.16Zm0-.23h.16a.2.2,0,0,1,0,.11h-.16s0-.09,0-.09Zm0-.22h.16v.11H12.4a.39.39,0,0,1,0-.11Zm0-.23h.16a.2.2,0,0,1,0,.11h-.16a.3.3,0,0,1-.06-.11Zm0-.22h.16a.2.2,0,0,0,0,.11H12.4Zm0-.23h.17V39h-.17Zm0-.11v-.12h.17v.15Zm0-.23v-.11h.17v.11Zm0-.22a.24.24,0,0,1,0-.12h.16a.2.2,0,0,1,0,.11Zm0-.23a.2.2,0,0,1,0-.11h.16v.11Z"/><path d="M13.78,41.16v-.1h.15v.11Zm.34,0h.09s-.07.06-.09.06Zm-.7,0,.11-.09.13,0-.07.1Zm-.25-.18.14-.06.1.08-.12.08Zm-.17-.2h.15l.08.1h-.15Zm-.12-.21H13v.1h-.15a.26.26,0,0,1,0-.15Zm-.1-.23H13v.11h-.16a.92.92,0,0,0,0-.16Zm-.06-.22h.17v.11h-.18a.46.46,0,0,0,0-.16Zm0-.23h.17V40h-.17a.68.68,0,0,1,0-.14Zm0-.22h.18a.2.2,0,0,0,0,.11h-.18a.3.3,0,0,0-.05-.16Zm0-.23h.18a.2.2,0,0,0,0,.11h-.18a.46.46,0,0,0-.07-.16Zm0-.23h.17v.11h-.17Zm0-.18h.18v.11h-.18Zm0-.15v-.12h.17v.1Zm0-.23v-.11h.17v.11Zm0-.23v-.16h.18v.11Zm0-.22a.2.2,0,0,0,0-.11h.18a.2.2,0,0,0,0,.11Z"/><path d="M21.12,40.38l.06-.1h.15v.1Zm-.32-.09.08-.1H21L21,40.3Zm-.31-.1.09-.1h.14l-.07.1ZM20,40.08l.08-.1.14.06-.08.1Zm-.3-.12.1-.1.14.06-.1.1Zm-.27-.15.1-.09.13.07-.1.09Zm-.28-.14.12-.09.12.07-.1.09Zm-.25-.16.12-.08.12.08-.11.08Zm-.23-.16.12-.08.11.09-.12.07Zm-.22-.17.13-.06.11.08-.14.07Zm-.2-.18.13-.06.1.09-.13.06Zm-.2-.19.16-.06.08.1-.14.06Zm-.16-.2h.15a.39.39,0,0,1,.08.1H18Zm-.14-.21h.15l.07.1-.16,0Zm-.13-.21h.16v.11h-.15ZM17.57,38h.16v.11h-.16Z"/><path d="M6.77,40.07h.07v.11H6.77Zm.24,0h.15v.11H7ZM7.32,40h0v.11H7.16Zm.19-.08.15,0,.08.1-.17,0Zm.3-.1H8l.09.1-.15,0Zm.29-.11a2.5,2.5,0,0,0,.67,0l.1.1-.14.06Zm.82,0,.13-.07.09.09L9,39.81Zm.25-.14.12-.08.12.08-.13.08Zm.24-.16.11-.08.13.08-.12.08Zm.21-.16.11-.09.13.07-.1.09Zm.21-.18L9.92,39l.14.07-.1.09ZM10,38.9l.08-.09h.15l-.09.1Zm.16-.19.08-.1.15,0-.08.1Zm.15-.2.08-.1h.15l-.07.1Zm.15-.2v-.1h.16l-.07.1Zm.1-.21V38h.17v.11Z"/><polygon points="19.12 38.03 19.59 38.01 19.51 36.59 19.04 36.6 19.12 38.03" style="fill:#137699"/><path d="M19,36.55h.64l.08,1.54H19Zm.47.1h-.29L19.21,38h.29Z"/><polygon points="8.59 37.9 8.13 37.89 8.21 36.46 8.68 36.47 8.59 37.9" style="fill:#137699"/><path d="M8,37.94l.08-1.54h.63l-.4,1.54Zm.24-1.42-.06,1.29h.29l.07-1.31Z"/><polygon points="11.85 38.06 11.38 38.05 11.4 36.63 11.87 36.63 11.85 38.06" style="fill:#137699"/><path d="M11.29,38.11V36.57h.65V38.1Zm.19-1.42V38h.29V36.69Z"/><polygon points="16.1 38.06 15.63 38.05 15.65 36.63 16.11 36.63 16.1 38.06" style="fill:#137699"/><path d="M15.54,38.11V36.57h.63V38.1Zm.18-1.42V38H16V36.69Z"/><path d="M20.65,8.18a1.2,1.2,0,0,1,.29.26,1.27,1.27,0,0,1,.21.54,2.79,2.79,0,0,1-.42,2,1.23,1.23,0,0,1-.91.64.48.48,0,0,1-.41-.14.75.75,0,0,1-.11-.54l.11-1.73C19.43,8.55,19.88,7.72,20.65,8.18Z" style="fill:#704843"/><path d="M7.7,8.18a.93.93,0,0,0-.3.26A1,1,0,0,0,7.2,9a2.94,2.94,0,0,0,.4,2,1.28,1.28,0,0,0,.94.64.47.47,0,0,0,.4-.14A.74.74,0,0,0,9,10.93L8.94,9.2C8.92,8.55,8.47,7.72,7.7,8.18Z" style="fill:#704843"/><path d="M9.21,4.31a7,7,0,0,0-.58,3.63c.1,1.24.24,3.38.36,3.82.54,2.07,3.31,3.45,3.52,3.56a3.4,3.4,0,0,0,3.26-.11,6.48,6.48,0,0,0,3.55-3.76,8.73,8.73,0,0,0,.4-3.12,17.85,17.85,0,0,0-.29-3.5,3.57,3.57,0,0,0-2.22-2.11,14.23,14.23,0,0,0-4.56-.2A4.2,4.2,0,0,0,9.21,4.31Z" style="fill:#7f5449"/><path d="M8.81,8.75C8.91,7.21,9,4.86,9.9,4.31c.73-.46,3.15-.09,4.26-.11A36.27,36.27,0,0,1,18,4.07a1.22,1.22,0,0,1,1.08.81A14.8,14.8,0,0,1,19.56,9c.26-.15.32-.74.4-1.16a11.42,11.42,0,0,0-.11-4.36A5.05,5.05,0,0,0,16.46.18,14,14,0,0,0,12,.18,4.36,4.36,0,0,0,8.73,2.8a10.7,10.7,0,0,0-.34,4.5C8.62,8.88,8.79,9.2,8.81,8.75Z" style="fill:#230700"/><path d="M13.32,11.26c.1-.07.25.3.79.3s.71-.32.79-.28,0,.63-.69.66S13.18,11.43,13.32,11.26Z" style="fill:#63413b"/><path d="M12.65,12.85c.13-.08.9.26,1.46.26a3.58,3.58,0,0,0,1.38-.28c.15-.09,0,.53-1.38.52S12.65,12.85,12.65,12.85Z" style="fill:#63413b"/><path d="M9.87,9.16c0-.61.87-1.09,1.64-1.07s1.45.44,1.45,1-.57,1.05-1.4,1.08S9.87,9.81,9.87,9.16Z" style="fill:#ffecd8"/><path d="M11.62,6.82a2.57,2.57,0,0,0-1,.15c-.25.07-.39.2-.41.18s0-.74,1.24-.77c1,0,1.33.44,1.29.59S12.18,6.82,11.62,6.82Z" style="fill:#230601"/><ellipse cx="11.51" cy="9.18" rx="0.9" ry="0.84" transform="translate(-1.11 16.76) rotate(-69.57)" style="fill:#290600"/><ellipse cx="10.98" cy="9.07" rx="0.34" ry="0.35" style="fill:#fcfcfc"/><path d="M11.49,7.81A1.58,1.58,0,0,1,13,8.94c.11.81-.18-.9-1.52-.85A1.68,1.68,0,0,0,9.82,9.38,1.47,1.47,0,0,1,11.49,7.81Z" style="fill:#230601"/><path d="M16.78,6.82a2.65,2.65,0,0,1,1,.15,2.87,2.87,0,0,1,.4.18c0-.06,0-.74-1.22-.77-1,0-1.34.44-1.29.59S16.27,6.82,16.78,6.82Z" style="fill:#230601"/><path d="M15.37,9.1c0-.59.86-1.08,1.63-1s1.45.45,1.45,1-.56,1.06-1.4,1.09S15.37,9.73,15.37,9.1Z" style="fill:#ffecd8"/><ellipse cx="17" cy="9.14" rx="0.9" ry="0.84" transform="translate(2.5 21.88) rotate(-69.57)" style="fill:#290600"/><ellipse cx="16.47" cy="9.01" rx="0.34" ry="0.35" style="fill:#fcfcfc"/><path d="M17,7.81a1.58,1.58,0,0,1,1.46,1.13c.13.81-.18-.9-1.51-.87a1.67,1.67,0,0,0-1.62,1.29C15.27,8,16.36,7.81,17,7.81Z" style="fill:#230601"/></svg>