<svg xmlns="http://www.w3.org/2000/svg" viewBox="0 0 150 100"><path d="M107.46,53a4.85,4.85,0,0,1,1.41,1.18,5.75,5.75,0,0,1,1,2.43,12.54,12.54,0,0,1-2,9.4,6.22,6.22,0,0,1-4.46,3,2.47,2.47,0,0,1-2-.69,3.33,3.33,0,0,1-.5-2.47l.51-8C101.64,54.77,103.78,50.92,107.46,53Z" style="fill:#704843"/><path d="M45.18,53a4.69,4.69,0,0,0-1.4,1.18,5.64,5.64,0,0,0-1,2.43,12.5,12.5,0,0,0,2,9.4,6.18,6.18,0,0,0,4.45,3,2.46,2.46,0,0,0,2-.69,3.29,3.29,0,0,0,.5-2.47l-.51-8C51,54.77,48.86,50.92,45.18,53Z" style="fill:#704843"/><path d="M52.49,35.21C49.85,38.7,49.34,47.56,49.69,52c.46,5.67,1.15,15.52,1.72,17.54,2.66,9.45,16,15.86,17,16.31,5.36,2.57,10.27,2,15.66-.53,2.15-1,12.58-5.1,17.1-17.31a37.59,37.59,0,0,0,1.95-14.36c-.06-2,.07-10.5-1.46-16.35-1.47-5.63-8.47-9-10.68-9.66-7.14-2-14.6-1.33-22-1A20.72,20.72,0,0,0,52.49,35.21Z" style="fill:#7f5449"/><path d="M72.29,67.22c.48-.39,1.12,1.38,3.83,1.38,2.31,0,3.34-1.46,3.74-1.31s.24,2.84-3.27,3.07S71.38,68,72.29,67.22Z" style="fill:#63413b"/><path d="M69,74.54c.62-.34,4.33,1.17,7,1.17a19.24,19.24,0,0,0,6.7-1.23c.72-.42-.09,2.49-6.67,2.32S69,74.54,69,74.54Z" style="fill:#63413b"/><path d="M64,46.56a14.5,14.5,0,0,0-4.93.65c-1.15.34-1.89,1-2,.88-.17-.25,0-3.39,5.9-3.57,4.92-.14,6.45,2,6.15,2.7S66.5,46.72,64,46.56Z" style="fill:#1c0803"/><path d="M88.85,46.56a14.44,14.44,0,0,1,4.93.65c1.15.34,1.89,1,2,.88.17-.25,0-3.39-5.9-3.57-4.91-.14-6.45,2-6.14,2.7S86.34,46.72,88.85,46.56Z" style="fill:#1c0803"/><path d="M47,43.55c-.71-7.37,1.72-11.49,1.83-12.5,0-.14.09-.53-.18-.75a1.49,1.49,0,0,0-1.72-.18,9.32,9.32,0,0,0-1.11,1.38,4.05,4.05,0,0,1-4,1.28,3.89,3.89,0,0,1-2.87-3c-.16-.89,0-1.82-.21-2.69-3,.89-6.63-1.28-7.1-4.3a5.64,5.64,0,0,1,5.46-6.13c-1.09-2.08-1.82-4.25-1-6.44.6-1.65,3.16-2.7,4.64-2.62S44.5,8.92,45,10.27c1.41-1.78,3.23-4.08,7-1.63,1.91,1.26,2.77,4,1.22,5.7,1.29-.43,1.85-.2,3.22.14a2.52,2.52,0,0,1,1.91,1.8c.47,2.26-3.13,3.5-2.74,5.27,1.12,1.82,2.65-.68,3.75-1.38C63.8,17.27,69,16.3,74.41,15.9c4.44-.33,10.89-.25,15.94,1.94,3.12,1.35,6,3.25,6.85,3.39s1.13-.5,1.32-1.16c.33-1.19-.63-2.75-.81-3.88-.45-2.78,2.32-5.24,6.34-3.35-1.3-3.93.92-5.8,3.44-6.26,2.78-.51,6.52,1.12,6.26,5.34,0,.61-.69,1.29-.21,1.69.82.67,1.36-.56,2.12-.82,1.42-.48,4.25,1,5,2.23a6.18,6.18,0,0,1,1,5.73c-.91,2.42-2.74,2.05-4,2.58l1.55,1.27c.75,2.26.54,4.55-1.16,6s-6,1.46-6.87-.58c-.41-.34-1.06-.06-1.43.33s-.64.89-1.15,1.09c-.69.27-1-1.18-1.75-1.43s-2,.26-2,1c2.15,1.69,1.6,5.08,1.72,7.76a33.11,33.11,0,0,1-1.21,8.83c-.61,1.75-1.42,7-2.93,6.5-.22-4.28,0-10.09-.89-14.3-.56-2.73-1.32-5.56-3.21-7.68a14.47,14.47,0,0,0-6.06-3.68C84.54,25.68,76,25.94,67.77,27.09A25.15,25.15,0,0,0,59,29.55a19.37,19.37,0,0,0-5.76,4.69,12.45,12.45,0,0,0-2.72,6.4,34.71,34.71,0,0,0-.5,6.51c.22,3.88.31,7.1-.1,7.18S47.37,48.12,47,43.55Z" style="fill:#230700"/><path d="M46.77,22.2c3.59-5.48,8.77-2.71,8.88-2s.3,1.74,1,1.94-3,2-4.84,4.36a16.72,16.72,0,0,0-2.52,4.47A26.37,26.37,0,0,0,47,29.68C46.26,29.39,43.84,26.67,46.77,22.2Z" style="fill:#bc66cc"/><path d="M107.68,22.2c-3.59-5.48-9.06-3.1-9.16-2.42a2.18,2.18,0,0,1-1.62,1.45c-.7.2,3.92,2.91,5.74,5.24a16.38,16.38,0,0,1,2.52,4.47s1.62-1,2.32-1.26S110.61,26.67,107.68,22.2Z" style="fill:#bc66cc"/><path d="M56.7,57.43c0-2.7,4.09-4.9,7.64-4.75,3,.13,6.71,2,6.76,4.69s-2.62,4.68-6.55,4.87C60.89,62.41,56.68,60.18,56.7,57.43Z" style="fill:#ffecd8"/><ellipse cx="64.31" cy="57.56" rx="4.08" ry="3.88" transform="translate(-21.77 63.76) rotate(-45.95)" style="fill:#290600"/><ellipse cx="61.83" cy="57.03" rx="1.59" ry="1.61" style="fill:#fcfcfc"/><path d="M64.27,51.41c1.77,0,6.24,1.41,6.83,5s-.81-4-7-3.82c-8.66.29-7.45,9-7.56,5.8C56.27,52.33,61.33,51.41,64.27,51.41Z" style="fill:#230601"/><path d="M82.33,57.24c0-2.7,4.09-4.9,7.64-4.75,3,.13,6.72,2,6.77,4.69s-2.62,4.68-6.55,4.87C86.52,62.22,82.31,60,82.33,57.24Z" style="fill:#ffecd8"/><ellipse cx="89.94" cy="57.37" rx="4.08" ry="3.88" transform="translate(-13.82 82.13) rotate(-45.95)" style="fill:#290600"/><ellipse cx="87.47" cy="56.84" rx="1.59" ry="1.61" style="fill:#fcfcfc"/><path d="M89.91,51.22c1.77,0,6.24,1.42,6.83,5s-.81-4-7-3.82c-8.67.29-7.45,9-7.57,5.8C81.9,52.14,87,51.22,89.91,51.22Z" style="fill:#230601"/></svg>