<svg xmlns="http://www.w3.org/2000/svg" viewBox="0 0 43.5 80.04"><path d="M18.7,18.49c0-.31,6.56-.11,6.56-.11a12.73,12.73,0,0,0-.47,2.06,6.5,6.5,0,0,0,.47,2,3.69,3.69,0,0,1-3.19,1.33C19.82,23.84,19,22.5,19,22.4a16.29,16.29,0,0,1,.09-1.75A12.86,12.86,0,0,0,18.7,18.49Z" style="fill:#7f5449"/><path d="M19.26,20.54a4.8,4.8,0,0,0,4.41.31,3,3,0,0,0,1-.82,1,1,0,0,0,.09-.51V19h-.28a37.49,37.49,0,0,1-4.88.1c-.28,0-.37-.1-.65-.1s-.19,0-.1.31A1.56,1.56,0,0,1,19.26,20.54Z" style="fill:#63413b"/><path d="M2.15,46.53a6.62,6.62,0,0,0,.38.72,1.26,1.26,0,0,0,.37.41c.1,0,.1.11.19.11a.36.36,0,0,1,.09.2v.31c0,.1-.18.21-.28.21s-.19,0-.19-.11a2.54,2.54,0,0,1-.84-.92,2.2,2.2,0,0,1-.28-.83c0-.2-.09-.41-.09-.61-.19.61.28,1.23.37,1.85a.42.42,0,0,0,.09.31,1.31,1.31,0,0,1,.29.41c.09.1.18.31.28.41s.09.1.09.21-.09.2-.19.31-.28.3-.47.2a.21.21,0,0,1-.18-.2c-.1-.11-.19-.31-.28-.42s-.19-.2-.19-.3a3.52,3.52,0,0,1-.56-1.86,1.1,1.1,0,0,1,.18-.72c.1-.1.1-.2.19-.31v-.2c0-.21.19-.31.38-.41L2.06,45c.19,0,.28,0,.28.1a.68.68,0,0,1-.09.41A1,1,0,0,0,2.15,46.53Z" style="fill:#63413b"/><path d="M.93,47.05c0,.2.1.41.1.61l.28.62.28.93v.41c0,.2-.09.31-.09.51l-.1.11c-.09.1-.28,0-.37-.11a.76.76,0,0,1-.19-.41,11.11,11.11,0,0,1-.56-1.95,12.23,12.23,0,0,1-.19-3.19,2.5,2.5,0,0,1,.19-.83,5.76,5.76,0,0,1,.37-1.23.1.1,0,0,1,.1-.1.09.09,0,0,1,.09.1c0-.1.19-.21.37-.31h.47a1.54,1.54,0,0,1,.66.21.57.57,0,0,1,.28.51c0,.1-.09.21,0,.31s0,.1.09.1a.82.82,0,0,1,.19.52c0,.2-.09.31-.09.51s.09.31.09.41a8.33,8.33,0,0,1,.47,1.44c0,.11.09.21,0,.31a.31.31,0,0,1-.28.11H2.43c-.09,0-.09-.11-.09-.21l-.28-.93c-.1.41-.19.72-.28,1.14v.41c0,.51-.1,1.13-.1,1.64a3.54,3.54,0,0,1,0,1c-.09.21-.18.31-.37.31S1,49.82,1,49.62s-.1-.41-.1-.72-.09-.31-.09-.52v-.51a4.39,4.39,0,0,0-.09-1A6.09,6.09,0,0,0,1.31,46h0c0-.11,0-.21.09-.21a.83.83,0,0,1,0,.93.36.36,0,0,1-.09.2C.93,46.94,1,47.05.93,47.05Z" style="fill:#7f5449"/><path d="M2.9,45.91h0c0,.11.1.31.1.42s.09.31-.1.2H2.53c-.1,0-.19-.1-.28-.2v-.52c0-.1.09-.1.09,0A1.11,1.11,0,0,0,2.9,45.91Z" style="fill:#b7825a"/><path d="M.93,49v.72s0,.1-.09.1H.75a.35.35,0,0,1-.1-.2c0-.1,0-.62.1-.72Z" style="fill:#b7825a"/><path d="M2.06,45.3c0-.11,0-.11-.1-.21a.17.17,0,0,0-.28,0,.56.56,0,0,0-.18.31c-.1.31-.1.62-.19,1a2,2,0,0,0-.19,1,.43.43,0,0,0,.09.31V50c.29-.31.19-.62.19-1V47.46a1.35,1.35,0,0,1,.1-.62c.09-.41.18-.72.28-1.13.09.2.09.51.18.72s.47.41.38.31-.09-.41-.09-.52A5.24,5.24,0,0,0,2.06,45.3Z" style="fill:#63413b"/><path d="M1.4,48.69a1.92,1.92,0,0,1-.09,1,.1.1,0,0,1-.1.1l-.09.11v.31h.09c.1,0,.1,0,.1-.11L1.4,50l.1-.21c.09-.2,0-.41,0-.72v-.2a.32.32,0,0,1-.1-.21h0" style="fill:#63413b"/><path d="M41.38,46.47a5.56,5.56,0,0,1-.37.72c-.09.1-.19.31-.38.41s-.09.1-.18.1a.35.35,0,0,0-.1.21v.31c0,.1.19.2.28.2s.19,0,.19-.1a2.58,2.58,0,0,0,.85-.93,2.09,2.09,0,0,0,.28-.82c0-.21.09-.41.09-.62.19.62-.28,1.24-.37,1.85a.38.38,0,0,1-.1.31,1.61,1.61,0,0,0-.28.41c-.09.11-.19.31-.28.42s-.09.1-.09.2a.56.56,0,0,0,.18.31c.1.1.28.31.47.21a.22.22,0,0,0,.19-.21c.09-.1.19-.31.28-.41s.19-.21.19-.31a3.58,3.58,0,0,0,.56-1.85,1,1,0,0,0-.19-.72c-.09-.1-.09-.21-.18-.31v-.21c0-.2-.19-.31-.38-.41l-.56-.31c-.19,0-.28,0-.28.11a.7.7,0,0,0,.09.41A1,1,0,0,1,41.38,46.47Z" style="fill:#63413b"/><path d="M42.62,46.81c0,.21-.09.41-.09.62l-.28.62L42,49v.41c0,.21.1.31.1.52l.09.1c.1.1.28,0,.38-.1a.82.82,0,0,0,.18-.41,11.58,11.58,0,0,0,.75-5.15,2.69,2.69,0,0,0-.18-.82,6.44,6.44,0,0,0-.38-1.23s0-.11-.09-.11a.1.1,0,0,0-.1.11c0-.11-.18-.21-.37-.31h-.47a1.67,1.67,0,0,0-.66.2.6.6,0,0,0-.28.52c0,.1.1.2,0,.31s0,.1-.09.1a.84.84,0,0,0-.19.51c0,.21.1.31.1.52s-.1.31-.1.41A9,9,0,0,0,40.18,46c0,.1-.09.21,0,.31a.34.34,0,0,0,.28.1h.66c.09,0,.09-.1.09-.2l.29-.93c.09.41.18.72.28,1.13v.41c0,.52.09,1.13.09,1.65a3.93,3.93,0,0,0,0,1c.09.2.19.31.38.31s.28-.21.28-.42.09-.41.09-.72.09-.3.09-.51v-.51a4,4,0,0,1,.1-1,5.2,5.2,0,0,1-.56-.83h0c0-.1,0-.2-.1-.2a.81.81,0,0,0,0,.92.35.35,0,0,0,.1.21C42.53,46.71,42.53,46.81,42.62,46.81Z" style="fill:#7f5449"/><path d="M40.63,45.85h0c0,.1-.09.31-.09.41s-.09.31.09.21H41c.09,0,.19-.11.28-.21v-.51c0-.11-.09-.11-.09,0A1.34,1.34,0,0,1,40.63,45.85Z" style="fill:#b7825a"/><path d="M42.6,48.94v.72a.1.1,0,0,0,.1.1h.09a.37.37,0,0,0,.09-.21,2,2,0,0,0-.09-.72Z" style="fill:#b7825a"/><path d="M41.48,45.23c0-.1,0-.1.09-.2s.19-.11.28,0,.19.2.19.3c.09.31.09.62.19,1a2.1,2.1,0,0,1,.19,1,.38.38,0,0,1-.1.31V50c-.28-.3-.19-.61-.19-1V47.39a1.44,1.44,0,0,0-.09-.61c-.09-.42-.19-.72-.28-1.14-.09.21-.09.52-.19.72s-.47.42-.37.31.09-.41.09-.51A4,4,0,0,1,41.48,45.23Z" style="fill:#63413b"/><path d="M42.13,48.63a1.92,1.92,0,0,0,.1,1s0,.1.09.1l.1.1v.31h-.1c-.09,0-.09,0-.09-.1l-.1-.11-.09-.2c-.09-.21,0-.41,0-.72v-.21a.33.33,0,0,0,.09-.2h0" style="fill:#63413b"/><path d="M22,22.81a4.09,4.09,0,0,1-2-.41,2.88,2.88,0,0,1-.94-.93,19.47,19.47,0,0,0-3,.41,9.24,9.24,0,0,0-1.59.52,2.4,2.4,0,0,0-1,.82c-.29.51-.57.92-.85,1.44a12.1,12.1,0,0,1-.75,1.54c-.47,1-1.69,3.5-2.25,4.43a17.63,17.63,0,0,1-1.5,2.16c-.65.72-1.4,1.33-2.06,2-.47.41-1.22,1.44-1.59,1.85a23.44,23.44,0,0,0-2,3C2.2,40,1.07,41.73.88,42.15s-.09.51.57.72c.46.1.75,0,1,.41a5.2,5.2,0,0,0,.65-.72c.38-.31,1.22-1.34,1.6-1.65s3.28-3,3.65-3.29a11.39,11.39,0,0,0,1.41-1.75c.28-.41.37-.72.56-1l.56-1.23c.47-.72.75-1.13,1.13-1.75-.09,0,.94-1.54,1.41-2.37s2-3.29,2-2.26c0,.31.85,8.13.75,10.49a16.42,16.42,0,0,1-.93,4.53c-.19.62-.75,2.78-.85,3.29a40.91,40.91,0,0,0-.65,4.63c-.1,1.54,0,2.67-.1,4.22a18.35,18.35,0,0,0,.19,3.91c.19,1.54.47,3,.47,3.6s.37,1.85.09,2.46A12.86,12.86,0,0,0,13.91,69a37.54,37.54,0,0,0,.85,4.63c.09.31.75,3.09.19,4.12A4.64,4.64,0,0,1,13.82,79c-.09.1-.28.31-.28.41s0,.41.19.52h.18a3.45,3.45,0,0,0,1.79-.11c.09,0,.28-.1.37,0s.19.11.28.11a1.45,1.45,0,0,0,1.78-.41c.38-.72-.47-1.55-.09-2.37.09-.1,0-.31.09-.51a1.19,1.19,0,0,0,0-.83,16.38,16.38,0,0,1,0-3,10.8,10.8,0,0,1,.28-2.47,8.66,8.66,0,0,0,.38-1.54,16.75,16.75,0,0,0,0-3.09c-.09-1-.09-1.85-.09-2.26a18.81,18.81,0,0,1,.93-3.81c.38-1.75,1.13-8.12,1.13-8.43a2.64,2.64,0,0,1,.37-1.13,1,1,0,0,1,.85-.52" style="fill:#7f5449"/><path d="M22,22.81a4.09,4.09,0,0,1-2-.41,2.88,2.88,0,0,1-.94-.93,19.47,19.47,0,0,0-3,.41,9.24,9.24,0,0,0-1.59.52,2.4,2.4,0,0,0-1,.82c-.29.51-.57.92-.85,1.44a12.1,12.1,0,0,1-.75,1.54c-.47,1-1.69,3.5-2.25,4.43a17.63,17.63,0,0,1-1.5,2.16c-.65.72-1.4,1.33-2.06,2-.47.41-1.22,1.44-1.59,1.85a23.44,23.44,0,0,0-2,3C2.2,40,1.07,41.73.88,42.15s-.09.51.57.72c.46.1.75,0,1,.41a5.2,5.2,0,0,0,.65-.72c.38-.31,1.22-1.34,1.6-1.65s3.28-3,3.65-3.29a11.39,11.39,0,0,0,1.41-1.75c.28-.41.37-.72.56-1l.56-1.23c.47-.72.75-1.13,1.13-1.75-.09,0,.94-1.54,1.41-2.37s2-3.29,2-2.26c0,.31.85,8.13.75,10.49a16.42,16.42,0,0,1-.93,4.53c-.19.62-.75,2.78-.85,3.29a40.91,40.91,0,0,0-.65,4.63c-.1,1.54,0,2.67-.1,4.22a18.35,18.35,0,0,0,.19,3.91c.19,1.54.47,3,.47,3.6s.37,1.85.09,2.46A12.86,12.86,0,0,0,13.91,69a37.54,37.54,0,0,0,.85,4.63c.09.31.75,3.09.19,4.12A4.64,4.64,0,0,1,13.82,79c-.09.1-.28.31-.28.41s0,.41.19.52h.18a3.45,3.45,0,0,0,1.79-.11c.09,0,.28-.1.37,0s.19.11.28.11a1.45,1.45,0,0,0,1.78-.41c.38-.72-.47-1.55-.09-2.37.09-.1,0-.31.09-.51a1.19,1.19,0,0,0,0-.83,16.38,16.38,0,0,1,0-3,10.8,10.8,0,0,1,.28-2.47,8.66,8.66,0,0,0,.38-1.54,16.75,16.75,0,0,0,0-3.09c-.09-1-.09-1.85-.09-2.26a18.81,18.81,0,0,1,.93-3.81c.38-1.75,1.13-8.12,1.13-8.43a2.64,2.64,0,0,1,.37-1.13,1,1,0,0,1,.85-.52" style="fill:#7f5449"/><path d="M21.7,22.7a4.11,4.11,0,0,0,2-.41,2.73,2.73,0,0,0,.93-.92,17,17,0,0,1,3,.41,10.91,10.91,0,0,1,1.6.51,2.43,2.43,0,0,1,1,.83c.28.51.56.92.84,1.44a12.79,12.79,0,0,0,.75,1.54c.47,1,1.69,3.5,2.25,4.42a16.89,16.89,0,0,0,1.5,2.16c.66.72,1.41,1.34,2.06,2,.47.41,1.22,1.44,1.6,1.85a24.57,24.57,0,0,1,2,3c.28.41,1.4,2.16,1.59,2.57s.09.52-.56.72c-.47.11-.75,0-1,.41a4.28,4.28,0,0,1-.66-.72c-.37-.3-1.22-1.33-1.59-1.64s-3.28-3-3.66-3.29a12,12,0,0,1-1.41-1.75c-.28-.41-.37-.72-.56-1l-.56-1.23a6.88,6.88,0,0,1-1.31-1.75c.09,0-.94-1.55-1.41-2.37s-2-3.29-2-2.26c0,.31-.84,8.12-.75,10.49a16.78,16.78,0,0,0,.94,4.53c.19.61.75,2.77.84,3.29a38.51,38.51,0,0,1,.66,4.63c.09,1.54,0,2.67.09,4.21a18.28,18.28,0,0,1-.18,3.91c-.19,1.55-.47,3-.47,3.6s-.38,1.85-.1,2.47a12.64,12.64,0,0,1,.47,4.63,36.07,36.07,0,0,1-.84,4.63c-.1.31-.75,3.09-.19,4.11a4.39,4.39,0,0,0,1.13,1.24c.09.1.28.31.28.41s0,.41-.19.51h-.19a3.32,3.32,0,0,1-1.78-.1c-.09,0-.28-.1-.37,0s-.19.1-.29.1a1.44,1.44,0,0,1-1.78-.41c-.37-.72.47-1.54.1-2.36-.1-.11,0-.31-.1-.52a1.28,1.28,0,0,1,0-.82,14.75,14.75,0,0,0,0-3,10.27,10.27,0,0,0-.28-2.47,8.83,8.83,0,0,1-.37-1.54,16.74,16.74,0,0,1,0-3.09c.09-1,.09-1.85.09-2.26a18,18,0,0,0-.94-3.81c-.37-1.75-1.12-8.13-1.12-8.43A2.85,2.85,0,0,0,22.35,50a1,1,0,0,0-.84-.51" style="fill:#7f5449"/><path d="M14.38,44.31c.1-.72.57-2.06.66-2.47a121.44,121.44,0,0,1,13.78,0c.19,0,.47,1.44.66,2.36s-5.91,5.46-6.56,6a1.74,1.74,0,0,1-1.22.21.85.85,0,0,1-.66-.31C19.82,49,14.29,44.41,14.38,44.31Z" style="fill:#000068"/><ellipse cx="18.79" cy="28.36" rx="0.19" ry="0.21" style="fill:#2d2d2d"/><ellipse cx="26.38" cy="28.26" rx="0.19" ry="0.21" style="fill:#2d2d2d"/><path d="M30.23,11.9a1.36,1.36,0,0,1,.37.31,1.71,1.71,0,0,1,.28.62,3,3,0,0,1-.56,2.47A1.43,1.43,0,0,1,29.1,16a.65.65,0,0,1-.56-.21.49.49,0,0,1-.09-.61c0-.72.09-1.34.09-2.06C28.73,12.32,29.29,11.39,30.23,11.9Z" style="fill:#704843"/><path d="M13.82,11.9a1.36,1.36,0,0,0-.37.31,1.93,1.93,0,0,0-.29.62,3,3,0,0,0,.57,2.47A1.43,1.43,0,0,0,15,16a.65.65,0,0,0,.56-.21.49.49,0,0,0,.09-.61c0-.72-.09-1.34-.09-2.06C15.32,12.32,14.76,11.39,13.82,11.9Z" style="fill:#704843"/><path d="M15.7,7.27A8.35,8.35,0,0,0,15,11.6a36.64,36.64,0,0,0,.46,4.52c.66,2.47,4.22,4.12,4.51,4.22a4.84,4.84,0,0,0,4.12-.1,8.29,8.29,0,0,0,4.5-4.53A8.27,8.27,0,0,0,29,12a20.19,20.19,0,0,0-.38-4.22,4.25,4.25,0,0,0-2.81-2.47A18.49,18.49,0,0,0,20,5.11,5.71,5.71,0,0,0,15.7,7.27Z" style="fill:#7f5449"/><path d="M21,15.61c.09-.11.28.31,1,.31s.84-.42,1-.31.09.72-.84.82S20.76,15.81,21,15.61Z" style="fill:#63413b"/><path d="M20.1,17.46c.19-.1,1.13.31,1.88.31a5.36,5.36,0,0,0,1.78-.31c.19-.1,0,.62-1.78.62S20.1,17.46,20.1,17.46Z" style="fill:#63413b"/><path d="M21.6,18.59c.1.1.19.21.38.1s.19-.1.28-.1.19,0,.09.1a.39.39,0,0,1-.37.21.51.51,0,0,1-.47-.21C21.42,18.59,21.6,18.59,21.6,18.59Z" style="fill:#63413b"/><path d="M18.79,10.26a5.15,5.15,0,0,0-1.31.2c-.28.11-.47.21-.47.21s0-.93,1.59-.93c1.32,0,1.69.52,1.6.72S19.45,10.26,18.79,10.26Z" style="fill:#1c0803"/><path d="M25.35,10.26a5.3,5.3,0,0,1,1.32.2,4.22,4.22,0,0,1,.46.21c0-.1,0-.93-1.59-.93-1.31,0-1.69.52-1.59.72S24.7,10.26,25.35,10.26Z" style="fill:#1c0803"/><path d="M14.13,9.48a6.71,6.71,0,0,1,.47-3.19V6.08a.41.41,0,0,0-.47,0l-.28.31a1,1,0,0,1-1,.31A1.09,1.09,0,0,1,12.07,6a1.82,1.82,0,0,0-.1-.72A1.49,1.49,0,0,1,10.1,4.13a1.4,1.4,0,0,1,1.41-1.54A2.11,2.11,0,0,1,11.22.94,1.59,1.59,0,0,1,12.44.22a1.3,1.3,0,0,1,1.13.72c.37-.41.84-1,1.87-.41.47.31.75,1,.28,1.44a1.24,1.24,0,0,1,.85,0c.28.1.47.21.47.51.09.62-.85.93-.75,1.34.28.52.65-.2,1-.31a8.81,8.81,0,0,1,4-1.13,8.83,8.83,0,0,1,4.22.52,10.41,10.41,0,0,1,1.78.92c.19,0,.28-.1.37-.31s-.18-.72-.18-1c-.1-.72.65-1.33,1.68-.82A1.13,1.13,0,0,1,30.16,0a1.39,1.39,0,0,1,1.69,1.33c0,.21-.19.31-.09.41s.37-.1.56-.2a1.65,1.65,0,0,1,1.31.62,1.71,1.71,0,0,1,.28,1.44c-.28.61-.75.51-1,.61l.38.31A1.33,1.33,0,0,1,33,6.08c-.46.42-1.59.42-1.78-.1-.09-.1-.28,0-.37.1l-.28.31c-.19.11-.28-.31-.47-.41s-.47.1-.56.21c.56.41.37,1.33.46,2.05a13.92,13.92,0,0,1-.28,2.27c-.18.41-.37,1.75-.75,1.64a24.26,24.26,0,0,0-.28-3.7,4.48,4.48,0,0,0-.84-1.95,4.17,4.17,0,0,0-1.6-.93,13.69,13.69,0,0,0-6.46-.31,6.11,6.11,0,0,0-2.35.62,6,6,0,0,0-1.5,1.23,3.75,3.75,0,0,0-.75,1.65,4.78,4.78,0,0,0-.09,1.64,5.35,5.35,0,0,1,0,1.86C14.79,12.26,14.22,10.71,14.13,9.48Z" style="fill:#230700"/><path d="M14.2,4a1.48,1.48,0,0,1,2.34-.51.57.57,0,0,0,.28.51C17,4,16,4.5,15.51,5.11a4.88,4.88,0,0,0-.66,1.14s-.47-.21-.65-.31A1.49,1.49,0,0,1,14.2,4Z" style="fill:#bc66cc"/><path d="M30.32,4a1.64,1.64,0,0,0-2.44-.61c0,.2-.28.3-.46.41s1,.72,1.5,1.33a5,5,0,0,1,.65,1.14s.47-.21.66-.31S31.07,5.11,30.32,4Z" style="fill:#bc66cc"/><path d="M16.82,13c0-.72,1-1.24,2-1.24.75,0,1.78.52,1.78,1.24s-.65,1.23-1.69,1.23S16.82,13.76,16.82,13Z" style="fill:#ffecd8"/><ellipse cx="18.88" cy="13.03" rx="1.05" ry="1.01" transform="translate(-3.32 18.8) rotate(-49.18)" style="fill:#290600"/><ellipse cx="18.23" cy="12.93" rx="0.38" ry="0.41" style="fill:#fcfcfc"/><path d="M18.88,11.49c.47,0,1.69.41,1.79,1.34s-.19-1-1.88-1a1.94,1.94,0,0,0-2,1.54C16.73,11.7,18,11.49,18.88,11.49Z" style="fill:#230601"/><path d="M23.57,13c0-.72,1-1.24,2-1.24.75,0,1.78.52,1.78,1.24s-.65,1.23-1.69,1.23S23.57,13.76,23.57,13Z" style="fill:#ffecd8"/><ellipse cx="25.64" cy="13.03" rx="1.05" ry="1.01" transform="translate(-0.98 23.91) rotate(-49.18)" style="fill:#290600"/><ellipse cx="24.98" cy="12.93" rx="0.38" ry="0.41" style="fill:#fcfcfc"/><path d="M25.63,11.39c.47,0,1.69.41,1.79,1.34s-.19-1-1.88-1a1.94,1.94,0,0,0-2,1.54C23.48,11.7,24.79,11.39,25.63,11.39Z" style="fill:#230601"/><path d="M16.67,42.65c.67-1.21,1.42-2.48,2.07-3.77H17.31C12.48,46.25,6.86,53.29,2,60.66a30,30,0,0,0,3.14.39,4.17,4.17,0,0,1,2.65,1c1.64-3.25,3.35-6.48,4.87-9.76S15.05,45.74,16.67,42.65Z" style="fill:#b01f24"/><path d="M14.78,55.11c.14-1.72.68-3.54.68-5.26-1.31,4.25-2,8.73-3.64,12.88a10.44,10.44,0,0,1,1.72-.6c.15-.71.29-1.43.44-2.11C14.25,58.31,14.65,56.71,14.78,55.11Z" style="fill:#b01f24"/><path d="M16.34,38.88,0,60s.32.33,2,.64c4.89-7.37,10.51-14.41,15.34-21.78Z" style="fill:#d61f27"/><path d="M18.28,47.68a23.93,23.93,0,0,1,1.21-6.17c-1.35,1.49-1.75,4.23-2.42,6.06-.81,2.28-1.21,4.8-1.88,7.2s-.67,4.68-1.21,7c0,.12-.05.25-.07.37a2.22,2.22,0,0,1,1.14.43,5.73,5.73,0,0,0,1.32.64c.06-2.53.65-5.14.83-7.5A79.8,79.8,0,0,1,18.28,47.68Z" style="fill:#b01f24"/><path d="M30.6,48.72a.46.46,0,0,0-.43-.53l.38.67A.58.58,0,0,0,30.6,48.72Z" style="fill:#d61f27"/><path d="M26.44,38.88h-1.5c.66,1.08,1.29,2.18,1.91,3.29A5.08,5.08,0,0,0,26.44,38.88Z" style="fill:#d61f27"/><path d="M26.81,39.14A5.3,5.3,0,0,1,27,42.5c1,1.83,2,3.69,3,5.53.35,0,.7.2.72.53a.69.69,0,0,1-.16.47c.82,1.43,1.66,2.86,2.56,4.25A67.32,67.32,0,0,0,38.3,60c.37.47.73,1,1.1,1.44A12.33,12.33,0,0,0,41.53,60Z" style="fill:#d61f27"/><path d="M23.3,45.29h0a5.73,5.73,0,0,0-.33-.81C23.09,44.75,23.2,45,23.3,45.29Z" style="fill:#d61f27"/><path d="M21.11,51.79c0-.19,0-.38,0-.57C21.1,51.41,21.1,51.6,21.11,51.79Z" style="fill:#d61f27"/><path d="M29.1,49.1c.47.14,1.23.22,1.45-.24l-.38-.67h-.11a1.62,1.62,0,0,0-.78.2,2.11,2.11,0,0,0-.53.4,2.44,2.44,0,0,1,.1.24Z" style="fill:#b01f24"/><path d="M27.55,45.62c.33,1,.72,2,1.13,3a1.87,1.87,0,0,1,1.2-.57h.2c-1-1.84-2-3.7-3-5.53a5.57,5.57,0,0,1-.3.77A15.61,15.61,0,0,1,27.55,45.62Z" style="fill:#b01f24"/><path d="M33.2,53.28c-.9-1.39-1.74-2.82-2.56-4.25a.83.83,0,0,1-.53.32A2.53,2.53,0,0,1,29,49.24c.53,1.22,1.08,2.42,1.56,3.58,1.21,2.86,2,5.94,3.36,8.69.12.28.26.56.4.83l.54.08a6.88,6.88,0,0,0,4.59-1c-.37-.48-.73-1-1.1-1.44A67.32,67.32,0,0,1,33.2,53.28Z" style="fill:#b01f24"/><path d="M26.48,42.77l.12.21a4.17,4.17,0,0,0,.25-.78v0c-.62-1.11-1.25-2.21-1.91-3.29H24.6C24.42,40,26,41.84,26.48,42.77Z" style="fill:#b01f24"/><path d="M21.44,43.75a1.76,1.76,0,0,0-1.32.5c-.27.36-.05.69.33.91a2.93,2.93,0,0,0,1.28.37,6,6,0,0,0,1.57-.24c-.1-.27-.21-.54-.32-.81a5.73,5.73,0,0,1,.33.81l.22,0A2,2,0,0,0,21.44,43.75Z" style="fill:#d61f27"/><path d="M23,47.18a4.77,4.77,0,0,0-1.87.42c-.44.21-1.1.61-.92,1.12a1.12,1.12,0,0,0,1.37.47,2.39,2.39,0,0,0,1.14-.9,4.19,4.19,0,0,0,.69-1.11Z" style="fill:#d61f27"/><path d="M23.58,45.44l-.21,0c.09.24.17.47.25.71A2.68,2.68,0,0,0,23.58,45.44Z" style="fill:#d61f27"/><path d="M26,53.52a.32.32,0,0,1-.13.27l.13,0a.5.5,0,0,1,.53.45.36.36,0,0,1-.11.26h0l.35-.15a2.47,2.47,0,0,0,1.1-1,2.89,2.89,0,0,0,.43-1.48,1.34,1.34,0,0,0-.51-1.1l-.18-.11c-.05.16-.09.32-.14.47a1.32,1.32,0,0,1-.79.89c-.34.12-.87.15-1.06-.19a.92.92,0,0,1,.28-1.06,1.61,1.61,0,0,1,1.57-.33,4.71,4.71,0,0,1,.22-.45,8.85,8.85,0,0,1,.6-1,15,15,0,0,1-1.62-.77A10.41,10.41,0,0,0,25,47.41a4.74,4.74,0,0,0-1-.2c.64,2,1.15,3.95,1.68,5.94A.39.39,0,0,1,26,53.52Z" style="fill:#d61f27"/><path d="M26.48,50.58a1.35,1.35,0,0,0-.58.5c-.12.2-.26.53,0,.73.43.37,1.1-.06,1.3-.41a2.61,2.61,0,0,0,.25-.71.56.56,0,0,1,0-.12A1.41,1.41,0,0,0,26.48,50.58Z" style="fill:#d61f27"/><path d="M23.69,47h0v0Z" style="fill:#d61f27"/><path d="M24.61,45.15c-.26.09-.54.17-.83.24a3.34,3.34,0,0,1,0,1.26c0,.13.09.26.13.39a5,5,0,0,1,1.63.4c.58.25,1.13.58,1.69.87a13,13,0,0,0,1.2.55,3.07,3.07,0,0,1,.25-.26c-.41-1-.8-2-1.13-3a15.61,15.61,0,0,0-.81-2.35A3.8,3.8,0,0,1,24.61,45.15Z" style="fill:#d61f27"/><path d="M28.75,48.78l-.14.15.24.09A2.44,2.44,0,0,0,28.75,48.78Z" style="fill:#d61f27"/><path d="M30.51,52.82c-.48-1.16-1-2.36-1.56-3.58l-.44-.15h0a3.84,3.84,0,0,0-.32.5,8.6,8.6,0,0,0-.45.85l0,.07a1.26,1.26,0,0,1,.4.28,2.19,2.19,0,0,1,0,2.58,2.43,2.43,0,0,1-1.07,1,3.39,3.39,0,0,1-.77.29h-.17l.12.45h0a.62.62,0,0,1,.67.57v0a.39.39,0,0,1,.3.36.37.37,0,0,1-.13.27.49.49,0,0,1,.17.36s0,0,0,0a.56.56,0,0,1-.43.48l.06.19a3.83,3.83,0,0,0,1.35-.08,2.71,2.71,0,0,1,1.85.14h0l.21-.14-.08,0a.34.34,0,0,1-.28-.43.43.43,0,0,1,.18-.2.35.35,0,0,1-.05-.3.47.47,0,0,1,.56-.25l.07,0a.32.32,0,0,1,.36-.15.25.25,0,0,1,.2.32v0a.5.5,0,0,1,.38-.07.35.35,0,0,1,.28.44s0,0,0,.08a.39.39,0,0,1,.13.44.55.55,0,0,1-.65.3.69.69,0,0,1-.15-.07.41.41,0,0,1-.41.13.36.36,0,0,1-.25-.21l-.29.26a.05.05,0,0,1,0,0,.64.64,0,0,1,.17.43c0,.51-.78,1.08-.93,1.56a.65.65,0,0,0,0,.31h.11a.35.35,0,0,1,.36.33.09.09,0,0,0,0,0,.23.23,0,0,1,.21.22.23.23,0,0,1-.26.2h0a.26.26,0,0,1,.13.24.33.33,0,0,1-.35.28h0c.3.49-.86.59-.86.32,0-.07.08-.15.18-.22a.36.36,0,0,1-.17-.31.27.27,0,0,1,0-.12.25.25,0,0,1-.19-.25.28.28,0,0,1,.22-.25.28.28,0,0,1-.08-.2.28.28,0,0,1,.13-.21,1.1,1.1,0,0,1-.15-.5,1.53,1.53,0,0,1,0-.53,4.77,4.77,0,0,1-.71-.12,2.34,2.34,0,0,0-.75-.17l-.08,0a37.84,37.84,0,0,1,1,4.21c2.05-.2,4.33-.81,6-.66-.14-.27-.28-.55-.4-.83C32.52,58.76,31.72,55.68,30.51,52.82Z" style="fill:#d61f27"/><path d="M25.62,61.66h-.17c-.27,0-.68.06-.53-.22a.62.62,0,0,1,.23-.17A.36.36,0,0,1,25,61a1,1,0,0,1,0-.12.26.26,0,0,1-.19-.26.26.26,0,0,1,.23-.24.25.25,0,0,1-.09-.2.34.34,0,0,1,.36-.28h0c0-.28-.08-.55-.12-.83a3.09,3.09,0,0,1-.14-.32l-.28-.16a.9.9,0,0,1-.41-.72.79.79,0,0,1-.6-.33h-.09A.63.63,0,0,1,23.1,57a.54.54,0,0,1,.06-.25l.06-.08a.32.32,0,0,1-.16-.27.38.38,0,0,1,.41-.35h.11v0a.49.49,0,0,1,.2-.39,2.08,2.08,0,0,0-.49,0c-.2,0-.65,0-.67-.27s.34-.37.54-.43a5.21,5.21,0,0,0,.82-.24.24.24,0,0,1,0-.08h-.08a.32.32,0,0,1-.34-.29.24.24,0,0,1,.11-.2.48.48,0,0,1-.11-.3.62.62,0,0,1,.67-.57h.08a.45.45,0,0,1,.23-.31c-.09-.69-.2-1.38-.33-2-.23-1.17-.28-2.45-.46-3.69h-.1a3.36,3.36,0,0,1-.44.81c-.48.66-1.12,1.51-2.17,1.41a1.15,1.15,0,0,1-1-.6.93.93,0,0,1,.45-1,4.86,4.86,0,0,1,3-.76v0a3.12,3.12,0,0,0,.11-.53c-.06-.32-.14-.64-.23-1l-.27.07a4.37,4.37,0,0,1-1.76.13c-.62-.12-1.69-.51-1.57-1.19s1.34-1,2.11-.91a2.22,2.22,0,0,1,1.86,1.61,4.2,4.2,0,0,0,2.14-1.11A3.73,3.73,0,0,0,26.6,43l-.12-.21C26,41.84,24.42,40,24.6,38.88H18.74c-.65,1.29-1.4,2.56-2.07,3.77-1.62,3.09-2.56,6.4-4,9.6S9.4,58.76,7.76,62A3.35,3.35,0,0,0,10,63a4.14,4.14,0,0,0,1.87-.26c1.64-4.15,2.33-8.63,3.64-12.88,0,1.72-.54,3.54-.68,5.26s-.53,3.2-.8,4.91c-.15.68-.29,1.4-.44,2.11a2.23,2.23,0,0,1,.37,0c0-.12.05-.25.07-.37.54-2.29.67-4.69,1.21-7s1.07-4.92,1.88-7.2c.67-1.83,1.07-4.57,2.42-6.06a23.93,23.93,0,0,0-1.21,6.17,79.8,79.8,0,0,0-1.08,8c-.18,2.36-.77,5-.83,7.5a10.25,10.25,0,0,0,2.49.47,29.18,29.18,0,0,0,.9-3.4c.37-2.78,1.34-5.66,1.35-8.46,0-.19,0-.38,0-.57,0,.19,0,.38,0,.57.09,2.33.66,4.65.66,7,0,1.74.13,3.45.26,5.16,1.42-.2.84-2.07,3.1-1.16a3.09,3.09,0,0,0,.54.17v0C25.67,62.48,25.65,62.07,25.62,61.66Z" style="fill:#d61f27"/><path d="M21.11,51.79c0,2.8-1,5.68-1.35,8.46a29.18,29.18,0,0,1-.9,3.4c.81.08,1.65.13,2.51.26a2.11,2.11,0,0,0,.66,0c-.13-1.71-.26-3.42-.26-5.16C21.77,56.44,21.2,54.12,21.11,51.79Z" style="fill:#b01f24"/><path d="M25.32,53.2a.48.48,0,0,1,.24-.06h.09c-.53-2-1-4-1.68-5.94l-.24,0c.18,1.24.23,2.52.46,3.69.13.67.24,1.36.33,2a.55.55,0,0,1,.29-.08A.51.51,0,0,1,25.32,53.2Z" style="fill:#b01f24"/><path d="M26.41,57.24a.86.86,0,0,0,.19.11,1.12,1.12,0,0,0,.26.08l-.06-.19-.2,0Z" style="fill:#b01f24"/><path d="M23.37,45.48h0c.09.31.17.63.23,1a1.94,1.94,0,0,0,0-.24C23.54,46,23.46,45.72,23.37,45.48Z" style="fill:#b01f24"/><path d="M25.41,59.36l-.12-.26c0,.28.09.55.12.83h.08A1.19,1.19,0,0,0,25.41,59.36Z" style="fill:#b01f24"/><path d="M26.6,59a2.18,2.18,0,0,1-.72,0,.9.9,0,0,1,.16.58c0,.11-.05.23-.07.35a.32.32,0,0,1,.26.31s0,0,0,.06a.22.22,0,0,1,.21.21.24.24,0,0,1-.26.21h0a.3.3,0,0,1,.14.25.32.32,0,0,1-.36.27h-.08l-.05.05c.06.22,0,.34-.18.39,0,.41.05.82.05,1.22v0a7.84,7.84,0,0,0,2.58.07,37.84,37.84,0,0,0-1-4.21A6.38,6.38,0,0,1,26.6,59Z" style="fill:#b01f24"/><path d="M23.7,47h.21c0-.13-.08-.26-.13-.39,0,.11-.05.22-.08.33Z" style="fill:#b01f24"/><path d="M26.09,55.09l0,0h0a.09.09,0,1,0,0,.17.1.1,0,0,0,.1-.08s0,0,0,0h0l-.12-.45H25.9C26,54.82,26,55,26.09,55.09Z" style="fill:#b01f24"/><path d="M24.17,55.63a.11.11,0,0,0-.13,0,.08.08,0,0,0,.05.11.11.11,0,0,0,.13,0S24.22,55.65,24.17,55.63Z" style="fill:#fff"/><path d="M23.92,55.61a.11.11,0,0,0-.13,0,.08.08,0,0,0,.05.11.11.11,0,0,0,.13,0A.08.08,0,0,0,23.92,55.61Z" style="fill:#fff"/><path d="M24.4,54.93a.15.15,0,0,0-.3,0,.15.15,0,0,0,.3,0Z" style="fill:#fff"/><path d="M25,55.54a.11.11,0,0,0-.13,0,.08.08,0,0,0,.05.11.11.11,0,0,0,.13,0A.08.08,0,0,0,25,55.54Z" style="fill:#fff"/><path d="M24.48,55.72a.08.08,0,0,0-.05-.12.1.1,0,0,0-.13,0,.08.08,0,0,0,.05.11A.11.11,0,0,0,24.48,55.72Z" style="fill:#fff"/><path d="M25.22,55.49a.11.11,0,0,0-.14,0,.08.08,0,0,0,.05.11.12.12,0,0,0,.14,0A.08.08,0,0,0,25.22,55.49Z" style="fill:#fff"/><path d="M24.62,55.73a.11.11,0,0,0,.13,0s0-.09-.05-.11a.11.11,0,0,0-.13,0A.08.08,0,0,0,24.62,55.73Z" style="fill:#fff"/><path d="M25.67,55.35a.09.09,0,1,0,0,.17.09.09,0,1,0,0-.17Z" style="fill:#fff"/><path d="M25.47,55.43a.1.1,0,0,0-.13,0,.08.08,0,0,0,.05.11.11.11,0,0,0,.13,0A.09.09,0,0,0,25.47,55.43Z" style="fill:#fff"/><path d="M25.89,55.24a.09.09,0,1,0,0,.17.09.09,0,0,0,.09-.08A.09.09,0,0,0,25.89,55.24Z" style="fill:#fff"/><path d="M24.45,57.21l.54-.13c-.18-1.36-.3-2.76-.47-4.15a.45.45,0,0,0-.23.31h-.08a.62.62,0,0,0-.67.57.48.48,0,0,0,.11.3.24.24,0,0,0-.11.2.32.32,0,0,0,.34.29H24a.24.24,0,0,0,0,.08,5.21,5.21,0,0,1-.82.24c-.2.06-.56.21-.54.43s.47.26.67.27a2.08,2.08,0,0,1,.49,0,.49.49,0,0,0-.2.39v0h-.11a.38.38,0,0,0-.41.35.32.32,0,0,0,.16.27l-.06.08a.54.54,0,0,0-.06.25.63.63,0,0,0,.67.57h.09a.79.79,0,0,0,.6.33C24.44,57.68,24.46,57.45,24.45,57.21ZM24,55.72a.11.11,0,0,1-.13,0,.08.08,0,0,1-.05-.11.11.11,0,0,1,.13,0A.08.08,0,0,1,24,55.72Zm.6-.1a.11.11,0,0,1,.13,0c.05,0,.08.07.05.11a.11.11,0,0,1-.13,0A.08.08,0,0,1,24.57,55.62Zm-.35.12a.11.11,0,0,1-.13,0,.08.08,0,0,1-.05-.11.11.11,0,0,1,.13,0S24.25,55.7,24.22,55.74Zm-.12-.81a.15.15,0,0,1,.3,0,.15.15,0,0,1-.3,0Zm.25.83a.08.08,0,0,1-.05-.11.1.1,0,0,1,.13,0,.08.08,0,0,1,.05.12A.11.11,0,0,1,24.35,55.76Z" style="fill:#231f20"/><path d="M26.8,57.24a.56.56,0,0,0,.43-.48s0,0,0,0a.49.49,0,0,0-.17-.36.37.37,0,0,0,.13-.27.39.39,0,0,0-.3-.36v0a.62.62,0,0,0-.67-.57h0l.15.54C26.49,56.19,26.64,56.71,26.8,57.24Z" style="fill:#231f20"/><path d="M26.42,54.48a.36.36,0,0,0,.11-.26.5.5,0,0,0-.53-.45l-.13,0a.32.32,0,0,0,.13-.27.39.39,0,0,0-.35-.37L26,54.6a.09.09,0,0,0,.07,0A2.8,2.8,0,0,1,26.42,54.48Z" style="fill:#231f20"/><path d="M26.17,55.19a.1.1,0,0,1-.1.08.09.09,0,1,1,0-.17h0l0,0c-.07-.13-.13-.27-.19-.4a.53.53,0,0,0-.26,0c-.06,0-.1,0-.05-.07s.31,0,.45-.06l-.39-1.45h-.09a.48.48,0,0,0-.24.06.51.51,0,0,0-.51-.35.55.55,0,0,0-.29.08c.17,1.39.29,2.79.47,4.15l1.1-.26c.12,0,.09.14.15.25a.91.91,0,0,0,.17.17l.19,0,.2,0c-.16-.53-.31-1.05-.46-1.56l-.15-.54h0S26.17,55.17,26.17,55.19ZM25,55.65a.11.11,0,0,1-.13,0,.08.08,0,0,1-.05-.11.11.11,0,0,1,.13,0A.08.08,0,0,1,25,55.65Zm.26,0a.12.12,0,0,1-.14,0,.08.08,0,0,1-.05-.11.11.11,0,0,1,.14,0A.08.08,0,0,1,25.27,55.6Zm.25-.05a.11.11,0,0,1-.13,0,.08.08,0,0,1-.05-.11.1.1,0,0,1,.13,0A.09.09,0,0,1,25.52,55.55Zm.15,0a.09.09,0,1,1,0-.17.09.09,0,1,1,0,.17Zm.22-.11a.09.09,0,1,1,0-.17.09.09,0,0,1,.09.09A.09.09,0,0,1,25.89,55.41Z" style="fill:#231f20"/><path d="M27.34,58.76a2.34,2.34,0,0,1,.75.17,4.77,4.77,0,0,0,.71.12,1.89,1.89,0,0,1,.3-.65l.67-.95a.51.51,0,0,1,.27.09l0,0h0a2.71,2.71,0,0,0-1.85-.14,3.83,3.83,0,0,1-1.35.08c.13.45.27.9.4,1.36Z" style="fill:#231f20"/><path d="M25.15,58.47l.05,0c-.07-.44-.14-.88-.2-1.33v-.08l-.54.13c0,.24,0,.47,0,.69a.9.9,0,0,0,.41.72l.28.16A.47.47,0,0,1,25.15,58.47Z" style="fill:#231f20"/><path d="M26.41,57.24a.91.91,0,0,1-.17-.17c-.06-.11,0-.22-.15-.25l-1.1.26v.08c.06.45.13.89.2,1.33l.51.2a3.07,3.07,0,0,0,.17.31,2.18,2.18,0,0,0,.72,0,6.38,6.38,0,0,0,.66-.22c-.13-.46-.27-.91-.4-1.36a1.12,1.12,0,0,1-.26-.08A.86.86,0,0,1,26.41,57.24Z" style="fill:#231f20"/><path d="M30.27,57.72a.05.05,0,0,0,0,0h0Z" style="fill:#231f20"/><path d="M30,57.83,30,57.64s0-.06.08-.1a.51.51,0,0,0-.27-.09l-.67.95a1.89,1.89,0,0,0-.3.65,1.53,1.53,0,0,0,0,.53,1.1,1.1,0,0,0,.15.5.41.41,0,0,1,.23-.06.35.35,0,0,1,.22.08.4.4,0,0,1,.16-.08.65.65,0,0,1,0-.31c.15-.48.93-1.05.93-1.56a.64.64,0,0,0-.17-.43l0,0Z" style="fill:#231f20"/><path d="M30,57.64l.07.19.21-.15h0l.29-.26a.29.29,0,0,1,0-.09.54.54,0,0,1-.22,0l-.21.14,0,0C30,57.58,30,57.62,30,57.64Z" style="fill:#231f20"/><path d="M30.51,57.32a.29.29,0,0,0,0,.09.36.36,0,0,0,.25.21.41.41,0,0,0,.41-.13.69.69,0,0,0,.15.07.55.55,0,0,0,.65-.3.39.39,0,0,0-.13-.44s0,0,0-.08a.35.35,0,0,0-.28-.44.5.5,0,0,0-.38.07v0a.25.25,0,0,0-.2-.32.32.32,0,0,0-.36.15l-.07,0a.47.47,0,0,0-.56.25.35.35,0,0,0,.05.3.43.43,0,0,0-.18.2.34.34,0,0,0,.28.43l.08,0A.54.54,0,0,0,30.51,57.32Z" style="fill:#231f20"/><path d="M29.15,60a.41.41,0,0,0-.23.06.28.28,0,0,0-.13.21.28.28,0,0,0,.08.2.28.28,0,0,0-.22.25.25.25,0,0,0,.19.25.27.27,0,0,0,0,.12.36.36,0,0,0,.17.31.88.88,0,0,1,.38-.16l.23,0,.07.09h0a.33.33,0,0,0,.35-.28.26.26,0,0,0-.13-.24h0a.23.23,0,0,0,.26-.2.23.23,0,0,0-.21-.22.09.09,0,0,1,0,0,.35.35,0,0,0-.36-.33h-.11a.4.4,0,0,0-.16.08A.35.35,0,0,0,29.15,60Z" style="fill:#231f20"/><path d="M25.58,61.26c0-.22,0-.43-.07-.65a.16.16,0,0,1-.1-.08c0-.06,0-.25,0-.35h0a2,2,0,0,0,0-.24h0a.34.34,0,0,0-.36.28.25.25,0,0,0,.09.2.26.26,0,0,0-.23.24.26.26,0,0,0,.19.26A1,1,0,0,0,25,61a.36.36,0,0,0,.11.26C25.32,61.2,25.51,61.16,25.58,61.26Z" style="fill:#231f20"/><path d="M25.51,60.61c0,.22,0,.43.07.65a0,0,0,0,1,0,0l.19-.09a.19.19,0,0,1,0,.07l.05-.05h.08a.32.32,0,0,0,.36-.27.3.3,0,0,0-.14-.25h0a.24.24,0,0,0,.26-.21.22.22,0,0,0-.21-.21s0,0,0-.06a.32.32,0,0,0-.26-.31,6.13,6.13,0,0,0-.11.73C25.75,60.63,25.61,60.64,25.51,60.61Z" style="fill:#231f20"/><path d="M25.49,59.94h-.08a2,2,0,0,1,0,.24A1.85,1.85,0,0,0,25.49,59.94Z" style="fill:#231f20"/><path d="M25.15,58.47a.47.47,0,0,0,0,.31,3.09,3.09,0,0,0,.14.32l-.09-.61Z" style="fill:#231f20"/><path d="M25.41,60.53a.16.16,0,0,0,.1.08l-.06-.44h0C25.45,60.28,25.37,60.47,25.41,60.53Z" style="fill:#231f20"/><path d="M25.2,58.49l.09.61.12.26a1.19,1.19,0,0,1,.08.58,1.85,1.85,0,0,1,0,.23l.06.44c.1,0,.24,0,.35,0a6.13,6.13,0,0,1,.11-.73c0-.12.05-.24.07-.35a.9.9,0,0,0-.16-.58,3.07,3.07,0,0,1-.17-.31Z" style="fill:#231f20"/><path d="M25.15,61.28a.62.62,0,0,0-.23.17c-.15.28.26.22.53.22h.17c0-.13,0-.27,0-.4S25.32,61.2,25.15,61.28Z" style="fill:#231f20"/><path d="M25.59,61.29a0,0,0,0,0,0,0c0,.13,0,.27,0,.4.2,0,.24-.17.18-.39a.19.19,0,0,0,0-.07Z" style="fill:#231f20"/><path d="M29.36,61.26a.88.88,0,0,0-.38.16c-.1.07-.18.15-.18.22,0,.27,1.16.17.86-.32l-.07-.09Z" style="fill:#231f20"/><path d="M30.6,48.72a.58.58,0,0,1-.05.14l.05.09a.49.49,0,0,0-.09-.7.69.69,0,0,0-.39-.14l.05.08A.46.46,0,0,1,30.6,48.72Z" style="fill:#211f1f"/><path d="M26.57,38.88a5.28,5.28,0,0,1,.37,3.45l.1.17a5.3,5.3,0,0,0-.23-3.36l-.18-.26Z" style="fill:#211f1f"/><path d="M30.51,48.25a.49.49,0,0,1,.09.7l0,.08a.69.69,0,0,0,.16-.47c0-.33-.37-.5-.72-.53l0,.08A.69.69,0,0,1,30.51,48.25Z" style="fill:#211f1f"/><path d="M26.85,42.17l.09.16a5.28,5.28,0,0,0-.37-3.45h-.13A5.08,5.08,0,0,1,26.85,42.17Z" style="fill:#211f1f"/><path d="M23.31,45.29h0l0,.1h0Z" style="fill:#211f1f"/><path d="M23.33,45.39l0,.08a.19.19,0,0,0,0-.08Z" style="fill:#211f1f"/><path d="M29.1,49.1,28.85,49l0,.11.12,0a1.8,1.8,0,0,0,1.31,0A.78.78,0,0,0,30.6,49l-.05-.09C30.33,49.32,29.57,49.24,29.1,49.1Z" style="fill:#211f1f"/><path d="M26.94,42.33l-.09-.16v0a4.17,4.17,0,0,1-.25.78.54.54,0,0,0,.07.13A5.13,5.13,0,0,0,26.94,42.33Z" style="fill:#211f1f"/><path d="M29.28,48.38a1.62,1.62,0,0,1,.78-.2h.11l-.05-.08a1.75,1.75,0,0,0-1.07.31l-.33.27,0,.09A2.11,2.11,0,0,1,29.28,48.38Z" style="fill:#211f1f"/><path d="M26.67,43.11c0,.06,0,.11.07.16a5.57,5.57,0,0,0,.3-.77l-.1-.17A5.13,5.13,0,0,1,26.67,43.11Z" style="fill:#211f1f"/><path d="M29.88,48a1.87,1.87,0,0,0-1.2.57l0,.09.33-.27a1.75,1.75,0,0,1,1.07-.31l0-.08Z" style="fill:#211f1f"/><path d="M30.33,49.19a1.8,1.8,0,0,1-1.31,0l-.12,0,.05.11a2.53,2.53,0,0,0,1.16.11.83.83,0,0,0,.53-.32l0-.08A.78.78,0,0,1,30.33,49.19Z" style="fill:#211f1f"/><path d="M25.93,50.76a.92.92,0,0,0-.28,1.06c.19.34.72.31,1.06.19a1.32,1.32,0,0,0,.79-.89c.05-.15.09-.31.14-.47l-.1,0s0,0,0,0a1.81,1.81,0,0,1-.59,1.14c-.27.2-.9.36-1.17,0s0-.87.36-1.12a1.41,1.41,0,0,1,1.35-.21l0-.07A1.61,1.61,0,0,0,25.93,50.76Z" style="fill:#211f1f"/><path d="M23.69,47l0,.09h.06l0-.09Z" style="fill:#211f1f"/><path d="M23.7,47c0-.08,0-.16,0-.25,0,.1-.05.19-.08.29h.11Z" style="fill:#211f1f"/><path d="M26.12,50.71c-.33.25-.63.79-.36,1.12s.9.17,1.17,0a1.81,1.81,0,0,0,.59-1.14s0,0,0,0l-.09,0a.56.56,0,0,0,0,.12,2.61,2.61,0,0,1-.25.71c-.2.35-.87.78-1.3.41-.22-.2-.08-.53,0-.73a1.35,1.35,0,0,1,.58-.5,1.41,1.41,0,0,1,1,0s0,0,0-.07A1.41,1.41,0,0,0,26.12,50.71Z" style="fill:#211f1f"/><path d="M22.73,48.29a2.39,2.39,0,0,1-1.14.9,1.12,1.12,0,0,1-1.37-.47c-.18-.51.48-.91.92-1.12A4.77,4.77,0,0,1,23,47.18h.41l0-.08a4.93,4.93,0,0,0-2.2.36c-.45.18-1,.51-1.13.94s.3.84.83.91c1,.15,1.56-.58,2-1.19a3.54,3.54,0,0,0,.55-.94h-.11A4.19,4.19,0,0,1,22.73,48.29Z" style="fill:#211f1f"/><path d="M23.78,45.39a.43.43,0,0,0,0-.11l-.1,0s0,.07,0,.1Z" style="fill:#211f1f"/><path d="M23.42,47.18h.11l0-.08h-.11Z" style="fill:#211f1f"/><path d="M23.58,47a.31.31,0,0,1,0,.08h.1l0-.09Z" style="fill:#211f1f"/><path d="M23.55,45.33l.11,0,0-.1-.1,0S23.54,45.3,23.55,45.33Z" style="fill:#211f1f"/><path d="M26.48,48a19.44,19.44,0,0,0,1.89.92l.06-.08a13,13,0,0,1-1.2-.55c-.56-.29-1.11-.62-1.69-.87a5,5,0,0,0-1.63-.4l0,.08H24A5.86,5.86,0,0,1,26.48,48Z" style="fill:#211f1f"/><path d="M23.31,45.29l0,.1.21-.06s0-.06,0-.09Z" style="fill:#211f1f"/><path d="M21.73,45.53a2.93,2.93,0,0,1-1.28-.37c-.38-.22-.6-.55-.33-.91a1.76,1.76,0,0,1,1.32-.5,2,2,0,0,1,2.09,1.49l.1,0a2.09,2.09,0,0,0-1-1.31,2.36,2.36,0,0,0-2.54.26c-.69.78.68,1.34,1.43,1.45a5.25,5.25,0,0,0,1.84-.22l0-.1A6,6,0,0,1,21.73,45.53Z" style="fill:#211f1f"/><path d="M23.68,45.41l-.1,0a2.68,2.68,0,0,1,0,.75l.09.23c0-.14,0-.3,0-.46A2.56,2.56,0,0,0,23.68,45.41Z" style="fill:#211f1f"/><path d="M23.78,45.39l-.1,0a2.56,2.56,0,0,1,.05.55c0,.16,0,.32,0,.46s.05.15.07.23A3.34,3.34,0,0,0,23.78,45.39Z" style="fill:#211f1f"/><path d="M23.57,45.43a.3.3,0,0,0,0-.1l-.21.06a.19.19,0,0,1,0,.08h0l.21,0Z" style="fill:#211f1f"/><path d="M23.57,45.43h0l.1,0s0-.07,0-.1l-.11,0A.3.3,0,0,1,23.57,45.43Z" style="fill:#211f1f"/><path d="M23.33,45.39a5.25,5.25,0,0,1-1.84.22c-.75-.11-2.12-.67-1.43-1.45a2.36,2.36,0,0,1,2.54-.26,2.09,2.09,0,0,1,1,1.31l.1,0h0a2.22,2.22,0,0,0-1.86-1.61c-.77-.11-2,.14-2.11.91s.95,1.07,1.57,1.19a4.37,4.37,0,0,0,1.76-.13l.27-.07h0Z" style="fill:#211f1f"/><path d="M23.66,46.73l-.06-.3a3.12,3.12,0,0,1-.11.53v0h.1C23.61,46.92,23.64,46.83,23.66,46.73Z" style="fill:#211f1f"/><path d="M23.63,45.21l0,.1.1,0h0s0-.06,0-.08h0Z" style="fill:#211f1f"/><path d="M23.56,47.1a.31.31,0,0,0,0-.08h-.1l0,.09Z" style="fill:#211f1f"/><path d="M23.76,45.28l.15,0a3.82,3.82,0,0,0,2.76-2.14A.54.54,0,0,1,26.6,43a3.73,3.73,0,0,1-.72,1.1,4.2,4.2,0,0,1-2.14,1.11s0,.05,0,.08Z" style="fill:#211f1f"/><path d="M28.52,48.9l.2-.21,0-.09a3.07,3.07,0,0,0-.25.26Z" style="fill:#211f1f"/><path d="M28.61,48.93l.14-.15,0-.09-.2.21Z" style="fill:#211f1f"/><path d="M23.91,45.25l-.15,0a.43.43,0,0,1,0,.11c.29-.07.57-.15.83-.24a3.8,3.8,0,0,0,2.13-1.88c0-.05,0-.1-.07-.16A3.82,3.82,0,0,1,23.91,45.25Z" style="fill:#211f1f"/><path d="M23,48.12c-.47.61-1,1.34-2,1.19-.53-.07-.95-.43-.83-.91s.68-.76,1.13-.94a4.93,4.93,0,0,1,2.2-.36l0-.09a4.86,4.86,0,0,0-3,.76.93.93,0,0,0-.45,1,1.15,1.15,0,0,0,1,.6c1.05.1,1.69-.75,2.17-1.41a3.36,3.36,0,0,0,.44-.81h-.1A3.54,3.54,0,0,1,23,48.12Z" style="fill:#211f1f"/><path d="M23.66,47.11l0,.08h.1v-.08Z" style="fill:#211f1f"/><path d="M28.46,49l-.06.08.09,0,.05-.07Z" style="fill:#211f1f"/><path d="M28.06,49.59a5.56,5.56,0,0,0-.46.87l.09,0,0-.07a8.6,8.6,0,0,1,.45-.85,3.84,3.84,0,0,1,.32-.5l-.09,0A3.77,3.77,0,0,0,28.06,49.59Z" style="fill:#211f1f"/><path d="M28.54,49l-.05.07h0l.44.15-.05-.11Z" style="fill:#211f1f"/><path d="M28.33,51.32a2.78,2.78,0,0,1-.57,2.38,2.87,2.87,0,0,1-1.49.9.83.83,0,0,1-.21.06v0h.17a3.39,3.39,0,0,0,.77-.29,2.43,2.43,0,0,0,1.07-1,2.19,2.19,0,0,0,0-2.58,1.26,1.26,0,0,0-.4-.28l0,.08A1.22,1.22,0,0,1,28.33,51.32Z" style="fill:#211f1f"/><path d="M28.61,48.93l-.07.08.36.12,0-.11Z" style="fill:#211f1f"/><path d="M27.57,50.53l.09,0,0-.08-.09,0Z" style="fill:#211f1f"/><path d="M23.56,47.1l0,.08h.1l0-.08Z" style="fill:#211f1f"/><path d="M28.32,49l.08,0,.06-.08-.09,0Z" style="fill:#211f1f"/><path d="M27.45,50.57l.09,0,0-.08-.1,0S27.46,50.55,27.45,50.57Z" style="fill:#211f1f"/><path d="M28.52,48.9l-.06.07.08,0,.07-.08Z" style="fill:#211f1f"/><path d="M27.64,50.65s0,0,0-.07l-.09,0,0,.08Z" style="fill:#211f1f"/><path d="M27.82,50.76a1.34,1.34,0,0,1,.51,1.1,2.89,2.89,0,0,1-.43,1.48,2.47,2.47,0,0,1-1.1,1l-.35.15h0a.44.44,0,0,1-.15.12,2.87,2.87,0,0,0,1.49-.9,2.78,2.78,0,0,0,.57-2.38,1.22,1.22,0,0,0-.67-.74s0,.05,0,.07Z" style="fill:#211f1f"/><path d="M27.47,50.5l.1,0,0-.07-.1,0Z" style="fill:#211f1f"/><path d="M26.7,48.24a15,15,0,0,0,1.62.77l.05-.07A19.44,19.44,0,0,1,26.48,48,5.86,5.86,0,0,0,24,47.13h-.06l0,.09a4.74,4.74,0,0,1,1,.2A10.41,10.41,0,0,1,26.7,48.24Z" style="fill:#211f1f"/><path d="M28.43,48.86l-.06.08.09,0,.06-.07Z" style="fill:#211f1f"/><path d="M27.72,50a4.71,4.71,0,0,0-.22.45l.1,0a5.56,5.56,0,0,1,.46-.87,3.77,3.77,0,0,1,.34-.54l-.08,0A8.85,8.85,0,0,0,27.72,50Z" style="fill:#211f1f"/><path d="M23.94,47.12h-.22v.08l.24,0Z" style="fill:#211f1f"/><path d="M23.77,47H23.7l0,.09h.22l0-.08Z" style="fill:#211f1f"/><path d="M26,54.66h-.11v0h.17v0Z" style="fill:#211f1f"/><path d="M25.89,54.66h0Z" style="fill:#211f1f"/><path d="M23.71,46.42l-.09-.23a1.94,1.94,0,0,1,0,.24l.06.3C23.68,46.63,23.69,46.53,23.71,46.42Z" style="fill:#211f1f"/><path d="M23.36,45.47h0Z" style="fill:#211f1f"/><path d="M23.78,46.65c0-.08-.05-.15-.07-.23,0,.11,0,.21-.05.31s0,.17,0,.25C23.73,46.87,23.76,46.76,23.78,46.65Z" style="fill:#211f1f"/><path d="M26.05,54.65h0a.83.83,0,0,0,.21-.06l-.18,0Z" style="fill:#211f1f"/><path d="M26.42,54.48a2.8,2.8,0,0,0-.31.09.09.09,0,0,1-.07,0v0h0l.18,0A.44.44,0,0,0,26.42,54.48Z" style="fill:#211f1f"/><path d="M26,54.6c-.14,0-.32,0-.45.06s0,.1.05.07a.53.53,0,0,1,.26,0v0c-.12,0-.24,0-.28,0s.16,0,.28,0h.16Z" style="fill:#211f1f"/><path d="M25.93,54.66h0Z" style="fill:#211f1f"/><path d="M15.88,24.18c.07-.09.13-.19.19-.28A1.07,1.07,0,0,0,15.88,24.18Z" style="fill:#dd8426"/><path d="M15.47,37.08c.21-1.08.6-2.17.82-3.25.38-1.86-.45-3.65-.77-5.46a49.55,49.55,0,0,1-.08,5.17,26.43,26.43,0,0,1-.75,4.81,12.53,12.53,0,0,1-.76,2.15c.21-.21.39-.42.55-.58A4.63,4.63,0,0,0,15.47,37.08Z" style="fill:#dd8426"/><path d="M15.88,24.18c-.49.72-1.11,1.44-1.64,2.17a5,5,0,0,0,1.2.37.76.76,0,0,0,0,.15,3.72,3.72,0,0,0,.24-.84A7.81,7.81,0,0,1,15.88,24.18Z" style="fill:#dd8426"/><path d="M32.09,21.49a1.59,1.59,0,0,1,.24-.2,10.26,10.26,0,0,0-2.07.23C30.87,21.52,31.48,21.5,32.09,21.49Z" style="fill:#dd8426"/><path d="M11.62,21.7l0,0c.22.28,0,.52-.13.79a.88.88,0,0,0-.1.3,16.45,16.45,0,0,0,3.16-1C13.66,21.88,12.61,21.71,11.62,21.7Z" style="fill:#dd8426"/><path d="M15.3,22.35a13.62,13.62,0,0,0-2.57,1.26l-.33.16a2.39,2.39,0,0,0,.13.28.94.94,0,0,0,.67.54l.16,0A7.44,7.44,0,0,1,15.3,22.35Z" style="fill:#dd8426"/><path d="M31.4,23.39a.62.62,0,0,1,.26,0c.2,0,.33,0,.39-.2a.54.54,0,0,0,0-.33,9.14,9.14,0,0,0-2.37-.47A9,9,0,0,0,31.4,23.39Z" style="fill:#dd8426"/><path d="M27.52,35c.27,1.92-.06,4.25,1.86,5.67.21.16.39.32.57.48a14.3,14.3,0,0,1-1.63-5.49A38.07,38.07,0,0,1,28,30.16a18.43,18.43,0,0,0-.24,2.21A10.91,10.91,0,0,0,27.52,35Z" style="fill:#dd8426"/><path d="M33,20.59a8.34,8.34,0,0,0-4.63.66h0a4.17,4.17,0,0,0-.79,0l0,0a.11.11,0,0,0-.06.17,7,7,0,0,1-2.78,3.47c-.92.61-2,1.09-2.9,1.73-.88-.64-2-1.13-2.91-1.73a6.85,6.85,0,0,1-2.78-3.47.11.11,0,0,0,0-.16l-.08,0a4.17,4.17,0,0,0-.79,0h0a8.32,8.32,0,0,0-4.63-.66.14.14,0,0,0-.12.12c0,.19.25.23.43.34a3,3,0,0,1,.76.65c1,0,2,.18,3,.15a16.45,16.45,0,0,1-3.16,1,.6.6,0,0,0,.05.32c.07.17.19.18.4.2s.4,0,.47.29c0,0,0,.09.05.13l.33-.16a13.62,13.62,0,0,1,2.57-1.26,7.44,7.44,0,0,0-1.94,2.26l.16,0c.23.11.26.52.28.7,0,.34,0,.75.4,1l0,0c.53-.73,1.15-1.45,1.64-2.17a1.07,1.07,0,0,1,.19-.28c-.06.09-.12.19-.19.28A7.81,7.81,0,0,0,15.69,26a3.72,3.72,0,0,1-.24.84c0,.5.05,1,.07,1.5.32,1.81,1.15,3.6.77,5.46-.22,1.08-.61,2.17-.82,3.25a4.63,4.63,0,0,1-1,2.84c-.16.16-.34.37-.55.58a7.7,7.7,0,0,1-1,1.59c-.08.1,0,.2.12.23a34.53,34.53,0,0,0,3.65.85c1,.19,1.93.34,2.91.46l.9.1c.4.05.81.09,1.21.12s.83-.07,1.24-.12l.91-.1c1-.12,1.94-.28,2.9-.46a34,34,0,0,0,3.65-.85c.12,0,.2-.13.12-.23a7.59,7.59,0,0,1-.62-.9c-.18-.16-.36-.32-.57-.48C27.46,39.29,27.79,37,27.52,35a10.91,10.91,0,0,1,.22-2.67A18.43,18.43,0,0,1,28,30.16c0-.69,0-1.38.05-2.07-.32-1.77-.14-4.36,1-5.82a27.85,27.85,0,0,1-.18,4.27,3,3,0,0,0,.52-.21c.41-.23.36-.64.39-1a1.25,1.25,0,0,1,.13-.53,3.57,3.57,0,0,1,0-1.17c.23.31.46.6.71.88a1,1,0,0,0,.48-.48,3,3,0,0,0,.17-.41c.05-.15.11-.22.22-.25a9,9,0,0,1-1.69-1,9.14,9.14,0,0,1,2.37.47c-.08-.37-.46-.71-.21-1.08a1.27,1.27,0,0,1,.22-.25c-.61,0-1.22,0-1.83,0a10.26,10.26,0,0,1,2.07-.23c.11-.09.23-.16.34-.24s.42-.15.43-.34A.14.14,0,0,0,33,20.59Z" style="fill:#f1a21e"/><path d="M29,22.27c-1.11,1.46-1.29,4.05-1,5.82V28c0-.43,0-.86.07-1.29.24-.05.48-.1.72-.17A27.85,27.85,0,0,0,29,22.27Z" style="fill:#dd8426"/><path d="M29.86,24.82a.5.5,0,0,1,.15-.17.87.87,0,0,1,.32-.06l.2-.06c-.25-.28-.48-.57-.71-.88A3.57,3.57,0,0,0,29.86,24.82Z" style="fill:#dd8426"/></svg>