<svg xmlns="http://www.w3.org/2000/svg" viewBox="0 0 28.8 80.05"><path d="M11.11,18.49c0-.31,6.56-.11,6.56-.11a13,13,0,0,0-.46,2.06,6.62,6.62,0,0,0,.46,2,3.68,3.68,0,0,1-3.18,1.33c-2.25.11-3.1-1.23-3.1-1.33a14.67,14.67,0,0,1,.1-1.75A11.86,11.86,0,0,0,11.11,18.49Z" style="fill:#7f5449"/><path d="M11.67,20.54a4.8,4.8,0,0,0,4.41.31,2.86,2.86,0,0,0,1-.82,1,1,0,0,0,.1-.51V19h-.29a37.34,37.34,0,0,1-4.87.1c-.28,0-.38-.1-.66-.1s-.18,0-.09.31A1.6,1.6,0,0,1,11.67,20.54Z" style="fill:#63413b"/><path d="M2.1,50.57a5.55,5.55,0,0,0,.37.72,1.6,1.6,0,0,0,.38.42c.09,0,.09.1.19.1a.36.36,0,0,1,.09.2v.31c0,.11-.19.21-.28.21s-.19,0-.19-.1a2.65,2.65,0,0,1-.84-.93,2,2,0,0,1-.28-.82c0-.21-.1-.41-.1-.62-.18.62.28,1.23.38,1.85a.42.42,0,0,0,.09.31,1.27,1.27,0,0,1,.28.41c.1.1.19.31.28.41s.1.11.1.21-.1.2-.19.31-.28.31-.47.2a.21.21,0,0,1-.19-.2c-.09-.11-.18-.31-.28-.41s-.18-.21-.18-.31A3.53,3.53,0,0,1,.69,51a1,1,0,0,1,.19-.72c.09-.11.09-.21.19-.31v-.21c0-.2.19-.31.37-.41L2,49c.18,0,.28,0,.28.1a.66.66,0,0,1-.1.42A1,1,0,0,0,2.1,50.57Z" style="fill:#63413b"/><path d="M.88,51.09c0,.2.09.41.09.62l.29.61.28.93v.41c0,.21-.1.31-.1.51l-.09.11c-.09.1-.28,0-.38-.11a.79.79,0,0,1-.18-.41,11.75,11.75,0,0,1-.57-1.95A12.22,12.22,0,0,1,0,48.62a2.69,2.69,0,0,1,.18-.82A6.53,6.53,0,0,1,.6,46.56s0-.1.09-.1a.1.1,0,0,1,.1.1c0-.1.18-.2.37-.31h.47a1.69,1.69,0,0,1,.66.21.59.59,0,0,1,.28.51c0,.11-.1.21,0,.31s0,.11.09.11a.77.77,0,0,1,.19.51c0,.21-.09.31-.09.51s.09.31.09.42a8.64,8.64,0,0,1,.47,1.44c0,.1.09.2,0,.3a.32.32,0,0,1-.28.11H2.38c-.09,0-.09-.11-.09-.21L2,49.55c-.1.41-.19.72-.29,1.13v.41c0,.51-.09,1.13-.09,1.64a3.92,3.92,0,0,1,0,1c-.09.21-.19.31-.37.31S1,53.87,1,53.66s-.09-.41-.09-.72-.09-.31-.09-.51v-.52a4,4,0,0,0-.1-1,5.28,5.28,0,0,0,.57-.82h0c0-.1,0-.21.09-.21a.83.83,0,0,1,0,.93.41.41,0,0,1-.09.21C.88,51,1,51.09.88,51.09Z" style="fill:#7f5449"/><path d="M2.85,50h0c0,.1.09.31.09.41s.1.31-.09.2H2.47c-.09,0-.18-.1-.28-.2v-.52c0-.1.1-.1.1,0A1,1,0,0,0,2.85,50Z" style="fill:#b7825a"/><path d="M.88,53v.72s0,.11-.09.11H.69a.41.41,0,0,1-.09-.21,2,2,0,0,1,.09-.72Z" style="fill:#b7825a"/><path d="M2,49.34c0-.1,0-.1-.1-.21a.17.17,0,0,0-.28,0c-.09.11-.19.21-.19.31-.09.31-.09.62-.18,1a1.89,1.89,0,0,0-.19,1,.42.42,0,0,0,.09.31v2.26c.28-.31.19-.62.19-1V51.5a1.49,1.49,0,0,1,.09-.62c.1-.41.19-.72.28-1.13.1.21.1.52.19.72s.47.41.38.31-.1-.41-.1-.51A4.8,4.8,0,0,0,2,49.34Z" style="fill:#63413b"/><path d="M1.35,52.73a2,2,0,0,1-.09,1s0,.11-.1.11l-.09.1v.31h.09c.1,0,.1,0,.1-.11l.09-.1.09-.2c.1-.21,0-.42,0-.72v-.21a.34.34,0,0,1-.09-.21h0" style="fill:#63413b"/><path d="M14.39,22.81a4.11,4.11,0,0,1-2-.41,2.85,2.85,0,0,1-.93-.93,19.32,19.32,0,0,0-3,.41,9.71,9.71,0,0,0-1.6.52A4.12,4.12,0,0,0,5.49,24c-.08.58-.19,1.06-.27,1.64a11.3,11.3,0,0,1-.15,1.71c-.07,1.13-.32,3.87-.51,4.94a17.28,17.28,0,0,1-.63,2.55c-.35.91-.83,1.76-1.23,2.57-.29.55-.62,1.78-.82,2.3a23.16,23.16,0,0,0-.77,3.49c-.11.48-.54,2.52-.57,3s.1.51.79.47c.47-.07.7-.27,1.11,0a4.23,4.23,0,0,0,.35-.9c.24-.43.66-1.69.9-2.11s2-4,2.23-4.38a11.26,11.26,0,0,0,.69-2.14c.12-.49.09-.81.16-1.16l.08-1.36c.18-.84.3-1.32.42-2-.08,0,.33-1.78.47-2.72a12.71,12.71,0,0,0,.09-2.64c0,.31.84,8.13.75,10.49a15.89,15.89,0,0,1-.94,4.53c-.18.62-.75,2.78-.84,3.29a38.8,38.8,0,0,0-.66,4.63c-.09,1.54,0,2.67-.09,4.22a18.35,18.35,0,0,0,.19,3.91c.18,1.54.47,3,.47,3.6s.37,1.85.09,2.46A12.86,12.86,0,0,0,6.33,69a35.76,35.76,0,0,0,.84,4.63c.1.31.75,3.09.19,4.12A4.62,4.62,0,0,1,6.24,79c-.1.1-.28.31-.28.41s0,.41.18.52h.19a3.42,3.42,0,0,0,1.78-.11c.1,0,.28-.1.38,0s.18.11.28.11a1.45,1.45,0,0,0,1.78-.41c.37-.72-.47-1.55-.09-2.37.09-.1,0-.31.09-.51a1.31,1.31,0,0,0,0-.83,16.38,16.38,0,0,1,0-3,10.27,10.27,0,0,1,.28-2.47,9.61,9.61,0,0,0,.38-1.54,17.67,17.67,0,0,0,0-3.09,22.54,22.54,0,0,1-.1-2.26,18.13,18.13,0,0,1,.94-3.81c.37-1.75,1.12-8.12,1.12-8.43a2.81,2.81,0,0,1,.38-1.13,1,1,0,0,1,.84-.52" style="fill:#7f5449"/><path d="M14.39,22.81a4.75,4.75,0,0,1-1-.09,3.43,3.43,0,0,1-.93-.32,2.85,2.85,0,0,1-.93-.93A24.61,24.61,0,0,0,8.64,22a4.59,4.59,0,0,0-1.75.68,4,4,0,0,0-1.23,1.61,4.53,4.53,0,0,0-.38,1.54C5.14,27,5,28,5,28.61c-.21,2.09-.23,2.61-.42,3.7a12.68,12.68,0,0,1-.63,2.55c-.35.91-.83,1.76-1.23,2.57-.29.55-.62,1.78-.82,2.3a23.16,23.16,0,0,0-.77,3.49c-.11.48-.54,2.52-.57,3s.1.51.79.47c.47-.07.7-.27,1.11,0a4.23,4.23,0,0,0,.35-.9c.24-.43.66-1.69.9-2.11s2-4,2.23-4.38a11.26,11.26,0,0,0,.69-2.14c.12-.49.09-.81.16-1.16l.08-1.36c.18-.84.3-1.32.42-2-.08,0,.33-1.78.47-2.72a12.71,12.71,0,0,0,.09-2.64c0,.31.84,8.13.75,10.49a15.89,15.89,0,0,1-.94,4.53c-.18.62-.75,2.78-.84,3.29a38.8,38.8,0,0,0-.66,4.63c-.09,1.54,0,2.67-.09,4.22a18.35,18.35,0,0,0,.19,3.91c.18,1.54.47,3,.47,3.6s.37,1.85.09,2.46A12.86,12.86,0,0,0,6.33,69a35.76,35.76,0,0,0,.84,4.63c.1.31.75,3.09.19,4.12A4.62,4.62,0,0,1,6.24,79c-.1.1-.28.31-.28.41s0,.41.18.52h.19a3.42,3.42,0,0,0,1.78-.11c.1,0,.28-.1.38,0s.18.11.28.11a1.45,1.45,0,0,0,1.78-.41c.37-.72-.47-1.55-.09-2.37.09-.1,0-.31.09-.51a1.31,1.31,0,0,0,0-.83,16.38,16.38,0,0,1,0-3,10.27,10.27,0,0,1,.28-2.47,9.61,9.61,0,0,0,.38-1.54,17.67,17.67,0,0,0,0-3.09,22.54,22.54,0,0,1-.1-2.26,18.13,18.13,0,0,1,.94-3.81c.37-1.75,1.12-8.12,1.12-8.43a2.81,2.81,0,0,1,.38-1.13,1.14,1.14,0,0,1,.52-.46.87.87,0,0,1,.32-.06C15.16,29.52,15,22.86,14.39,22.81Z" style="fill:#7f5449"/><path d="M26.7,50.46a7.22,7.22,0,0,1-.37.72c-.1.1-.19.3-.38.41s-.09.1-.19.1a.37.37,0,0,0-.09.21v.3c0,.11.19.21.28.21s.19,0,.19-.1a2.65,2.65,0,0,0,.84-.93,1.94,1.94,0,0,0,.28-.82c0-.21.1-.41.1-.62.18.62-.28,1.24-.38,1.85a.41.41,0,0,1-.09.31,1.27,1.27,0,0,0-.28.41c-.1.11-.19.31-.28.41s-.1.11-.1.21.1.21.19.31.28.31.47.2a.21.21,0,0,0,.19-.2c.09-.1.18-.31.28-.41s.18-.21.18-.31a3.53,3.53,0,0,0,.57-1.85,1,1,0,0,0-.19-.72c-.09-.11-.09-.21-.19-.31v-.21c0-.2-.19-.31-.37-.41l-.57-.31c-.18,0-.28,0-.28.11a.64.64,0,0,0,.1.41A1,1,0,0,1,26.7,50.46Z" style="fill:#63413b"/><path d="M27.92,51c0,.21-.09.41-.09.62l-.29.61-.28.93v.41c0,.21.1.31.1.52l.09.1c.09.1.28,0,.38-.1a.85.85,0,0,0,.18-.42,11.75,11.75,0,0,0,.57-2,12.22,12.22,0,0,0,.18-3.19,2.69,2.69,0,0,0-.18-.82,6.76,6.76,0,0,0-.38-1.24s0-.1-.09-.1a.1.1,0,0,0-.1.1c0-.1-.18-.2-.37-.3h-.47a1.67,1.67,0,0,0-.66.2.59.59,0,0,0-.28.52c0,.1.1.2,0,.3s0,.11-.09.11a.79.79,0,0,0-.19.51c0,.21.09.31.09.52s-.09.3-.09.41a8.64,8.64,0,0,0-.47,1.44c0,.1-.09.2,0,.31a.34.34,0,0,0,.28.1h.66c.09,0,.09-.1.09-.21l.28-.92c.1.41.19.72.29,1.13V51c0,.51.09,1.13.09,1.65a3.85,3.85,0,0,0,0,1c.09.21.19.31.37.31s.29-.2.29-.41.09-.41.09-.72.09-.31.09-.51v-.52a4,4,0,0,1,.1-1,5.28,5.28,0,0,1-.57-.82h0c0-.1,0-.2-.09-.2a.81.81,0,0,0,0,.92.41.41,0,0,0,.09.21C27.92,50.87,27.83,51,27.92,51Z" style="fill:#7f5449"/><path d="M26,49.84h0c0,.1-.09.31-.09.41s-.1.31.09.21h.38c.09,0,.18-.11.28-.21v-.51c0-.11-.1-.11-.1,0A1.1,1.1,0,0,1,26,49.84Z" style="fill:#b7825a"/><path d="M27.92,52.92v.72s0,.11.09.11h.1a.41.41,0,0,0,.09-.21,2,2,0,0,0-.09-.72Z" style="fill:#b7825a"/><path d="M26.79,49.22c0-.1,0-.1.1-.2a.16.16,0,0,1,.28,0c.09.1.19.2.19.3.09.31.09.62.18,1a1.89,1.89,0,0,1,.19,1,.42.42,0,0,1-.09.31V54c-.28-.31-.19-.61-.19-1V51.38a1.51,1.51,0,0,0-.09-.62c-.1-.41-.19-.72-.28-1.13-.1.21-.1.52-.19.72s-.47.41-.38.31.1-.41.1-.51A4.8,4.8,0,0,1,26.79,49.22Z" style="fill:#63413b"/><path d="M27.45,52.62a2,2,0,0,0,.09,1s0,.11.1.11l.09.1v.31h-.09c-.1,0-.1,0-.1-.1L27.45,54l-.09-.2c-.1-.21,0-.41,0-.72v-.21a.33.33,0,0,0,.09-.2h0" style="fill:#63413b"/><path d="M14.36,22.82a4.86,4.86,0,0,0,1.05-.09,3.13,3.13,0,0,0,.92-.33,2.76,2.76,0,0,0,.94-.92,23,23,0,0,1,2.85.55,4.35,4.35,0,0,1,1.74.68,4,4,0,0,1,1.24,1.61,4.79,4.79,0,0,1,.38,1.53c.13,1.18.23,2.13.3,2.77.21,2.08.23,2.61.42,3.7a12,12,0,0,0,.63,2.55c.35.91.83,1.75,1.22,2.56.29.56.62,1.79.83,2.3a24.87,24.87,0,0,1,.77,3.5c.11.48.53,2.52.56,3s-.09.51-.78.47c-.48-.07-.7-.27-1.11,0a4.93,4.93,0,0,1-.36-.91c-.24-.42-.65-1.68-.89-2.1s-2-4-2.24-4.39a10.89,10.89,0,0,1-.68-2.13A11.25,11.25,0,0,1,22,36l-.08-1.36c-.18-.84-.3-1.32-.43-2,.09,0-.32-1.78-.46-2.72a11.73,11.73,0,0,1-.09-2.64c0,.31-.85,8.13-.75,10.49a16.42,16.42,0,0,0,.93,4.53c.19.61.75,2.77.85,3.29a38.48,38.48,0,0,1,.65,4.63c.1,1.54,0,2.67.1,4.22a18.22,18.22,0,0,1-.19,3.9c-.19,1.55-.47,3-.47,3.6s-.37,1.86-.09,2.47A12.86,12.86,0,0,1,22.43,69a37.54,37.54,0,0,1-.85,4.63c-.09.31-.75,3.09-.18,4.12A4.62,4.62,0,0,0,22.52,79c.09.1.28.31.28.41s0,.41-.19.52h-.18a3.41,3.41,0,0,1-1.78-.11c-.1,0-.29-.1-.38,0s-.19.11-.28.11a1.45,1.45,0,0,1-1.78-.42c-.38-.72.47-1.54.09-2.36-.09-.1,0-.31-.09-.52a1.16,1.16,0,0,1,0-.82,16.38,16.38,0,0,0,0-3,10.8,10.8,0,0,0-.28-2.47,9.61,9.61,0,0,1-.38-1.54,16.74,16.74,0,0,1,0-3.09,22.54,22.54,0,0,0,.1-2.26,18,18,0,0,0-.94-3.81c-.38-1.75-1.13-8.12-1.13-8.43a2.64,2.64,0,0,0-.37-1.13,1.07,1.07,0,0,0-.53-.46.82.82,0,0,0-.32-.06C13.6,29.53,13.78,22.86,14.36,22.82Z" style="fill:#7f5449"/><path d="M6.8,44.31a24.13,24.13,0,0,1,.66-2.47,121.43,121.43,0,0,1,13.78,0,7.63,7.63,0,0,1,.65,2.36c.19.83-5.9,5.46-6.56,6a1.72,1.72,0,0,1-1.22.21.82.82,0,0,1-.65-.31C12.24,49,6.71,44.41,6.8,44.31Z" style="fill:#000068"/><ellipse cx="11.21" cy="28.36" rx="0.19" ry="0.21" style="fill:#2d2d2d"/><path d="M22.64,11.9a1.62,1.62,0,0,1,.38.31,1.71,1.71,0,0,1,.28.62,3,3,0,0,1-.56,2.47,1.44,1.44,0,0,1-1.22.72.63.63,0,0,1-.56-.21.51.51,0,0,1-.1-.61c0-.72.1-1.34.1-2.06C21.14,12.32,21.71,11.39,22.64,11.9Z" style="fill:#704843"/><path d="M6.24,11.9a1.62,1.62,0,0,0-.38.31,1.71,1.71,0,0,0-.28.62,3,3,0,0,0,.56,2.47A1.44,1.44,0,0,0,7.36,16a.63.63,0,0,0,.56-.21A.51.51,0,0,0,8,15.2c0-.72-.1-1.34-.1-2.06C7.74,12.32,7.17,11.39,6.24,11.9Z" style="fill:#704843"/><path d="M8.11,7.27a8.56,8.56,0,0,0-.75,4.33,36.26,36.26,0,0,0,.47,4.52c.66,2.47,4.22,4.12,4.5,4.22a4.86,4.86,0,0,0,4.13-.1A8.29,8.29,0,0,0,21,15.71a8.26,8.26,0,0,0,.46-3.7,20.72,20.72,0,0,0-.37-4.22,4.27,4.27,0,0,0-2.81-2.47,18.56,18.56,0,0,0-5.82-.21A5.74,5.74,0,0,0,8.11,7.27Z" style="fill:#7f5449"/><path d="M13.36,15.61c.1-.11.28.31,1,.31s.85-.42,1-.31.1.72-.84.82S13.17,15.81,13.36,15.61Z" style="fill:#63413b"/><path d="M12.52,17.46c.19-.1,1.12.31,1.87.31a5.3,5.3,0,0,0,1.78-.31c.19-.1,0,.62-1.78.62S12.52,17.46,12.52,17.46Z" style="fill:#63413b"/><path d="M14,18.59c.09.1.19.21.37.1s.19-.1.28-.1.19,0,.1.1a.42.42,0,0,1-.38.21.53.53,0,0,1-.47-.21C13.83,18.59,14,18.59,14,18.59Z" style="fill:#63413b"/><path d="M11.21,10.26a5.3,5.3,0,0,0-1.32.2c-.28.11-.47.21-.47.21s0-.93,1.6-.93c1.31,0,1.69.52,1.59.72S11.86,10.26,11.21,10.26Z" style="fill:#1c0803"/><path d="M17.77,10.26a5.15,5.15,0,0,1,1.31.2c.28.11.47.21.47.21s0-.93-1.59-.93c-1.32,0-1.69.52-1.6.72S17.11,10.26,17.77,10.26Z" style="fill:#1c0803"/><path d="M6.55,9.48A6.78,6.78,0,0,1,7,6.29V6.08a.39.39,0,0,0-.46,0l-.29.31a1,1,0,0,1-1,.31A1.13,1.13,0,0,1,4.48,6a2,2,0,0,0-.09-.72A1.5,1.5,0,0,1,2.51,4.13,1.4,1.4,0,0,1,3.92,2.59,2.1,2.1,0,0,1,3.64.94,1.57,1.57,0,0,1,4.86.22c.37,0,1,.31,1.12.72.38-.41.85-1,1.88-.41.47.31.75,1,.28,1.44A1.21,1.21,0,0,1,9,2c.28.1.47.21.47.51.1.62-.84.93-.75,1.34.28.52.66-.2,1-.31a8.81,8.81,0,0,1,4-1.13A8.81,8.81,0,0,1,18,2.9a9.64,9.64,0,0,1,1.78.92c.19,0,.29-.1.38-.31s-.19-.72-.19-1c-.09-.72.66-1.33,1.69-.82A1.12,1.12,0,0,1,22.58,0a1.38,1.38,0,0,1,1.68,1.33c0,.21-.18.31-.09.41s.38-.1.56-.2a1.65,1.65,0,0,1,1.32.62,1.78,1.78,0,0,1,.28,1.44c-.28.61-.75.51-1,.61l.37.31a1.32,1.32,0,0,1-.28,1.54c-.47.42-1.59.42-1.78-.1-.1-.1-.28,0-.38.1L23,6.39c-.19.11-.28-.31-.47-.41s-.47.1-.56.21c.56.41.38,1.33.47,2.05a15.12,15.12,0,0,1-.28,2.27c-.19.41-.38,1.75-.75,1.64a25.6,25.6,0,0,0-.28-3.7,4.49,4.49,0,0,0-.85-1.95,4.13,4.13,0,0,0-1.59-.93,13.72,13.72,0,0,0-6.47-.31,6.11,6.11,0,0,0-2.34.62,5.79,5.79,0,0,0-1.5,1.23,3.64,3.64,0,0,0-.75,1.65,4.78,4.78,0,0,0-.1,1.64,4.82,4.82,0,0,1,0,1.86C7.2,12.26,6.64,10.71,6.55,9.48Z" style="fill:#230700"/><path d="M6.61,4A1.49,1.49,0,0,1,9,3.47.57.57,0,0,0,9.24,4c.18,0-.85.52-1.32,1.13a5,5,0,0,0-.65,1.14S6.8,6,6.61,5.94A1.5,1.5,0,0,1,6.61,4Z" style="fill:#bc66cc"/><path d="M22.74,4a1.64,1.64,0,0,0-2.44-.61c0,.2-.28.3-.47.41s1,.72,1.5,1.33A4.88,4.88,0,0,1,22,6.25s.47-.21.65-.31S23.49,5.11,22.74,4Z" style="fill:#bc66cc"/><path d="M9.24,13c0-.72,1-1.24,2-1.24C12,11.8,13,12.32,13,13s-.66,1.23-1.69,1.23S9.24,13.76,9.24,13Z" style="fill:#ffecd8"/><ellipse cx="11.29" cy="13.03" rx="1.05" ry="1.01" transform="translate(-5.95 13.06) rotate(-49.18)" style="fill:#290600"/><ellipse cx="10.64" cy="12.93" rx="0.38" ry="0.41" style="fill:#fcfcfc"/><path d="M11.3,11.49c.47,0,1.69.41,1.78,1.34s-.19-1-1.87-1a1.94,1.94,0,0,0-2,1.54C9.14,11.7,10.46,11.49,11.3,11.49Z" style="fill:#230601"/><path d="M16,13c0-.72,1-1.24,2-1.24.75,0,1.78.52,1.78,1.24s-.66,1.23-1.69,1.23S16,13.76,16,13Z" style="fill:#ffecd8"/><ellipse cx="18.05" cy="13.03" rx="1.05" ry="1.01" transform="translate(-3.61 18.17) rotate(-49.18)" style="fill:#290600"/><ellipse cx="17.39" cy="12.93" rx="0.38" ry="0.41" style="fill:#fcfcfc"/><path d="M18.05,11.39c.47,0,1.69.41,1.78,1.34s-.19-1-1.87-1a1.94,1.94,0,0,0-2,1.54C15.89,11.7,17.21,11.39,18.05,11.39Z" style="fill:#230601"/><ellipse cx="17.77" cy="28.42" rx="0.19" ry="0.21" style="fill:#2d2d2d"/><path d="M22.55,41.55a20.51,20.51,0,0,1-1.36-3.75,21.28,21.28,0,0,1-.6-4.26,16.51,16.51,0,0,1,.28-4.79c.06,0,.13.35.19,1.92.53-.39,1.1-.79,1.73-1.19s1-.62,1.53-.89l-.45-2.49a4.67,4.67,0,0,0-1.66-3.44,4.52,4.52,0,0,0-3.05-1c-2,2.25-3.57,2.53-4.61,2.53a5.48,5.48,0,0,1-4.61-2.53,4.67,4.67,0,0,0-3.36.81,5.69,5.69,0,0,0-1.73,3.32,11.26,11.26,0,0,0-.38,3.07l3.06,1.91a8.81,8.81,0,0,1,.26-1.08c.07-.23.14-.44.21-.64a27.73,27.73,0,0,1,.11,6.16A28.21,28.21,0,0,1,7,40.85C4.89,47.76,1.08,57.47.51,58.91a3.09,3.09,0,0,0,1.73,1.92,10.15,10.15,0,0,0,2.4,0c1.38,1.22,5.65,2.3,9.91,2.3s8.54-1.08,9.92-2.3a3.4,3.4,0,0,0,2.66.08,3.28,3.28,0,0,0,1.47-1.21C25.25,48.42,23.51,43.6,22.55,41.55Z" style="fill:#f1b4d1"/><path d="M7.63,30.69,4.48,28.56l0,.2c.54.38,1.09.76,1.66,1.14l1.5,1Z" style="fill:#d28eb2"/><path d="M7.56,31a.29.29,0,0,0,0-.19.34.34,0,0,0-.22-.22l.32-.69c.11-.24.21-.48.32-.71-.09.35-.17.71-.26,1.08S7.62,30.74,7.56,31Z" style="fill:#d28eb2"/><path d="M14.7,23.8,11,25.54,9.11,21.46l1.05-.41S13.35,23.8,14.7,23.8Z" style="fill:#d28eb2"/><path d="M13.77,23.9l3.66,1.74,1.93-4.08-1.05-.42S15.12,23.9,13.77,23.9Z" style="fill:#d28eb2"/><path d="M12.08,44.44c-.47-.2-.66-1.17-.87-2.19-.1-.45-.19-.91-.31-1.3l-.09.48c.1.36.19.77.28,1.2.22,1.07.44,2.18,1,2.41s.81-.73,1.08-1.61.48-1.56.91-1.49.65.86.89,1.72.5,1.89,1,1.89h0c.53-.09.78-1.14,1-2.15s.42-1.8.85-1.95.68.51.94,1.25.57,1.64,1.11,1.32c0-.18-.09-.37-.13-.55-.4.14-.64-.54-.89-1.26s-.56-1.57-1-1.36S17.13,42,16.9,43s-.44,1.88-.91,2-.7-.82-.94-1.72-.49-1.85-1-1.89-.76.79-1,1.63S12.55,44.6,12.08,44.44Z" style="fill:#d28eb2"/><path d="M7.6,50.16c.56.4.89-.26,1.21-.9s.57-1.14,1-.88.66,1,.88,1.9.48,1.9,1,2.1.87-.63,1.16-1.4.51-1.37,1-1.3.7.74.95,1.5.54,1.65,1.09,1.65h0c.57-.08.83-1,1.09-1.87s.45-1.57.91-1.7.73.44,1,1.09.62,1.44,1.19,1.15.79-1.34,1-2.32A3.77,3.77,0,0,1,22,47.09a.43.43,0,0,1,.66.08c-.07-.23-.15-.47-.23-.7a.45.45,0,0,0-.46.11c-.52.37-.73,1.35-.94,2.29s-.4,1.82-.9,2.1-.78-.38-1.07-1.06-.59-1.37-1.11-1.19-.78,1-1,1.87-.47,1.64-1,1.71-.75-.71-1-1.5-.53-1.61-1.05-1.65-.81.69-1.09,1.42-.53,1.43-1,1.29-.71-1-.94-1.91-.45-1.82-1-2.08-.83.33-1.14,1-.59,1.18-1.08.83A2.24,2.24,0,0,1,7,48.46a3.62,3.62,0,0,1-.13.35A2.59,2.59,0,0,0,7.6,50.16Z" style="fill:#d28eb2"/><path d="M26.81,55a3.73,3.73,0,0,1-.48-.49c-.43-.5-.86-1-1.57-.55a4,4,0,0,0-1.31,2.36c-.3,1-.58,1.9-1.3,2.24s-1.09-.33-1.5-1-.8-1.32-1.51-1.11-1.07,1-1.41,1.89-.68,1.67-1.39,1.75-1.07-.71-1.44-1.51-.73-1.58-1.45-1.63-1.11.66-1.49,1.37-.74,1.43-1.46,1.25-1-1.07-1.35-2-.65-1.83-1.36-2.13-1.14.26-1.55.83-.82,1.14-1.52.72a4,4,0,0,1-1.25-2.46A10.58,10.58,0,0,0,3,52.94l-.14.26a10.58,10.58,0,0,1,.53,1.59,4.34,4.34,0,0,0,1.34,2.63c.77.47,1.21-.15,1.64-.75s.78-1.1,1.44-.79,1,1.11,1.27,2S9.7,59.78,10.48,60s1.19-.59,1.58-1.33.72-1.37,1.39-1.29,1,.76,1.35,1.53.74,1.61,1.48,1.61h.06c.78-.09,1.15-1,1.5-1.88s.65-1.61,1.31-1.76,1,.4,1.42,1,.83,1.37,1.61,1,1.09-1.39,1.4-2.38a3.77,3.77,0,0,1,1.22-2.22c.65-.43,1,0,1.46.53.15.16.29.33.44.47C26.74,55.24,26.78,55.11,26.81,55Z" style="fill:#d28eb2"/><ellipse cx="13.96" cy="24.76" rx="0.4" ry="0.37" style="fill:#d28eb2"/><path d="M21.18,30.52l3.15-2.14,0,.21-1.66,1.13c-.48.33-1.5,1-1.5,1Z" style="fill:#d28eb2"/><path d="M21.24,30.81s.28-.38.5-.4c-.11-.28-.23-.57-.36-.86s-.25-.59-.38-.86v.48a7.65,7.65,0,0,0,.08.91A4.21,4.21,0,0,0,21.24,30.81Z" style="fill:#d28eb2"/></svg>