<svg xmlns="http://www.w3.org/2000/svg" viewBox="0 0 39.44 46.07"><path d="M24.91,0h.15l.24,0h.13l.14.05h.07l.2.1h0l.06,0L26,.37c1.88,1,5.19,1.08,6.91,2.47C34.37,4,37.37,11.5,39.2,13.4a.75.75,0,0,1,.08,1c-.73.91-2.11,2.46-2.37,2.71-1.27,1.21-1.79,1.15-2.89,1.95a.75.75,0,0,1-1.15-.33A9.33,9.33,0,0,0,32,17a.63.63,0,0,0-.77-.28l-.05,0a35.37,35.37,0,0,0-.58,9.07c0,1.28.12,2.83.19,4.82,0,.64.08,1.38.14,2.18.35,4,1.49,9.68,1.35,12a.74.74,0,0,1-.71.69c-4,.18-8.41.25-12.39.44a35.19,35.19,0,0,1-6.41-.08c-1.63-.22-3.81-.74-5.59-.82a.77.77,0,0,1-.74-.74c0-2.32.8-4.43,1-6.58,0-.52.1-1,.14-1.56s.09-1.09.13-1.65c0-.41,0-.83,0-1.25,0-.88,0-1.78,0-2.69a23.76,23.76,0,0,1,0-3c.07-1.19.2-2.4.3-3.34a37,37,0,0,0,.14-4.71v-.08c0-.54.07-1.14,0-1.65a1.7,1.7,0,0,0-.16-.72,1.14,1.14,0,0,0-.54.11c-.49.18-1,1.18-1.26,1A30.64,30.64,0,0,1,2,15.85L.26,14.35a.75.75,0,0,1-.19-.88C.8,11.83,3.13,7.36,3.43,6.82,4,5.84,4.3,5.22,5.06,4A6.89,6.89,0,0,1,6.59,2.5,12.87,12.87,0,0,1,8.7,1.7,24.51,24.51,0,0,0,12,.46l0,0,.06,0,.12-.07C12.34.26,13-.06,13,0c.32.56,1.17,6.75,5.53,6.77C24.74,6.82,24.66,0,24.91,0Z" style="fill:#0e1a46"/><path d="M24.91,0l.93.24h0l.06,0A.75.75,0,0,0,26,.37,21.16,21.16,0,0,1,32.47,2.5c1.73,1,2.81,4.39,3.77,6.34-.28.31-.54.52-1,1-1.12-1.82-2-4.53-3.45-5.66-1.72-1.39-3.12-1.57-5.7-2.35a1.13,1.13,0,0,1-.18,0l-.06,0h0a3.28,3.28,0,0,0-1.36-.5Z" style="fill:#000333"/><path d="M13.12,0l-.93.24h0l-.06,0A.75.75,0,0,1,12,.39c-3.61.77-3.8.92-5.59,1.93s-3.33,5.1-4.28,7c.27.32.54.52,1,1C4.22,8.53,5.75,5.09,7.16,4c1.73-1.39,2.62-1.44,4.77-2.13a.58.58,0,0,0,.18,0l.06,0h0a7.34,7.34,0,0,1,1.25-.42C13.3.93,13.26.45,13.12,0Z" style="fill:#000333"/><path d="M8.32,17.47l-.08-.06a11.89,11.89,0,0,0,.6-4.26c0-.51,0-1,.05-1.54S9,10.5,9,10a22.23,22.23,0,0,0,.18-2.59,10.36,10.36,0,0,0-.88-4.13l.08-.06a10.45,10.45,0,0,1,.89,4.19A22.25,22.25,0,0,1,9.13,10c-.06.54-.12,1.09-.15,1.64s0,1-.05,1.53A12,12,0,0,1,8.32,17.47Z" style="fill:#000333"/><path d="M31.17,16.76c-.48-.09-1-2.07-1.26-3.24a33.52,33.52,0,0,1-.66-11.17h.09A33.21,33.21,0,0,0,30,13.48c.43,1.92.87,3.1,1.18,3.16Z" style="fill:#000333"/><path d="M25.86.27h0l-.05.22a11.64,11.64,0,0,1-2,5A5.68,5.68,0,0,1,19,8a4.24,4.24,0,0,1-2.12-.36,9,9,0,0,1-2.56-1.78A9.79,9.79,0,0,1,12.07.54l0-.1.18-.11A1.65,1.65,0,0,1,13,0h.06l0,.06a10.71,10.71,0,0,0,2.43,5.19,8,8,0,0,0,1.9,1.31A3,3,0,0,0,19,6.84a5.82,5.82,0,0,0,3.8-2,10.79,10.79,0,0,0,2-4.65l0-.2" style="fill:#0b173c"/><path d="M25.86.27h0l-.07.21c-.07.41-.15.78-.24,1.13h0a11.43,11.43,0,0,1-1.77,3.81A5.59,5.59,0,0,1,19,8a4,4,0,0,1-2.1-.36,8.91,8.91,0,0,1-2.55-1.76,8.93,8.93,0,0,1-2-4.12c-.08-.36-.16-.75-.25-1.2V.4l-.06,0,0,0V.54h0c.08.46.16.86.25,1.22a9.05,9.05,0,0,0,2.05,4.16,9,9,0,0,0,2.58,1.8,4,4,0,0,0,1.75.37H19a5.78,5.78,0,0,0,4.79-2.6,12,12,0,0,0,1.79-3.86c.09-.35.16-.72.24-1.12L25.92.3Zm-1-.24h-.06l0,.17c-.13.5-.26,1-.4,1.48a7.75,7.75,0,0,1-1.57,3.14,5.8,5.8,0,0,1-3.77,2h-.45a3,3,0,0,1-1.1-.26,8.23,8.23,0,0,1-1.88-1.31,9.92,9.92,0,0,1-2-3.55h0A12,12,0,0,1,13.17.06V0h-.1l0,.08a12.63,12.63,0,0,0,.37,1.5A10.3,10.3,0,0,0,15.53,5.3a8.39,8.39,0,0,0,1.91,1.33A3.18,3.18,0,0,0,19,6.9a5.9,5.9,0,0,0,3.82-2,8.11,8.11,0,0,0,1.62-3.3c.14-.45.26-.92.38-1.39l0-.22Z" style="fill:#000333"/><path d="M32.16,16.62a2,2,0,0,0-.93.1,5.3,5.3,0,0,1-.34-.45,5.21,5.21,0,0,1-.84-1.74,19.52,19.52,0,0,1-.32-2.45c-.11-.77-.32-1.52-.43-2.29a16.93,16.93,0,0,1,1,3.17,3.54,3.54,0,0,0,.84,2,2.31,2.31,0,0,1,.47.91C31.71,16.05,32.16,16.43,32.16,16.62Z" style="fill:#000333;opacity:0.4"/><path d="M8.94,14.64a14,14,0,0,1-.68,3.19,1.7,1.7,0,0,0-.16-.72,1.14,1.14,0,0,0-.54.11c.07-.52.3-1.1.4-1.59s.16-1,.22-1.44c.16-1.24.3-2.49.43-3.74a.83.83,0,0,1,.28.62,4.78,4.78,0,0,1,0,.76C8.8,12.77,9,13.71,8.94,14.64Z" style="fill:#000333;opacity:0.4"/><path d="M18.29,41.43a3.45,3.45,0,0,1-2.14.45c-2.29-.2-4.27-2.08-6.39-3.26A6.8,6.8,0,0,1,9,38.16a3.69,3.69,0,0,0-.5-.34,6.44,6.44,0,0,0-1-.06c0-.52.1-1,.14-1.56a2.76,2.76,0,0,1,2,.74c.44.4.79.92,1.21,1.34,1.69,1.71,4,1.52,6.1,2.12A2,2,0,0,1,18.29,41.43Z" style="fill:#000333;opacity:0.25"/><path d="M30.93,32.81h0c-.17.18-.45.06-.62.24a.82.82,0,0,0-.14.37,18.12,18.12,0,0,1-2.64,6c-.15-1.76.8-3.28,1.37-4.88a1.74,1.74,0,0,0,.12-1c-.18-.62-.83-.62-1.32-.51a1.52,1.52,0,0,1,.55-1.12,12.28,12.28,0,0,0,1.28-1.63,3.26,3.26,0,0,0,.4-.84,4.27,4.27,0,0,0-.23-2.14A23.43,23.43,0,0,1,29,22.1c.35-.09.51.55.58,1a6.23,6.23,0,0,0,.8,2.3,4.44,4.44,0,0,0,.27.38c0,1.28.12,2.83.19,4.82C30.82,31.27,30.87,32,30.93,32.81Z" style="fill:#000333;opacity:0.22"/><path d="M9,27.36a5.42,5.42,0,0,0,0,2.47,4.4,4.4,0,0,1,.26,1.89,3.07,3.07,0,0,1-.31.72l-1.2,2.11c0-.41,0-.83,0-1.25,0-.88,0-1.78,0-2.69a23.76,23.76,0,0,1,0-3c.07-1.19.2-2.4.3-3.34a37,37,0,0,0,.14-4.71v-.08A7.85,7.85,0,0,1,8.69,23a4.12,4.12,0,0,0,0,1.31,5.55,5.55,0,0,0,.48,1.05,3.44,3.44,0,0,1,.23,2Z" style="fill:#000333;opacity:0.25"/></svg>