<svg xmlns="http://www.w3.org/2000/svg" viewBox="0 0 150 100"><g style="isolation:isolate"><path d="M12.25.5q-2.52,23.74-5.5,48Q3.56,74.57,0,99.93l67.3-.26,12.3-45.39q4.2,23,8.41,45.91l61.48-2.88Q141.35,48.91,133.27.5Z" style="fill:#009a9a"/><g style="opacity:0.5;mix-blend-mode:multiply"><path d="M46.2,99.67c3.94.21,8.16.31,12.62.26,2.8,0,5.5-.13,8.09-.26q6.3-22,12.62-44.08l2.91,5.25L80.82,44.58Z" style="fill:#009a9a"/><path d="M132.27.77,108,0q2.61,21.36,6.47,44.07c3.24,18.89,7,37,11,54.31l23-.53Q140.35,49.31,132.27.77Z" style="fill:#009a9a"/></g></g></svg>