<svg xmlns="http://www.w3.org/2000/svg" viewBox="0 0 149.49 100.19"><path d="M21,.11q-5.49,24-10.72,48.76Q4.84,74.75,0,99.93l54.47-.76q9.45-23.61,18.89-47.23c3.55,7.9,15.87,40.36,18.13,47.49h59q-4.66-25-9.1-50.52Q137.13,24.48,133.27.5Z" style="fill:#009a9a"/><path d="M34.2,99.67c3.94.21,8.16.31,12.62.26,2.8,0,5.5-.13,8.09-.26l18.2-47.22,6.38,6.12q-2.43-7.65-4.85-15.31Z" style="fill:#0a6664"/><path d="M133.27.78,109,0q2.61,21.65,6.47,44.65c3.24,19.14,7,37.49,11,55l23-.54Q141.36,50,133.27.78Z" style="fill:#0a6664"/></svg>