<svg xmlns="http://www.w3.org/2000/svg" viewBox="0 0 17.16 20.77"><path d="M5.9,1.58a4.42,4.42,0,0,1-.48.81,23.88,23.88,0,0,0,6.42-.05,3.6,3.6,0,0,1-.44-.76,3.6,3.6,0,0,0,.44.76,20.93,20.93,0,0,0,3.54-.82L15,0A34.86,34.86,0,0,1,2.31,0,12.4,12.4,0,0,1,2,1.63a16.16,16.16,0,0,0,3.38.76A4.42,4.42,0,0,0,5.9,1.58Z" style="fill:#17bc9c"/><path d="M15.79,5c-.35-1.44-.46-2.6-.68-3.51a17.94,17.94,0,0,1-3.27.81A5.74,5.74,0,0,0,15.79,5Z" style="fill:#61e5cc"/><path d="M.06,20.77H8.4l-.09-1.61L.19,19C-.15,20.34.06,20.77.06,20.77Z" style="fill:#17bc9c"/><path d="M9.07,19l.09,1.71,8-.47a6.51,6.51,0,0,0-.1-1.9Z" style="fill:#17bc9c"/><path d="M6,2.44a24.72,24.72,0,0,1-4-.81c-.2.93-.49,2.18-.82,3.6A7.39,7.39,0,0,0,6,2.44Z" style="fill:#6bedd4"/><path d="M5.35,2.34A5.63,5.63,0,0,1,1.22,5.23C1,10.1.5,15.5.12,19l8.06.09.42-7.29V2.62C7.19,2.53,6.29,2.46,5.35,2.34Z" style="fill:#56dbc1"/><path d="M15.79,5a5.59,5.59,0,0,1-3.89-2.7,24.41,24.41,0,0,1-3.27.24v9.19L9.07,19l8-.66C16.74,15,16.28,9.61,15.79,5Z" style="fill:#49ceb4"/></svg>