<svg xmlns="http://www.w3.org/2000/svg" viewBox="0 0 32.13 27.41"><path d="M29.41,21.58a14,14,0,0,0,.33,1.87,1,1,0,0,0,.65.07A4.39,4.39,0,0,0,29.41,21.58Z" style="fill:#f6b4cd"/><path d="M26.34,22.79a8.71,8.71,0,0,0,.15,1.35h.1a.91.91,0,0,0,.46-.13A5.3,5.3,0,0,0,26.34,22.79Z" style="fill:#f6b4cd"/><path d="M9,24.45a5.65,5.65,0,0,0-1,2.1l.24.15A5.91,5.91,0,0,0,9.1,27l.08,0A7.71,7.71,0,0,0,9,24.45Z" style="fill:#f6b4cd"/><path d="M15.25,26.17a1.26,1.26,0,0,0,.49.39.83.83,0,0,0,.6,0,12.49,12.49,0,0,0-.56-2.94A7.9,7.9,0,0,0,15.25,26.17Z" style="fill:#f6b4cd"/><path d="M12.12,26.34c.26.21.45.43.63.59-.12-1.06-.33-2.13-.5-3.15A7.53,7.53,0,0,0,12.12,26.34Z" style="fill:#f6b4cd"/><path d="M1.55,24a2.67,2.67,0,0,0,.78.65c.26-.83.54-1.64.78-2.43A13,13,0,0,0,1.55,24Z" style="fill:#f6b4cd"/><path d="M4.18,25.12c.39.15.69-.05,1-.17A7.52,7.52,0,0,0,5.55,23,4.93,4.93,0,0,0,4.18,25.12Z" style="fill:#f6b4cd"/><path d="M13.13,24.35c0,1,.13,1.89.16,2.83a1.09,1.09,0,0,0,.64-.3C13.78,25.75,13.51,24.55,13.13,24.35Z" style="fill:#f6b4cd"/><path d="M17,26.15a2.5,2.5,0,0,1,.45-.12c-.17-.72-.26-1.46-.41-2.19A10.33,10.33,0,0,0,17,26.15Z" style="fill:#f6b4cd"/><path d="M29.86,20.26l-.21-.16L29.59,20l0,0,0-.05-.05-.1a.5.5,0,0,0,.1.63l-.63.33a.37.37,0,0,0-.14.07l.09,0-.09,0h0l-1.08.58a.48.48,0,0,0,0-.12c0-.23-.16-.41-.33-.39h0c-.18,0-.31.22-.3.45a.53.53,0,0,0,.14.32,4.15,4.15,0,0,1-2,.56h0a.26.26,0,0,0-.19-.06.21.21,0,0,0-.13.05h0A9,9,0,0,1,23,21.77a.13.13,0,0,0,0-.06c0-.24-.17-.41-.34-.4a.35.35,0,0,0-.28.28,6,6,0,0,0-1.74-.2,2.46,2.46,0,0,0-.92.28.32.32,0,0,0-.21-.08.4.4,0,0,0-.29.36h0a7.18,7.18,0,0,1-1.1.57.5.5,0,0,0,.16-.39c0-.24-.16-.41-.34-.4h0a.41.41,0,0,0-.29.45.38.38,0,0,0,.29.4h0l.17-.05-.17.05h0a2.14,2.14,0,0,1-.35.06,4,4,0,0,1-1,0,.51.51,0,0,0,.09-.33c0-.23-.16-.41-.33-.4a.49.49,0,0,0-.25.64l.24,0-.24,0h0l-1-.24h0c-.05-.16-.17-.27-.3-.25a.3.3,0,0,0-.22.13l-.4-.06a2.89,2.89,0,0,0-2.2.62h0v0c0-.23-.17-.41-.34-.39h0c-.17,0-.31.22-.29.45a.44.44,0,0,0,.12.31h0l.26-.18-.26.18h0a4.49,4.49,0,0,1-.61.37.27.27,0,0,0-.1.06l-.35.16a2.32,2.32,0,0,1-.77.17h0a.3.3,0,0,0-.31-.25.31.31,0,0,0-.25.22l.13,0H9.13a8.48,8.48,0,0,1-1.85-.52h0a.77.77,0,0,0,0-.15c0-.24-.16-.41-.34-.4a.36.36,0,0,0-.28.34,11,11,0,0,1-1.8-.85h0l-.07,0L4.42,22l.4.23.07,0a.36.36,0,0,0-.33-.34.35.35,0,0,0-.15.07l-.49-.28a.51.51,0,0,0,.14-.38c0-.23-.17-.41-.34-.39s-.3.22-.29.45a.13.13,0,0,0,0,.06h0a6.73,6.73,0,0,0-1.87-.67.47.47,0,0,0,.07-.29.39.39,0,0,0-.25-.39h0c0,.1-.08.2-.11.3s-.08.21-.11.32h.07l.17,0-.17,0A7.7,7.7,0,0,0,0,22.94,2.91,2.91,0,0,1,1.55,24a13,13,0,0,1,1.56-1.78c-.24.79-.52,1.6-.78,2.43a.77.77,0,0,0,.26.07c.37.05.51-.7.88-.57s.28.71.54.85a.56.56,0,0,0,.17.09A4.93,4.93,0,0,1,5.55,23,7.52,7.52,0,0,1,5.19,25a1,1,0,0,1,.51-.07,3.07,3.07,0,0,1,1,.74c.33.25.84.61,1.34.93a5.65,5.65,0,0,1,1-2.1,7.71,7.71,0,0,1,.15,2.62c.44.21.65.54,1.15.18.88-.73.52-1.93,1.72-1l.07.06a7.53,7.53,0,0,1,.13-2.56c.17,1,.38,2.09.5,3.15a.72.72,0,0,0,.54.25c0-.94-.14-1.87-.16-2.83.38.2.65,1.4.8,2.53l.16-.13c.29-.19.2-.75.56-.87s.41.11.6.29a7.9,7.9,0,0,1,.53-2.6,12.49,12.49,0,0,1,.56,2.94,5.36,5.36,0,0,0,.52-.28l.15-.08a10.33,10.33,0,0,1,0-2.31c.15.73.24,1.47.41,2.19a2.35,2.35,0,0,0,1.33-.46c.58-.53.58-1.05,1.35-1a10.85,10.85,0,0,1,1.68.11A11,11,0,0,1,22,23c.1.53.14,1.2.23,1.81a2.67,2.67,0,0,1,.7.34,9.86,9.86,0,0,1,.15-2.57,15.14,15.14,0,0,1,.75,3.22c.4.11.63-.28,1-.9.47-.86,1-.7,1.64-.71a8.71,8.71,0,0,1-.15-1.35A5.3,5.3,0,0,1,27.05,24c.51-.29.76-1,1.34-1.08.24-.05.84.33,1.35.52a14,14,0,0,1-.33-1.87,4.39,4.39,0,0,1,1,1.94c.13-.06.21-.2.21-.46,0-1,.88.5,1.53.11A23,23,0,0,0,29.86,20.26ZM9.28,23.81h0Zm1.53-.32.1,0Zm1.09-.69h0Zm3-.59Zm1.53.35.24,0Zm6.32-.88Zm4.54,0,.05,0Zm2.35-1.25.05,0Zm.08,0,.07,0Z" style="fill:#f392ad"/><path d="M23,25.1a1.86,1.86,0,0,1,.31.26,1.47,1.47,0,0,0,.59.39,15.14,15.14,0,0,0-.75-3.22A9.86,9.86,0,0,0,23,25.1Z" style="fill:#f6b4cd"/><path d="M21.82,24.64a3.74,3.74,0,0,1,.45.12c-.09-.61-.13-1.28-.23-1.81A11,11,0,0,0,21.82,24.64Z" style="fill:#f6b4cd"/><path d="M19,0a1.69,1.69,0,0,1,.38.07A1.69,1.69,0,0,0,19,0Z" style="fill:#f6b4cd"/><path d="M9.91,2.28a.21.21,0,0,1,.18.06c.41,0,.82-.1,1.23-.12a.21.21,0,0,1,.16-.08.27.27,0,0,1,.19.06h-.12c.42,0,.84,0,1.26,0a.28.28,0,0,1,.53,0l1.08,0h-.09a.37.37,0,0,1,.3-.37c.17,0,.32.16.33.39h0l1,0a.5.5,0,0,1,0-.12.39.39,0,0,1,.29-.46c.17,0,.32.17.33.4a.4.4,0,0,1,0,.19h1.06A.46.46,0,0,1,17.48,2a.41.41,0,0,1,.29-.45c.18,0,.33.16.34.4a.58.58,0,0,1-.08.3c.38,0,.75,0,1.12-.1a.59.59,0,0,1-.1-.29.41.41,0,0,1,.29-.45c.18,0,.33.16.34.4a.47.47,0,0,1-.06.27l.16,0,.11,0A14.11,14.11,0,0,0,19.65.19L19.42.11a.24.24,0,0,1-.14.05A.27.27,0,0,1,19,0l-.48,0A5.63,5.63,0,0,1,18,.05a.32.32,0,0,1-.26.25c-.13,0-.25-.08-.31-.24H17a4.22,4.22,0,0,1-.61,0,.38.38,0,0,1-.29.37c-.18,0-.33-.17-.34-.4h0l-.16,0L14.85.1h0s0,0,0,0a.4.4,0,0,1-.3.45c-.17,0-.32-.16-.33-.4v0l-1,0a.28.28,0,0,1,0,.09A.4.4,0,0,1,13,.73c-.17,0-.32-.16-.34-.4a.59.59,0,0,1,0-.14h-.1L11.7.36a.13.13,0,0,1,0,.06.41.41,0,0,1-.29.45c-.18,0-.33-.16-.34-.4h0l-.19,0a4.22,4.22,0,0,0-.82.35A.31.31,0,0,1,9.84,1h0a3.11,3.11,0,0,0-.28.23,4.74,4.74,0,0,0,0,1.16l.16,0A.26.26,0,0,1,9.91,2.28ZM18.51.45c.17,0,.32.16.33.39s-.12.44-.29.45-.33-.16-.34-.39S18.33.46,18.51.45ZM16.93.59h0c.18,0,.33.16.34.39s-.12.44-.3.45h0c-.17,0-.32-.16-.33-.39S16.76.6,16.93.59ZM15.36.73c.17,0,.32.16.34.39s-.12.44-.3.45-.32-.16-.33-.39S15.19.74,15.36.73ZM13.79.87h0c.17,0,.32.16.33.39s-.12.44-.29.45h0c-.17,0-.32-.16-.34-.39S13.61.88,13.79.87ZM12.21,1c.18,0,.33.16.34.39a.41.41,0,0,1-.29.46c-.18,0-.33-.17-.34-.4S12,1,12.21,1Zm-1.57.14c.18,0,.33.16.34.4a.4.4,0,0,1-.3.45c-.17,0-.32-.16-.33-.4A.41.41,0,0,1,10.64,1.15Z" style="fill:#f6b4cd"/><path d="M15.93,2.29h0Z" style="fill:#f6b4cd"/><path d="M11.9,22.79h0" style="fill:none;stroke:#f6b4cd;stroke-linecap:round;stroke-linejoin:round;stroke-width:0px"/><path d="M10.91,23.44l-.1,0" style="fill:none;stroke:#f6b4cd;stroke-linecap:round;stroke-linejoin:round;stroke-width:0px"/><path d="M9.55,23.82h0Z" style="fill:#f6b4cd"/><path d="M20.76,3.73l.16.23Z" style="fill:#f6b4cd"/><path d="M24.24,9.69l.32.58Z" style="fill:#f6b4cd"/><path d="M9.69,23.82h0Z" style="fill:#f6b4cd"/><path d="M18,22.57l.17-.05Z" style="fill:#f6b4cd"/><path d="M25.29,22.22h0Z" style="fill:#f6b4cd"/><path d="M11.53,23.05l.26-.18Z" style="fill:#f6b4cd"/><path d="M1.64,20.44a.47.47,0,0,1-.07.29,6.73,6.73,0,0,1,1.87.67.13.13,0,0,1,0-.06c0-.23.12-.44.29-.45s.33.16.34.39a.51.51,0,0,1-.14.38l.49.28a.35.35,0,0,1,.15-.07.36.36,0,0,1,.33.34,11,11,0,0,0,1.8.85A.36.36,0,0,1,7,22.72c.18,0,.33.16.34.4a.77.77,0,0,1,0,.15h0a8.48,8.48,0,0,0,1.85.52.31.31,0,0,1,.25-.22.3.3,0,0,1,.31.25,2.32,2.32,0,0,0,.77-.17l.35-.16a.27.27,0,0,1,.1-.06,4.49,4.49,0,0,0,.61-.37.44.44,0,0,1-.12-.31c0-.23.12-.44.29-.45h0c.17,0,.32.16.34.39v0h0a2.89,2.89,0,0,1,2.2-.62l.4.06a.3.3,0,0,1,.22-.13c.13,0,.25.09.3.25h0l1,.24a.49.49,0,0,1,.25-.64c.17,0,.32.17.33.4a.51.51,0,0,1-.09.33,4,4,0,0,0,1,0,2.14,2.14,0,0,0,.35-.06.38.38,0,0,1-.29-.4.41.41,0,0,1,.29-.45h0c.18,0,.33.16.34.4a.5.5,0,0,1-.16.39,7.18,7.18,0,0,0,1.1-.57.4.4,0,0,1,.29-.36.32.32,0,0,1,.21.08,2.46,2.46,0,0,1,.92-.28,6,6,0,0,1,1.74.2.35.35,0,0,1,.28-.28c.17,0,.32.16.34.4a.13.13,0,0,1,0,.06,9,9,0,0,0,1.95.44.21.21,0,0,1,.13-.05.26.26,0,0,1,.19.06,4.15,4.15,0,0,0,2-.56.53.53,0,0,1-.14-.32c0-.23.12-.44.3-.45h0c.17,0,.32.16.33.39a.48.48,0,0,1,0,.12l1.08-.58a.37.37,0,0,1,.14-.07l.63-.33a.5.5,0,0,1-.1-.63c-.08-.17-.18-.36-.3-.59a.34.34,0,0,1-.27.28c-.18,0-.33-.16-.34-.4a.4.4,0,0,1,.3-.45h0L27.05,15l-.24,0a.51.51,0,0,1,.08-.31l-.3-.59a.36.36,0,0,1-.28.31c-.18,0-.33-.16-.34-.39s.12-.44.29-.45h0l.27.51c-.63-1.21-1.31-2.49-2-3.77h-.06c-.17,0-.32-.16-.33-.39a.51.51,0,0,1,0-.25l-.3-.55a.31.31,0,0,1-.24.21c-.18,0-.33-.16-.34-.4a.43.43,0,0,1,.23-.43c.12.2.23.4.34.6-1-1.8-2-3.51-2.83-4.85h0c-.17,0-.32-.16-.33-.39a.81.81,0,0,1,0-.16l-.34-.52a.32.32,0,0,1-.17.09h0c-.18,0-.33-.17-.34-.4l.27,0h0l-.27,0A.52.52,0,0,1,20,2.59v0c-.34.09-.69.17-1,.23A.66.66,0,0,1,19,3L18.32,3a.28.28,0,0,1,0-.13c-.33,0-.66.06-1,.07h0a.77.77,0,0,1,0,.15l-.31,0-.32,0a.88.88,0,0,1,0-.17h-1a.41.41,0,0,1,.08.25l-.63,0A.65.65,0,0,1,15.25,3h0A24.1,24.1,0,0,0,12.7,3c-.78.07-1.55.22-2.33.28a4.53,4.53,0,0,1-.52,0C9,5.2,8,7,7.06,8.91h0c.17,0,.32.17.33.4a.41.41,0,0,1-.29.45.33.33,0,0,1-.32-.29c-.1.21-.19.42-.28.62a.48.48,0,0,1,.16.35.4.4,0,0,1-.3.45.26.26,0,0,1-.18-.07l.31-.72c-.12.26-.23.53-.34.8s-.16.37-.25.55h0a.5.5,0,0,1,0,.12.4.4,0,0,1-.29.46h0c-1.36,2.76-3.16,5.17-4.26,8.05A.39.39,0,0,1,1.64,20.44Zm26.55.17c-.17,0-.32-.17-.33-.4a.41.41,0,0,1,.29-.45c.18,0,.33.16.34.39A.41.41,0,0,1,28.19,20.61Zm-.14-3c.17,0,.32.16.33.39s-.12.44-.29.45-.32-.16-.34-.39S27.87,17.66,28.05,17.65Zm-24.39,2c-.18,0-.33-.16-.34-.4a.4.4,0,0,1,.3-.45c.17,0,.32.16.33.4A.41.41,0,0,1,3.66,19.62Zm.84,1c-.18,0-.33-.17-.34-.4a.4.4,0,0,1,.3-.45c.17,0,.32.16.33.39A.41.41,0,0,1,4.5,20.61ZM4.79,17l.32,0,.31,0c0,.24-.12.44-.29.45h0C5,17.38,4.8,17.2,4.79,17Zm.4,1.66h0c.17,0,.32.16.33.4a.4.4,0,0,1-.29.45h0c-.17,0-.32-.16-.33-.4A.4.4,0,0,1,5.19,18.63Zm.33-2.79a.4.4,0,0,1,.3-.45c.17,0,.32.16.33.39a.4.4,0,0,1-.29.46C5.69,16.25,5.54,16.07,5.52,15.84Zm-.18,5.75h0c-.18,0-.33-.16-.34-.39s.12-.44.29-.45h0c.18,0,.33.16.34.39S5.51,21.58,5.34,21.59Zm.58-4.09c.18,0,.33.17.34.4a.41.41,0,0,1-.29.45c-.18,0-.33-.16-.34-.39A.41.41,0,0,1,5.92,17.5ZM6,19.62c.17,0,.32.16.33.39a.39.39,0,0,1-.29.45c-.17,0-.32-.16-.34-.39S5.85,19.63,6,19.62Zm.14,3c-.17,0-.32-.16-.33-.4a.41.41,0,0,1,.29-.45c.18,0,.33.16.34.4A.4.4,0,0,1,6.17,22.58Zm14.66-7-.31,0c0-.23.12-.44.29-.45s.33.16.34.39Zm.32,0c0,.24-.12.44-.3.45h0c-.17,0-.32-.16-.33-.39l.31,0Zm-.4-1.66h0c-.17,0-.32-.16-.34-.4a.4.4,0,0,1,.3-.45c.17,0,.32.16.33.4A.41.41,0,0,1,20.75,13.84Zm-.11-2.12c-.17,0-.32-.16-.33-.39s.12-.44.29-.45h0c.18,0,.33.16.34.39S20.82,11.71,20.64,11.72Zm-.23,4.91c0,.23-.12.44-.29.45s-.32-.16-.34-.39.12-.44.3-.45S20.4,16.4,20.41,16.63ZM20,15c-.18,0-.33-.16-.34-.4a.41.41,0,0,1,.29-.45c.18,0,.33.16.34.4A.41.41,0,0,1,20,15Zm-.11-2.12c-.17,0-.32-.16-.34-.39s.12-.44.3-.45.32.16.33.39S20.08,12.84,19.91,12.85ZM19,15.7c0-.23.12-.44.29-.45s.32.16.34.39Zm.63-.06c0,.24-.12.44-.3.45S19,15.93,19,15.7Zm.23-4.9c-.18,0-.33-.16-.34-.4a.41.41,0,0,1,.29-.45c.18,0,.33.16.34.4A.41.41,0,0,1,19.81,10.74Zm-.34,2.79a.41.41,0,0,1-.29.45c-.18,0-.33-.16-.34-.4a.41.41,0,0,1,.29-.45C19.31,13.12,19.46,13.3,19.47,13.53Zm-.4-1.66c-.17,0-.32-.17-.33-.4S18.86,11,19,11s.32.16.34.39A.41.41,0,0,1,19.07,11.87ZM19,9.75c-.18,0-.33-.16-.34-.39a.41.41,0,0,1,.3-.46c.17,0,.32.17.33.4A.41.41,0,0,1,19,9.75Zm-.23,4.91a.4.4,0,0,1-.3.45c-.17,0-.32-.16-.33-.4a.41.41,0,0,1,.29-.45C18.57,14.25,18.72,14.42,18.74,14.66Zm.12-7c-.17,0-.32-.17-.33-.4a.41.41,0,0,1,.29-.45c.17,0,.32.16.34.39A.41.41,0,0,1,18.86,7.64Zm-.23,4.9c0,.24-.12.44-.29.45S18,12.83,18,12.6s.12-.44.3-.45S18.62,12.31,18.63,12.54Zm-.4-1.66c-.17,0-.32-.16-.33-.4a.41.41,0,0,1,.29-.45c.17,0,.33.16.34.4A.4.4,0,0,1,18.23,10.88Zm-.54,4.93-.32,0a.4.4,0,0,1,.3-.45h0c.17,0,.32.16.33.39Zm.31,0a.41.41,0,0,1-.29.46h0c-.18,0-.33-.17-.34-.4l.32,0Zm.13-7c-.18,0-.33-.16-.34-.39s.12-.44.3-.45.32.16.33.39S18.3,8.75,18.13,8.76Zm-.23,4.91c0,.23-.12.44-.3.45h0c-.17,0-.32-.16-.33-.39a.41.41,0,0,1,.29-.46h0C17.74,13.26,17.89,13.44,17.9,13.67ZM17.5,12h0c-.17,0-.32-.17-.34-.4a.4.4,0,0,1,.3-.45h0c.17,0,.32.16.33.39A.41.41,0,0,1,17.5,12Zm-.23,4.9c0,.24-.12.44-.3.45s-.32-.16-.33-.39.12-.44.29-.45S17.26,16.68,17.27,16.91Zm.12-7h0c-.17,0-.32-.16-.33-.39s.12-.44.29-.45h0c.18,0,.33.16.34.39S17.57,9.88,17.39,9.89Zm-.23,4.91a.41.41,0,0,1-.29.45c-.17,0-.32-.16-.34-.4a.4.4,0,0,1,.3-.45C17,14.39,17.15,14.56,17.16,14.8Zm-.4-1.67c-.17,0-.32-.16-.33-.39s.12-.44.29-.45.33.16.34.39S16.94,13.12,16.76,13.13ZM15.8,16a.41.41,0,0,1,.29-.45c.18,0,.33.16.34.4Zm.63-.05a.41.41,0,0,1-.29.45c-.18,0-.33-.16-.34-.4Zm-.73-2.06a.39.39,0,0,1,.29-.45c.17,0,.32.16.33.39s-.12.44-.29.45S15.71,14.1,15.7,13.87Zm1-2.85c-.17,0-.32-.16-.34-.4a.4.4,0,0,1,.3-.45c.17,0,.32.16.33.4A.4.4,0,0,1,16.66,11Zm-.1-2.12c-.18,0-.33-.16-.34-.39s.12-.44.29-.45.33.16.34.39S16.73,8.89,16.56,8.9Zm-.34,2.8a.41.41,0,0,1-.29.45c-.18,0-.33-.16-.34-.4a.41.41,0,0,1,.29-.45C16.06,11.29,16.21,11.46,16.22,11.7ZM15.82,10c-.17,0-.32-.16-.33-.39a.39.39,0,0,1,.29-.45c.17,0,.32.16.33.39S16,10,15.82,10Zm-.56,4.51c.17,0,.32.16.33.4a.41.41,0,0,1-.29.45c-.18,0-.33-.16-.34-.4A.4.4,0,0,1,15.26,14.54Zm-.4-1.66c0-.23.12-.44.29-.45s.32.16.34.39-.12.44-.3.45S14.87,13.11,14.86,12.88Zm.86-5c-.18,0-.33-.16-.34-.4a.41.41,0,0,1,.29-.45c.18,0,.33.16.34.4A.41.41,0,0,1,15.72,7.92Zm-.34,2.79a.41.41,0,0,1-.29.45c-.18,0-.33-.16-.34-.39a.41.41,0,0,1,.3-.46C15.22,10.3,15.37,10.48,15.38,10.71ZM14.75,14c0,.24-.12.44-.29.45h0c-.18,0-.33-.16-.34-.39s.12-.44.3-.45h0C14.59,13.54,14.74,13.72,14.75,14Zm-.21,2.14-.31,0a.41.41,0,0,1,.29-.45h0c.17,0,.33.16.34.4Zm.32,0a.4.4,0,0,1-.3.45c-.17,0-.32-.16-.33-.4l.31,0Zm.12-7c-.17,0-.32-.17-.33-.4a.41.41,0,0,1,.29-.45c.17,0,.32.16.34.39A.41.41,0,0,1,15,9.05Zm-.1-2.12c-.18,0-.33-.16-.34-.39a.41.41,0,0,1,.3-.46c.17,0,.32.17.33.4S15.05,6.92,14.88,6.93Zm-.23,4.91a.4.4,0,0,1-.3.45c-.17,0-.32-.16-.33-.4a.41.41,0,0,1,.29-.45C14.49,11.43,14.64,11.6,14.65,11.84Zm-.53,5.35a.41.41,0,0,1-.29.46c-.17,0-.32-.17-.34-.4s.12-.44.3-.45S14.11,17,14.12,17.19Zm.13-7c-.18,0-.33-.16-.34-.39s.12-.44.3-.45.32.16.33.39S14.42,10.16,14.25,10.17ZM14,15.08a.4.4,0,0,1-.3.45c-.17,0-.32-.16-.33-.39a.41.41,0,0,1,.29-.46C13.86,14.67,14,14.85,14,15.08Zm-1.13-.54c-.18,0-.33-.16-.34-.39s.12-.44.29-.45.33.16.34.39S13.06,14.53,12.89,14.54Zm.39,1.67-.63.05a.4.4,0,0,1,.3-.45C13.12,15.8,13.27,16,13.28,16.21Zm0,0a.4.4,0,0,1-.29.45c-.17,0-.32-.16-.34-.4Zm-.23,1.72c.18,0,.33.16.34.39s-.12.44-.29.45-.33-.16-.34-.39S12.88,17.94,13.05,17.93Zm.57-4.51c-.17,0-.32-.17-.34-.4a.4.4,0,0,1,.3-.45c.17,0,.32.16.33.39A.41.41,0,0,1,13.62,13.42Zm-.11-2.12c-.17,0-.32-.16-.33-.39s.12-.44.29-.45.33.16.34.39S13.69,11.29,13.51,11.3Zm-.1-2.11c-.17,0-.32-.16-.34-.4a.4.4,0,0,1,.3-.45c.17,0,.32.16.33.4A.41.41,0,0,1,13.41,9.19ZM13.07,12a.4.4,0,0,1-.29.45c-.17,0-.32-.16-.33-.4a.39.39,0,0,1,.29-.45C12.91,11.57,13.06,11.74,13.07,12Zm-.39-1.67c-.18,0-.33-.16-.34-.39s.12-.44.29-.45.33.16.34.39S12.85,10.3,12.68,10.31Zm-.23,4.91c0,.23-.12.44-.3.45s-.32-.16-.33-.39a.39.39,0,0,1,.29-.45C12.28,14.81,12.43,15,12.45,15.22Zm.12-7c-.17,0-.32-.16-.33-.4a.4.4,0,0,1,.29-.45c.17,0,.32.16.33.4A.4.4,0,0,1,12.57,8.2Zm-.23,4.91a.41.41,0,0,1-.29.45c-.18,0-.33-.16-.34-.4a.41.41,0,0,1,.29-.45C12.18,12.7,12.33,12.87,12.34,13.11Zm-.4-1.67c-.17,0-.32-.16-.33-.39a.39.39,0,0,1,.29-.45c.17,0,.32.16.34.39S12.12,11.43,11.94,11.44Zm-.54,4.94-.32,0a.4.4,0,0,1,.3-.45c.17,0,.32.16.33.4Zm.31,0a.41.41,0,0,1-.29.45h0c-.18,0-.33-.16-.34-.4l.32,0ZM11,14.29c0-.23.12-.44.29-.45h0c.17,0,.32.16.34.39s-.12.44-.3.45S11,14.52,11,14.29Zm.86-5c-.18,0-.33-.16-.34-.4a.41.41,0,0,1,.29-.45c.18,0,.33.16.34.4A.41.41,0,0,1,11.84,9.33Zm-.11-2.12c-.17,0-.32-.16-.33-.39a.39.39,0,0,1,.29-.45c.17,0,.32.16.34.39S11.91,7.2,11.73,7.21Zm-.23,4.91a.41.41,0,0,1-.29.45h0c-.18,0-.33-.16-.34-.39a.41.41,0,0,1,.3-.46h0C11.34,11.71,11.49,11.89,11.5,12.12ZM11,17.48a.4.4,0,0,1-.3.45c-.17,0-.32-.16-.33-.4a.41.41,0,0,1,.29-.45C10.82,17.07,11,17.24,11,17.48Zm.12-7h0c-.17,0-.32-.17-.33-.4s.12-.44.29-.45h0c.17,0,.32.16.34.39A.41.41,0,0,1,11.1,10.46Zm-.23,4.9c0,.23-.12.44-.29.45s-.33-.16-.34-.39.12-.44.3-.45S10.86,15.13,10.87,15.36Zm-.4-1.66c-.17,0-.32-.16-.33-.4a.41.41,0,0,1,.29-.45c.18,0,.33.16.34.4A.4.4,0,0,1,10.47,13.7Zm-1,2.85a.41.41,0,0,1,.29-.46c.18,0,.33.17.34.4Zm.63-.06a.4.4,0,0,1-.3.45c-.17,0-.32-.16-.33-.39ZM9.4,14.43A.4.4,0,0,1,9.7,14c.17,0,.32.16.33.39a.41.41,0,0,1-.29.46C9.57,14.84,9.42,14.66,9.4,14.43Zm1-2.85c-.17,0-.33-.16-.34-.39s.12-.44.3-.45.32.16.33.39S10.54,11.57,10.37,11.58Zm-.11-2.11c-.17,0-.32-.16-.33-.4a.41.41,0,0,1,.29-.45c.18,0,.33.16.34.4A.4.4,0,0,1,10.26,9.47Zm-.33,2.79c0,.23-.12.44-.3.45s-.32-.16-.33-.39.12-.44.29-.45S9.92,12,9.93,12.26ZM9,15.11c.18,0,.33.16.34.39s-.12.44-.29.45-.33-.16-.34-.39S8.79,15.12,9,15.11Zm-.39-1.67A.4.4,0,0,1,8.86,13c.17,0,.32.16.33.4a.4.4,0,0,1-.29.45C8.73,13.85,8.58,13.68,8.57,13.44Zm.5,3.78c.17,0,.32.16.33.4a.4.4,0,0,1-.29.45c-.17,0-.32-.16-.33-.4A.39.39,0,0,1,9.07,17.22Zm.46-6.62c-.17,0-.32-.17-.34-.4a.4.4,0,0,1,.3-.45c.17,0,.32.16.33.4A.4.4,0,0,1,9.53,10.6Zm-.1-2.12c-.18,0-.33-.16-.34-.39s.12-.44.29-.45.33.16.34.39S9.6,8.47,9.43,8.48Zm-.34,2.79c0,.24-.12.44-.29.45s-.33-.16-.34-.39.12-.44.29-.45S9.08,11,9.09,11.27Zm-.84,5.39-.31,0a.39.39,0,0,1,.29-.45h0c.17,0,.32.16.34.39Zm.32,0c0,.23-.12.44-.3.45h0c-.17,0-.32-.16-.33-.39l.31,0Zm-.11-2.11a.41.41,0,0,1-.29.45h0c-.18,0-.33-.16-.34-.4a.41.41,0,0,1,.29-.45h0C8.3,14.11,8.45,14.28,8.46,14.52Zm-.4-1.67h0c-.17,0-.32-.16-.33-.39A.39.39,0,0,1,8,12H8c.17,0,.32.16.34.39S8.24,12.84,8.06,12.85Zm-.23,4.91a.41.41,0,0,1-.29.45c-.18,0-.33-.16-.34-.4a.4.4,0,0,1,.3-.45C7.67,17.35,7.82,17.52,7.83,17.76Zm-.4-1.67c-.17,0-.32-.16-.33-.39s.12-.44.29-.45.32.16.34.39S7.61,16.08,7.43,16.09ZM7.33,14c-.18,0-.33-.16-.34-.4a.4.4,0,0,1,.3-.45c.17,0,.32.17.33.4A.41.41,0,0,1,7.33,14ZM7,16.77l-.63.06c0-.24.12-.44.3-.45S7,16.54,7,16.77Zm0,0c0,.23-.12.44-.29.45s-.32-.16-.34-.39Zm-.23,1.72c.18,0,.33.16.34.4a.4.4,0,0,1-.3.45c-.17,0-.32-.16-.33-.4A.41.41,0,0,1,6.76,18.49Zm.15,3c-.17,0-.33-.16-.34-.39s.12-.44.3-.45.32.16.33.39S7.08,21.44,6.91,21.45Zm.4-1.52c0-.23.12-.44.29-.45s.32.16.34.39-.12.44-.3.45S7.32,20.16,7.31,19.93Zm.44,2.51c-.18,0-.33-.16-.34-.4a.4.4,0,0,1,.3-.45c.17,0,.32.16.33.4A.41.41,0,0,1,7.75,22.44Zm.58-4.09h0c.18,0,.33.16.34.39a.41.41,0,0,1-.29.46h0c-.18,0-.33-.17-.34-.4A.41.41,0,0,1,8.33,18.35Zm.11,2.12h0c.17,0,.32.17.34.4s-.12.44-.3.45h0c-.17,0-.32-.16-.33-.39A.39.39,0,0,1,8.44,20.47Zm.15,3h0c-.18,0-.33-.17-.34-.4a.41.41,0,0,1,.29-.45h0c.18,0,.33.16.34.39A.41.41,0,0,1,8.59,23.43Zm.58-4.09c.18,0,.33.16.34.39s-.12.44-.29.45-.33-.16-.34-.39S9,19.35,9.17,19.34Zm.15,3c-.17,0-.32-.16-.34-.4a.4.4,0,0,1,.3-.45c.17,0,.32.16.33.4A.4.4,0,0,1,9.32,22.3Zm.29-3.64c0-.23.12-.44.3-.45s.32.16.33.39a.41.41,0,0,1-.29.46C9.78,19.07,9.63,18.89,9.61,18.66Zm.4,1.66c.18,0,.33.16.34.4a.4.4,0,0,1-.3.45c-.17,0-.32-.16-.33-.39A.41.41,0,0,1,10,20.32Zm.15,3c-.17,0-.32-.16-.34-.39s.12-.44.3-.45.32.16.33.39S10.33,23.27,10.16,23.28Zm.29-3.63c0-.24.12-.44.3-.45s.32.16.33.39S11,20,10.79,20,10.46,19.88,10.45,19.65Zm.44,2.51c-.17,0-.32-.16-.33-.4a.41.41,0,0,1,.29-.45c.17,0,.33.16.34.4A.4.4,0,0,1,10.89,22.16Zm.59-4.09c.17,0,.32.16.34.39s-.12.44-.3.45h0c-.17,0-.32-.16-.33-.39S11.31,18.08,11.48,18.07Zm.15,3h0c-.18,0-.33-.16-.34-.4a.4.4,0,0,1,.3-.45h0c.17,0,.32.16.33.4A.41.41,0,0,1,11.63,21Zm.29-3.64a.41.41,0,0,1,.29-.45c.18,0,.33.16.34.4a.41.41,0,0,1-.29.45C12.08,17.8,11.93,17.63,11.92,17.39Zm.4,1.67c.17,0,.32.16.33.39s-.12.44-.29.45-.32-.16-.33-.39A.39.39,0,0,1,12.32,19.06Zm.15,3c-.18,0-.33-.17-.34-.4a.41.41,0,0,1,.29-.45c.18,0,.33.16.34.39A.41.41,0,0,1,12.47,22Zm.73-1.13c-.17,0-.32-.16-.34-.4a.4.4,0,0,1,.3-.45c.17,0,.32.16.33.4A.4.4,0,0,1,13.2,20.89Zm.69-2c.18,0,.33.17.34.4a.4.4,0,0,1-.3.45c-.17,0-.32-.16-.33-.39A.41.41,0,0,1,13.89,18.91Zm.15,3c-.18,0-.33-.16-.34-.39s.12-.44.3-.45.32.16.33.39S14.21,21.86,14,21.87Zm.59-4.08h0c.17,0,.32.16.33.39s-.12.44-.29.45h0c-.18,0-.33-.16-.34-.39S14.45,17.8,14.63,17.79Zm.14,3c-.17,0-.32-.16-.33-.4a.41.41,0,0,1,.29-.45h0c.17,0,.32.16.34.4A.4.4,0,0,1,14.77,20.75Zm.3-3.64c0-.23.12-.44.29-.45s.32.16.34.39-.12.44-.3.45S15.08,17.34,15.07,17.11Zm.39,1.66c.18,0,.33.16.34.4a.41.41,0,0,1-.29.45c-.18,0-.33-.16-.34-.4A.41.41,0,0,1,15.46,18.77Zm.15,3c-.17,0-.32-.16-.33-.39s.12-.44.29-.45.32.16.34.39S15.79,21.72,15.61,21.73Zm.59-4.08c.17,0,.32.16.33.39s-.12.44-.29.45-.32-.16-.33-.39A.39.39,0,0,1,16.2,17.65Zm.15,3c-.18,0-.33-.17-.34-.4a.41.41,0,0,1,.29-.45c.18,0,.33.16.34.39A.41.41,0,0,1,16.35,20.61Zm.39-1.53a.4.4,0,0,1,.3-.45c.17,0,.32.16.33.4a.41.41,0,0,1-.29.45C16.91,19.49,16.76,19.32,16.74,19.08Zm.44,2.51c-.17,0-.32-.16-.33-.39s.12-.44.29-.45.33.16.34.39S17.36,21.58,17.18,21.59Zm.59-4.09h0c.18,0,.33.17.34.4a.4.4,0,0,1-.3.45h0c-.17,0-.32-.16-.33-.39A.41.41,0,0,1,17.77,17.5Zm.15,3h0c-.18,0-.33-.16-.34-.39s.12-.44.3-.45h0c.17,0,.32.16.33.39S18.09,20.45,17.92,20.46Zm.59-4.08c.17,0,.32.16.33.39s-.12.44-.29.45-.33-.16-.34-.39S18.33,16.39,18.51,16.38Zm-.19,2.56a.41.41,0,0,1,.29-.45c.17,0,.32.16.34.4a.4.4,0,0,1-.3.45C18.48,19.35,18.33,19.18,18.32,18.94Zm.44,2.51c-.18,0-.33-.16-.34-.39s.12-.44.3-.45.32.16.33.39S18.93,21.44,18.76,21.45Zm.58-4.09c.18,0,.33.16.34.4a.41.41,0,0,1-.29.45c-.18,0-.33-.16-.34-.4A.41.41,0,0,1,19.34,17.36Zm.15,3c-.17,0-.32-.16-.33-.39s.12-.44.29-.45.32.16.33.39A.39.39,0,0,1,19.49,20.32Zm.69-2c.18,0,.33.16.34.39a.41.41,0,0,1-.29.46c-.18,0-.33-.17-.34-.4A.41.41,0,0,1,20.18,18.35Zm.15,3c-.17,0-.32-.16-.34-.39s.12-.44.3-.45.32.16.33.39S20.5,21.3,20.33,21.31Zm.29-3.64a.4.4,0,0,1,.3-.45h0c.17,0,.32.16.33.4a.41.41,0,0,1-.29.45h0C20.79,18.08,20.64,17.91,20.62,17.67Zm1.47-2.25c0-.24.12-.44.3-.45s.32.16.33.39Zm.63-.06c0,.23-.12.44-.29.45s-.33-.16-.34-.39Zm-.4-1.66c-.17,0-.32-.16-.33-.4a.41.41,0,0,1,.29-.45c.17,0,.32.16.34.4A.4.4,0,0,1,22.32,13.7Zm-.1-2.12c-.18,0-.33-.16-.34-.39s.12-.44.3-.45.32.16.33.39S22.39,11.57,22.22,11.58Zm-.34,2.79a.41.41,0,0,1-.29.46c-.18,0-.33-.17-.34-.4a.4.4,0,0,1,.3-.45C21.72,14,21.87,14.14,21.88,14.37Zm-.4-1.66c-.17,0-.32-.16-.33-.39s.12-.44.29-.45.33.16.34.39S21.66,12.7,21.48,12.71Zm-.42,7.47h0c-.17,0-.32-.16-.33-.39s.12-.44.29-.45h0c.18,0,.33.16.34.39S21.24,20.17,21.06,20.18Zm.59-4.09c.18,0,.33.17.34.4a.4.4,0,0,1-.3.45c-.17,0-.32-.16-.33-.39A.41.41,0,0,1,21.65,16.09Zm.11,2.12c.17,0,.32.16.33.39a.41.41,0,0,1-.29.46c-.18,0-.33-.17-.34-.4S21.58,18.22,21.76,18.21Zm.14,3c-.17,0-.32-.16-.33-.39a.41.41,0,0,1,.29-.46c.17,0,.33.17.34.4A.4.4,0,0,1,21.9,21.17Zm.59-4.09c.17,0,.32.16.34.4a.4.4,0,0,1-.3.45c-.17,0-.32-.16-.33-.4A.41.41,0,0,1,22.49,17.08Zm.15,3c-.18,0-.33-.16-.34-.39s.12-.44.29-.45.33.16.34.39S22.81,20,22.64,20Zm.29-3.64a.41.41,0,0,1,.29-.45c.18,0,.33.16.34.4a.41.41,0,0,1-.29.45C23.09,16.81,22.94,16.64,22.93,16.4ZM23,18.52c0-.23.12-.44.29-.45s.32.16.33.39a.39.39,0,0,1-.29.45C23.2,18.93,23.05,18.75,23,18.52ZM23.48,21c-.18,0-.33-.16-.34-.4a.41.41,0,0,1,.29-.45c.18,0,.33.16.34.4A.41.41,0,0,1,23.48,21Zm.18-5.75.32,0,.31,0c0,.23-.12.44-.29.45S23.68,15.51,23.66,15.28Zm.4,1.66c.18,0,.33.16.34.4a.4.4,0,0,1-.3.45c-.17,0-.32-.16-.33-.4A.41.41,0,0,1,24.06,16.94Zm.11,2.12c.17,0,.32.16.33.39s-.12.44-.29.45-.32-.16-.34-.39S24,19.07,24.17,19.06Zm.14,3c-.17,0-.32-.17-.33-.4a.41.41,0,0,1,.29-.45c.18,0,.33.16.34.39A.41.41,0,0,1,24.31,22Zm.93-3.7c0,.24-.12.44-.3.45s-.32-.16-.33-.39.12-.44.29-.45S25.23,18.09,25.24,18.32Zm0-3.18.63-.06c0,.23-.12.44-.3.45S25.25,15.37,25.24,15.14Zm-.19,5.75c-.18,0-.33-.16-.34-.4A.4.4,0,0,1,25,20c.17,0,.32.16.33.4A.41.41,0,0,1,25.05,20.89Zm.84,1c-.18,0-.33-.16-.34-.39s.12-.44.3-.45.32.16.33.39S26.06,21.86,25.89,21.87Zm-.44-2.5a.41.41,0,0,1,.29-.46c.17,0,.32.17.34.4a.4.4,0,0,1-.3.45C25.61,19.78,25.46,19.6,25.45,19.37Zm1.17,1.38c-.17,0-.32-.16-.33-.4a.4.4,0,0,1,.29-.45c.17,0,.32.16.33.4A.39.39,0,0,1,26.62,20.75Zm.74-1.13h0c-.18,0-.33-.16-.34-.4a.41.41,0,0,1,.29-.45h0c.18,0,.33.16.34.4A.41.41,0,0,1,27.36,19.62Zm.18-2.57a.39.39,0,0,1-.29.45h0c-.17,0-.32-.16-.33-.39s.11-.44.29-.45h0C27.38,16.64,27.53,16.82,27.54,17.05ZM27.05,15c.06.13.13.26.2.39l-.1,0h0c-.18,0-.33-.16-.34-.4Zm-.53,3.66c-.18,0-.33-.16-.34-.39s.12-.44.29-.45.33.16.34.39S26.69,18.62,26.52,18.63Zm-.15-3c.17,0,.32.16.34.4a.4.4,0,0,1-.3.45c-.17,0-.32-.16-.33-.4A.4.4,0,0,1,26.37,15.67ZM26,17.19a.41.41,0,0,1-.29.46c-.18,0-.33-.17-.34-.4a.4.4,0,0,1,.3-.45C25.81,16.78,26,17,26,17.19Zm-.73-2.05a.41.41,0,0,1,.29-.46c.17,0,.33.17.34.4Zm.19-2.57c.17,0,.32.16.33.39a.41.41,0,0,1-.29.46c-.18,0-.33-.17-.34-.4A.4.4,0,0,1,25.43,12.57Zm-.59,4.09c-.17,0-.32-.16-.34-.4a.4.4,0,0,1,.3-.45c.17,0,.32.16.33.4A.41.41,0,0,1,24.84,16.66Zm-.11-2.12c-.17,0-.32-.16-.33-.39s.12-.44.29-.45.33.16.34.39S24.91,14.53,24.73,14.54Zm-.14-3c.17,0,.32.16.33.4a.41.41,0,0,1-.29.45c-.17,0-.32-.16-.34-.4A.4.4,0,0,1,24.59,11.58Zm-.3,3.64-.31,0-.32,0c0-.24.12-.44.3-.45S24.28,15,24.29,15.22Zm-.39-1.66c-.18,0-.33-.16-.34-.4a.41.41,0,0,1,.29-.45c.18,0,.33.16.34.4A.41.41,0,0,1,23.9,13.56Zm-.15-3c.17,0,.32.16.33.39s-.12.44-.29.45-.32-.16-.34-.39S23.57,10.61,23.75,10.6Zm-.3,3.63a.39.39,0,0,1-.29.45c-.17,0-.32-.16-.33-.39s.12-.44.29-.45S23.44,14,23.45,14.23Zm-.39-1.66c-.18,0-.33-.16-.34-.39a.41.41,0,0,1,.29-.46c.18,0,.33.17.34.4A.41.41,0,0,1,23.06,12.57ZM23,10.46c-.17,0-.32-.17-.33-.4s.12-.44.29-.45.32.16.33.39A.39.39,0,0,1,23,10.46Zm-.15-3c.18,0,.33.17.34.4s-.12.44-.29.45-.33-.16-.34-.39A.41.41,0,0,1,22.8,7.49Zm-.69,2c-.17,0-.32-.16-.33-.4a.41.41,0,0,1,.29-.45c.17,0,.32.16.34.4A.4.4,0,0,1,22.11,9.47Zm-.14-3c.17,0,.32.16.33.39s-.12.44-.29.45-.33-.16-.34-.39S21.79,6.52,22,6.51Zm-.59,4.09c-.18,0-.33-.17-.34-.4a.4.4,0,0,1,.3-.45c.17,0,.32.16.33.4A.41.41,0,0,1,21.38,10.6Zm-.11-2.12c-.17,0-.32-.16-.33-.39s.12-.44.29-.45.33.16.34.39S21.45,8.47,21.27,8.48Zm-.14-3c.17,0,.32.16.33.4a.41.41,0,0,1-.29.45c-.17,0-.33-.16-.34-.4A.4.4,0,0,1,21.13,5.52Zm-.3,3.64a.41.41,0,0,1-.29.45c-.17,0-.32-.16-.34-.4a.4.4,0,0,1,.3-.45h0C20.67,8.75,20.82,8.92,20.83,9.16Zm-.4-1.67h0c-.17,0-.32-.16-.33-.39s.12-.44.29-.45h0c.18,0,.33.16.34.39S20.61,7.48,20.43,7.49Zm-.14-3h0c.17,0,.32.17.33.4a.4.4,0,0,1-.29.45h0C20.16,5.4,20,5.22,20,5A.41.41,0,0,1,20.29,4.53ZM20,8.17a.39.39,0,0,1-.29.45c-.17,0-.32-.16-.33-.39a.39.39,0,0,1,.29-.45C19.83,7.76,20,7.94,20,8.17ZM19.6,6.51c-.18,0-.33-.16-.34-.4a.41.41,0,0,1,.29-.45c.18,0,.33.16.34.4A.41.41,0,0,1,19.6,6.51Zm-.15-3c.17,0,.32.16.33.39a.39.39,0,0,1-.29.45c-.17,0-.32-.16-.33-.39A.39.39,0,0,1,19.45,3.55Zm-.4,1.52c0,.23-.12.44-.29.45s-.33-.16-.34-.39a.41.41,0,0,1,.3-.46C18.89,4.66,19,4.84,19.05,5.07ZM19,3a.4.4,0,0,1-.3.45c-.17,0-.32-.17-.33-.4ZM18.32,6.2a.4.4,0,0,1-.3.45c-.17,0-.32-.16-.33-.4A.41.41,0,0,1,18,5.8C18.16,5.79,18.31,6,18.32,6.2Zm-.44-2.51c.17,0,.32.16.33.39s-.12.44-.29.45-.33-.16-.34-.39S17.7,3.7,17.88,3.69Zm-.59,4.09h0c-.17,0-.32-.16-.34-.4a.4.4,0,0,1,.3-.45h0c.17,0,.32.16.33.4A.41.41,0,0,1,17.29,7.78Zm.19-2.57c0,.23-.12.44-.3.45h0c-.17,0-.32-.16-.33-.39s.12-.44.29-.45h0C17.32,4.8,17.47,5,17.48,5.21Zm-.42-2.09.31,0a.41.41,0,0,1-.29.45h0c-.17,0-.32-.16-.34-.4Zm-.61,3.67c-.17,0-.32-.16-.34-.4a.4.4,0,0,1,.3-.45c.17,0,.32.16.33.4A.4.4,0,0,1,16.45,6.79Zm-.15-3c.18,0,.33.16.34.39s-.12.44-.29.45S16,4.51,16,4.28,16.13,3.84,16.3,3.83Zm-.39,1.52c0,.24-.12.44-.3.45s-.32-.16-.33-.39A.39.39,0,0,1,15.57,5C15.74,4.94,15.89,5.12,15.91,5.35ZM15.8,3.24a.41.41,0,0,1-.29.45c-.18,0-.33-.16-.34-.4ZM14.73,4c.17,0,.32.16.34.39a.41.41,0,0,1-.3.46c-.17,0-.32-.17-.33-.4A.41.41,0,0,1,14.73,4Zm-.59,4.09c-.17,0-.32-.16-.33-.4a.41.41,0,0,1,.29-.45h0c.18,0,.33.16.34.4A.4.4,0,0,1,14.14,8.06ZM14,5.94h0c-.17,0-.33-.16-.34-.39s.12-.44.3-.45h0c.17,0,.32.16.33.39S14.21,5.93,14,5.94Zm-.15-3h0c.18,0,.33.16.34.4l-.32,0-.31,0A.41.41,0,0,1,13.89,3Zm0,.43.32,0a.4.4,0,0,1-.3.45c-.17,0-.32-.16-.33-.4ZM13.3,7.07c-.17,0-.32-.16-.33-.39s.12-.44.29-.45.33.16.34.39S13.48,7.06,13.3,7.07Zm-.14-3c.17,0,.32.16.33.4A.4.4,0,0,1,13.2,5c-.17,0-.32-.16-.34-.4A.4.4,0,0,1,13.16,4.11Zm-.4,1.52c0,.24-.12.44-.29.45s-.33-.16-.34-.39.12-.44.29-.45S12.75,5.4,12.76,5.63Zm-.44-2.51c.17,0,.32.17.33.4L12,3.58A.4.4,0,0,1,12.32,3.12Zm.33.4a.4.4,0,0,1-.29.45c-.17,0-.32-.16-.33-.39Zm-1.06.73c.17,0,.32.16.33.4a.41.41,0,0,1-.29.45c-.18,0-.33-.16-.34-.4A.4.4,0,0,1,11.59,4.25ZM11,8.34h0c-.18,0-.33-.16-.34-.39a.41.41,0,0,1,.3-.46h0c.17,0,.32.17.33.4A.41.41,0,0,1,11,8.34Zm-.11-2.11h0c-.17,0-.32-.17-.33-.4a.41.41,0,0,1,.29-.45h0c.17,0,.33.16.34.39A.41.41,0,0,1,10.89,6.23Zm-.14-3c.17,0,.32.16.33.39l-.31,0-.32,0C10.44,3.48,10.57,3.28,10.75,3.27Zm0,.42h0l.31,0c0,.23-.12.44-.29.45h0c-.18,0-.33-.16-.34-.39ZM10.45,6.9c0,.24-.12.44-.29.45S9.84,7.19,9.82,7s.12-.44.3-.45S10.44,6.67,10.45,6.9ZM10,4.39c.18,0,.33.16.34.4a.4.4,0,0,1-.3.45c-.17,0-.32-.16-.33-.4A.41.41,0,0,1,10,4.39ZM9.28,5.52c.17,0,.32.16.33.4a.4.4,0,0,1-.29.45C9.15,6.38,9,6.21,9,6A.4.4,0,0,1,9.28,5.52ZM8.69,9.61c-.17,0-.32-.16-.33-.4a.4.4,0,0,1,.29-.45c.17,0,.32.16.33.4A.4.4,0,0,1,8.69,9.61Zm-.15-3c.18,0,.33.16.34.39s-.12.44-.29.45-.33-.16-.34-.39S8.37,6.66,8.54,6.65ZM8,10.74H8c-.18,0-.33-.16-.34-.4a.4.4,0,0,1,.3-.45h0c.17,0,.32.16.33.4A.41.41,0,0,1,8,10.74Zm-.15-3h0c.17,0,.32.16.34.39s-.12.44-.3.45h0c-.17,0-.32-.16-.33-.39S7.64,7.79,7.81,7.78ZM7.18,11c.17,0,.33.16.34.39s-.12.44-.3.45-.32-.16-.33-.39S7,11,7.18,11Zm-.29,3.64a.4.4,0,0,1-.3.45c-.17,0-.32-.16-.33-.4a.41.41,0,0,1,.29-.45C6.73,14.25,6.88,14.42,6.89,14.66Zm-.44-2.51c.17,0,.32.16.33.39s-.12.44-.29.45-.32-.16-.34-.39S6.27,12.16,6.45,12.15Zm-.74,1.12c.18,0,.33.17.34.4a.41.41,0,0,1-.29.45c-.18,0-.33-.16-.34-.39A.41.41,0,0,1,5.71,13.27Zm-.6,3.67-.32,0c0-.24.12-.44.29-.45s.33.16.34.39ZM5,14.4H5c.17,0,.32.16.33.4a.4.4,0,0,1-.29.45c-.17,0-.32-.16-.33-.4A.4.4,0,0,1,5,14.4Zm-.59,4.09c-.17,0-.32-.16-.33-.39a.39.39,0,0,1,.29-.45c.17,0,.32.16.34.39S4.57,18.48,4.39,18.49Zm-.14-3c.17,0,.32.16.33.4a.41.41,0,0,1-.29.45c-.18,0-.33-.16-.34-.4A.4.4,0,0,1,4.25,15.53Zm-.74,1.13c.17,0,.33.16.34.39l-.63.06C3.21,16.88,3.34,16.67,3.51,16.66Zm.34.39c0,.24-.12.44-.3.45s-.32-.16-.33-.39Zm-.93,3.7c-.17,0-.32-.16-.33-.4a.41.41,0,0,1,.29-.45c.18,0,.33.16.34.4A.4.4,0,0,1,2.92,20.75Zm-.14-3c.17,0,.32.16.33.39s-.12.44-.29.45-.32-.16-.34-.39S2.6,17.8,2.78,17.79ZM2,18.91c.18,0,.33.17.34.4a.41.41,0,0,1-.29.45c-.18,0-.33-.16-.34-.39A.41.41,0,0,1,2,18.91Z" style="fill:#f6b4cd"/><path d="M4.82,22.18,4.42,22Z" style="fill:#f6b4cd"/><path d="M18,22.57h0Z" style="fill:#f6b4cd"/><path d="M25.3,22.22Z" style="fill:#f6b4cd"/><path d="M28.92,20.78l-.09,0h0Z" style="fill:#f6b4cd"/><path d="M16.4,22.56l-.24,0h0Z" style="fill:#f6b4cd"/><path d="M25.13,22.22h0Z" style="fill:#f6b4cd"/><path d="M9.26,23.81l-.13,0h.13Z" style="fill:#f6b4cd"/><polygon points="9.69 23.82 9.69 23.82 9.69 23.82 9.69 23.82" style="fill:#f6b4cd"/><polygon points="3.44 21.4 3.44 21.4 3.44 21.4 3.44 21.4" style="fill:#f6b4cd"/><path d="M9.61,23.82h0Z" style="fill:#f6b4cd"/><polygon points="11.53 23.05 11.52 23.06 11.52 23.06 11.53 23.05" style="fill:#f6b4cd"/><path d="M4.89,22.21h0l-.07,0Z" style="fill:#f6b4cd"/><path d="M1.28,20.36c0-.1.07-.2.11-.3" style="fill:none;stroke:#f6b4cd;stroke-linecap:round;stroke-linejoin:round;stroke-width:0px"/><path d="M1.41,20.7l-.17,0" style="fill:none;stroke:#f6b4cd;stroke-linecap:round;stroke-linejoin:round;stroke-width:0px"/><path d="M9.4,23.82H9.28" style="fill:none;stroke:#f6b4cd;stroke-linecap:round;stroke-linejoin:round;stroke-width:0px"/><path d="M29.67,20.37l-.05,0" style="fill:none;stroke:#f6b4cd;stroke-linecap:round;stroke-linejoin:round;stroke-width:0px"/><path d="M29.55,19.89l0,.05" style="fill:none;stroke:#f6b4cd;stroke-linecap:round;stroke-linejoin:round;stroke-width:0px"/><path d="M29.59,20l.06.13Z" style="fill:#f6b4cd"/><path d="M27.32,21.63l-.05,0" style="fill:none;stroke:#f6b4cd;stroke-linecap:round;stroke-linejoin:round;stroke-width:0px"/><path d="M22.73,21.68h0" style="fill:none;stroke:#f6b4cd;stroke-linecap:round;stroke-linejoin:round;stroke-width:0px"/><path d="M16.65,22.6l-.24,0" style="fill:none;stroke:#f6b4cd;stroke-linecap:round;stroke-linejoin:round;stroke-width:0px"/><path d="M14.88,22.21h0" style="fill:none;stroke:#f6b4cd;stroke-linecap:round;stroke-linejoin:round;stroke-width:0px"/><path d="M29.77,20.33l-.07,0" style="fill:none;stroke:#f6b4cd;stroke-linecap:round;stroke-linejoin:round;stroke-width:0px"/><path d="M18.55,1.29c.17,0,.3-.22.29-.45s-.16-.41-.33-.39-.31.21-.3.45S18.37,1.31,18.55,1.29Z" style="fill:#f392ad"/><path d="M17.71.3A.32.32,0,0,0,18,.05H17.4C17.46.22,17.58.32,17.71.3Z" style="fill:#f392ad"/><path d="M19.42.11h0A1.69,1.69,0,0,0,19,0h0a.27.27,0,0,0,.24.12A.24.24,0,0,0,19.42.11Z" style="fill:#f392ad"/><path d="M17,1.43h0c.18,0,.31-.22.3-.45s-.16-.41-.34-.39h0c-.17,0-.3.21-.29.45S16.8,1.45,17,1.43Z" style="fill:#f392ad"/><path d="M15.4,1.57c.18,0,.31-.21.3-.45s-.17-.41-.34-.39-.31.22-.29.45S15.23,1.59,15.4,1.57Z" style="fill:#f392ad"/><path d="M14.56.59a.4.4,0,0,0,.3-.45s0,0,0,0h0l-.62,0v0C14.24.43,14.39.6,14.56.59Z" style="fill:#f392ad"/><path d="M16.14.45a.38.38,0,0,0,.29-.37h-.32l-.31,0h0C15.81.28,16,.46,16.14.45Z" style="fill:#f392ad"/><path d="M13.83,1.71h0c.17,0,.3-.21.29-.45S14,.85,13.79.87h0c-.18,0-.31.22-.3.45S13.66,1.73,13.83,1.71Z" style="fill:#f392ad"/><path d="M12.26,1.86a.41.41,0,0,0,.29-.46c0-.23-.16-.41-.34-.39s-.3.22-.29.45S12.08,1.87,12.26,1.86Z" style="fill:#f392ad"/><path d="M11.42.87a.41.41,0,0,0,.29-.45.13.13,0,0,0,0-.06l-.62.11h0C11.09.71,11.24.88,11.42.87Z" style="fill:#f392ad"/><path d="M13,.73a.4.4,0,0,0,.29-.45.28.28,0,0,0,0-.09h-.6a.59.59,0,0,0,0,.14C12.67.57,12.82.74,13,.73Z" style="fill:#f392ad"/><path d="M10.68,2a.4.4,0,0,0,.3-.45c0-.24-.16-.42-.34-.4a.41.41,0,0,0-.29.45C10.36,1.84,10.51,2,10.68,2Z" style="fill:#f392ad"/><path d="M10.07.85h0L10,.92h0L9.82,1h0A.31.31,0,0,0,10.07.85Z" style="fill:#f392ad"/><path d="M28.59,19.08c0,.24.16.41.34.4a.34.34,0,0,0,.27-.28h0L29.12,19l0,0-.05-.1-.05-.1a.8.8,0,0,1-.08-.16h0A.4.4,0,0,0,28.59,19.08Z" style="fill:#f392ad"/><path d="M28.09,18.49c.17,0,.3-.22.29-.45s-.16-.41-.33-.39-.31.21-.3.45S27.92,18.51,28.09,18.49Z" style="fill:#f392ad"/><path d="M27.21,16.66c-.18,0-.31.22-.29.45s.16.41.33.39h0a.39.39,0,0,0,.29-.45c0-.23-.16-.41-.33-.39Z" style="fill:#f392ad"/><path d="M27.15,15.39h0l.1,0c-.07-.13-.14-.26-.2-.39l-.24,0C26.82,15.23,27,15.41,27.15,15.39Z" style="fill:#f392ad"/><path d="M28.15,19.76a.41.41,0,0,0-.29.45c0,.23.16.41.33.4a.41.41,0,0,0,.3-.46C28.48,19.92,28.33,19.74,28.15,19.76Z" style="fill:#f392ad"/><path d="M27.31,18.77h0a.41.41,0,0,0-.29.45c0,.24.16.41.34.4h0a.41.41,0,0,0,.29-.45C27.64,18.93,27.49,18.76,27.31,18.77Z" style="fill:#f392ad"/><path d="M24.52,10.31h.06l0,0-.32-.58v0a.51.51,0,0,0,0,.25C24.2,10.15,24.35,10.33,24.52,10.31Z" style="fill:#f392ad"/><path d="M23.79,11.44c.17,0,.31-.22.29-.45s-.16-.41-.33-.39-.31.21-.3.45S23.62,11.46,23.79,11.44Z" style="fill:#f392ad"/><path d="M27.05,15h0L27,14.78l-.06-.1a.51.51,0,0,0-.08.31Z" style="fill:#f392ad"/><path d="M25.53,14.68a.41.41,0,0,0-.29.46l.63-.06C25.86,14.85,25.7,14.67,25.53,14.68Z" style="fill:#f392ad"/><path d="M25.47,13.42a.41.41,0,0,0,.29-.46c0-.23-.16-.41-.33-.39a.4.4,0,0,0-.3.45C25.14,13.25,25.29,13.43,25.47,13.42Z" style="fill:#f392ad"/><path d="M24.69,13.7c-.17,0-.3.22-.29.45s.16.41.33.39.31-.21.3-.45S24.87,13.68,24.69,13.7Z" style="fill:#f392ad"/><path d="M26.26,13.56c-.17,0-.3.21-.29.45s.16.41.34.39a.36.36,0,0,0,.28-.31h0v0l-.27-.51Z" style="fill:#f392ad"/><path d="M24.63,12.43a.41.41,0,0,0,.29-.45c0-.24-.16-.41-.33-.4a.4.4,0,0,0-.3.45C24.31,12.27,24.46,12.44,24.63,12.43Z" style="fill:#f392ad"/><path d="M24,14.83c-.18,0-.31.21-.3.45l.32,0,.31,0C24.28,15,24.13,14.81,24,14.83Z" style="fill:#f392ad"/><path d="M23.85,12.71a.41.41,0,0,0-.29.45c0,.24.16.41.34.4a.41.41,0,0,0,.29-.45C24.18,12.87,24,12.7,23.85,12.71Z" style="fill:#f392ad"/><path d="M25.78,19.76a.4.4,0,0,0,.3-.45c0-.23-.17-.41-.34-.4a.41.41,0,0,0-.29.46C25.46,19.6,25.61,19.78,25.78,19.76Z" style="fill:#f392ad"/><path d="M25.64,16.8a.4.4,0,0,0-.3.45c0,.23.16.41.34.4a.41.41,0,0,0,.29-.46C26,17,25.81,16.78,25.64,16.8Z" style="fill:#f392ad"/><path d="M24.9,17.93c-.17,0-.3.21-.29.45s.16.41.33.39.31-.21.3-.45S25.08,17.91,24.9,17.93Z" style="fill:#f392ad"/><path d="M26.47,17.79c-.17,0-.3.21-.29.45s.16.41.34.39.3-.22.29-.45S26.65,17.77,26.47,17.79Z" style="fill:#f392ad"/><path d="M24.8,15.81a.4.4,0,0,0-.3.45c0,.24.17.41.34.4a.41.41,0,0,0,.29-.45C25.12,16,25,15.8,24.8,15.81Z" style="fill:#f392ad"/><path d="M26.41,16.52a.4.4,0,0,0,.3-.45c0-.24-.17-.41-.34-.4a.4.4,0,0,0-.29.45C26.09,16.36,26.24,16.53,26.41,16.52Z" style="fill:#f392ad"/><path d="M24.21,19.9c.17,0,.3-.22.29-.45s-.16-.41-.33-.39-.31.21-.3.45S24,19.92,24.21,19.9Z" style="fill:#f392ad"/><path d="M24.1,17.79a.4.4,0,0,0,.3-.45c0-.24-.16-.42-.34-.4a.41.41,0,0,0-.29.45C23.78,17.63,23.93,17.8,24.1,17.79Z" style="fill:#f392ad"/><path d="M25.57,15.53c.18,0,.31-.22.3-.45l-.63.06C25.25,15.37,25.4,15.55,25.57,15.53Z" style="fill:#f392ad"/><path d="M24,15.67c.17,0,.31-.22.29-.45l-.31,0-.32,0C23.68,15.51,23.83,15.69,24,15.67Z" style="fill:#f392ad"/><path d="M25.85,21c-.18,0-.31.22-.3.45s.16.41.34.39.3-.21.29-.45S26,21,25.85,21Z" style="fill:#f392ad"/><path d="M25,20a.4.4,0,0,0-.3.45c0,.24.16.41.34.4a.41.41,0,0,0,.29-.45C25.33,20.2,25.18,20,25,20Z" style="fill:#f392ad"/><path d="M26.58,19.9a.4.4,0,0,0-.29.45c0,.24.16.41.33.4a.39.39,0,0,0,.29-.45C26.9,20.06,26.75,19.89,26.58,19.9Z" style="fill:#f392ad"/><path d="M24.27,21.17a.41.41,0,0,0-.29.45c0,.23.16.41.33.4a.41.41,0,0,0,.3-.46C24.6,21.33,24.45,21.15,24.27,21.17Z" style="fill:#f392ad"/><path d="M22,7.35c.17,0,.3-.21.29-.45s-.16-.41-.33-.39-.31.22-.3.45S21.83,7.37,22,7.35Z" style="fill:#f392ad"/><path d="M21.17,6.37a.41.41,0,0,0,.29-.45c0-.24-.16-.41-.33-.4a.4.4,0,0,0-.3.45C20.84,6.21,21,6.38,21.17,6.37Z" style="fill:#f392ad"/><path d="M21.06,4.25h0L20.92,4h0l-.16-.23,0,0h0a.81.81,0,0,0,0,.16C20.74,4.09,20.89,4.27,21.06,4.25Z" style="fill:#f392ad"/><path d="M20.39,6.65h0c-.17,0-.3.22-.29.45s.16.41.33.39h0c.18,0,.31-.21.3-.45S20.57,6.63,20.39,6.65Z" style="fill:#f392ad"/><path d="M19.89,2.87c0,.23.16.41.34.4h0a.32.32,0,0,0,.17-.09h0L20.28,3l-.11-.16h0Z" style="fill:#f392ad"/><path d="M22.18,10.74c-.18,0-.31.21-.3.45s.16.41.34.39.3-.21.29-.45S22.35,10.72,22.18,10.74Z" style="fill:#f392ad"/><path d="M23.35,8.93c0,.24.16.41.34.4a.31.31,0,0,0,.24-.21h0v0c-.11-.2-.22-.4-.34-.6A.43.43,0,0,0,23.35,8.93Z" style="fill:#f392ad"/><path d="M22.07,8.62a.41.41,0,0,0-.29.45c0,.24.16.41.33.4a.4.4,0,0,0,.3-.45C22.39,8.78,22.24,8.61,22.07,8.62Z" style="fill:#f392ad"/><path d="M21.34,9.75a.4.4,0,0,0-.3.45c0,.23.16.41.34.4a.41.41,0,0,0,.29-.45C21.66,9.91,21.51,9.73,21.34,9.75Z" style="fill:#f392ad"/><path d="M22.91,9.61c-.17,0-.31.22-.29.45s.16.41.33.4a.39.39,0,0,0,.29-.46C23.23,9.77,23.08,9.59,22.91,9.61Z" style="fill:#f392ad"/><path d="M21.23,7.64c-.17,0-.3.21-.29.45s.16.41.33.39.31-.22.3-.45S21.41,7.62,21.23,7.64Z" style="fill:#f392ad"/><path d="M22.85,8.34c.17,0,.3-.22.29-.45s-.16-.41-.34-.4a.41.41,0,0,0-.29.46C22.52,8.18,22.67,8.36,22.85,8.34Z" style="fill:#f392ad"/><path d="M20.6,10.88h0c-.17,0-.3.22-.29.45s.16.41.33.39.31-.21.3-.45S20.78,10.86,20.6,10.88Z" style="fill:#f392ad"/><path d="M22.39,15c-.18,0-.31.21-.3.45l.63-.06C22.71,15.13,22.56,15,22.39,15Z" style="fill:#f392ad"/><path d="M22.28,12.85a.41.41,0,0,0-.29.45c0,.24.16.41.33.4a.4.4,0,0,0,.3-.45C22.6,13,22.45,12.84,22.28,12.85Z" style="fill:#f392ad"/><path d="M21.55,14a.4.4,0,0,0-.3.45c0,.23.16.41.34.4a.41.41,0,0,0,.29-.46C21.87,14.14,21.72,14,21.55,14Z" style="fill:#f392ad"/><path d="M23.12,13.84c-.17,0-.31.22-.29.45s.16.41.33.39a.39.39,0,0,0,.29-.45C23.44,14,23.29,13.82,23.12,13.84Z" style="fill:#f392ad"/><path d="M21.44,11.87c-.17,0-.3.21-.29.45s.16.41.33.39.31-.22.3-.45S21.62,11.85,21.44,11.87Z" style="fill:#f392ad"/><path d="M23,11.72a.41.41,0,0,0-.29.46c0,.23.16.41.34.39a.41.41,0,0,0,.29-.45C23.34,11.89,23.19,11.71,23,11.72Z" style="fill:#f392ad"/><path d="M20.81,15.11c-.17,0-.3.22-.29.45l.31,0,.32,0C21.14,15.27,21,15.09,20.81,15.11Z" style="fill:#f392ad"/><path d="M20.71,13a.4.4,0,0,0-.3.45c0,.24.17.41.34.4h0a.41.41,0,0,0,.29-.45C21,13.15,20.88,13,20.71,13Z" style="fill:#f392ad"/><path d="M22.53,17.93a.4.4,0,0,0,.3-.45c0-.24-.17-.41-.34-.4a.41.41,0,0,0-.29.45C22.21,17.77,22.36,17.94,22.53,17.93Z" style="fill:#f392ad"/><path d="M21.8,19.06a.41.41,0,0,0,.29-.46c0-.23-.16-.41-.33-.39s-.31.22-.3.45S21.62,19.07,21.8,19.06Z" style="fill:#f392ad"/><path d="M23.37,18.91a.39.39,0,0,0,.29-.45c0-.23-.16-.41-.33-.39s-.31.22-.29.45S23.2,18.93,23.37,18.91Z" style="fill:#f392ad"/><path d="M21.69,16.94a.4.4,0,0,0,.3-.45c0-.23-.16-.41-.34-.4a.41.41,0,0,0-.29.46C21.37,16.78,21.52,17,21.69,16.94Z" style="fill:#f392ad"/><path d="M23.27,16.8a.41.41,0,0,0,.29-.45c0-.24-.16-.41-.34-.4a.41.41,0,0,0-.29.45C22.94,16.64,23.09,16.81,23.27,16.8Z" style="fill:#f392ad"/><path d="M21,18.07h0a.41.41,0,0,0,.29-.45c0-.24-.16-.41-.33-.4h0a.4.4,0,0,0-.3.45C20.64,17.91,20.79,18.08,21,18.07Z" style="fill:#f392ad"/><path d="M22.43,15.81c.17,0,.3-.22.29-.45l-.63.06C22.1,15.65,22.25,15.83,22.43,15.81Z" style="fill:#f392ad"/><path d="M20.52,15.56c0,.23.16.41.33.39h0c.18,0,.31-.21.3-.45l-.32,0Z" style="fill:#f392ad"/><path d="M21.86,20.32a.41.41,0,0,0-.29.46c0,.23.16.41.33.39a.4.4,0,0,0,.3-.45C22.19,20.49,22,20.31,21.86,20.32Z" style="fill:#f392ad"/><path d="M23.43,20.18a.41.41,0,0,0-.29.45c0,.24.16.41.34.4a.41.41,0,0,0,.29-.45C23.76,20.34,23.61,20.17,23.43,20.18Z" style="fill:#f392ad"/><path d="M22.59,19.2c-.17,0-.3.21-.29.45s.16.41.34.39.3-.22.29-.45S22.77,19.18,22.59,19.2Z" style="fill:#f392ad"/><path d="M21,19.34h0c-.17,0-.3.21-.29.45s.16.41.33.39h0c.18,0,.31-.21.3-.45S21.2,19.32,21,19.34Z" style="fill:#f392ad"/><path d="M20.16,2.85l-.09-.06h0l0,0a.21.21,0,0,0,0-.06l0,0s0,0,0-.05h0a.52.52,0,0,0-.06.28Z" style="fill:#f392ad"/><path d="M18.82,6.79a.41.41,0,0,0-.29.45c0,.23.16.41.33.4a.41.41,0,0,0,.3-.46C19.14,7,19,6.77,18.82,6.79Z" style="fill:#f392ad"/><path d="M20.33,5.38h0a.4.4,0,0,0,.29-.45c0-.23-.16-.41-.33-.4h0A.41.41,0,0,0,20,5C20,5.22,20.16,5.4,20.33,5.38Z" style="fill:#f392ad"/><path d="M18.72,4.67a.41.41,0,0,0-.3.46c0,.23.16.41.34.39s.3-.22.29-.45S18.89,4.66,18.72,4.67Z" style="fill:#f392ad"/><path d="M18,5.8a.41.41,0,0,0-.29.45c0,.24.16.41.33.4a.4.4,0,0,0,.3-.45C18.31,6,18.16,5.79,18,5.8Z" style="fill:#f392ad"/><path d="M19.55,5.66a.41.41,0,0,0-.29.45c0,.24.16.41.34.4a.41.41,0,0,0,.29-.45C19.88,5.82,19.73,5.65,19.55,5.66Z" style="fill:#f392ad"/><path d="M17.92,4.53c.17,0,.3-.21.29-.45s-.16-.41-.33-.39-.31.22-.3.45S17.74,4.55,17.92,4.53Z" style="fill:#f392ad"/><path d="M19.49,4.39a.39.39,0,0,0,.29-.45c0-.23-.16-.41-.33-.39a.39.39,0,0,0-.29.45C19.17,4.23,19.32,4.41,19.49,4.39Z" style="fill:#f392ad"/><path d="M17.25,6.93h0a.4.4,0,0,0-.3.45c0,.24.17.41.34.4h0a.41.41,0,0,0,.29-.45C17.57,7.09,17.42,6.92,17.25,6.93Z" style="fill:#f392ad"/><path d="M18.65,3.41A.4.4,0,0,0,19,3l-.63,0C18.33,3.24,18.48,3.42,18.65,3.41Z" style="fill:#f392ad"/><path d="M19,11c-.17,0-.31.22-.29.45s.16.41.33.4a.41.41,0,0,0,.3-.46C19.35,11.18,19.2,11,19,11Z" style="fill:#f392ad"/><path d="M20.5,8.76h0a.4.4,0,0,0-.3.45c0,.24.17.42.34.4a.41.41,0,0,0,.29-.45C20.82,8.92,20.67,8.75,20.5,8.76Z" style="fill:#f392ad"/><path d="M18.93,8.9a.41.41,0,0,0-.3.46c0,.23.16.41.34.39a.41.41,0,0,0,.29-.45C19.25,9.07,19.1,8.89,18.93,8.9Z" style="fill:#f392ad"/><path d="M18.19,10a.41.41,0,0,0-.29.45c0,.24.16.41.33.4a.4.4,0,0,0,.3-.45C18.52,10.19,18.36,10,18.19,10Z" style="fill:#f392ad"/><path d="M19.76,9.89a.41.41,0,0,0-.29.45c0,.24.16.41.34.4a.41.41,0,0,0,.29-.45C20.09,10.05,19.94,9.88,19.76,9.89Z" style="fill:#f392ad"/><path d="M18.09,7.92c-.18,0-.31.22-.3.45s.16.41.34.39.3-.21.29-.45S18.26,7.9,18.09,7.92Z" style="fill:#f392ad"/><path d="M19.66,7.78a.39.39,0,0,0-.29.45c0,.23.16.41.33.39A.39.39,0,0,0,20,8.17C20,7.94,19.83,7.76,19.66,7.78Z" style="fill:#f392ad"/><path d="M17.46,11.16h0a.4.4,0,0,0-.3.45c0,.23.17.41.34.4h0a.41.41,0,0,0,.29-.46C17.78,11.32,17.63,11.14,17.46,11.16Z" style="fill:#f392ad"/><path d="M17.35,9.05h0c-.17,0-.3.21-.29.45s.16.41.33.39h0c.18,0,.31-.22.3-.45S17.53,9,17.35,9.05Z" style="fill:#f392ad"/><path d="M19.24,15.25c-.17,0-.31.22-.29.45l.63-.06C19.56,15.41,19.41,15.23,19.24,15.25Z" style="fill:#f392ad"/><path d="M19.13,13.13a.41.41,0,0,0-.29.45c0,.24.16.42.34.4a.41.41,0,0,0,.29-.45C19.46,13.3,19.31,13.12,19.13,13.13Z" style="fill:#f392ad"/><path d="M18.4,14.26a.41.41,0,0,0-.29.45c0,.24.16.41.33.4a.4.4,0,0,0,.3-.45C18.72,14.42,18.57,14.25,18.4,14.26Z" style="fill:#f392ad"/><path d="M20,14.12a.41.41,0,0,0-.29.45c0,.24.16.41.34.4a.41.41,0,0,0,.29-.45C20.3,14.28,20.15,14.11,20,14.12Z" style="fill:#f392ad"/><path d="M18.3,12.15c-.18,0-.31.21-.3.45s.16.41.34.39.3-.21.29-.45S18.47,12.13,18.3,12.15Z" style="fill:#f392ad"/><path d="M19.87,12c-.18,0-.31.21-.3.45s.17.41.34.39.31-.22.29-.45S20,12,19.87,12Z" style="fill:#f392ad"/><path d="M17.67,15.39h0a.4.4,0,0,0-.3.45l.32,0,.31,0C18,15.55,17.84,15.37,17.67,15.39Z" style="fill:#f392ad"/><path d="M17.56,13.27h0a.41.41,0,0,0-.29.46c0,.23.16.41.33.39h0c.18,0,.31-.22.3-.45S17.74,13.26,17.56,13.27Z" style="fill:#f392ad"/><path d="M19.45,19.48c-.17,0-.31.22-.29.45s.16.41.33.39a.39.39,0,0,0,.29-.45C19.77,19.64,19.62,19.46,19.45,19.48Z" style="fill:#f392ad"/><path d="M19.39,18.21a.41.41,0,0,0,.29-.45c0-.24-.16-.41-.34-.4a.41.41,0,0,0-.29.45C19.06,18.05,19.21,18.22,19.39,18.21Z" style="fill:#f392ad"/><path d="M18.65,19.34a.4.4,0,0,0,.3-.45c0-.24-.17-.41-.34-.4a.41.41,0,0,0-.29.45C18.33,19.18,18.48,19.35,18.65,19.34Z" style="fill:#f392ad"/><path d="M20.23,19.2a.41.41,0,0,0,.29-.46c0-.23-.16-.41-.34-.39a.41.41,0,0,0-.29.45C19.9,19,20.05,19.21,20.23,19.2Z" style="fill:#f392ad"/><path d="M18.55,17.22c.17,0,.3-.22.29-.45s-.16-.41-.33-.39-.31.21-.3.45S18.37,17.24,18.55,17.22Z" style="fill:#f392ad"/><path d="M20.08,16.24c-.18,0-.31.21-.3.45s.17.41.34.39.31-.22.29-.45S20.25,16.22,20.08,16.24Z" style="fill:#f392ad"/><path d="M17.81,18.35h0a.4.4,0,0,0,.3-.45c0-.23-.16-.41-.34-.4h0a.41.41,0,0,0-.29.46C17.49,18.19,17.64,18.37,17.81,18.35Z" style="fill:#f392ad"/><path d="M19.28,16.09c.18,0,.31-.21.3-.45L19,15.7C19,15.93,19.11,16.11,19.28,16.09Z" style="fill:#f392ad"/><path d="M17.37,15.84c0,.23.16.41.34.4h0a.41.41,0,0,0,.29-.46l-.31,0Z" style="fill:#f392ad"/><path d="M18.72,20.61c-.18,0-.31.21-.3.45s.16.41.34.39.3-.22.29-.45S18.89,20.59,18.72,20.61Z" style="fill:#f392ad"/><path d="M20.29,20.47c-.18,0-.31.21-.3.45s.17.41.34.39.31-.22.29-.45S20.46,20.45,20.29,20.47Z" style="fill:#f392ad"/><path d="M17.88,19.62h0c-.18,0-.31.22-.3.45s.16.41.34.39h0c.17,0,.3-.21.29-.45S18.05,19.6,17.88,19.62Z" style="fill:#f392ad"/><path d="M15.67,7.07a.41.41,0,0,0-.29.45c0,.24.16.41.34.4A.41.41,0,0,0,16,7.47C16,7.23,15.85,7.06,15.67,7.07Z" style="fill:#f392ad"/><path d="M17.14,4.82h0c-.17,0-.3.21-.29.45s.16.41.33.39h0c.18,0,.31-.22.3-.45S17.32,4.8,17.14,4.82Z" style="fill:#f392ad"/><path d="M15.57,5a.39.39,0,0,0-.29.45c0,.23.16.41.33.39s.31-.21.3-.45S15.74,4.94,15.57,5Z" style="fill:#f392ad"/><path d="M14.84,6.08a.41.41,0,0,0-.3.46c0,.23.16.41.34.39s.3-.22.29-.45S15,6.07,14.84,6.08Z" style="fill:#f392ad"/><path d="M16.41,5.94a.4.4,0,0,0-.3.45c0,.24.17.42.34.4a.4.4,0,0,0,.29-.45C16.73,6.1,16.58,5.93,16.41,5.94Z" style="fill:#f392ad"/><path d="M14.77,4.82a.41.41,0,0,0,.3-.46c0-.23-.17-.41-.34-.39a.41.41,0,0,0-.29.45C14.45,4.65,14.6,4.83,14.77,4.82Z" style="fill:#f392ad"/><path d="M16.35,4.67c.17,0,.3-.21.29-.45s-.16-.41-.34-.39-.3.22-.29.45S16.17,4.69,16.35,4.67Z" style="fill:#f392ad"/><path d="M17.08,3.55h0a.41.41,0,0,0,.29-.45l-.31,0-.32,0C16.76,3.39,16.91,3.56,17.08,3.55Z" style="fill:#f392ad"/><path d="M15.51,3.69a.41.41,0,0,0,.29-.45l-.63,0C15.18,3.53,15.33,3.7,15.51,3.69Z" style="fill:#f392ad"/><path d="M15.88,11.3a.41.41,0,0,0-.29.45c0,.24.16.41.34.4a.41.41,0,0,0,.29-.45C16.21,11.46,16.06,11.29,15.88,11.3Z" style="fill:#f392ad"/><path d="M15.78,9.19a.39.39,0,0,0-.29.45c0,.23.16.41.33.39s.31-.22.29-.45S16,9.17,15.78,9.19Z" style="fill:#f392ad"/><path d="M15.05,10.31a.41.41,0,0,0-.3.46c0,.23.16.41.34.39a.41.41,0,0,0,.29-.45C15.37,10.48,15.22,10.3,15.05,10.31Z" style="fill:#f392ad"/><path d="M16.62,10.17a.4.4,0,0,0-.3.45c0,.24.17.41.34.4a.4.4,0,0,0,.29-.45C16.94,10.33,16.79,10.16,16.62,10.17Z" style="fill:#f392ad"/><path d="M14.94,8.2a.41.41,0,0,0-.29.45c0,.23.16.41.33.4a.41.41,0,0,0,.3-.46C15.26,8.36,15.11,8.18,14.94,8.2Z" style="fill:#f392ad"/><path d="M16.51,8.06c-.17,0-.3.22-.29.45s.16.41.34.39.3-.21.29-.45S16.69,8,16.51,8.06Z" style="fill:#f392ad"/><path d="M14.21,9.33c-.18,0-.31.21-.3.45s.16.41.34.39.3-.21.29-.45S14.38,9.31,14.21,9.33Z" style="fill:#f392ad"/><path d="M14.1,7.21h0a.41.41,0,0,0-.29.45c0,.24.16.41.33.4a.4.4,0,0,0,.3-.45C14.43,7.37,14.28,7.2,14.1,7.21Z" style="fill:#f392ad"/><path d="M16.09,15.53a.41.41,0,0,0-.29.45l.63-.05C16.42,15.69,16.27,15.52,16.09,15.53Z" style="fill:#f392ad"/><path d="M16,14.26c.17,0,.31-.22.29-.45s-.16-.41-.33-.39a.39.39,0,0,0-.29.45C15.71,14.1,15.86,14.28,16,14.26Z" style="fill:#f392ad"/><path d="M15.3,15.39a.41.41,0,0,0,.29-.45c0-.24-.16-.41-.33-.4A.4.4,0,0,0,15,15C15,15.23,15.12,15.41,15.3,15.39Z" style="fill:#f392ad"/><path d="M16.83,14.4a.4.4,0,0,0-.3.45c0,.24.17.41.34.4a.41.41,0,0,0,.29-.45C17.15,14.56,17,14.39,16.83,14.4Z" style="fill:#f392ad"/><path d="M15.49,12.82c0-.23-.17-.41-.34-.39s-.3.22-.29.45.16.41.33.39S15.5,13.06,15.49,12.82Z" style="fill:#f392ad"/><path d="M16.72,12.29c-.17,0-.3.22-.29.45s.16.41.33.39.31-.21.3-.45S16.9,12.27,16.72,12.29Z" style="fill:#f392ad"/><path d="M14.52,15.67h0a.41.41,0,0,0-.29.45l.31,0,.32,0C14.85,15.83,14.69,15.66,14.52,15.67Z" style="fill:#f392ad"/><path d="M14.12,14c0,.23.16.41.34.39h0c.17,0,.3-.21.29-.45s-.16-.41-.33-.39h0C14.24,13.57,14.11,13.77,14.12,14Z" style="fill:#f392ad"/><path d="M14.31,11.44a.41.41,0,0,0-.29.45c0,.24.16.41.33.4a.4.4,0,0,0,.3-.45C14.64,11.6,14.49,11.43,14.31,11.44Z" style="fill:#f392ad"/><path d="M16.24,18.49c.17,0,.31-.22.29-.45s-.16-.41-.33-.39a.39.39,0,0,0-.29.45C15.92,18.33,16.07,18.51,16.24,18.49Z" style="fill:#f392ad"/><path d="M15.51,19.62a.41.41,0,0,0,.29-.45c0-.24-.16-.41-.34-.4a.41.41,0,0,0-.29.45C15.18,19.46,15.33,19.63,15.51,19.62Z" style="fill:#f392ad"/><path d="M17.08,19.48a.41.41,0,0,0,.29-.45c0-.24-.16-.41-.33-.4a.4.4,0,0,0-.3.45C16.76,19.32,16.91,19.49,17.08,19.48Z" style="fill:#f392ad"/><path d="M15.4,17.5c.18,0,.31-.21.3-.45s-.17-.41-.34-.39-.31.22-.29.45S15.23,17.52,15.4,17.5Z" style="fill:#f392ad"/><path d="M16.93,16.52c-.17,0-.3.22-.29.45s.16.41.33.39.31-.21.3-.45S17.11,16.5,16.93,16.52Z" style="fill:#f392ad"/><path d="M14.67,18.63h0c.17,0,.3-.22.29-.45s-.16-.41-.33-.39h0c-.18,0-.31.21-.3.45S14.49,18.65,14.67,18.63Z" style="fill:#f392ad"/><path d="M16.14,16.38a.41.41,0,0,0,.29-.45L15.8,16C15.81,16.22,16,16.39,16.14,16.38Z" style="fill:#f392ad"/><path d="M14.23,16.12c0,.24.16.41.33.4a.4.4,0,0,0,.3-.45l-.32,0Z" style="fill:#f392ad"/><path d="M15.57,20.89c-.17,0-.31.22-.29.45s.16.41.33.39.31-.21.3-.45S15.74,20.87,15.57,20.89Z" style="fill:#f392ad"/><path d="M17.14,20.75c-.17,0-.3.21-.29.45s.16.41.33.39.31-.21.3-.45S17.32,20.73,17.14,20.75Z" style="fill:#f392ad"/><path d="M16.3,19.76a.41.41,0,0,0-.29.45c0,.23.16.41.34.4a.41.41,0,0,0,.29-.46C16.63,19.92,16.48,19.74,16.3,19.76Z" style="fill:#f392ad"/><path d="M14.73,19.9h0a.41.41,0,0,0-.29.45c0,.24.16.41.33.4a.4.4,0,0,0,.3-.45C15.05,20.06,14.9,19.89,14.73,19.9Z" style="fill:#f392ad"/><path d="M14.23,3.38c0-.24-.16-.41-.34-.4h0a.41.41,0,0,0-.29.45l.31,0Z" style="fill:#f392ad"/><path d="M12.32,3.12a.4.4,0,0,0-.29.46l.62-.06C12.64,3.29,12.49,3.11,12.32,3.12Z" style="fill:#f392ad"/><path d="M14,5.1h0c-.18,0-.31.22-.3.45s.17.41.34.39h0c.17,0,.3-.21.29-.45S14.17,5.08,14,5.1Z" style="fill:#f392ad"/><path d="M12.42,5.24c-.17,0-.3.22-.29.45s.16.41.34.39.3-.21.29-.45S12.6,5.22,12.42,5.24Z" style="fill:#f392ad"/><path d="M11.69,6.37a.39.39,0,0,0-.29.45c0,.23.16.41.33.39S12,7,12,6.76,11.86,6.35,11.69,6.37Z" style="fill:#f392ad"/><path d="M13.26,6.23c-.17,0-.3.21-.29.45s.16.41.33.39.31-.22.3-.45S13.44,6.21,13.26,6.23Z" style="fill:#f392ad"/><path d="M11.63,5.1a.41.41,0,0,0,.29-.45c0-.24-.16-.41-.33-.4a.4.4,0,0,0-.3.45C11.3,4.94,11.45,5.11,11.63,5.1Z" style="fill:#f392ad"/><path d="M13.2,5a.4.4,0,0,0,.29-.45c0-.24-.16-.41-.33-.4a.4.4,0,0,0-.3.45C12.88,4.8,13,5,13.2,5Z" style="fill:#f392ad"/><path d="M10.85,5.38h0a.41.41,0,0,0-.29.45c0,.23.16.41.33.4h0a.41.41,0,0,0,.3-.46C11.18,5.54,11,5.36,10.85,5.38Z" style="fill:#f392ad"/><path d="M13.93,3.83a.4.4,0,0,0,.3-.45l-.32,0-.31,0C13.61,3.67,13.76,3.84,13.93,3.83Z" style="fill:#f392ad"/><path d="M12.36,4a.4.4,0,0,0,.29-.45L12,3.58C12,3.81,12.19,4,12.36,4Z" style="fill:#f392ad"/><path d="M12.74,11.58a.39.39,0,0,0-.29.45c0,.24.16.41.33.4a.4.4,0,0,0,.29-.45C13.06,11.74,12.91,11.57,12.74,11.58Z" style="fill:#f392ad"/><path d="M12.63,9.47c-.17,0-.3.22-.29.45s.16.41.34.39.3-.21.29-.45S12.81,9.45,12.63,9.47Z" style="fill:#f392ad"/><path d="M11.9,10.6a.39.39,0,0,0-.29.45c0,.23.16.41.33.39s.31-.22.3-.45S12.07,10.58,11.9,10.6Z" style="fill:#f392ad"/><path d="M13.47,10.46c-.17,0-.3.21-.29.45s.16.41.33.39.31-.22.3-.45S13.65,10.44,13.47,10.46Z" style="fill:#f392ad"/><path d="M11.79,8.48a.41.41,0,0,0-.29.45c0,.24.16.41.34.4a.41.41,0,0,0,.29-.45C12.12,8.64,12,8.47,11.79,8.48Z" style="fill:#f392ad"/><path d="M13.37,8.34a.4.4,0,0,0-.3.45c0,.24.17.41.34.4a.41.41,0,0,0,.29-.45C13.69,8.5,13.54,8.32,13.37,8.34Z" style="fill:#f392ad"/><path d="M11.17,11.72h0a.41.41,0,0,0-.3.46c0,.23.16.41.34.39h0a.41.41,0,0,0,.29-.45C11.49,11.89,11.34,11.71,11.17,11.72Z" style="fill:#f392ad"/><path d="M12.53,7.35a.4.4,0,0,0-.29.45c0,.24.16.42.33.4a.4.4,0,0,0,.29-.45C12.85,7.51,12.7,7.34,12.53,7.35Z" style="fill:#f392ad"/><path d="M12.65,16.26l.63-.05c0-.24-.16-.41-.33-.4A.4.4,0,0,0,12.65,16.26Z" style="fill:#f392ad"/><path d="M12.84,13.7c-.17,0-.3.22-.29.45s.16.41.34.39.3-.21.29-.45S13,13.68,12.84,13.7Z" style="fill:#f392ad"/><path d="M12.11,14.83a.39.39,0,0,0-.29.45c0,.23.16.41.33.39s.31-.22.3-.45S12.28,14.81,12.11,14.83Z" style="fill:#f392ad"/><path d="M13.68,14.68a.41.41,0,0,0-.29.46c0,.23.16.41.33.39a.4.4,0,0,0,.3-.45C14,14.85,13.86,14.67,13.68,14.68Z" style="fill:#f392ad"/><path d="M12,12.71a.41.41,0,0,0-.29.45c0,.24.16.41.34.4a.41.41,0,0,0,.29-.45C12.33,12.87,12.18,12.7,12,12.71Z" style="fill:#f392ad"/><path d="M13.58,12.57a.4.4,0,0,0-.3.45c0,.23.17.41.34.4a.41.41,0,0,0,.29-.46C13.9,12.73,13.75,12.55,13.58,12.57Z" style="fill:#f392ad"/><path d="M11.38,16a.4.4,0,0,0-.3.45l.32,0,.31,0C11.7,16.11,11.55,15.94,11.38,16Z" style="fill:#f392ad"/><path d="M11.31,14.68c.18,0,.31-.21.3-.45s-.17-.41-.34-.39h0c-.17,0-.3.22-.29.45S11.14,14.7,11.31,14.68Z" style="fill:#f392ad"/><path d="M13.1,18.77c.17,0,.3-.21.29-.45s-.16-.41-.34-.39-.3.21-.29.45S12.92,18.79,13.1,18.77Z" style="fill:#f392ad"/><path d="M12.36,19.9c.17,0,.31-.22.29-.45s-.16-.41-.33-.39a.39.39,0,0,0-.29.45C12,19.74,12.19,19.92,12.36,19.9Z" style="fill:#f392ad"/><path d="M13.93,19.76a.4.4,0,0,0,.3-.45c0-.23-.16-.41-.34-.4a.41.41,0,0,0-.29.46C13.61,19.6,13.76,19.78,13.93,19.76Z" style="fill:#f392ad"/><path d="M12.26,17.79a.41.41,0,0,0,.29-.45c0-.24-.16-.42-.34-.4a.41.41,0,0,0-.29.45C11.93,17.63,12.08,17.8,12.26,17.79Z" style="fill:#f392ad"/><path d="M13.79,16.8c-.18,0-.31.22-.3.45s.17.41.34.4a.41.41,0,0,0,.29-.46C14.11,17,14,16.78,13.79,16.8Z" style="fill:#f392ad"/><path d="M11.52,18.91h0c.18,0,.31-.21.3-.45s-.17-.41-.34-.39-.3.22-.29.45S11.35,18.93,11.52,18.91Z" style="fill:#f392ad"/><path d="M13,16.66a.4.4,0,0,0,.29-.45l-.63.05C12.67,16.5,12.82,16.67,13,16.66Z" style="fill:#f392ad"/><path d="M11.08,16.4c0,.24.16.41.34.4h0a.41.41,0,0,0,.29-.45l-.31,0Z" style="fill:#f392ad"/><path d="M12.42,21.17a.41.41,0,0,0-.29.45c0,.23.16.41.34.4a.41.41,0,0,0,.29-.46C12.75,21.33,12.6,21.15,12.42,21.17Z" style="fill:#f392ad"/><path d="M14,21c-.18,0-.31.22-.3.45s.16.41.34.39.3-.21.29-.45S14.17,21,14,21Z" style="fill:#f392ad"/><path d="M13.16,20a.4.4,0,0,0-.3.45c0,.24.17.41.34.4a.4.4,0,0,0,.29-.45C13.48,20.2,13.33,20,13.16,20Z" style="fill:#f392ad"/><path d="M11.59,20.18h0a.4.4,0,0,0-.3.45c0,.24.16.41.34.4h0a.41.41,0,0,0,.29-.45C11.91,20.34,11.76,20.17,11.59,20.18Z" style="fill:#f392ad"/><path d="M11.08,3.66c0-.23-.16-.41-.33-.39s-.31.21-.3.45l.32,0Z" style="fill:#f392ad"/><path d="M9.38,7.64c-.17,0-.3.21-.29.45s.16.41.34.39.3-.22.29-.45S9.56,7.62,9.38,7.64Z" style="fill:#f392ad"/><path d="M9.32,6.37a.4.4,0,0,0,.29-.45c0-.24-.16-.41-.33-.4A.4.4,0,0,0,9,6C9,6.21,9.15,6.38,9.32,6.37Z" style="fill:#f392ad"/><path d="M8.59,7.49c.17,0,.3-.21.29-.45s-.16-.41-.34-.39-.3.22-.29.45S8.41,7.51,8.59,7.49Z" style="fill:#f392ad"/><path d="M10.12,6.51c-.18,0-.31.22-.3.45s.17.41.34.39.3-.21.29-.45S10.29,6.49,10.12,6.51Z" style="fill:#f392ad"/><path d="M10.05,5.24a.4.4,0,0,0,.3-.45c0-.24-.16-.41-.34-.4a.41.41,0,0,0-.29.45C9.73,5.08,9.88,5.25,10.05,5.24Z" style="fill:#f392ad"/><path d="M10.79,4.11h0c.17,0,.3-.22.29-.45l-.31,0h0l-.32,0C10.46,4,10.61,4.13,10.79,4.11Z" style="fill:#f392ad"/><path d="M9.59,11.87c-.17,0-.3.21-.29.45s.16.41.33.39.31-.22.3-.45S9.77,11.85,9.59,11.87Z" style="fill:#f392ad"/><path d="M11.06,9.61h0c-.17,0-.3.22-.29.45s.16.41.33.4h0a.41.41,0,0,0,.3-.46C11.38,9.77,11.23,9.59,11.06,9.61Z" style="fill:#f392ad"/><path d="M9.49,9.75a.4.4,0,0,0-.3.45c0,.23.17.41.34.4a.4.4,0,0,0,.29-.45C9.81,9.91,9.66,9.73,9.49,9.75Z" style="fill:#f392ad"/><path d="M8.75,10.88c-.17,0-.3.22-.29.45s.16.41.34.39.3-.21.29-.45S8.93,10.86,8.75,10.88Z" style="fill:#f392ad"/><path d="M10.33,10.74c-.18,0-.31.21-.3.45s.17.41.34.39.3-.21.29-.45S10.5,10.72,10.33,10.74Z" style="fill:#f392ad"/><path d="M8.65,8.76a.4.4,0,0,0-.29.45c0,.24.16.41.33.4A.4.4,0,0,0,9,9.16C9,8.92,8.82,8.75,8.65,8.76Z" style="fill:#f392ad"/><path d="M10.22,8.62a.41.41,0,0,0-.29.45c0,.24.16.41.33.4a.4.4,0,0,0,.3-.45C10.55,8.78,10.4,8.61,10.22,8.62Z" style="fill:#f392ad"/><path d="M7.92,9.89h0a.4.4,0,0,0-.3.45c0,.24.16.41.34.4H8a.41.41,0,0,0,.29-.45C8.24,10.05,8.09,9.88,7.92,9.89Z" style="fill:#f392ad"/><path d="M11,7.49h0a.41.41,0,0,0-.3.46c0,.23.16.41.34.39h0a.41.41,0,0,0,.29-.45C11.28,7.66,11.13,7.48,11,7.49Z" style="fill:#f392ad"/><path d="M9.8,16.09a.41.41,0,0,0-.29.46l.63-.06C10.13,16.26,10,16.08,9.8,16.09Z" style="fill:#f392ad"/><path d="M9.74,14.83a.41.41,0,0,0,.29-.46c0-.23-.16-.41-.33-.39a.4.4,0,0,0-.3.45C9.42,14.66,9.57,14.84,9.74,14.83Z" style="fill:#f392ad"/><path d="M9,16c.17,0,.3-.21.29-.45s-.16-.41-.34-.39-.3.22-.29.45S8.83,16,9,16Z" style="fill:#f392ad"/><path d="M10.54,15c-.18,0-.31.21-.3.45s.16.41.34.39.3-.22.29-.45S10.71,15,10.54,15Z" style="fill:#f392ad"/><path d="M9.19,13.39c0-.24-.16-.41-.33-.4a.4.4,0,0,0-.29.45c0,.24.16.41.33.4A.4.4,0,0,0,9.19,13.39Z" style="fill:#f392ad"/><path d="M10.43,12.85a.41.41,0,0,0-.29.45c0,.24.16.41.33.4a.4.4,0,0,0,.3-.45C10.76,13,10.61,12.84,10.43,12.85Z" style="fill:#f392ad"/><path d="M8.23,16.24h0a.39.39,0,0,0-.29.45l.31,0,.32,0C8.55,16.4,8.4,16.22,8.23,16.24Z" style="fill:#f392ad"/><path d="M8.13,14.12h0a.41.41,0,0,0-.29.45c0,.24.16.41.34.4h0a.41.41,0,0,0,.29-.45C8.45,14.28,8.3,14.11,8.13,14.12Z" style="fill:#f392ad"/><path d="M10.05,21.17a.4.4,0,0,0,.3-.45c0-.24-.16-.41-.34-.4a.41.41,0,0,0-.29.46C9.73,21,9.88,21.19,10.05,21.17Z" style="fill:#f392ad"/><path d="M10,19.06a.41.41,0,0,0,.29-.46c0-.23-.16-.41-.33-.39s-.31.22-.3.45S9.78,19.07,10,19.06Z" style="fill:#f392ad"/><path d="M9.22,20.18c.17,0,.3-.21.29-.45s-.16-.41-.34-.39-.3.21-.29.45S9,20.2,9.22,20.18Z" style="fill:#f392ad"/><path d="M10.79,20c.17,0,.3-.22.29-.45s-.16-.41-.33-.39-.31.21-.3.45S10.61,20.06,10.79,20Z" style="fill:#f392ad"/><path d="M9.11,18.07a.4.4,0,0,0,.29-.45c0-.24-.16-.41-.33-.4a.39.39,0,0,0-.29.45C8.79,17.91,8.94,18.08,9.11,18.07Z" style="fill:#f392ad"/><path d="M10.64,17.08a.41.41,0,0,0-.29.45c0,.24.16.41.33.4a.4.4,0,0,0,.3-.45C11,17.24,10.82,17.07,10.64,17.08Z" style="fill:#f392ad"/><path d="M8.48,21.31h0c.18,0,.31-.22.3-.45s-.17-.41-.34-.4h0a.39.39,0,0,0-.29.45C8.16,21.15,8.31,21.33,8.48,21.31Z" style="fill:#f392ad"/><path d="M8.38,19.2h0a.41.41,0,0,0,.29-.46c0-.23-.16-.41-.34-.39h0A.41.41,0,0,0,8,18.8C8.05,19,8.2,19.21,8.38,19.2Z" style="fill:#f392ad"/><path d="M9.84,16.94a.4.4,0,0,0,.3-.45l-.63.06C9.52,16.78,9.67,17,9.84,16.94Z" style="fill:#f392ad"/><path d="M7.94,16.69c0,.23.16.41.33.39h0c.18,0,.31-.22.3-.45l-.32,0Z" style="fill:#f392ad"/><path d="M10.12,22.44c-.18,0-.31.22-.3.45s.17.41.34.39.3-.21.29-.45S10.29,22.42,10.12,22.44Z" style="fill:#f392ad"/><path d="M9.28,21.45a.4.4,0,0,0-.3.45c0,.24.17.41.34.4a.4.4,0,0,0,.29-.45C9.6,21.61,9.45,21.44,9.28,21.45Z" style="fill:#f392ad"/><path d="M10.85,21.31a.41.41,0,0,0-.29.45c0,.24.16.41.33.4a.4.4,0,0,0,.3-.45C11.18,21.47,11,21.3,10.85,21.31Z" style="fill:#f392ad"/><path d="M8.54,22.58h0a.41.41,0,0,0-.29.45c0,.23.16.41.34.4h0A.41.41,0,0,0,8.88,23C8.87,22.74,8.72,22.56,8.54,22.58Z" style="fill:#f392ad"/><path d="M7.85,8.62h0c.18,0,.31-.22.3-.45S8,7.76,7.81,7.78h0c-.17,0-.3.21-.29.45S7.68,8.64,7.85,8.62Z" style="fill:#f392ad"/><path d="M6.49,13c.17,0,.3-.21.29-.45s-.16-.41-.33-.39-.31.21-.3.45S6.32,13,6.49,13Z" style="fill:#f392ad"/><path d="M6.38,10.88a.4.4,0,0,0,.3-.45.48.48,0,0,0-.16-.35h0l-.31.72A.26.26,0,0,0,6.38,10.88Z" style="fill:#f392ad"/><path d="M5.65,12a.4.4,0,0,0,.29-.46.5.5,0,0,0,0-.12h0c0,.09-.08.18-.13.27v0L5.65,12Z" style="fill:#f392ad"/><path d="M7.22,11.86c.18,0,.31-.21.3-.45S7.35,11,7.18,11s-.3.22-.29.45S7.05,11.88,7.22,11.86Z" style="fill:#f392ad"/><path d="M7.12,9.75a.41.41,0,0,0,.29-.45c0-.23-.16-.41-.33-.4h0c-.09.18-.17.37-.26.55h0A.33.33,0,0,0,7.12,9.75Z" style="fill:#f392ad"/><path d="M6.66,16.38c-.18,0-.31.21-.3.45L7,16.77C7,16.54,6.83,16.36,6.66,16.38Z" style="fill:#f392ad"/><path d="M6.55,14.26a.41.41,0,0,0-.29.45c0,.24.16.41.33.4a.4.4,0,0,0,.3-.45C6.88,14.42,6.73,14.25,6.55,14.26Z" style="fill:#f392ad"/><path d="M5.86,16.24a.4.4,0,0,0,.29-.46c0-.23-.16-.41-.33-.39a.4.4,0,0,0-.3.45C5.54,16.07,5.69,16.25,5.86,16.24Z" style="fill:#f392ad"/><path d="M7.39,15.25c-.17,0-.3.22-.29.45s.16.41.33.39.31-.21.3-.45S7.56,15.23,7.39,15.25Z" style="fill:#f392ad"/><path d="M5.76,14.12a.41.41,0,0,0,.29-.45c0-.23-.16-.41-.34-.4a.41.41,0,0,0-.29.46C5.43,14,5.58,14.14,5.76,14.12Z" style="fill:#f392ad"/><path d="M7.29,13.13a.4.4,0,0,0-.3.45c0,.24.16.42.34.4a.41.41,0,0,0,.29-.45C7.61,13.3,7.46,13.12,7.29,13.13Z" style="fill:#f392ad"/><path d="M5.08,16.52c-.17,0-.3.21-.29.45l.32,0,.31,0C5.41,16.68,5.26,16.5,5.08,16.52Z" style="fill:#f392ad"/><path d="M5,15.25a.4.4,0,0,0,.29-.45c0-.24-.16-.41-.33-.4H5a.4.4,0,0,0-.29.45C4.7,15.09,4.85,15.26,5,15.25Z" style="fill:#f392ad"/><path d="M8,12H8a.39.39,0,0,0-.29.45c0,.23.16.41.33.39h0c.18,0,.31-.22.3-.45S8.19,12,8,12Z" style="fill:#f392ad"/><path d="M6.8,19.34a.4.4,0,0,0,.3-.45c0-.24-.16-.41-.34-.4a.41.41,0,0,0-.29.45C6.48,19.18,6.63,19.35,6.8,19.34Z" style="fill:#f392ad"/><path d="M6.07,20.46A.39.39,0,0,0,6.36,20c0-.23-.16-.41-.33-.39s-.31.22-.3.45S5.9,20.48,6.07,20.46Z" style="fill:#f392ad"/><path d="M7.64,20.32c.18,0,.31-.21.3-.45s-.17-.41-.34-.39-.3.22-.29.45S7.47,20.34,7.64,20.32Z" style="fill:#f392ad"/><path d="M6,18.35a.41.41,0,0,0,.29-.45c0-.23-.16-.41-.34-.4a.41.41,0,0,0-.29.46C5.64,18.19,5.79,18.37,6,18.35Z" style="fill:#f392ad"/><path d="M7.5,17.36a.4.4,0,0,0-.3.45c0,.24.16.41.34.4a.41.41,0,0,0,.29-.45C7.82,17.52,7.67,17.35,7.5,17.36Z" style="fill:#f392ad"/><path d="M5.23,19.48h0A.4.4,0,0,0,5.52,19c0-.24-.16-.41-.33-.4h0a.4.4,0,0,0-.29.45C4.91,19.32,5.06,19.49,5.23,19.48Z" style="fill:#f392ad"/><path d="M6.7,17.22c.17,0,.3-.22.29-.45l-.63.06C6.38,17.06,6.53,17.24,6.7,17.22Z" style="fill:#f392ad"/><path d="M5.13,17.36h0c.17,0,.3-.21.29-.45l-.31,0-.32,0C4.8,17.2,5,17.38,5.13,17.36Z" style="fill:#f392ad"/><path d="M6.13,21.73a.41.41,0,0,0-.29.45c0,.24.16.42.33.4a.4.4,0,0,0,.3-.45C6.46,21.89,6.31,21.72,6.13,21.73Z" style="fill:#f392ad"/><path d="M7.71,21.59a.4.4,0,0,0-.3.45c0,.24.16.41.34.4A.41.41,0,0,0,8,22C8,21.75,7.88,21.58,7.71,21.59Z" style="fill:#f392ad"/><path d="M6.87,20.61c-.18,0-.31.21-.3.45s.17.41.34.39.3-.22.29-.45S7,20.59,6.87,20.61Z" style="fill:#f392ad"/><path d="M5.29,20.75h0c-.17,0-.3.21-.29.45s.16.41.34.39h0c.17,0,.3-.21.29-.45S5.47,20.73,5.29,20.75Z" style="fill:#f392ad"/><path d="M3.51,16.66c-.17,0-.3.22-.29.45l.63-.06C3.84,16.82,3.68,16.64,3.51,16.66Z" style="fill:#f392ad"/><path d="M4.29,16.38a.41.41,0,0,0,.29-.45c0-.24-.16-.42-.33-.4A.4.4,0,0,0,4,16C4,16.22,4.11,16.39,4.29,16.38Z" style="fill:#f392ad"/><path d="M3.62,18.77a.4.4,0,0,0-.3.45c0,.24.16.41.34.4A.41.41,0,0,0,4,19.17C3.94,18.93,3.79,18.76,3.62,18.77Z" style="fill:#f392ad"/><path d="M2.88,19.9a.41.41,0,0,0-.29.45c0,.24.16.41.33.4a.4.4,0,0,0,.3-.45C3.21,20.06,3.06,19.89,2.88,19.9Z" style="fill:#f392ad"/><path d="M4.46,19.76a.4.4,0,0,0-.3.45c0,.23.16.41.34.4a.41.41,0,0,0,.29-.46C4.78,19.92,4.63,19.74,4.46,19.76Z" style="fill:#f392ad"/><path d="M2.82,18.63c.17,0,.3-.22.29-.45s-.16-.41-.33-.39-.31.21-.3.45S2.65,18.65,2.82,18.63Z" style="fill:#f392ad"/><path d="M4.35,17.65a.39.39,0,0,0-.29.45c0,.23.16.41.33.39s.31-.22.3-.45S4.52,17.63,4.35,17.65Z" style="fill:#f392ad"/><path d="M2.09,19.76a.41.41,0,0,0,.29-.45c0-.23-.16-.41-.34-.4a.41.41,0,0,0-.29.46C1.76,19.6,1.91,19.78,2.09,19.76Z" style="fill:#f392ad"/><path d="M3.55,17.5c.18,0,.31-.21.3-.45l-.63.06C3.23,17.34,3.38,17.52,3.55,17.5Z" style="fill:#f392ad"/><path d="M12.8,2.68l.5-.07q-.62,0-1.23,0a.24.24,0,0,1,0,.15Z" style="fill:#f6b4cd"/><path d="M12.7,3a24.1,24.1,0,0,1,2.55,0h0a.65.65,0,0,0-.08.31l.63,0A.41.41,0,0,0,15.72,3h1a.88.88,0,0,0,0,.17l.32,0,.31,0a.77.77,0,0,0,0-.15h0c.32,0,.65,0,1-.07a.28.28,0,0,0,0,.13L19,3a.66.66,0,0,0,0-.15c.35-.06.7-.14,1-.23v0s0,0,0-.07l0-.34V2.06l-.11,0-.16,0a.47.47,0,0,0,.06-.27c0-.24-.16-.41-.34-.4a.41.41,0,0,0-.29.45.59.59,0,0,0,.1.29c-.37.05-.74.08-1.12.1a.58.58,0,0,0,.08-.3c0-.24-.16-.41-.34-.4a.41.41,0,0,0-.29.45.46.46,0,0,0,.09.27H16.51a.4.4,0,0,0,0-.19c0-.23-.16-.41-.33-.4a.39.39,0,0,0-.29.46.5.5,0,0,0,0,.12l-1,0h0c0-.23-.16-.41-.33-.39a.37.37,0,0,0-.3.37h.09l-1.08,0a.28.28,0,0,0-.53,0c-.42,0-.84,0-1.26,0h.12a.27.27,0,0,0-.19-.06.21.21,0,0,0-.16.08c-.41,0-.82.07-1.23.12a.21.21,0,0,0-.18-.06.26.26,0,0,0-.19.1l-.16,0a1.52,1.52,0,0,0,.12.36.47.47,0,0,0,.05.1.88.88,0,0,0,.21.22l0,.07,0,.08,0,0a4.53,4.53,0,0,0,.52,0C11.15,3.18,11.92,3,12.7,3Zm3.75-.66h0Zm-3.15.31-.5.07-.69.11a.24.24,0,0,0,0-.15Q12.69,2.61,13.3,2.61Z" style="fill:#f392ad"/></svg>