<svg xmlns="http://www.w3.org/2000/svg" viewBox="0 0 41.53 25.06"><path d="M16.67,3.77c.67-1.21,1.42-2.48,2.07-3.77H17.31C12.48,7.37,6.86,14.41,2,21.78a30,30,0,0,0,3.14.39,4.17,4.17,0,0,1,2.65,1c1.64-3.25,3.35-6.48,4.87-9.76S15.05,6.86,16.67,3.77Z" style="fill:#b01f24"/><path d="M14.78,16.23c.14-1.72.68-3.55.68-5.26-1.31,4.25-2,8.73-3.64,12.88a8.87,8.87,0,0,1,1.72-.6c.15-.71.29-1.43.44-2.11C14.25,19.43,14.65,17.83,14.78,16.23Z" style="fill:#b01f24"/><path d="M16.34,0,0,21.14s.32.33,2,.64C6.86,14.41,12.48,7.37,17.31,0Z" style="fill:#d61f27"/><path d="M18.28,8.8a23.93,23.93,0,0,1,1.21-6.17c-1.35,1.48-1.75,4.23-2.42,6.05-.81,2.29-1.21,4.8-1.88,7.2s-.67,4.69-1.21,7c0,.13-.05.25-.07.38a2.29,2.29,0,0,1,1.14.42,5.39,5.39,0,0,0,1.32.65c.06-2.53.65-5.14.83-7.5A79.8,79.8,0,0,1,18.28,8.8Z" style="fill:#b01f24"/><path d="M30.6,9.84a.46.46,0,0,0-.43-.53l.38.67A.58.58,0,0,0,30.6,9.84Z" style="fill:#d61f27"/><path d="M26.44,0h-1.5c.66,1.08,1.29,2.18,1.91,3.29A5.08,5.08,0,0,0,26.44,0Z" style="fill:#d61f27"/><path d="M26.81.25A5.33,5.33,0,0,1,27,3.62c1,1.83,2,3.68,3,5.53.35,0,.7.2.72.53a.69.69,0,0,1-.16.47c.82,1.43,1.66,2.85,2.56,4.25a67.32,67.32,0,0,0,5.1,6.74c.37.46.73.95,1.1,1.44a12.33,12.33,0,0,0,2.13-1.44Z" style="fill:#d61f27"/><path d="M23.3,6.41h0A5.73,5.73,0,0,0,23,5.6C23.09,5.87,23.2,6.14,23.3,6.41Z" style="fill:#d61f27"/><path d="M21.11,12.91c0-.19,0-.38,0-.57C21.1,12.53,21.1,12.72,21.11,12.91Z" style="fill:#d61f27"/><path d="M29.1,10.21c.47.14,1.23.23,1.45-.23l-.38-.67h-.11a1.51,1.51,0,0,0-.78.2,2.34,2.34,0,0,0-.53.39,2.6,2.6,0,0,1,.1.25Z" style="fill:#b01f24"/><path d="M27.55,6.74c.33,1,.72,2,1.13,3a1.87,1.87,0,0,1,1.2-.57h.2c-1-1.85-2-3.7-3-5.53a5.57,5.57,0,0,1-.3.77A15.24,15.24,0,0,1,27.55,6.74Z" style="fill:#b01f24"/><path d="M33.2,14.4c-.9-1.4-1.74-2.82-2.56-4.25a.83.83,0,0,1-.53.32A2.53,2.53,0,0,1,29,10.36c.53,1.22,1.08,2.42,1.56,3.58,1.21,2.86,2,5.94,3.36,8.69.12.27.26.55.4.83a4.37,4.37,0,0,1,.54.08,7,7,0,0,0,4.59-1c-.37-.49-.73-1-1.1-1.44A67.32,67.32,0,0,1,33.2,14.4Z" style="fill:#b01f24"/><path d="M26.48,3.89l.12.21a4.42,4.42,0,0,0,.25-.78v0C26.23,2.18,25.6,1.08,24.94,0H24.6C24.42,1.11,26,3,26.48,3.89Z" style="fill:#b01f24"/><path d="M21.44,4.86a1.8,1.8,0,0,0-1.32.51c-.27.36-.05.69.33.91a2.92,2.92,0,0,0,1.28.36,5.57,5.57,0,0,0,1.57-.23c-.1-.27-.21-.54-.32-.81a5.73,5.73,0,0,1,.33.81l.22,0A2.06,2.06,0,0,0,21.44,4.86Z" style="fill:#d61f27"/><path d="M23,8.3a4.77,4.77,0,0,0-1.87.42c-.44.2-1.1.61-.92,1.12a1.15,1.15,0,0,0,1.37.47,2.39,2.39,0,0,0,1.14-.9,4.19,4.19,0,0,0,.69-1.11Z" style="fill:#d61f27"/><path d="M23.58,6.56l-.21,0c.09.24.17.47.25.71A2.68,2.68,0,0,0,23.58,6.56Z" style="fill:#d61f27"/><path d="M26,14.64a.34.34,0,0,1-.13.27l.13,0a.5.5,0,0,1,.53.45.36.36,0,0,1-.11.26h0l.35-.14a2.47,2.47,0,0,0,1.1-1A2.92,2.92,0,0,0,28.33,13a1.32,1.32,0,0,0-.51-1.1l-.18-.11c-.05.16-.09.32-.14.47a1.32,1.32,0,0,1-.79.89c-.34.12-.87.15-1.06-.19a.92.92,0,0,1,.28-1.06,1.61,1.61,0,0,1,1.57-.34c.07-.15.14-.3.22-.44a8.85,8.85,0,0,1,.6-1,15,15,0,0,1-1.62-.77A10.45,10.45,0,0,0,25,8.52a4.72,4.72,0,0,0-1-.19c.64,2,1.15,3.94,1.68,5.94A.39.39,0,0,1,26,14.64Z" style="fill:#d61f27"/><path d="M26.48,11.7a1.29,1.29,0,0,0-.58.5c-.12.2-.26.53,0,.72.43.38,1.1-.05,1.3-.4a2.61,2.61,0,0,0,.25-.71.56.56,0,0,1,0-.12A1.35,1.35,0,0,0,26.48,11.7Z" style="fill:#d61f27"/><path d="M23.69,8.14h0v0Z" style="fill:#d61f27"/><path d="M24.61,6.26a6.71,6.71,0,0,1-.83.25,3.29,3.29,0,0,1,0,1.25c0,.13.09.26.13.39a5,5,0,0,1,1.63.41c.58.25,1.13.58,1.69.87a13,13,0,0,0,1.2.55,3.07,3.07,0,0,1,.25-.26c-.41-1-.8-2-1.13-3a15.24,15.24,0,0,0-.81-2.35A3.75,3.75,0,0,1,24.61,6.26Z" style="fill:#d61f27"/><path d="M28.75,9.89l-.14.16.24.09A2.6,2.6,0,0,0,28.75,9.89Z" style="fill:#d61f27"/><path d="M30.51,13.94c-.48-1.16-1-2.36-1.56-3.58l-.44-.15h0a3.74,3.74,0,0,0-.32.49c-.15.29-.33.56-.45.85l0,.08a1.26,1.26,0,0,1,.4.28,2.19,2.19,0,0,1,0,2.58,2.43,2.43,0,0,1-1.07,1,3.39,3.39,0,0,1-.77.29h-.17l.12.45h0a.62.62,0,0,1,.67.57v0a.39.39,0,0,1,.3.36.37.37,0,0,1-.13.27.49.49,0,0,1,.17.36s0,0,0,0a.55.55,0,0,1-.43.47l.06.2a4.08,4.08,0,0,0,1.35-.08,2.77,2.77,0,0,1,1.85.13l0,0,.21-.15h-.08a.34.34,0,0,1-.28-.43.39.39,0,0,1,.18-.2.35.35,0,0,1-.05-.3.48.48,0,0,1,.56-.26l.07,0a.31.31,0,0,1,.36-.15.24.24,0,0,1,.2.31v0a.5.5,0,0,1,.38-.07.35.35,0,0,1,.28.44l0,.07a.4.4,0,0,1,.13.44.54.54,0,0,1-.65.31.69.69,0,0,1-.15-.07.4.4,0,0,1-.41.12.35.35,0,0,1-.25-.2l-.29.26a.05.05,0,0,1,0,.05.62.62,0,0,1,.17.43c0,.51-.78,1.08-.93,1.55a.68.68,0,0,0,0,.32h.11a.35.35,0,0,1,.36.33.09.09,0,0,0,0,.05.23.23,0,0,1,.21.22.25.25,0,0,1-.26.2h0a.26.26,0,0,1,.13.24.33.33,0,0,1-.35.28h0c.3.49-.86.59-.86.32,0-.07.08-.15.18-.22a.37.37,0,0,1-.17-.31.27.27,0,0,1,0-.12.26.26,0,0,1-.19-.26.27.27,0,0,1,.22-.24.28.28,0,0,1-.08-.2.28.28,0,0,1,.13-.21,1.18,1.18,0,0,1-.15-.5,1.53,1.53,0,0,1,0-.53,6.55,6.55,0,0,1-.71-.12,2.11,2.11,0,0,0-.75-.17l-.08,0a37.84,37.84,0,0,1,1,4.21c2.05-.2,4.33-.81,6-.66-.14-.28-.28-.56-.4-.83C32.52,19.88,31.72,16.8,30.51,13.94Z" style="fill:#d61f27"/><path d="M25.62,22.77l-.17,0c-.27,0-.68.06-.53-.22a.64.64,0,0,1,.23-.18.35.35,0,0,1-.11-.26l0-.11a.25.25,0,0,1,0-.5.28.28,0,0,1-.09-.2.33.33,0,0,1,.36-.28h0c0-.27-.08-.54-.12-.82a3.09,3.09,0,0,1-.14-.32l-.28-.16a.9.9,0,0,1-.41-.73.75.75,0,0,1-.6-.32h-.09a.63.63,0,0,1-.67-.57.54.54,0,0,1,.06-.25l.06-.08a.32.32,0,0,1-.16-.27.38.38,0,0,1,.41-.35h.11v-.05a.52.52,0,0,1,.2-.39,4.29,4.29,0,0,0-.49,0c-.2,0-.65,0-.67-.26s.34-.37.54-.43a5.21,5.21,0,0,0,.82-.24.24.24,0,0,1,0-.08h-.08a.32.32,0,0,1-.34-.29.24.24,0,0,1,.11-.2.49.49,0,0,1-.11-.31.63.63,0,0,1,.67-.57h.08a.45.45,0,0,1,.23-.31c-.09-.69-.2-1.38-.33-2.05-.23-1.17-.28-2.45-.46-3.69h-.1a3.42,3.42,0,0,1-.44.82c-.48.66-1.12,1.51-2.17,1.4a1.12,1.12,0,0,1-1-.59.93.93,0,0,1,.45-1,4.86,4.86,0,0,1,3-.76V8.08a3.12,3.12,0,0,0,.11-.53c-.06-.32-.14-.64-.23-1l-.27.06a4.37,4.37,0,0,1-1.76.14c-.62-.12-1.69-.51-1.57-1.19s1.34-1,2.11-.91a2.22,2.22,0,0,1,1.86,1.6,4.05,4.05,0,0,0,2.14-1.11A3.69,3.69,0,0,0,26.6,4.1l-.12-.21C26,3,24.42,1.11,24.6,0H18.74c-.65,1.29-1.4,2.56-2.07,3.77-1.62,3.09-2.56,6.4-4,9.6S9.4,19.88,7.76,23.13a3.35,3.35,0,0,0,2.19,1,4.14,4.14,0,0,0,1.87-.26c1.64-4.15,2.33-8.63,3.64-12.88,0,1.71-.54,3.54-.68,5.26s-.53,3.2-.8,4.91c-.15.68-.29,1.4-.44,2.11a1.51,1.51,0,0,1,.37,0c0-.13.05-.25.07-.38.54-2.28.67-4.68,1.21-7s1.07-4.91,1.88-7.2c.67-1.82,1.07-4.57,2.42-6A23.93,23.93,0,0,0,18.28,8.8a79.8,79.8,0,0,0-1.08,8c-.18,2.36-.77,5-.83,7.5a10.25,10.25,0,0,0,2.49.47,29.18,29.18,0,0,0,.9-3.4c.37-2.78,1.34-5.66,1.35-8.46,0-.19,0-.38,0-.57,0,.19,0,.38,0,.57.09,2.32.66,4.65.66,7,0,1.74.13,3.45.26,5.16,1.42-.2.84-2.07,3.1-1.16a3.09,3.09,0,0,0,.54.17V24C25.67,23.59,25.65,23.19,25.62,22.77Z" style="fill:#d61f27"/><path d="M21.11,12.91c0,2.8-1,5.68-1.35,8.46a29.18,29.18,0,0,1-.9,3.4c.81.08,1.65.13,2.51.26A2.46,2.46,0,0,0,22,25c-.13-1.71-.26-3.42-.26-5.16C21.77,17.56,21.2,15.23,21.11,12.91Z" style="fill:#b01f24"/><path d="M25.32,14.32a.48.48,0,0,1,.24-.06h.09c-.53-2-1-4-1.68-5.94l-.24,0c.18,1.24.23,2.52.46,3.69.13.67.24,1.36.33,2.05a.55.55,0,0,1,.29-.08A.51.51,0,0,1,25.32,14.32Z" style="fill:#b01f24"/><path d="M26.41,18.36a.86.86,0,0,0,.19.11l.26.08-.06-.2a.64.64,0,0,1-.2,0Z" style="fill:#b01f24"/><path d="M23.37,6.6h0c.09.31.17.63.23,1a1.94,1.94,0,0,0,0-.24C23.54,7.07,23.46,6.84,23.37,6.6Z" style="fill:#b01f24"/><path d="M25.41,20.47l-.12-.25c0,.28.09.55.12.82l.08,0A1.24,1.24,0,0,0,25.41,20.47Z" style="fill:#b01f24"/><path d="M26.6,20.13a2.18,2.18,0,0,1-.72,0,.9.9,0,0,1,.16.58c0,.11-.05.23-.07.35a.32.32,0,0,1,.26.31s0,0,0,.06a.21.21,0,0,1,.21.21.23.23,0,0,1-.26.2h0a.29.29,0,0,1,.14.24.33.33,0,0,1-.36.28h-.08l-.05.05c.06.21,0,.34-.18.38,0,.42.05.82.05,1.23v.05a7.84,7.84,0,0,0,2.58.07,37.84,37.84,0,0,0-1-4.21C27.05,20,26.83,20.08,26.6,20.13Z" style="fill:#b01f24"/><path d="M23.7,8.14h.21c0-.13-.08-.26-.13-.39a3.38,3.38,0,0,1-.08.34Z" style="fill:#b01f24"/><path d="M26.09,16.2l0,0h0a.09.09,0,1,0,0,.17.1.1,0,0,0,.1-.08.08.08,0,0,0,0,0h0l-.12-.45H25.9C26,15.94,26,16.08,26.09,16.2Z" style="fill:#b01f24"/><path d="M24.17,16.75a.1.1,0,0,0-.13,0,.08.08,0,0,0,.05.11.11.11,0,0,0,.13,0A.07.07,0,0,0,24.17,16.75Z" style="fill:#fff"/><path d="M23.92,16.72a.1.1,0,0,0-.13.05.08.08,0,0,0,.05.11.11.11,0,0,0,.13,0A.09.09,0,0,0,23.92,16.72Z" style="fill:#fff"/><path d="M24.4,16.05a.15.15,0,1,0-.15.12A.14.14,0,0,0,24.4,16.05Z" style="fill:#fff"/><path d="M25,16.66a.11.11,0,0,0-.13,0,.08.08,0,0,0,.05.11.11.11,0,0,0,.13,0A.08.08,0,0,0,25,16.66Z" style="fill:#fff"/><path d="M24.48,16.83s0-.09-.05-.11a.11.11,0,0,0-.13,0,.09.09,0,0,0,.05.12A.1.1,0,0,0,24.48,16.83Z" style="fill:#fff"/><path d="M25.22,16.6a.11.11,0,0,0-.14,0,.08.08,0,0,0,.05.11.12.12,0,0,0,.14,0A.09.09,0,0,0,25.22,16.6Z" style="fill:#fff"/><path d="M24.62,16.85a.11.11,0,0,0,.13,0s0-.09-.05-.11a.11.11,0,0,0-.13,0A.08.08,0,0,0,24.62,16.85Z" style="fill:#fff"/><path d="M25.67,16.47a.09.09,0,1,0,0,.17.09.09,0,1,0,0-.17Z" style="fill:#fff"/><path d="M25.47,16.55a.11.11,0,0,0-.13,0,.09.09,0,0,0,.05.12.11.11,0,0,0,.13-.05A.08.08,0,0,0,25.47,16.55Z" style="fill:#fff"/><path d="M25.89,16.36a.09.09,0,1,0,0,.17.09.09,0,0,0,.09-.09A.09.09,0,0,0,25.89,16.36Z" style="fill:#fff"/><path d="M24.45,18.33,25,18.2c-.18-1.36-.3-2.76-.47-4.15a.45.45,0,0,0-.23.31h-.08a.63.63,0,0,0-.67.57.49.49,0,0,0,.11.31.24.24,0,0,0-.11.2.32.32,0,0,0,.34.29H24a.24.24,0,0,0,0,.08,5.21,5.21,0,0,1-.82.24c-.2.06-.56.2-.54.43s.47.26.67.26a4.29,4.29,0,0,1,.49,0,.52.52,0,0,0-.2.39v.05h-.11a.38.38,0,0,0-.41.35.32.32,0,0,0,.16.27l-.06.08a.54.54,0,0,0-.06.25.63.63,0,0,0,.67.57h.09a.75.75,0,0,0,.6.32C24.44,18.8,24.46,18.56,24.45,18.33ZM24,16.84a.11.11,0,0,1-.13,0,.08.08,0,0,1-.05-.11.1.1,0,0,1,.13-.05A.09.09,0,0,1,24,16.84Zm.6-.1a.11.11,0,0,1,.13,0c.05,0,.08.07.05.11a.11.11,0,0,1-.13,0A.08.08,0,0,1,24.57,16.74Zm-.35.12a.11.11,0,0,1-.13,0,.08.08,0,0,1-.05-.11.1.1,0,0,1,.13,0A.07.07,0,0,1,24.22,16.86Zm-.12-.81a.15.15,0,1,1,.15.12A.14.14,0,0,1,24.1,16.05Zm.25.83a.09.09,0,0,1-.05-.12.11.11,0,0,1,.13,0c.05,0,.08.07.05.11A.1.1,0,0,1,24.35,16.88Z" style="fill:#231f20"/><path d="M26.8,18.35a.55.55,0,0,0,.43-.47s0,0,0,0a.49.49,0,0,0-.17-.36.37.37,0,0,0,.13-.27.39.39,0,0,0-.3-.36v0a.62.62,0,0,0-.67-.57h0l.15.54C26.49,17.31,26.64,17.83,26.8,18.35Z" style="fill:#231f20"/><path d="M26.42,15.6a.36.36,0,0,0,.11-.26.5.5,0,0,0-.53-.45l-.13,0a.34.34,0,0,0,.13-.27.39.39,0,0,0-.35-.37L26,15.72l.07,0A2.8,2.8,0,0,1,26.42,15.6Z" style="fill:#231f20"/><path d="M26.17,16.31a.1.1,0,0,1-.1.08.09.09,0,1,1,0-.17h0l0,0c-.07-.12-.13-.26-.19-.39a.53.53,0,0,0-.26,0c-.06,0-.1,0-.05-.07s.31,0,.45-.06l-.39-1.45h-.09a.48.48,0,0,0-.24.06.51.51,0,0,0-.51-.35.55.55,0,0,0-.29.08c.17,1.39.29,2.79.47,4.15l1.1-.26c.12,0,.09.14.15.25a1.36,1.36,0,0,0,.17.17l.19,0a.64.64,0,0,0,.2,0c-.16-.52-.31-1-.46-1.55l-.15-.54h0A.08.08,0,0,1,26.17,16.31ZM25,16.77a.11.11,0,0,1-.13,0,.08.08,0,0,1-.05-.11.11.11,0,0,1,.13,0A.08.08,0,0,1,25,16.77Zm.26-.05a.12.12,0,0,1-.14,0,.08.08,0,0,1-.05-.11.11.11,0,0,1,.14,0A.09.09,0,0,1,25.27,16.72Zm.25-.06a.11.11,0,0,1-.13.05.09.09,0,0,1-.05-.12.11.11,0,0,1,.13,0A.08.08,0,0,1,25.52,16.66Zm.15,0a.09.09,0,1,1,0-.17.09.09,0,1,1,0,.17Zm.22-.11a.09.09,0,1,1,0-.17.09.09,0,0,1,.09.08A.09.09,0,0,1,25.89,16.53Z" style="fill:#231f20"/><path d="M27.34,19.88a2.11,2.11,0,0,1,.75.17,6.55,6.55,0,0,0,.71.12,1.89,1.89,0,0,1,.3-.65l.67-.95a.59.59,0,0,1,.27.08l0,0,0,0a2.77,2.77,0,0,0-1.85-.13,4.08,4.08,0,0,1-1.35.08c.13.45.27.9.4,1.36Z" style="fill:#231f20"/><path d="M25.15,19.59l.05,0c-.07-.44-.14-.89-.2-1.33V18.2l-.54.13c0,.23,0,.47,0,.68a.9.9,0,0,0,.41.73l.28.16A.47.47,0,0,1,25.15,19.59Z" style="fill:#231f20"/><path d="M26.41,18.36a1.36,1.36,0,0,1-.17-.17c-.06-.11,0-.22-.15-.25L25,18.2v.08c.06.44.13.89.2,1.33l.51.2a3.07,3.07,0,0,0,.17.31,2.18,2.18,0,0,0,.72,0c.23-.05.45-.16.66-.22-.13-.46-.27-.91-.4-1.36l-.26-.08A.86.86,0,0,1,26.41,18.36Z" style="fill:#231f20"/><path d="M30.27,18.84a.05.05,0,0,0,0-.05h0Z" style="fill:#231f20"/><path d="M30,19,30,18.76s0-.06.08-.11a.59.59,0,0,0-.27-.08l-.67.95a1.89,1.89,0,0,0-.3.65,1.53,1.53,0,0,0,0,.53,1.18,1.18,0,0,0,.15.5.4.4,0,0,1,.45,0,.3.3,0,0,1,.16-.08.68.68,0,0,1,0-.32c.15-.47.93-1,.93-1.55a.62.62,0,0,0-.17-.43l0-.05Z" style="fill:#231f20"/><path d="M30,18.76,30,19l.21-.16h0l.29-.26a.29.29,0,0,1,0-.09.41.41,0,0,1-.22,0l-.21.15,0,0C30,18.7,30,18.74,30,18.76Z" style="fill:#231f20"/><path d="M30.51,18.44a.29.29,0,0,0,0,.09.35.35,0,0,0,.25.2.4.4,0,0,0,.41-.12.69.69,0,0,0,.15.07.54.54,0,0,0,.65-.31.4.4,0,0,0-.13-.44l0-.07a.35.35,0,0,0-.28-.44.5.5,0,0,0-.38.07v0a.24.24,0,0,0-.2-.31.31.31,0,0,0-.36.15l-.07,0a.48.48,0,0,0-.56.26.35.35,0,0,0,.05.3.39.39,0,0,0-.18.2.34.34,0,0,0,.28.43h.08A.41.41,0,0,0,30.51,18.44Z" style="fill:#231f20"/><path d="M29.15,21.14a.35.35,0,0,0-.23.06.28.28,0,0,0-.13.21.28.28,0,0,0,.08.2.27.27,0,0,0-.22.24.26.26,0,0,0,.19.26.27.27,0,0,0,0,.12.37.37,0,0,0,.17.31.88.88,0,0,1,.38-.16l.23,0,.07.09h0a.33.33,0,0,0,.35-.28.26.26,0,0,0-.13-.24h0a.25.25,0,0,0,.26-.2.23.23,0,0,0-.21-.22.09.09,0,0,1,0-.05.35.35,0,0,0-.36-.33h-.11a.3.3,0,0,0-.16.08A.35.35,0,0,0,29.15,21.14Z" style="fill:#231f20"/><path d="M25.58,22.38c0-.22,0-.44-.07-.66a.13.13,0,0,1-.1-.07c0-.07,0-.26,0-.35v0a2,2,0,0,0,0-.24h0a.33.33,0,0,0-.36.28.28.28,0,0,0,.09.2.25.25,0,0,0,0,.5l0,.11a.35.35,0,0,0,.11.26C25.32,22.31,25.51,22.27,25.58,22.38Z" style="fill:#231f20"/><path d="M25.51,21.72c0,.22,0,.44.07.66a0,0,0,0,1,0,0l.19-.1a.31.31,0,0,1,0,.08l.05-.05h.08a.33.33,0,0,0,.36-.28.29.29,0,0,0-.14-.24h0a.23.23,0,0,0,.26-.2.21.21,0,0,0-.21-.21s0,0,0-.06a.32.32,0,0,0-.26-.31,6.29,6.29,0,0,0-.11.72A2,2,0,0,1,25.51,21.72Z" style="fill:#231f20"/><path d="M25.49,21.06l-.08,0a2,2,0,0,1,0,.24A1.7,1.7,0,0,0,25.49,21.06Z" style="fill:#231f20"/><path d="M25.15,19.59a.47.47,0,0,0,0,.31,3.09,3.09,0,0,0,.14.32l-.09-.61Z" style="fill:#231f20"/><path d="M25.41,21.65a.13.13,0,0,0,.1.07l-.06-.44v0C25.45,21.39,25.37,21.58,25.41,21.65Z" style="fill:#231f20"/><path d="M25.2,19.61l.09.61.12.25a1.24,1.24,0,0,1,.08.59,1.7,1.7,0,0,1,0,.22l.06.44a2,2,0,0,0,.35.05,6.29,6.29,0,0,1,.11-.72c0-.12.05-.24.07-.35a.9.9,0,0,0-.16-.58,3.07,3.07,0,0,1-.17-.31Z" style="fill:#231f20"/><path d="M25.15,22.39a.64.64,0,0,0-.23.18c-.15.28.26.22.53.22l.17,0c0-.13,0-.26,0-.39S25.32,22.31,25.15,22.39Z" style="fill:#231f20"/><path d="M25.59,22.41a0,0,0,0,0,0,0c0,.13,0,.26,0,.39.2,0,.24-.17.18-.38a.31.31,0,0,0,0-.08Z" style="fill:#231f20"/><path d="M29.36,22.38a.88.88,0,0,0-.38.16c-.1.07-.18.15-.18.22,0,.27,1.16.17.86-.32l-.07-.09Z" style="fill:#231f20"/><path d="M30.6,9.84a.58.58,0,0,1-.05.14l.05.09a.5.5,0,0,0-.09-.71.87.87,0,0,0-.39-.14l.05.09A.46.46,0,0,1,30.6,9.84Z" style="fill:#211f1f"/><path d="M26.57,0a5.26,5.26,0,0,1,.37,3.44l.1.18A5.33,5.33,0,0,0,26.81.25L26.63,0Z" style="fill:#211f1f"/><path d="M30.51,9.36a.5.5,0,0,1,.09.71l0,.08a.69.69,0,0,0,.16-.47c0-.33-.37-.51-.72-.53l0,.07A.87.87,0,0,1,30.51,9.36Z" style="fill:#211f1f"/><path d="M26.85,3.29l.09.15A5.26,5.26,0,0,0,26.57,0h-.13A5.08,5.08,0,0,1,26.85,3.29Z" style="fill:#211f1f"/><path d="M23.31,6.41h0l0,.1h0Z" style="fill:#211f1f"/><path d="M23.33,6.51l0,.07a.31.31,0,0,0,0-.08Z" style="fill:#211f1f"/><path d="M29.1,10.21l-.25-.07,0,.1.12,0a1.75,1.75,0,0,0,1.31,0,.75.75,0,0,0,.27-.23L30.55,10C30.33,10.44,29.57,10.35,29.1,10.21Z" style="fill:#211f1f"/><path d="M26.94,3.44l-.09-.15v0a4.42,4.42,0,0,1-.25.78.54.54,0,0,0,.07.13A4.89,4.89,0,0,0,26.94,3.44Z" style="fill:#211f1f"/><path d="M29.28,9.5a1.51,1.51,0,0,1,.78-.2h.11l-.05-.09a1.76,1.76,0,0,0-1.07.32,2.16,2.16,0,0,0-.33.27l0,.08A2.34,2.34,0,0,1,29.28,9.5Z" style="fill:#211f1f"/><path d="M26.67,4.23s0,.1.07.16a5.57,5.57,0,0,0,.3-.77l-.1-.18A4.89,4.89,0,0,1,26.67,4.23Z" style="fill:#211f1f"/><path d="M29.88,9.15a1.87,1.87,0,0,0-1.2.57l0,.09a2.16,2.16,0,0,1,.33-.27,1.76,1.76,0,0,1,1.07-.32l0-.07Z" style="fill:#211f1f"/><path d="M30.33,10.3a1.75,1.75,0,0,1-1.31,0l-.12,0,.05.12a2.53,2.53,0,0,0,1.16.11.83.83,0,0,0,.53-.32l0-.08A.75.75,0,0,1,30.33,10.3Z" style="fill:#211f1f"/><path d="M25.93,11.88a.92.92,0,0,0-.28,1.06c.19.34.72.31,1.06.19a1.32,1.32,0,0,0,.79-.89c.05-.15.09-.31.14-.47l-.1,0,0,0a1.81,1.81,0,0,1-.59,1.14c-.27.2-.9.35-1.17,0s0-.86.36-1.11a1.41,1.41,0,0,1,1.35-.21l0-.08A1.61,1.61,0,0,0,25.93,11.88Z" style="fill:#211f1f"/><path d="M23.69,8.14l0,.08h.06l0-.09Z" style="fill:#211f1f"/><path d="M23.7,8.1c0-.08,0-.17,0-.25a2.29,2.29,0,0,1-.08.28h.11Z" style="fill:#211f1f"/><path d="M26.12,11.83c-.33.25-.63.78-.36,1.11s.9.18,1.17,0a1.81,1.81,0,0,0,.59-1.14l0,0-.09,0a.56.56,0,0,0,0,.12,2.61,2.61,0,0,1-.25.71c-.2.35-.87.78-1.3.4-.22-.19-.08-.52,0-.72a1.29,1.29,0,0,1,.58-.5,1.35,1.35,0,0,1,1,0s0,0,0-.07A1.41,1.41,0,0,0,26.12,11.83Z" style="fill:#211f1f"/><path d="M22.73,9.41a2.39,2.39,0,0,1-1.14.9,1.15,1.15,0,0,1-1.37-.47c-.18-.51.48-.92.92-1.12A4.77,4.77,0,0,1,23,8.3h.41l0-.08a4.8,4.8,0,0,0-2.2.36c-.45.17-1,.5-1.13.94s.3.83.83.91c1,.15,1.56-.58,2-1.19a3.54,3.54,0,0,0,.55-.94h-.11A4.19,4.19,0,0,1,22.73,9.41Z" style="fill:#211f1f"/><path d="M23.78,6.51a.43.43,0,0,0,0-.11l-.1,0s0,.07,0,.1Z" style="fill:#211f1f"/><path d="M23.42,8.3h.11l0-.08h-.11Z" style="fill:#211f1f"/><path d="M23.58,8.13a.29.29,0,0,1,0,.09h.1l0-.08Z" style="fill:#211f1f"/><path d="M23.55,6.45l.11,0,0-.1-.1,0S23.54,6.42,23.55,6.45Z" style="fill:#211f1f"/><path d="M26.48,9.14a19.44,19.44,0,0,0,1.89.92l.06-.08a13,13,0,0,1-1.2-.55c-.56-.29-1.11-.62-1.69-.87a5,5,0,0,0-1.63-.41l0,.09H24A5.86,5.86,0,0,1,26.48,9.14Z" style="fill:#211f1f"/><path d="M23.31,6.41l0,.09.21,0s0-.06,0-.09Z" style="fill:#211f1f"/><path d="M21.73,6.64a2.92,2.92,0,0,1-1.28-.36c-.38-.22-.6-.55-.33-.91a1.8,1.8,0,0,1,1.32-.51,2.06,2.06,0,0,1,2.09,1.5l.1,0A2.06,2.06,0,0,0,22.6,5a2.36,2.36,0,0,0-2.54.26c-.69.78.68,1.34,1.43,1.44a5.24,5.24,0,0,0,1.84-.21l0-.1A5.57,5.57,0,0,1,21.73,6.64Z" style="fill:#211f1f"/><path d="M23.68,6.53l-.1,0a2.68,2.68,0,0,1,0,.75l.09.23c0-.15,0-.3,0-.46A2.5,2.5,0,0,0,23.68,6.53Z" style="fill:#211f1f"/><path d="M23.78,6.51l-.1,0a2.5,2.5,0,0,1,.05.55c0,.16,0,.31,0,.46s.05.15.07.22A3.29,3.29,0,0,0,23.78,6.51Z" style="fill:#211f1f"/><path d="M23.57,6.54a.29.29,0,0,0,0-.09l-.21,0a.31.31,0,0,1,0,.08v0l.21,0Z" style="fill:#211f1f"/><path d="M23.57,6.54v0l.1,0s0-.07,0-.1l-.11,0A.29.29,0,0,1,23.57,6.54Z" style="fill:#211f1f"/><path d="M23.33,6.51a5.24,5.24,0,0,1-1.84.21c-.75-.1-2.12-.66-1.43-1.44A2.36,2.36,0,0,1,22.6,5a2.06,2.06,0,0,1,1,1.31l.1,0h0a2.22,2.22,0,0,0-1.86-1.6c-.77-.11-2,.13-2.11.91s.95,1.07,1.57,1.19a4.37,4.37,0,0,0,1.76-.14l.27-.06v0Z" style="fill:#211f1f"/><path d="M23.66,7.85l-.06-.3a3.12,3.12,0,0,1-.11.53v.05h.1A2.29,2.29,0,0,0,23.66,7.85Z" style="fill:#211f1f"/><path d="M23.63,6.33l0,.1.1,0h0s0-.06,0-.09h0Z" style="fill:#211f1f"/><path d="M23.56,8.22a.29.29,0,0,0,0-.09h-.1l0,.09Z" style="fill:#211f1f"/><path d="M23.76,6.4l.15,0a3.82,3.82,0,0,0,2.76-2.14.54.54,0,0,1-.07-.13,3.69,3.69,0,0,1-.72,1.09A4.05,4.05,0,0,1,23.74,6.3s0,.06,0,.09Z" style="fill:#211f1f"/><path d="M28.52,10c.06-.07.13-.13.2-.2l0-.09a3.07,3.07,0,0,0-.25.26Z" style="fill:#211f1f"/><path d="M28.61,10.05l.14-.16,0-.08c-.07.07-.14.13-.2.2Z" style="fill:#211f1f"/><path d="M23.91,6.37l-.15,0a.43.43,0,0,1,0,.11,6.71,6.71,0,0,0,.83-.25,3.75,3.75,0,0,0,2.13-1.87c0-.06,0-.11-.07-.16A3.82,3.82,0,0,1,23.91,6.37Z" style="fill:#211f1f"/><path d="M23,9.24c-.47.61-1,1.34-2,1.19-.53-.08-.95-.43-.83-.91s.68-.77,1.13-.94a4.8,4.8,0,0,1,2.2-.36l0-.09a4.86,4.86,0,0,0-3,.76.93.93,0,0,0-.45,1,1.12,1.12,0,0,0,1,.59c1.05.11,1.69-.74,2.17-1.4a3.42,3.42,0,0,0,.44-.82h-.1A3.54,3.54,0,0,1,23,9.24Z" style="fill:#211f1f"/><path d="M23.66,8.22l0,.08h.1V8.23Z" style="fill:#211f1f"/><path d="M28.46,10.09l-.06.07.09,0,.05-.08Z" style="fill:#211f1f"/><path d="M28.06,10.71a5.56,5.56,0,0,0-.46.87l.09,0,0-.08c.12-.29.3-.56.45-.85a3.74,3.74,0,0,1,.32-.49l-.09,0A3.87,3.87,0,0,0,28.06,10.71Z" style="fill:#211f1f"/><path d="M28.54,10.12l-.05.08h0l.44.15-.05-.12Z" style="fill:#211f1f"/><path d="M28.33,12.44a2.79,2.79,0,0,1-.57,2.38,2.87,2.87,0,0,1-1.49.9l-.21.06v0h.17a3.39,3.39,0,0,0,.77-.29,2.43,2.43,0,0,0,1.07-1,2.19,2.19,0,0,0,0-2.58,1.26,1.26,0,0,0-.4-.28l0,.08A1.22,1.22,0,0,1,28.33,12.44Z" style="fill:#211f1f"/><path d="M28.61,10.05l-.07.07.36.12,0-.1Z" style="fill:#211f1f"/><path d="M27.57,11.65l.09,0,0-.08-.09,0Z" style="fill:#211f1f"/><path d="M23.56,8.22l0,.08h.1l0-.08Z" style="fill:#211f1f"/><path d="M28.32,10.13l.08,0,.06-.07-.09,0Z" style="fill:#211f1f"/><path d="M27.45,11.69l.09,0,0-.08-.1,0S27.46,11.67,27.45,11.69Z" style="fill:#211f1f"/><path d="M28.52,10l-.06.08.08,0,.07-.07Z" style="fill:#211f1f"/><path d="M27.64,11.77s0,0,0-.07l-.09,0,0,.08Z" style="fill:#211f1f"/><path d="M27.82,11.88a1.32,1.32,0,0,1,.51,1.1,2.92,2.92,0,0,1-.43,1.48,2.47,2.47,0,0,1-1.1,1l-.35.14h0a.44.44,0,0,1-.15.12,2.87,2.87,0,0,0,1.49-.9,2.79,2.79,0,0,0,.57-2.38,1.22,1.22,0,0,0-.67-.74s0,.05,0,.07Z" style="fill:#211f1f"/><path d="M27.47,11.62l.1,0,0-.07-.1,0Z" style="fill:#211f1f"/><path d="M26.7,9.36a15,15,0,0,0,1.62.77l.05-.07a19.44,19.44,0,0,1-1.89-.92A5.86,5.86,0,0,0,24,8.25h-.06l0,.09a4.72,4.72,0,0,1,1,.19A10.45,10.45,0,0,1,26.7,9.36Z" style="fill:#211f1f"/><path d="M28.43,10l-.06.08.09,0,.06-.08Z" style="fill:#211f1f"/><path d="M27.72,11.1c-.08.14-.15.29-.22.44l.1,0a5.56,5.56,0,0,1,.46-.87,3.87,3.87,0,0,1,.34-.55l-.08,0A8.85,8.85,0,0,0,27.72,11.1Z" style="fill:#211f1f"/><path d="M23.94,8.24h-.22v.08l.24,0Z" style="fill:#211f1f"/><path d="M23.77,8.14H23.7l0,.09h.22l0-.09Z" style="fill:#211f1f"/><path d="M26,15.78h-.11v0h.17v0Z" style="fill:#211f1f"/><path d="M25.89,15.78h0Z" style="fill:#211f1f"/><path d="M23.71,7.54l-.09-.23a1.94,1.94,0,0,1,0,.24l.06.3C23.68,7.75,23.69,7.65,23.71,7.54Z" style="fill:#211f1f"/><path d="M23.36,6.58v0h0Z" style="fill:#211f1f"/><path d="M23.78,7.76c0-.07-.05-.14-.07-.22,0,.11,0,.21-.05.31s0,.17,0,.25A3.38,3.38,0,0,0,23.78,7.76Z" style="fill:#211f1f"/><path d="M26.05,15.77h0l.21-.06-.18,0Z" style="fill:#211f1f"/><path d="M26.42,15.6a2.8,2.8,0,0,0-.31.09l-.07,0v0h0l.18,0A.44.44,0,0,0,26.42,15.6Z" style="fill:#211f1f"/><path d="M26,15.72c-.14,0-.32,0-.45.06s0,.1.05.07a.53.53,0,0,1,.26,0v0a.67.67,0,0,0-.28,0,.67.67,0,0,1,.28,0h.16Z" style="fill:#211f1f"/><path d="M25.93,15.78h0Z" style="fill:#211f1f"/></svg>