<svg xmlns="http://www.w3.org/2000/svg" viewBox="0 0 16.64 65.49"><path d="M2.88,39.58c0,.1.78,1,.36,1.28s-1-.64-1.1-.92-.61-2-.63-2.24-.17-1-.17-1.16.83-.17.9-.07a6.72,6.72,0,0,0,.1,1.25A12.89,12.89,0,0,0,2.88,39.58Z" style="fill:#5e4135"/><path d="M2.32,40c.31.64.48.5.87.89s-.65-.1-1-1a20.76,20.76,0,0,1-.63-2.24c0-.22-.17-1-.17-1.16s.15-.22.16-.11A11.14,11.14,0,0,0,2.32,40Z" style="fill:#6e4d3d"/><path d="M3.07,39.87c0,.1.66,1.1.31,1.35s-.82-.67-.92-1-.52-2.15-.54-2.38-.14-1-.14-1.22.7-.18.76-.08a8.82,8.82,0,0,0,.08,1.33A18.2,18.2,0,0,0,3.07,39.87Z" style="fill:#5e4135"/><path d="M3,41c.21.1.4-.14.44-.06a.21.21,0,0,1-.09.31c-.35.25-.82-.67-.92-1s-.52-2.15-.54-2.38-.14-1-.14-1.22c0,0,0-.08.09-.1s-.05-.24.06.51C2.54,41,3,41,3,41Z" style="fill:#6e4d3d"/><path d="M2.07,36.62s.32,2,.42,2.4.59,1.75.93,1.75.38-.6.28-1-.58-1-.73-1.61a8.39,8.39,0,0,1-.18-2c0-.25.06-1,.06-.73s0,.34,0,.71-.11.84-.1,1c0,.37.68.61.74.1,0-.19,0-1,0-1.38a5.74,5.74,0,0,0-.1-1.37L3,33.1c-.18-.43-.22-.65-.26-.73s-1.38-.32-1.48,0a16.9,16.9,0,0,0,0,2,12.6,12.6,0,0,0,.06,2.15C1.43,37.19,2.07,36.62,2.07,36.62Z" style="fill:#6e4d3d"/><path d="M.5,20.39c0,.2-.43,3.37-.41,3.78a36.88,36.88,0,0,0,.2,5.59c.36,1.67.62,2.54.84,3.63.15.7,1.66.11,1.66.11s0-1.5-.15-3c0-.71-.17-2.3-.27-3.5a19.2,19.2,0,0,1,.11-2.74c.09-.71.63-4,.63-4Z" style="fill:#6e4d3d"/><path d="M16.08,21.32c0,.21.43,3.38.41,3.79a35.47,35.47,0,0,1-.2,5.58c-.36,1.67-.61,2.54-.84,3.63-.14.7-1.66.11-1.66.11s.05-1.5.15-3c.05-.71.17-2.3.27-3.5a19.28,19.28,0,0,0-.11-2.75c-.09-.7-.63-4-.63-4Z" style="fill:#6e4d3d"/><path d="M14.4,40.24c0,.09-.74.94-.35,1.16s.94-.58,1.06-.84.58-1.84.6-2,.17-.87.17-1.05-.8-.14-.87-.06a5.05,5.05,0,0,1-.09,1.13A12.11,12.11,0,0,1,14.4,40.24Z" style="fill:#5e4135"/><path d="M13.94,40.52c0,.09-.78,1-.37,1.27s1-.64,1.1-.92.61-2,.64-2.24.17-1,.17-1.16-.83-.16-.91-.07a6.18,6.18,0,0,1-.09,1.25A14.9,14.9,0,0,1,13.94,40.52Z" style="fill:#5e4135"/><path d="M14.5,40.93c-.32.64-.48.5-.88.89s.66-.1,1.05-1c.13-.28.61-2,.64-2.24s.17-1,.17-1.16-.16-.22-.17-.11A11.22,11.22,0,0,1,14.5,40.93Z" style="fill:#6e4d3d"/><path d="M13.51,40.81c0,.1-.66,1.1-.31,1.35s.82-.68.92-1,.52-2.15.54-2.37.14-1,.14-1.23-.7-.17-.76-.07A8.67,8.67,0,0,1,14,38.83,18.68,18.68,0,0,1,13.51,40.81Z" style="fill:#5e4135"/><path d="M13.55,41.91c-.21.1-.4-.15-.44-.07a.23.23,0,0,0,.09.32c.35.25.82-.68.92-1s.52-2.15.54-2.37.14-1,.14-1.23a.11.11,0,0,0-.09-.1c-.19-.08.06-.24-.06.51C14,41.91,13.55,41.91,13.55,41.91Z" style="fill:#6e4d3d"/><path d="M14.35,37.61s-.18,2-.27,2.37-.49,1.78-.82,1.78-.37-.6-.28-.95.4-1,.54-1.6a7.46,7.46,0,0,0,0-2.1c0-.25-.32-.93-.32-.68s0,.34,0,.71.11.84.09,1c0,.37-.66.61-.72.1,0-.19-.2-1-.2-1.39a5.74,5.74,0,0,1,.1-1.37c.18-.66,1.26-1.43,1.26-1.43.17-.42.21-.65.25-.72s1.35-.33,1.44,0a14.2,14.2,0,0,1,.27,2,12.25,12.25,0,0,1,.23,2.35C15.75,38.33,14.35,37.61,14.35,37.61Z" style="fill:#6e4d3d"/><path d="M9.94,6.26a7.34,7.34,0,0,0,0,2.7,22.93,22.93,0,0,0,.85,2.8c.15.25-1.45,1.9-2,2s-2.65.6-2.8.1a10.72,10.72,0,0,1,.45-2.45c0-.25-1-4.1-.75-4.1S9.94,6.26,9.94,6.26Z" style="fill:#6e4d3d"/><path d="M6.13,9.77S6.3,11,6.43,11A5.1,5.1,0,0,0,8.51,9.86,7.7,7.7,0,0,0,9.19,8c0-.22-.59-.52-.74-.52S6.13,9.77,6.13,9.77Z" style="fill:#634438"/><path d="M9.45,7a1.68,1.68,0,0,1-.39,1.17c-1.13,1.3-2.92,2.1-3.69,1.95-1.31-.26-1.34-4-1.28-5.5A4.4,4.4,0,0,1,4.7,2S8,1.27,8.53,1.81s.8,2.71.82,3.16S9.45,7,9.45,7Z" style="fill:#6e4d3d"/><path d="M4.34,2.63A2.91,2.91,0,0,1,7.39,0c2.55-.1,3.6.9,3.8,2.9s-.65,4.75-1.2,5.2-.35-1.3-.15-1.3S9.59,5,9.59,5s0,.45-.3.55a.67.67,0,0,1-.7-.85c.15-.55-.45-.5-.4-.75a3.09,3.09,0,0,0-.35-1.55C7.64,2.31,4.46,3.23,4.34,2.63Z" style="fill:#111010"/><path d="M9.34,5.26s.9-1,1.35-.2-.3,1.55-.6,1.8-.95-.4-.8-.4S9.34,5.26,9.34,5.26Z" style="fill:#6e4d3d"/><ellipse cx="6.61" cy="5.47" rx="0.73" ry="0.42" style="fill:#cec2c2"/><ellipse cx="4.59" cy="5.52" rx="0.53" ry="0.38" style="fill:#cec2c2"/><path d="M5.06,5.58a1.94,1.94,0,0,1-.25,1.15c-.15.24-.44.29-.35.42a.71.71,0,0,0,.83.1c.31-.12.09-1.31.07-1.53s0-.49-.2-.57S5.06,5.58,5.06,5.58Z" style="fill:#634438"/><path d="M4.57,8.37A5.56,5.56,0,0,0,6,8.31c.27-.05.47-.24.42-.15a1,1,0,0,1-.55.28,4.64,4.64,0,0,1-1.22.07C4.42,8.47,4.57,8.37,4.57,8.37Z" style="fill:#563a32"/><ellipse cx="6.56" cy="5.48" rx="0.31" ry="0.34" style="fill:#2d2a29"/><ellipse cx="4.56" cy="5.54" rx="0.25" ry="0.33" style="fill:#2d2a29"/><path d="M5.79,4.48c.25,0,.5-.15,1-.15s.57.18.57.18" style="fill:none;stroke:#262626;stroke-miterlimit:10;stroke-width:0.1px"/><path d="M4.09,4.61a4,4,0,0,1,.67-.13,2.47,2.47,0,0,1,.48.08" style="fill:none;stroke:#262626;stroke-miterlimit:10;stroke-width:0.1px"/><path d="M5,61.42l-.87.95a12.63,12.63,0,0,1-2.77,1.51c-.37.1-1.85.88-1.1,1A7.17,7.17,0,0,0,2.08,65c.54,0,1.73-.15,2.28-.22a13.78,13.78,0,0,0,2.45-.2c0-.55-.14-2.25-.17-2.62S5,61.42,5,61.42Z" style="fill:#201f1d"/><path d="M0,64.68s1.14.08,1.39,0l5.33-.44c.1,0,.19.23.06.3s-5.14.42-5.4.4a7.14,7.14,0,0,1-1.36-.16S0,64.68,0,64.68Z" style="fill:#141210"/><path d="M12.93,61.92l-.87.95a12.63,12.63,0,0,1-2.77,1.51c-.37.1-1.84.88-1.1,1a7.17,7.17,0,0,0,1.87.07c.54,0,1.73-.15,2.28-.22A13.91,13.91,0,0,0,14.8,65c0-.55-.15-2.25-.18-2.62S12.93,61.92,12.93,61.92Z" style="fill:#201f1d"/><path d="M8,65.18s1.14.08,1.39,0l5.33-.44c.1,0,.19.23.06.3s-5.13.42-5.4.4A7.24,7.24,0,0,1,8,65.33S8,65.18,8,65.18Z" style="fill:#141210"/><path d="M12.21,32.76s1.17,6.57,1.46,11.76c.08,1.47.59,6.87.75,8.7s.67,9.1.34,9.37a4.85,4.85,0,0,1-2.59,0c-.24-.2-2.72-11.76-2.72-12.3S8,40.92,8,40.79s-.77,8.27-.72,9.13-.37,11.6-.41,12.17-2.84.47-3.2.3-.93-13.27-.93-14.23c0-.47-.1-5.53.19-8.58a25.71,25.71,0,0,1,.74-5.12c.52-1.57-.41-2.8,0-2.87s7-1,7.46-.67A8.88,8.88,0,0,1,12.21,32.76Z" style="fill:#2b3649"/><path d="M1.29,22.71a33.8,33.8,0,0,0,.07,4.15,12.47,12.47,0,0,0,.88,3.32c.3.65.46.79.4.34s-.25-2.76-.25-3.19-.08-1.62,0-1.87.25-2.25.25-2.25Z" style="fill:#634438"/><path d="M1.69,14.46a19.12,19.12,0,0,0,3.75-2,9.09,9.09,0,0,0,1-1s-.45,1.09,0,1.56,2,.26,2.65-.37a22.51,22.51,0,0,0,1.45-1.77c.28-.3,2.37,2.33,5.2,3.76,1.15.58.87,7.79.87,8.48,0,.33-2.69.44-2.95.4s-.2-3.27-.2-3.58,0,5.56-.2,8.23a44,44,0,0,1-.8,5.86c-.1.42-8.32.64-8.87.7s-.53-6.34-.75-7.52c-.11-.57-.55-2-.55-2s-.45-2-.45-2.25S.29,22.49.19,22.23.79,17,.89,16A2.47,2.47,0,0,1,1.69,14.46Z" style="fill:#970b0a"/><path d="M9.71,5.81c.14-.14.29-.82.58-.54s-.3,1-.46,1S9.71,5.81,9.71,5.81Z" style="fill:#634438"/><polygon points="1.31 22.58 1.79 22.81 1.54 18.86 1.31 22.58" style="fill:#700909"/><path d="M11.64,33.68a32.11,32.11,0,0,0,.47-3.92,23.81,23.81,0,0,1,.7-4c.13-.73-.27-2.35-.12-3.13a29.58,29.58,0,0,1,.37-2.95c.23-.52-.12-1.22.23-1.7s.2,2,.2,2.2-.2,8.93-.43,10-.47,4-.65,4-1.1.1-1.37.15S11.64,33.68,11.64,33.68Z" style="fill:#700909"/><path d="M5.74,62.48c-.25,0,.37-.87.32-3.37S6,46.6,6.06,46a30.83,30.83,0,0,1,1.6-6.82c.4-1,.25,1,.2,1.52,0,.11-.65,8.05-.65,8.33s-.39,13-.39,13l-.51.34Z" style="fill:#1d2530"/></svg>