<svg xmlns="http://www.w3.org/2000/svg" viewBox="0 0 210.41 356.29"><path d="M47.31,329v-.9h1.57v1.1h-2Zm-3.78,0v-.9h1.83v1.1Zm7.7-1h1.82v1H51.1Zm-11.61.9v-1.1h1.83v1.1Zm15.39-1h1.82V329H54.88Zm3.65,0h2V329H58.79Zm-22.82,1v-1.1h1.82v1.1Zm26.08-1.2h2v1h-2Zm-29.86.4v-1h1.82v1.1ZM66.22,327h1.83v1h-2Zm-37.95,1.11v-1h2v1ZM70,327h1.82v1h-2Zm-45.52.71v-1h1.83v1Zm49.17-1.11h1.82v1h-2Zm-52.95.61v-1.11h1.83v1Zm56.6-1.11h1.82l.66,1h-2Zm-60.25,0v-1h1.69v1.1Zm-2.61,0,.78-1h0v1Z"/><path d="M161.29,328.62h2v1.1h-2Zm-3.78,1v-1h2v1.1Zm7.56-1h2v1H165.2Zm-11.47,1v-1.5h2v1.1Zm15.26-1.5h1.95v1h-1.95Zm-19,.9v-.9h2v1.1Zm22.82-1h2v1.1h-1.82Zm-26.08.8v-.7h1.95v1.1Zm30.38-1h2v1.1h-2.22Zm-34.17.7v-1h1.83v1.1Zm37.43-.4h2v1.1h-2Zm3.78,0h2v1.1h-2Zm-45.64.9v-1.1l1.83.2v1Zm49.43-1.2h1.82v1h-2Zm-53.21.3v-1h1.82v1.1ZM191.42,327h2v1l-1,.1Zm-60.51,1.11V327h1.82v1ZM195.2,327H197v1.11H195.2Zm-67.29.61v-1h1v1Zm70.94-1.11h1.83v1h-1.83Z"/><path d="M7.13,54.25c.25-1.39.5-2.78.76-4.16a33.86,33.86,0,0,1,1.33-11,36.82,36.82,0,0,1,5.53-11.2c1.12-2.52,2.21-5.19,3.24-8,.94-2.54,1.76-5,2.48-7.37l2.8.43A2.48,2.48,0,0,1,25,12.26h7.85a2.12,2.12,0,0,1,1.76.65c7.85,0,19.62,1.61,28,1.72a3.41,3.41,0,0,1,1.49,0h8.93a2.53,2.53,0,0,1,2,.86h40.59a3.41,3.41,0,0,1,1.49,0H125a2,2,0,0,1,1.89.86h30.45a3.13,3.13,0,0,1,1.49,0h7.84a2.76,2.76,0,0,1,1.9.65h14.61a1.94,1.94,0,0,1,2,1.07A119.17,119.17,0,0,1,188,30.87v1.19a81,81,0,0,1,4.41,10.83,77.78,77.78,0,0,1,2.79,11.52L196.43,57a286.48,286.48,0,0,1,9.91,55.47,281.71,281.71,0,0,1,0,43.73q2,97.47,4.07,194.93s0,1-1.49,1.08h-.54a277.59,277.59,0,0,1-46.68,4.09,188.5,188.5,0,0,1-38.3-3.34c-.81,0-1.35-.64-1.21-1.18-1.56-52-4.7-106.08-9.8-162q-3.63-39.66-8.26-77.82-1.51,7.65-2.84,15.57a504.8,504.8,0,0,0-6.44,62.67L86.6,351.1s0,.86-1.22,1.08a173.14,173.14,0,0,1-37.75,3.76,278.59,278.59,0,0,1-44.11-3.65H2.84a1.36,1.36,0,0,1-1.35-1.08L0,151.67Q.81,130,2.38,107.25,4.3,80,7.13,54.25Z"/><path d="M102.61,16.37c44.86,0,78.24-1,78.24-1a99.31,99.31,0,0,1,2.61,12.44s-34,1.2-81.11,1.3Z" style="fill:#0e6177"/><path d="M101.7,15.77h.91c44.34,0,78.24-.9,78.24-.9h.92a100.34,100.34,0,0,1,3,12.43v.61h-1.05s-33.9,1.2-81.24,1.4h-.92Zm78.24,0c-5.61,0-36.64.9-76.55.9V28.31c41.34,0,73-1,79-1.21A72.42,72.42,0,0,0,180.2,16Z"/><path d="M16.47,26.57l2.67-11.68q20,.58,40.36,1,21.69.49,43.11.84V29.51Q81.47,29,59.87,28.29,37.91,27.54,16.47,26.57Z" style="fill:#0e6177"/><path d="M20.06,27.3H19V14h1.17c22.82.6,52.16,2.2,78.25,2.2h4.69V30.11H94C69.48,29.71,42.23,28.11,20.06,27.3Zm81.64-10H99c-26.09,0-55.17-1.61-78.25-2.11V26.8C42.62,27.4,69.61,29,94.13,29h7.17Z"/><path d="M102.61,29.11h45.12a51.77,51.77,0,0,0,17.11,15.27,64.23,64.23,0,0,0,27.26,7.89,242.41,242.41,0,0,1,12.46,87.26q-.26,5.64-.76,11.09l.66,199a217.72,217.72,0,0,1-80.07.75A1691,1691,0,0,0,113,177.43q-4.22-35.79-9.67-69.75a440.34,440.34,0,0,1-2.06-52.55Q101.59,41.61,102.61,29.11Z" style="fill:#137699"/><path d="M147.73,28.71c22.17,0,36-.9,36-.9A130.26,130.26,0,0,1,188,50.57C171.15,48,156.49,40.08,147.73,28.71Z" style="fill:#b1d6e0"/><path d="M187.64,51.07c-17.13-2.58-32-10.69-40.82-22.26v-.7h1.3c22,0,35.86-.91,36-.91H185a162,162,0,0,1,4.17,22.87v.8ZM148.51,29.21c8.56,10.34,22.21,17.58,37.82,20,0-7.62-3.13-14.74-4.17-21.25-2.87.5-15,.9-33,1.2Z"/><path d="M10.06,48.46a35,35,0,0,1,7-21.56c12,0,28.2,1.81,39.2,2C45.42,39.74,28.64,46.83,10.06,48.46Z" style="fill:#b1d6e0"/><path d="M12.5,48.36A37.41,37.41,0,0,1,19.15,26.7h.78c10.3,0,24.78,1.81,36.12,2h1.44v.7c-10.16,11.13-26,18.42-43.56,20.05h-1.3ZM20.84,27.3a42.44,42.44,0,0,0-6.26,20.06c16.07-1.7,30.58-8.27,40.3-18.25C44.32,29.21,30.49,27.3,20.84,27.3Z"/><path d="M3.69,150.41q0-20.64.77-42.51c.76-20.05,2.08-39.34,3.81-57.81a72.33,72.33,0,0,0,27.15-7.22A65,65,0,0,0,54.7,28.41h47.91q-1,13-1.4,26.85c-.22,7.92-.31,16.82-.13,26.57.17,9.15.55,17.51,1,24.93-.43,1.74-.86,3.49-1.27,5.25a361,361,0,0,0-9.41,76L84.26,349.42a231.41,231.41,0,0,1-79.62,0Z" style="fill:#137699"/><path d="M83.18,22.29c0,1.5,2.34,2.81,5.08,2.81s5.09-1.31,5.09-2.81-2.22-2.81-5.09-2.81S83.18,20.69,83.18,22.29Z" style="fill:#fbb040"/><path d="M82.26,22.29c0-1.9,2.74-3.41,6-3.41s6.13,1.51,6.13,3.41-2.74,3.41-6.13,3.41S82.26,24.1,82.26,22.29Zm2,0c0,1.2,1.83,2.21,4,2.21s4-1,4-2.21S90.48,20,88.26,20,84.22,21,84.22,22.29Z"/><path d="M101,19v-1.1h2.09V19Zm4-1.1h2.08V19h-2.08Zm4,0h2V19h-2ZM97,19v-1.1h2.09V19Zm16.17-1.1h2V19h-2.35ZM93,19v-1.1H95V19Zm24.25-1.1h2V19h-2.09ZM88,19v-1.1h2.09V19Zm32.34-1.2h2V19h-2.09ZM84,19v-1.2h2.09V19Zm40.43-1.2h2.74v1.1H125Zm-44.47,1.1v-1.1H82v1.1Zm48.51-1.1h2v1.1H128.3Zm-52.16,1.1v-1.1h2.08v1.1ZM133,17.28h2v1.1h-2.09Zm-60.64,1.1v-1.1H75v1.2Zm65.21-1.1h1.95v1.1h-1.95Zm-68.73,1.1v-1.1h2v1.1Zm72.25-1.1h2v1.1h-2Zm-76.81,1.1v-1.1h2v1.2Zm-4,0v-1.1h1.69v1.1Zm84.89-1.1h2v1.2h-2Zm-88.94,1v-1.1H58v1.1Zm92.85-1h2.09v1.1h-2Zm-96.89,1v-1h2v1.2Zm101.07-1h2.08v1.1h-2.08Zm-104.33,1v-1h2v1.1Zm108.24-1h2.09v1.1h-2ZM44.05,18.38v-1.1h2.09v1.1Zm117.37-1.1h2.09v1.1h-2Zm-124.54,0V16.17H39v1.11Zm128.59,0h2.08v1.1h-2Zm-132.89,0V16.17h2.09v1.11Zm136.67,0h1.95v1.1h-1.95Zm-140.71,0V16.17h1.95v1.11Zm144.75,0h2v1.1h-2Zm-148.8,0V16.17h2v1.11Zm152.84,0h2v1.1h-2Zm-156.49,0V16.07h2v1.11Z"/><path d="M105,26.6h2v.7h-2Zm4,0h2v.7h-2Zm-8,.7V26.2h2v1.1Zm12.13-1.1h2v1.1h-2Zm-16.3,1.1V26.2h2v1.1Zm20.21-1.1h2v1.1h-2ZM92.83,27.3V26.1h2v1.2Zm28.3-1.2h2v1.2h-2ZM88.78,27.3V26.2h2.09v1.1Zm36.39-1.1h2v1.1h-2ZM84.74,27.3V26.2h2.09v1.1Zm44.34-1.1h2v1.1h-2ZM80.7,27.3V26.2h2.09v1.1Zm52.16-1.1h2v1.1H133Zm-56.2,1.1V26.1h2.08v1.2Zm60.51-1.2h2.08v1.2H137.3ZM72,27.2V26.1h3v1.2Zm68.6-1.1h2.08v1.2h-1.95Zm-72,1.2v-1h2.09v1Zm-4,0v-1h2v1Zm80.72-1.1h2.09v1.1h-2Zm-84.76,1V26.1h1.95v1.2Zm88.8-1.1h2.09v1.2h-1.95ZM56.44,27.3V26.1h2v1.2Zm96.77-1.1h2.08v1.1h-2.08Zm-100.94,1V26.1h2v1.2ZM156.6,26.1h2.08v1.2h-2ZM48.88,27.3V26.2h2v1.1Zm113.06-1.1h2v1.1h-2Zm-117.36,1V26.1h2v1.2Zm121.15-1.1h2v1.2h-1.43ZM37,26.1V24.9H39.1V26Zm132.76,0h2v1.2h-2ZM33,26.1V24.9h2V26Zm140.84,0h2v1.2h-1.83Zm-144.75,0V24.3h2v1.1Zm148.79,0h1.44v1.2H177.2ZM25,26.1V24.9H27.1V26Zm156.5,0h2v1.1h-2.08Zm-160.93,0V25H22.8v1.1Z"/><path d="M99.74,61.9H101V63H99Zm-4.17.9V61.7h1.82v1.1Zm-3.92-1.1,1.18-.91h1.56l-.91,1A6.24,6.24,0,0,1,91.65,61.7ZM88,60.09l1.44-.7,1.3.8-1.3.8Zm-2.48-1.9,2.48-.8a3.94,3.94,0,0,0,.92.9l-1.57.7ZM83.7,56.08h2l.78,1H84.61Zm-1.31-2.2h2V55H82.53a2.85,2.85,0,0,1,.39-1.1Zm-1-2.21h2v1.1h-2a3.26,3.26,0,0,1,.52-1.1Zm-.78-2.21h2.09a3,3,0,0,0,0,1.11h-2Zm0-2.3h2a3.38,3.38,0,0,1,0,1.1h-2s.13-.9,0-.9Zm0-2.21h2v1.1H80.44a4.34,4.34,0,0,1-.26-1.1Zm0-2.3h2a2.91,2.91,0,0,1,0,1.1h-2a3.2,3.2,0,0,1-.65-1.1Zm0-2.21h2a2.55,2.55,0,0,0,0,1.1H80.44Zm0-2.31h2.09v1.11H80.57Zm0-1.1v-1.2h2.09v1.5Zm0-2.31v-1.1h2.09v1.1Zm0-2.2a3.51,3.51,0,0,1,0-1.21h2a4.13,4.13,0,0,1,0,1.11Zm0-2.31a4.05,4.05,0,0,1,0-1.1h2a6.73,6.73,0,0,1,0,1.1Z"/><path d="M97,60.89v-1h1.83V61Zm4-.5h1a3.73,3.73,0,0,1-1,.6Zm-8.34,0,1.3-.9a4.82,4.82,0,0,0,1.57.5l-.92,1Zm-3-1.8,1.69-.6,1.18.8-1.44.8Zm-2.09-2h1.83a8.56,8.56,0,0,0,.91,1h-1.7Zm-1.43-2.1H88a5.57,5.57,0,0,1,0,1H86.18a3.68,3.68,0,0,1,.26-1.5ZM85,52.17h2.09v1.1h-2a5.74,5.74,0,0,0,.13-1.6ZM84.35,50h2v1.1H84.22s.52-1.21.39-1.61Zm0-2.31h2v1.1h-2a4,4,0,0,1-.26-1.4Zm0-2.21h2.09a3,3,0,0,0,0,1.11H84.35A3.14,3.14,0,0,0,83.7,45Zm0-2.3h2.09a3.38,3.38,0,0,0,0,1.1H84.35a3.91,3.91,0,0,0-.91-1.6Zm0-2.31h2v1.1h-2Zm0-1.8h2.09v1.1H84.35Zm0-1.51v-1.2h2v1Zm0-2.3V34.12h2v1.11Zm0-2.31V31.31h2.09v1.11Zm0-2.21a6.73,6.73,0,0,0,0-1.1h2.09a3.38,3.38,0,0,0,0,1.1Z"/><path d="M184.64,53.07l.78-1h1.82v1Zm-3.79-.9.92-1h1.82l-.78,1.1Zm-3.65-1,1.05-1h1.69l-.91,1Zm-5.47-1.1,1-1,1.69.6-1,1Zm-3.53-1.21,1.18-1,1.69.6-1.17,1Zm-3.26-1.5,1.18-.9,1.56.7-1.17.9ZM161.68,46l1.44-.9a5.6,5.6,0,0,0,1.43.7l-1.3.91Zm-3-1.6,1.44-.8,1.43.8-1.3.8ZM156,42.75l1.43-.81,1.3.91-1.43.7ZM153.21,41l1.56-.6,1.31.8-1.57.7Zm-2.35-1.8,1.56-.61,1.18.91-1.57.6Zm-2.35-1.91,1.83-.6,1,1-1.69.6Zm-1.95-2h1.82a7.76,7.76,0,0,1,.91,1H147.6Zm-1.7-2.11h1.83l.78,1-1.83.5Zm-1.56-2.11h1.95a10.27,10.27,0,0,1,0,1.11h-1.82Zm-1.05-2.3h2a6.73,6.73,0,0,0,0,1.1h-2A5.06,5.06,0,0,1,142.25,28.81Z"/><path d="M13.15,50h.91v1.1h-.91ZM16,50h1.82v1.1H15.89Zm3.78-.61h0v1.11h-2Zm2.22-.8,1.82-.5.91,1-1.95.3Zm3.65-1h1.69l1.05,1-1.83.5Zm3.39-1.1s7.56.6,8.08,0l1.18,1-1.7.6Zm9.78,0,1.56-.71,1.18.91-1.57.7Zm3-1.41,1.43-.8,1.44.8-1.57.8Zm2.87-1.6,1.3-.8,1.57.8-1.44.8Zm2.6-1.61,1.31-.9,1.56.7-1.3.9ZM49.79,40l1.05-.9,1.69.7-1.17.9ZM52,38.23l1-.9h1.7l-1,1Zm2-1.9a7.09,7.09,0,0,0,.91-1l1.82.5a8.48,8.48,0,0,1-.91,1Zm1.82-2,.91-1h1.83l-.91,1Zm1.7-2v-1h1.95l-.78,1Zm1.3-2.11v-1h2v1.1Z"/><polygon points="160.77 29.51 166.38 29.31 165.47 15.07 159.86 15.17 160.77 29.51" style="fill:#137699"/><path d="M158.81,14.67h7.57l1,15.44h-7.56Zm5.61,1H160.9l.91,13.14h3.53Z"/><polygon points="34.93 28.21 29.45 28.11 30.36 13.77 35.97 13.87 34.93 28.21" style="fill:#137699"/><path d="M28.41,28.61l.91-15.44h7.56L32.06,28.61Zm2.86-14.24L30.49,27.3H34l.79-13.13Z"/><polygon points="73.92 29.81 68.31 29.71 68.57 15.47 74.18 15.47 73.92 29.81" style="fill:#137699"/><path d="M67.27,30.31V14.87H75V30.21Zm2.21-14.24V29.21H73V16.07Z"/><polygon points="124.65 29.81 119.04 29.71 119.3 15.47 124.78 15.47 124.65 29.81" style="fill:#137699"/><path d="M118,30.31V14.87h7.56V30.21Zm2.21-14.24V29.21h3.52V16.07Z"/></svg>