<svg xmlns="http://www.w3.org/2000/svg" viewBox="0 0 43.12 18.38"><g style="isolation:isolate"><g style="opacity:0.5"><rect x="10.82" y="-50.81" width="2.1" height="77.92" style="fill:#fff;opacity:0.49"/><rect x="36.74" y="-50.81" width="2.1" height="77.92" style="fill:#fff;opacity:0.49"/><rect x="24.1" y="-50.81" width="2.1" height="77.92" style="fill:#fff;opacity:0.49"/></g><path d="M16.81,15.1c0,1.81-2.24,3.28-5,3.28s-5-1.47-5-3.28,2.24-3.27,5-3.27S16.81,13.3,16.81,15.1Z" style="fill:#1d1d1b"/><path d="M14,15.1c0,.79-1,1.43-2.19,1.43s-2.18-.64-2.18-1.43,1-1.43,2.18-1.43S14,14.31,14,15.1Z" style="fill:#4d4d4d"/><path d="M12,14.6c0,.3-.37.54-.83.54s-.83-.24-.83-.54.37-.54.83-.54S12,14.3,12,14.6Z" style="fill:#767476"/><path d="M36.09,15.1c0,1.81-2.24,3.28-5,3.28s-5-1.47-5-3.28,2.24-3.27,5-3.27S36.09,13.3,36.09,15.1Z" style="fill:#1d1d1b"/><path d="M33.28,15.1c0,.79-1,1.43-2.19,1.43s-2.19-.64-2.19-1.43,1-1.43,2.19-1.43S33.28,14.31,33.28,15.1Z" style="fill:#4d4d4d"/><path d="M31.25,14.6c0,.3-.37.54-.83.54s-.83-.24-.83-.54.37-.54.83-.54S31.25,14.3,31.25,14.6Z" style="fill:#767476"/><path d="M39.78,9c-2.83-.48-7-.81-7-.81S34.19.11,20.33,0,7.94,8,7.94,8,.45,9.29.45,10.93v3.49s-.51,1.35,2.07,1.41H7.14A2.07,2.07,0,0,1,7,15.1c0-1.75,2.16-3.16,4.82-3.16s4.82,1.41,4.82,3.16a2.3,2.3,0,0,1-.14.73h10a2.06,2.06,0,0,1-.14-.73c0-1.75,2.16-3.16,4.82-3.16S36,13.35,36,15.1a2.07,2.07,0,0,1-.15.73h4.28s2.41.17,2.41-.79v-4S43,9.53,39.78,9Z" style="fill:#e30613"/><g style="mix-blend-mode:multiply"><path d="M.45,11.6v2.82s-.51,1.35,2.07,1.41H7.14A2.07,2.07,0,0,1,7,15.1c0-1.75,2.16-3.16,4.82-3.16s4.82,1.41,4.82,3.16a2.3,2.3,0,0,1-.14.73h10a2.06,2.06,0,0,1-.14-.73c0-1.75,2.16-3.16,4.82-3.16S36,13.35,36,15.1a2.07,2.07,0,0,1-.15.73h4.28s2.41.17,2.41-.79V11.6Z" style="fill:#cecece"/></g><path d="M19.47.69C10.1,1.17,8.89,5.22,9,8.11h10.5Z" style="fill:#9fd7f7"/><path d="M19,1.63c-7.76.4-8.76,3.75-8.7,6.14H19Z" style="fill:#dbedfb"/><path d="M20.93,8.11H32.12S31.69.51,20.93.62Z" style="fill:#9fd7f7"/><path d="M21.28,7.6h8.58s-.33-5.83-8.58-5.74Z" style="fill:#dbedfb"/><path d="M19.13,9.49c0,.2-.25.37-.56.37H17.28c-.31,0-.56-.17-.56-.37h0c0-.2.25-.36.56-.36h1.29c.31,0,.56.16.56.36Z" style="fill:#1d1d1b"/><path d="M6.91,15.26c0,.62-.77,1.12-1.71,1.12H1.71c-.94,0-1.71-.5-1.71-1.12H0c0-.62.77-1.12,1.71-1.12H5.2c.94,0,1.71.5,1.71,1.12Z" style="fill:#e30613"/><path d="M43.12,15.26c0,.62-.77,1.12-1.71,1.12H37.92c-.94,0-1.71-.5-1.71-1.12h0c0-.62.77-1.12,1.71-1.12h3.49c.94,0,1.71.5,1.71,1.12Z" style="fill:#e30613"/><path d="M2.9,11.41A1.19,1.19,0,0,1,1.84,12.7,1.2,1.2,0,0,1,.77,11.41a1.2,1.2,0,0,1,1.07-1.29A1.19,1.19,0,0,1,2.9,11.41Z" style="fill:#f8b056"/><path d="M1.69,10.91a.29.29,0,0,1-.27.31.29.29,0,0,1-.26-.31.3.3,0,0,1,.26-.32A.3.3,0,0,1,1.69,10.91Z" style="fill:#fff"/><path d="M42.12,12.74a.54.54,0,1,1-.54-.64A.6.6,0,0,1,42.12,12.74Z" style="fill:#f8b056"/><path d="M41.51,12.49a.14.14,0,1,1-.13-.16A.15.15,0,0,1,41.51,12.49Z" style="fill:#fff"/><path d="M31.52,9.49c0,.2-.25.37-.56.37H29.67c-.31,0-.56-.17-.56-.37h0c0-.2.25-.36.56-.36H31c.31,0,.56.16.56.36Z" style="fill:#1d1d1b"/></g></svg>