<svg xmlns="http://www.w3.org/2000/svg" xmlns:xlink="http://www.w3.org/1999/xlink" viewBox="0 0 87.15 10.98"><defs><linearGradient id="a" x1="0.14" y1="5.5" x2="87.17" y2="5.5" gradientUnits="userSpaceOnUse"><stop offset="0" stop-color="#29abe2"/><stop offset="0" stop-color="#f1b97d"/><stop offset="0" stop-color="#37b45f"/><stop offset="0" stop-color="#35b370"/><stop offset="0" stop-color="#33b186"/><stop offset="0" stop-color="#30afa1"/><stop offset="0" stop-color="#f1b97e"/><stop offset="0.53" stop-color="#fcca8f"/><stop offset="0.53" stop-color="#fccb90"/><stop offset="1" stop-color="#edb175"/></linearGradient></defs><g style="opacity:0.5"><rect x="8.51" y="-48.82" width="2.1" height="77.87" style="fill:#fff;opacity:0.49"/><rect x="21.77" y="-48.82" width="2.1" height="77.87" style="fill:#fff;opacity:0.49"/><rect x="47.65" y="-48.82" width="2.1" height="77.87" style="fill:#fff;opacity:0.49"/><rect x="35.03" y="-48.82" width="2.1" height="77.87" style="fill:#fff;opacity:0.49"/><rect x="61.55" y="-48.82" width="2.1" height="77.87" style="fill:#fff;opacity:0.49"/><rect x="74.81" y="-48.82" width="2.1" height="77.87" style="fill:#fff;opacity:0.49"/></g><path d="M79.62,7.4C63.43,11,49.94,11,38.67,10.89c-7.14-.05-9.53-.34-20.64-.35-5.37,0-9.76.06-12.62.11L.14,2.41c8.89-.06,16.73,0,23.28,0,13,.09,16,.26,19.84.82,5.92.84,7,1.57,11.81,1.74C56.7,5,60.29,5.07,71,3.23c3.9-.68,9.19-1.68,15.48-3.14l.57,5.46C85.38,6,82.79,6.7,79.62,7.4Z" style="stroke:#968f8f;stroke-miterlimit:10;stroke-width:0.150000005960464px;fill:url(#a)"/></svg>