<svg xmlns="http://www.w3.org/2000/svg" viewBox="0 0 127.3 77.9"><g style="isolation:isolate"><rect x="0.02" y="0.08" width="127.28" height="77.92" style="fill:#f38493;opacity:0.65"/><g style="opacity:0.5"><rect x="15.27" y="0.08" width="2.1" height="77.92" style="fill:#fff;opacity:0.49"/><rect x="28.55" y="0.08" width="2.1" height="77.92" style="fill:#fff;opacity:0.49"/><rect x="41.84" y="0.08" width="2.1" height="77.92" style="fill:#fff;opacity:0.49"/><rect x="67.76" y="0.08" width="2.1" height="77.92" style="fill:#fff;opacity:0.49"/><rect x="55.12" y="0.08" width="2.1" height="77.92" style="fill:#fff;opacity:0.49"/><rect x="81.68" y="0.08" width="2.1" height="77.92" style="fill:#fff;opacity:0.49"/><rect x="94.97" y="0.08" width="2.1" height="77.92" style="fill:#fff;opacity:0.49"/><rect x="108.25" y="0.08" width="2.1" height="77.92" style="fill:#fff;opacity:0.49"/><rect x="122.34" y="0.08" width="2.1" height="77.92" style="fill:#fff;opacity:0.49"/></g><path d="M17.53,30.47a141.62,141.62,0,0,0,20-.77c8.22-.91,12.78-2.17,21.45-1.91,1.72.05,4.67.33,10.59.89,9.73.93,16.3,1.7,18.38,1.92A129.74,129.74,0,0,0,118.13,30a9.83,9.83,0,0,1-1.28,8.55,131,131,0,0,0-14,.89c-8.36,1-11.34,2.21-18.51,2.05-2.8-.07-6.27-.34-8.43-.51-5-.4-6.79-.71-10.72-.77-2.88-.05-5.2.07-6.26.13-1.67.09-2.88.21-3.32.25a83.86,83.86,0,0,1-12,0c-4-.22-11.43.11-26.68,2.3a27.8,27.8,0,0,0,1-6.38A27.41,27.41,0,0,0,17.53,30.47Z" style="fill:#636161;stroke:#968f8f;stroke-miterlimit:10;stroke-width:0.150000005960464px"/><path d="M90.37,29.87h-.11a2.34,2.34,0,0,1,.73.43c.23,0,1.24.05,1.58.05h.91a.68.68,0,0,1,.28,0c-.17,0-.34-.14-.51-.19a2.72,2.72,0,0,0-.56-.09,2.12,2.12,0,0,1,.56-.05c.12,0,.28.05.4.05h0a.68.68,0,0,0-.34-.09c-.11,0-.28-.05-.4-.05h-.28a1.84,1.84,0,0,1,.51-.1c.06,0,.17,0,.23,0h.11c-.11,0-.23,0-.34-.1H92.4c-.05,0,.12-.09.12-.14s.17-.09.22-.14a.32.32,0,0,0,.17-.09h0a2,2,0,0,0-.68.18.8.8,0,0,1,.68-.51h0a.73.73,0,0,0-.45,0,.57.57,0,0,0-.34.24V29c0-.1.06-.19,0-.28h0a.12.12,0,0,0-.06.09.55.55,0,0,1-.11.28c-.06.1-.06.19-.11.29s0-.1-.06-.1a1.79,1.79,0,0,0-.34-.42.28.28,0,0,0-.17-.1,1.35,1.35,0,0,0-.22-.09h0s-.06,0-.06,0v0c.06,0,.06.05.11.05a.12.12,0,0,1,.06.09.65.65,0,0,1,.17.19,1.38,1.38,0,0,1,.23.38s0,.09,0,.09a0,0,0,0,0,0-.05,1.57,1.57,0,0,0-.34-.23,1.25,1.25,0,0,0-.46-.1h0c0,.05,0,.05.06.05a.6.6,0,0,1,.28.24.72.72,0,0,1,.17.23,1.59,1.59,0,0,0-.39-.23,1.84,1.84,0,0,0-.51-.1v0a1.45,1.45,0,0,1,.28.14.6.6,0,0,1,.28.24l.12.09c-.06-.05-.12-.05-.17-.09a1.79,1.79,0,0,0-.68-.19h0l.51.28c.05,0,.17.09.22.14s-.05,0-.05,0a3,3,0,0,0-.91-.19v.05l.51.14C90.82,30,90.48,29.87,90.37,29.87Z" style="fill:#636161"/><path d="M78.21,28.74H78.1a2.24,2.24,0,0,1,.73.43l1.59,0h.9a.56.56,0,0,1,.28.05c-.17-.05-.34-.14-.51-.19a2.72,2.72,0,0,0-.56-.09,2.12,2.12,0,0,1,.56-.05c.12,0,.29.05.4.05h0a.68.68,0,0,0-.34-.1c-.11,0-.28,0-.39,0h-.29a1.84,1.84,0,0,1,.51-.1.84.84,0,0,1,.28,0h.12c-.12-.05-.23-.05-.34-.1H80.3s.12-.09.12-.14.17-.09.22-.14a.32.32,0,0,0,.17-.09h0a2,2,0,0,0-.68.18.8.8,0,0,1,.68-.51h0a.73.73,0,0,0-.45,0,.57.57,0,0,0-.34.24v-.33c0-.1.06-.19,0-.28h0a.12.12,0,0,0-.06.09.55.55,0,0,1-.11.28c-.06.1-.06.19-.11.28s-.06-.09-.06-.09a2.51,2.51,0,0,0-.34-.42.28.28,0,0,0-.17-.1,1.35,1.35,0,0,0-.22-.09h0s-.06,0-.06-.05v.05c.06,0,.06.05.11.05a.12.12,0,0,1,.06.09.65.65,0,0,1,.17.19,1.14,1.14,0,0,1,.22.38v.09a0,0,0,0,0,0-.05,1.36,1.36,0,0,0-.34-.23,1.15,1.15,0,0,0-.45-.1h0s0,0,0,0a.63.63,0,0,1,.29.24,1.24,1.24,0,0,1,.17.23.66.66,0,0,0-.34-.28,1.84,1.84,0,0,0-.51-.1v.05l.28.14a.6.6,0,0,1,.28.24l.12.09c-.06-.05-.12-.05-.17-.09a1.79,1.79,0,0,0-.68-.19h0l.51.28s.17.1.22.14,0,0,0,0a3,3,0,0,0-.85-.19v.05l.51.14C78.66,28.84,78.32,28.74,78.21,28.74Z" style="fill:#636161"/><path d="M89.24,26.29h-.12a2.24,2.24,0,0,1,.57.33c.17,0,1,.05,1.24.05h1c-.11-.05-.28-.09-.39-.14a1.38,1.38,0,0,0-.45-.05.69.69,0,0,1,.45,0h.34c-.06-.05-.17-.05-.28-.09s-.23-.05-.34-.05H91a2.42,2.42,0,0,1,.4-.09h.28a.56.56,0,0,0-.28-.05h-.57c-.06,0,.06-.1.11-.1s.12-.09.17-.09.12-.05.17-.05h0a1.09,1.09,0,0,0-.51.14.76.76,0,0,1,.51-.42h0a.42.42,0,0,0-.34.05.51.51,0,0,0-.28.19v-.24c0-.05.06-.14,0-.24h0c-.06,0-.06,0-.06.1s0,.14,0,.19-.06.14-.12.23v-.09a.74.74,0,0,0-.28-.33c0-.05-.11-.05-.11-.1s-.11,0-.17-.09H89.8s.06,0,.06,0,.06,0,.06,0,.11.1.11.15l.17.28v.05a.51.51,0,0,0-.28-.19.93.93,0,0,0-.34-.1h0a0,0,0,0,0,0,.05.4.4,0,0,1,.23.19.22.22,0,0,1,.11.19,1.05,1.05,0,0,0-.34-.19,3.59,3.59,0,0,0-.39-.1h0c.05.05.17.05.22.1a.4.4,0,0,1,.23.19s.06,0,.06.09-.12,0-.12-.09a1,1,0,0,0-.51-.14h0a3.11,3.11,0,0,0,.4.18c.06,0,.11.1.17.1s-.06,0-.06,0a1.63,1.63,0,0,0-.68-.14h0a.54.54,0,0,1,.4.14C89.52,26.39,89.29,26.34,89.24,26.29Z" style="fill:#636161"/><path d="M82.9,31.43h-.11a1.84,1.84,0,0,1,.68.14c.17-.05,1-.28,1.19-.33a4,4,0,0,1,.68-.19l.22,0h-.45a1.44,1.44,0,0,0-.45.09.69.69,0,0,1,.39-.14.83.83,0,0,0,.34-.1h0s-.22,0-.28,0-.23.05-.34.05-.11.05-.17.05a1.16,1.16,0,0,1,.34-.19c.06-.05.11-.05.17-.09s.06-.05.11-.05h0a.56.56,0,0,0-.28.05c-.17,0-.28.09-.45.14s-.06,0-.12,0,.06-.09.06-.14.06-.09.11-.14l.12-.09h0a.7.7,0,0,0-.4.28c-.06-.24.11-.42.34-.57h0a.52.52,0,0,0-.34.15.25.25,0,0,0-.17.23v0s0-.14,0-.18a.17.17,0,0,0-.12-.19h0v.56s0,0,0,0a.61.61,0,0,0-.4-.19c-.06,0-.11,0-.17,0h-.17c.06,0,.11,0,.06,0s.11,0,.17.09a1.2,1.2,0,0,1,.28.24s.06,0,.06.09l-.06-.05a1.07,1.07,0,0,0-.34-.09H83l.06.05a.61.61,0,0,1,.28.09c.06.05.11.1.17.1a1,1,0,0,0-.4-.05,1,1,0,0,0-.39.05h0a.84.84,0,0,1,.28,0,.45.45,0,0,1,.28.1c.06,0,.06,0,.12,0a.25.25,0,0,1-.17,0,2.18,2.18,0,0,0-.57,0h0a1.44,1.44,0,0,1,.45.09c.06,0,.17.05.23.05s-.06,0-.06,0a1.8,1.8,0,0,0-.68.09h0a.9.9,0,0,1,.46,0C83.24,31.38,83,31.38,82.9,31.43Z" style="fill:#636161"/><g style="opacity:0.5"><path d="M91.22,23.84c-.17-.19-.74-.14-1-.14l-1.42.14c-.62,0-1.24,0-1.86.05a22.4,22.4,0,0,0-3.11.47c-.28.1-1.19.33-1.08.71.17.61,1.93.56,2.49.66a8.37,8.37,0,0,0,5.66-1C91.1,24.5,91.5,24.13,91.22,23.84Z" style="fill:#636161"/><path d="M82.68,26.1A4.63,4.63,0,0,0,80,25.73H80a11.61,11.61,0,0,0-3.11.42c-.11.05-.22.14-.22.24s.34.28.51.33a8.06,8.06,0,0,0,1.92.37,8.49,8.49,0,0,0,2.88-.18C82.11,26.86,83.13,26.34,82.68,26.1Z" style="fill:#636161"/><path d="M82.51,23.61a2.54,2.54,0,0,0-.57-.19.78.78,0,0,0-.34-.05,4.66,4.66,0,0,0-1.18,0,14.25,14.25,0,0,0-1.93.28c-.22.05-.51.1-.62.29s.74.33.85.37a7.79,7.79,0,0,0,1.87.05A3.41,3.41,0,0,0,82.28,24C82.45,23.94,82.73,23.7,82.51,23.61Z" style="fill:#636161"/><path d="M87.6,22.66l-.45-.14a.47.47,0,0,0-.23,0,5.53,5.53,0,0,0-.91,0,12,12,0,0,0-1.41.18c-.17.05-.4.05-.45.24s.56.24.62.28a6.65,6.65,0,0,0,1.41,0A2.23,2.23,0,0,0,87.43,23C87.54,22.9,87.77,22.76,87.6,22.66Z" style="fill:#636161"/><path d="M91.27,26.39a10.25,10.25,0,0,0-3.39.28s-.06,0-.06,0a12.68,12.68,0,0,0-1.81.52c-.34.09-.79.28-.79.61s.51.23.62.28a6.61,6.61,0,0,0,1.93.09,12.18,12.18,0,0,0,3.28-.56c.51-.14,1.35-.38,1.58-.8S91.56,26.43,91.27,26.39Z" style="fill:#636161"/><path d="M83.19,28.93c-.57-.05-1.13,0-1.7-.05a13.67,13.67,0,0,0-1.81,0c-.62.05-2,.24-2.37.76a.33.33,0,0,0,0,.52s0,0,0,.09a2.3,2.3,0,0,0,.4.14c.17.05.28.05.45.1a3.17,3.17,0,0,1,.68.09,16.28,16.28,0,0,0,1.7.28,10.73,10.73,0,0,0,3.22-.56c.56-.1,1.41-.14,1.58-.66S83.53,28.93,83.19,28.93Z" style="fill:#636161"/><path d="M93.7,30.35a11.22,11.22,0,0,0-3.78-.24,5.76,5.76,0,0,0-2-.05c-.79.14-1.59.33-2.43.47a5.05,5.05,0,0,0-1.53.38c-.28.14-1.42,1-.74,1.32a4.41,4.41,0,0,0,1.59.24c.84,0,1.69.18,2.54.23a25.21,25.21,0,0,0,4.69-.14,3.34,3.34,0,0,0,2.49-1C95,31,94.44,30.49,93.7,30.35Z" style="fill:#636161"/></g><path d="M91.05,23.7c-.17-.19-.74-.14-1-.14l-1.36.14c-.62,0-1.19,0-1.81.05a19.55,19.55,0,0,0-3,.47c-.28.09-1.13.33-1.07.71.17.61,1.81.56,2.37.66a7.57,7.57,0,0,0,5.37-1C90.93,24.36,91.33,24,91.05,23.7Z" style="fill:#636161"/><path d="M82.9,26a4.23,4.23,0,0,0-2.54-.37H80.3a10.4,10.4,0,0,0-2.94.42c-.11,0-.22.14-.22.24s.34.28.51.33a7.57,7.57,0,0,0,1.8.37,7.69,7.69,0,0,0,2.78-.19C82.34,26.72,83.3,26.2,82.9,26Z" style="fill:#636161"/><path d="M82.73,23.47a1.54,1.54,0,0,0-.56-.19.8.8,0,0,0-.34-.05,4.27,4.27,0,0,0-1.13,0,11.41,11.41,0,0,0-1.81.28c-.23,0-.51.1-.62.29s.68.33.85.37a7.24,7.24,0,0,0,1.8,0,2.91,2.91,0,0,0,1.59-.33C82.68,23.8,82.9,23.61,82.73,23.47Z" style="fill:#636161"/><path d="M87.6,22.52c-.12,0-.29-.09-.4-.14a.36.36,0,0,0-.22-.05,6,6,0,0,0-.85,0c-.46.05-.91.1-1.36.19-.17.05-.34.05-.45.24s.51.23.62.28a6.18,6.18,0,0,0,1.36,0,2.08,2.08,0,0,0,1.18-.23C87.54,22.76,87.77,22.62,87.6,22.52Z" style="fill:#636161"/><path d="M91.1,26.25a9.17,9.17,0,0,0-3.22.28s-.06,0-.06,0a10.34,10.34,0,0,0-1.69.51c-.34.1-.74.29-.79.62s.45.23.62.28a5.88,5.88,0,0,0,1.81.09,11.65,11.65,0,0,0,3.16-.56c.51-.14,1.3-.38,1.53-.8S91.39,26.29,91.1,26.25Z" style="fill:#636161"/><path d="M83.41,28.79c-.56-.05-1.07,0-1.58-.05a12.77,12.77,0,0,0-1.75,0c-.63.05-1.93.24-2.27.76a.45.45,0,0,0,0,.52s.06,0,.06.09l.34.14c.11.05.28.05.4.1s.45.09.62.14c.56.09,1.07.23,1.64.28A10.05,10.05,0,0,0,84,30.2c.51-.09,1.36-.14,1.47-.66S83.7,28.79,83.41,28.79Z" style="fill:#636161"/><path d="M93.42,30.2A10.54,10.54,0,0,0,89.8,30a5.39,5.39,0,0,0-1.92,0c-.79.14-1.53.33-2.32.47a5.13,5.13,0,0,0-1.47.38c-.28.14-1.36,1-.68,1.32a3.81,3.81,0,0,0,1.47.23c.79,0,1.59.19,2.43.24a23.71,23.71,0,0,0,4.47-.14,3.14,3.14,0,0,0,2.38-1C94.61,30.86,94.1,30.35,93.42,30.2Z" style="fill:#636161"/><path d="M85.62,24.08c.79-.14,1.64-.28,2.43-.38-.4,0-.74.05-1.13.05a19.55,19.55,0,0,0-3,.47c-.22.05-.9.28-1,.57A7.45,7.45,0,0,1,85.62,24.08Z" style="fill:#636161"/><path d="M78.55,25.87c.51-.05,1-.1,1.58-.19s1.13-.09,1.7-.09a7.22,7.22,0,0,0-1.47,0H80.3a10.23,10.23,0,0,0-2.43.28A3,3,0,0,0,78.55,25.87Z" style="fill:#636161"/><path d="M78.83,23.56a1,1,0,0,1,.4,0,13.32,13.32,0,0,0,1.36-.23,9.39,9.39,0,0,1,1.18-.1,9.55,9.55,0,0,0-1.07,0c-.62.1-1.25.19-1.81.33a.94.94,0,0,0-.4.1C78.61,23.61,78.72,23.56,78.83,23.56Z" style="fill:#636161"/><path d="M85.79,22.52c.34,0,.68-.14,1-.19h-.68c-.4.05-.79.1-1.19.19A2.42,2.42,0,0,0,85.79,22.52Z" style="fill:#636161"/><path d="M86.41,27.14c.57-.19,1.13-.28,1.7-.42s.9-.33,1.41-.43a8.51,8.51,0,0,0-1.64.29s-.06,0-.06,0a10.36,10.36,0,0,0-1.69.52c-.29.1-.74.28-.79.61A2,2,0,0,1,86.41,27.14Z" style="fill:#636161"/><path d="M78.89,29a8.42,8.42,0,0,1,1.87-.19c.79,0,1.52.09,2.31.09.34,0,.68,0,1,0a4.93,4.93,0,0,0-.73-.05c-.57-.05-1.08,0-1.59-.05a12.77,12.77,0,0,0-1.75,0c-.62.05-1.92.24-2.26.76a.16.16,0,0,1-.06.14A4,4,0,0,1,78.89,29Z" style="fill:#636161"/><path d="M83.92,31.1a4.76,4.76,0,0,1,1.19-.47l1.7-.28a6.84,6.84,0,0,1,1.47-.29c.56,0,1.13,0,1.69.05s1.13.05,1.7.05h1.47A9.58,9.58,0,0,0,89.8,30,5,5,0,0,0,87.88,30c-.79.14-1.53.33-2.32.47a5.13,5.13,0,0,0-1.47.38,2.77,2.77,0,0,0-.56.52A1,1,0,0,1,83.92,31.1Z" style="fill:#636161"/><g style="opacity:0.600000023841858"><path d="M91.05,23.7c-.17-.19-.74-.14-1-.14s-.63.05-1,.09a4.73,4.73,0,0,1,.68.33v.1a4.26,4.26,0,0,1-1.35.61,11.72,11.72,0,0,1-1.76.52,5.7,5.7,0,0,1-1.75,0,10.38,10.38,0,0,1-1.7-.47,0,0,0,0,1,0,0h0a2.42,2.42,0,0,1,1-.47,2.6,2.6,0,0,1,.63-.19,5.6,5.6,0,0,0-.91.19c-.28.09-1.13.33-1.07.71.17.61,1.81.56,2.37.66a7.57,7.57,0,0,0,5.37-1C90.93,24.36,91.33,24,91.05,23.7Z" style="fill:#636161"/><path d="M82.9,26c-.28.14-.62.24-.9.38a3.2,3.2,0,0,1-1.08.33,5.65,5.65,0,0,1-1.3,0,11.71,11.71,0,0,1-1.18-.09c-.23,0-1.13-.15-.91-.48.06,0,.06-.09.12-.14-.12.05-.23.05-.29.1s-.22.14-.22.23.34.29.51.33a7.58,7.58,0,0,0,1.8.38,7.92,7.92,0,0,0,2.78-.19C82.34,26.72,83.3,26.2,82.9,26Z" style="fill:#636161"/><path d="M81.89,23.8c-.4.09-.85.18-1.25.23a5.62,5.62,0,0,1-2.37-.19c0,.24.73.29.85.33a7.24,7.24,0,0,0,1.8,0,2.91,2.91,0,0,0,1.59-.33c.11-.05.28-.19.28-.33A2,2,0,0,1,81.89,23.8Z" style="fill:#636161"/><path d="M85.51,23c-.29,0-1,0-1.14-.23v-.05a0,0,0,0,1-.05.05c-.12.19.51.23.62.28a6.18,6.18,0,0,0,1.36,0,2.08,2.08,0,0,0,1.18-.23l.17-.15A3.83,3.83,0,0,1,85.51,23Z" style="fill:#636161"/><path d="M91.84,26.29a.34.34,0,0,1,.17.1s0,0,0,.09h0a4.17,4.17,0,0,1-1.3.52,13.23,13.23,0,0,1-1.7.66,15.81,15.81,0,0,1-2,.24,4.66,4.66,0,0,1-1.64-.15h0c0,.19.45.24.62.29a5.88,5.88,0,0,0,1.81.09,12.05,12.05,0,0,0,3.16-.56c.51-.15,1.3-.38,1.53-.81S92.23,26.29,91.84,26.29Z" style="fill:#636161"/><path d="M84.6,28.93c.28.14.57.38.28.52a4,4,0,0,1-.68.19A9,9,0,0,0,83,30a8.12,8.12,0,0,1-1.47.42,4.74,4.74,0,0,1-1.19,0,7,7,0,0,1-2.43-.75c-.06,0-.06-.05,0-.1a2.65,2.65,0,0,1,.57-.47,1.81,1.81,0,0,0-.63.43.45.45,0,0,0,0,.52s.06,0,.06.09l.34.14c.11.05.28.05.4.1s.45.09.62.14c.56.09,1.07.23,1.64.28A10.05,10.05,0,0,0,84,30.2c.51-.09,1.36-.14,1.47-.66C85.56,29.17,85.11,29,84.6,28.93Z" style="fill:#636161"/><path d="M93.7,31.24a4,4,0,0,1-1.13.28,30,30,0,0,1-3.11.66,14.51,14.51,0,0,1-6-.66s0,0,0,0c-.17.23-.23.51,0,.66a4,4,0,0,0,1.47.23c.79.05,1.59.19,2.43.24a24.58,24.58,0,0,0,4.47-.14,3.18,3.18,0,0,0,2.38-1,.62.62,0,0,0,0-.8A1.31,1.31,0,0,1,93.7,31.24Z" style="fill:#636161"/></g><path d="M77,26.45h-1.8l-.3.4-.7-.2-1.2.5H70l-.6.2-.8.2-.2.4v.2h1l.4.2.2.3h.8l.4-.5.4.2v.3h3.1l.3-.4h.5l.1.4.4-.1h.7s.4-.6.5-.5,1.1.6,1.1.6l.5-.1,1.4.1h.5a7.08,7.08,0,0,1,1.5-.1c.2,0,.5-.3.5-.3l1.5.3.5.2.8-.2.6-.2v-.2l1.1-.1.5-.1.3.3.6-.1V28l-.6-.6.3-.5-1.5-.2-.5.4h-.5l-1.1.1-.2-.2c-.2.1-.3.1-.5.2s-.3.2-.5.2l-.4-.4h-.8c-.2.1-.9.4-.9.4-.3,0-.5-.4-.5-.4h-.6l-.6.4-.6-.7h-1.4l-.2.4Z" style="fill:#636161"/><path d="M83.92,24.75H83l-.2.4-.4-.2-.6.5h-1.6l-.3.2-.4.2-.1.4v.2h.5l.2.3.1.3h.4l.2-.6.2.3v.3h1.6l.1-.5h.2V27l.2-.2h.4s.2-.7.2-.5.5.7.5.7l.3-.2.7.2h.3c.3-.1.5-.1.8-.2.1,0,.3-.4.3-.4l.8.3.3.2.4-.2.3-.2h0l.5-.2.2-.1.1.3.3-.1v-.3l-.3-.7.2-.5-.8-.2-.2.4h-.2l-.5.1-.1-.3c-.1.1-.2.2-.2.3l-.2.2-.2-.5h-.4c-.1.1-.5.4-.5.4s-.3-.4-.3-.4h-.3l-.3.4-.3-.7h-.7l-.1.5Z" style="fill:#636161"/><polygon points="78.62 26.45 78.32 25.25 77.52 24.65 76.62 21.95 76.92 21.75 77.92 24.35 79.02 24.65 78.62 26.45" style="fill:#636161"/><polyline points="78.02 24.65 77.82 21.95 78.32 21.95 78.62 24.75" style="fill:#636161"/><polyline points="79.62 23.95 81.92 21.25 81.32 21.25 79.22 23.35" style="fill:#636161"/><polygon points="79.82 27.55 79.42 21.75 78.72 21.75 78.52 27.55 79.82 27.55" style="fill:#636161"/><path d="M89.62,12.65l.2.3-.1.1h-.5v.3a2.19,2.19,0,0,1-.5.3l.1.4-.3.3-.1.1-.4-.2-.3.4h-.6l.1.4-.3.1-.1.3-.5.3.1.3-.2.3.1.4-.1.3-.4-.1v-.3h-.4l-.1.1-.1-.5-.3-.2-.5.3-.2.4-.2.1-.1-.3-.3.1.1-.3-.5-.2-.1.2.1.1-.3.2-.2-.1-.2-.1-.3.1v-.5l-.3.2.1.4h-.3l-.1-.2h-.4l-.2.1-.2-.1-.3-.1h0l.2-.5-.2-.2-.3.1v-.4l.4-.4-.3-.3H80l-.2-.4V14l-.3-.5.7-.4-.1-.5-.3-.3.1-.6.2-.3v-.5l-.2-.5.3-.4.1-.2h.4l.1-.2v-.3l.3-.2.1-.6.5-.2.2.1h.2v-.3l.5-.3h.1l.2-.3.1-.1a.1.1,0,0,1,.1.1v.1c.1.1.2.2.3.2h0v-.4l.4-.1.3-.1.1.2.4-.2s.4.1.4.2-.2.2,0,.2.4-.5.4-.5l.3-.1.2.4h.2a.14.14,0,0,1,.2,0c.1.1.1.2.2.3l.6-.2c.2,0,.3.1.5.2l.1.1.1.2-.2.2.3.1v.2l.4-.2-.1.5h.4l.3-.2.1.3.2.3-.3.1.5.1-.2.1.3-.1h0l.2.4h-.4l.2.5.2-.1v.3l-.4.2.1.3-.2.1.4.4-.2.2-.1.3.2.3.4.1.1.4Z" style="fill:#636161"/><path d="M89.62,12.65l.2.3-.1.1h-.5v.3a2.19,2.19,0,0,1-.5.3l.1.4-.3.3-.1.1-.4-.2-.2.3-.1.1h-.6l.1.4-.3.1-.1.3-.5.3.1.3-.2.3v.2l.1.2-.1.3-.4-.1v-.3h-.4l-.1.1-.1-.5-.3-.2-.5.3-.2.4-.2.1-.1-.3-.3.1.1-.3-.5-.2-.1.2.1.1-.3.2-.2-.1-.2-.1-.3.1v-.5l-.3.2.1.4h-.3l-.1-.2h-.4l-.2.1-.2-.1-.3-.1h0l.2-.5-.2-.2-.3.1v-.4l.4-.4-.3-.3H80l-.2-.4V14l-.3-.5.7-.4-.1-.5-.3-.3.1-.6.2-.3v-.5l-.2-.5.3-.4.1-.2.1.3.9-.3.5-.3.2.4h.7l.2-.5.6-.1s.3.2.2.4.5.1.5.1l.1-.3s.4-.3.6-.1a1,1,0,0,0,.4.5h1l-.1-.2h.6l.1.7c0,.2,0,.3-.1.4s.9-.2.9-.2.1.2.1.3-.1.6-.1.6l.3.2.2-.1.3.1a2.65,2.65,0,0,1,.5.6c.1.2.6-.6.6-.6l.2.3.4.1.1.4Z" style="fill:#636161"/><path d="M87.72,14.55h-.6l.1.4-.3.1-.1.3-.5.3.1.3-.2.3v.2l-2.8-1.4.2-3L84,12v-.2h.4l.1.2.3.3V12h.6l.1.8.5.3.2-.1h.3l-.2.3.2.1v.2l-.1.2h-.2v.4l.1-.1a.14.14,0,0,1,.2,0l.3.1-.1.2.1.1.3-.1.2-.2.3.1.2.3Z" style="fill:#636161"/><polygon points="84.22 14.65 84.52 13.65 85.42 12.65 85.72 11.45 85.92 11.45 85.92 12.05 86.52 11.35 86.82 11.55 84.22 14.65" style="fill:#636161"/><path d="M88.22,18.15l-.4.2-.2-.2h-.1l.1.2-.3.3-.1-.4-.3.2.1.2.2.2-.1.2H87l-.2.1.1.3-.4.2.1.4.1.3-.1.2h-.1l-.2-.4s-.2-.1-.2.1v.2l-.1.1-.2-.2s-.3.1-.3.2v.1h-.3v-.4l-.4.4V21h-.4l-.2-.5s-.4,0-.4.1a3.21,3.21,0,0,1,.3.5h-.3l-.3-.3v-.3l-.2.5-.3-.2v.5a.36.36,0,0,1-.3.2V21l-.3.5v.3l-.3.1-.1-.2h-.4l.1.2-.3.2-.1-.4-.3.1.1.2-.1.2-.4-.3-.5.1.2.3-.1.2-.2.3v.3h-.2l-.1-.4s-.3,0-.2.1a1,1,0,0,0,.1.3l-.3.4v-.6l-.3-.1V23l-.3.3-.2-.1v-.5l-.4.1v.4l-.1.2h-.3v-.6l-.2-.1-.2.3-.4-.3v-.4l-.3.4-.3.1v.3l-.3.3V23h-.3v.4l-.4-.2-.1-.4-.2.3-.3-.3v-.3l-.1-.4-.2-.1v.4l-.3.1-.2-.4a.14.14,0,0,0-.2,0h0c-.1.1-.3-.2-.3-.2v-.4l-.4.1v.2l-.5.1-.2-.3H72l-.2-.2V21l-.6.1-.1-.1-.1-.1h-.2l-.5.1v-.7l-.1.1-.2.1v.2h-.2l-.1-.2h-.5v-.6l.2-.4h-.2l-.3-.4-.2.1-.2-.3-.3-.2v-.2l.2-.3.1-.4v-.2l.4-.3.1-.2-.3-.3.1-.2h.3l-.1-.2-.1-.2.3-.4.1.2a.35.35,0,0,0,.2.1h.1l.1-.3h.4l-.1-.4-.1.1-.1-.1.1-.4.4-.3-.2-.3h.5l-.4-.4.1-.3.2-.6v-.4l.2-.2.2-.1.3-.4h.3l.1.2h.1V12l.3-.3.1.2h.2v-.2l-.1-.2s-.1-.4,0-.3H73l.1-.3s.2-.3.3-.2l.1.1.1.2.2-.2.1-.3h.5l.1-.4h.4l.3.2.1-.4h.4v.4l.2-.1.1-.3h.2l.1.2v.5H77l.1.4.2-.1v-.3l.3-.2-.1-.3.2-.2.3.2.3-.2v-.3l.4.2.1.4H79l.1-.4h.5v.4h.2a.22.22,0,0,1,.2.2l.1.1v.2l.2.2c.1,0,.1-.1.2,0s.3-.4.3-.4l.3.1.1.3-.2.2.1.2.3-.2s.3,0,.4.1a1.44,1.44,0,0,1,.2.3l-.1.4h.3l.5-.1.4-.2s.3.1.3.2l.1.2h.2s.3.1.3.3v.5c.1-.1.2-.1.2,0h0c.1.1.2-.3.3.1l.1.4.3-.1L85,13l.2.1.2.5-.3.1V14c0,.1-.3.4-.3.4l.2.2h.3V15a.75.75,0,0,0,.3.3l.2-.2v.5l.2.1.1-.2.1.3-.2.3h.3v.3l.3-.5.2.5H87v.3h.2v.5l.3.2v.3h-.2l.1.2h0Z" style="fill:#636161"/><path d="M88.22,18.15l-.4.2-.2-.2h-.1l.1.2-.3.3-.1-.4-.3.2.1.2.2.2-.1.2H87l-.2.1.1.3-.4.2.1.4.1.3-.1.2h-.1l-.2-.4s-.2-.1-.2.1v.2l-.1.1-.2-.2s-.3.1-.3.2v.1h-.3v-.4l-.4.4V21h-.4l-.2-.5s-.4,0-.4.1a3.21,3.21,0,0,1,.3.5h-.3l-.3-.3v-.3l-.2.5-.3-.2v.5a.36.36,0,0,1-.3.2V21l-.3.5h0v.3l-.3.1-.1-.2h-.4l.1.2-.3.2-.1-.4-.3.1.1.2-.1.2-.4-.3-.5.1.2.3-.1.2-.2.3v.3h-.2l-.1-.4s-.3,0-.2.1a1,1,0,0,0,.1.3l-.3.4v-.6l-.3-.1V23l-.3.3-.2-.1v-.5l-.4.1v.4l-.1.2h-.3v-.6l-.2-.1-.2.3-.4-.3v-.4l-.3.4-.3.1v.3l-.3.3V23h-.3v.4l-.4-.2-.1-.4-.2.3-.3-.3v-.4l-.1-.3-.2-.1v.4l-.3.1-.2-.4a.14.14,0,0,0-.2,0h0c-.1.1-.3-.2-.3-.2v-.4l-.4.1v.2l-.5.1-.2-.3H72l-.2-.2V21l-.6.1-.1-.1.2-.4.3.2.5-.2v.3l.1.1h.5l.1-.2s.5-.1.5,0v.3h1.1l-.1-.5c.2.1.4.1.6.2v.7h.4l.3-.6s.2,0,.2.1v.5l.7.2.3-.3v-.3h.6s.4.2.3.3.4-.5.4-.5l-.1-.4.6-.4-.1-.4v-.2l.2-.5v-.5l-.5-.5-.1-.5h.3l-.4-.9h-.3l.2-.3.3-.2-1.1-.2v-.5l.6.2.6-.2h.2l.3.6.4.6-.2.2c-.1.1.5.4.5.4l.1.3v1.1l-.3.4-.1.1.4.3.4-.3v.4l.5.3.3-.2.4.2.5-.3.1-.3.2.7a1.42,1.42,0,0,0,.6-.2l.3-.3s.3-.2.5-.1.5-.1.5-.1v-.6l.6-.2.2-.2.1-.4h.4l.2.2.1-.2.1-.5.3.1V17l-.1-.3-.6-.1v-.3h.4l-.4-.6.2-.3-.4-.2-.2-.3v-.2h.1l.1.1.9.6a.45.45,0,0,0,.5,0v.1l-.2.3h.3v.3l.3-.5.2.5h.2v.3h.2v.5l.3.2v.3h-.2l.1.2h0Z" style="fill:#636161"/><polygon points="83.62 14.65 83.22 14.45 83.22 15.05 82.62 15.05 82.62 15.45 82.22 15.45 82.22 15.75 82.92 15.75 83.02 15.35 83.32 15.35 83.62 15.45 83.82 15.25 83.42 15.05 83.82 14.85 83.62 14.65" style="fill:#636161"/><path d="M82.42,21.35h0v.3l-.3.1-.1-.2h-.4l.1.2-.3.2-.1-.4-.3.1.1.2-.1.2-.4-.3-.5.1.2.3-.1.3-.2.3v.3h-.2l-.1-.4s-.3,0-.2.1a1,1,0,0,0,.1.3l-.3.4v-.6l-.3-.1V23l-.3.3-.2-.1v-.5l-.4.1v.4l-.1.2h-.3v-.6l-.2-.1-.2.3-.4-.3v-.4l-.3.4-.3.1v.3l-.3.3V23h-.3v.4l-.4-.2-.1-.4-.2.3-.3-.3v-.4l.3-.2.6.2s.8.2.9,0,.2-.2.3-.2l.6.1.3.1.5-.2.2.2.6-.1.1-.5c.2,0,.3-.1.5-.1l.2-.2s.2-.1.2-.2-.2-.3-.2-.3v-.3c0-.1.2,0,.2,0l.1-.2.1-.2.3.1v.5l.3.2.3-.2.2-.2.4.2h.6l.1-.2v.7Z" style="fill:#636161"/><path d="M83.82,13.45v-.2l-.4-.6-.2-.4a.6.6,0,0,0-.4.1l-.1.1-.6-.1h-.3l-.2-.4s-.5-.3-.5-.2v.5l-.7-.1-.1-.2v-.4l-.5-.1a.37.37,0,0,1-.1.3l-.6-.3-.5.1v.6l-.7-.1v-.6s-.5-.2-.5-.1-.1.2-.2.4l-.2-.1-.3-.3h-.6l-.2.1-.6-.1-.2-.3h-.2l-.6.5-.2-.3s-.3.1-.3.3-.4.4-.4.4l-.2.2v.2c.1.1.1.2.2.3l-.2.3.4.4h-.4l-.3-.5.3-.3-.4-.3-.2.2-.2-.2.2-.4-.2-.2-.2-.2H73l.1-.3s.2-.3.3-.2l.1.1.1.2.2-.2.1-.3h.5l.1-.4h.4l.3.2.1-.4h.4v.4l.2-.1.1-.3h.2l.1.2v.5H77l.1.4.2-.1v-.3l.3-.2-.1-.3.2-.2.3.2.3-.2v-.3l.4.2.1.4H79l.1-.4h.5v.4h.2a.22.22,0,0,1,.2.2l.1.1V11l.2.2c.1,0,.1-.1.2,0s.3-.4.3-.4l.3.1.1.3-.2.2.1.2.3-.2s.3,0,.4.1a1.44,1.44,0,0,1,.2.3l-.1.4h.3l.5-.1.4-.2s.3.1.3.2l.1.2h.2s.3.1.3.3v.5c.1-.1.2-.1.2,0h0c.1.1.2-.3.3.1l.1.4Z" style="fill:#636161"/><path d="M88.72,8.65l-1,.2h-.2l.2-.2-.4-.1-.4-.2s-.3,0-.4-.1,0-.3,0-.5-.2.2-.4.3a1.27,1.27,0,0,1-.6.1l.2-.2-.3-.2-.5.3-.1-.1h-.3l-.1.3-.6-.1a.52.52,0,0,0-.2-.4l-.6.4-.1-.1h-.3l-.2-.2h.1l.2-.3.1-.1a.1.1,0,0,1,.1.1v.1c.1.1.2.2.3.2h0v-.4l.4-.1.3-.1.1.2.4-.2s.4.1.4.2-.2.2,0,.2.4-.5.4-.5l.3-.1.2.4h.2a.14.14,0,0,1,.2,0c.1.1.1.2.2.3l.6-.2c.2,0,.3.1.5.2l.1.1.1.2-.2.2.3.1v.2l.4-.2-.1.5h.4l.3-.2Z" style="fill:#636161"/><polygon points="74.82 21.05 75.02 21.35 74.82 21.75 75.22 22.15 75.72 21.55 75.82 20.85 75.32 20.55 74.82 20.65 74.82 21.05" style="fill:#636161"/><polygon points="70.42 20.25 70.62 20.55 70.42 20.95 70.82 21.35 71.32 20.85 71.42 20.05 70.92 19.75 70.42 19.85 70.42 20.25" style="fill:#636161"/><polygon points="85.22 19.95 85.42 20.25 85.22 20.65 85.62 21.05 86.12 20.45 86.22 19.75 85.72 19.45 85.22 19.55 85.22 19.95" style="fill:#636161"/><polygon points="82.62 18.65 82.82 18.85 82.62 19.15 82.92 19.45 83.32 19.05 83.42 18.45 83.02 18.25 82.62 18.25 82.62 18.65" style="fill:#636161"/><polygon points="80.22 16.35 80.32 16.55 80.22 16.85 80.52 17.15 80.92 16.75 81.02 16.15 80.62 15.85 80.22 15.95 80.22 16.35" style="fill:#636161"/><polygon points="81.72 20.95 81.82 21.25 81.72 21.45 82.02 21.75 82.32 21.35 82.42 20.85 82.12 20.55 81.72 20.65 81.72 20.95" style="fill:#636161"/><polygon points="71.82 21.55 71.92 21.85 71.82 22.15 72.12 22.35 72.52 21.95 72.62 21.45 72.22 21.15 71.82 21.25 71.82 21.55" style="fill:#636161"/><polygon points="87.32 12.85 87.42 13.05 87.32 13.25 87.62 13.45 87.82 13.15 87.92 12.75 87.62 12.55 87.32 12.55 87.32 12.85" style="fill:#636161"/><polygon points="87.92 13.95 88.12 14.25 87.92 14.65 88.32 15.05 88.82 14.45 88.92 13.75 88.42 13.45 87.92 13.55 87.92 13.95" style="fill:#636161"/><polygon points="78.72 18.05 78.82 18.25 78.72 18.45 78.92 18.65 79.22 18.35 79.32 17.95 79.02 17.75 78.72 17.85 78.72 18.05" style="fill:#636161"/><polygon points="77.02 22.75 77.12 22.85 77.02 23.15 77.32 23.35 77.52 23.05 77.62 22.55 77.32 22.35 77.02 22.45 77.02 22.75" style="fill:#636161"/><polygon points="76.02 20.05 76.12 20.25 76.02 20.45 76.22 20.65 76.52 20.35 76.62 19.95 76.32 19.75 76.02 19.85 76.02 20.05" style="fill:#636161"/><path d="M44.18,30.51c0,1.81-2.24,3.28-5,3.28s-5-1.47-5-3.28,2.24-3.27,5-3.27S44.18,28.71,44.18,30.51Z" style="fill:#636161"/><path d="M41.36,30.51c0,.79-1,1.43-2.19,1.43S37,31.3,37,30.51s1-1.43,2.18-1.43S41.36,29.72,41.36,30.51Z" style="fill:#636161"/><path d="M39.33,30c0,.3-.37.54-.83.54s-.83-.24-.83-.54.37-.54.83-.54S39.33,29.71,39.33,30Z" style="fill:#636161"/><path d="M63.45,30.51c0,1.81-2.24,3.28-5,3.28s-5-1.47-5-3.28,2.24-3.27,5-3.27S63.45,28.71,63.45,30.51Z" style="fill:#636161"/><path d="M60.64,30.51c0,.79-1,1.43-2.19,1.43s-2.18-.64-2.18-1.43,1-1.43,2.18-1.43S60.64,29.72,60.64,30.51Z" style="fill:#636161"/><path d="M58.61,30c0,.3-.37.54-.83.54S57,30.31,57,30s.37-.54.83-.54S58.61,29.71,58.61,30Z" style="fill:#636161"/><path d="M67.14,24.39c-2.83-.48-7-.81-7-.81s1.38-8.06-12.48-8.17-12.39,8-12.39,8-7.49,1.29-7.49,2.93v3.49s-.51,1.35,2.07,1.41H34.5a2.07,2.07,0,0,1-.15-.73c0-1.75,2.16-3.16,4.82-3.16S44,28.76,44,30.51a2.06,2.06,0,0,1-.14.73h10a2.3,2.3,0,0,1-.14-.73c0-1.75,2.16-3.16,4.82-3.16s4.82,1.41,4.82,3.16a2.07,2.07,0,0,1-.15.73h4.28s2.41.17,2.41-.79v-4S70.35,24.94,67.14,24.39Z" style="fill:#636161"/><g style="mix-blend-mode:multiply"><path d="M27.81,27v2.82s-.51,1.35,2.07,1.41H34.5a2.07,2.07,0,0,1-.15-.73c0-1.75,2.16-3.16,4.82-3.16S44,28.76,44,30.51a2.06,2.06,0,0,1-.14.73h10a2.3,2.3,0,0,1-.14-.73c0-1.75,2.16-3.16,4.82-3.16s4.82,1.41,4.82,3.16a2.07,2.07,0,0,1-.15.73h4.28s2.41.17,2.41-.79V27Z" style="fill:#636161"/></g><path d="M46.83,16.1c-9.37.48-10.58,4.53-10.5,7.42h10.5Z" style="fill:#636161"/><path d="M46.32,17c-7.76.4-8.76,3.75-8.7,6.14h8.7Z" style="fill:#636161"/><path d="M48.3,23.52H59.48S59.05,15.92,48.3,16Z" style="fill:#636161"/><path d="M48.64,23h8.58s-.33-5.83-8.58-5.74Z" style="fill:#636161"/><path d="M46.49,24.9c0,.2-.25.37-.56.37H44.64c-.31,0-.56-.17-.56-.37h0c0-.2.25-.36.56-.36h1.29c.31,0,.56.16.56.36Z" style="fill:#636161"/><path d="M34.27,30.67c0,.62-.77,1.12-1.71,1.12H29.07c-.94,0-1.71-.5-1.71-1.12h0c0-.62.77-1.12,1.71-1.12h3.49c.94,0,1.71.5,1.71,1.12Z" style="fill:#636161"/><path d="M70.48,30.67c0,.62-.77,1.12-1.71,1.12H65.28c-.94,0-1.71-.5-1.71-1.12h0c0-.62.77-1.12,1.71-1.12h3.49c.94,0,1.71.5,1.71,1.12Z" style="fill:#636161"/><path d="M30.27,26.82a1.08,1.08,0,1,1-1.07-1.29A1.2,1.2,0,0,1,30.27,26.82Z" style="fill:#636161"/><path d="M29.05,26.32a.27.27,0,1,1-.53,0,.27.27,0,1,1,.53,0Z" style="fill:#636161"/><path d="M69.48,28.15a.54.54,0,1,1-.54-.64A.6.6,0,0,1,69.48,28.15Z" style="fill:#636161"/><path d="M68.87,27.9a.15.15,0,0,1-.13.16c-.08,0-.13-.07-.13-.16s0-.16.13-.16A.15.15,0,0,1,68.87,27.9Z" style="fill:#636161"/><path d="M58.88,24.9c0,.2-.25.37-.56.37H57c-.31,0-.56-.17-.56-.37h0c0-.2.25-.36.56-.36h1.29c.31,0,.56.16.56.36Z" style="fill:#636161"/></g></svg>