<svg xmlns="http://www.w3.org/2000/svg" viewBox="0 0 28.61 33.87"><path d="M5.5,23a.22.22,0,0,0,.23.22H7.86A.22.22,0,0,0,8.09,23V21.41a.22.22,0,0,0-.23-.22H5.73a.22.22,0,0,0-.23.22Z" style="fill:#606060"/><path d="M9.15,23a.22.22,0,0,0,.23.22h2.14a.22.22,0,0,0,.22-.22V21.41a.22.22,0,0,0-.22-.22H9.38a.22.22,0,0,0-.23.22Z" style="fill:#606060"/><path d="M3.85,21.92a.25.25,0,0,1-.22-.13A1.68,1.68,0,0,0,3,21.16a3.93,3.93,0,0,0-2.68-.24A.23.23,0,0,1,0,20.75a.23.23,0,0,1,.18-.28,4.22,4.22,0,0,1,3.06.32,2.14,2.14,0,0,1,.83.81.22.22,0,0,1-.13.3A.16.16,0,0,1,3.85,21.92Z" style="fill:#606060"/><path d="M19.26,31.54a1,1,0,1,1-1-.91A.93.93,0,0,1,19.26,31.54Z" style="fill:#606060"/><path d="M17.65,30.13a.31.31,0,0,1-.32.3H3.47a.31.31,0,0,1-.32-.3V21.79a.31.31,0,0,1,.32-.3H17.33a.31.31,0,0,1,.32.3Z" style="fill:#606060"/><polygon points="17.34 15.86 13.18 15.86 13.18 19.06 17.34 17.55 17.34 15.86" style="fill:#606060"/><polygon points="13.18 19.06 13.18 20.95 17.34 20.95 17.34 17.55 13.18 19.06" style="fill:#606060"/><path d="M13.07,15.75v5.3h4.38v-5.3Zm4.15,5.09H13.3V16h3.92v4.87Z" style="fill:#606060"/><rect x="2.51" y="21.92" width="15.77" height="0.6" style="fill:#606060"/><rect x="2.51" y="29.33" width="15.77" height="0.6" style="fill:#606060"/><path d="M6.8,27a3.44,3.44,0,1,0,0,6.87A3.44,3.44,0,1,0,6.8,27Zm0,5.91a2.48,2.48,0,1,1,0-5,2.48,2.48,0,1,1,0,5Z" style="fill:#606060"/><path d="M6.8,28a2.48,2.48,0,1,0,0,5,2.48,2.48,0,1,0,0-5Zm0,4.72a2.24,2.24,0,1,1,0-4.48,2.24,2.24,0,1,1,0,4.48Z" style="fill:#606060"/><path d="M6.8,29.76a.69.69,0,0,0-.72.67.72.72,0,0,0,1.43,0A.69.69,0,0,0,6.8,29.76Zm0,.92a.25.25,0,1,1,0-.5.25.25,0,1,1,0,.5Z" style="fill:#606060"/><path d="M6.8,30.18a.25.25,0,1,0,0,.5.25.25,0,1,0,0-.5Z" style="fill:#606060"/><path d="M6.8,29.67a.14.14,0,0,1-.15-.14V28.41a.14.14,0,0,1,.15-.14.14.14,0,0,1,.14.14v1.12A.14.14,0,0,1,6.8,29.67Z" style="fill:#606060"/><path d="M6.8,32.59a.14.14,0,0,1-.15-.14V31.33a.14.14,0,0,1,.15-.14.14.14,0,0,1,.14.14v1.12A.14.14,0,0,1,6.8,32.59Z" style="fill:#606060"/><path d="M7.6,30.43a.15.15,0,0,1,.15-.14H8.94a.14.14,0,1,1,0,.28H7.75A.15.15,0,0,1,7.6,30.43Z" style="fill:#606060"/><path d="M4.5,30.43a.14.14,0,0,1,.15-.14H5.84a.14.14,0,1,1,0,.28H4.65A.14.14,0,0,1,4.5,30.43Z" style="fill:#606060"/><path d="M7.36,29.9a.15.15,0,0,1,0-.2l.85-.8a.17.17,0,0,1,.21,0,.13.13,0,0,1,0,.2l-.84.8A.18.18,0,0,1,7.36,29.9Z" style="fill:#606060"/><path d="M5.17,32a.13.13,0,0,1,0-.2L6,31a.14.14,0,0,1,.21,0,.15.15,0,0,1,0,.2L5.38,32A.15.15,0,0,1,5.17,32Z" style="fill:#606060"/><path d="M7.36,31a.16.16,0,0,1,.22,0l.84.79a.13.13,0,0,1,0,.2.15.15,0,0,1-.21,0l-.85-.79A.15.15,0,0,1,7.36,31Z" style="fill:#606060"/><path d="M5.17,28.9a.17.17,0,0,1,.21,0l.85.8a.15.15,0,0,1,0,.2.17.17,0,0,1-.21,0l-.85-.8A.13.13,0,0,1,5.17,28.9Z" style="fill:#606060"/><path d="M15.58,15.49V.3a.32.32,0,0,0-.64,0V15.49Z" style="fill:#606060"/><polygon points="27.08 7.72 28.15 7.72 28.61 5.26 26.74 5.26 27.08 7.72" style="fill:#606060"/><path d="M15.26.52A15.07,15.07,0,0,1,26.74,5.27h1.87S22.14-.06,15.26.52Z" style="fill:#606060"/><path d="M16,7.72h10.5l.27-2.45H15.26S15.52,6.15,16,7.72Z" style="fill:#606060"/><path d="M15.26.52V5.27H26.74A15.07,15.07,0,0,0,15.26.52Z" style="fill:#606060"/><polygon points="2.37 7.72 3.43 7.72 3.78 5.26 1.91 5.26 2.37 7.72" style="fill:#606060"/><path d="M15.26.52C8.38-.06,1.91,5.27,1.91,5.27H3.78A15,15,0,0,1,15.26.52Z" style="fill:#606060"/><path d="M3.78,5.27H15.26V.52A15,15,0,0,0,3.78,5.27Z" style="fill:#606060"/><path d="M4.05,7.72h10.5c.4-1.43.71-2.45.71-2.45H3.78Z" style="fill:#606060"/></svg>