<svg xmlns="http://www.w3.org/2000/svg" viewBox="0 0 101.87 15.26"><path d="M.74,2.79a141.62,141.62,0,0,0,20-.77C29,1.11,33.56-.15,42.23.11,44,.16,46.9.44,52.82,1c9.73.93,16.3,1.69,18.38,1.91a129.18,129.18,0,0,0,30.14-.64,9.83,9.83,0,0,1-1.28,8.55,127.93,127.93,0,0,0-14,.9c-8.36,1-11.34,2.21-18.51,2-2.8-.07-6.27-.34-8.43-.51-5-.4-6.79-.71-10.72-.77-2.88,0-5.2.07-6.26.13-1.67.1-2.88.21-3.32.25a83.86,83.86,0,0,1-12,0c-4-.22-11.43.11-26.68,2.3a27.71,27.71,0,0,0,1-6.38A27.5,27.5,0,0,0,.74,2.79Z" style="fill:#636161;stroke:#968f8f;stroke-miterlimit:10;stroke-width:0.150000005960464px"/></svg>