<svg xmlns="http://www.w3.org/2000/svg" viewBox="0 0 22.1 21.8"><path d="M8.8,19.5H7l-.3.4L6,19.7l-1.2.5h-3l-.6.2-.8.2L.2,21v.2h1l.4.2.2.3h.8l.4-.5.4.2v.3H6.5l.3-.4h.5l.1.4.4-.1h.7s.4-.6.5-.5,1.1.6,1.1.6l.5-.1,1.4.1h.5a7.08,7.08,0,0,1,1.5-.1c.2,0,.5-.3.5-.3l1.5.3.5.2.8-.2.6-.2v-.2l1.1-.1.5-.1.3.3.6-.1V21l-.6-.6.3-.5-1.5-.2-.5.4h-.5l-1.1.1-.2-.2c-.2.1-.3.1-.5.2s-.3.2-.5.2l-.4-.4h-.8c-.2.1-.9.4-.9.4-.3,0-.5-.4-.5-.4h-.6l-.6.4-.6-.7H9.5l-.2.4Z" style="fill:#636161"/><path d="M15.7,17.8h-.9l-.2.4-.4-.2-.6.5H12l-.3.2-.4.2-.1.4v.2h.5l.2.3.1.3h.4l.2-.6.2.3v.3h1.6l.1-.5h.2V20l.2-.2h.4s.2-.7.2-.5.5.7.5.7l.3-.2.7.2h.3c.3-.1.5-.1.8-.2.1,0,.3-.4.3-.4l.8.3.3.2.4-.2.3-.2h0l.5-.2.2-.1.1.3.3-.1v-.3l-.3-.7.2-.5-.8-.2-.2.4H20l-.5.1-.1-.3c-.1.1-.2.2-.2.3l-.2.2-.2-.5h-.4c-.1.1-.5.4-.5.4s-.3-.4-.3-.4h-.3l-.3.4-.3-.7H16l-.1.5Z" style="fill:#636161"/><polygon points="10.4 19.5 10.1 18.3 9.3 17.7 8.4 15 8.7 14.8 9.7 17.4 10.8 17.7 10.4 19.5" style="fill:#636161"/><polyline points="9.8 17.7 9.6 15 10.1 15 10.4 17.8" style="fill:#636161"/><polyline points="11.4 17 13.7 14.3 13.1 14.3 11 16.4" style="fill:#636161"/><polygon points="11.6 20.6 11.2 14.8 10.5 14.8 10.3 20.6 11.6 20.6" style="fill:#636161"/><path d="M21.4,5.7l.2.3-.1.1H21v.3a2.19,2.19,0,0,1-.5.3l.1.4-.3.3-.1.1-.4-.2-.3.4h-.6l.1.4-.3.1-.1.3-.5.3.1.3-.2.3.1.4-.1.3-.4-.1V9.7h-.4l-.1.1L17,9.3l-.3-.2-.5.3-.2.4-.2.1-.1-.3-.3.1.1-.3L15,9.2l-.1.2.1.1-.3.2-.2-.1-.2-.1-.3.1V9.1l-.3.2.1.4h-.3l-.1-.2H13l-.2.1-.2-.1-.3-.1h0l.2-.5-.2-.2-.3.1V8.4l.4-.4-.3-.3h-.3l-.2-.4V7l-.3-.5.7-.4-.1-.5-.3-.3.1-.6.2-.3V3.9l-.2-.5L12,3l.1-.2h.4l.1-.2V2.3l.3-.2.1-.6.5-.2.2.1h.2V1.1l.5-.3h.1l.2-.3.1-.1a.1.1,0,0,1,.1.1V.6c.1.1.2.2.3.2h0V.4l.4-.1.3-.1.1.2.4-.2s.4.1.4.2-.2.2,0,.2.4-.5.4-.5l.3-.1.2.4h.2a.14.14,0,0,1,.2,0c.1.1.1.2.2.3l.6-.2c.2,0,.3.1.5.2l.1.1.1.2-.2.2.3.1v.2l.4-.2-.1.5h.4l.3-.2.1.3.2.3-.3.1.5.1-.2.1.3-.1h0l.2.4h-.4l.2.5.2-.1v.3l-.4.2.1.3-.2.1.4.4-.2.2-.1.3.2.3.4.1.1.4Z" style="fill:#636161"/><path d="M21.4,5.7l.2.3-.1.1H21v.3a2.19,2.19,0,0,1-.5.3l.1.4-.3.3-.1.1-.4-.2-.2.3-.1.1h-.6l.1.4-.3.1-.1.3-.5.3.1.3-.2.3v.2l.1.2-.1.3-.4-.1V9.7h-.4l-.1.1L17,9.3l-.3-.2-.5.3-.2.4-.2.1-.1-.3-.3.1.1-.3L15,9.2l-.1.2.1.1-.3.2-.2-.1-.2-.1-.3.1V9.1l-.3.2.1.4h-.3l-.1-.2H13l-.2.1-.2-.1-.3-.1h0l.2-.5-.2-.2-.3.1V8.4l.4-.4-.3-.3h-.3l-.2-.4V7l-.3-.5.7-.4-.1-.5-.3-.3.1-.6.2-.3V3.9l-.2-.5L12,3l.1-.2.1.3.9-.3.5-.3.2.4h.7l.2-.5.6-.1s.3.2.2.4.5.1.5.1l.1-.3s.4-.3.6-.1a1,1,0,0,0,.4.5h1L18,2.7h.6l.1.7c0,.2,0,.3-.1.4s.9-.2.9-.2.1.2.1.3-.1.6-.1.6l.3.2.2-.1.3.1a2.65,2.65,0,0,1,.5.6c.1.2.6-.6.6-.6l.2.3.4.1.1.4Z" style="fill:#636161"/><path d="M19.5,7.6h-.6L19,8l-.3.1-.1.3-.5.3.1.3-.2.3v.2L15.2,8.1l.2-3,.4-.1V4.8h.4l.1.2.3.3V5h.6l.1.8.5.3L18,6h.3l-.2.3.2.1v.2l-.1.2H18v.4l.1-.1a.14.14,0,0,1,.2,0l.3.1-.1.2.1.1.3-.1.2-.2.3.1.2.3Z" style="fill:#636161"/><polygon points="16 7.7 16.3 6.7 17.2 5.7 17.5 4.5 17.7 4.5 17.7 5.1 18.3 4.4 18.6 4.6 16 7.7" style="fill:#636161"/><path d="M20,11.2l-.4.2-.2-.2h-.1l.1.2-.3.3-.1-.4-.3.2.1.2.2.2-.1.2h-.1l-.2.1.1.3-.4.2.1.4.1.3-.1.2h-.1l-.2-.4s-.2-.1-.2.1v.2l-.1.1-.2-.2s-.3.1-.3.2v.1H17v-.4l-.4.4V14h-.4l-.2-.5s-.4,0-.4.1a3.21,3.21,0,0,1,.3.5h-.3l-.3-.3v-.3l-.2.5-.3-.2v.5a.36.36,0,0,1-.3.2V14l-.3.5v.3l-.3.1-.1-.2h-.4l.1.2-.3.2-.1-.4-.3.1.1.2-.1.2-.4-.3-.5.1.2.3-.1.2-.2.3v.3h-.2l-.1-.4s-.3,0-.2.1a1,1,0,0,0,.1.3l-.3.4v-.6l-.3-.1V16l-.3.3-.2-.1v-.5l-.4.1v.4l-.1.2H9.5v-.6l-.2-.1-.2.3-.4-.3v-.4l-.3.4-.3.1v.3l-.3.3V16H7.5v.4l-.4-.2L7,15.8l-.2.3-.3-.3v-.3l-.1-.4L6.2,15v.4l-.3.1-.2-.4a.14.14,0,0,0-.2,0h0c-.1.1-.3-.2-.3-.2v-.4l-.4.1v.2l-.5.1-.2-.3H3.8l-.2-.2V14l-.6.1L2.9,14l-.1-.1H2.6l-.5.1v-.7l-.1.1-.2.1v.2H1.6l-.1-.2H1v-.6l.2-.4H1l-.3-.4-.2.1-.2-.3L0,11.7v-.2l.2-.3.1-.4v-.2l.4-.3.1-.2L.5,9.8l.1-.2H.9L.8,9.4.7,9.2,1,8.8l.1.2a.35.35,0,0,0,.2.1h.1l.1-.3h.4l-.1-.4-.1.1-.1-.1L1.7,8l.4-.3-.2-.3h.5L2,7l.1-.3.2-.6V5.7l.2-.2.2-.1L3,5h.3l.1.2h.1V5l.3-.3.1.2h.2V4.7L4,4.5s-.1-.4,0-.3h.8l.1-.3s.2-.3.3-.2l.1.1.1.2.2-.2.1-.3h.5l.1-.4h.4l.3.2.1-.4h.4v.4l.2-.1.1-.3H8l.1.2v.5h.7l.1.4.2-.1V3.6l.3-.2-.1-.3.2-.2.3.2.3-.2V2.6l.4.2.1.4h.2l.1-.4h.5v.4h.2a.22.22,0,0,1,.2.2l.1.1v.2l.2.2c.1,0,.1-.1.2,0s.3-.4.3-.4l.3.1.1.3-.2.2.1.2.3-.2s.3,0,.4.1a1.44,1.44,0,0,1,.2.3l-.1.4H14l.5-.1.4-.2s.3.1.3.2l.1.2h.2s.3.1.3.3v.5c.1-.1.2-.1.2,0h0c.1.1.2-.3.3.1l.1.4.3-.1.1-.2.2.1.2.5-.3.1V7c0,.1-.3.4-.3.4l.2.2h.3V8a.75.75,0,0,0,.3.3l.2-.2v.5l.2.1.1-.2.1.3-.2.3h.3v.3l.3-.5.2.5h.2v.3H19v.5l.3.2v.3h-.2l.1.2h0Z" style="fill:#636161"/><path d="M20,11.2l-.4.2-.2-.2h-.1l.1.2-.3.3-.1-.4-.3.2.1.2.2.2-.1.2h-.1l-.2.1.1.3-.4.2.1.4.1.3-.1.2h-.1l-.2-.4s-.2-.1-.2.1v.2l-.1.1-.2-.2s-.3.1-.3.2v.1H17v-.4l-.4.4V14h-.4l-.2-.5s-.4,0-.4.1a3.21,3.21,0,0,1,.3.5h-.3l-.3-.3v-.3l-.2.5-.3-.2v.5a.36.36,0,0,1-.3.2V14l-.3.5h0v.3l-.3.1-.1-.2h-.4l.1.2-.3.2-.1-.4-.3.1.1.2-.1.2-.4-.3-.5.1.2.3-.1.2-.2.3v.3h-.2l-.1-.4s-.3,0-.2.1a1,1,0,0,0,.1.3l-.3.4v-.6l-.3-.1V16l-.3.3-.2-.1v-.5l-.4.1v.4l-.1.2H9.5v-.6l-.2-.1-.2.3-.4-.3v-.4l-.3.4-.3.1v.3l-.3.3V16H7.5v.4l-.4-.2L7,15.8l-.2.3-.3-.3v-.4l-.1-.3L6.2,15v.4l-.3.1-.2-.4a.14.14,0,0,0-.2,0h0c-.1.1-.3-.2-.3-.2v-.4l-.4.1v.2l-.5.1-.2-.3H3.8l-.2-.2V14l-.6.1L2.9,14l.2-.4.3.2.5-.2v.3L4,14h.5l.1-.2s.5-.1.5,0v.3H6.2l-.1-.5c.2.1.4.1.6.2v.7h.4l.3-.6s.2,0,.2.1v.5l.7.2.3-.3v-.3h.6s.4.2.3.3.4-.5.4-.5l-.1-.4.6-.4-.1-.4v-.2l.2-.5v-.5L10,11l-.1-.5h.3l-.4-.9H9.5l.2-.3.3-.2L8.9,8.9V8.4l.6.2.6-.2h.2l.3.6.4.6-.2.2c-.1.1.5.4.5.4l.1.3v1.1l-.3.4-.1.1.4.3.4-.3v.4l.5.3.3-.2.4.2.5-.3.1-.3.2.7a1.42,1.42,0,0,0,.6-.2l.3-.3s.3-.2.5-.1.5-.1.5-.1v-.6l.6-.2.2-.2.1-.4H17l.2.2.1-.2.1-.5.3.1V10l-.1-.3L17,9.6V9.3h.4L17,8.7l.2-.3-.4-.2-.2-.3V7.7h.1l.1.1.9.6a.45.45,0,0,0,.5,0v.1l-.2.3h.3v.3l.3-.5.2.5H19v.3h.2v.5l.3.2v.3h-.2l.1.2h0Z" style="fill:#636161"/><polygon points="15.4 7.7 15 7.5 15 8.1 14.4 8.1 14.4 8.5 14 8.5 14 8.8 14.7 8.8 14.8 8.4 15.1 8.4 15.4 8.5 15.6 8.3 15.2 8.1 15.6 7.9 15.4 7.7" style="fill:#636161"/><path d="M14.2,14.4h0v.3l-.3.1-.1-.2h-.4l.1.2-.3.2-.1-.4-.3.1.1.2-.1.2-.4-.3-.5.1.2.3-.1.3-.2.3v.3h-.2l-.1-.4s-.3,0-.2.1a1,1,0,0,0,.1.3l-.3.4v-.6l-.3-.1V16l-.3.3-.2-.1v-.5l-.4.1v.4l-.1.2H9.5v-.6l-.2-.1-.2.3-.4-.3v-.4l-.3.4-.3.1v.3l-.3.3V16H7.5v.4l-.4-.2L7,15.8l-.2.3-.3-.3v-.4l.3-.2.6.2s.8.2.9,0,.2-.2.3-.2l.6.1.3.1.5-.2.2.2.6-.1.1-.5c.2,0,.3-.1.5-.1l.2-.2s.2-.1.2-.2-.2-.3-.2-.3v-.3c0-.1.2,0,.2,0l.1-.2.1-.2.3.1v.5l.3.2.3-.2.2-.2.4.2h.6l.1-.2v.7Z" style="fill:#636161"/><path d="M15.6,6.5V6.3l-.4-.6L15,5.3a.6.6,0,0,0-.4.1l-.1.1-.6-.1h-.3L13.4,5s-.5-.3-.5-.2v.5l-.7-.1L12.1,5V4.6l-.5-.1a.37.37,0,0,1-.1.3l-.6-.3-.5.1v.6l-.7-.1V4.5s-.5-.2-.5-.1-.1.2-.2.4l-.2-.1-.3-.3H7.9l-.2.1-.6-.1-.2-.3H6.7l-.6.5-.2-.3s-.3.1-.3.3-.4.4-.4.4L5,5.2v.2c.1.1.1.2.2.3L5,6l.4.4H5l-.3-.5L5,5.6l-.4-.3-.2.2-.2-.2.2-.4-.2-.2L4,4.5h.8l.1-.3s.2-.3.3-.2l.1.1.1.2.2-.2.1-.3h.5l.1-.4h.4l.3.2.1-.4h.4v.4l.2-.1.1-.3H8l.1.2v.5h.7l.1.4.2-.1V3.9l.3-.2-.1-.3.2-.2.3.2.3-.2V2.9l.4.2.1.4h.2l.1-.4h.5v.4h.2a.22.22,0,0,1,.2.2l.1.1V4l.2.2c.1,0,.1-.1.2,0s.3-.4.3-.4l.3.1.1.3-.2.2.1.2.3-.2s.3,0,.4.1a1.44,1.44,0,0,1,.2.3l-.1.4H14l.5-.1.4-.2s.3.1.3.2l.1.2h.2s.3.1.3.3v.5c.1-.1.2-.1.2,0h0c.1.1.2-.3.3.1l.1.4Z" style="fill:#636161"/><path d="M20.5,1.7l-1,.2h-.2l.2-.2-.4-.1-.4-.2s-.3,0-.4-.1,0-.3,0-.5-.2.2-.4.3a1.27,1.27,0,0,1-.6.1l.2-.2L17.2.8l-.5.3L16.6,1h-.3l-.1.3-.6-.1a.52.52,0,0,0-.2-.4l-.6.4-.1-.1h-.3L14.2.9h.1l.2-.3.1-.1a.1.1,0,0,1,.1.1V.7c.1.1.2.2.3.2h0V.5l.4-.1.3-.1.1.2.4-.2s.4.1.4.2-.2.2,0,.2.4-.5.4-.5l.3-.1.2.4h.2a.14.14,0,0,1,.2,0c.1.1.1.2.2.3l.6-.2c.2,0,.3.1.5.2l.1.1.1.2-.2.2.3.1v.2l.4-.2-.1.5h.4l.3-.2Z" style="fill:#636161"/><polygon points="6.6 14.1 6.8 14.4 6.6 14.8 7 15.2 7.5 14.6 7.6 13.9 7.1 13.6 6.6 13.7 6.6 14.1" style="fill:#636161"/><polygon points="2.2 13.3 2.4 13.6 2.2 14 2.6 14.4 3.1 13.9 3.2 13.1 2.7 12.8 2.2 12.9 2.2 13.3" style="fill:#636161"/><polygon points="17 13 17.2 13.3 17 13.7 17.4 14.1 17.9 13.5 18 12.8 17.5 12.5 17 12.6 17 13" style="fill:#636161"/><polygon points="14.4 11.7 14.6 11.9 14.4 12.2 14.7 12.5 15.1 12.1 15.2 11.5 14.8 11.3 14.4 11.3 14.4 11.7" style="fill:#636161"/><polygon points="12 9.4 12.1 9.6 12 9.9 12.3 10.2 12.7 9.8 12.8 9.2 12.4 8.9 12 9 12 9.4" style="fill:#636161"/><polygon points="13.5 14 13.6 14.3 13.5 14.5 13.8 14.8 14.1 14.4 14.2 13.9 13.9 13.6 13.5 13.7 13.5 14" style="fill:#636161"/><polygon points="3.6 14.6 3.7 14.9 3.6 15.2 3.9 15.4 4.3 15 4.4 14.5 4 14.2 3.6 14.3 3.6 14.6" style="fill:#636161"/><polygon points="19.1 5.9 19.2 6.1 19.1 6.3 19.4 6.5 19.6 6.2 19.7 5.8 19.4 5.6 19.1 5.6 19.1 5.9" style="fill:#636161"/><polygon points="19.7 7 19.9 7.3 19.7 7.7 20.1 8.1 20.6 7.5 20.7 6.8 20.2 6.5 19.7 6.6 19.7 7" style="fill:#636161"/><polygon points="10.5 11.1 10.6 11.3 10.5 11.5 10.7 11.7 11 11.4 11.1 11 10.8 10.8 10.5 10.9 10.5 11.1" style="fill:#636161"/><polygon points="8.8 15.8 8.9 15.9 8.8 16.2 9.1 16.4 9.3 16.1 9.4 15.6 9.1 15.4 8.8 15.5 8.8 15.8" style="fill:#636161"/><polygon points="7.8 13.1 7.9 13.3 7.8 13.5 8 13.7 8.3 13.4 8.4 13 8.1 12.8 7.8 12.9 7.8 13.1" style="fill:#636161"/></svg>