<svg xmlns="http://www.w3.org/2000/svg" viewBox="0 0 31.66 29.66"><g style="opacity:0.5"><rect x="11.1" y="-43.73" width="2.1" height="77.87" style="fill:#fff;opacity:0.49"/><rect x="24.36" y="-43.73" width="2.1" height="77.87" style="fill:#fff;opacity:0.49"/></g><path d="M12.61,26.53H10l-.43.54-1-.27-1.72.68H2.58l-.86.27L.57,28l-.28.55v.27H1.72l.57.27.29.41H3.72l.58-.68.57.27v.41H9.31L9.74,29h.72l.14.54.57-.14h1s.57-.81.71-.68,1.58.82,1.58.82l.72-.14,2,.14h.72a11.09,11.09,0,0,1,2.15-.14c.28,0,.71-.4.71-.4l2.15.4.72.28,1.15-.28.85-.27v-.27l1.58-.14.72-.13.43.41.86-.14v-.27l-.86-.82.43-.68-2.15-.27-.72.54h-.72l-1.57.14-.29-.27c-.28.13-.43.13-.71.27a1.52,1.52,0,0,1-.72.27l-.57-.54H20.2l-1.29.54c-.43,0-.72-.54-.72-.54h-.85l-.86.54-.86-.95h-2l-.29.54Z" style="fill:#39614a"/><path d="M22.49,24.21H21.2l-.28.55-.58-.27-.86.68H17.19l-.43.27-.57.27-.14.55v.27h.71l.29.41.14.4h.58l.28-.81.29.41v.4h2.29l.14-.68h.29v.55l.29-.27h.57s.29-1,.29-.68.71.95.71.95l.43-.27,1,.27h.43c.42-.14.71-.14,1.14-.27.14,0,.43-.55.43-.55l1.15.41.43.27.57-.27.43-.27h0l.72-.27.28-.14.15.41.43-.14V26L30.09,25l.28-.68-1.14-.27-.29.54h-.29l-.71.14-.15-.41c-.14.14-.28.27-.28.41l-.29.27-.29-.68h-.57c-.14.14-.72.54-.72.54s-.43-.54-.43-.54h-.42l-.43.54-.43-.95h-1l-.14.68Z" style="fill:none"/><polygon points="14.9 26.53 14.47 24.89 13.32 24.08 12.03 20.41 12.46 20.13 13.9 23.67 15.47 24.08 14.9 26.53" style="fill:#645d21"/><polyline points="14.04 24.08 13.75 20.41 14.47 20.41 14.9 24.21" style="fill:#645d21"/><polyline points="16.33 23.13 19.63 19.45 18.77 19.45 15.76 22.31" style="fill:#645d21"/><polygon points="16.62 28.02 16.05 20.13 15.04 20.13 14.76 28.02 16.62 28.02" style="fill:#645d21"/><path d="M30.66,7.75l.29.41-.15.14h-.71v.41a3.3,3.3,0,0,1-.72.4l.14.55-.43.41-.14.13-.57-.27-.43.54h-.86l.14.55-.43.14-.14.4-.72.41.14.41-.28.41.14.54-.14.41-.58-.14v-.4h-.57l-.14.13-.14-.68-.43-.27-.72.41-.29.54-.28.14-.15-.41-.43.14.15-.41-.72-.27-.14.27.14.13-.43.28-.29-.14-.28-.14-.43.14v-.68l-.43.27.14.55h-.43l-.14-.28h-.58l-.28.14-.29-.14-.43-.13h0l.29-.68-.29-.27-.43.13v-.54l.58-.55-.43-.41h-.43l-.29-.54V9.52l-.43-.68,1-.54-.14-.68-.43-.41.14-.82.29-.4V5.31l-.29-.68.43-.55.15-.27h.57l.14-.27V3.13l.43-.27L18.62,2l.72-.27.29.13h.28V1.5l.72-.41h.14l.29-.41L21.2.54s.15,0,.15.14V.82c.14.13.28.27.43.27h0V.54l.57-.13.43-.14.14.27L23.5.27s.57.14.57.27-.29.28,0,.28.57-.68.57-.68L25.07,0l.29.54h.28a.22.22,0,0,1,.29,0c.14.14.14.28.29.41l.86-.27a1.6,1.6,0,0,1,.71.27l.15.14.14.27-.29.27.43.14V2l.58-.27-.15.68h.58l.43-.27.14.4.29.41-.43.14.71.13-.28.14.43-.14h0l.28.55h-.57l.29.68.28-.14v.41L30.23,5l.14.41-.28.14.57.54-.29.27-.14.41.29.41.57.14.14.54Z" style="fill:#00953b"/><path d="M30.66,7.75l.29.41-.15.14h-.71v.41a3.3,3.3,0,0,1-.72.4l.14.55-.43.41-.14.13-.57-.27-.29.41-.14.13h-.86l.14.55-.43.14-.14.4-.72.41.14.41-.28.41v.27l.14.27-.14.41-.58-.14v-.4h-.57l-.14.13-.14-.68-.43-.27-.72.41-.29.54-.28.14-.15-.41-.43.14.15-.41-.72-.27-.14.27.14.13-.43.28-.29-.14-.28-.14-.43.14v-.68l-.43.27.14.55h-.43l-.14-.28h-.58l-.28.14-.29-.14-.43-.13h0l.29-.68-.29-.27-.43.13v-.54l.58-.55-.43-.41h-.43l-.29-.54V9.52l-.43-.68,1-.54-.14-.68-.43-.41.14-.82.29-.4V5.31l-.29-.68.43-.55.15-.27.14.41,1.29-.41.71-.41.29.55h1l.29-.69.86-.13s.43.27.29.54.71.14.71.14l.15-.41s.57-.41.86-.14A1.34,1.34,0,0,0,24.5,4h1.43l-.14-.28h.86l.14,1c0,.27,0,.4-.14.54s1.29-.27,1.29-.27.14.27.14.41-.14.81-.14.81l.43.27.28-.13.43.13a3.74,3.74,0,0,1,.72.82c.14.27.86-.82.86-.82L31,6.8l.57.14.14.54Z" style="fill:#007934"/><path d="M27.94,10.34h-.86l.14.54-.43.14-.14.41-.72.41.14.4-.28.41v.27l-4-1.9.28-4.08.58-.14V6.53h.57l.14.27.43.41V6.8h.86l.15,1.09.71.41.29-.14h.43l-.29.41.29.14V9l-.15.27h-.28v.54l.14-.13a.21.21,0,0,1,.29,0l.43.13-.15.28.15.13.43-.13.28-.28.43.14.29.41Z" style="fill:#1a5632"/><polygon points="22.92 10.47 23.35 9.11 24.64 7.75 25.07 6.12 25.36 6.12 25.36 6.94 26.22 5.99 26.65 6.26 22.92 10.47" style="fill:#645d21"/><path d="M28.65,15.24l-.57.27-.29-.27h-.14l.14.27-.43.41-.14-.55-.43.27.14.28.29.27-.14.27h-.15l-.28.14.14.4-.57.28.14.54.14.41-.14.27h-.14L25.93,18s-.29-.14-.29.13v.27l-.14.14-.29-.27s-.42.13-.42.27v.14h-.43v-.55l-.58.55v.41h-.57l-.29-.69s-.57,0-.57.14a4.81,4.81,0,0,1,.43.68h-.43l-.43-.41v-.41l-.29.69-.43-.28v.68a.51.51,0,0,1-.43.28v-.68l-.43.68v.4l-.43.14L19.77,20H19.2l.14.27-.43.27L18.77,20l-.43.13.14.28-.14.27-.57-.41-.72.14.29.4-.15.28-.28.4v.41h-.29l-.14-.54s-.43,0-.29.13a1.32,1.32,0,0,0,.14.41l-.43.55v-.82l-.43-.14v.28l-.43.4L14.76,22v-.68l-.58.13V22l-.14.27h-.43v-.82l-.29-.13-.28.41-.58-.41v-.55l-.43.55-.43.13v.41l-.43.41v-.54h-.43v.54L10.17,22,10,21.49l-.29.41-.43-.41v-.4l-.14-.55-.29-.13V21l-.43.14-.28-.55a.22.22,0,0,0-.29,0h0c-.14.14-.43-.27-.43-.27v-.54l-.57.13v.27l-.72.14-.29-.41H5.44l-.28-.27v-.54l-.86.13-.15-.13L4,18.91H3.72L3,19.05v-1l-.14.14-.29.13v.28H2.29l-.14-.28H1.43v-.81L1.72,17H1.43L1,16.46l-.28.14-.29-.41L0,15.92v-.28l.29-.4.14-.55v-.27L1,14l.15-.27-.43-.41.14-.27h.43l-.14-.27L1,12.52,1.43,12l.15.27a.49.49,0,0,0,.28.14H2L2.15,12h.57l-.14-.54-.14.13-.15-.13.15-.55L3,10.47l-.29-.4h.72l-.57-.55L3,9.11,3.3,8.3V7.75l.28-.27.29-.13L4.3,6.8h.43l.14.27H5V6.8l.43-.41.15.28h.28V6.39l-.14-.27s-.14-.54,0-.41H6.88L7,5.31s.29-.41.43-.28l.14.14.15.27L8,5.17l.15-.41h.71L9,4.22H9.6l.43.27L10.17,4h.57v.54L11,4.35l.14-.4h.29l.14.27V4.9h1l.14.54L13,5.31V4.9l.43-.27-.15-.41L13.61,4l.43.27L14.47,4V3.54l.57.27.15.54h.28l.15-.54h.71v.54h.29a.31.31,0,0,1,.29.28l.14.13V5l.29.28c.14,0,.14-.14.28,0s.43-.55.43-.55l.43.14.14.41-.28.27.14.27.43-.27a1.16,1.16,0,0,1,.57.13,1.85,1.85,0,0,1,.29.41l-.14.55h.43l.71-.14.58-.27s.43.13.43.27l.14.27h.29s.43.14.43.41v.68c.14-.14.28-.14.28,0h0c.15.14.29-.41.43.14l.15.54.43-.14.14-.27.29.14.28.68-.43.13v.41c0,.14-.43.55-.43.55l.29.27h.43v.54a1,1,0,0,0,.43.41l.28-.27v.68l.29.14.14-.28.15.41-.29.41h.43v.41l.43-.68.29.68h.28v.41h.29v.68l.43.27v.41h-.29l.15.27h0Z" style="fill:#00953b"/><path d="M28.65,15.24l-.57.27-.29-.27h-.14l.14.27-.43.41-.14-.55-.43.27.14.28.29.27-.14.27h-.15l-.28.14.14.4-.57.28.14.54.14.41-.14.27h-.14L25.93,18s-.29-.14-.29.13v.27l-.14.14-.29-.27s-.42.13-.42.27v.14h-.43v-.55l-.58.55v.41h-.57l-.29-.69s-.57,0-.57.14a4.81,4.81,0,0,1,.43.68h-.43l-.43-.41v-.41l-.29.69-.43-.28v.68a.51.51,0,0,1-.43.28v-.68l-.43.68v.4l-.43.14L19.77,20H19.2l.14.27-.43.27L18.77,20l-.43.13.14.28-.14.27-.57-.41-.72.14.29.4-.15.28-.28.4v.41h-.29l-.14-.54s-.43,0-.29.13a1.32,1.32,0,0,0,.14.41l-.43.55v-.82l-.43-.14v.28l-.43.4L14.76,22v-.68l-.58.13V22l-.14.27h-.43v-.82l-.29-.13-.28.41-.58-.41v-.55l-.43.55-.43.13v.41l-.43.41v-.54h-.43v.54L10.17,22,10,21.49l-.29.41-.43-.41V21l-.14-.41-.29-.13V21l-.43.14-.28-.55a.22.22,0,0,0-.29,0c-.14.14-.43-.27-.43-.27v-.54l-.57.13v.27l-.72.14-.29-.41H5.44l-.28-.27v-.54l-.86.13-.15-.13.29-.55.43.27.72-.27v.41l.14.14h.72l.14-.28s.72-.13.72,0v.41H8.88l-.14-.68c.29.14.57.14.86.27v1h.57l.43-.82s.29,0,.29.14v.68l1,.27.43-.41v-.41h.86s.57.27.43.41.57-.68.57-.68L14,18.36l.86-.54-.14-.54V17l.28-.68v-.68L14.33,15l-.15-.68h.43L14,13.06h-.43l.29-.41.43-.27-1.58-.27v-.68l.86.27.86-.27h.29l.43.81.57.82-.29.27c-.14.14.72.55.72.55l.14.4v1.5l-.43.54-.14.14.57.41.58-.41V17l.71.41.43-.27.57.27.72-.41.14-.4.29.95a2.2,2.2,0,0,0,.86-.27l.43-.41s.43-.27.72-.14.71-.13.71-.13v-.82l.86-.27.29-.27.14-.55h.58l.28.27.15-.27.14-.68.43.14V13.6l-.15-.4-.85-.14v-.41h.57l-.57-.81.28-.41-.57-.27-.29-.41v-.28h.15l.14.14,1.29.82a.68.68,0,0,0,.71,0v.13l-.28.41h.43v.41l.43-.68.28.68h.29v.41h.29v.68l.43.27v.41h-.29l.14.27Z" style="fill:#007934"/><polygon points="22.06 10.47 21.49 10.2 21.49 11.02 20.63 11.02 20.63 11.56 20.06 11.56 20.06 11.97 21.06 11.97 21.2 11.43 21.63 11.43 22.06 11.56 22.35 11.29 21.78 11.02 22.35 10.75 22.06 10.47" style="fill:#1a5632"/><path d="M20.34,19.59h0V20l-.43.13-.14-.27H19.2l.14.27-.43.28-.14-.55-.43.14.14.27-.14.27-.57-.41-.72.14.29.41-.15.41-.28.4v.41h-.29l-.14-.54s-.43,0-.29.13a1.32,1.32,0,0,0,.14.41l-.43.55v-.82l-.43-.14v.28l-.43.4L14.76,22v-.68l-.58.13V22l-.14.27h-.43v-.82l-.29-.13-.28.41-.58-.41v-.55l-.43.55-.43.13v.41l-.43.41v-.54h-.43v.54L10.17,22,10,21.49l-.29.41-.43-.41V21l.43-.27.86.27s1.15.27,1.29,0a.74.74,0,0,1,.43-.27l.86.13.43.14.72-.27.28.27.86-.14.15-.68c.28,0,.43-.13.71-.13l.29-.27s.29-.14.29-.28-.29-.4-.29-.4v-.41c0-.14.29,0,.29,0l.14-.28.14-.27.43.14v.68l.43.27.43-.27.29-.27.57.27h.86l.14-.27v.95Z" style="fill:#1a5632"/><path d="M22.35,8.84V8.57l-.57-.82-.29-.54a.87.87,0,0,0-.57.14l-.15.13-.86-.13h-.43L19.2,6.8s-.72-.41-.72-.27v.68l-1-.14-.14-.27V6.26l-.72-.14a.49.49,0,0,1-.14.41l-.86-.41-.72.14v.81l-1-.13V6.12s-.72-.27-.72-.13-.14.27-.29.54l-.28-.14L12.18,6h-.86L11,6.12,10.17,6l-.28-.41H9.6l-.86.68-.29-.41S8,6,8,6.26s-.57.54-.57.54l-.29.27v.28c.15.13.15.27.29.4l-.29.41.58.55H7.16L6.73,8l.43-.41-.57-.41-.29.27L6,7.21l.28-.54L6,6.39l-.29-.27H6.88L7,5.71s.29-.4.43-.27l.14.14.15.27L8,5.58l.15-.41h.71L9,4.63H9.6L10,4.9l.14-.55h.57V4.9L11,4.76l.14-.41h.29l.14.28v.68h1l.14.54L13,5.71v-.4L13.47,5l-.15-.4.29-.28.43.28.43-.28V4l.57.27.15.54h.28l.15-.54h.71v.54h.29a.31.31,0,0,1,.29.27l.14.14v.27l.29.27c.14,0,.14-.13.28,0s.43-.54.43-.54l.43.14.14.4L18.34,6l.14.27L18.91,6a1.16,1.16,0,0,1,.57.13,1.85,1.85,0,0,1,.29.41l-.14.54h.43l.71-.13.58-.27s.43.13.43.27l.14.27h.29s.43.14.43.41V8.3c.14-.14.28-.14.28,0h0c.15.13.29-.41.43.13L23.5,9Z" style="fill:#00ae42"/><path d="M29.37,2.31l-1.43.27h-.29l.29-.27-.58-.13-.57-.28a1.16,1.16,0,0,1-.57-.13c-.15-.14,0-.41,0-.68s-.29.27-.58.41a1.94,1.94,0,0,1-.85.13l.28-.27-.43-.27-.71.41-.15-.14h-.43l-.14.41-.86-.14a.67.67,0,0,0-.29-.54l-.86.54-.14-.13h-.43l-.29-.28h.15l.28-.4.15-.14a.14.14,0,0,1,.14.14V1a.74.74,0,0,0,.43.27h0V.68l.57-.14.43-.13.15.27.57-.27s.57.13.57.27-.28.27,0,.27.58-.68.58-.68l.43-.13.28.54h.29a.19.19,0,0,1,.28,0c.15.14.15.27.29.41l.86-.27a1.52,1.52,0,0,1,.72.27l.14.13.14.28-.28.27.43.13v.28l.57-.28-.14.68h.57l.43-.27Z" style="fill:#00ae42"/><polygon points="9.46 19.18 9.74 19.59 9.46 20.13 10.03 20.68 10.74 19.86 10.89 18.91 10.17 18.5 9.46 18.64 9.46 19.18" style="fill:#ffd100"/><polygon points="3.15 18.09 3.44 18.5 3.15 19.05 3.73 19.59 4.44 18.91 4.58 17.82 3.87 17.41 3.15 17.55 3.15 18.09" style="fill:#ffd100"/><polygon points="24.36 17.68 24.64 18.09 24.36 18.64 24.93 19.18 25.64 18.36 25.79 17.41 25.07 17 24.36 17.14 24.36 17.68" style="fill:#ffd100"/><polygon points="20.63 15.92 20.92 16.19 20.63 16.6 21.06 17 21.63 16.46 21.78 15.64 21.2 15.37 20.63 15.37 20.63 15.92" style="fill:#ffd100"/><polygon points="17.19 12.79 17.34 13.06 17.19 13.47 17.62 13.88 18.2 13.33 18.34 12.52 17.77 12.11 17.19 12.24 17.19 12.79" style="fill:#ffd100"/><polygon points="19.34 19.05 19.48 19.45 19.34 19.73 19.77 20.13 20.2 19.59 20.34 18.91 19.91 18.5 19.34 18.64 19.34 19.05" style="fill:#ffd100"/><polygon points="5.16 19.86 5.3 20.27 5.16 20.68 5.59 20.95 6.16 20.41 6.3 19.73 5.73 19.32 5.16 19.45 5.16 19.86" style="fill:#ffd100"/><polygon points="27.36 8.03 27.51 8.3 27.36 8.57 27.79 8.84 28.08 8.43 28.22 7.89 27.79 7.62 27.36 7.62 27.36 8.03" style="fill:#ffd100"/><polygon points="28.22 9.52 28.51 9.93 28.22 10.47 28.8 11.02 29.51 10.2 29.66 9.25 28.94 8.84 28.22 8.98 28.22 9.52" style="fill:#ffd100"/><polygon points="15.04 15.1 15.19 15.37 15.04 15.64 15.33 15.92 15.76 15.51 15.9 14.96 15.47 14.69 15.04 14.83 15.04 15.1" style="fill:#ffd100"/><polygon points="12.61 21.49 12.75 21.63 12.61 22.04 13.04 22.31 13.32 21.9 13.47 21.22 13.04 20.95 12.61 21.09 12.61 21.49" style="fill:#ffd100"/><polygon points="11.18 17.82 11.32 18.09 11.18 18.36 11.46 18.64 11.89 18.23 12.03 17.68 11.61 17.41 11.18 17.55 11.18 17.82" style="fill:#ffd100"/></svg>