<svg xmlns="http://www.w3.org/2000/svg" viewBox="0 0 26.47 25.8"><g style="opacity:0.5"><rect x="4.07" y="-34.71" width="2.1" height="77.92" style="fill:#fff;opacity:0.49"/><rect x="17.35" y="-34.71" width="2.1" height="77.92" style="fill:#fff;opacity:0.49"/></g><path d="M22.15,22.92H22a2.24,2.24,0,0,1,.73.43l1.58,0h.91a.56.56,0,0,1,.28.05c-.17-.05-.34-.14-.51-.19a2.72,2.72,0,0,0-.56-.09,2.12,2.12,0,0,1,.56-.05c.12,0,.29.05.4.05h0a.68.68,0,0,0-.34-.1c-.11,0-.28,0-.4,0h-.28a1.84,1.84,0,0,1,.51-.1c.06,0,.17,0,.23,0h.11c-.11-.05-.23-.05-.34-.1h-.74c-.05,0,.12-.09.12-.14s.17-.09.22-.14a.32.32,0,0,0,.17-.09h0a1.86,1.86,0,0,0-.67.18.78.78,0,0,1,.67-.51h0a.73.73,0,0,0-.45,0,.57.57,0,0,0-.34.24V22c0-.1.06-.19,0-.28h0a.12.12,0,0,0,0,.09.57.57,0,0,1-.12.28c-.05.1-.05.19-.11.29,0-.05,0-.1-.06-.1a1.79,1.79,0,0,0-.34-.42.28.28,0,0,0-.17-.1,1.35,1.35,0,0,0-.22-.09h0s-.06,0-.06-.05v.05c.06,0,.06.05.11.05a.12.12,0,0,1,.06.09.65.65,0,0,1,.17.19,1.38,1.38,0,0,1,.23.38s0,.09.05.09a0,0,0,0,0-.05-.05,1.57,1.57,0,0,0-.34-.23,1.24,1.24,0,0,0-.45-.1h0c0,.05,0,.05.05.05a.6.6,0,0,1,.28.24.72.72,0,0,1,.17.23,1.59,1.59,0,0,0-.39-.23,1.84,1.84,0,0,0-.51-.1v.05a1.2,1.2,0,0,1,.28.14.59.59,0,0,1,.28.23l.12.1c-.06,0-.12,0-.17-.1a1.91,1.91,0,0,0-.68-.18h0l.51.28c.06.05.17.09.22.14s-.05,0-.05,0a2.89,2.89,0,0,0-.91-.19v0l.51.14C22.6,23,22.26,22.92,22.15,22.92Z" style="fill:#2e4d3a"/><path d="M10,21.79H9.88a2.24,2.24,0,0,1,.73.43l1.59,0h.9a.56.56,0,0,1,.28,0c-.17,0-.33-.14-.5-.19a2.82,2.82,0,0,0-.57-.09,2.2,2.2,0,0,1,.57-.05c.11,0,.28.05.39.05h0a.65.65,0,0,0-.34-.1c-.11,0-.28,0-.39,0h-.29a1.84,1.84,0,0,1,.51-.1.89.89,0,0,1,.29,0h.11c-.11-.05-.23-.05-.34-.1h-.74c-.05,0,.12-.09.12-.14s.17-.09.22-.14a.28.28,0,0,0,.17-.1h0a2,2,0,0,0-.68.19.83.83,0,0,1,.68-.52h0a.72.72,0,0,0-.45,0,.57.57,0,0,0-.34.24V20.9c0-.1.06-.19,0-.29h0a.14.14,0,0,0-.06.1.55.55,0,0,1-.11.28,2.33,2.33,0,0,1-.11.28s-.06-.09-.06-.09a1.79,1.79,0,0,0-.34-.42.28.28,0,0,0-.17-.1c0-.05-.11-.05-.22-.09h0s-.06,0-.06-.05v.05c.06,0,.06,0,.11,0a.14.14,0,0,1,.06.1.65.65,0,0,1,.17.19,1.49,1.49,0,0,1,.23.37v.1a.05.05,0,0,0-.06-.05,1.36,1.36,0,0,0-.34-.23,1.15,1.15,0,0,0-.45-.1h0c0,.05,0,.05,0,.05a.68.68,0,0,1,.29.23,1.91,1.91,0,0,1,.17.24.61.61,0,0,0-.34-.28,1.84,1.84,0,0,0-.51-.1v.05a1.45,1.45,0,0,1,.28.14.6.6,0,0,1,.28.24l.12.09c-.06,0-.12,0-.17-.09a1.79,1.79,0,0,0-.68-.19h0l.51.28c0,.05.17.1.22.14s0,0,0,0a3,3,0,0,0-.85-.19v0l.51.14C10.44,21.89,10.1,21.79,10,21.79Z" style="fill:#2e4d3a"/><path d="M21,19.34h-.11a2.36,2.36,0,0,1,.56.33c.17,0,1,0,1.24,0h1l-.4-.14a1.38,1.38,0,0,0-.45,0,.69.69,0,0,1,.45,0h.34c-.06-.05-.17-.05-.28-.09s-.23-.05-.34-.05h-.23a2.42,2.42,0,0,1,.4-.09h.28a.56.56,0,0,0-.28-.05H22.6c-.05,0,.06-.1.11-.1s.12-.09.17-.09.12,0,.17,0h0a1,1,0,0,0-.5.14.72.72,0,0,1,.5-.42h0a.42.42,0,0,0-.34.05.51.51,0,0,0-.28.19v-.24c0-.05.06-.14,0-.24h0c-.05,0-.05.05-.05.1s-.06.14-.06.19-.06.14-.11.23v-.09a.84.84,0,0,0-.29-.33c-.05-.05-.11-.05-.11-.1s-.11,0-.17-.09h-.06s.06,0,.06.05.06,0,.06,0,.11.1.11.15l.17.28v0a.51.51,0,0,0-.28-.19.93.93,0,0,0-.34-.1h0a0,0,0,0,0,.05.05.4.4,0,0,1,.23.19.22.22,0,0,1,.11.19,1.05,1.05,0,0,0-.34-.19,3.59,3.59,0,0,0-.39-.1h0c.05.05.17.05.22.1a.4.4,0,0,1,.23.19s.06,0,.06.09-.12-.05-.12-.09a1,1,0,0,0-.5-.14h0a2.43,2.43,0,0,0,.39.18c.06.05.11.1.17.1s-.06,0-.06,0a1.61,1.61,0,0,0-.67-.14h0a.52.52,0,0,1,.39.14C21.3,19.44,21.07,19.39,21,19.34Z" style="fill:#2e4d3a"/><path d="M14.69,24.48h-.12a1.84,1.84,0,0,1,.68.14c.17-.05,1-.28,1.19-.33a4,4,0,0,1,.68-.19c.05,0,.17-.05.22-.05h-.45a1.46,1.46,0,0,0-.45.1.62.62,0,0,1,.39-.14.83.83,0,0,0,.34-.1h0c-.05,0-.22,0-.28,0s-.23.05-.34.05-.11.05-.17.05a1.16,1.16,0,0,1,.34-.19c.06-.05.11-.05.17-.1s.06,0,.11,0h0a.68.68,0,0,0-.28,0l-.45.15c-.06,0-.06,0-.11,0s.05-.09.05-.14.06-.09.12-.14l.11-.09h0a.74.74,0,0,0-.4.28c0-.24.12-.43.34-.57h0a.58.58,0,0,0-.34.14.28.28,0,0,0-.17.24v-.05s0-.14,0-.19a.17.17,0,0,0-.12-.18h0v.56a0,0,0,0,0,0-.05.64.64,0,0,0-.4-.18c-.06,0-.11-.05-.17-.05h-.17c.06,0,.11.05.06.05s.11,0,.17.09a1.2,1.2,0,0,1,.28.24s.06,0,.06.09l-.06-.05a1.07,1.07,0,0,0-.34-.09h-.34l.06.05a.61.61,0,0,1,.28.09.29.29,0,0,0,.17.09,1.17,1.17,0,0,0-.4,0,1.29,1.29,0,0,0-.39,0h0a.66.66,0,0,1,.28.05.45.45,0,0,1,.28.1c.06,0,.06,0,.12,0a.25.25,0,0,1-.17,0,2.18,2.18,0,0,0-.57,0h0a1.39,1.39,0,0,1,.45.09c.06,0,.17.05.23.05s-.06,0-.06,0a1.72,1.72,0,0,0-.67.09h0a.69.69,0,0,1,.45,0C15,24.43,14.8,24.43,14.69,24.48Z" style="fill:#2e4d3a"/><g style="opacity:0.5"><path d="M23,16.89c-.17-.19-.74-.14-1-.14l-1.41.14c-.63,0-1.25,0-1.87.05a21.2,21.2,0,0,0-3.11.47c-.28.09-1.19.33-1.07.71.17.61,1.92.56,2.48.66a8.37,8.37,0,0,0,5.66-1C22.88,17.55,23.28,17.17,23,16.89Z" style="fill:#4e8e43"/><path d="M14.46,19.15a4.63,4.63,0,0,0-2.66-.37h-.06a11.61,11.61,0,0,0-3.11.42c-.11.05-.22.14-.22.24s.34.28.51.33a8.59,8.59,0,0,0,1.92.37A8.25,8.25,0,0,0,13.72,20C13.89,19.91,14.91,19.39,14.46,19.15Z" style="fill:#4e8e43"/><path d="M14.29,16.66a2.12,2.12,0,0,0-.57-.19.78.78,0,0,0-.34,0,4.66,4.66,0,0,0-1.18,0,14.48,14.48,0,0,0-1.93.28c-.22.05-.5.1-.62.29s.74.33.85.37a7.79,7.79,0,0,0,1.87.05,3.41,3.41,0,0,0,1.69-.33C14.23,17,14.52,16.75,14.29,16.66Z" style="fill:#4e8e43"/><path d="M19.38,15.71l-.45-.14a.47.47,0,0,0-.23,0,5.41,5.41,0,0,0-.9,0,12,12,0,0,0-1.42.18c-.17,0-.39,0-.45.24s.56.24.62.28a6.65,6.65,0,0,0,1.41,0A2.23,2.23,0,0,0,19.21,16C19.32,16,19.55,15.81,19.38,15.71Z" style="fill:#4e8e43"/><path d="M23.05,19.44a10.25,10.25,0,0,0-3.39.28s-.06,0-.06.05a13.49,13.49,0,0,0-1.8.51c-.34.1-.8.29-.8.62s.51.23.63.28a6.52,6.52,0,0,0,1.92.09,12.18,12.18,0,0,0,3.28-.56c.51-.14,1.35-.38,1.58-.8S23.34,19.48,23.05,19.44Z" style="fill:#4e8e43"/><path d="M15,22c-.57-.05-1.13,0-1.7-.05a13.67,13.67,0,0,0-1.81,0c-.62.05-2,.24-2.37.76a.33.33,0,0,0,0,.52s.05,0,.05.09l.4.14c.17,0,.28,0,.45.1a3.17,3.17,0,0,1,.68.09c.57.09,1.13.24,1.7.28a10.73,10.73,0,0,0,3.22-.56c.57-.1,1.41-.14,1.58-.66S15.31,22,15,22Z" style="fill:#4e8e43"/><path d="M25.49,23.39a11.56,11.56,0,0,0-3.79-.23,5.76,5.76,0,0,0-2-.05c-.79.14-1.59.33-2.43.47a5.05,5.05,0,0,0-1.53.38c-.28.14-1.41,1-.74,1.32a4.41,4.41,0,0,0,1.59.24c.85,0,1.69.18,2.54.23a26.22,26.22,0,0,0,4.7-.14,3.33,3.33,0,0,0,2.48-1C26.73,24.05,26.22,23.54,25.49,23.39Z" style="fill:#4e8e43"/></g><path d="M22.83,16.75c-.17-.19-.74-.14-1-.14l-1.36.14c-.62,0-1.19,0-1.81.05a19.55,19.55,0,0,0-3,.47c-.28.09-1.13.33-1.07.71.17.61,1.81.56,2.37.66a7.61,7.61,0,0,0,5.38-1C22.71,17.41,23.11,17,22.83,16.75Z" style="fill:#777566"/><path d="M14.69,19a4.27,4.27,0,0,0-2.55-.37h-.06a10.4,10.4,0,0,0-2.94.42c-.11.05-.22.14-.22.24s.34.28.51.32a7.56,7.56,0,0,0,1.81.38A7.65,7.65,0,0,0,14,19.81C14.12,19.77,15.08,19.25,14.69,19Z" style="fill:#777566"/><path d="M14.52,16.51a1.82,1.82,0,0,0-.57-.18.8.8,0,0,0-.34,0,4.27,4.27,0,0,0-1.13,0,11.59,11.59,0,0,0-1.81.28c-.23.05-.51.1-.62.28s.68.33.85.38a7.3,7.3,0,0,0,1.81.05,3,3,0,0,0,1.58-.33C14.46,16.84,14.69,16.66,14.52,16.51Z" style="fill:#777566"/><path d="M19.38,15.57l-.4-.14a.36.36,0,0,0-.22,0,6,6,0,0,0-.85,0c-.45,0-.91.1-1.36.19-.17,0-.34,0-.45.24s.51.23.62.28a6.18,6.18,0,0,0,1.36,0,2.13,2.13,0,0,0,1.19-.23C19.32,15.81,19.55,15.67,19.38,15.57Z" style="fill:#777566"/><path d="M22.88,19.3a9.17,9.17,0,0,0-3.22.28s-.06,0-.06,0a11.45,11.45,0,0,0-1.69.52c-.34.1-.74.29-.79.62,0,.18.45.23.62.28a5.88,5.88,0,0,0,1.81.09,11.65,11.65,0,0,0,3.16-.56c.51-.14,1.31-.38,1.53-.8S23.17,19.34,22.88,19.3Z" style="fill:#777566"/><path d="M15.19,21.84c-.56-.05-1.07,0-1.58-.05a12.77,12.77,0,0,0-1.75,0c-.62.05-1.92.24-2.26.76a.41.41,0,0,0,0,.51c0,.05.05.05.05.1l.34.14c.11.05.28.05.4.09l.62.15c.57.09,1.07.23,1.64.28a10.05,10.05,0,0,0,3.11-.57c.51-.09,1.36-.14,1.47-.66S15.48,21.84,15.19,21.84Z" style="fill:#777566"/><path d="M25.2,23.25A10.53,10.53,0,0,0,21.58,23,5.39,5.39,0,0,0,19.66,23c-.79.14-1.53.33-2.32.47a5.22,5.22,0,0,0-1.47.38c-.28.14-1.35,1-.68,1.32a3.84,3.84,0,0,0,1.47.23c.8.05,1.59.19,2.44.24a23.63,23.63,0,0,0,4.46-.14,3.14,3.14,0,0,0,2.38-1C26.39,23.91,25.88,23.39,25.2,23.25Z" style="fill:#777566"/><path d="M17.4,17.13c.79-.14,1.64-.29,2.43-.38-.39,0-.73.05-1.13.05a19.55,19.55,0,0,0-3,.47c-.22.05-.9.28-1,.56A7.54,7.54,0,0,1,17.4,17.13Z" style="fill:#777566"/><path d="M10.33,18.92c.51-.05,1-.1,1.58-.19s1.14-.09,1.7-.09a7.22,7.22,0,0,0-1.47,0h-.06a10.29,10.29,0,0,0-2.43.28A3,3,0,0,0,10.33,18.92Z" style="fill:#777566"/><path d="M10.61,16.61a1,1,0,0,1,.4-.05c.45,0,.9-.14,1.36-.23a9.39,9.39,0,0,1,1.18-.1,9.55,9.55,0,0,0-1.07,0c-.62.1-1.24.19-1.81.33a.94.94,0,0,0-.4.1C10.39,16.66,10.5,16.61,10.61,16.61Z" style="fill:#777566"/><path d="M17.57,15.57c.34,0,.68-.14,1-.19h-.68c-.4,0-.79.1-1.19.19A2.42,2.42,0,0,0,17.57,15.57Z" style="fill:#777566"/><path d="M18.19,20.19c.57-.19,1.13-.28,1.7-.42s.9-.33,1.41-.43a9.52,9.52,0,0,0-1.64.28s-.06,0-.06.05a9.47,9.47,0,0,0-1.69.52c-.28.09-.74.28-.79.61A2,2,0,0,1,18.19,20.19Z" style="fill:#777566"/><path d="M10.67,22a8.42,8.42,0,0,1,1.87-.19c.79,0,1.52.09,2.31.09.34,0,.68,0,1,0a4.93,4.93,0,0,0-.73-.05c-.57-.05-1.08,0-1.59-.05a12.77,12.77,0,0,0-1.75,0c-.62.05-1.92.24-2.26.76a.16.16,0,0,1-.06.14A4,4,0,0,1,10.67,22Z" style="fill:#777566"/><path d="M15.7,24.15a4.76,4.76,0,0,1,1.19-.47l1.7-.29a7.51,7.51,0,0,1,1.47-.28c.56,0,1.13,0,1.69.05s1.13.05,1.7.05h1.47a9.82,9.82,0,0,0-3.34-.15,5.17,5.17,0,0,0-1.92,0c-.79.14-1.53.33-2.32.47a5.22,5.22,0,0,0-1.47.38,3,3,0,0,0-.56.51A1.06,1.06,0,0,1,15.7,24.15Z" style="fill:#777566"/><g style="opacity:0.600000023841858"><path d="M22.83,16.75c-.17-.19-.74-.14-1-.14s-.63.05-1,.09a5.19,5.19,0,0,1,.67.33v.1a4.16,4.16,0,0,1-1.35.61,11.72,11.72,0,0,1-1.76.52,5.7,5.7,0,0,1-1.75,0,10.38,10.38,0,0,1-1.7-.47,0,0,0,0,1,0-.05h0a2.29,2.29,0,0,1,1-.47,2.15,2.15,0,0,1,.62-.19,4.88,4.88,0,0,0-.91.19c-.28.09-1.13.33-1.07.71.17.61,1.81.56,2.37.66a7.61,7.61,0,0,0,5.38-1C22.71,17.41,23.11,17,22.83,16.75Z" style="fill:#777566"/><path d="M14.69,19c-.29.14-.63.24-.91.38a3.15,3.15,0,0,1-1.07.33,5.65,5.65,0,0,1-1.3,0,9.39,9.39,0,0,1-1.19-.1c-.23,0-1.13-.14-.91-.47.06,0,.06-.09.12-.14-.12,0-.23,0-.29.1s-.22.14-.22.23.34.28.51.33a7.56,7.56,0,0,0,1.81.38A7.88,7.88,0,0,0,14,19.86C14.12,19.77,15.08,19.25,14.69,19Z" style="fill:#777566"/><path d="M13.67,16.84a11,11,0,0,1-1.25.24,5.79,5.79,0,0,1-2.37-.19c0,.24.73.28.85.33a7.3,7.3,0,0,0,1.81.05,3,3,0,0,0,1.58-.33c.11-.05.28-.19.28-.33A1.94,1.94,0,0,1,13.67,16.84Z" style="fill:#777566"/><path d="M17.29,16c-.29,0-1,0-1.13-.23v-.05a.05.05,0,0,1-.06.05c-.11.19.51.23.62.28a6.18,6.18,0,0,0,1.36,0,2.13,2.13,0,0,0,1.19-.23l.17-.15A3.88,3.88,0,0,1,17.29,16Z" style="fill:#777566"/><path d="M23.62,19.34c.06,0,.11.05.17.1s.06,0,0,.09h0a4.43,4.43,0,0,1-1.3.52,13.23,13.23,0,0,1-1.7.66,14,14,0,0,1-2,.23,4.68,4.68,0,0,1-1.64-.14h0c0,.19.45.24.62.29a5.88,5.88,0,0,0,1.81.09,12.06,12.06,0,0,0,3.16-.57c.51-.14,1.31-.37,1.53-.8S24,19.34,23.62,19.34Z" style="fill:#777566"/><path d="M16.38,22c.28.14.57.38.28.52a4.21,4.21,0,0,1-.67.19,8.76,8.76,0,0,0-1.25.33,8.12,8.12,0,0,1-1.47.42,4.74,4.74,0,0,1-1.19,0,7.31,7.31,0,0,1-2.43-.75c-.05,0-.05-.05,0-.1a2.65,2.65,0,0,1,.57-.47,1.77,1.77,0,0,0-.62.43.41.41,0,0,0,0,.51c0,.05.05.05.05.1l.34.14c.11.05.28.05.4.09l.62.15c.57.09,1.07.23,1.64.28a10.05,10.05,0,0,0,3.11-.57c.51-.09,1.36-.14,1.47-.66S16.89,22.08,16.38,22Z" style="fill:#777566"/><path d="M25.49,24.29a4.14,4.14,0,0,1-1.14.28,30,30,0,0,1-3.11.66,14.51,14.51,0,0,1-6-.66s0,0,0,0c-.17.23-.23.51,0,.66a4,4,0,0,0,1.47.23c.8,0,1.59.19,2.44.24a24.5,24.5,0,0,0,4.46-.14,3.18,3.18,0,0,0,2.38-1,.64.64,0,0,0,0-.81A1.32,1.32,0,0,1,25.49,24.29Z" style="fill:#777566"/></g><path d="M8.8,19.5H7l-.3.4L6,19.7l-1.2.5h-3l-.6.2-.8.2L.2,21v.2h1l.4.2.2.3h.8l.4-.5.4.2v.3H6.5l.3-.4h.5l.1.4.4-.1h.7s.4-.6.5-.5,1.1.6,1.1.6l.5-.1,1.4.1h.5a7.08,7.08,0,0,1,1.5-.1c.2,0,.5-.3.5-.3l1.5.3.5.2.8-.2.6-.2v-.2l1.1-.1.5-.1.3.3.6-.1V21l-.6-.6.3-.5-1.5-.2-.5.4h-.5l-1.1.1-.2-.2c-.2.1-.3.1-.5.2s-.3.2-.5.2l-.4-.4h-.8c-.2.1-.9.4-.9.4-.3,0-.5-.4-.5-.4h-.6l-.6.4-.6-.7H9.5l-.2.4Z" style="fill:#39614a"/><path d="M15.7,17.8h-.9l-.2.4-.4-.2-.6.5H12l-.3.2-.4.2-.1.4v.2h.5l.2.3.1.3h.4l.2-.6.2.3v.3h1.6l.1-.5h.2V20l.2-.2h.4s.2-.7.2-.5.5.7.5.7l.3-.2.7.2h.3c.3-.1.5-.1.8-.2.1,0,.3-.4.3-.4l.8.3.3.2.4-.2.3-.2h0l.5-.2.2-.1.1.3.3-.1v-.3l-.3-.7.2-.5-.8-.2-.2.4H20l-.5.1-.1-.3c-.1.1-.2.2-.2.3l-.2.2-.2-.5h-.4c-.1.1-.5.4-.5.4s-.3-.4-.3-.4h-.3l-.3.4-.3-.7H16l-.1.5Z" style="fill:none"/><polygon points="10.4 19.5 10.1 18.3 9.3 17.7 8.4 15 8.7 14.8 9.7 17.4 10.8 17.7 10.4 19.5" style="fill:#645d21"/><polyline points="9.8 17.7 9.6 15 10.1 15 10.4 17.8" style="fill:#645d21"/><polyline points="11.4 17 13.7 14.3 13.1 14.3 11 16.4" style="fill:#645d21"/><polygon points="11.6 20.6 11.2 14.8 10.5 14.8 10.3 20.6 11.6 20.6" style="fill:#645d21"/><path d="M21.4,5.7l.2.3-.1.1H21v.3a2.19,2.19,0,0,1-.5.3l.1.4-.3.3-.1.1-.4-.2-.3.4h-.6l.1.4-.3.1-.1.3-.5.3.1.3-.2.3.1.4-.1.3-.4-.1V9.7h-.4l-.1.1L17,9.3l-.3-.2-.5.3-.2.4-.2.1-.1-.3-.3.1.1-.3L15,9.2l-.1.2.1.1-.3.2-.2-.1-.2-.1-.3.1V9.1l-.3.2.1.4h-.3l-.1-.2H13l-.2.1-.2-.1-.3-.1h0l.2-.5-.2-.2-.3.1V8.4l.4-.4-.3-.3h-.3l-.2-.4V7l-.3-.5.7-.4-.1-.5-.3-.3.1-.6.2-.3V3.9l-.2-.5L12,3l.1-.2h.4l.1-.2V2.3l.3-.2.1-.6.5-.2.2.1h.2V1.1l.5-.3h.1l.2-.3.1-.1a.1.1,0,0,1,.1.1V.6c.1.1.2.2.3.2h0V.4l.4-.1.3-.1.1.2.4-.2s.4.1.4.2-.2.2,0,.2.4-.5.4-.5l.3-.1.2.4h.2a.14.14,0,0,1,.2,0c.1.1.1.2.2.3l.6-.2c.2,0,.3.1.5.2l.1.1.1.2-.2.2.3.1v.2l.4-.2-.1.5h.4l.3-.2.1.3.2.3-.3.1.5.1-.2.1.3-.1h0l.2.4h-.4l.2.5.2-.1v.3l-.4.2.1.3-.2.1.4.4-.2.2-.1.3.2.3.4.1.1.4Z" style="fill:#00953b"/><path d="M21.4,5.7l.2.3-.1.1H21v.3a2.19,2.19,0,0,1-.5.3l.1.4-.3.3-.1.1-.4-.2-.2.3-.1.1h-.6l.1.4-.3.1-.1.3-.5.3.1.3-.2.3v.2l.1.2-.1.3-.4-.1V9.7h-.4l-.1.1L17,9.3l-.3-.2-.5.3-.2.4-.2.1-.1-.3-.3.1.1-.3L15,9.2l-.1.2.1.1-.3.2-.2-.1-.2-.1-.3.1V9.1l-.3.2.1.4h-.3l-.1-.2H13l-.2.1-.2-.1-.3-.1h0l.2-.5-.2-.2-.3.1V8.4l.4-.4-.3-.3h-.3l-.2-.4V7l-.3-.5.7-.4-.1-.5-.3-.3.1-.6.2-.3V3.9l-.2-.5L12,3l.1-.2.1.3.9-.3.5-.3.2.4h.7l.2-.5.6-.1s.3.2.2.4.5.1.5.1l.1-.3s.4-.3.6-.1a1,1,0,0,0,.4.5h1L18,2.7h.6l.1.7c0,.2,0,.3-.1.4s.9-.2.9-.2.1.2.1.3-.1.6-.1.6l.3.2.2-.1.3.1a2.65,2.65,0,0,1,.5.6c.1.2.6-.6.6-.6l.2.3.4.1.1.4Z" style="fill:#007934"/><path d="M19.5,7.6h-.6L19,8l-.3.1-.1.3-.5.3.1.3-.2.3v.2L15.2,8.1l.2-3,.4-.1V4.8h.4l.1.2.3.3V5h.6l.1.8.5.3L18,6h.3l-.2.3.2.1v.2l-.1.2H18v.4l.1-.1a.14.14,0,0,1,.2,0l.3.1-.1.2.1.1.3-.1.2-.2.3.1.2.3Z" style="fill:#1a5632"/><polygon points="16 7.7 16.3 6.7 17.2 5.7 17.5 4.5 17.7 4.5 17.7 5.1 18.3 4.4 18.6 4.6 16 7.7" style="fill:#645d21"/><path d="M20,11.2l-.4.2-.2-.2h-.1l.1.2-.3.3-.1-.4-.3.2.1.2.2.2-.1.2h-.1l-.2.1.1.3-.4.2.1.4.1.3-.1.2h-.1l-.2-.4s-.2-.1-.2.1v.2l-.1.1-.2-.2s-.3.1-.3.2v.1H17v-.4l-.4.4V14h-.4l-.2-.5s-.4,0-.4.1a3.21,3.21,0,0,1,.3.5h-.3l-.3-.3v-.3l-.2.5-.3-.2v.5a.36.36,0,0,1-.3.2V14l-.3.5v.3l-.3.1-.1-.2h-.4l.1.2-.3.2-.1-.4-.3.1.1.2-.1.2-.4-.3-.5.1.2.3-.1.2-.2.3v.3h-.2l-.1-.4s-.3,0-.2.1a1,1,0,0,0,.1.3l-.3.4v-.6l-.3-.1V16l-.3.3-.2-.1v-.5l-.4.1v.4l-.1.2H9.5v-.6l-.2-.1-.2.3-.4-.3v-.4l-.3.4-.3.1v.3l-.3.3V16H7.5v.4l-.4-.2L7,15.8l-.2.3-.3-.3v-.3l-.1-.4L6.2,15v.4l-.3.1-.2-.4a.14.14,0,0,0-.2,0h0c-.1.1-.3-.2-.3-.2v-.4l-.4.1v.2l-.5.1-.2-.3H3.8l-.2-.2V14l-.6.1L2.9,14l-.1-.1H2.6l-.5.1v-.7l-.1.1-.2.1v.2H1.6l-.1-.2H1v-.6l.2-.4H1l-.3-.4-.2.1-.2-.3L0,11.7v-.2l.2-.3.1-.4v-.2l.4-.3.1-.2L.5,9.8l.1-.2H.9L.8,9.4.7,9.2,1,8.8l.1.2a.35.35,0,0,0,.2.1h.1l.1-.3h.4l-.1-.4-.1.1-.1-.1L1.7,8l.4-.3-.2-.3h.5L2,7l.1-.3.2-.6V5.7l.2-.2.2-.1L3,5h.3l.1.2h.1V5l.3-.3.1.2h.2V4.7L4,4.5s-.1-.4,0-.3h.8l.1-.3s.2-.3.3-.2l.1.1.1.2.2-.2.1-.3h.5l.1-.4h.4l.3.2.1-.4h.4v.4l.2-.1.1-.3H8l.1.2v.5h.7l.1.4.2-.1V3.6l.3-.2-.1-.3.2-.2.3.2.3-.2V2.6l.4.2.1.4h.2l.1-.4h.5v.4h.2a.22.22,0,0,1,.2.2l.1.1v.2l.2.2c.1,0,.1-.1.2,0s.3-.4.3-.4l.3.1.1.3-.2.2.1.2.3-.2s.3,0,.4.1a1.44,1.44,0,0,1,.2.3l-.1.4H14l.5-.1.4-.2s.3.1.3.2l.1.2h.2s.3.1.3.3v.5c.1-.1.2-.1.2,0h0c.1.1.2-.3.3.1l.1.4.3-.1.1-.2.2.1.2.5-.3.1V7c0,.1-.3.4-.3.4l.2.2h.3V8a.75.75,0,0,0,.3.3l.2-.2v.5l.2.1.1-.2.1.3-.2.3h.3v.3l.3-.5.2.5h.2v.3H19v.5l.3.2v.3h-.2l.1.2h0Z" style="fill:#00953b"/><path d="M20,11.2l-.4.2-.2-.2h-.1l.1.2-.3.3-.1-.4-.3.2.1.2.2.2-.1.2h-.1l-.2.1.1.3-.4.2.1.4.1.3-.1.2h-.1l-.2-.4s-.2-.1-.2.1v.2l-.1.1-.2-.2s-.3.1-.3.2v.1H17v-.4l-.4.4V14h-.4l-.2-.5s-.4,0-.4.1a3.21,3.21,0,0,1,.3.5h-.3l-.3-.3v-.3l-.2.5-.3-.2v.5a.36.36,0,0,1-.3.2V14l-.3.5v.3l-.3.1-.1-.2h-.4l.1.2-.3.2-.1-.4-.3.1.1.2-.1.2-.4-.3-.5.1.2.3-.1.2-.2.3v.3h-.2l-.1-.4s-.3,0-.2.1a1,1,0,0,0,.1.3l-.3.4v-.6l-.3-.1V16l-.3.3-.2-.1v-.5l-.4.1v.4l-.1.2H9.5v-.6l-.2-.1-.2.3-.4-.3v-.4l-.3.4-.3.1v.3l-.3.3V16H7.5v.4l-.4-.2L7,15.8l-.2.3-.3-.3v-.4l-.1-.3L6.2,15v.4l-.3.1-.2-.4a.14.14,0,0,0-.2,0c-.1.1-.3-.2-.3-.2v-.4l-.4.1v.2l-.5.1-.2-.3H3.8l-.2-.2V14l-.6.1L2.9,14l.2-.4.3.2.5-.2v.3L4,14h.5l.1-.2s.5-.1.5,0v.3H6.2l-.1-.5c.2.1.4.1.6.2v.7h.4l.3-.6s.2,0,.2.1v.5l.7.2.3-.3v-.3h.6s.4.2.3.3.4-.5.4-.5l-.1-.4.6-.4-.1-.4v-.2l.2-.5v-.5L10,11l-.1-.5h.3l-.4-.9H9.5l.2-.3.3-.2L8.9,8.9V8.4l.6.2.6-.2h.2l.3.6.4.6-.2.2c-.1.1.5.4.5.4l.1.3v1.1l-.3.4-.1.1.4.3.4-.3v.4l.5.3.3-.2.4.2.5-.3.1-.3.2.7a1.42,1.42,0,0,0,.6-.2l.3-.3s.3-.2.5-.1.5-.1.5-.1v-.6l.6-.2.2-.2.1-.4H17l.2.2.1-.2.1-.5.3.1V10l-.1-.3L17,9.6V9.3h.4L17,8.7l.2-.3-.4-.2-.2-.3V7.7h.1l.1.1.9.6a.45.45,0,0,0,.5,0v.1l-.2.3h.3v.3l.3-.5.2.5H19v.3h.2v.5l.3.2v.3h-.2l.1.2Z" style="fill:#007934"/><polygon points="15.4 7.7 15 7.5 15 8.1 14.4 8.1 14.4 8.5 14 8.5 14 8.8 14.7 8.8 14.8 8.4 15.1 8.4 15.4 8.5 15.6 8.3 15.2 8.1 15.6 7.9 15.4 7.7" style="fill:#1a5632"/><path d="M14.2,14.4h0v.3l-.3.1-.1-.2h-.4l.1.2-.3.2-.1-.4-.3.1.1.2-.1.2-.4-.3-.5.1.2.3-.1.3-.2.3v.3h-.2l-.1-.4s-.3,0-.2.1a1,1,0,0,0,.1.3l-.3.4v-.6l-.3-.1V16l-.3.3-.2-.1v-.5l-.4.1v.4l-.1.2H9.5v-.6l-.2-.1-.2.3-.4-.3v-.4l-.3.4-.3.1v.3l-.3.3V16H7.5v.4l-.4-.2L7,15.8l-.2.3-.3-.3v-.4l.3-.2.6.2s.8.2.9,0,.2-.2.3-.2l.6.1.3.1.5-.2.2.2.6-.1.1-.5c.2,0,.3-.1.5-.1l.2-.2s.2-.1.2-.2-.2-.3-.2-.3v-.3c0-.1.2,0,.2,0l.1-.2.1-.2.3.1v.5l.3.2.3-.2.2-.2.4.2h.6l.1-.2v.7Z" style="fill:#1a5632"/><path d="M15.6,6.5V6.3l-.4-.6L15,5.3a.6.6,0,0,0-.4.1l-.1.1-.6-.1h-.3L13.4,5s-.5-.3-.5-.2v.5l-.7-.1L12.1,5V4.6l-.5-.1a.37.37,0,0,1-.1.3l-.6-.3-.5.1v.6l-.7-.1V4.5s-.5-.2-.5-.1-.1.2-.2.4l-.2-.1-.3-.3H7.9l-.2.1-.6-.1-.2-.3H6.7l-.6.5-.2-.3s-.3.1-.3.3-.4.4-.4.4L5,5.2v.2c.1.1.1.2.2.3L5,6l.4.4H5l-.3-.5L5,5.6l-.4-.3-.2.2-.2-.2.2-.4-.2-.2L4,4.5h.8l.1-.3s.2-.3.3-.2l.1.1.1.2.2-.2.1-.3h.5l.1-.4h.4l.3.2.1-.4h.4v.4l.2-.1.1-.3H8l.1.2v.5h.7l.1.4.2-.1V3.9l.3-.2-.1-.3.2-.2.3.2.3-.2V2.9l.4.2.1.4h.2l.1-.4h.5v.4h.2a.22.22,0,0,1,.2.2l.1.1V4l.2.2c.1,0,.1-.1.2,0s.3-.4.3-.4l.3.1.1.3-.2.2.1.2.3-.2s.3,0,.4.1a1.44,1.44,0,0,1,.2.3l-.1.4H14l.5-.1.4-.2s.3.1.3.2l.1.2h.2s.3.1.3.3v.5c.1-.1.2-.1.2,0h0c.1.1.2-.3.3.1l.1.4Z" style="fill:#00ae42"/><path d="M20.5,1.7l-1,.2h-.2l.2-.2-.4-.1-.4-.2s-.3,0-.4-.1,0-.3,0-.5-.2.2-.4.3a1.27,1.27,0,0,1-.6.1l.2-.2L17.2.8l-.5.3L16.6,1h-.3l-.1.3-.6-.1a.52.52,0,0,0-.2-.4l-.6.4-.1-.1h-.3L14.2.9h.1l.2-.3.1-.1a.1.1,0,0,1,.1.1V.7c.1.1.2.2.3.2h0V.5l.4-.1.3-.1.1.2.4-.2s.4.1.4.2-.2.2,0,.2.4-.5.4-.5l.3-.1.2.4h.2a.14.14,0,0,1,.2,0c.1.1.1.2.2.3l.6-.2c.2,0,.3.1.5.2l.1.1.1.2-.2.2.3.1v.2l.4-.2-.1.5h.4l.3-.2Z" style="fill:#00ae42"/><polygon points="6.6 14.1 6.8 14.4 6.6 14.8 7 15.2 7.5 14.6 7.6 13.9 7.1 13.6 6.6 13.7 6.6 14.1" style="fill:#ffd100"/><polygon points="2.2 13.3 2.4 13.6 2.2 14 2.6 14.4 3.1 13.9 3.2 13.1 2.7 12.8 2.2 12.9 2.2 13.3" style="fill:#ffd100"/><polygon points="17 13 17.2 13.3 17 13.7 17.4 14.1 17.9 13.5 18 12.8 17.5 12.5 17 12.6 17 13" style="fill:#ffd100"/><polygon points="14.4 11.7 14.6 11.9 14.4 12.2 14.7 12.5 15.1 12.1 15.2 11.5 14.8 11.3 14.4 11.3 14.4 11.7" style="fill:#ffd100"/><polygon points="12 9.4 12.1 9.6 12 9.9 12.3 10.2 12.7 9.8 12.8 9.2 12.4 8.9 12 9 12 9.4" style="fill:#ffd100"/><polygon points="13.5 14 13.6 14.3 13.5 14.5 13.8 14.8 14.1 14.4 14.2 13.9 13.9 13.6 13.5 13.7 13.5 14" style="fill:#ffd100"/><polygon points="3.6 14.6 3.7 14.9 3.6 15.2 3.9 15.4 4.3 15 4.4 14.5 4 14.2 3.6 14.3 3.6 14.6" style="fill:#ffd100"/><polygon points="19.1 5.9 19.2 6.1 19.1 6.3 19.4 6.5 19.6 6.2 19.7 5.8 19.4 5.6 19.1 5.6 19.1 5.9" style="fill:#ffd100"/><polygon points="19.7 7 19.9 7.3 19.7 7.7 20.1 8.1 20.6 7.5 20.7 6.8 20.2 6.5 19.7 6.6 19.7 7" style="fill:#ffd100"/><polygon points="10.5 11.1 10.6 11.3 10.5 11.5 10.7 11.7 11 11.4 11.1 11 10.8 10.8 10.5 10.9 10.5 11.1" style="fill:#ffd100"/><polygon points="8.8 15.8 8.9 15.9 8.8 16.2 9.1 16.4 9.3 16.1 9.4 15.6 9.1 15.4 8.8 15.5 8.8 15.8" style="fill:#ffd100"/><polygon points="7.8 13.1 7.9 13.3 7.8 13.5 8 13.7 8.3 13.4 8.4 13 8.1 12.8 7.8 12.9 7.8 13.1" style="fill:#ffd100"/></svg>